<svg width="66" height="69" viewBox="0 0 66 69" fill="none" xmlns="http://www.w3.org/2000/svg">
<path fill-rule="evenodd" clip-rule="evenodd" d="M34.0095 9.88456C41.6923 3.64794 53.0684 4.06306 60.2575 11.1396C67.9142 18.6764 67.9142 30.9092 60.2575 38.446L36.1495 62.1763C34.7844 63.5201 32.584 63.5201 31.2189 62.1763L15.5032 46.7068L19.0233 45.873C26.1637 44.1817 30.6608 40.2856 35.0784 35.9371L36.4814 34.5561L42.1304 40.1165L42.8551 24.7226L26.6964 24.9244L32.9584 31.0884L31.5104 32.5137C28.9534 35.0307 25.1586 38.3806 21.0338 40.2326C18.9551 41.1659 16.6755 41.7731 14.3579 41.6123C11.9897 41.448 9.71759 40.489 7.72355 38.5262C0.061049 30.9837 0.110693 18.6707 7.7616 11.1396C14.9507 4.06306 26.3267 3.64794 34.0095 9.88456ZM57.4515 13.9902C51.6881 8.31717 42.5147 8.01785 36.3941 13.1022C35.0191 14.2443 32.9998 14.2443 31.6249 13.1022C25.5043 8.01785 16.3309 8.31717 10.5676 13.9902C4.49708 19.9657 4.47063 29.7115 10.5296 35.6755C11.8553 36.9805 13.235 37.5247 14.6347 37.6219C16.085 37.7225 17.6896 37.3494 19.3954 36.5835C22.2003 35.3241 24.9599 33.151 27.232 31.0644L21.7313 25.6497C21.7313 25.6497 21.7313 25.6497 21.7313 25.6497C19.9484 23.8947 21.2543 20.992 23.631 20.9623L44.131 20.7063C45.6819 20.6869 46.9893 21.9663 46.9136 23.5738L45.9942 43.1037C45.8799 45.5305 42.9643 46.5502 41.3119 44.9236L36.4705 40.158C32.9301 43.5229 28.8982 46.7793 23.3053 48.7739L33.6842 58.9903L57.4515 35.5953C63.5162 29.6256 63.5162 19.96 57.4515 13.9902Z" fill="url(#paint0_linear_1875_28547)"/>
<defs>
<linearGradient id="paint0_linear_1875_28547" x1="53.2771" y1="49.1529" x2="5.65135" y2="37.2046" gradientUnits="userSpaceOnUse">
<stop stop-color="#3A64FA"/>
<stop offset="0.942707" stop-color="#F963BC"/>
</linearGradient>
</defs>
</svg>
