<svg width="68" height="68" viewBox="0 0 68 68" fill="none" xmlns="http://www.w3.org/2000/svg">
<path fill-rule="evenodd" clip-rule="evenodd" d="M34 1C35.1046 1 36 1.89543 36 3V6.64C36 7.74457 35.1046 8.64 34 8.64C32.8954 8.64 32 7.74457 32 6.64V3C32 1.89543 32.8954 1 34 1ZM26 55.68C27.1046 55.68 28 56.5754 28 57.68C28 60.9954 30.6846 63.68 34 63.68C37.3154 63.68 40 60.9954 40 57.68C40 56.5754 40.8954 55.68 42 55.68C43.1046 55.68 44 56.5754 44 57.68C44 63.2046 39.5246 67.68 34 67.68C28.4754 67.68 24 63.2046 24 57.68C24 56.5754 24.8954 55.68 26 55.68Z" fill="url(#paint0_linear_2132_29610)"/>
<path d="M35.4 9.6001C38.7168 9.6001 41.833 10.4727 44.5316 12.0001C50.1807 15.1974 54 21.2637 54 28.2001V44.9001C54 45.4524 54.4477 45.9001 55 45.9001H58C60.21 45.9001 62 47.6901 62 49.9001C62 52.1101 60.21 53.9001 58 53.9001H10C7.79 53.9001 6 52.1101 6 49.9001C6 47.6901 7.79 45.9001 10 45.9001H14V28.2001C14 17.9401 22.35 9.6001 32.6 9.6001H35.39M35.39 5.6001H32.6C20.12 5.6001 10 15.7201 10 28.2001V41.9001C5.58 41.9001 2 45.4801 2 49.9001C2 54.3201 5.58 57.9001 10 57.9001H58C62.42 57.9001 66 54.3201 66 49.9001C66 45.4801 62.42 41.9001 58 41.9001V28.2001C58 20.4889 54.1364 13.6787 48.2397 9.6001C44.593 7.07775 40.1688 5.6001 35.4 5.6001H35.39Z" fill="url(#paint1_linear_2132_29610)"/>
<path fill-rule="evenodd" clip-rule="evenodd" d="M11 44C11 42.8954 11.8954 42 13 42H26C27.1046 42 28 42.8954 28 44C28 45.1046 27.1046 46 26 46H13C11.8954 46 11 45.1046 11 44Z" fill="url(#paint2_linear_2132_29610)"/>
<defs>
<linearGradient id="paint0_linear_2132_29610" x1="40.0241" y1="51.4605" x2="24.2767" y2="50.3925" gradientUnits="userSpaceOnUse">
<stop stop-color="#3A64FA"/>
<stop offset="0.942707" stop-color="#F963BC"/>
</linearGradient>
<linearGradient id="paint1_linear_2132_29610" x1="53.2771" y1="45.1785" x2="6.25415" y2="32.1669" gradientUnits="userSpaceOnUse">
<stop stop-color="#3A64FA"/>
<stop offset="0.942707" stop-color="#F963BC"/>
</linearGradient>
<linearGradient id="paint2_linear_2132_29610" x1="24.6205" y1="45.027" x2="17.6298" y2="38.3089" gradientUnits="userSpaceOnUse">
<stop stop-color="#3A64FA"/>
<stop offset="0.942707" stop-color="#F963BC"/>
</linearGradient>
</defs>
</svg>
