<svg width="51" height="50" viewBox="0 0 51 50" fill="none" xmlns="http://www.w3.org/2000/svg">
<path fill-rule="evenodd" clip-rule="evenodd" d="M47.7001 3.79767e-05C48.5276 -0.00578897 49.2035 0.659665 49.2106 1.48718L49.4999 35.3357C49.5034 35.7358 49.3468 36.1206 49.0652 36.4047C48.7835 36.6887 48.4 36.8485 48 36.8485H44.3004C43.472 36.8485 42.8004 36.177 42.8004 35.3485C42.8004 34.5201 43.472 33.8485 44.3004 33.8485H46.4871L46.2235 3.01051L16.2198 3.22178V5.63335C16.2198 6.46178 15.5482 7.13335 14.7198 7.13335C13.8914 7.13335 13.2198 6.46178 13.2198 5.63335V1.73231C13.2198 0.908 13.8849 0.238147 14.7092 0.232343L47.7001 3.79767e-05ZM38.7941 9.01246C39.6216 9.00663 40.2975 9.67209 40.3046 10.4996L40.6186 47.2351C40.622 47.6333 40.4669 48.0165 40.1876 48.3002C39.9082 48.584 39.5274 48.745 39.1292 48.7478L3.32456 49C2.49694 49.0058 1.82099 48.3402 1.81405 47.5126L1.66146 29.3178C1.65665 28.7437 1.97992 28.2172 2.49407 27.9618C3.00822 27.7064 3.62305 27.7668 4.07761 28.1175C5.59128 29.2852 7.80063 30.2162 10.2922 30.8476C12.7658 31.4744 15.4064 31.7777 17.6985 31.7616C18.0964 31.7588 18.479 31.9141 18.7623 32.1935C19.0456 32.4728 19.2063 32.8532 19.2091 33.2511L19.2418 37.9398L27.9502 29.7793L19.0471 21.244L19.0784 25.7249C19.0812 26.124 18.9249 26.5076 18.644 26.7911C18.3632 27.0746 17.981 27.2345 17.582 27.2354C13.1201 27.2458 9.14385 26.6155 6.24296 24.7263C3.21679 22.7556 1.59484 19.5762 1.56237 15.1163L1.50015 10.7861C1.49441 10.3864 1.64844 10.001 1.92805 9.71529C2.20766 9.42963 2.58972 9.26739 2.98944 9.26458L38.7941 9.01246ZM4.52155 12.2539L4.56229 15.0898C4.58779 18.744 5.85035 20.8906 7.88011 22.2124C9.77601 23.4471 12.5201 24.0823 16.0678 24.2108L16.0376 19.8817C16.0228 17.7589 18.5693 16.6299 20.121 18.1176L30.4678 28.0369C31.4689 28.9967 31.4598 30.6018 30.4478 31.5502L20.3147 41.0457C18.7679 42.4952 16.2658 41.3905 16.2512 39.2965L16.2193 34.7329C14.0679 34.6382 11.7548 34.313 9.55534 33.7557C7.85682 33.3253 6.1815 32.7452 4.68404 31.998L4.80138 45.9895L37.6059 45.7585L37.3175 12.0229L4.52155 12.2539Z" fill="url(#paint0_linear_1875_28522)"/>
<defs>
<linearGradient id="paint0_linear_1875_28522" x1="39.9578" y1="37.0811" x2="3.76608" y2="29.0644" gradientUnits="userSpaceOnUse">
<stop stop-color="#3A64FA"/>
<stop offset="0.942707" stop-color="#F963BC"/>
</linearGradient>
</defs>
</svg>
