<svg width="50" height="50" viewBox="0 0 50 50" fill="none" xmlns="http://www.w3.org/2000/svg">
<path fill-rule="evenodd" clip-rule="evenodd" d="M22.0722 1.94651C22.9046 -0.648856 26.5782 -0.648822 27.4105 1.94652L30.1418 10.4626H39.0171C41.7206 10.4626 42.8605 13.9152 40.6791 15.5208L36.6078 18.5175H42.9828C43.8112 18.5175 44.4828 19.1891 44.4828 20.0175V42.1502C44.4828 42.9786 43.8112 43.6502 42.9828 43.6502H6.5C5.67157 43.6502 5 42.9786 5 42.1502V20.0175C5 19.1891 5.67157 18.5175 6.5 18.5175H12.8749L8.80366 15.5208C6.62231 13.9152 7.76215 10.4626 10.4656 10.4626H19.341L22.0722 1.94651ZM15.7955 21.5175L13.2683 29.3972C12.437 31.9895 15.4137 34.1177 17.5995 32.5089L24.7414 27.252L31.8833 32.5089C34.0691 34.1177 37.0458 31.9895 36.2144 29.3972L33.6873 21.5175H41.4828V40.6502H8V21.5175H15.7955ZM24.7414 3.44745L21.8635 12.4207C21.6644 13.0415 21.0871 13.4626 20.4352 13.4626H11.0683L18.663 19.0528C19.1819 19.4348 19.3989 20.1054 19.2021 20.7189L16.3116 29.7318L23.8522 24.1814C24.3811 23.7921 25.1017 23.7921 25.6306 24.1814L33.1712 29.7318L30.2806 20.7189C30.0839 20.1054 30.3009 19.4348 30.8198 19.0528L38.4145 13.4626H29.0476C28.3956 13.4626 27.8183 13.0415 27.6192 12.4207L24.7414 3.44745ZM13.4692 47.5C13.4692 46.6716 14.1408 46 14.9692 46H33.8621C34.6905 46 35.3621 46.6716 35.3621 47.5C35.3621 48.3284 34.6905 49 33.8621 49H14.9692C14.1408 49 13.4692 48.3284 13.4692 47.5Z" fill="url(#paint0_linear_1875_28525)"/>
<defs>
<linearGradient id="paint0_linear_1875_28525" x1="36.6338" y1="37.0811" x2="6.40678" y2="31.5737" gradientUnits="userSpaceOnUse">
<stop stop-color="#3A64FA"/>
<stop offset="0.942707" stop-color="#F963BC"/>
</linearGradient>
</defs>
</svg>
