<svg width="50" height="50" viewBox="0 0 50 50" fill="none" xmlns="http://www.w3.org/2000/svg">
<path fill-rule="evenodd" clip-rule="evenodd" d="M25.4972 2.94118C22.7852 2.94118 20.6171 5.10864 20.6171 7.7451C20.6171 10.3816 22.7852 12.549 25.4972 12.549C28.2092 12.549 30.3773 10.3816 30.3773 7.7451C30.3773 5.10864 28.2092 2.94118 25.4972 2.94118ZM17.6759 7.7451C17.6759 3.45092 21.1944 0 25.4972 0C29.8 0 33.3185 3.45092 33.3185 7.7451C33.3185 12.0393 29.8 15.4902 25.4972 15.4902C21.1944 15.4902 17.6759 12.0393 17.6759 7.7451ZM17.7337 20.1434C14.8072 17.252 10.0552 17.252 7.12866 20.1434C4.21201 23.0251 4.21201 27.6897 7.12866 30.5714C10.0552 33.4628 14.8072 33.4628 17.7337 30.5714L23.011 25.3574L17.7337 20.1434ZM25.1176 27.4107L19.8009 32.6636C15.7287 36.687 9.13369 36.687 5.06152 32.6636C0.979494 28.6306 0.979493 22.0842 5.06152 18.0512C9.13369 14.0278 15.7287 14.0278 19.8009 18.0512L25.1177 23.3042L30.4344 18.0512C34.5066 14.0279 41.1016 14.0279 45.1738 18.0512C49.2558 22.0843 49.2558 28.6306 45.1738 32.6637C41.1016 36.687 34.5066 36.687 30.4344 32.6637L25.1176 27.4107ZM27.2243 25.3575L32.5016 30.5715C35.4281 33.4629 40.1801 33.4629 43.1066 30.5715C46.0233 27.6898 46.0233 23.0251 43.1066 20.1435C40.1801 17.252 35.4281 17.252 32.5016 20.1435L27.2243 25.3575ZM25.4972 37.451C22.7852 37.451 20.6171 39.6184 20.6171 42.2549C20.6171 44.8914 22.7852 47.0588 25.4972 47.0588C28.2092 47.0588 30.3773 44.8914 30.3773 42.2549C30.3773 39.6184 28.2092 37.451 25.4972 37.451ZM17.6759 42.2549C17.6759 37.9607 21.1944 34.5098 25.4972 34.5098C29.8 34.5098 33.3185 37.9607 33.3185 42.2549C33.3185 46.5491 29.8 50 25.4972 50C21.1944 50 17.6759 46.5491 17.6759 42.2549Z" fill="url(#paint0_linear_1875_28504)"/>
<defs>
<linearGradient id="paint0_linear_1875_28504" x1="39.0439" y1="37.8378" x2="4.00427" y2="30.5112" gradientUnits="userSpaceOnUse">
<stop stop-color="#3A64FA"/>
<stop offset="0.942707" stop-color="#F963BC"/>
</linearGradient>
</defs>
</svg>
