<svg width="287" height="219" viewBox="0 0 287 219" fill="none" xmlns="http://www.w3.org/2000/svg">
<path d="M67.7271 55.0002L34.3233 2.47019L2.48267 56.2923" stroke="url(#paint0_linear_1146_21567)" stroke-width="3" stroke-linecap="round" stroke-linejoin="round"/>
<path d="M68.5131 58.5808C68.5131 65.959 53.736 71.9402 35.5076 71.9402C17.2792 71.9402 2.5022 65.959 2.5022 58.5808" stroke="url(#paint1_linear_1146_21567)" stroke-width="3" stroke-linecap="round" stroke-linejoin="round"/>
<path d="M68.5131 107.303C68.5131 114.681 53.736 120.662 35.5076 120.662C17.2792 120.662 2.5022 114.681 2.5022 107.303" stroke="url(#paint2_linear_1146_21567)" stroke-width="3" stroke-linecap="round" stroke-linejoin="round"/>
<path d="M68.5131 58.5808C68.5131 65.959 53.736 71.9402 35.5076 71.9402C17.2792 71.9402 2.5022 65.959 2.5022 58.5808" stroke="url(#paint3_linear_1146_21567)" stroke-width="3" stroke-linecap="round" stroke-linejoin="round"/>
<path d="M68.5131 107.303C68.5131 114.681 53.736 120.662 35.5076 120.662C17.2792 120.662 2.5022 114.681 2.5022 107.303" stroke="url(#paint4_linear_1146_21567)" stroke-width="3" stroke-linecap="round" stroke-linejoin="round"/>
<path d="M68.5131 107.303C68.5131 99.925 53.736 93.9438 35.5076 93.9438C17.2792 93.9438 2.5022 99.925 2.5022 107.303" stroke="url(#paint5_linear_1146_21567)" stroke-width="3" stroke-linecap="round" stroke-linejoin="round" stroke-dasharray="8 8"/>
<path d="M2.5022 203.962C2.5022 196.584 17.1117 190.603 35.1334 190.603C43.7954 190.603 51.6691 191.984 57.5113 194.239" stroke="url(#paint6_linear_1146_21567)" stroke-width="3" stroke-linecap="round" stroke-linejoin="round" stroke-dasharray="8 8"/>
<path d="M68.5131 58.5808C68.5131 51.2026 53.736 45.2214 35.5076 45.2214C17.2792 45.2214 2.5022 51.2026 2.5022 58.5808" stroke="url(#paint7_linear_1146_21567)" stroke-width="3" stroke-linecap="round" stroke-linejoin="round" stroke-dasharray="8 8"/>
<path d="M68.5131 107.303C68.5131 99.925 53.736 93.9438 35.5076 93.9438C17.2792 93.9438 2.5022 99.925 2.5022 107.303" stroke="url(#paint8_linear_1146_21567)" stroke-width="3" stroke-linecap="round" stroke-linejoin="round" stroke-dasharray="8 8"/>
<path d="M68.5131 58.5808C68.5131 51.2026 53.736 45.2214 35.5076 45.2214C17.2792 45.2214 2.5022 51.2026 2.5022 58.5808" stroke="url(#paint9_linear_1146_21567)" stroke-width="3" stroke-linecap="round" stroke-linejoin="round" stroke-dasharray="8 8"/>
<path d="M68.5131 107.303C68.5131 114.681 53.736 120.662 35.5076 120.662C17.2792 120.662 2.5022 114.681 2.5022 107.303" stroke="url(#paint10_linear_1146_21567)" stroke-width="3" stroke-linecap="round" stroke-linejoin="round"/>
<path d="M68.5131 58.5808C68.5131 65.959 53.736 71.9402 35.5076 71.9402C17.2792 71.9402 2.5022 65.959 2.5022 58.5808" stroke="url(#paint11_linear_1146_21567)" stroke-width="3" stroke-linecap="round" stroke-linejoin="round"/>
<path d="M68.5131 107.303C68.5131 99.925 53.736 93.9438 35.5076 93.9438C17.2792 93.9438 2.5022 99.925 2.5022 107.303" stroke="url(#paint12_linear_1146_21567)" stroke-width="3" stroke-linecap="round" stroke-linejoin="round" stroke-dasharray="8 8"/>
<path d="M68.5131 58.5808C68.5131 51.2026 53.736 45.2214 35.5076 45.2214C17.2792 45.2214 2.5022 51.2026 2.5022 58.5808" stroke="url(#paint13_linear_1146_21567)" stroke-width="3" stroke-linecap="round" stroke-linejoin="round" stroke-dasharray="8 8"/>
<path fill-rule="evenodd" clip-rule="evenodd" d="M2.5 55.5092C3.32843 55.5092 4 56.1807 4 57.0092L4 154.454C4 154.588 3.98228 154.719 3.94906 154.843C3.98365 154.969 4.00211 155.102 4.00211 155.24C4.00211 156.552 4.64542 157.945 6.10968 159.362C7.57839 160.784 9.78216 162.133 12.6279 163.298C18.312 165.625 26.2681 167.099 35.1333 167.099C43.653 167.099 51.3368 165.738 56.9711 163.563C57.744 163.265 58.6123 163.65 58.9106 164.423C59.2089 165.196 58.8241 166.064 58.0512 166.362C52.0013 168.697 43.9376 170.099 35.1333 170.099C25.9768 170.099 17.6173 168.582 11.4912 166.074C8.43189 164.822 5.85693 163.292 4.02319 161.518C2.18499 159.738 1.00211 157.616 1.00211 155.24C1.00211 155.105 1.01983 154.975 1.05306 154.851C1.01847 154.724 1 154.591 1 154.454L1 57.0092C1 56.1807 1.67158 55.5092 2.5 55.5092ZM70.3321 59.295C70.3321 58.4666 69.6606 57.795 68.8321 57.795C68.0037 57.795 67.3321 58.4666 67.3321 59.295V107.375C67.3321 108.203 68.0037 108.875 68.8321 108.875C69.6606 108.875 70.3321 108.203 70.3321 107.375V59.295Z" fill="url(#paint14_linear_1146_21567)"/>
<path fill-rule="evenodd" clip-rule="evenodd" d="M4 105.731C4 104.903 3.32843 104.231 2.5 104.231C1.67158 104.231 1 104.903 1 105.731L1 203.176C1 203.313 1.01847 203.447 1.05306 203.573C1.01983 203.697 1.00211 203.827 1.00211 203.962C1.00211 206.339 2.18499 208.461 4.02319 210.24C5.85693 212.015 8.43189 213.544 11.4912 214.797C17.6173 217.305 25.9768 218.821 35.1333 218.821C43.9376 218.821 52.0013 217.419 58.0512 215.084C58.8241 214.786 59.2089 213.918 58.9106 213.145C58.6123 212.372 57.744 211.987 56.9711 212.286C51.3368 214.46 43.653 215.821 35.1333 215.821C26.2681 215.821 18.312 214.347 12.6279 212.02C9.78216 210.855 7.57839 209.506 6.10968 208.084C4.64542 206.667 4.00211 205.274 4.00211 203.962C4.00211 203.825 3.98365 203.692 3.94906 203.565C3.98228 203.441 4 203.311 4 203.176L4 105.731Z" fill="url(#paint15_linear_1146_21567)"/>
<path d="M2.5022 155.24C2.5022 147.861 17.1117 141.88 35.1334 141.88C43.7954 141.88 51.6691 143.262 57.5113 145.517" stroke="url(#paint16_linear_1146_21567)" stroke-width="3" stroke-linecap="round" stroke-linejoin="round" stroke-dasharray="8 8"/>
<path d="M2.5022 155.24C2.5022 162.618 17.1117 168.599 35.1334 168.599C43.7954 168.599 51.6691 167.217 57.5113 164.963" stroke="url(#paint17_linear_1146_21567)" stroke-width="3" stroke-linecap="round" stroke-linejoin="round"/>
<path d="M57.8178 217.445L83.1555 193.185L83.1555 96.3012" stroke="url(#paint18_linear_1146_21567)" stroke-width="3" stroke-linecap="round" stroke-linejoin="round" stroke-dasharray="8 8"/>
<path d="M108.89 217.445L134.227 193.185L134.227 96.3012" stroke="url(#paint19_linear_1146_21567)" stroke-width="3" stroke-linecap="round" stroke-linejoin="round" stroke-dasharray="8 8"/>
<path d="M159.184 217.445L184.521 193.185L184.521 96.3012" stroke="url(#paint20_linear_1146_21567)" stroke-width="3" stroke-linecap="round" stroke-linejoin="round" stroke-dasharray="8 8"/>
<path d="M108.497 120.523H57.8218V169.045H108.497V120.523Z" stroke="url(#paint21_linear_1146_21567)" stroke-width="3" stroke-linecap="round" stroke-linejoin="round"/>
<path fill-rule="evenodd" clip-rule="evenodd" d="M221.32 110.256C221.859 110.885 221.786 111.832 221.157 112.371L210.155 121.801C209.526 122.34 208.579 122.268 208.04 121.639C207.501 121.01 207.574 120.063 208.203 119.524L219.205 110.093C219.834 109.554 220.781 109.627 221.32 110.256ZM220.027 158.448C220.644 159.003 220.674 159.931 220.094 160.522L210.744 170.047C210.164 170.637 209.194 170.666 208.578 170.111C207.961 169.556 207.931 168.628 208.511 168.037L217.862 158.512C218.441 157.922 219.411 157.893 220.027 158.448ZM220.094 208.375C220.674 207.784 220.644 206.856 220.027 206.301C219.411 205.746 218.441 205.775 217.862 206.365L208.511 215.89C207.931 216.481 207.961 217.409 208.578 217.964C209.194 218.519 210.164 218.49 210.744 217.9L220.094 208.375Z" fill="url(#paint22_linear_1146_21567)"/>
<path fill-rule="evenodd" clip-rule="evenodd" d="M58.2971 143.524C57.4687 143.524 56.7971 144.195 56.7971 145.024C56.7971 145.852 57.4687 146.524 58.2971 146.524L62.3049 146.524C63.1334 146.524 63.8049 145.852 63.8049 145.024C63.8049 144.195 63.1334 143.524 62.3049 143.524H58.2971ZM70.3205 143.524C69.4921 143.524 68.8205 144.195 68.8205 145.024C68.8205 145.852 69.4921 146.524 70.3205 146.524L78.3361 146.524C79.1646 146.524 79.8361 145.852 79.8361 145.024C79.8361 144.195 79.1646 143.524 78.3361 143.524H70.3205ZM86.3517 143.524C85.5233 143.524 84.8517 144.195 84.8517 145.024C84.8517 145.852 85.5233 146.524 86.3517 146.524L94.3674 146.524C95.1958 146.524 95.8674 145.852 95.8674 145.024C95.8674 144.195 95.1958 143.524 94.3674 143.524L86.3517 143.524ZM102.383 143.524C101.555 143.524 100.883 144.195 100.883 145.024C100.883 145.852 101.555 146.524 102.383 146.524L110.399 146.524C111.227 146.524 111.899 145.852 111.899 145.024C111.899 144.195 111.227 143.524 110.399 143.524L102.383 143.524ZM118.414 143.524C117.586 143.524 116.914 144.195 116.914 145.024C116.914 145.852 117.586 146.524 118.414 146.524L126.43 146.524C127.258 146.524 127.93 145.852 127.93 145.024C127.93 144.195 127.258 143.524 126.43 143.524L118.414 143.524ZM134.445 143.524C133.617 143.524 132.945 144.195 132.945 145.024C132.945 145.852 133.617 146.524 134.445 146.524L142.461 146.524C143.289 146.524 143.961 145.852 143.961 145.024C143.961 144.195 143.289 143.524 142.461 143.524L134.445 143.524ZM150.477 143.524C149.648 143.524 148.977 144.195 148.977 145.024C148.977 145.852 149.648 146.524 150.477 146.524L158.492 146.524C159.321 146.524 159.992 145.852 159.992 145.024C159.992 144.195 159.321 143.524 158.492 143.524L150.477 143.524ZM166.508 143.524C165.679 143.524 165.008 144.195 165.008 145.024C165.008 145.852 165.679 146.524 166.508 146.524L174.523 146.524C175.352 146.524 176.023 145.852 176.023 145.024C176.023 144.195 175.352 143.524 174.523 143.524L166.508 143.524ZM182.539 143.524C181.711 143.524 181.039 144.195 181.039 145.024C181.039 145.852 181.711 146.524 182.539 146.524L190.555 146.524C191.383 146.524 192.055 145.852 192.055 145.024C192.055 144.195 191.383 143.524 190.555 143.524L182.539 143.524ZM198.57 143.524C197.742 143.524 197.07 144.195 197.07 145.024C197.07 145.852 197.742 146.524 198.57 146.524L206.586 146.524C207.414 146.524 208.086 145.852 208.086 145.024C208.086 144.195 207.414 143.524 206.586 143.524L198.57 143.524ZM214.602 143.524C213.773 143.524 213.102 144.195 213.102 145.024C213.102 145.852 213.773 146.524 214.602 146.524L218.609 146.524C219.438 146.524 220.109 145.852 220.109 145.024C220.109 144.195 219.438 143.524 218.609 143.524L214.602 143.524ZM58.2971 191.46C57.4687 191.46 56.7971 192.132 56.7971 192.96C56.7971 193.789 57.4687 194.46 58.2971 194.46H62.3049C63.1334 194.46 63.8049 193.789 63.8049 192.96C63.8049 192.132 63.1334 191.46 62.3049 191.46H58.2971ZM70.3205 191.46C69.4921 191.46 68.8205 192.132 68.8205 192.96C68.8205 193.789 69.4921 194.46 70.3205 194.46H78.3361C79.1646 194.46 79.8361 193.789 79.8361 192.96C79.8361 192.132 79.1646 191.46 78.3361 191.46H70.3205ZM86.3517 191.46C85.5233 191.46 84.8517 192.132 84.8517 192.96C84.8517 193.789 85.5233 194.46 86.3517 194.46H94.3674C95.1958 194.46 95.8674 193.789 95.8674 192.96C95.8674 192.132 95.1958 191.46 94.3674 191.46H86.3517ZM102.383 191.46C101.555 191.46 100.883 192.132 100.883 192.96C100.883 193.789 101.555 194.46 102.383 194.46H110.399C111.227 194.46 111.899 193.789 111.899 192.96C111.899 192.132 111.227 191.46 110.399 191.46H102.383ZM118.414 191.46C117.586 191.46 116.914 192.132 116.914 192.96C116.914 193.789 117.586 194.46 118.414 194.46L126.43 194.46C127.258 194.46 127.93 193.789 127.93 192.96C127.93 192.132 127.258 191.46 126.43 191.46L118.414 191.46ZM134.445 191.46C133.617 191.46 132.945 192.132 132.945 192.96C132.945 193.789 133.617 194.46 134.445 194.46H142.461C143.289 194.46 143.961 193.789 143.961 192.96C143.961 192.132 143.289 191.46 142.461 191.46H134.445ZM150.477 191.46C149.648 191.46 148.977 192.132 148.977 192.96C148.977 193.789 149.648 194.46 150.477 194.46H158.492C159.321 194.46 159.992 193.789 159.992 192.96C159.992 192.132 159.321 191.46 158.492 191.46H150.477ZM166.508 191.46C165.679 191.46 165.008 192.132 165.008 192.96C165.008 193.789 165.679 194.46 166.508 194.46L174.523 194.46C175.352 194.46 176.023 193.789 176.023 192.96C176.023 192.132 175.352 191.46 174.523 191.46L166.508 191.46ZM182.539 191.46C181.711 191.46 181.039 192.132 181.039 192.96C181.039 193.789 181.711 194.46 182.539 194.46H190.555C191.383 194.46 192.055 193.789 192.055 192.96C192.055 192.132 191.383 191.46 190.555 191.46H182.539ZM198.57 191.46C197.742 191.46 197.07 192.132 197.07 192.96C197.07 193.789 197.742 194.46 198.57 194.46H206.586C207.414 194.46 208.086 193.789 208.086 192.96C208.086 192.132 207.414 191.46 206.586 191.46H198.57ZM214.602 191.46C213.773 191.46 213.102 192.132 213.102 192.96C213.102 193.789 213.773 194.46 214.602 194.46H218.609C219.438 194.46 220.109 193.789 220.109 192.96C220.109 192.132 219.438 191.46 218.609 191.46H214.602Z" fill="url(#paint23_linear_1146_21567)"/>
<path d="M108.493 169.043V120.524L133.831 96.2629" stroke="url(#paint24_linear_1146_21567)" stroke-width="3" stroke-linecap="round" stroke-linejoin="round"/>
<path d="M108.494 120.524H57.8213L83.1591 96.2629H133.832L108.494 120.524Z" stroke="url(#paint25_linear_1146_21567)" stroke-width="3" stroke-linecap="round" stroke-linejoin="round"/>
<path fill-rule="evenodd" clip-rule="evenodd" d="M56.7344 169.536C56.1361 168.963 56.1361 168.034 56.7344 167.461L59.9016 164.428C60.5 163.855 61.4701 163.855 62.0685 164.428C62.6669 165.001 62.6669 165.93 62.0685 166.503L58.9013 169.536C58.3029 170.109 57.3328 170.109 56.7344 169.536ZM66.236 160.438C65.6377 159.865 65.6377 158.936 66.236 158.363L72.5704 152.298C73.1688 151.725 74.1389 151.725 74.7373 152.298C75.3357 152.871 75.3357 153.8 74.7373 154.373L68.4029 160.438C67.8045 161.011 66.8344 161.011 66.236 160.438ZM78.9048 148.308C78.3065 147.735 78.3065 146.806 78.9048 146.233L82.072 143.2C82.6704 142.627 83.6405 142.627 84.2389 143.2C84.8373 143.773 84.8373 144.702 84.2389 145.275L81.0717 148.308C80.4733 148.881 79.5032 148.881 78.9048 148.308ZM107.338 170.08C106.739 169.507 106.739 168.578 107.338 168.005L110.505 164.972C111.103 164.399 112.073 164.399 112.672 164.972C113.27 165.545 113.27 166.474 112.672 167.047L109.504 170.08C108.906 170.652 107.936 170.652 107.338 170.08ZM116.839 160.982C116.241 160.409 116.241 159.48 116.839 158.907L123.174 152.842C123.772 152.269 124.742 152.269 125.34 152.842C125.939 153.415 125.939 154.344 125.34 154.917L119.006 160.982C118.408 161.555 117.438 161.555 116.839 160.982ZM129.508 148.852C128.91 148.279 128.91 147.35 129.508 146.777L132.675 143.744C133.274 143.171 134.244 143.171 134.842 143.744C135.44 144.317 135.44 145.246 134.842 145.819L131.675 148.852C131.077 149.424 130.106 149.424 129.508 148.852ZM158.588 168.005C157.989 168.578 157.989 169.507 158.588 170.08C159.186 170.652 160.156 170.652 160.754 170.08L163.922 167.047C164.52 166.474 164.52 165.545 163.922 164.972C163.323 164.399 162.353 164.399 161.755 164.972L158.588 168.005ZM168.089 158.907C167.491 159.48 167.491 160.409 168.089 160.982C168.688 161.555 169.658 161.555 170.256 160.982L176.59 154.917C177.189 154.344 177.189 153.415 176.59 152.842C175.992 152.269 175.022 152.269 174.424 152.842L168.089 158.907ZM180.758 146.777C180.16 147.35 180.16 148.279 180.758 148.852C181.356 149.424 182.326 149.424 182.925 148.852L186.092 145.819C186.69 145.246 186.69 144.317 186.092 143.744C185.494 143.171 184.524 143.171 183.925 143.744L180.758 146.777Z" fill="url(#paint26_linear_1146_21567)"/>
<path d="M108.425 120.523V169.045H159.101" stroke="url(#paint27_linear_1146_21567)" stroke-width="3" stroke-linecap="round" stroke-linejoin="round"/>
<path d="M159.098 120.524H108.425L133.762 96.2629H184.435L159.098 120.524Z" stroke="url(#paint28_linear_1146_21567)" stroke-width="3" stroke-linecap="round" stroke-linejoin="round"/>
<path d="M159.028 120.524L184.366 96.2629L218.214 96.2629" stroke="url(#paint29_linear_1146_21567)" stroke-width="3" stroke-linecap="round" stroke-linejoin="round"/>
<path d="M209.177 120.662H159.669V169.385H209.177V120.662Z" stroke="url(#paint30_linear_1146_21567)" stroke-width="3" stroke-linecap="round" stroke-linejoin="round"/>
<path fill-rule="evenodd" clip-rule="evenodd" d="M220.109 108.875C220.109 108.046 219.438 107.375 218.609 107.375C217.781 107.375 217.109 108.046 217.109 108.875V202.39C217.109 203.219 217.781 203.89 218.609 203.89C219.438 203.89 220.109 203.219 220.109 202.39V108.875ZM286.12 108.875C286.12 108.046 285.449 107.375 284.62 107.375C283.792 107.375 283.12 108.046 283.12 108.875V202.39C283.12 203.219 283.792 203.89 284.62 203.89C285.449 203.89 286.12 203.219 286.12 202.39V108.875Z" fill="url(#paint31_linear_1146_21567)"/>
<path d="M284.62 107.303C284.62 114.681 269.843 120.662 251.615 120.662C233.386 120.662 218.609 114.681 218.609 107.303" stroke="url(#paint32_linear_1146_21567)" stroke-width="3" stroke-linecap="round" stroke-linejoin="round"/>
<path d="M284.62 155.24C284.62 162.618 269.843 168.599 251.615 168.599C233.386 168.599 218.609 162.618 218.609 155.24" stroke="url(#paint33_linear_1146_21567)" stroke-width="3" stroke-linecap="round" stroke-linejoin="round"/>
<path d="M284.62 155.24C284.62 147.861 269.843 141.88 251.615 141.88C233.386 141.88 218.609 147.861 218.609 155.24" stroke="url(#paint34_linear_1146_21567)" stroke-width="3" stroke-linecap="round" stroke-linejoin="round" stroke-dasharray="8 8"/>
<path d="M284.62 107.303C284.62 114.681 269.843 120.662 251.615 120.662C233.386 120.662 218.609 114.681 218.609 107.303" stroke="url(#paint35_linear_1146_21567)" stroke-width="3" stroke-linecap="round" stroke-linejoin="round"/>
<path d="M284.62 203.962C284.62 196.584 269.843 190.603 251.615 190.603C233.386 190.603 218.609 196.584 218.609 203.962" stroke="url(#paint36_linear_1146_21567)" stroke-width="3" stroke-linecap="round" stroke-linejoin="round" stroke-dasharray="8 8"/>
<path d="M284.62 107.303C284.62 99.925 269.843 93.9438 251.615 93.9438C233.386 93.9438 218.609 99.925 218.609 107.303" stroke="url(#paint37_linear_1146_21567)" stroke-width="3" stroke-linecap="round" stroke-linejoin="round" stroke-dasharray="8 8"/>
<path d="M284.62 107.303C284.62 99.925 269.843 93.9438 251.615 93.9438C233.386 93.9438 218.609 99.925 218.609 107.303" stroke="url(#paint38_linear_1146_21567)" stroke-width="3" stroke-linecap="round" stroke-linejoin="round" stroke-dasharray="8 8"/>
<path d="M284.62 155.24C284.62 162.618 269.843 168.599 251.615 168.599C233.386 168.599 218.609 162.618 218.609 155.24" stroke="url(#paint39_linear_1146_21567)" stroke-width="3" stroke-linecap="round" stroke-linejoin="round"/>
<path d="M284.62 107.303C284.62 114.681 269.843 120.662 251.615 120.662C233.386 120.662 218.609 114.681 218.609 107.303" stroke="url(#paint40_linear_1146_21567)" stroke-width="3" stroke-linecap="round" stroke-linejoin="round"/>
<path d="M284.62 107.303C284.62 99.925 269.843 93.9438 251.615 93.9438C233.386 93.9438 218.609 99.925 218.609 107.303" stroke="url(#paint41_linear_1146_21567)" stroke-width="3" stroke-linecap="round" stroke-linejoin="round" stroke-dasharray="8 8"/>
<path d="M284.62 155.24C284.62 147.861 269.843 141.88 251.615 141.88C233.386 141.88 218.609 147.861 218.609 155.24" stroke="url(#paint42_linear_1146_21567)" stroke-width="3" stroke-linecap="round" stroke-linejoin="round" stroke-dasharray="8 8"/>
<path d="M284.62 203.962C284.62 211.34 269.843 217.321 251.615 217.321C233.386 217.321 218.609 211.34 218.609 203.962" stroke="url(#paint43_linear_1146_21567)" stroke-width="3" stroke-linecap="round" stroke-linejoin="round"/>
<path d="M284.62 155.24C284.62 162.618 269.843 168.599 251.615 168.599C233.386 168.599 218.609 162.618 218.609 155.24" stroke="url(#paint44_linear_1146_21567)" stroke-width="3" stroke-linecap="round" stroke-linejoin="round"/>
<path d="M209.177 169.385H159.669V217.321H209.177V169.385Z" stroke="url(#paint45_linear_1146_21567)" stroke-width="3" stroke-linecap="round" stroke-linejoin="round"/>
<path d="M108.425 168.927V217.448H159.101" stroke="url(#paint46_linear_1146_21567)" stroke-width="3" stroke-linecap="round" stroke-linejoin="round"/>
<path d="M57.8218 168.927V217.448H108.497" stroke="url(#paint47_linear_1146_21567)" stroke-width="3" stroke-linecap="round" stroke-linejoin="round"/>
<path d="M283.834 55.0002L250.43 2.47019L218.59 56.2923" stroke="url(#paint48_linear_1146_21567)" stroke-width="3" stroke-linecap="round" stroke-linejoin="round"/>
<path d="M284.62 58.5808C284.62 65.959 269.843 71.9402 251.615 71.9402C233.386 71.9402 218.609 65.959 218.609 58.5808" stroke="url(#paint49_linear_1146_21567)" stroke-width="3" stroke-linecap="round" stroke-linejoin="round"/>
<path d="M284.62 58.5808C284.62 65.959 269.843 71.9402 251.615 71.9402C233.386 71.9402 218.609 65.959 218.609 58.5808" stroke="url(#paint50_linear_1146_21567)" stroke-width="3" stroke-linecap="round" stroke-linejoin="round"/>
<path d="M284.62 58.5808C284.62 51.2026 269.843 45.2214 251.615 45.2214C233.386 45.2214 218.609 51.2026 218.609 58.5808" stroke="url(#paint51_linear_1146_21567)" stroke-width="3" stroke-linecap="round" stroke-linejoin="round" stroke-dasharray="8 8"/>
<path d="M284.62 58.5808C284.62 51.2026 269.843 45.2214 251.615 45.2214C233.386 45.2214 218.609 51.2026 218.609 58.5808" stroke="url(#paint52_linear_1146_21567)" stroke-width="3" stroke-linecap="round" stroke-linejoin="round" stroke-dasharray="8 8"/>
<path d="M284.62 58.5808C284.62 65.959 269.843 71.9402 251.615 71.9402C233.386 71.9402 218.609 65.959 218.609 58.5808" stroke="url(#paint53_linear_1146_21567)" stroke-width="3" stroke-linecap="round" stroke-linejoin="round"/>
<path d="M284.62 58.5808C284.62 51.2026 269.843 45.2214 251.615 45.2214C233.386 45.2214 218.609 51.2026 218.609 58.5808" stroke="url(#paint54_linear_1146_21567)" stroke-width="3" stroke-linecap="round" stroke-linejoin="round" stroke-dasharray="8 8"/>
<path fill-rule="evenodd" clip-rule="evenodd" d="M218.607 55.5092C219.436 55.5092 220.107 56.1807 220.107 57.0092L220.107 154.454C220.107 154.588 220.089 154.719 220.056 154.843C220.091 154.969 220.109 155.102 220.109 155.24C220.109 156.552 220.753 157.945 222.217 159.362C223.686 160.784 225.889 162.133 228.735 163.298C234.419 165.625 242.375 167.099 251.24 167.099C259.76 167.099 267.444 165.738 273.078 163.563C273.851 163.265 274.72 163.65 275.018 164.423C275.316 165.196 274.931 166.064 274.158 166.362C268.108 168.697 260.045 170.099 251.24 170.099C242.084 170.099 233.724 168.582 227.598 166.074C224.539 164.822 221.964 163.292 220.13 161.518C218.292 159.738 217.109 157.616 217.109 155.24C217.109 155.105 217.127 154.975 217.16 154.851C217.126 154.724 217.107 154.591 217.107 154.454L217.107 57.0092C217.107 56.1807 217.779 55.5092 218.607 55.5092ZM286.439 59.295C286.439 58.4666 285.768 57.795 284.939 57.795C284.111 57.795 283.439 58.4666 283.439 59.295V107.375C283.439 108.203 284.111 108.875 284.939 108.875C285.768 108.875 286.439 108.203 286.439 107.375V59.295Z" fill="url(#paint55_linear_1146_21567)"/>
<defs>
<linearGradient id="paint0_linear_1146_21567" x1="54.5739" y1="42.5616" x2="6.43794" y2="29.9933" gradientUnits="userSpaceOnUse">
<stop stop-color="#3A64FA"/>
<stop offset="0.942707" stop-color="#F963BC"/>
</linearGradient>
<linearGradient id="paint1_linear_1146_21567" x1="55.3904" y1="68.6906" x2="32.1674" y2="42.7434" gradientUnits="userSpaceOnUse">
<stop stop-color="#3A64FA"/>
<stop offset="0.942707" stop-color="#F963BC"/>
</linearGradient>
<linearGradient id="paint2_linear_1146_21567" x1="55.3904" y1="117.413" x2="32.1674" y2="91.4657" gradientUnits="userSpaceOnUse">
<stop stop-color="#3A64FA"/>
<stop offset="0.942707" stop-color="#F963BC"/>
</linearGradient>
<linearGradient id="paint3_linear_1146_21567" x1="55.3904" y1="61.8304" x2="32.1674" y2="87.7776" gradientUnits="userSpaceOnUse">
<stop stop-color="#3A64FA"/>
<stop offset="0.942707" stop-color="#F963BC"/>
</linearGradient>
<linearGradient id="paint4_linear_1146_21567" x1="55.3904" y1="110.553" x2="32.1674" y2="136.5" gradientUnits="userSpaceOnUse">
<stop stop-color="#3A64FA"/>
<stop offset="0.942707" stop-color="#F963BC"/>
</linearGradient>
<linearGradient id="paint5_linear_1146_21567" x1="55.3904" y1="104.054" x2="32.1674" y2="78.1064" gradientUnits="userSpaceOnUse">
<stop stop-color="#3A64FA"/>
<stop offset="0.942707" stop-color="#F963BC"/>
</linearGradient>
<linearGradient id="paint6_linear_1146_21567" x1="46.5757" y1="200.712" x2="23.2691" y2="179.012" gradientUnits="userSpaceOnUse">
<stop stop-color="#3A64FA"/>
<stop offset="0.942707" stop-color="#F963BC"/>
</linearGradient>
<linearGradient id="paint7_linear_1146_21567" x1="55.3904" y1="55.3312" x2="32.1674" y2="29.384" gradientUnits="userSpaceOnUse">
<stop stop-color="#3A64FA"/>
<stop offset="0.942707" stop-color="#F963BC"/>
</linearGradient>
<linearGradient id="paint8_linear_1146_21567" x1="55.3904" y1="104.054" x2="32.1674" y2="78.1064" gradientUnits="userSpaceOnUse">
<stop stop-color="#3A64FA"/>
<stop offset="0.942707" stop-color="#F963BC"/>
</linearGradient>
<linearGradient id="paint9_linear_1146_21567" x1="55.3904" y1="55.3312" x2="32.1674" y2="29.384" gradientUnits="userSpaceOnUse">
<stop stop-color="#3A64FA"/>
<stop offset="0.942707" stop-color="#F963BC"/>
</linearGradient>
<linearGradient id="paint10_linear_1146_21567" x1="55.3904" y1="110.553" x2="32.1674" y2="136.5" gradientUnits="userSpaceOnUse">
<stop stop-color="#3A64FA"/>
<stop offset="0.942707" stop-color="#F963BC"/>
</linearGradient>
<linearGradient id="paint11_linear_1146_21567" x1="55.3904" y1="61.8304" x2="32.1674" y2="87.7776" gradientUnits="userSpaceOnUse">
<stop stop-color="#3A64FA"/>
<stop offset="0.942707" stop-color="#F963BC"/>
</linearGradient>
<linearGradient id="paint12_linear_1146_21567" x1="55.3904" y1="104.054" x2="32.1674" y2="78.1064" gradientUnits="userSpaceOnUse">
<stop stop-color="#3A64FA"/>
<stop offset="0.942707" stop-color="#F963BC"/>
</linearGradient>
<linearGradient id="paint13_linear_1146_21567" x1="55.3904" y1="55.3312" x2="32.1674" y2="29.384" gradientUnits="userSpaceOnUse">
<stop stop-color="#3A64FA"/>
<stop offset="0.942707" stop-color="#F963BC"/>
</linearGradient>
<linearGradient id="paint14_linear_1146_21567" x1="56.5492" y1="142.226" x2="2.71589" y2="134.861" gradientUnits="userSpaceOnUse">
<stop stop-color="#3A64FA"/>
<stop offset="0.942707" stop-color="#F963BC"/>
</linearGradient>
<linearGradient id="paint15_linear_1146_21567" x1="47.4792" y1="190.948" x2="2.18614" y2="185.763" gradientUnits="userSpaceOnUse">
<stop stop-color="#3A64FA"/>
<stop offset="0.942707" stop-color="#F963BC"/>
</linearGradient>
<linearGradient id="paint16_linear_1146_21567" x1="46.5757" y1="151.99" x2="23.2691" y2="130.29" gradientUnits="userSpaceOnUse">
<stop stop-color="#3A64FA"/>
<stop offset="0.942707" stop-color="#F963BC"/>
</linearGradient>
<linearGradient id="paint17_linear_1146_21567" x1="46.5757" y1="158.489" x2="23.2691" y2="180.19" gradientUnits="userSpaceOnUse">
<stop stop-color="#3A64FA"/>
<stop offset="0.942707" stop-color="#F963BC"/>
</linearGradient>
<linearGradient id="paint18_linear_1146_21567" x1="106.347" y1="147.413" x2="35.4714" y2="183.924" gradientUnits="userSpaceOnUse">
<stop stop-color="#3A64FA"/>
<stop offset="0.942707" stop-color="#F963BC"/>
</linearGradient>
<linearGradient id="paint19_linear_1146_21567" x1="157.419" y1="147.413" x2="86.5432" y2="183.924" gradientUnits="userSpaceOnUse">
<stop stop-color="#3A64FA"/>
<stop offset="0.942707" stop-color="#F963BC"/>
</linearGradient>
<linearGradient id="paint20_linear_1146_21567" x1="207.713" y1="147.413" x2="136.837" y2="183.924" gradientUnits="userSpaceOnUse">
<stop stop-color="#3A64FA"/>
<stop offset="0.942707" stop-color="#F963BC"/>
</linearGradient>
<linearGradient id="paint21_linear_1146_21567" x1="98.4233" y1="157.242" x2="60.4569" y2="148.276" gradientUnits="userSpaceOnUse">
<stop stop-color="#3A64FA"/>
<stop offset="0.942707" stop-color="#F963BC"/>
</linearGradient>
<linearGradient id="paint22_linear_1146_21567" x1="218.897" y1="191.939" x2="207.831" y2="191.616" gradientUnits="userSpaceOnUse">
<stop stop-color="#3A64FA"/>
<stop offset="0.942707" stop-color="#F963BC"/>
</linearGradient>
<linearGradient id="paint23_linear_1146_21567" x1="187.644" y1="182.07" x2="102.97" y2="120.683" gradientUnits="userSpaceOnUse">
<stop stop-color="#3A64FA"/>
<stop offset="0.942707" stop-color="#F963BC"/>
</linearGradient>
<linearGradient id="paint24_linear_1146_21567" x1="128.794" y1="151.339" x2="108.875" y2="149.771" gradientUnits="userSpaceOnUse">
<stop stop-color="#3A64FA"/>
<stop offset="0.942707" stop-color="#F963BC"/>
</linearGradient>
<linearGradient id="paint25_linear_1146_21567" x1="118.722" y1="114.622" x2="78.6901" y2="86.2617" gradientUnits="userSpaceOnUse">
<stop stop-color="#3A64FA"/>
<stop offset="0.942707" stop-color="#F963BC"/>
</linearGradient>
<linearGradient id="paint26_linear_1146_21567" x1="160.647" y1="163.762" x2="112.218" y2="112.339" gradientUnits="userSpaceOnUse">
<stop stop-color="#3A64FA"/>
<stop offset="0.942707" stop-color="#F963BC"/>
</linearGradient>
<linearGradient id="paint27_linear_1146_21567" x1="149.027" y1="157.242" x2="111.06" y2="148.276" gradientUnits="userSpaceOnUse">
<stop stop-color="#3A64FA"/>
<stop offset="0.942707" stop-color="#F963BC"/>
</linearGradient>
<linearGradient id="paint28_linear_1146_21567" x1="169.325" y1="114.622" x2="129.293" y2="86.2617" gradientUnits="userSpaceOnUse">
<stop stop-color="#3A64FA"/>
<stop offset="0.942707" stop-color="#F963BC"/>
</linearGradient>
<linearGradient id="paint29_linear_1146_21567" x1="206.448" y1="114.622" x2="170.555" y2="94.822" gradientUnits="userSpaceOnUse">
<stop stop-color="#3A64FA"/>
<stop offset="0.942707" stop-color="#F963BC"/>
</linearGradient>
<linearGradient id="paint30_linear_1146_21567" x1="199.335" y1="157.533" x2="162.138" y2="148.987" gradientUnits="userSpaceOnUse">
<stop stop-color="#3A64FA"/>
<stop offset="0.942707" stop-color="#F963BC"/>
</linearGradient>
<linearGradient id="paint31_linear_1146_21567" x1="272.401" y1="180.413" x2="219.205" y2="171.813" gradientUnits="userSpaceOnUse">
<stop stop-color="#3A64FA"/>
<stop offset="0.942707" stop-color="#F963BC"/>
</linearGradient>
<linearGradient id="paint32_linear_1146_21567" x1="271.497" y1="117.413" x2="248.274" y2="91.4657" gradientUnits="userSpaceOnUse">
<stop stop-color="#3A64FA"/>
<stop offset="0.942707" stop-color="#F963BC"/>
</linearGradient>
<linearGradient id="paint33_linear_1146_21567" x1="271.497" y1="165.349" x2="248.274" y2="139.402" gradientUnits="userSpaceOnUse">
<stop stop-color="#3A64FA"/>
<stop offset="0.942707" stop-color="#F963BC"/>
</linearGradient>
<linearGradient id="paint34_linear_1146_21567" x1="271.497" y1="151.99" x2="248.274" y2="126.043" gradientUnits="userSpaceOnUse">
<stop stop-color="#3A64FA"/>
<stop offset="0.942707" stop-color="#F963BC"/>
</linearGradient>
<linearGradient id="paint35_linear_1146_21567" x1="271.497" y1="110.553" x2="248.274" y2="136.5" gradientUnits="userSpaceOnUse">
<stop stop-color="#3A64FA"/>
<stop offset="0.942707" stop-color="#F963BC"/>
</linearGradient>
<linearGradient id="paint36_linear_1146_21567" x1="271.497" y1="200.712" x2="248.274" y2="174.765" gradientUnits="userSpaceOnUse">
<stop stop-color="#3A64FA"/>
<stop offset="0.942707" stop-color="#F963BC"/>
</linearGradient>
<linearGradient id="paint37_linear_1146_21567" x1="271.497" y1="104.054" x2="248.274" y2="78.1064" gradientUnits="userSpaceOnUse">
<stop stop-color="#3A64FA"/>
<stop offset="0.942707" stop-color="#F963BC"/>
</linearGradient>
<linearGradient id="paint38_linear_1146_21567" x1="271.497" y1="104.054" x2="248.274" y2="78.1064" gradientUnits="userSpaceOnUse">
<stop stop-color="#3A64FA"/>
<stop offset="0.942707" stop-color="#F963BC"/>
</linearGradient>
<linearGradient id="paint39_linear_1146_21567" x1="271.497" y1="158.489" x2="248.274" y2="184.436" gradientUnits="userSpaceOnUse">
<stop stop-color="#3A64FA"/>
<stop offset="0.942707" stop-color="#F963BC"/>
</linearGradient>
<linearGradient id="paint40_linear_1146_21567" x1="271.497" y1="110.553" x2="248.274" y2="136.5" gradientUnits="userSpaceOnUse">
<stop stop-color="#3A64FA"/>
<stop offset="0.942707" stop-color="#F963BC"/>
</linearGradient>
<linearGradient id="paint41_linear_1146_21567" x1="271.497" y1="104.054" x2="248.274" y2="78.1064" gradientUnits="userSpaceOnUse">
<stop stop-color="#3A64FA"/>
<stop offset="0.942707" stop-color="#F963BC"/>
</linearGradient>
<linearGradient id="paint42_linear_1146_21567" x1="271.497" y1="151.99" x2="248.274" y2="126.043" gradientUnits="userSpaceOnUse">
<stop stop-color="#3A64FA"/>
<stop offset="0.942707" stop-color="#F963BC"/>
</linearGradient>
<linearGradient id="paint43_linear_1146_21567" x1="271.497" y1="207.212" x2="248.274" y2="233.159" gradientUnits="userSpaceOnUse">
<stop stop-color="#3A64FA"/>
<stop offset="0.942707" stop-color="#F963BC"/>
</linearGradient>
<linearGradient id="paint44_linear_1146_21567" x1="271.497" y1="158.489" x2="248.274" y2="184.436" gradientUnits="userSpaceOnUse">
<stop stop-color="#3A64FA"/>
<stop offset="0.942707" stop-color="#F963BC"/>
</linearGradient>
<linearGradient id="paint45_linear_1146_21567" x1="199.335" y1="205.661" x2="162.2" y2="196.989" gradientUnits="userSpaceOnUse">
<stop stop-color="#3A64FA"/>
<stop offset="0.942707" stop-color="#F963BC"/>
</linearGradient>
<linearGradient id="paint46_linear_1146_21567" x1="149.027" y1="205.645" x2="111.06" y2="196.679" gradientUnits="userSpaceOnUse">
<stop stop-color="#3A64FA"/>
<stop offset="0.942707" stop-color="#F963BC"/>
</linearGradient>
<linearGradient id="paint47_linear_1146_21567" x1="98.4233" y1="205.645" x2="60.4569" y2="196.679" gradientUnits="userSpaceOnUse">
<stop stop-color="#3A64FA"/>
<stop offset="0.942707" stop-color="#F963BC"/>
</linearGradient>
<linearGradient id="paint48_linear_1146_21567" x1="270.681" y1="42.5616" x2="222.545" y2="29.9933" gradientUnits="userSpaceOnUse">
<stop stop-color="#3A64FA"/>
<stop offset="0.942707" stop-color="#F963BC"/>
</linearGradient>
<linearGradient id="paint49_linear_1146_21567" x1="271.497" y1="68.6906" x2="248.274" y2="42.7434" gradientUnits="userSpaceOnUse">
<stop stop-color="#3A64FA"/>
<stop offset="0.942707" stop-color="#F963BC"/>
</linearGradient>
<linearGradient id="paint50_linear_1146_21567" x1="271.497" y1="61.8304" x2="248.274" y2="87.7776" gradientUnits="userSpaceOnUse">
<stop stop-color="#3A64FA"/>
<stop offset="0.942707" stop-color="#F963BC"/>
</linearGradient>
<linearGradient id="paint51_linear_1146_21567" x1="271.497" y1="55.3312" x2="248.274" y2="29.384" gradientUnits="userSpaceOnUse">
<stop stop-color="#3A64FA"/>
<stop offset="0.942707" stop-color="#F963BC"/>
</linearGradient>
<linearGradient id="paint52_linear_1146_21567" x1="271.497" y1="55.3312" x2="248.274" y2="29.384" gradientUnits="userSpaceOnUse">
<stop stop-color="#3A64FA"/>
<stop offset="0.942707" stop-color="#F963BC"/>
</linearGradient>
<linearGradient id="paint53_linear_1146_21567" x1="271.497" y1="61.8304" x2="248.274" y2="87.7776" gradientUnits="userSpaceOnUse">
<stop stop-color="#3A64FA"/>
<stop offset="0.942707" stop-color="#F963BC"/>
</linearGradient>
<linearGradient id="paint54_linear_1146_21567" x1="271.497" y1="55.3312" x2="248.274" y2="29.384" gradientUnits="userSpaceOnUse">
<stop stop-color="#3A64FA"/>
<stop offset="0.942707" stop-color="#F963BC"/>
</linearGradient>
<linearGradient id="paint55_linear_1146_21567" x1="272.656" y1="142.226" x2="218.823" y2="134.861" gradientUnits="userSpaceOnUse">
<stop stop-color="#3A64FA"/>
<stop offset="0.942707" stop-color="#F963BC"/>
</linearGradient>
</defs>
</svg>
