<svg width="64" height="64" viewBox="0 0 64 64" fill="none" xmlns="http://www.w3.org/2000/svg">
<path d="M32 0C14.325 0 0 14.325 0 32C0 49.675 14.325 64 32 64C49.675 64 64 49.675 64 32C64 14.325 49.675 0 32 0ZM59.7375 32C59.7375 44.675 51.25 55.3625 39.6375 58.675L39.4375 58.725V48.35C39.4375 45.8875 38.775 44.0875 37.4625 42.95C38.925 42.8 40.2625 42.5625 41.55 42.225L41.3625 42.2625C42.725 41.8875 43.9125 41.375 45.0125 40.7375L44.9375 40.775C46.15 40.1125 47.1625 39.2625 48.0125 38.2625L48.025 38.25C48.85 37.25 49.525 35.9125 50.0375 34.25C50.5625 32.5875 50.8125 30.675 50.8125 28.525C50.8125 25.45 49.8125 22.8375 47.8 20.6875C48.7375 18.375 48.6375 15.7875 47.5 12.925C46.7875 12.7 45.7625 12.8375 44.4125 13.3375C43.0625 13.8375 41.9125 14.4 40.825 15.0625L40.9125 15.0125L39.4625 15.925C37.275 15.3 34.75 14.9375 32.15 14.9375C29.55 14.9375 27.0375 15.3 24.65 15.975L24.8375 15.925C23.1625 12.725 18.9 12.5125 16.7625 12.9125C15.3375 15.175 15.5125 18.75 16.5 20.675C14.5 22.8375 13.4875 25.45 13.4875 28.5125C13.4875 30.675 13.75 32.575 14.2625 34.225C14.7875 35.875 15.45 37.2 16.2625 38.225C17.1 39.2625 18.125 40.1125 19.275 40.75L19.325 40.775C20.35 41.375 21.5375 41.8875 22.7875 42.2375L22.9 42.2625C24.0125 42.5625 25.3375 42.8 26.6875 42.9375L26.8 42.95C25.7875 43.8625 25.1625 45.175 24.9375 46.875C24.45 47.1125 23.875 47.3125 23.275 47.4375L23.225 47.45C22.6125 47.575 21.9125 47.6375 21.2 47.6375H21.0625C20.225 47.6375 19.3875 47.3625 18.5625 46.8125C17.7375 46.2625 17.0375 45.475 16.45 44.4375C15.975 43.6375 15.3625 42.975 14.625 42.475L14.6 42.4625C13.85 41.95 13.225 41.65 12.7125 41.55L12.3625 41.475L12.175 41.45C11.8375 41.45 11.5375 41.6375 11.3875 41.925L11.3375 42.0125L11.2375 42.4125C11.2375 42.7625 11.45 43.075 11.75 43.2125C12.3125 43.4625 12.8625 43.95 13.4 44.6625C13.85 45.225 14.25 45.8625 14.575 46.55L14.6 46.6125L14.9875 47.4875C15.3125 48.4375 15.8875 49.2375 16.65 49.825L16.6625 49.8375C17.375 50.4 18.2375 50.8 19.175 50.975H19.2125C20 51.125 20.9125 51.225 21.85 51.2375H22.2125C22.8375 51.2375 23.4375 51.1875 24.0375 51.0875L23.975 51.1L24.85 50.95C24.85 51.9125 24.8625 53.0375 24.875 54.3375C24.8875 55.125 24.8875 57.2625 24.8875 58.8375C12.95 55.575 4.275 44.8 4.275 32C4.275 20.5875 11.175 10.775 21.025 6.5125L21.2 6.45C24.3875 5.0625 28.1 4.2625 32 4.2625C47.3125 4.2625 59.725 16.675 59.725 31.9875L59.7375 32Z" fill="white"/>
</svg>
