<?xml version="1.0" encoding="utf-8"?>
<!-- Generator: Adobe Illustrator 26.3.1, SVG Export Plug-In . SVG Version: 6.00 Build 0)  -->
<svg version="1.1" id="Layer_1" xmlns="http://www.w3.org/2000/svg" xmlns:xlink="http://www.w3.org/1999/xlink" x="0px" y="0px"
	 viewBox="0 0 1371 384.4" style="enable-background:new 0 0 1371 384.4;" xml:space="preserve">
<path style="fill:#39B3DB;" d="M1305.7,316.4l1.3-4.1l-3.4,0.8l-1.2,3.7L1305.7,316.4z"/>
<path style="fill:#39B3DB;" d="M1180.6,67.3l4.1-1.3l-2.7-2.3l-3.7,1.1L1180.6,67.3z"/>
<path style="fill:#39B3DB;" d="M1232.3,228.5l0.4-4.3l-3.2,1.5l-0.4,3.9L1232.3,228.5z"/>
<path style="fill:#39B3DB;" d="M1044.6,156.7l3-1.9l-1.9-1.4c-1,0.6-4.4,3.1-4.4,3.1L1044.6,156.7z"/>
<g>
	<path style="fill:#4FBEE3;" d="M1322.1,195.5l-3.6,0.7l-0.5-2.6l3.1-2.6l3.1,2.3L1322.1,195.5z"/>
	<path style="fill:#50CCF5;" d="M1322.1,195.5l-1.1,5.9l-4.9-1.7l2.5-3.5L1322.1,195.5z"/>
	<path style="fill:#39B2DB;" d="M1324.3,193.3l-1,4l-2.3,4l1.1-5.9L1324.3,193.3z"/>
	<path style="fill:#39B3DB;" d="M1316.4,196.1l1.6-2.5l0.5,2.6c-0.5,0.9-2.5,3.5-2.5,3.5L1316.4,196.1L1316.4,196.1z"/>
</g>
<g>
	<path style="fill:#4FBEE3;" d="M1289.6,87l5.4-2.8l-0.7-2.3l-5.8,1.1l-3.1,4.5L1289.6,87z"/>
	<path style="fill:#50CCF5;" d="M1289.6,87l4.7,3.1l6-5.8l-5.4-0.2L1289.6,87z"/>
	<path style="fill:#39B2DB;" d="M1285.4,87.5l3.5,1.9l5.4,0.7l-4.7-3.1L1285.4,87.5z"/>
	<path style="fill:#39B3DB;" d="M1297.8,82.2l-3.6-0.3l0.7,2.3c1.2,0.1,5.4,0.2,5.4,0.2L1297.8,82.2L1297.8,82.2z"/>
</g>
<g>
	<path style="fill:#4FBEE3;" d="M1194.8,155.1l4.7-3.8l-1.2-2.1l-5.5,2.2l-2.1,5L1194.8,155.1z"/>
	<path style="fill:#50CCF5;" d="M1194.8,155.1l5.2,2.1l4.8-6.9l-5.3,0.9L1194.8,155.1z"/>
	<path style="fill:#39B2DB;" d="M1190.7,156.5l3.8,1.2l5.4-0.4l-5.2-2.1L1190.7,156.5z"/>
	<path style="fill:#39B3DB;" d="M1201.9,148.8l-3.6,0.4l1.1,2.1c1.2-0.1,5.3-0.9,5.3-0.9L1201.9,148.8L1201.9,148.8z"/>
</g>
<g>
	<path style="fill:#4FBEE3;" d="M1307,90.7l-8.9,4.1l-2.2-3.1l7.1-6.4l8.8,0.5L1307,90.7z"/>
	<path style="fill:#50CCF5;" d="M1307,90.7l-0.6,9.1l-13.4,2l5.1-7.1L1307,90.7z"/>
	<path style="fill:#39B2DB;" d="M1311.9,85.8l-1,6.4l-4.5,7.6l0.6-9.1L1311.9,85.8z"/>
	<path style="fill:#39B3DB;" d="M1292.8,96.6l3.2-4.9l2.2,3.1c-1,1.6-5.1,7.1-5.1,7.1L1292.8,96.6L1292.8,96.6z"/>
</g>
<g>
	<path style="fill:#4FBEE3;" d="M1100,220.1l2.7,0.8l-0.6,2l-3.2,0.7l-1.3-2.8L1100,220.1z"/>
	<path style="fill:#50CCF5;" d="M1100,220.1l3-3.7l2.8,3l-3,1.5L1100,220.1z"/>
	<path style="fill:#39B2DB;" d="M1097.7,220.8l2.2-2.5l3.1-2l-3,3.7L1097.7,220.8z"/>
	<path style="fill:#39B3DB;" d="M1104.2,221.7l-2,1.2l0.6-2c0.7-0.4,3-1.5,3-1.5L1104.2,221.7L1104.2,221.7z"/>
</g>
<path style="fill:#39B3DB;" d="M60.5,64.8l-1.3,4.1l3.4-0.8l1.2-3.7L60.5,64.8z"/>
<path style="fill:#39B3DB;" d="M185.6,313.9l-4.1,1.3l2.7,2.3l3.7-1.1L185.6,313.9z"/>
<path style="fill:#39B3DB;" d="M133.8,152.7l-0.4,4.3l3.2-1.5l0.4-3.9L133.8,152.7z"/>
<path style="fill:#39B3DB;" d="M321.6,224.5l-3,1.9l1.9,1.4c1-0.6,4.4-3.1,4.4-3.1L321.6,224.5z"/>
<g>
	<path style="fill:#4FBEE3;" d="M44.1,185.7l3.6-0.7l0.5,2.6l-3.1,2.6l-3.1-2.3L44.1,185.7z"/>
	<path style="fill:#50CCF5;" d="M44.1,185.7l1.1-5.9l4.9,1.7l-2.5,3.5L44.1,185.7z"/>
	<path style="fill:#39B2DB;" d="M41.9,187.9l1-4l2.3-4l-1.1,5.9L41.9,187.9z"/>
	<path style="fill:#39B3DB;" d="M49.7,185.1l-1.6,2.5l-0.5-2.6c0.5-0.9,2.5-3.5,2.5-3.5L49.7,185.1L49.7,185.1z"/>
</g>
<g>
	<path style="fill:#4FBEE3;" d="M76.6,294.2l-5.4,2.8l0.7,2.3l5.8-1.1l3.1-4.5L76.6,294.2z"/>
	<path style="fill:#50CCF5;" d="M76.6,294.2l-4.7-3.1l-6,5.8l5.4,0.2L76.6,294.2z"/>
	<path style="fill:#39B2DB;" d="M80.8,293.7l-3.5-1.9l-5.4-0.7l4.7,3.1L80.8,293.7z"/>
	<path style="fill:#39B3DB;" d="M68.3,299l3.6,0.3l-0.7-2.3c-1.2-0.1-5.4-0.2-5.4-0.2L68.3,299L68.3,299z"/>
</g>
<g>
	<path style="fill:#4FBEE3;" d="M171.4,226.1l-4.7,3.8l1.2,2.1l5.5-2.2l2.1-5L171.4,226.1z"/>
	<path style="fill:#50CCF5;" d="M171.4,226.1l-5.2-2.1l-4.8,6.9l5.3-0.9L171.4,226.1z"/>
	<path style="fill:#39B2DB;" d="M175.5,224.7l-3.8-1.2l-5.4,0.4l5.2,2.1L175.5,224.7z"/>
	<path style="fill:#39B3DB;" d="M164.3,232.4l3.6-0.4l-1.1-2.1c-1.2,0.1-5.3,0.9-5.3,0.9L164.3,232.4L164.3,232.4z"/>
</g>
<g>
	<path style="fill:#4FBEE3;" d="M59.1,290.5l8.9-4.1l2.2,3.1l-7.1,6.4l-8.8-0.5L59.1,290.5z"/>
	<path style="fill:#50CCF5;" d="M59.1,290.5l0.6-9.1l13.4-2l-5.1,7.1L59.1,290.5z"/>
	<path style="fill:#39B2DB;" d="M54.3,295.4l1-6.4l4.5-7.6l-0.6,9.1L54.3,295.4z"/>
	<path style="fill:#39B3DB;" d="M73.4,284.6l-3.2,4.9l-2.2-3.1c1-1.6,5.1-7.1,5.1-7.1L73.4,284.6L73.4,284.6z"/>
</g>
<g>
	<path style="fill:#4FBEE3;" d="M266.2,161.1l-2.7-0.8l0.6-2l3.2-0.7l1.3,2.8L266.2,161.1z"/>
	<path style="fill:#50CCF5;" d="M266.2,161.1l-3,3.7l-2.8-3l3-1.5L266.2,161.1z"/>
	<path style="fill:#39B2DB;" d="M268.5,160.4l-2.2,2.5l-3.1,2l3-3.7L268.5,160.4z"/>
	<path style="fill:#39B3DB;" d="M262,159.5l2.1-1.2l-0.6,2c-0.7,0.4-3,1.5-3,1.5L262,159.5L262,159.5z"/>
</g>
</svg>
