<svg width="617" height="233" viewBox="0 0 617 233" fill="none" xmlns="http://www.w3.org/2000/svg">
<path d="M616 0V91.7461C616 105.553 604.807 116.746 591 116.746H26C12.1929 116.746 0.999965 127.939 0.999965 141.746V233" stroke="url(#paint0_linear_2123_29337)" stroke-dasharray="8 8"/>
<path d="M304.664 103.333V129.996L317.997 116.664V90L304.664 103.333Z" fill="#080216" stroke="url(#paint1_linear_2123_29337)" stroke-linecap="round" stroke-linejoin="round"/>
<path d="M318.001 90H291.336V116.665H318.001V90Z" fill="#080216" stroke="url(#paint2_linear_2123_29337)" stroke-linecap="round" stroke-linejoin="round" stroke-dasharray="8 8"/>
<path d="M304.667 103.333H278.002V129.998H304.667V103.333Z" stroke="url(#paint3_linear_2123_29337)" stroke-linecap="round" stroke-linejoin="round"/>
<path d="M278 129.996L291.332 116.664L278 129.996Z" stroke="url(#paint4_linear_2123_29337)" stroke-linecap="round" stroke-linejoin="round" stroke-dasharray="8 8"/>
<path d="M304.666 103.333H278.002L291.334 90H317.998L304.666 103.333Z" stroke="url(#paint5_linear_2123_29337)" stroke-linecap="round" stroke-linejoin="round"/>
<defs>
<linearGradient id="paint0_linear_2123_29337" x1="461.662" y1="20.8488" x2="218.726" y2="216.186" gradientUnits="userSpaceOnUse">
<stop stop-color="#3A64FA"/>
<stop offset="0.942707" stop-color="#FF5894"/>
</linearGradient>
<linearGradient id="paint1_linear_2123_29337" x1="311.67" y1="121.616" x2="305.228" y2="121.612" gradientUnits="userSpaceOnUse">
<stop stop-color="#3A64FA"/>
<stop offset="0.942707" stop-color="#F963BC"/>
</linearGradient>
<linearGradient id="paint2_linear_2123_29337" x1="305.348" y1="111.078" x2="292.465" y2="111.052" gradientUnits="userSpaceOnUse">
<stop stop-color="#3A64FA"/>
<stop offset="0.942707" stop-color="#F963BC"/>
</linearGradient>
<linearGradient id="paint3_linear_2123_29337" x1="292.014" y1="124.411" x2="279.131" y2="124.385" gradientUnits="userSpaceOnUse">
<stop stop-color="#3A64FA"/>
<stop offset="0.942707" stop-color="#F963BC"/>
</linearGradient>
<linearGradient id="paint4_linear_2123_29337" x1="285.565" y1="123.549" x2="278.888" y2="129.737" gradientUnits="userSpaceOnUse">
<stop stop-color="#3A64FA"/>
<stop offset="0.942707" stop-color="#F963BC"/>
</linearGradient>
<linearGradient id="paint5_linear_2123_29337" x1="299.019" y1="100.539" x2="279.696" y2="100.422" gradientUnits="userSpaceOnUse">
<stop stop-color="#3A64FA"/>
<stop offset="0.942707" stop-color="#F963BC"/>
</linearGradient>
</defs>
</svg>
