<svg width="600" height="233" viewBox="0 0 600 233" fill="none" xmlns="http://www.w3.org/2000/svg">
<path d="M1 0V90.6517C1 104.459 12.1929 115.652 26 115.652H574C587.807 115.652 599 126.845 599 140.652V233" stroke="url(#paint0_linear_4017_38399)" stroke-dasharray="8 8"/>
<path d="M269.871 128.388L250.85 115.814L271.932 83.157L269.871 128.388Z" fill="#050110"/>
<path d="M271.931 83.1569L300.87 115.698L269.87 128.388L271.931 83.1569Z" fill="#050110"/>
<path d="M250.5 115.652L299.5 115.652" stroke="url(#paint1_linear_4017_38399)" stroke-linecap="round" stroke-dasharray="8 8"/>
<path d="M269.871 128.388L250.5 115.5L271.932 83.157L269.871 128.388Z" stroke="url(#paint2_linear_4017_38399)" stroke-linecap="round" stroke-linejoin="round"/>
<path d="M271.931 83.1569L300.87 115.698L269.87 128.388L271.931 83.1569Z" stroke="url(#paint3_linear_4017_38399)" stroke-linecap="round" stroke-linejoin="round"/>
<defs>
<linearGradient id="paint0_linear_4017_38399" x1="151.072" y1="5.90559" x2="416.248" y2="187.069" gradientUnits="userSpaceOnUse">
<stop stop-color="#3A64FA"/>
<stop offset="0.942707" stop-color="#FF5894"/>
</linearGradient>
<linearGradient id="paint1_linear_4017_38399" x1="253.493" y1="2.82916e+06" x2="311.993" y2="2.82916e+06" gradientUnits="userSpaceOnUse">
<stop stop-color="#3A64FA"/>
<stop offset="0.942707" stop-color="#FF5894"/>
</linearGradient>
<linearGradient id="paint2_linear_4017_38399" x1="262.276" y1="119.575" x2="273.843" y2="118.606" gradientUnits="userSpaceOnUse">
<stop stop-color="#3A64FA"/>
<stop offset="0.942707" stop-color="#F963BC"/>
</linearGradient>
<linearGradient id="paint3_linear_4017_38399" x1="284.2" y1="117.762" x2="299.577" y2="116.467" gradientUnits="userSpaceOnUse">
<stop stop-color="#3A64FA"/>
<stop offset="0.942707" stop-color="#F963BC"/>
</linearGradient>
</defs>
</svg>
