<svg width="442" height="287" viewBox="0 0 442 287" fill="none" xmlns="http://www.w3.org/2000/svg">
<path d="M182.4 134.025L182.503 90.0372C182.529 80.6671 181.047 70.9332 176.861 64.1265C173.864 59.2595 169.669 55.2759 164.114 52.0544C162.486 51.1018 160.737 50.2271 158.877 49.4044C143.511 42.667 122.451 42.2426 105.25 48.3219C91.7104 53.1023 83.3813 62.1173 83.3555 71.3229M177.836 100.511C174.839 95.644 169.557 90.5742 164.01 87.3526C162.382 86.4087 160.634 85.5254 158.773 84.7027C143.407 77.9652 122.356 77.5322 105.147 83.6202C101.128 85.04 97.5672 86.8342 94.5462 88.8961" stroke="url(#paint0_linear_1144_21339)" stroke-width="4"/>
<path d="M240.271 151.75C240.452 149.429 240.512 131.701 240.616 129.328C240.685 127.717 240.736 126.028 240.736 124.27L240.84 88.9722C240.831 90.7302 240.788 92.4189 240.719 94.0296C240.616 96.4025 240.977 101.637 240.796 103.958" stroke="url(#paint1_linear_1144_21339)" stroke-width="4"/>
<path d="M25.0001 106.11L25.1034 70.8123C25.0948 74.9517 25.7925 79.1345 27.2223 83.3346C31.3997 95.5886 41.7529 106.795 56.4472 115.325C61.0122 117.975 65.9907 120.365 71.3395 122.452C91.6841 130.385 115.5 134.559 144.165 135.208C155.276 135.459 166.542 135.329 177.429 135.208C179.014 135.191 180.616 135.174 182.227 135.156L182.124 170.454C180.504 170.472 178.902 170.489 177.326 170.506C166.439 170.628 155.173 170.758 144.062 170.506C115.405 169.857 91.5808 165.683 71.2362 157.75C65.8873 155.663 60.9089 153.273 56.3438 150.623C41.6496 142.093 31.2964 130.887 27.1189 118.633C25.6891 114.433 24.9915 110.241 25.0001 106.11Z" stroke="url(#paint2_linear_1144_21339)" stroke-width="4"/>
<path d="M25.0001 106.11L25.1034 70.8123C25.0948 74.9517 25.7925 79.1345 27.2223 83.3346C31.3997 95.5886 41.7529 106.795 56.4472 115.325C61.0122 117.975 65.9907 120.365 71.3395 122.452C91.6841 130.385 115.5 134.559 144.165 135.208C155.276 135.459 166.542 135.329 177.429 135.208C179.014 135.191 180.616 135.174 182.227 135.156L182.124 170.454C180.504 170.472 178.902 170.489 177.326 170.506C166.439 170.628 155.173 170.758 144.062 170.506C115.405 169.857 91.5808 165.683 71.2362 157.75C65.8873 155.663 60.9089 153.273 56.3438 150.623C41.6496 142.093 31.2964 130.887 27.1189 118.633C25.6891 114.433 24.9915 110.241 25.0001 106.11Z" stroke="url(#paint3_linear_1144_21339)" stroke-width="4"/>
<path d="M338.712 165.198C338.721 163.293 338.376 161.379 337.67 159.456C335.543 153.689 331.348 148.995 324.983 145.297C318.635 141.617 310.151 138.941 299.427 137.209C280.564 134.169 261.115 134.463 240.676 135.13M244.42 170.308C263.458 169.738 281.648 169.658 299.324 172.507C310.047 174.239 318.54 176.915 324.879 180.595C326.034 181.266 327.118 181.969 328.132 182.707" stroke="url(#paint4_linear_1144_21339)" stroke-width="4"/>
<path d="M396.991 166.384L396.888 201.682C396.836 219.738 383.838 235.396 358.731 247.399C325.044 263.498 286.198 266.347 246.405 255.634C234.699 252.482 224.536 248.403 215.957 243.424C200.556 234.486 190.263 222.657 185.173 208.047C182.331 199.898 181.443 191.767 181.469 183.583L181.573 148.285C181.547 156.468 182.434 164.6 185.276 172.749C190.367 187.359 200.66 199.188 216.06 208.125C224.639 213.105 234.803 217.184 246.508 220.336C286.302 231.048 325.147 228.191 358.834 212.1C383.942 200.098 396.939 184.44 396.991 166.384Z" stroke="url(#paint5_linear_1144_21339)" stroke-width="4"/>
<path d="M122.899 99.3296C141.892 102.3 161.315 101.798 181.806 101.122C183.296 89.1021 182.77 73.7046 176.87 64.1179C173.873 59.251 169.67 55.2674 164.123 52.0459C162.495 51.1019 160.746 50.2186 158.886 49.3959C143.52 42.6584 122.469 42.2254 105.259 48.3134C89.454 53.8991 80.7374 65.2697 84.0793 75.9562C86.0518 82.252 90.3584 87.3268 97.1198 91.2498C103.511 94.9563 112.081 97.6322 122.917 99.3296M315.94 188.484C333.322 182.163 341.858 170.766 337.689 159.456C335.561 153.688 331.358 148.986 325.001 145.297C318.662 141.616 310.169 138.94 299.446 137.208C280.583 134.169 261.134 134.463 240.695 135.13C239.575 145.938 239.248 155.299 242.021 164.687C244.545 173.217 249.549 179.513 257.577 184.18C259.11 185.072 260.746 185.895 262.504 186.675C278.059 193.533 300.032 194.287 315.932 188.493M395.708 156.183C401.324 178.56 388.568 197.889 358.843 212.1C325.157 228.199 286.311 231.048 246.517 220.336C234.812 217.184 224.648 213.105 216.069 208.125C200.669 199.188 190.376 187.359 185.285 172.749C180.927 160.244 181.168 147.8 182.236 135.147C180.617 135.165 179.015 135.182 177.439 135.199C166.552 135.321 155.285 135.451 144.174 135.199C115.518 134.55 91.6935 130.376 71.3489 122.443C66 120.356 61.0216 117.966 56.4565 115.316C41.745 106.786 31.3919 95.5798 27.2144 83.3259C21.7105 67.1922 27.0163 51.0933 42.124 37.9993C56.8097 25.2778 77.3007 16.4186 101.383 12.3657C125.613 8.28682 151.091 9.49923 175.044 15.873C186.776 18.9906 196.982 23.0781 205.639 28.1009C218.472 35.5486 227.887 45.0659 233.778 56.5664C240.755 70.18 241.151 83.7329 240.721 94.021C240.617 96.3938 240.648 97.9836 240.721 101.044C241.634 101.036 242.09 101.053 242.994 101.044C252.469 100.923 262.262 100.793 271.97 100.923C296.38 101.235 315.932 103.625 333.511 108.431C346.724 112.042 357.904 116.511 367.034 121.811C382.642 130.869 392.245 142.37 395.708 156.183Z" stroke="url(#paint6_linear_1144_21339)" stroke-width="4"/>
<defs>
<linearGradient id="paint0_linear_1144_21339" x1="162.793" y1="112.137" x2="88.9519" y2="93.7395" gradientUnits="userSpaceOnUse">
<stop stop-color="#3A64FA"/>
<stop offset="0.942707" stop-color="#F963BC"/>
</linearGradient>
<linearGradient id="paint1_linear_1144_21339" x1="240.733" y1="136.48" x2="240.277" y2="136.479" gradientUnits="userSpaceOnUse">
<stop stop-color="#3A64FA"/>
<stop offset="0.942707" stop-color="#F963BC"/>
</linearGradient>
<linearGradient id="paint2_linear_1144_21339" x1="150.971" y1="146.365" x2="40.6018" y2="107.063" gradientUnits="userSpaceOnUse">
<stop stop-color="#3A64FA"/>
<stop offset="0.942707" stop-color="#F963BC"/>
</linearGradient>
<linearGradient id="paint3_linear_1144_21339" x1="150.971" y1="146.365" x2="40.6018" y2="107.063" gradientUnits="userSpaceOnUse">
<stop stop-color="#3A64FA"/>
<stop offset="0.942707" stop-color="#F963BC"/>
</linearGradient>
<linearGradient id="paint4_linear_1144_21339" x1="319.223" y1="171.028" x2="255.303" y2="141.516" gradientUnits="userSpaceOnUse">
<stop stop-color="#3A64FA"/>
<stop offset="0.942707" stop-color="#F963BC"/>
</linearGradient>
<linearGradient id="paint5_linear_1144_21339" x1="354.146" y1="234.34" x2="210.123" y2="172.616" gradientUnits="userSpaceOnUse">
<stop stop-color="#3A64FA"/>
<stop offset="0.942707" stop-color="#F963BC"/>
</linearGradient>
<linearGradient id="paint6_linear_1144_21339" x1="323.068" y1="173.991" x2="67.3982" y2="74.7728" gradientUnits="userSpaceOnUse">
<stop stop-color="#3A64FA"/>
<stop offset="0.942707" stop-color="#F963BC"/>
</linearGradient>
</defs>
</svg>
