<svg width="80" height="176" viewBox="0 0 80 176" fill="none" xmlns="http://www.w3.org/2000/svg">
<circle cx="2" cy="98" r="2" fill="white" fill-opacity="0.1"/>
<circle cx="2" cy="117" r="2" fill="white" fill-opacity="0.1"/>
<circle cx="2" cy="136" r="2" fill="white" fill-opacity="0.1"/>
<circle cx="2" cy="155" r="2" fill="white" fill-opacity="0.1"/>
<circle cx="2" cy="174" r="2" fill="white" fill-opacity="0.1"/>
<circle cx="21" cy="98" r="2" fill="white" fill-opacity="0.1"/>
<circle cx="21" cy="117" r="2" fill="white" fill-opacity="0.1"/>
<circle cx="21" cy="136" r="2" fill="white" fill-opacity="0.1"/>
<circle cx="21" cy="155" r="2" fill="white" fill-opacity="0.1"/>
<circle cx="21" cy="174" r="2" fill="white" fill-opacity="0.1"/>
<circle cx="40" cy="98" r="2" fill="white" fill-opacity="0.1"/>
<circle cx="40" cy="117" r="2" fill="white" fill-opacity="0.1"/>
<circle cx="40" cy="136" r="2" fill="white" fill-opacity="0.1"/>
<circle cx="40" cy="155" r="2" fill="white" fill-opacity="0.1"/>
<circle cx="40" cy="174" r="2" fill="white" fill-opacity="0.1"/>
<circle cx="59" cy="98" r="2" fill="white" fill-opacity="0.1"/>
<circle cx="59" cy="117" r="2" fill="white" fill-opacity="0.1"/>
<circle cx="59" cy="136" r="2" fill="white" fill-opacity="0.1"/>
<circle cx="59" cy="155" r="2" fill="white" fill-opacity="0.1"/>
<circle cx="59" cy="174" r="2" fill="white" fill-opacity="0.1"/>
<circle cx="78" cy="98" r="2" fill="white" fill-opacity="0.1"/>
<circle cx="78" cy="117" r="2" fill="white" fill-opacity="0.1"/>
<circle cx="78" cy="136" r="2" fill="white" fill-opacity="0.1"/>
<circle cx="78" cy="155" r="2" fill="white" fill-opacity="0.1"/>
<circle cx="78" cy="174" r="2" fill="white" fill-opacity="0.1"/>
<circle cx="2" cy="2" r="2" fill="white" fill-opacity="0.1"/>
<circle cx="2" cy="21" r="2" fill="white" fill-opacity="0.1"/>
<circle cx="2" cy="40" r="2" fill="white" fill-opacity="0.1"/>
<circle cx="2" cy="59" r="2" fill="white" fill-opacity="0.1"/>
<circle cx="2" cy="78" r="2" fill="white" fill-opacity="0.1"/>
<circle cx="21" cy="2" r="2" fill="white" fill-opacity="0.1"/>
<circle cx="21" cy="21" r="2" fill="white" fill-opacity="0.1"/>
<circle cx="21" cy="40" r="2" fill="white" fill-opacity="0.1"/>
<circle cx="21" cy="59" r="2" fill="white" fill-opacity="0.1"/>
<circle cx="21" cy="78" r="2" fill="white" fill-opacity="0.1"/>
<circle cx="40" cy="2" r="2" fill="white" fill-opacity="0.1"/>
<circle cx="40" cy="21" r="2" fill="white" fill-opacity="0.1"/>
<circle cx="40" cy="40" r="2" fill="white" fill-opacity="0.1"/>
<circle cx="40" cy="59" r="2" fill="white" fill-opacity="0.1"/>
<circle cx="40" cy="78" r="2" fill="white" fill-opacity="0.1"/>
<circle cx="59" cy="2" r="2" fill="white" fill-opacity="0.1"/>
<circle cx="59" cy="21" r="2" fill="white" fill-opacity="0.1"/>
<circle cx="59" cy="40" r="2" fill="white" fill-opacity="0.1"/>
<circle cx="59" cy="59" r="2" fill="white" fill-opacity="0.1"/>
<circle cx="59" cy="78" r="2" fill="white" fill-opacity="0.1"/>
<circle cx="78" cy="2" r="2" fill="white" fill-opacity="0.1"/>
<circle cx="78" cy="21" r="2" fill="white" fill-opacity="0.1"/>
<circle cx="78" cy="40" r="2" fill="white" fill-opacity="0.1"/>
<circle cx="78" cy="59" r="2" fill="white" fill-opacity="0.1"/>
<circle cx="78" cy="78" r="2" fill="white" fill-opacity="0.1"/>
</svg>
