<svg width="40" height="40" viewBox="0 0 40 40" fill="none" xmlns="http://www.w3.org/2000/svg">
<path d="M10 7.5C10 8.88071 8.88071 10 7.5 10C6.11929 10 5 8.88071 5 7.5C5 6.11929 6.11929 5 7.5 5C8.88071 5 10 6.11929 10 7.5Z" fill="url(#paint0_linear_1414_31302)"/>
<path d="M30 7.5C30 8.88071 31.1193 10 32.5 10C33.8807 10 35 8.88071 35 7.5C35 6.11929 33.8807 5 32.5 5C31.1193 5 30 6.11929 30 7.5Z" fill="url(#paint1_linear_1414_31302)"/>
<path d="M5 20C5 21.3807 3.88071 22.5 2.5 22.5C1.11929 22.5 0 21.3807 0 20C0 18.6193 1.11929 17.5 2.5 17.5C3.88071 17.5 5 18.6193 5 20Z" fill="url(#paint2_linear_1414_31302)"/>
<path d="M35 20C35 21.3807 36.1193 22.5 37.5 22.5C38.8807 22.5 40 21.3807 40 20C40 18.6193 38.8807 17.5 37.5 17.5C36.1193 17.5 35 18.6193 35 20Z" fill="url(#paint3_linear_1414_31302)"/>
<path d="M22.5 37.5C22.5 38.8807 21.3807 40 20 40C18.6193 40 17.5 38.8807 17.5 37.5C17.5 36.1193 18.6193 35 20 35C21.3807 35 22.5 36.1193 22.5 37.5Z" fill="url(#paint4_linear_1414_31302)"/>
<path d="M22.5 2.5C22.5 3.88071 21.3807 5 20 5C18.6193 5 17.5 3.88071 17.5 2.5C17.5 1.11929 18.6193 0 20 0C21.3807 0 22.5 1.11929 22.5 2.5Z" fill="url(#paint5_linear_1414_31302)"/>
<path d="M10 32.5C10 33.8807 8.88071 35 7.5 35C6.11929 35 5 33.8807 5 32.5C5 31.1193 6.11929 30 7.5 30C8.88071 30 10 31.1193 10 32.5Z" fill="url(#paint6_linear_1414_31302)"/>
<path d="M30 32.5C30 33.8807 31.1193 35 32.5 35C33.8807 35 35 33.8807 35 32.5C35 31.1193 33.8807 30 32.5 30C31.1193 30 30 31.1193 30 32.5Z" fill="url(#paint7_linear_1414_31302)"/>
<path fill-rule="evenodd" clip-rule="evenodd" d="M30.625 20.0001C30.625 20.6699 30.2676 21.2889 29.6875 21.6239L16.5625 29.2016C15.9824 29.5365 15.2676 29.5365 14.6875 29.2016C14.1074 28.8666 13.75 28.2477 13.75 27.5778L13.75 12.4223C13.75 11.7525 14.1074 11.1335 14.6875 10.7985C15.2676 10.4636 15.9824 10.4636 16.5625 10.7985L29.6875 18.3763C30.2676 18.7112 30.625 19.3302 30.625 20.0001ZM17.5 15.6699L17.5 24.3302L25 20.0001L17.5 15.6699Z" fill="url(#paint8_linear_1414_31302)"/>
<defs>
<linearGradient id="paint0_linear_1414_31302" x1="32.0482" y1="30.2703" x2="1.94767" y2="23.4639" gradientUnits="userSpaceOnUse">
<stop stop-color="#3A64FA"/>
<stop offset="0.942707" stop-color="#F963BC"/>
</linearGradient>
<linearGradient id="paint1_linear_1414_31302" x1="32.0482" y1="30.2703" x2="1.94767" y2="23.4639" gradientUnits="userSpaceOnUse">
<stop stop-color="#3A64FA"/>
<stop offset="0.942707" stop-color="#F963BC"/>
</linearGradient>
<linearGradient id="paint2_linear_1414_31302" x1="32.0482" y1="30.2703" x2="1.94767" y2="23.4639" gradientUnits="userSpaceOnUse">
<stop stop-color="#3A64FA"/>
<stop offset="0.942707" stop-color="#F963BC"/>
</linearGradient>
<linearGradient id="paint3_linear_1414_31302" x1="32.0482" y1="30.2703" x2="1.94767" y2="23.4639" gradientUnits="userSpaceOnUse">
<stop stop-color="#3A64FA"/>
<stop offset="0.942707" stop-color="#F963BC"/>
</linearGradient>
<linearGradient id="paint4_linear_1414_31302" x1="32.0482" y1="30.2703" x2="1.94767" y2="23.4639" gradientUnits="userSpaceOnUse">
<stop stop-color="#3A64FA"/>
<stop offset="0.942707" stop-color="#F963BC"/>
</linearGradient>
<linearGradient id="paint5_linear_1414_31302" x1="32.0482" y1="30.2703" x2="1.94767" y2="23.4639" gradientUnits="userSpaceOnUse">
<stop stop-color="#3A64FA"/>
<stop offset="0.942707" stop-color="#F963BC"/>
</linearGradient>
<linearGradient id="paint6_linear_1414_31302" x1="32.0482" y1="30.2703" x2="1.94767" y2="23.4639" gradientUnits="userSpaceOnUse">
<stop stop-color="#3A64FA"/>
<stop offset="0.942707" stop-color="#F963BC"/>
</linearGradient>
<linearGradient id="paint7_linear_1414_31302" x1="32.0482" y1="30.2703" x2="1.94767" y2="23.4639" gradientUnits="userSpaceOnUse">
<stop stop-color="#3A64FA"/>
<stop offset="0.942707" stop-color="#F963BC"/>
</linearGradient>
<linearGradient id="paint8_linear_1414_31302" x1="32.0482" y1="30.2703" x2="1.94767" y2="23.4639" gradientUnits="userSpaceOnUse">
<stop stop-color="#3A64FA"/>
<stop offset="0.942707" stop-color="#F963BC"/>
</linearGradient>
</defs>
</svg>
