<svg width="101" height="25" viewBox="0 0 101 25" fill="none" xmlns="http://www.w3.org/2000/svg">
<path d="M21.4884 17.3571C20.3053 17.9994 19.0425 18.4813 17.733 18.7901C16.307 19.1183 14.8397 19.2291 13.3807 19.1185C10.9306 18.9074 8.56174 17.7782 6.92128 15.9264C6.72082 15.7031 6.55822 15.4294 6.24639 15.3546C5.75191 15.2429 5.40332 15.578 5.28193 16.0403C4.0836 20.5369 8.17867 24.8068 12.6735 24.4349C14.6781 24.3055 16.6178 23.6712 18.3132 22.5906C20.0085 21.51 21.4048 20.0181 22.3726 18.2529C22.4292 18.1543 22.4583 18.0424 22.4572 17.9286C22.456 17.8149 22.4245 17.7037 22.366 17.6062C22.2809 17.4582 22.1416 17.3494 21.9776 17.3028C21.8138 17.2564 21.6382 17.2758 21.4884 17.3571Z" fill="white"/>
<path d="M11.3856 1.76451C12.5329 2.47043 13.5814 3.326 14.504 4.30878C15.4972 5.38367 16.3231 6.60247 16.9542 7.92414C17.9966 10.1579 18.207 12.7792 17.4252 15.1259C17.3305 15.4117 17.1769 15.6843 17.2682 15.997C17.4208 16.4828 17.8852 16.6158 18.3429 16.4929C22.8233 15.2945 24.4682 9.59951 21.8989 5.88248C20.7853 4.20539 19.2679 2.83706 17.4871 1.90409C15.7063 0.971112 13.7196 0.503623 11.7109 0.544869C11.5967 0.545628 11.4847 0.577119 11.3868 0.636056C11.2888 0.694994 11.2084 0.779217 11.154 0.879936C11.0698 1.02852 11.0469 1.20424 11.0902 1.36954C11.1335 1.53483 11.2396 1.67659 11.3856 1.76451Z" fill="white"/>
<path d="M12.457 9.06519C11.667 8.94808 10.861 9.10919 10.1762 9.52109C9.49137 9.93308 8.97012 10.5703 8.70122 11.3244C8.43225 12.0784 8.43232 12.9027 8.70138 13.6567C8.97036 14.4108 9.49169 15.0479 10.1766 15.4598C10.8615 15.8716 11.6675 16.0326 12.4574 15.9154C13.2474 15.7982 13.9724 15.4099 14.509 14.8168C15.0455 14.2237 15.3604 13.4623 15.4002 12.6625C15.4399 11.8626 15.2019 11.0737 14.7267 10.43C14.4571 10.0633 14.1178 9.75387 13.7281 9.51958C13.3385 9.28529 12.9065 9.13087 12.457 9.06519Z" fill="white"/>
<path d="M11.4832 6.41321C11.7773 6.35179 12.0947 6.34732 12.3141 6.11389C12.6571 5.73862 12.5368 5.26841 12.2027 4.93334C8.93508 1.64076 3.18957 3.06032 1.26399 7.15037C0.373198 8.95582 -0.0491082 10.9575 0.0361563 12.9701C0.121421 14.9827 0.711501 16.9412 1.75179 18.6644C1.80897 18.7626 1.89123 18.8437 1.99008 18.8995C2.08893 18.9552 2.20082 18.9835 2.31421 18.9816C2.48472 18.9822 2.64868 18.9158 2.77091 18.7965C2.89313 18.6773 2.96387 18.5148 2.96795 18.3438C3.00502 16.9959 3.21998 15.6589 3.6072 14.3677C4.03725 12.9648 4.67549 11.635 5.50049 10.4229C6.90708 8.40128 9.06651 6.91135 11.4832 6.41321Z" fill="white"/>
<path d="M29.6267 13.3891C29.6267 9.94908 31.6091 7.58125 34.9279 7.58125C36.3311 7.58125 37.535 8.16204 38.181 9.01088V3.52136C38.1808 3.47903 38.189 3.43708 38.2051 3.39793C38.2211 3.35877 38.2447 3.32318 38.2745 3.29319C38.3043 3.2632 38.3397 3.23941 38.3787 3.22318C38.4177 3.20694 38.4595 3.19858 38.5017 3.19858H40.6656C40.751 3.19858 40.8329 3.23259 40.8932 3.29312C40.9536 3.35366 40.9874 3.43576 40.9874 3.52136V18.6932C40.9874 18.7355 40.9792 18.7774 40.963 18.8165C40.9467 18.8556 40.923 18.8911 40.8931 18.921C40.8633 18.9509 40.8277 18.9746 40.7887 18.9907C40.7496 19.0068 40.7078 19.015 40.6656 19.0148H38.5017C38.4166 19.0148 38.3351 18.981 38.2749 18.9206C38.2148 18.8603 38.181 18.7785 38.181 18.6932V17.7193C37.6241 18.6127 36.3757 19.1936 34.9724 19.1936C31.6091 19.1969 29.6267 16.8257 29.6267 13.3891ZM38.3591 13.3891C38.3591 11.3563 37.1776 10.016 35.3734 10.016C33.5914 10.016 32.4109 11.3563 32.4109 13.3891C32.4109 15.4218 33.5914 16.7621 35.3734 16.7621C37.1776 16.7587 38.3591 15.4184 38.3591 13.3891Z" fill="white"/>
<path d="M52.6501 19.0149H50.4862C50.4012 19.0149 50.3196 18.981 50.2594 18.9207C50.1993 18.8603 50.1655 18.7786 50.1655 18.6933V17.3172C49.4527 18.4118 48.1831 19.1936 46.6017 19.1936C44.1738 19.1936 42.5033 17.5853 42.5033 15.1281V8.07834C42.5033 8.036 42.5116 7.99409 42.5278 7.95498C42.544 7.91588 42.5677 7.88038 42.5976 7.85049C42.6275 7.82061 42.663 7.79694 42.7021 7.78084C42.7411 7.76474 42.7829 7.75653 42.8251 7.75668H44.989C45.0741 7.75668 45.1557 7.79057 45.2159 7.85089C45.276 7.91121 45.3098 7.99303 45.3098 8.07834V14.4781C45.3098 15.6955 46.291 16.7119 47.5037 16.6918C49.2066 16.6605 50.1666 15.1907 50.1666 12.6933V8.07834C50.1666 7.99303 50.2004 7.91121 50.2605 7.85089C50.3207 7.79057 50.4023 7.75668 50.4873 7.75668H52.6512C52.6935 7.75653 52.7353 7.76474 52.7743 7.78084C52.8134 7.79694 52.8489 7.82061 52.8788 7.85049C52.9087 7.88038 52.9324 7.91588 52.9486 7.95498C52.9647 7.99409 52.9731 8.036 52.9731 8.07834V18.6888C52.9737 18.7316 52.9658 18.7741 52.9498 18.8138C52.9338 18.8535 52.91 18.8895 52.88 18.9199C52.8499 18.9503 52.8141 18.9743 52.7746 18.9907C52.7351 19.0069 52.6928 19.0152 52.6501 19.0149Z" fill="white"/>
<path d="M59.7661 19.1972C57.493 19.1972 55.8002 17.9686 55.8002 15.3328V10.1248H54.2288C54.1434 10.1248 54.0616 10.0907 54.0013 10.0302C53.9408 9.96963 53.907 9.8876 53.907 9.80198V8.0786C53.907 8.03626 53.9153 7.99434 53.9315 7.95525C53.9477 7.91615 53.9714 7.88064 54.0013 7.85075C54.0312 7.82087 54.0667 7.7972 54.1057 7.7811C54.1448 7.765 54.1866 7.75679 54.2288 7.75693H55.8002V4.77261C55.8017 4.68787 55.8362 4.60708 55.8964 4.54758C55.9565 4.48807 56.0376 4.45458 56.1221 4.4543H58.286C58.3702 4.45487 58.4509 4.48852 58.5106 4.54803C58.5704 4.60754 58.6045 4.68817 58.6057 4.77261V7.75693H61.1137C61.1988 7.75693 61.2806 7.79079 61.3408 7.85108C61.4012 7.91137 61.4352 7.99318 61.4355 8.0786V9.80198C61.4352 9.88744 61.4013 9.96939 61.3409 10.0299C61.2806 10.0903 61.199 10.1244 61.1137 10.1248H58.6057V15.0647C58.6057 16.1369 59.1858 16.7178 60.0534 16.7178C60.3705 16.7201 60.6864 16.6788 60.9923 16.5949C61.0375 16.5809 61.0853 16.5771 61.132 16.5841C61.1789 16.5909 61.2236 16.6082 61.2628 16.6347C61.3021 16.6612 61.335 16.6961 61.3591 16.7369C61.3832 16.7778 61.3979 16.8235 61.4021 16.8707L61.5469 18.6578C61.5524 18.7317 61.5324 18.8054 61.4902 18.8665C61.4481 18.9275 61.3863 18.972 61.3152 18.9928C60.8114 19.1354 60.2896 19.2042 59.7661 19.1972Z" fill="white"/>
<path d="M61.9044 13.3893C61.9044 9.94935 64.2431 7.58151 67.6065 7.58151C70.3473 7.58151 72.3185 8.94299 72.823 11.1433C72.8325 11.1854 72.8333 11.2289 72.8256 11.2713C72.818 11.3137 72.8018 11.3541 72.7782 11.3902C72.7547 11.4263 72.7241 11.4572 72.6884 11.4811C72.6526 11.5051 72.6125 11.5216 72.5703 11.5297L70.4442 11.9463C70.3649 11.9617 70.2829 11.9463 70.2146 11.9031C70.1464 11.86 70.097 11.7924 70.0767 11.714C69.7827 10.6899 68.8962 10.0141 67.6911 10.0141C65.9538 10.0141 64.8178 11.3321 64.8178 13.3871C64.8178 15.4422 65.9538 16.7601 67.6911 16.7601C68.8995 16.7601 69.7303 16.157 70.0644 15.1227C70.0882 15.0461 70.1393 14.981 70.2079 14.9399C70.2765 14.8986 70.3578 14.8842 70.4364 14.8994L72.5625 15.3327C72.605 15.3412 72.6454 15.3584 72.6812 15.383C72.717 15.4076 72.7475 15.4392 72.7708 15.476C72.7941 15.5126 72.8097 15.5538 72.8168 15.5966C72.8239 15.6396 72.8222 15.6835 72.8119 15.7259C72.2707 17.896 70.2994 19.1972 67.6065 19.1972C64.2431 19.1972 61.9044 16.826 61.9044 13.3893Z" fill="white"/>
<path d="M74.3 3.19858H76.4628C76.5482 3.19858 76.6301 3.23259 76.6904 3.29312C76.7507 3.35366 76.7846 3.43576 76.7846 3.52136V9.49899C77.5197 8.27038 78.7893 7.57791 80.3485 7.57791C82.8665 7.57791 84.537 9.18625 84.537 11.6434V18.6932C84.537 18.7786 84.5028 18.8604 84.4424 18.9207C84.382 18.981 84.3 19.0148 84.215 19.0148H82.0516C81.9665 19.0148 81.8846 18.981 81.8242 18.9207C81.7637 18.8604 81.7296 18.7786 81.7296 18.6932V12.3358C81.7319 11.7453 81.503 11.1774 81.0911 10.7552C80.6792 10.333 80.1187 10.0903 79.5299 10.0797C77.7758 10.063 76.7846 11.563 76.7846 14.1229V18.6932C76.7846 18.7355 76.7764 18.7774 76.7601 18.8165C76.7439 18.8556 76.7202 18.8911 76.6903 18.921C76.6604 18.9509 76.625 18.9746 76.5858 18.9907C76.5468 19.0068 76.505 19.015 76.4628 19.0148H74.3C74.2578 19.015 74.2159 19.0068 74.1769 18.9907C74.1379 18.9746 74.1024 18.9509 74.0725 18.921C74.0426 18.8911 74.0188 18.8556 74.0027 18.8165C73.9865 18.7774 73.9781 18.7355 73.9781 18.6932V3.52136C73.9781 3.43576 74.0121 3.35366 74.0724 3.29312C74.1328 3.23259 74.2147 3.19858 74.3 3.19858Z" fill="white"/>
<path d="M85.557 4.55096C85.5538 4.32234 85.5968 4.09544 85.6834 3.88389C85.7701 3.67235 85.8981 3.48051 86.0603 3.31987C86.2225 3.15924 86.4157 3.03314 86.628 2.94912C86.8395 2.86511 87.0669 2.82491 87.2943 2.83095C88.3191 2.83095 89.0761 3.59044 89.0761 4.55096C89.0761 5.53382 88.3191 6.29331 87.2943 6.29331C87.0645 6.29865 86.8363 6.25724 86.6232 6.17158C86.4101 6.0859 86.2161 5.95776 86.0539 5.79489C85.8917 5.63202 85.7637 5.43781 85.6787 5.224C85.5928 5.01019 85.5515 4.78123 85.557 4.55096ZM86.213 7.75642H88.3756C88.4177 7.75628 88.4599 7.76449 88.4988 7.78059C88.5378 7.79669 88.5736 7.82036 88.6038 7.85024C88.6332 7.88013 88.6571 7.91564 88.673 7.95474C88.6897 7.99383 88.6976 8.03576 88.6976 8.07809V18.6885C88.6976 18.7309 88.6897 18.7728 88.673 18.8118C88.6571 18.851 88.6332 18.8865 88.6038 18.9164C88.5736 18.9462 88.5378 18.9699 88.4988 18.986C88.4599 19.0021 88.4177 19.0103 88.3756 19.0102H86.2177C86.1756 19.0103 86.1335 19.0021 86.0945 18.986C86.0555 18.9699 86.0198 18.9462 85.9903 18.9164C85.9601 18.8865 85.9363 18.851 85.9204 18.8118C85.9037 18.7728 85.8957 18.7309 85.8957 18.6885V8.07809C85.8957 8.03576 85.9037 7.99383 85.9204 7.95474C85.9363 7.91564 85.9601 7.88013 85.9903 7.85024C86.0198 7.82036 86.0555 7.79669 86.0945 7.78059C86.1335 7.76449 86.1756 7.75628 86.2177 7.75642H86.213Z" fill="white"/>
<path d="M100.654 14.1227H92.6219C92.8676 15.8203 93.9585 16.8256 95.5637 16.8256C96.7675 16.8256 97.654 16.3006 98.0134 15.3736C98.0436 15.3011 98.0984 15.2422 98.1684 15.2079C98.2392 15.1737 98.3195 15.1667 98.3942 15.1882L100.399 15.7332C100.442 15.7444 100.484 15.7646 100.519 15.7925C100.554 15.8204 100.583 15.8554 100.604 15.8954C100.625 15.9352 100.637 15.9791 100.64 16.024C100.644 16.0691 100.637 16.1142 100.622 16.1565C99.8977 18.0753 98.0094 19.1956 95.5208 19.1956C91.8006 19.1956 89.8177 16.314 89.8177 13.3878C89.8177 10.4615 91.644 7.57996 95.365 7.57996C99.1519 7.57996 101 10.3945 101 13.0081C101 13.2738 100.99 13.5799 100.978 13.8211C100.973 13.9034 100.936 13.9805 100.876 14.0366C100.816 14.0926 100.737 14.1235 100.654 14.1227ZM97.9911 12.0676C97.8575 10.7273 96.9893 9.72216 95.3634 9.72216C93.9823 9.72216 93.0012 10.5487 92.6903 12.0676H97.9911Z" fill="white"/>
</svg>
