<svg width="68" height="68" viewBox="0 0 68 68" fill="none" xmlns="http://www.w3.org/2000/svg">
<path fill-rule="evenodd" clip-rule="evenodd" d="M19.2205 4.10948C19.6508 3.96092 20.119 3.96362 20.5476 4.11715L37.7718 10.2871C38.5709 10.5733 39.1022 11.3327 39.0973 12.1815C39.0924 13.0302 38.5523 13.7834 37.75 14.0604L19.8778 20.2304C19.4474 20.3789 18.9793 20.3762 18.5507 20.2227L1.3263 14.0528C0.527249 13.7665 -0.0041124 13.0071 0.000793543 12.1583C0.00569936 11.3096 0.545803 10.5564 1.34811 10.2794L19.2205 4.10948ZM8.02874 12.2048L19.2374 16.2198L31.0694 12.1351L19.8609 8.12005L8.02874 12.2048ZM48.6141 16.3459C48.8893 16.3234 49.1737 16.3578 49.4506 16.457L66.675 22.627C67.7149 22.9995 68.2559 24.1444 67.8834 25.1843C67.5109 26.2241 66.366 26.7651 65.3261 26.3927L48.6095 20.4046L19.8887 30.5098C19.4555 30.6622 18.9829 30.6609 18.5505 30.506L1.32613 24.336C0.286264 23.9635 -0.254751 22.8186 0.117741 21.7787C0.490232 20.7388 1.63518 20.1978 2.67504 20.5703L19.2309 26.5008L47.7882 16.4532C48.0619 16.3569 48.3425 16.3237 48.6141 16.3459ZM48.6147 26.6292C48.3429 26.6068 48.0621 26.64 47.7882 26.7364L19.2309 36.784L2.67504 30.8535C1.63518 30.481 0.490232 31.022 0.11774 32.0619C-0.254751 33.1017 0.286264 34.2467 1.32613 34.6192L18.5505 40.7891C18.9829 40.944 19.4555 40.9454 19.8887 40.7929L48.6094 30.6878L65.3261 36.6759C66.366 37.0484 67.5109 36.5074 67.8834 35.4675C68.2559 34.4277 67.7149 33.2827 66.675 32.9102L49.4506 26.7403C49.1739 26.6412 48.8898 26.6067 48.6147 26.6292ZM48.1123 37.0197C48.5456 36.8672 49.0182 36.8686 49.4506 37.0234L66.675 43.1934C67.7148 43.5659 68.2558 44.7108 67.8833 45.7507C67.5109 46.7906 66.3659 47.3316 65.326 46.9591L48.7701 41.0286L20.2129 51.0762C19.9392 51.1725 19.6586 51.2057 19.387 51.1835C19.1117 51.206 18.8274 51.1716 18.5504 51.0724L1.32609 44.9025C0.286222 44.53 -0.254793 43.385 0.117699 42.3452C0.49019 41.3053 1.63513 40.7643 2.675 41.1368L19.3915 47.1248L48.1123 37.0197ZM48.1233 47.299C48.5537 47.1505 49.0218 47.1532 49.4504 47.3067L66.6748 53.4767C67.4738 53.7629 68.0052 54.5223 68.0003 55.3711C67.9954 56.2198 67.4553 56.9731 66.653 57.25L48.7806 63.4199C48.3503 63.5685 47.8821 63.5658 47.4535 63.4123L30.2293 57.2424C29.4302 56.9561 28.8989 56.1967 28.9038 55.348C28.9087 54.4992 29.4488 53.746 30.2511 53.469L48.1233 47.299ZM36.9317 55.3943L48.1402 59.4094L59.9723 55.3247L48.7637 51.3096L36.9317 55.3943Z" fill="url(#paint0_linear_887_21408)"/>
<defs>
<linearGradient id="paint0_linear_887_21408" x1="54.4828" y1="49.0493" x2="4.05888" y2="36.0248" gradientUnits="userSpaceOnUse">
<stop stop-color="#3A64FA"/>
<stop offset="0.942707" stop-color="#F963BC"/>
</linearGradient>
</defs>
</svg>
