<svg width="68" height="68" viewBox="0 0 68 68" fill="none" xmlns="http://www.w3.org/2000/svg">
<path fill-rule="evenodd" clip-rule="evenodd" d="M38.8002 13C32.5972 13 27.3345 15.9232 23.5479 20.5512C23.1287 21.0635 22.4832 21.3353 21.8238 21.2769C21.355 21.2355 20.8801 21.2143 20.4 21.2143C11.392 21.2143 4 28.7273 4 38.1071C4 47.487 11.392 55 20.4 55C24.6571 55 27.128 53.5464 28.6604 51.2185C30.0798 49.0624 30.8479 45.928 31.0466 41.8428H25.9595C23.3104 41.8428 21.9614 38.66 23.8038 36.7564L35.8258 24.3349C37.0257 23.0952 39.0215 23.1205 40.1895 24.3904L51.5295 36.719C53.2983 38.642 51.9343 41.75 49.3215 41.75H43.9424C43.8008 44.2601 43.3986 46.9419 42.7358 49.4938C42.2404 51.4014 41.5858 53.2892 40.7537 55L53.2 55C59.1152 55 64 50.0613 64 43.8571C64 40.3857 62.4603 37.6277 59.929 35.5442C59.4674 35.1643 59.2 34.5978 59.2 34C59.2 22.3518 50.0173 13 38.8002 13ZM21.1244 17.2272C25.5148 12.2541 31.6023 9 38.8002 9C52.0211 9 62.7093 19.7428 63.1836 33.0753C66.1043 35.758 68 39.3819 68 43.8571C68 52.1701 61.4233 59 53.2 59L37.2 59C36.4358 59 35.7385 58.5645 35.403 57.8779C35.0676 57.1913 35.1527 56.3736 35.6223 55.7708C36.9907 54.0145 38.1006 51.4285 38.8642 48.4883C39.6216 45.5722 40 42.4554 40 39.75C40 38.6454 40.8955 37.75 42 37.75H47.043L37.963 27.8783L28.319 37.8428H33.0984C33.6304 37.8428 34.1405 38.0548 34.5159 38.4319C34.8912 38.809 35.1008 39.3201 35.0983 39.8522C35.0734 45.1649 34.2946 49.9343 32.0015 53.4179C29.5968 57.0708 25.7429 59 20.4 59C9.08388 59 0 49.5958 0 38.1071C0 26.6185 9.08388 17.2143 20.4 17.2143C20.6424 17.2143 20.8839 17.2186 21.1244 17.2272Z" fill="url(#paint0_linear_887_21406)"/>
<defs>
<linearGradient id="paint0_linear_887_21406" x1="54.4819" y1="46.8378" x2="5.34188" y2="31.7261" gradientUnits="userSpaceOnUse">
<stop stop-color="#3A64FA"/>
<stop offset="0.942707" stop-color="#F963BC"/>
</linearGradient>
</defs>
</svg>
