<svg width="68" height="68" viewBox="0 0 68 68" fill="none" xmlns="http://www.w3.org/2000/svg">
<path fill-rule="evenodd" clip-rule="evenodd" d="M45.8847 13.9415C42.2221 10.7127 37.2319 9 31.8092 9C25.9236 9 20.9392 11.6203 17.3285 15.6241C17.1875 15.6206 17.0462 15.6188 16.9045 15.6188C7.52871 15.6188 0 23.3701 0 32.8421C0 42.3141 7.52871 50.0654 16.9045 50.0654L49.645 50.0654C50.7496 50.0654 51.645 49.17 51.645 48.0654C51.645 46.9608 50.7496 46.0654 49.645 46.0654L16.9045 46.0654C9.81723 46.0654 4 40.1852 4 32.8421C4 25.499 9.81723 19.6188 16.9045 19.6188C17.2826 19.6188 17.6563 19.6354 18.0253 19.6679C18.6825 19.7257 19.326 19.4556 19.7452 18.9461C22.7495 15.2934 26.9105 13 31.8092 13C36.4073 13 40.4124 14.4497 43.2396 16.942C44.8223 18.3373 46.072 20.0892 46.8598 22.1717C43.8269 20.1125 40.2201 18.8844 36.1908 18.8844C25.0256 18.8844 16.0464 28.1173 16.0464 39.4171C16.0464 40.5217 16.9418 41.4171 18.0464 41.4171H43.7821C44.8867 41.4171 45.7821 40.5217 45.7821 39.4171C45.7821 38.3125 44.8867 37.4171 43.7821 37.4171H20.163C21.1286 29.199 27.9697 22.8844 36.1908 22.8844C41.0895 22.8844 45.2504 25.1778 48.2548 28.8305C48.674 29.34 49.3175 29.6101 49.9747 29.5523C50.3436 29.5198 50.7174 29.5032 51.0955 29.5032C58.2207 29.5032 64 35.2008 64 42.5056C64 49.6692 58.3672 54.7143 51.0955 54.7143L25.7609 54.7143C24.6563 54.7143 23.7609 55.6097 23.7609 56.7143C23.7609 57.8189 24.6563 58.7143 25.7609 58.7143L51.0955 58.7143C60.2869 58.7143 68 52.1571 68 42.5056C68 33.2013 60.7577 25.8289 51.7 25.5137C51.2303 20.7538 49.1197 16.7933 45.8847 13.9415Z" fill="url(#paint0_linear_2132_29585)"/>
<defs>
<linearGradient id="paint0_linear_2132_29585" x1="13.5181" y1="46.6216" x2="62.6092" y2="31.4381" gradientUnits="userSpaceOnUse">
<stop stop-color="#3A64FA"/>
<stop offset="0.942707" stop-color="#F963BC"/>
</linearGradient>
</defs>
</svg>
