<svg width="24" height="23" viewBox="0 0 24 23" fill="none" xmlns="http://www.w3.org/2000/svg">
<path d="M11.6506 6.50583C8.89063 6.50583 6.66441 8.73205 6.66441 11.492C6.66441 14.252 8.89063 16.4782 11.6506 16.4782C14.4106 16.4782 16.6368 14.252 16.6368 11.492C16.6368 8.73205 14.4106 6.50583 11.6506 6.50583ZM11.6506 14.7337C9.86704 14.7337 8.40894 13.28 8.40894 11.492C8.40894 9.70412 9.8627 8.25035 11.6506 8.25035C13.4385 8.25035 14.8923 9.70412 14.8923 11.492C14.8923 13.28 13.4342 14.7337 11.6506 14.7337ZM18.0038 6.30187C18.0038 6.94847 17.4831 7.46488 16.8408 7.46488C16.1985 7.46488 15.6778 6.94413 15.6778 6.30187C15.6778 5.65961 16.1985 5.13886 16.8408 5.13886C17.4831 5.13886 18.0038 5.65961 18.0038 6.30187ZM21.3062 7.48224C21.2325 5.92432 20.8766 4.54433 19.7353 3.40735C18.5979 2.27038 17.2179 1.91409 15.66 1.83642C14.0543 1.74528 9.24171 1.74528 7.63605 1.83642C6.08247 1.91019 4.70248 2.26604 3.56116 3.40301C2.41984 4.53999 2.06834 5.91999 1.99022 7.47747C1.89909 9.08312 1.89909 13.8957 1.99022 15.5014C2.064 17.0593 2.41984 18.4393 3.56116 19.5763C4.70248 20.7133 6.07813 21.0691 7.63605 21.1472C9.24171 21.2384 14.0543 21.2384 15.66 21.1472C17.2179 21.0735 18.5979 20.7176 19.7349 19.5763C20.8719 18.4393 21.2277 17.0593 21.3058 15.5014C21.3969 13.8957 21.3974 9.0879 21.3062 7.48224ZM19.2319 17.2247C18.8934 18.0752 18.2381 18.7305 17.3832 19.0733C16.1031 19.5811 13.0653 19.4639 11.6506 19.4639C10.2359 19.4639 7.19385 19.5767 5.918 19.0733C5.06744 18.7348 4.41216 18.0796 4.06933 17.2247C3.5616 15.9445 3.67876 12.9068 3.67876 11.492C3.67876 10.0773 3.56594 7.03526 4.06933 5.75942C4.40782 4.90886 5.0631 4.25358 5.918 3.91075C7.19819 3.40301 10.2359 3.52018 11.6506 3.52018C13.0653 3.52018 16.1074 3.40735 17.3832 3.91075C18.2338 4.24924 18.8891 4.90452 19.2319 5.75942C19.7396 7.0396 19.6225 10.0773 19.6225 11.492C19.6225 12.9068 19.7396 15.9488 19.2319 17.2247Z" fill="white"/>
</svg>
