<svg
                      className="footer-list-icon"
                      xmlns="http://www.w3.org/2000/svg"
                      width="36"
                      height="36"
                      viewBox="0 0 36 36"
                      fill="none"
                    >
                      <rect
                        className="footer-icon-frame"
                        width="36"
                        height="36"
                        rx="18"
                        fill="white"
                        fillOpacity="0.1"
                      />
                      <g>
                        <path
                          d="M24.9868 10H11.0132C10.4519 10 10 10.4519 10 11.0132V24.9868C10 25.5444 10.4519 26 11.0132 26H24.9868C25.5444 26 26 25.5481 26 24.9868V11.0132C26 10.4556 25.5481 10 24.9868 10ZM12.2451 13.5645C12.2451 12.9595 12.7371 12.4674 13.3421 12.4674H15.9189C16.5239 12.4674 17.0159 12.9595 17.0159 13.5645V17.9964C17.0159 18.6014 16.5239 19.0934 15.9189 19.0934H13.3421C12.7371 19.0934 12.2451 18.6014 12.2451 17.9964V13.5645ZM22.6141 23.5326H13.3385C12.7335 23.5326 12.2451 23.0442 12.2451 22.4392C12.2451 21.8342 12.7335 21.3458 13.3385 21.3458H22.6141C23.2191 21.3458 23.7075 21.8342 23.7075 22.4392C23.7075 23.0442 23.2191 23.5326 22.6141 23.5326ZM22.6141 19.0934H19.5854C18.9804 19.0934 18.492 18.605 18.492 18C18.492 17.395 18.9804 16.9066 19.5854 16.9066H22.6141C23.2191 16.9066 23.7075 17.395 23.7075 18C23.7075 18.605 23.2191 19.0934 22.6141 19.0934ZM22.6141 14.6542H19.5854C18.9804 14.6542 18.492 14.1658 18.492 13.5608C18.492 12.9558 18.9804 12.4674 19.5854 12.4674H22.6141C23.2191 12.4674 23.7075 12.9558 23.7075 13.5608C23.7075 14.1658 23.2191 14.6542 22.6141 14.6542Z"
                          fill="#B5B4BA"
                        />
                      </g>
                    </svg>
