<svg width="36" height="36" viewBox="0 0 36 36" fill="none" xmlns="http://www.w3.org/2000/svg">
<rect width="36" height="36" rx="18" fill="white" fill-opacity="0.1"/>
<path fill-rule="evenodd" clip-rule="evenodd" d="M12 14C13.6569 14 15 12.6569 15 11C15 9.34315 13.6569 8 12 8C10.3431 8 9 9.34315 9 11C9 12.6569 10.3431 14 12 14ZM12 14C9.23858 14 7 15.567 7 17.5C7 17.6698 7.01727 17.8367 7.05063 18H16.9494C16.9827 17.8367 17 17.6698 17 17.5C17 15.567 14.7614 14 12 14ZM18 25C19.6569 25 21 23.6569 21 22C21 20.3431 19.6569 19 18 19C16.3431 19 15 20.3431 15 22C15 23.6569 16.3431 25 18 25ZM18 25C15.2386 25 13 26.567 13 28.5C13 28.6698 13.0173 28.8367 13.0506 29H22.9494C22.9827 28.8367 23 28.6698 23 28.5C23 26.567 20.7614 25 18 25ZM27 11C27 12.6569 25.6569 14 24 14C22.3431 14 21 12.6569 21 11C21 9.34315 22.3431 8 24 8C25.6569 8 27 9.34315 27 11ZM19 17.5C19 15.567 21.2386 14 24 14C26.7614 14 29 15.567 29 17.5C29 17.6698 28.9827 17.8367 28.9494 18H19.0506C19.0173 17.8367 19 17.6698 19 17.5Z" fill="#B5B4BA"/>
</svg>
