<svg width="23" height="23" viewBox="0 0 23 23" fill="none" xmlns="http://www.w3.org/2000/svg">
<g clip-path="url(#clip0_1613_31336)">
<path d="M11.1381 0.883789C4.98605 0.883789 0 5.63241 0 11.4915C0 17.3506 4.98605 22.0993 11.1381 22.0993C17.2902 22.0993 22.2762 17.3506 22.2762 11.4915C22.2762 5.63241 17.2902 0.883789 11.1381 0.883789ZM20.7926 11.4915C20.7926 15.6932 17.8384 19.236 13.7965 20.3341L13.7269 20.3506V16.9114C13.7269 16.0951 13.4963 15.4984 13.0394 15.1214C13.5485 15.0716 14.014 14.9929 14.4622 14.881L14.3969 14.8935C14.8711 14.7691 15.2845 14.5993 15.6673 14.3879L15.6412 14.4004C16.0633 14.1808 16.4157 13.899 16.7115 13.5675L16.7159 13.5633C17.003 13.2319 17.238 12.7885 17.4164 12.2374C17.5991 11.6863 17.6861 11.0523 17.6861 10.3396C17.6861 9.32025 17.3381 8.45423 16.6376 7.74152C16.9639 6.97495 16.9291 6.11721 16.5331 5.16832C16.2852 5.09373 15.9284 5.13931 15.4585 5.30506C14.9886 5.47081 14.5883 5.65727 14.2098 5.87688L14.2403 5.86031L13.7356 6.16279C12.9742 5.95561 12.0953 5.83545 11.1903 5.83545C10.2854 5.83545 9.41084 5.95561 8.57983 6.17937L8.6451 6.16279C8.06209 5.10202 6.57845 5.03158 5.83446 5.16418C5.33847 5.91418 5.39938 7.09926 5.74309 7.73738C5.04696 8.45423 4.69454 9.32025 4.69454 10.3354C4.69454 11.0523 4.78591 11.6821 4.9643 12.2291C5.14703 12.7761 5.37762 13.2153 5.66043 13.5551C5.95193 13.899 6.3087 14.1808 6.70898 14.3921L6.72638 14.4004C7.08315 14.5993 7.49648 14.7691 7.93156 14.8852L7.97072 14.8935C8.35794 14.9929 8.81913 15.0716 9.28902 15.1172L9.32818 15.1214C8.97576 15.4238 8.75822 15.8589 8.6799 16.4225C8.51022 16.5012 8.31008 16.5675 8.10124 16.6089L8.08384 16.6131C7.87065 16.6545 7.627 16.6752 7.37901 16.6752H7.33115C7.03964 16.6752 6.74814 16.5841 6.46098 16.4017C6.17383 16.2194 5.93018 15.9584 5.72569 15.6145C5.56036 15.3493 5.34717 15.1296 5.09047 14.9639L5.08177 14.9598C4.82072 14.7899 4.60318 14.6904 4.42479 14.6573L4.30297 14.6324L4.23771 14.6241C4.12023 14.6241 4.01581 14.6863 3.9636 14.7816L3.9462 14.8106L3.9114 14.9432C3.9114 15.0592 3.98536 15.1628 4.08978 15.2084C4.28557 15.2912 4.477 15.4528 4.66409 15.689C4.82072 15.8755 4.95994 16.0868 5.07307 16.3147L5.08177 16.3354L5.21664 16.6255C5.32977 16.9404 5.5299 17.2056 5.7953 17.4004L5.79965 17.4045C6.04765 17.591 6.34786 17.7236 6.67417 17.7816H6.68722C6.96133 17.8313 7.27894 17.8645 7.60525 17.8686H7.73142C7.94896 17.8686 8.1578 17.852 8.36664 17.8189L8.34489 17.823L8.64945 17.7733C8.64945 18.0924 8.6538 18.4653 8.65815 18.8962C8.6625 19.1573 8.6625 19.8658 8.6625 20.3879C4.50746 19.3064 1.48798 15.7346 1.48798 11.4915C1.48798 7.70837 3.88964 4.45561 7.31809 3.04263L7.37901 3.02191C8.48847 2.56197 9.78066 2.29677 11.1381 2.29677C16.4679 2.29677 20.7883 6.41141 20.7883 11.4874L20.7926 11.4915Z" fill="white"/>
</g>
<defs>
<clipPath id="clip0_1613_31336">
<rect width="22.9834" height="22.9834" fill="white"/>
</clipPath>
</defs>
</svg>
