<svg width="24" height="23" viewBox="0 0 24 23" fill="none" xmlns="http://www.w3.org/2000/svg">
<path d="M9.33048 1.76807C8.25471 1.76807 7.38801 2.63789 7.38801 3.71282C7.38801 4.22559 7.59328 4.72318 7.95441 5.08782C8.31933 5.45246 8.8135 5.65757 9.33048 5.65757H11.273V3.71282C11.273 2.64169 10.4063 1.77186 9.33048 1.76807ZM9.33048 6.9528H4.14169C3.06592 6.9528 2.19922 7.82262 2.19922 8.89756C2.19922 9.97249 3.06972 10.8423 4.14169 10.8423H9.32668C10.4025 10.8423 11.2692 9.97249 11.2692 8.89756C11.273 7.82642 10.4025 6.9528 9.33048 6.9528ZM14.5155 10.8423C15.5912 10.8423 16.4617 9.97249 16.4579 8.89756V3.71282C16.4579 2.63789 15.5874 1.76807 14.5155 1.76807C13.4435 1.76807 12.573 2.63789 12.573 3.71282V8.89756C12.573 9.97628 13.4397 10.8423 14.5155 10.8423ZM21.6467 8.89756C21.6467 7.82262 20.7762 6.9528 19.7043 6.9528C18.6323 6.9528 17.7618 7.82262 17.7618 8.89756V10.8423H19.7043C20.7762 10.8423 21.6467 9.97249 21.6467 8.89756ZM19.7005 12.1413H14.5155C13.4397 12.1413 12.573 13.0112 12.573 14.0861C12.573 14.5989 12.7783 15.0965 13.1394 15.4611C13.5043 15.8257 13.9985 16.0308 14.5155 16.0308H19.7005C20.7762 16.0308 21.6429 15.161 21.6429 14.0861C21.6467 13.0112 20.7762 12.1413 19.7005 12.1413ZM14.5155 17.3261H12.573V19.2708C12.573 20.3458 13.4435 21.2156 14.5155 21.2156C15.5874 21.2156 16.4617 20.3458 16.4579 19.2708C16.4617 18.1959 15.5912 17.3299 14.5155 17.3261ZM9.33048 12.1413C8.25471 12.1413 7.38801 13.0112 7.38801 14.0861V19.2708C7.38801 20.3458 8.25851 21.2156 9.33048 21.2156C10.4025 21.2156 11.2768 20.3458 11.273 19.2708V14.0861C11.273 13.5733 11.0677 13.0757 10.7066 12.7111C10.3416 12.3465 9.84366 12.1413 9.33048 12.1413ZM2.19922 14.0861C2.19922 14.5989 2.40449 15.0965 2.76561 15.4611C3.13054 15.8257 3.62471 16.0308 4.14169 16.0308C5.21746 16.0308 6.08796 15.161 6.08416 14.0861V12.1413H4.14169C3.06972 12.1413 2.19922 13.0112 2.19922 14.0861Z" fill="white"/>
</svg>
