<svg
                      className="footer-list-icon"
                      xmlns="http://www.w3.org/2000/svg"
                      width="36"
                      height="36"
                      viewBox="0 0 36 36"
                      fill="none"
                    >
                      <rect
                        className="footer-icon-frame"
                        width="36"
                        height="36"
                        rx="18"
                        fill="white"
                        fillOpacity="0.1"
                      />
                      <g>
                        <path
                          d="M11.013 10C10.4518 10 10 10.4659 10 11.0446V25.9699C10 26.8116 10.9255 27.2963 11.5851 26.8003L15.4584 23.8806H20.7748C23.6607 23.8806 26 21.4683 26 18.4922V11.0446C26 10.4697 25.5482 10 24.987 10H11.013ZM19.8602 19.6871H13.3377C12.7329 19.6871 12.2446 19.1836 12.2446 18.5599C12.2446 17.9361 12.7329 17.4326 13.3377 17.4326H19.8602C20.465 17.4326 20.9533 17.9361 20.9533 18.5599C20.9533 19.1836 20.465 19.6871 19.8602 19.6871ZM13.3377 15.1104C12.7329 15.1104 12.2446 14.6068 12.2446 13.9831C12.2446 13.3593 12.7329 12.8558 13.3377 12.8558H22.6113C23.2161 12.8558 23.7044 13.3593 23.7044 13.9831C23.7044 14.6068 23.2161 15.1104 22.6113 15.1104H13.3377Z"
                          fill="#B5B4BA"
                        />
                      </g>
                    </svg>
