<svg
                      className="footer-list-icon"
                      xmlns="http://www.w3.org/2000/svg"
                      width="36"
                      height="36"
                      viewBox="0 0 36 36"
                      fill="none"
                    >
                      <rect
                        className="footer-icon-frame"
                        width="36"
                        height="36"
                        rx="18"
                        fill="white"
                        fillOpacity="0.1"
                      />
                      <g>
                        <path
                          fillRule="evenodd"
                          clipRule="evenodd"
                          d="M13.7385 13.8701C13.2713 14.2499 13 14.82 13 15.4221V25.9998C13 27.1044 13.8954 27.9998 15 27.9998H22C23.1046 27.9998 24 27.1044 24 25.9998V15.4221C24 14.82 23.7287 14.2499 23.2615 13.8701L19.7615 11.0252C19.0266 10.4278 17.9734 10.4278 17.2385 11.0252L13.7385 13.8701ZM18.5 15.9998C19.3284 15.9998 20 15.3282 20 14.4998C20 13.6713 19.3284 12.9998 18.5 12.9998C17.6716 12.9998 17 13.6713 17 14.4998C17 15.3282 17.6716 15.9998 18.5 15.9998Z"
                          fill="#B5B4BA"
                        />
                        <path
                          d="M18.5 14C20.433 14 22 12.433 22 10.5C22 8.567 20.433 7 18.5 7C16.567 7 15 8.567 15 10.5"
                          stroke="#B5B4BA"
                          strokeLinecap="round"
                        />
                      </g>
                    </svg>
