<svg width="24" height="23" viewBox="0 0 24 23" fill="none" xmlns="http://www.w3.org/2000/svg">
<path d="M20.6536 20.3314H16.9873V14.5879C16.9873 13.2182 16.9635 11.4556 15.0793 11.4556C13.1952 11.4556 12.8783 12.9469 12.8783 14.488V20.3314H9.21207V8.5209H12.7307V10.1359H12.7784C13.1301 9.53459 13.6402 9.03751 14.2523 8.70323C14.8644 8.36678 15.5547 8.20398 16.2515 8.23003C19.9676 8.23003 20.6536 10.6742 20.6536 13.8542V20.3314Z" fill="white"/>
<path d="M5.0748 6.9081C4.6537 6.9081 4.24344 6.78438 3.8918 6.54995C3.54232 6.31552 3.26882 5.98341 3.10819 5.59486C2.94539 5.20631 2.90415 4.77652 2.98664 4.3641C3.06912 3.95168 3.27099 3.57181 3.56837 3.27443C3.86575 2.97705 4.24561 2.77518 4.65804 2.6927C5.07046 2.61021 5.49808 2.65363 5.88663 2.81425C6.27517 2.97488 6.60728 3.24838 6.84171 3.59786C7.07614 3.94733 7.19987 4.35976 7.19987 4.78086C7.19987 5.34523 6.97629 5.88573 6.57689 6.28513C6.17749 6.68453 5.637 6.9081 5.07263 6.9081H5.0748Z" fill="white"/>
<path d="M6.90683 8.5209H3.23626V20.3292H6.90683V8.5209Z" fill="white"/>
</svg>
