<svg width="4000" height="1017" viewBox="0 0 4000 1017" fill="none" xmlns="http://www.w3.org/2000/svg">
<g clip-path="url(#clip0_3510_37689)">
<g filter="url(#filter0_d_3510_37689)">
<path d="M2029.81 896.981L2024.04 891.158L2025.89 888.537L2032.94 892.281L2035.09 899.387L2029.81 896.981Z" fill="#4FBEE3"/>
<path d="M2029.81 896.982L2022.45 899.123L2017.02 889.163L2024.04 891.159L2029.81 896.982Z" fill="#50CCF5"/>
<path d="M2035.09 899.386L2029.73 900.458L2022.45 899.121L2029.81 896.98L2035.09 899.386Z" fill="#39B2DB"/>
<path d="M2021.12 887.43L2025.89 888.535L2024.04 891.156C2022.46 890.834 2017.02 889.161 2017.02 889.161L2021.12 887.431L2021.12 887.43Z" fill="#39B3DB"/>
</g>
<path d="M2139.5 572.337L2202.29 800.83C2206.91 807.143 2209.45 815.309 2209.45 823.749L2209.45 858.333L1917.78 858.333L1971.66 603.01C1978.76 570.141 2003.14 547.222 2031.02 547.222L2093.54 547.222C2111.06 547.222 2127.78 556.349 2139.44 572.337L2139.5 572.337Z" fill="#0D091E"/>
<path d="M1726.86 498.212L1885.37 676.092C1893.67 685.458 1898.33 697.51 1898.33 709.998L1898.33 900L1306.67 900L1363.97 543.589C1376.78 495.017 1420.83 461.111 1471.22 461.111L1644 461.111C1675.68 461.111 1705.82 474.616 1726.86 498.212Z" fill="url(#paint0_linear_3510_37689)"/>
<path d="M2472.58 545.434L2314.07 723.314C2305.77 732.68 2301.11 744.732 2301.11 757.22L2301.11 947.222L2892.78 947.222L2835.48 590.812C2822.66 542.24 2778.61 508.334 2728.23 508.334L2555.44 508.334C2523.77 508.334 2493.63 521.838 2472.58 545.434Z" fill="#0D091E"/>
<path d="M1404.73 469.609L1509.06 749.105C1514.69 756.827 1517.78 766.815 1517.78 777.14L1517.78 819.444L1134.44 819.444L1200.13 507.128C1208.78 466.923 1238.51 438.888 1272.49 438.888L1348.71 438.888C1370.06 438.888 1390.45 450.052 1404.66 469.609L1404.73 469.609Z" fill="#110C26"/>
<path d="M3599.97 369.125L3751.27 720.025C3758.34 729.72 3762.22 742.26 3762.22 755.222L3762.22 808.333L2812.22 808.333L2987.22 369.125C3002.5 330.556 3022.61 330.556 3065.29 330.556L3529.61 330.556C3556.43 330.556 3582.03 344.571 3599.88 369.125L3599.97 369.125Z" fill="url(#paint1_linear_3510_37689)"/>
<path d="M1884.44 700.032L1802.26 820.252C1797.94 826.602 1795.56 834.725 1795.56 843.217L1795.56 877.777L3023.33 877.777L2993.63 730.752C2986.99 697.891 2964.15 674.999 2938.03 674.999L1927.37 674.999C1910.96 674.999 1895.34 684.156 1884.38 700.106L1884.44 700.032Z" fill="#110C26"/>
<path d="M2079.79 677.244L2161.95 858.862C2171.02 871.35 2176.11 887.42 2176.11 904.07L2176.11 972.221L1648.33 972.221L1710.96 737.748C1724.96 672.985 1773.11 627.777 1828.17 627.777L1989.23 627.777C2023.84 627.777 2056.79 645.783 2079.79 677.244Z" fill="#110C26"/>
<path d="M1562.79 569.785L1644.45 661.615C1648.74 666.466 1651.11 672.671 1651.11 679.157L1651.11 705.556L817.401 705.556L846.918 593.25C853.522 568.149 876.21 550.663 902.172 550.663L1520.06 550.663C1536.37 550.663 1551.89 557.657 1562.79 569.841L1562.79 569.785Z" fill="#110C26"/>
<g filter="url(#filter1_d_3510_37689)">
<path d="M3625.73 413.431L3600.66 425.659L3594.24 416.834L3614.01 398.233L3639.25 399.054L3625.73 413.431Z" fill="#4FBEE3"/>
<path d="M3625.73 413.433L3624.58 439.475L3586.55 446.086L3600.66 425.661L3625.73 413.433Z" fill="#50CCF5"/>
<path d="M3639.24 399.055L3636.84 417.49L3624.57 439.475L3625.72 413.432L3639.24 399.055Z" fill="#39B2DB"/>
<path d="M3585.46 430.977L3594.23 416.835L3600.65 425.661C3597.89 430.377 3586.55 446.084 3586.55 446.084L3585.46 430.981L3585.46 430.977Z" fill="#39B3DB"/>
</g>
<path d="M3741.27 267.068L3467.89 575.009C3453.52 591.212 3445.56 612.093 3445.56 633.755C3445.56 682.624 3485.12 722.221 3533.94 722.221L4522.85 722.221C4581.37 722.221 4624.13 666.767 4609.24 610.101L4539.82 345.57C4517.74 261.436 4441.74 202.777 4354.91 202.777L3884.27 202.777C3829.65 202.777 3777.62 226.171 3741.35 267.068L3741.27 267.068Z" fill="url(#paint2_radial_3510_37689)"/>
<path d="M2804 477.544L2700.61 622.931C2693.82 630.586 2690 640.437 2690 650.643L2690 733.332L3370.56 733.332L3279.62 514.633C3269.13 474.933 3233.06 447.221 3191.8 447.221L2871.84 447.221C2845.91 447.221 2821.23 458.258 2804 477.544Z" fill="url(#paint3_radial_3510_37689)"/>
<g filter="url(#filter2_d_3510_37689)">
<path d="M3099.98 723.572L3076.89 734.837L3070.97 726.707L3089.18 709.571L3112.44 710.328L3099.98 723.572Z" fill="#4FBEE3"/>
<path d="M3099.98 723.573L3098.92 747.565L3063.9 753.655L3076.89 734.838L3099.98 723.573Z" fill="#50CCF5"/>
<path d="M3112.44 710.33L3110.22 727.312L3098.91 747.566L3099.98 723.574L3112.44 710.33Z" fill="#39B2DB"/>
<path d="M3062.89 739.737L3070.97 726.708L3076.88 734.839C3074.34 739.183 3063.89 753.654 3063.89 753.654L3062.89 739.74L3062.89 739.737Z" fill="#39B3DB"/>
</g>
<path d="M3702.2 473.575L3531.68 666.257C3522.74 676.367 3517.78 689.436 3517.78 702.998C3517.78 733.575 3542.44 758.332 3572.9 758.332L4045.36 758.332C4081.91 758.332 4108.54 723.662 4099.25 688.154L4055.92 522.646C4042.17 470.024 3994.76 433.332 3940.57 433.332L3791.37 433.332C3757.28 433.332 3724.85 447.979 3702.2 473.526L3702.2 473.575Z" fill="url(#paint4_linear_3510_37689)"/>
<path d="M3262.22 733.332L3609.45 733.332L3553.59 541.994C3537.22 502.147 3512.03 469.444 3467.78 469.444L3402.18 469.444C3353.89 469.444 3329.72 475.639 3316.39 523.61C3295.56 598.61 3281.23 652.931 3262.22 733.332Z" fill="url(#paint5_linear_3510_37689)"/>
<path d="M504.103 305.741L682.337 506.21C691.705 516.758 696.897 530.353 696.897 544.454C696.897 576.268 671.105 602.046 639.274 602.046L-76.7308 602.045C-114.883 602.045 -142.764 565.945 -133.057 529.055L-76.7309 305.741C-65.5537 270.831 -36.3871 261.109 -3.39017 263.887L410.866 263.887C446.479 263.887 480.399 279.117 504.047 305.741L504.103 305.741Z" fill="url(#paint6_linear_3510_37689)"/>
<path d="M143.311 172.193L353.395 409.011C364.438 421.471 370.558 437.53 370.558 454.189C370.558 491.771 340.156 522.222 302.637 522.222L-541.316 522.222C-586.286 522.222 -619.149 479.576 -607.707 435.998L-541.316 172.193C-528.142 130.953 -493.763 119.468 -454.87 122.751L33.4134 122.751C75.3901 122.751 115.371 140.742 143.245 172.193L143.311 172.193Z" fill="url(#paint7_radial_3510_37689)"/>
<path d="M600.362 339.876L441.851 517.756C433.551 527.122 428.891 539.174 428.891 551.662L428.891 741.664L1020.56 741.664L963.255 385.253C950.44 336.681 906.389 302.775 856.004 302.775L683.222 302.775C651.549 302.775 621.405 316.28 600.362 339.876Z" fill="#110C26"/>
<path d="M949.086 339.876L1107.6 517.756C1115.9 527.122 1120.56 539.174 1120.56 551.662L1120.56 741.664L528.891 741.664L586.194 385.253C599.009 336.681 643.059 302.775 693.445 302.775L866.227 302.775C897.9 302.775 928.044 316.28 949.086 339.876Z" fill="url(#paint8_radial_3510_37689)"/>
<rect x="612.224" y="627.775" width="583.333" height="150" fill="#110C26"/>
<g filter="url(#filter3_d_3510_37689)">
<path d="M181.782 518.051L166.231 537.172L157.807 532.482L166.738 510.225L187.279 501.5L181.782 518.051Z" fill="#4FBEE3"/>
<path d="M181.785 518.051L190.54 539.355L162.521 558.786L166.234 537.172L181.785 518.051Z" fill="#50CCF5"/>
<path d="M187.274 501.503L192.196 517.175L190.532 539.358L181.778 518.054L187.274 501.503Z" fill="#39B2DB"/>
<path d="M156.026 547.083L157.801 532.486L166.226 537.175C165.769 541.98 162.515 558.787 162.515 558.787L156.029 547.085L156.026 547.083Z" fill="#39B3DB"/>
</g>
<path d="M108.642 441.274L284.035 638.897C293.232 649.266 298.335 662.67 298.335 676.58C298.335 707.941 272.969 733.333 241.639 733.333L-244.318 733.332C-281.913 733.332 -309.301 697.774 -299.75 661.355L-255.182 491.603C-241.033 437.632 -192.271 399.999 -136.535 399.999L16.9279 399.999C51.9964 399.999 85.3471 415.022 108.642 441.223L108.642 441.274Z" fill="#1B1535"/>
<path d="M443.572 432.954L588.721 596.207C596.364 604.816 600.549 615.849 600.549 627.367L600.549 674.227L139.327 674.227L191.794 474.54C203.5 429.923 243.837 398.824 289.996 398.824L367.691 398.824C396.685 398.824 424.344 411.251 443.572 432.893L443.572 432.954Z" fill="url(#paint9_linear_3510_37689)"/>
<g filter="url(#filter4_d_3510_37689)">
<path d="M478.674 656.857L468.084 669.877L462.348 666.684L468.43 651.528L482.416 645.587L478.674 656.857Z" fill="#4FBEE3"/>
<path d="M478.674 656.857L484.635 671.364L465.556 684.595L468.085 669.877L478.674 656.857Z" fill="#50CCF5"/>
<path d="M482.416 645.587L485.768 656.258L484.635 671.364L478.674 656.857L482.416 645.587Z" fill="#39B2DB"/>
<path d="M461.139 676.624L462.348 666.685L468.084 669.878C467.773 673.149 465.557 684.594 465.557 684.594L461.141 676.626L461.139 676.624Z" fill="#39B3DB"/>
</g>
<path d="M877.786 533.163L1030.35 705.082C1038.38 714.147 1042.78 725.765 1042.78 737.895L1042.78 874.999L473.335 874.999L528.482 576.956C540.786 529.971 583.182 497.221 631.698 497.221L798.031 497.221C828.505 497.221 857.576 510.308 877.786 533.099L877.786 533.163Z" fill="url(#paint10_linear_3510_37689)"/>
<path d="M750.859 528.842C773.794 575.642 826.111 700.504 826.111 700.504L826.111 752.777L456.667 752.777L513.519 567.46C532.338 511.742 561.347 497.221 603.699 497.221L668.37 497.221C702.96 497.221 737.834 502.265 750.859 528.842Z" fill="#211936"/>
<path d="M2523.33 658.332C2493.58 720.214 2424.72 862.499 2424.72 862.499L2436.82 878.18L2864.71 878.179L2794.17 668.055C2783.06 630.554 2751.87 602.776 2705.71 602.776L2603.01 602.776C2566.96 602.776 2543.36 616.666 2523.33 658.332Z" fill="url(#paint11_linear_3510_37689)"/>
<path d="M2587.77 636.803C2563.05 687.164 2506.67 821.527 2506.67 821.527L2506.67 877.777L2859.44 877.777L2798.17 678.36C2777.89 618.402 2746.63 602.777 2700.98 602.777L2676.67 602.777C2639.39 602.777 2601.81 608.205 2587.77 636.803Z" fill="#211936"/>
<path d="M1270.16 520.831L1321.03 659.029C1324.8 663.26 1326.87 668.733 1326.87 674.39L1326.87 697.57L1049.32 694.442L1104.25 526.277C1114.6 498.609 1129.97 488.886 1152.75 488.886L1226.06 488.886C1248.96 488.886 1261.81 501.699 1270.16 520.831Z" fill="url(#paint12_linear_3510_37689)"/>
<path d="M1842.07 597.249L1910.04 850.224C1915.03 857.213 1917.78 866.254 1917.78 875.598L1917.78 913.888L1626.11 913.888L1660.43 631.208C1668.11 594.818 1694.5 569.443 1724.67 569.443L1792.34 569.444C1811.29 569.444 1829.39 579.548 1842.01 597.249L1842.07 597.249Z" fill="url(#paint13_linear_3510_37689)"/>
<path d="M2901.82 597.249L2833.85 850.224C2828.85 857.213 2826.11 866.254 2826.11 875.598L2826.11 913.888L3117.78 913.888L3083.46 631.208C3075.78 594.818 3049.39 569.443 3019.22 569.443L2951.55 569.443C2932.6 569.443 2914.49 579.548 2901.88 597.249L2901.82 597.249Z" fill="url(#paint14_linear_3510_37689)"/>
<path d="M-93.3315 1019.44L4187.22 1019.44L4187.22 672.221L3409.45 672.22L3398.34 724.999L3078.89 724.999L3078.89 822.22L2887.22 823.61L2806.67 822.22L2526.11 772.222L2481.67 861.11L2306.67 861.11L2263.04 809.783C2260.76 807.101 2257.42 805.555 2253.9 805.555L1781.67 805.555L1745.56 672.22L1057.66 672.22L1012.79 811.81C1010.8 818.013 1005.03 822.22 998.511 822.22L890.002 822.22L815.002 672.22L-93.3315 672.22L-93.3315 1019.44Z" fill="#211936"/>
</g>
<defs>
<filter id="filter0_d_3510_37689" x="1995.3" y="865.709" width="61.5163" height="56.4687" filterUnits="userSpaceOnUse" color-interpolation-filters="sRGB">
<feFlood flood-opacity="0" result="BackgroundImageFix"/>
<feColorMatrix in="SourceAlpha" type="matrix" values="0 0 0 0 0 0 0 0 0 0 0 0 0 0 0 0 0 0 127 0" result="hardAlpha"/>
<feOffset/>
<feGaussianBlur stdDeviation="10.86"/>
<feComposite in2="hardAlpha" operator="out"/>
<feColorMatrix type="matrix" values="0 0 0 0 0.313726 0 0 0 0 0.8 0 0 0 0 0.960784 0 0 0 1 0"/>
<feBlend mode="normal" in2="BackgroundImageFix" result="effect1_dropShadow_3510_37689"/>
<feBlend mode="normal" in="SourceGraphic" in2="effect1_dropShadow_3510_37689" result="shape"/>
</filter>
<filter id="filter1_d_3510_37689" x="3569.46" y="382.233" width="85.7913" height="79.8533" filterUnits="userSpaceOnUse" color-interpolation-filters="sRGB">
<feFlood flood-opacity="0" result="BackgroundImageFix"/>
<feColorMatrix in="SourceAlpha" type="matrix" values="0 0 0 0 0 0 0 0 0 0 0 0 0 0 0 0 0 0 127 0" result="hardAlpha"/>
<feOffset/>
<feGaussianBlur stdDeviation="8"/>
<feComposite in2="hardAlpha" operator="out"/>
<feColorMatrix type="matrix" values="0 0 0 0 0.313726 0 0 0 0 0.8 0 0 0 0 0.960784 0 0 0 1 0"/>
<feBlend mode="normal" in2="BackgroundImageFix" result="effect1_dropShadow_3510_37689"/>
<feBlend mode="normal" in="SourceGraphic" in2="effect1_dropShadow_3510_37689" result="shape"/>
</filter>
<filter id="filter2_d_3510_37689" x="3048.15" y="694.831" width="79.0324" height="73.5639" filterUnits="userSpaceOnUse" color-interpolation-filters="sRGB">
<feFlood flood-opacity="0" result="BackgroundImageFix"/>
<feColorMatrix in="SourceAlpha" type="matrix" values="0 0 0 0 0 0 0 0 0 0 0 0 0 0 0 0 0 0 127 0" result="hardAlpha"/>
<feOffset/>
<feGaussianBlur stdDeviation="7.36991"/>
<feComposite in2="hardAlpha" operator="out"/>
<feColorMatrix type="matrix" values="0 0 0 0 0.313726 0 0 0 0 0.8 0 0 0 0 0.960784 0 0 0 1 0"/>
<feBlend mode="normal" in2="BackgroundImageFix" result="effect1_dropShadow_3510_37689"/>
<feBlend mode="normal" in="SourceGraphic" in2="effect1_dropShadow_3510_37689" result="shape"/>
</filter>
<filter id="filter3_d_3510_37689" x="132.529" y="478.003" width="83.1643" height="104.282" filterUnits="userSpaceOnUse" color-interpolation-filters="sRGB">
<feFlood flood-opacity="0" result="BackgroundImageFix"/>
<feColorMatrix in="SourceAlpha" type="matrix" values="0 0 0 0 0 0 0 0 0 0 0 0 0 0 0 0 0 0 127 0" result="hardAlpha"/>
<feOffset/>
<feGaussianBlur stdDeviation="11.7487"/>
<feComposite in2="hardAlpha" operator="out"/>
<feColorMatrix type="matrix" values="0 0 0 0 0.313726 0 0 0 0 0.8 0 0 0 0 0.960784 0 0 0 1 0"/>
<feBlend mode="normal" in2="BackgroundImageFix" result="effect1_dropShadow_3510_37689"/>
<feBlend mode="normal" in="SourceGraphic" in2="effect1_dropShadow_3510_37689" result="shape"/>
</filter>
<filter id="filter4_d_3510_37689" x="445.139" y="629.587" width="56.6284" height="71.008" filterUnits="userSpaceOnUse" color-interpolation-filters="sRGB">
<feFlood flood-opacity="0" result="BackgroundImageFix"/>
<feColorMatrix in="SourceAlpha" type="matrix" values="0 0 0 0 0 0 0 0 0 0 0 0 0 0 0 0 0 0 127 0" result="hardAlpha"/>
<feOffset/>
<feGaussianBlur stdDeviation="8"/>
<feComposite in2="hardAlpha" operator="out"/>
<feColorMatrix type="matrix" values="0 0 0 0 0.313726 0 0 0 0 0.8 0 0 0 0 0.960784 0 0 0 1 0"/>
<feBlend mode="normal" in2="BackgroundImageFix" result="effect1_dropShadow_3510_37689"/>
<feBlend mode="normal" in="SourceGraphic" in2="effect1_dropShadow_3510_37689" result="shape"/>
</filter>
<linearGradient id="paint0_linear_3510_37689" x1="1684.44" y1="594.445" x2="1737.22" y2="461.111" gradientUnits="userSpaceOnUse">
<stop offset="0.529456" stop-color="#0D091E"/>
<stop offset="1" stop-color="#101532"/>
</linearGradient>
<linearGradient id="paint1_linear_3510_37689" x1="3115" y1="522.222" x2="2971.63" y2="352.992" gradientUnits="userSpaceOnUse">
<stop offset="0.881384" stop-color="#0D091E"/>
<stop offset="1" stop-color="#101532"/>
</linearGradient>
<radialGradient id="paint2_radial_3510_37689" cx="0" cy="0" r="1" gradientUnits="userSpaceOnUse" gradientTransform="translate(4029.06 580.766) rotate(-121.804) scale(518.441 1074.8)">
<stop offset="0.690389" stop-color="#110C26"/>
<stop offset="1" stop-color="#3F3372"/>
</radialGradient>
<radialGradient id="paint3_radial_3510_37689" cx="0" cy="0" r="1" gradientUnits="userSpaceOnUse" gradientTransform="translate(3030.38 655.418) rotate(-106.401) scale(280.73 596.224)">
<stop offset="0.73479" stop-color="#110C26"/>
<stop offset="1" stop-color="#3F3372"/>
</radialGradient>
<linearGradient id="paint4_linear_3510_37689" x1="4101.12" y1="595.832" x2="3517.78" y2="595.832" gradientUnits="userSpaceOnUse">
<stop offset="0.41" stop-color="#211937"/>
<stop offset="1" stop-color="#110C26"/>
</linearGradient>
<linearGradient id="paint5_linear_3510_37689" x1="3634.45" y1="601.475" x2="3115" y2="601.475" gradientUnits="userSpaceOnUse">
<stop offset="0.41" stop-color="#211937"/>
<stop offset="1" stop-color="#110C26"/>
</linearGradient>
<linearGradient id="paint6_linear_3510_37689" x1="396.165" y1="366.307" x2="444.507" y2="242.817" gradientUnits="userSpaceOnUse">
<stop offset="0.529456" stop-color="#0D091E"/>
<stop offset="1" stop-color="#101532"/>
</linearGradient>
<radialGradient id="paint7_radial_3510_37689" cx="0" cy="0" r="1" gradientUnits="userSpaceOnUse" gradientTransform="translate(-58.3573 354.866) rotate(110.653) scale(315.613 677.549)">
<stop offset="0.690389" stop-color="#110C26"/>
<stop offset="1" stop-color="#3F3372"/>
</radialGradient>
<radialGradient id="paint8_radial_3510_37689" cx="0" cy="0" r="1" gradientUnits="userSpaceOnUse" gradientTransform="translate(651.113 661.11) rotate(-17.9354) scale(604.37 914.543)">
<stop offset="0.690389" stop-color="#110C26"/>
<stop offset="1" stop-color="#3F3372"/>
</radialGradient>
<linearGradient id="paint9_linear_3510_37689" x1="58.7713" y1="536.616" x2="600.609" y2="536.617" gradientUnits="userSpaceOnUse">
<stop offset="0.41" stop-color="#211937"/>
<stop offset="1" stop-color="#110C26"/>
</linearGradient>
<linearGradient id="paint10_linear_3510_37689" x1="473.335" y1="642.328" x2="1042.84" y2="642.328" gradientUnits="userSpaceOnUse">
<stop offset="0.41" stop-color="#211937"/>
<stop offset="1" stop-color="#110C26"/>
</linearGradient>
<linearGradient id="paint11_linear_3510_37689" x1="2856.38" y1="740.569" x2="2314.54" y2="740.569" gradientUnits="userSpaceOnUse">
<stop offset="0.476236" stop-color="#211937"/>
<stop offset="1" stop-color="#110C26"/>
</linearGradient>
<linearGradient id="paint12_linear_3510_37689" x1="1106.71" y1="629.549" x2="1324.65" y2="629.549" gradientUnits="userSpaceOnUse">
<stop offset="0.41" stop-color="#211937"/>
<stop offset="1" stop-color="#110C26"/>
</linearGradient>
<linearGradient id="paint13_linear_3510_37689" x1="1626.17" y1="801.526" x2="1914.84" y2="801.526" gradientUnits="userSpaceOnUse">
<stop offset="0.41" stop-color="#211937"/>
<stop offset="1" stop-color="#110C26"/>
</linearGradient>
<linearGradient id="paint14_linear_3510_37689" x1="3117.72" y1="801.526" x2="2829.05" y2="801.526" gradientUnits="userSpaceOnUse">
<stop offset="0.41" stop-color="#211937"/>
<stop offset="1" stop-color="#110C26"/>
</linearGradient>
<clipPath id="clip0_3510_37689">
<rect width="4000" height="1016.67" fill="white"/>
</clipPath>
</defs>
</svg>
