<svg className="footer-list-icon" width="36" height="36" viewBox="0 0 36 36" fill="none" xmlns="http://www.w3.org/2000/svg">
<rect width="36" height="36" rx="18" fill="white" fill-opacity="0.1" />
<path fill-rule="evenodd" clip-rule="evenodd" d="M24.9704 22.2426C25.7515 23.0237 25.7515 24.29 24.9704 25.0711C24.1894 25.8521 22.9231 25.8521 22.142 25.0711L21.4349 24.364L19.3136 26.4853C18.5325 27.2663 17.2662 27.2663 16.4852 26.4853L14.3638 24.364L15.0709 23.6569C15.852 22.8758 15.852 21.6095 15.0709 20.8284C14.2899 20.0474 13.0236 20.0474 12.2425 20.8284L11.5354 21.5355L9.41409 19.4142C8.63304 18.6332 8.63304 17.3668 9.41409 16.5858L11.5354 14.4645L12.2425 15.1716C13.0236 15.9526 14.2899 15.9526 15.0709 15.1716C15.852 14.3905 15.852 13.1242 15.0709 12.3431L14.3638 11.636L16.4852 9.51472C17.2662 8.73367 18.5325 8.73367 19.3136 9.51472L21.4349 11.636L22.142 10.9289C22.9231 10.1479 24.1894 10.1479 24.9704 10.9289C25.7515 11.71 25.7515 12.9763 24.9704 13.7574L24.2633 14.4645L26.3846 16.5858C27.1657 17.3668 27.1657 18.6332 26.3846 19.4142L24.2633 21.5355L24.9704 22.2426Z" fill="#B5B4BA"/>
</svg>
