<svg width="23" height="23" viewBox="0 0 23 23" fill="none" xmlns="http://www.w3.org/2000/svg">
<path d="M19.2872 1.76807H3.72674C2.65713 1.77111 1.78624 2.64199 1.7832 3.7116V19.272C1.78624 20.3417 2.65713 21.2125 3.72674 21.2156H19.2872C20.3568 21.2125 21.2277 20.3417 21.2307 19.272V3.7116C21.2277 2.64199 20.3568 1.77111 19.2872 1.76807ZM7.49348 13.4888C8.35099 13.8814 9.36409 13.5016 9.75668 12.6435H11.1022C10.2635 16.0778 5.2084 15.4701 5.2084 11.9343C5.2084 8.39541 10.2635 7.78768 11.1022 11.225H9.75668C9.2626 10.1396 7.83563 9.8795 6.99331 10.7249C6.14795 11.5666 6.40746 12.9948 7.49348 13.4888ZM16.6855 14.1725C16.429 14.3944 16.1409 14.5651 15.8243 14.6855C14.9157 15.0367 13.8905 14.9231 13.0798 14.3755V14.6855H11.8546V6.12006H13.0701V9.44983C13.504 9.15569 14.0072 8.98127 14.5292 8.93994H14.7474C17.5138 8.93387 18.7864 12.3773 16.6849 14.1719L16.6855 14.1725ZM16.505 11.9318C16.5238 12.8878 15.755 13.676 14.7991 13.676C13.8431 13.676 13.0737 12.8878 13.0962 11.9318C13.1436 9.70995 16.4545 9.70995 16.505 11.9318Z" fill="white"/>
</svg>
