<svg width="36" height="36" viewBox="0 0 36 36" fill="none" xmlns="http://www.w3.org/2000/svg">
<rect width="36" height="36" rx="18" fill="white" fill-opacity="0.1"/>
<path d="M29 11.9948C28.1938 13.0865 26.4591 13.3314 26.2654 12.681C26.0689 12.0307 27.0778 11.5803 27.609 11.5175C24.5396 10.6814 25.0958 12.9062 23.3986 13.1206C24.336 13.5844 25.311 14.355 25.9698 14.4492C27.1001 14.6125 28.6831 13.9881 29 11.993" fill="#B5B4BA"/>
<path fill-rule="evenodd" clip-rule="evenodd" d="M16.8927 9.20034C16.8338 8.85496 16.5946 8.74462 16.2115 8.59122L16.2089 8.59212C18.7007 7.41783 20.2907 8.26378 20.9318 8.79306C21.2875 9.08681 21.4225 9.36619 21.55 9.63012C21.6522 9.84175 21.7496 10.0435 21.9522 10.2347C22.2558 10.5218 22.8213 10.9312 23.0484 11.0956C23.0711 11.112 23.0904 11.126 23.1057 11.1371C23.2745 11.26 23.3459 11.6009 23.1923 11.8333C23.0388 12.0656 22.6317 12.542 22.1433 12.4621C21.6549 12.3823 20.5845 12.1975 19.7024 12.0441C18.8203 11.8907 18.2087 11.3982 18.2087 11.3982C18.098 12.0181 18.4712 12.568 19.1738 12.7519C19.3103 12.7875 19.4738 12.8246 19.6577 12.8662C20.4848 13.0537 21.7225 13.3343 22.745 13.989C24.1342 14.878 25.2342 16.281 25.6636 18.4385C26.093 20.596 25.5565 25.1649 21.7424 27.0407C17.9284 28.9165 14.3152 27.4632 14.3152 27.4632C17.7338 27.3035 19.7354 25.9139 20.4997 24.9908C21.0353 24.3431 21.5424 23.1778 21.2335 21.8331C20.8961 20.361 19.6542 19.2432 18.3891 19.4307C17.124 19.6182 16.5883 20.9871 16.3508 21.6519C16.1133 22.3166 15.7437 22.8073 15.4205 22.8611C15.0973 22.915 14.6331 22.932 14.226 21.9488C13.8188 20.9656 12.7314 19.2037 11.2904 19.8649C9.84946 20.526 9.58877 23.5887 9.58877 23.5887C7.8237 20.7656 7.37463 17.1431 9.03434 13.6257C10.6941 10.1082 14.1581 8.8119 14.1581 8.8119C13.5385 9.61569 12.8537 12.0495 13.5501 14.2384C14.2465 16.4273 15.966 17.5244 16.9517 17.6733C17.9373 17.8222 19.1122 17.2373 19.048 16.0361C18.9953 15.0502 18.148 14.3496 17.2508 13.9396C16.6106 13.6472 15.9767 12.9726 15.9321 11.9356C15.8875 10.8985 16.3419 10.2428 16.5633 9.9826C16.7374 9.77717 16.9427 9.49369 16.8927 9.20034ZM19.3926 10.1952C18.6649 10.1952 18.3337 10.5648 18.3337 10.5648H18.3328C18.3352 10.546 18.3377 10.5245 18.3406 10.5005C18.3714 10.2386 18.4356 9.6937 18.7015 9.42819C18.9917 9.13843 19.4854 8.92134 20.1773 9.42819C20.8692 9.93504 21.0871 10.859 21.0871 10.859C20.8442 10.6536 20.1202 10.1952 19.3926 10.1952Z" fill="#B5B4BA"/>
</svg>
