<svg width="36" height="36" viewBox="0 0 36 36" fill="none" xmlns="http://www.w3.org/2000/svg">
<rect width="36" height="36" rx="18" fill="white" fill-opacity="0.1"/>
<path d="M26.9421 17.1798C26.8361 16.2516 25.6668 15.8719 24.9951 16.532L18.8384 22.5825C18.3914 23.0217 17.6641 23.0217 17.2171 22.5825L15.51 20.9048C15.063 20.4656 14.3357 20.4656 13.8887 20.9048L11.6866 23.0689C11.3129 23.4362 11.3003 24.0392 11.674 24.409L11.6816 24.4165C15.1867 27.8611 20.8687 27.8611 24.3739 24.4165C26.3865 22.4385 27.2401 19.7583 26.9421 17.1823V17.1798Z" fill="#B5B4BA"/>
<path d="M14.9039 15.6367L17.1615 13.4178C17.6085 12.9785 18.3358 12.9785 18.7828 13.4178L20.4899 15.0956C20.9369 15.5349 21.6642 15.5349 22.1112 15.0956L24.3133 12.9314C24.687 12.564 24.6997 11.9609 24.3259 11.5911L24.3183 11.5837C20.8132 8.13877 15.1312 8.13877 11.626 11.5837C9.62592 13.5518 8.76983 16.2125 9.05267 18.7763C9.15621 19.7244 10.3204 20.1438 11.0073 19.4687L14.9064 15.6367H14.9039Z" fill="#B5B4BA"/>
</svg>
