<svg
                      className="footer-list-icon"
                      xmlns="http://www.w3.org/2000/svg"
                      width="36"
                      height="36"
                      viewBox="0 0 36 36"
                      fill="none"
                    >
                      <rect
                        className="footer-icon-frame"
                        width="36"
                        height="36"
                        rx="18"
                        fill="white"
                        fillOpacity="0.1"
                      />
                      <g>
                        <path
                          d="M18.5731 26.9243C19.1441 26.7713 19.6227 26.3973 19.9166 25.8831C20.5253 24.8122 20.1643 23.4438 19.1063 22.8234C18.8922 22.6959 18.657 22.6194 18.4219 22.5726L18.4219 18.7394L21.7009 20.656C21.6211 20.8898 21.5749 21.1363 21.5749 21.387C21.5749 21.7652 21.6715 22.1519 21.8688 22.5046C22.1627 23.0231 22.6413 23.3928 23.2123 23.5458C23.7833 23.6988 24.3794 23.6223 24.8916 23.3206C25.4038 23.0189 25.7691 22.5386 25.9202 21.9607C26.0714 21.3827 25.9958 20.7793 25.6977 20.2608C25.089 19.1899 23.7329 18.8244 22.6749 19.4406C22.4566 19.5681 22.2718 19.7296 22.1123 19.9166L18.8334 18L22.1165 16.0792C22.5237 16.5509 23.1115 16.8568 23.7791 16.8568C25.005 16.8568 26 15.8539 26 14.6215C26 13.3891 25.005 12.3819 23.7875 12.3819C22.5699 12.3819 21.5749 13.3849 21.5749 14.6215C21.5749 14.8765 21.6253 15.1187 21.7051 15.3482L18.4219 17.2648V13.4274C18.4723 13.4189 18.5227 13.4146 18.5731 13.4019C19.1441 13.2489 19.6227 12.8749 19.9166 12.3607C20.2104 11.8422 20.2902 11.2388 20.1391 10.6608C19.9879 10.0829 19.6185 9.59842 19.1105 9.30094C18.6025 9.00347 18.0021 8.92272 17.4311 9.07571C16.8601 9.2287 16.3815 9.60267 16.0876 10.1169C15.8903 10.4611 15.7896 10.8436 15.7896 11.2345C15.7896 11.43 15.8147 11.6255 15.8651 11.8167C16.0163 12.3947 16.3857 12.8792 16.8937 13.1766C17.1078 13.3041 17.343 13.3806 17.5781 13.4274V17.2606L14.2949 15.344C14.3117 15.293 14.3369 15.2505 14.3495 15.1952C14.5007 14.6173 14.4251 14.0138 14.127 13.4954C13.8331 12.9769 13.3545 12.6072 12.7835 12.4542C12.2125 12.3012 11.6164 12.3777 11.1042 12.6794C10.592 12.9811 10.2267 13.4614 10.0756 14.0393C10.0252 14.2305 10 14.426 10 14.6215C10 15.0082 10.1008 15.3907 10.2981 15.7392C10.592 16.2576 11.0706 16.6274 11.6416 16.7803C12.2125 16.9333 12.8087 16.8568 13.3209 16.5551C13.535 16.4276 13.7198 16.2661 13.8793 16.0792L17.1624 17.9958L13.8793 19.9166C13.4721 19.4449 12.8843 19.1389 12.2167 19.1389C10.995 19.1389 10.0042 20.1418 10.0042 21.3785C10.0042 22.6151 10.995 23.6181 12.2167 23.6181C13.4385 23.6181 14.4293 22.6151 14.4293 21.3785C14.4293 21.1235 14.3789 20.8813 14.2991 20.6518L17.5823 18.7352V22.5726C17.5319 22.5811 17.4815 22.5854 17.4311 22.5981C16.8601 22.7511 16.3815 23.1251 16.0876 23.6393C15.8903 23.9835 15.7896 24.366 15.7896 24.757C15.7896 24.9524 15.8147 25.1479 15.8651 25.3392C16.0163 25.9171 16.3857 26.4016 16.8937 26.6991C17.4017 26.9965 18.0021 27.0773 18.5731 26.9243Z"
                          fill="#B5B4BA"
                        />
                      </g>
                    </svg>
