<svg width="68" height="68" viewBox="0 0 68 68" fill="none" xmlns="http://www.w3.org/2000/svg">
<path fill-rule="evenodd" clip-rule="evenodd" d="M34.5616 39.6986C35.53 39.6986 36.3151 40.4837 36.3151 41.4521V49.3425C36.3151 50.3109 35.53 51.0959 34.5616 51.0959C33.5933 51.0959 32.8082 50.3109 32.8082 49.3425V41.4521C32.8082 40.4837 33.5933 39.6986 34.5616 39.6986Z" fill="url(#paint0_linear_1892_31913)"/>
<path fill-rule="evenodd" clip-rule="evenodd" d="M54.7271 40.5937L55.2426 37.9099C55.735 35.3469 55.735 32.6531 55.2426 30.0901L54.7396 27.4712L61.7135 24.0137C60.6505 21.2568 58.6068 18.5604 56.2224 15.7743L49.9255 19.4344L48.0321 17.7917C46.0698 16.0892 43.7237 14.7407 41.2565 13.8844L38.8994 13.0664V5.88016C35.7581 5.3899 32.4898 5.38253 29.3447 5.85803V13.1058L26.9384 13.9011C24.4046 14.7386 22.2103 16.058 20.212 17.7917L18.3187 19.4344L12.0422 15.7861C12.0102 15.7712 11.9939 15.769 11.9939 15.769C11.9939 15.769 11.9884 15.7679 11.9767 15.7701C11.9567 15.7738 11.9011 15.7901 11.8278 15.8427C9.59274 18.6206 7.61113 21.2467 6.553 23.9559L13.4984 27.5037L13.0015 30.0901C12.5092 32.6531 12.5092 35.3469 13.0015 37.9099L13.511 40.5619L6.55288 43.907C7.62062 46.779 9.65413 49.4599 11.893 52.1002C11.9021 52.1085 11.9096 52.1133 11.9152 52.1163C11.9244 52.1213 11.9334 52.1241 11.941 52.1253C11.9439 52.1257 11.9479 52.1259 11.9479 52.1259L11.9971 52.0967L18.2879 48.6552L20.114 50.1263C22.1685 51.7815 24.3966 53.1159 26.9384 53.956L29.3447 54.7514V62.1198C32.5479 62.6198 35.8661 62.6153 38.8994 62.1203V54.7907L41.2565 53.9727C43.7284 53.1148 46.1146 51.7501 48.1302 50.1263L50.0079 48.6135L56.1012 52.1553C56.1075 52.1567 56.1145 52.158 56.1223 52.1591C56.133 52.1605 56.1433 52.1613 56.1528 52.1615L56.227 52.0792C58.5855 49.4656 60.6475 46.7494 61.7114 43.8527L54.7271 40.5937ZM63.585 40.8571C65.0257 41.7143 65.602 43.4286 65.0257 45C63.7291 48.5714 61.2798 51.7143 58.8306 54.4286C57.8221 55.7143 55.9491 56 54.5084 55.2857L50.3303 52.8571C48.0251 54.7143 45.2877 56.2857 42.4063 57.2857V62.1429C42.4063 63.8571 41.2537 65.2857 39.5248 65.5714C36.0671 66.1429 32.3212 66.1429 28.7193 65.5714C26.9905 65.2857 25.8379 63.8571 25.8379 62.1429V57.2857C22.8123 56.2857 20.219 54.7143 17.9139 52.8571L13.7357 55.1429C12.295 56 10.4221 55.7143 9.26948 54.4286C6.96431 51.7143 4.51507 48.5714 3.21842 45C2.64212 43.5714 3.21842 41.7143 4.80322 40.8571L9.55763 38.5714C8.98134 35.5714 8.98134 32.4286 9.55763 29.4286L4.80322 27C3.21842 26.1429 2.64212 24.4286 3.21842 22.8571C4.51507 19.4286 6.96431 16.2857 9.26948 13.4286C10.4221 12.2857 12.1509 11.8571 13.7357 12.7143L17.9139 15.1429C20.219 13.1429 22.8123 11.5714 25.8379 10.5714V5.85714C25.8379 4.14286 26.9905 2.71429 28.5753 2.42857C32.1771 1.85714 35.923 1.85714 39.5248 2.42857C41.2537 2.71429 42.4063 4.14286 42.4063 5.85714V10.5714C45.2877 11.5714 48.0251 13.1429 50.3303 15.1429L54.5084 12.7143C55.9491 11.8571 57.8221 12.1429 58.8306 13.4286C61.2798 16.2857 63.7291 19.4286 65.0257 22.8571C65.602 24.4286 65.0257 26.1429 63.585 27L58.6865 29.4286C59.2628 32.4286 59.2628 35.5714 58.6865 38.5714L63.585 40.8571ZM6.43493 23.8921L6.43574 23.8928L6.43493 23.8921Z" fill="url(#paint1_linear_1892_31913)"/>
<path fill-rule="evenodd" clip-rule="evenodd" d="M34.1233 38.8219C36.3022 38.8219 38.0685 37.0556 38.0685 34.8767C38.0685 32.6978 36.3022 30.9315 34.1233 30.9315C31.9444 30.9315 30.1781 32.6978 30.1781 34.8767C30.1781 37.0556 31.9444 38.8219 34.1233 38.8219ZM34.1233 42.3288C38.2389 42.3288 41.5753 38.9924 41.5753 34.8767C41.5753 30.7611 38.2389 27.4247 34.1233 27.4247C30.0076 27.4247 26.6712 30.7611 26.6712 34.8767C26.6712 38.9924 30.0076 42.3288 34.1233 42.3288Z" fill="url(#paint2_linear_1892_31913)"/>
<path fill-rule="evenodd" clip-rule="evenodd" d="M34.5616 17.7808C35.53 17.7808 36.3151 18.5659 36.3151 19.5342V27.4247C36.3151 28.393 35.53 29.1781 34.5616 29.1781C33.5933 29.1781 32.8082 28.393 32.8082 27.4247V19.5342C32.8082 18.5659 33.5933 17.7808 34.5616 17.7808Z" fill="url(#paint3_linear_1892_31913)"/>
<path fill-rule="evenodd" clip-rule="evenodd" d="M29.1163 37.161C29.5493 38.0272 29.1983 39.0804 28.3321 39.5135L21.3184 43.0204C20.4522 43.4534 19.399 43.1024 18.9659 42.2362C18.5329 41.3701 18.8839 40.3168 19.7501 39.8837L26.7638 36.3769C27.6299 35.9438 28.6832 36.2949 29.1163 37.161Z" fill="url(#paint4_linear_1892_31913)"/>
<path fill-rule="evenodd" clip-rule="evenodd" d="M38.2536 36.2843C37.8205 37.1505 38.1716 38.2037 39.0378 38.6368L47.8049 43.0204C48.671 43.4534 49.7243 43.1024 50.1574 42.2362C50.5904 41.3701 50.2393 40.3168 49.3732 39.8837L40.6061 35.5002C39.7399 35.0671 38.6867 35.4182 38.2536 36.2843Z" fill="url(#paint5_linear_1892_31913)"/>
<path fill-rule="evenodd" clip-rule="evenodd" d="M19.8782 26.5731C20.3485 25.7266 21.416 25.4216 22.2625 25.8919L30.1529 30.2754C30.9994 30.7457 31.3044 31.8132 30.8341 32.6598C30.3638 33.5063 29.2964 33.8113 28.4498 33.341L20.5594 28.9574C19.7129 28.4871 19.4079 27.4196 19.8782 26.5731Z" fill="url(#paint6_linear_1892_31913)"/>
<path fill-rule="evenodd" clip-rule="evenodd" d="M49.2451 26.5731C48.7748 25.7266 47.7073 25.4216 46.8608 25.8919L38.9704 30.2754C38.1239 30.7457 37.8189 31.8132 38.2892 32.6598C38.7594 33.5063 39.8269 33.8113 40.6735 33.341L48.5639 28.9574C49.4104 28.4871 49.7154 27.4196 49.2451 26.5731Z" fill="url(#paint7_linear_1892_31913)"/>
<defs>
<linearGradient id="paint0_linear_1892_31913" x1="52.8722" y1="50.4324" x2="5.90743" y2="40.1037" gradientUnits="userSpaceOnUse">
<stop stop-color="#3A64FA"/>
<stop offset="0.942707" stop-color="#F963BC"/>
</linearGradient>
<linearGradient id="paint1_linear_1892_31913" x1="52.8722" y1="50.4324" x2="5.90743" y2="40.1037" gradientUnits="userSpaceOnUse">
<stop stop-color="#3A64FA"/>
<stop offset="0.942707" stop-color="#F963BC"/>
</linearGradient>
<linearGradient id="paint2_linear_1892_31913" x1="52.8722" y1="50.4324" x2="5.90743" y2="40.1037" gradientUnits="userSpaceOnUse">
<stop stop-color="#3A64FA"/>
<stop offset="0.942707" stop-color="#F963BC"/>
</linearGradient>
<linearGradient id="paint3_linear_1892_31913" x1="52.8722" y1="50.4324" x2="5.90743" y2="40.1037" gradientUnits="userSpaceOnUse">
<stop stop-color="#3A64FA"/>
<stop offset="0.942707" stop-color="#F963BC"/>
</linearGradient>
<linearGradient id="paint4_linear_1892_31913" x1="52.8722" y1="50.4324" x2="5.90743" y2="40.1037" gradientUnits="userSpaceOnUse">
<stop stop-color="#3A64FA"/>
<stop offset="0.942707" stop-color="#F963BC"/>
</linearGradient>
<linearGradient id="paint5_linear_1892_31913" x1="52.8722" y1="50.4324" x2="5.90743" y2="40.1037" gradientUnits="userSpaceOnUse">
<stop stop-color="#3A64FA"/>
<stop offset="0.942707" stop-color="#F963BC"/>
</linearGradient>
<linearGradient id="paint6_linear_1892_31913" x1="52.8722" y1="50.4324" x2="5.90743" y2="40.1037" gradientUnits="userSpaceOnUse">
<stop stop-color="#3A64FA"/>
<stop offset="0.942707" stop-color="#F963BC"/>
</linearGradient>
<linearGradient id="paint7_linear_1892_31913" x1="52.8722" y1="50.4324" x2="5.90743" y2="40.1037" gradientUnits="userSpaceOnUse">
<stop stop-color="#3A64FA"/>
<stop offset="0.942707" stop-color="#F963BC"/>
</linearGradient>
</defs>
</svg>
