<svg width="68" height="68" viewBox="0 0 68 68" fill="none" xmlns="http://www.w3.org/2000/svg">
<mask id="path-1-inside-1_2132_29636" fill="white">
<path fill-rule="evenodd" clip-rule="evenodd" d="M6.03675 6.77881C6.03675 6.77881 4.44372 13.2654 6.32644 18.1057C2.95751 22.1052 1 27.6941 1 35.3817C1 49.9621 15.7747 61.7818 34.0002 61.7818C52.2257 61.7818 67.0004 49.9621 67.0004 35.3817C67.0004 28.4761 65.0504 23.1036 61.6933 19.0618C64.2295 14.1717 62.4139 6.77881 62.4139 6.77881C62.4139 6.77881 52.6954 4.39207 48.1733 8.91415C47.6868 9.40061 47.2416 9.90852 46.8386 10.4318C42.8923 9.44296 38.554 8.98148 34.0002 8.98148C29.5174 8.98148 25.2434 9.30092 21.3466 10.0969C21.0159 9.6914 20.6593 9.29616 20.2773 8.91415C15.7552 4.39207 6.03675 6.77881 6.03675 6.77881Z"/>
</mask>
<path d="M6.32644 18.1057L9.38574 20.6826L10.9147 18.8675L10.0544 16.6556L6.32644 18.1057ZM6.03675 6.77881L5.08275 2.89424L2.72999 3.47205L2.15218 5.82481L6.03675 6.77881ZM61.6933 19.0618L58.1425 17.2203L56.9207 19.5761L58.6163 21.6175L61.6933 19.0618ZM62.4139 6.77881L66.2984 5.82481L65.7206 3.47205L63.3679 2.89424L62.4139 6.77881ZM48.1733 8.91415L45.3449 6.08572L45.3449 6.08573L48.1733 8.91415ZM46.8386 10.4318L45.8664 14.3118L48.4086 14.9488L50.0077 12.8725L46.8386 10.4318ZM21.3466 10.0969L18.2466 12.6247L19.776 14.5004L22.1471 14.016L21.3466 10.0969ZM20.2773 8.91415L23.1058 6.08573L23.1058 6.08572L20.2773 8.91415ZM10.0544 16.6556C9.43103 15.0531 9.31844 12.9209 9.46491 10.919C9.53457 9.96703 9.65504 9.14095 9.75711 8.55902C9.80783 8.26984 9.85316 8.04576 9.88383 7.90208C9.89914 7.83036 9.91072 7.77907 9.91738 7.75013C9.92071 7.73567 9.9228 7.72683 9.92351 7.72385C9.92386 7.72237 9.92387 7.72235 9.92351 7.72383C9.92333 7.72457 9.92306 7.72569 9.9227 7.72719C9.92252 7.72793 9.92231 7.72878 9.92208 7.72972C9.92197 7.73018 9.92178 7.73096 9.92172 7.73119C9.92152 7.73199 9.92132 7.73282 6.03675 6.77881C2.15218 5.82481 2.15197 5.82568 2.15175 5.82658C2.15167 5.82691 2.15144 5.82784 2.15128 5.8285C2.15095 5.82984 2.1506 5.83127 2.15023 5.83281C2.14948 5.83588 2.14863 5.83936 2.14769 5.84323C2.14582 5.85099 2.14357 5.86035 2.14097 5.87128C2.13576 5.89315 2.12914 5.92133 2.12126 5.95556C2.10551 6.024 2.08469 6.11679 2.06012 6.23189C2.01103 6.46185 1.94661 6.78235 1.8774 7.17692C1.73962 7.96249 1.5795 9.06057 1.48624 10.3353C1.30687 12.7867 1.33913 16.3179 2.59852 19.5557L10.0544 16.6556ZM5 35.3817C5 28.3874 6.76783 23.7905 9.38574 20.6826L3.26713 15.5287C-0.852806 20.4198 -3 27.0007 -3 35.3817H5ZM34.0002 57.7818C17.1048 57.7818 5 46.9661 5 35.3817H-3C-3 52.958 14.4446 65.7818 34.0002 65.7818V57.7818ZM63.0004 35.3817C63.0004 46.9661 50.8957 57.7818 34.0002 57.7818V65.7818C53.5558 65.7818 71.0004 52.958 71.0004 35.3817H63.0004ZM58.6163 21.6175C61.2938 24.8412 63.0004 29.2707 63.0004 35.3817H71.0004C71.0004 27.6814 68.807 21.3661 64.7704 16.5061L58.6163 21.6175ZM65.2442 20.9033C67.0107 17.4973 67.1481 13.553 66.9985 10.8642C66.9198 9.45134 66.7509 8.22149 66.6015 7.34111C66.5264 6.89856 66.4552 6.5381 66.4007 6.2798C66.3734 6.15049 66.3502 6.04632 66.3326 5.96977C66.3239 5.93148 66.3165 5.90006 66.3107 5.8758C66.3078 5.86368 66.3054 5.85334 66.3033 5.84483C66.3023 5.84057 66.3014 5.83677 66.3005 5.83344C66.3001 5.83177 66.2998 5.83021 66.2994 5.82878C66.2992 5.82806 66.299 5.82707 66.2989 5.82671C66.2987 5.82574 66.2984 5.82481 62.4139 6.77881C58.5293 7.73281 58.5291 7.73194 58.5289 7.73109C58.5288 7.73084 58.5286 7.73002 58.5285 7.72952C58.5283 7.72854 58.528 7.72766 58.5278 7.72689C58.5275 7.72534 58.5272 7.72423 58.527 7.72355C58.5267 7.72218 58.5268 7.72252 58.5273 7.72453C58.5282 7.72856 58.5307 7.73924 58.5347 7.75629C58.5425 7.79042 58.5558 7.84986 58.5732 7.93225C58.608 8.09735 58.6588 8.35266 58.7143 8.6796C58.8261 9.33819 58.9526 10.2622 59.0108 11.3088C59.135 13.539 58.9121 15.7362 58.1425 17.2203L65.2442 20.9033ZM62.4139 6.77881C63.3679 2.89424 63.3668 2.89398 63.3657 2.89371C63.3653 2.8936 63.3641 2.89332 63.3633 2.89312C63.3616 2.8927 63.3597 2.89225 63.3577 2.89177C63.3538 2.8908 63.3492 2.88969 63.344 2.88844C63.3336 2.88594 63.3209 2.88289 63.3058 2.87932C63.2756 2.87218 63.236 2.86297 63.1875 2.85198C63.0905 2.83002 62.9577 2.80089 62.7927 2.76698C62.4632 2.69927 62.0025 2.61188 61.441 2.52431C60.3266 2.35052 58.7716 2.16918 57.0313 2.15092C53.8052 2.11707 48.8063 2.62425 45.3449 6.08572L51.0017 11.7426C52.0623 10.682 54.1837 10.1215 56.9474 10.1505C58.202 10.1636 59.3593 10.2964 60.2084 10.4288C60.6286 10.4943 60.9625 10.558 61.1822 10.6032C61.2918 10.6257 61.3721 10.6435 61.4198 10.6542C61.4436 10.6596 61.4591 10.6633 61.466 10.6649C61.4694 10.6657 61.4706 10.666 61.4696 10.6658C61.4691 10.6656 61.4681 10.6654 61.4664 10.665C61.4656 10.6648 61.4647 10.6646 61.4636 10.6643C61.463 10.6642 61.4621 10.6639 61.4618 10.6639C61.4609 10.6636 61.4599 10.6634 62.4139 6.77881ZM45.3449 6.08573C44.7369 6.69365 44.1779 7.33104 43.6696 7.99109L50.0077 12.8725C50.3054 12.486 50.6367 12.1076 51.0017 11.7426L45.3449 6.08573ZM34.0002 12.9815C38.2933 12.9815 42.2972 13.4175 45.8664 14.3118L47.8109 6.55175C43.4875 5.46843 38.8147 4.98148 34.0002 4.98148V12.9815ZM22.1471 14.016C25.7022 13.2898 29.6926 12.9815 34.0002 12.9815V4.98148C29.3422 4.98148 24.7845 5.31205 20.546 6.17785L22.1471 14.016ZM17.4489 11.7426C17.7355 12.0292 18.0014 12.3241 18.2466 12.6247L24.4466 7.56909C24.0304 7.0587 23.5832 6.56315 23.1058 6.08573L17.4489 11.7426ZM6.03675 6.77881C6.99076 10.6634 6.98975 10.6636 6.98879 10.6639C6.98852 10.6639 6.98759 10.6642 6.98704 10.6643C6.98594 10.6646 6.98499 10.6648 6.98418 10.665C6.98255 10.6654 6.9815 10.6656 6.981 10.6658C6.98001 10.666 6.98125 10.6657 6.98467 10.6649C6.99152 10.6633 7.00706 10.6596 7.03085 10.6542C7.07848 10.6435 7.15885 10.6257 7.26843 10.6032C7.4881 10.558 7.82201 10.4943 8.24225 10.4288C9.09135 10.2964 10.2486 10.1636 11.5032 10.1505C14.2669 10.1215 16.3883 10.682 17.4489 11.7426L23.1058 6.08572C19.6443 2.62425 14.6454 2.11707 11.4193 2.15092C9.67904 2.16918 8.12403 2.35052 7.0096 2.52431C6.44807 2.61188 5.98739 2.69927 5.65792 2.76698C5.49293 2.80089 5.36009 2.83002 5.26314 2.85198C5.21465 2.86297 5.17507 2.87218 5.14487 2.87932C5.12976 2.88289 5.117 2.88594 5.10663 2.88844C5.10144 2.88969 5.09685 2.8908 5.09287 2.89177C5.09088 2.89225 5.08904 2.8927 5.08735 2.89312C5.08651 2.89332 5.08536 2.8936 5.08494 2.89371C5.08382 2.89398 5.08275 2.89424 6.03675 6.77881Z" fill="url(#paint0_linear_2132_29636)" mask="url(#path-1-inside-1_2132_29636)"/>
<path d="M22 36.0312L28.9386 43.2499C29.3321 43.6593 29.9871 43.6593 30.3805 43.2499L46 27" stroke="url(#paint1_linear_2132_29636)" stroke-width="4" stroke-linecap="round"/>
<defs>
<linearGradient id="paint0_linear_2132_29636" x1="53.8799" y1="48.2496" x2="5.17896" y2="35.185" gradientUnits="userSpaceOnUse">
<stop stop-color="#3A64FA"/>
<stop offset="0.942707" stop-color="#F963BC"/>
</linearGradient>
<linearGradient id="paint1_linear_2132_29636" x1="41.2289" y1="39.8649" x2="24.0008" y2="34.3652" gradientUnits="userSpaceOnUse">
<stop stop-color="#3A64FA"/>
<stop offset="0.942707" stop-color="#F963BC"/>
</linearGradient>
</defs>
</svg>
