<svg width="32" height="32" viewBox="0 0 32 32" fill="none" xmlns="http://www.w3.org/2000/svg">
<path d="M16 0C7.1625 0 0 7.1625 0 16C0 24.8375 7.1625 32 16 32C24.8375 32 32 24.8375 32 16C32 7.1625 24.8375 0 16 0ZM29.8687 16C29.8687 22.3375 25.625 27.6812 19.8188 29.3375L19.7188 29.3625V24.175C19.7188 22.9437 19.3875 22.0438 18.7313 21.475C19.4625 21.4 20.1313 21.2812 20.775 21.1125L20.6812 21.1313C21.3625 20.9438 21.9563 20.6875 22.5063 20.3687L22.4688 20.3875C23.075 20.0563 23.5813 19.6313 24.0063 19.1313L24.0125 19.125C24.425 18.625 24.7625 17.9562 25.0187 17.125C25.2812 16.2938 25.4062 15.3375 25.4062 14.2625C25.4062 12.725 24.9062 11.4187 23.9 10.3438C24.3687 9.1875 24.3188 7.89375 23.75 6.4625C23.3937 6.35 22.8812 6.41875 22.2062 6.66875C21.5312 6.91875 20.9563 7.2 20.4125 7.53125L20.4562 7.50625L19.7313 7.9625C18.6375 7.65 17.375 7.46875 16.075 7.46875C14.775 7.46875 13.5188 7.65 12.325 7.9875L12.4187 7.9625C11.5813 6.3625 9.45 6.25625 8.38125 6.45625C7.66875 7.5875 7.75625 9.375 8.25 10.3375C7.25 11.4187 6.74375 12.725 6.74375 14.2563C6.74375 15.3375 6.875 16.2875 7.13125 17.1125C7.39375 17.9375 7.725 18.6 8.13125 19.1125C8.55 19.6312 9.0625 20.0562 9.6375 20.375L9.6625 20.3875C10.175 20.6875 10.7688 20.9438 11.3938 21.1187L11.45 21.1313C12.0062 21.2812 12.6687 21.4 13.3438 21.4688L13.4 21.475C12.8937 21.9312 12.5813 22.5875 12.4688 23.4375C12.225 23.5562 11.9375 23.6562 11.6375 23.7188L11.6125 23.725C11.3063 23.7875 10.9563 23.8188 10.6 23.8188H10.5312C10.1125 23.8188 9.69375 23.6812 9.28125 23.4062C8.86875 23.1313 8.51875 22.7375 8.225 22.2188C7.9875 21.8188 7.68125 21.4875 7.3125 21.2375L7.3 21.2313C6.925 20.975 6.6125 20.825 6.35625 20.775L6.18125 20.7375L6.0875 20.725C5.91875 20.725 5.76875 20.8188 5.69375 20.9625L5.66875 21.0063L5.61875 21.2062C5.61875 21.3812 5.725 21.5375 5.875 21.6063C6.15625 21.7313 6.43125 21.975 6.7 22.3312C6.925 22.6125 7.125 22.9312 7.2875 23.275L7.3 23.3062L7.49375 23.7437C7.65625 24.2188 7.94375 24.6187 8.325 24.9125L8.33125 24.9188C8.6875 25.2 9.11875 25.4 9.5875 25.4875H9.60625C10 25.5625 10.4563 25.6125 10.925 25.6187H11.1062C11.4187 25.6187 11.7188 25.5938 12.0188 25.5438L11.9875 25.55L12.425 25.475C12.425 25.9563 12.4312 26.5188 12.4375 27.1688C12.4438 27.5625 12.4438 28.6313 12.4438 29.4188C6.475 27.7875 2.1375 22.4 2.1375 16C2.1375 10.2937 5.5875 5.3875 10.5125 3.25625L10.6 3.225C12.1938 2.53125 14.05 2.13125 16 2.13125C23.6562 2.13125 29.8625 8.3375 29.8625 15.9937L29.8687 16Z" fill="url(#paint0_linear_1414_31405)"/>
<defs>
<linearGradient id="paint0_linear_1414_31405" x1="25.6386" y1="24.2162" x2="1.55814" y2="18.7711" gradientUnits="userSpaceOnUse">
<stop stop-color="#3A64FA"/>
<stop offset="0.942707" stop-color="#F963BC"/>
</linearGradient>
</defs>
</svg>
