<svg width="104" height="23" viewBox="0 0 104 23" fill="none" xmlns="http://www.w3.org/2000/svg">
<path d="M23.386 9.19303L23.3549 9.11036L20.2151 0.946791C20.1516 0.786498 20.0385 0.65052 19.8923 0.558542C19.7832 0.488918 19.6592 0.445742 19.5303 0.432475C19.4015 0.419208 19.2713 0.436218 19.1502 0.482143C19.0291 0.528067 18.9205 0.601629 18.8331 0.69693C18.7456 0.792232 18.6818 0.906624 18.6467 1.03094L16.5274 7.49831H7.94478L5.82542 1.03094C5.79007 0.90681 5.72611 0.792633 5.63864 0.697514C5.55117 0.602394 5.44261 0.528964 5.32162 0.483077C5.20063 0.43719 5.07056 0.420116 4.94178 0.433219C4.81299 0.446321 4.68906 0.489236 4.57987 0.558542C4.43364 0.65052 4.32056 0.786498 4.25701 0.946791L1.11869 9.11183L1.08611 9.19303C0.634287 10.37 0.578624 11.6616 0.927513 12.8729C1.2764 14.0842 2.01093 15.1496 3.02034 15.9084L3.03219 15.9173L3.05885 15.9379L7.83518 19.506L11.6444 22.3758C11.8133 22.503 12.0192 22.5718 12.2309 22.5718C12.4426 22.5718 12.6485 22.503 12.8174 22.3758L16.6266 19.506L21.437 15.9173L21.4503 15.9069C22.4597 15.1484 23.1943 14.0833 23.5434 12.8723C23.8926 11.6613 23.8373 10.37 23.386 9.19303Z" fill="white"/>
<path d="M42.1833 8.77082H45.5571C44.9943 5.19539 41.8886 2.70498 37.8469 2.70498C33.0646 2.70498 29.476 6.20956 29.476 12.0791C29.476 17.8438 32.9032 21.4192 37.9446 21.4192C42.4692 21.4192 45.7082 18.5184 45.7082 13.8225V11.6347H38.2926V14.2137H42.5047C42.4514 16.8119 40.7112 18.4564 37.9624 18.4564C34.9026 18.4564 32.8054 16.1712 32.8054 12.0436C32.8054 7.94266 34.9381 5.66631 37.8913 5.66631C40.0951 5.66631 41.6028 6.83991 42.1833 8.77082Z" fill="white"/>
<path d="M47.9386 21.1697H51.1688V7.51455H47.9386V21.1697ZM49.5678 5.34449C50.5941 5.34449 51.4324 4.56061 51.4324 3.60106C51.4324 2.64151 50.5941 1.84877 49.5678 1.84877C48.5414 1.84877 47.6942 2.63117 47.6942 3.60106C47.6942 4.57094 48.5266 5.34449 49.5618 5.34449H49.5678Z" fill="white"/>
<path d="M60.8414 7.51455H58.137V4.23436H54.9069V7.51455H52.9623V10.005H54.9069V17.6016C54.8891 20.1718 56.7641 21.4399 59.19 21.3646C59.8363 21.3518 60.4771 21.2438 61.0917 21.0442L60.5467 18.5258C60.238 18.6056 59.9207 18.6477 59.6018 18.6513C58.7887 18.6513 58.137 18.3663 58.137 17.0673V9.99757H60.8414V7.51455Z" fill="white"/>
<path d="M63.3414 21.1697H74.7009V18.4032H66.653V2.95299H63.3414V21.1697Z" fill="white"/>
<path d="M80.8887 21.4458C83.0391 21.4458 84.3232 20.4404 84.9126 19.2934H85.0193V21.1697H88.1294V12.0259C88.1294 8.41505 85.1763 7.33002 82.5607 7.33002C79.6786 7.33002 77.466 8.60991 76.7521 11.1003L79.769 11.5284C80.0889 10.594 80.9997 9.79385 82.583 9.79385C84.0833 9.79385 84.9037 10.5585 84.9037 11.9019V11.9551C84.9037 12.8792 83.9307 12.9249 81.5122 13.1818C78.8537 13.4667 76.3108 14.258 76.3108 17.3359C76.3019 20.0227 78.2732 21.4458 80.8887 21.4458ZM81.9506 19.0838C80.6028 19.0838 79.6387 18.4697 79.6387 17.2872C79.6387 16.0501 80.7183 15.5349 82.1564 15.3297C83.0051 15.2146 84.7008 15.0005 85.1185 14.6639V16.273C85.1274 17.7891 83.8952 19.0794 81.9506 19.0794V19.0838Z" fill="white"/>
<path d="M90.508 21.1697H93.6848V19.0174H93.8714C94.3809 20.0138 95.4428 21.4103 97.7991 21.4103C101.029 21.4103 103.448 18.8564 103.448 14.3569C103.448 9.80271 100.958 7.33002 97.7902 7.33002C95.3717 7.33002 94.3631 8.77968 93.8714 9.76728H93.7351V2.95299H90.508V21.1697ZM93.6759 14.3392C93.6759 11.682 94.8178 9.971 96.8971 9.971C99.0476 9.971 100.155 11.7941 100.155 14.3392C100.155 16.8842 99.0313 18.7679 96.8971 18.7679C94.8355 18.7679 93.6759 16.989 93.6759 14.3392Z" fill="white"/>
</svg>
