<svg width="115" height="23" viewBox="0 0 115 23" fill="none" xmlns="http://www.w3.org/2000/svg">
<path fill-rule="evenodd" clip-rule="evenodd" d="M2.91568 0.705777C3.21809 0.893396 3.36776 1.13135 3.36776 1.42575V21.5193C3.36776 21.7741 3.21045 22.0074 2.90041 22.221C2.58884 22.4361 2.23145 22.5428 1.82214 22.5428C1.41283 22.5428 1.03711 22.4361 0.746927 22.221C0.453686 22.0059 0.308594 21.7741 0.308594 21.5193V1.4227C0.308594 1.13135 0.450632 0.890345 0.731654 0.705777C1.01268 0.522733 1.37617 0.428161 1.82367 0.428161C2.27116 0.428161 2.6148 0.522733 2.91568 0.705777ZM5.43571 11.2521C5.25244 11.423 5.17302 11.6838 5.20662 12.0407C5.23869 12.3931 5.40211 12.7287 5.69077 13.0459C5.98096 13.3647 6.30474 13.5646 6.67587 13.65C7.0409 13.7324 7.31886 13.6881 7.50214 13.5173L9.12107 12.509V21.5224C9.12107 21.7771 9.26158 22.009 9.54566 22.224C9.82362 22.4391 10.1795 22.5459 10.6071 22.5459C11.0348 22.5459 11.4028 22.4391 11.7129 22.224C12.0245 22.009 12.1802 21.7771 12.1802 21.5224V9.40186C12.1802 9.10746 12.029 8.86951 11.7282 8.68799C11.4288 8.5019 11.0546 8.41037 10.6071 8.41037C10.1596 8.41037 9.80224 8.50037 9.52886 8.68799L5.43419 11.2521M15.5342 21.5849C16.2535 22.2439 17.173 22.5718 18.2879 22.5718C19.9022 22.5718 21.3501 21.8183 22.6376 20.3097V21.3241C22.6376 21.5971 22.772 21.8335 23.0423 22.0379C23.3096 22.2378 23.6349 22.34 24.0198 22.34C24.4413 22.34 24.7941 22.2378 25.0706 22.0379C25.3501 21.832 25.4906 21.5971 25.4906 21.3241V14.0512C25.4906 12.4465 25.0125 11.1103 24.0626 10.0364C23.1111 8.96408 21.6464 8.42868 19.667 8.42868C18.63 8.42868 17.6449 8.61172 16.7148 8.97933C15.7816 9.34695 15.3158 9.78167 15.3158 10.2835C15.3158 10.6694 15.415 11.0218 15.6182 11.3406C15.8213 11.6594 16.0855 11.8196 16.4108 11.8196C16.4689 11.8196 16.8079 11.6594 17.4341 11.3406C18.0557 11.0218 18.7842 10.8632 19.6105 10.8632C20.5712 10.8632 21.2859 11.1774 21.7564 11.8119C22.2268 12.445 22.4604 13.1954 22.4604 14.0664V14.6018H21.1943C19.0057 14.6018 17.3348 14.9054 16.1802 15.5155C15.0286 16.1226 14.4513 17.1995 14.4513 18.7462C14.4513 19.9818 14.8118 20.929 15.5311 21.5834L15.5342 21.5849ZM18.1565 17.0073C18.5903 16.6794 19.079 16.475 19.6258 16.3987C20.1726 16.3209 20.8797 16.2828 21.7441 16.2828H22.4635V17.3536C22.4635 18.0522 22.1336 18.705 21.4692 19.3259C20.8079 19.9436 20.1115 20.2533 19.3814 20.2533C18.8255 20.2533 18.3703 20.0931 18.0267 19.7743C17.68 19.454 17.509 18.9888 17.509 18.3695C17.509 17.7913 17.7243 17.3353 18.155 17.0058L18.1565 17.0073ZM28.1129 16.8044C28.1129 18.5418 28.6108 19.9391 29.6127 20.9916C30.6101 22.0471 32.1068 22.5733 34.1076 22.5733C35.3737 22.5733 36.4504 22.3415 37.3332 21.8763C38.2175 21.4141 38.6574 20.9107 38.6574 20.3692C38.6574 20.0245 38.5398 19.695 38.3 19.3853C38.0602 19.0757 37.7471 18.9201 37.3653 18.9201C37.2477 18.9201 36.8964 19.0757 36.3114 19.3853C35.7234 19.695 35.0667 19.8506 34.3382 19.8506C32.2046 19.8506 31.1385 18.8332 31.1385 16.7983V14.2037C31.1385 12.1704 32.1954 11.1514 34.3092 11.1514C35.0194 11.1514 35.6685 11.2979 36.2534 11.5862C36.8399 11.8745 37.1805 12.0209 37.2767 12.0209C37.6035 12.0209 37.8861 11.8546 38.1274 11.5267C38.3657 11.1987 38.4878 10.8708 38.4878 10.5413C38.4878 10.0029 38.0648 9.51168 37.2187 9.07848C36.3741 8.64375 35.3263 8.42563 34.077 8.42563C32.0977 8.42563 30.6101 8.95798 29.6127 10.0212C28.6124 11.0843 28.1129 12.4739 28.1129 14.193V16.8014M40.8781 21.3226C40.8781 21.5758 41.017 21.8046 41.2965 22.0196C41.5745 22.2332 41.9242 22.3384 42.3473 22.3384C42.7704 22.3384 43.1339 22.2332 43.4393 22.0196C43.7463 21.8046 43.9006 21.5742 43.9006 21.3226V17.7013L46.0052 15.7901L50.2419 22.0791C50.4542 22.3674 50.7215 22.5139 51.0468 22.5139C51.4118 22.5139 51.7875 22.3415 52.1708 22.0059C52.5557 21.6688 52.7482 21.3241 52.7482 20.9763C52.7482 20.8024 52.6901 20.627 52.5756 20.4546L48.0487 13.9047L51.7676 10.5718C51.9402 10.3979 52.0273 10.1859 52.0273 9.93421C52.0273 9.5849 51.8654 9.25695 51.5385 8.94883C51.2117 8.63918 50.8849 8.48359 50.558 8.48359C50.3091 8.48359 50.0968 8.57206 49.9242 8.74595L43.9006 14.312V1.41354C43.9006 1.12373 43.7539 0.887295 43.4546 0.704251C43.1583 0.519683 42.7872 0.426636 42.3473 0.426636C41.9074 0.426636 41.5501 0.518157 41.2813 0.704251C41.0109 0.887295 40.8781 1.1222 40.8781 1.41354V21.3241M55.7462 20.9778C56.994 22.041 58.5992 22.5733 60.5572 22.5733C61.9012 22.5733 63.036 22.3278 63.957 21.8442C64.8779 21.3546 65.3407 20.8726 65.3407 20.3951C65.3407 20.1053 65.2261 19.8033 64.994 19.4936C64.7649 19.184 64.4854 19.0299 64.1586 19.0299C64.0074 19.0299 63.5797 19.2145 62.8772 19.5836C62.1761 19.9528 61.4339 20.1373 60.6473 20.1373C59.5324 20.1373 58.6282 19.8506 57.9364 19.277C57.2445 18.7005 56.8978 17.9271 56.8978 16.9554V16.2843H62.978C63.3827 16.2843 63.7065 16.2614 63.9585 16.2263C64.2074 16.1851 64.4778 16.0921 64.7664 15.9441C65.0536 15.7946 65.2674 15.543 65.4003 15.1769C65.5347 14.8123 65.6034 14.3364 65.6034 13.7446C65.6034 12.21 65.0413 10.9425 63.9157 9.93879C62.7916 8.93357 61.4415 8.4302 59.8684 8.4302C58.2174 8.4302 56.8062 8.98696 55.6317 10.0974C54.4603 11.2094 53.8738 12.5273 53.8738 14.0542V16.806C53.8738 18.525 54.5 19.9146 55.7478 20.9793L55.7462 20.9778ZM56.8978 13.4258C56.8978 12.6494 57.188 12.0087 57.7638 11.5023C58.3396 10.9989 59.0314 10.7457 59.8394 10.7457C60.6473 10.7457 61.356 11.0111 61.915 11.545C62.4709 12.0773 62.7489 12.7241 62.7489 13.4837C62.7489 13.8254 62.6802 14.0557 62.5335 14.1701C62.3884 14.283 62.1059 14.3395 61.6843 14.3395H56.8993V13.4242L56.8978 13.4258ZM68.0486 21.3241C68.0486 21.5773 68.1876 21.8061 68.467 22.0212C68.7435 22.2347 69.0948 22.34 69.5224 22.34C69.9501 22.34 70.3074 22.2347 70.6129 22.0212C70.9199 21.8107 71.0741 21.5788 71.0741 21.3271V15.3996C71.0741 14.1488 71.4254 13.1253 72.128 12.3367C72.829 11.5465 73.6431 11.1514 74.561 11.1514H75.4865C75.792 11.1514 76.0592 11.0157 76.2898 10.7396C76.5205 10.4681 76.6365 10.1432 76.6365 9.77405C76.6365 9.40491 76.5205 9.08611 76.2898 8.82222C76.0592 8.55833 75.792 8.42563 75.4865 8.42563H74.561C73.7744 8.42563 73.0505 8.66511 72.3891 9.14407C71.7263 9.62304 71.2284 10.2042 70.9031 10.886V9.59711C70.9031 9.30424 70.7702 9.06475 70.4999 8.87866C70.2326 8.69257 69.9042 8.59952 69.5239 8.59952C69.0963 8.59952 68.745 8.69257 68.4686 8.87713C68.1891 9.06018 68.0501 9.29508 68.0501 9.58643V21.3241M79.1276 20.8771C80.2226 21.9876 81.4903 22.5413 82.932 22.5413C84.3738 22.5413 85.675 21.9876 86.7793 20.8771C87.8835 19.7636 88.4349 18.4823 88.4349 17.0348V13.8773C88.4349 12.3885 87.8881 11.1133 86.793 10.0517C85.698 8.98696 84.4089 8.45461 82.932 8.45461C81.4551 8.45461 80.1753 8.99154 79.097 10.0654C78.0233 11.1377 77.4857 12.4083 77.4857 13.8773V17.0348C77.4857 18.4823 78.0325 19.7621 79.1276 20.8771ZM79.3597 13.8864C79.3597 12.9422 79.7079 12.0972 80.409 11.3467C81.11 10.5977 81.9515 10.2225 82.932 10.2225C83.9126 10.2225 84.7602 10.5977 85.4811 11.3467C86.2035 12.0972 86.5624 12.9422 86.5624 13.8864V17.0256C86.5624 18.0064 86.2066 18.8774 85.4964 19.634C84.7846 20.3936 83.9294 20.7734 82.932 20.7734C81.9347 20.7734 81.11 20.3951 80.409 19.634C79.7079 18.8759 79.3597 18.0049 79.3597 17.0256V13.8864ZM90.7304 21.5834C90.7304 21.7786 90.8159 21.9525 90.9885 22.1066C91.1611 22.2622 91.3825 22.3384 91.6513 22.3384C91.9003 22.3384 92.1218 22.2606 92.3127 22.1066C92.5036 21.9525 92.6029 21.7786 92.6029 21.5864V13.894C92.6029 12.7973 92.948 11.908 93.6399 11.2338C94.3317 10.5611 95.1275 10.221 96.0316 10.221C97.0106 10.221 97.8552 10.5977 98.5669 11.3482C99.2771 12.0987 99.633 12.9483 99.633 13.894V21.5864C99.633 21.8183 99.7261 22.0013 99.9216 22.1325C100.113 22.2683 100.323 22.3384 100.554 22.3384C100.803 22.3384 101.024 22.2683 101.218 22.1325C101.411 22.0013 101.507 21.8168 101.507 21.5819V13.8742C101.507 12.3855 100.997 11.1103 99.9797 10.0486C98.9625 8.98391 97.7636 8.45156 96.3783 8.45156C95.4772 8.45156 94.6876 8.66816 94.0171 9.09984C93.3436 9.52999 92.8457 10.0562 92.5173 10.6832V9.33169C92.5173 9.13645 92.4318 8.97018 92.2592 8.8329C92.0866 8.69562 91.885 8.62545 91.6529 8.62545C91.3826 8.62545 91.1626 8.68952 90.99 8.81612C90.8174 8.94273 90.7319 9.11051 90.7319 9.32101V21.5803M105.408 21.016C106.558 22.0334 108.048 22.5367 109.872 22.5367C111.101 22.5367 112.131 22.3171 112.956 21.8854C113.782 21.4507 114.196 21.0312 114.196 20.6224C114.196 20.4317 114.113 20.2319 113.948 20.029C113.786 19.8277 113.6 19.7255 113.388 19.7255C113.232 19.7255 113.027 19.8216 112.768 20.0153C112.508 20.2075 112.134 20.4028 111.645 20.5934C111.156 20.7902 110.582 20.8863 109.932 20.8863C108.644 20.8863 107.593 20.5416 106.773 19.8552C105.957 19.1703 105.55 18.2581 105.55 17.1156V16.0448H112.062C112.465 16.0448 112.781 16.0265 113.014 15.9868C113.243 15.9487 113.498 15.8618 113.774 15.726C114.054 15.5887 114.254 15.3599 114.382 15.032C114.506 14.704 114.57 14.2708 114.57 13.7308C114.57 12.2223 114.035 10.9654 112.971 9.95556C111.903 8.9534 110.642 8.44698 109.18 8.44698C107.718 8.44698 106.367 8.97476 105.289 10.0273C104.216 11.0813 103.677 12.3306 103.677 13.7827V17.0271C103.677 18.67 104.253 19.9985 105.408 21.0129V21.016ZM105.55 13.56C105.55 12.6005 105.899 11.7723 106.6 11.0828C107.302 10.3903 108.152 10.0471 109.151 10.0471C110.15 10.0471 111.048 10.4086 111.728 11.1408C112.412 11.8699 112.751 12.7149 112.751 13.6744C112.751 14.0756 112.655 14.344 112.464 14.4661C112.27 14.5927 111.888 14.6522 111.311 14.6522H105.548V13.5585L105.55 13.56Z" fill="white"/>
</svg>
