<svg width="66" height="68" viewBox="0 0 66 68" fill="none" xmlns="http://www.w3.org/2000/svg">
<path fill-rule="evenodd" clip-rule="evenodd" d="M34.0095 9.38456C41.6923 3.14794 53.0684 3.56306 60.2575 10.6396C67.9142 18.1764 67.9142 30.4092 60.2575 37.946L36.1495 61.6763C34.7844 63.0201 32.584 63.0201 31.2189 61.6763L15.5032 46.2068L19.0233 45.373C26.1637 43.6817 30.6608 39.7856 35.0784 35.4371L36.4814 34.0561L42.1304 39.6165L42.8551 24.2226L26.6964 24.4244L32.9584 30.5884L31.5104 32.0137C28.9534 34.5307 25.1586 37.8806 21.0338 39.7326C18.9551 40.6659 16.6755 41.2731 14.3579 41.1123C11.9897 40.948 9.71759 39.989 7.72355 38.0262C0.061049 30.4837 0.110693 18.1707 7.7616 10.6396C14.9507 3.56306 26.3267 3.14794 34.0095 9.38456ZM57.4515 13.4902C51.6881 7.81717 42.5147 7.51785 36.3941 12.6022C35.0191 13.7443 32.9998 13.7443 31.6249 12.6022C25.5043 7.51785 16.3309 7.81717 10.5676 13.4902C4.49708 19.4657 4.47063 29.2115 10.5296 35.1755C11.8553 36.4805 13.235 37.0247 14.6347 37.1219C16.085 37.2225 17.6896 36.8494 19.3954 36.0835C22.2003 34.8241 24.9599 32.651 27.232 30.5644L21.7313 25.1497C21.7313 25.1497 21.7313 25.1497 21.7313 25.1497C19.9484 23.3947 21.2543 20.492 23.631 20.4623L44.131 20.2063C45.6819 20.1869 46.9893 21.4663 46.9136 23.0738L45.9942 42.6037C45.8799 45.0305 42.9643 46.0502 41.3119 44.4236L36.4705 39.658C32.9301 43.0229 28.8982 46.2793 23.3053 48.2739L33.6842 58.4903L57.4515 35.0953C63.5162 29.1256 63.5162 19.46 57.4515 13.4902Z" fill="url(#paint0_linear_1875_28547)"/>
<defs>
<linearGradient id="paint0_linear_1875_28547" x1="53.2771" y1="48.6529" x2="5.65135" y2="36.7046" gradientUnits="userSpaceOnUse">
<stop stop-color="#3A64FA"/>
<stop offset="0.942707" stop-color="#F963BC"/>
</linearGradient>
</defs>
</svg>
