<svg width="507" height="264" viewBox="0 0 507 264" fill="none" xmlns="http://www.w3.org/2000/svg">
<path d="M456 53H388.004V120.997H456V53Z" stroke="url(#paint0_linear_2140_29350)" stroke-width="2" stroke-linecap="round" stroke-linejoin="round" stroke-dasharray="11.09 11.09"/>
<path d="M422.002 86.998H354.006V154.995H422.002V86.998Z" stroke="url(#paint1_linear_2140_29350)" stroke-width="2" stroke-linecap="round" stroke-linejoin="round"/>
<path d="M421.996 86.9983V154.992L455.994 120.993V53L421.996 86.9983Z" stroke="url(#paint2_linear_2140_29350)" stroke-width="2" stroke-linecap="round" stroke-linejoin="round"/>
<path d="M421.999 86.9983H354.006L388.004 53H455.997L421.999 86.9983Z" stroke="url(#paint3_linear_2140_29350)" stroke-width="2" stroke-linecap="round" stroke-linejoin="round"/>
<path d="M354 154.991L387.998 120.993L354 154.991Z" stroke="url(#paint4_linear_2140_29350)" stroke-width="2" stroke-linecap="round" stroke-linejoin="round" stroke-dasharray="11.09 11.09"/>
<path d="M335.718 202.99L261.571 233.344L216.074 203.269L335.718 202.99Z" stroke="url(#paint5_linear_2140_29350)" stroke-width="2" stroke-linecap="round" stroke-linejoin="round" stroke-dasharray="8.61 8.61"/>
<path d="M261.574 233.345L216.077 203.27L266.502 125.158L261.574 233.345Z" stroke="url(#paint6_linear_2140_29350)" stroke-width="2" stroke-linecap="round" stroke-linejoin="round"/>
<path d="M266.502 125.158L335.72 202.991L261.573 233.345L266.502 125.158Z" stroke="url(#paint7_linear_2140_29350)" stroke-width="2" stroke-linecap="round" stroke-linejoin="round"/>
<path d="M163 136C186.196 136 205 117.196 205 94C205 70.804 186.196 52 163 52C139.804 52 121 70.804 121 94C121 117.196 139.804 136 163 136Z" stroke="url(#paint8_linear_2140_29350)" stroke-width="2" stroke-linecap="round" stroke-linejoin="round"/>
<path d="M163 72.876C139.803 72.876 121 82.2972 121 93.9183C121 117.16 139.803 136 163 136C186.197 136 205 117.16 205 93.9183C205 82.2972 186.197 72.876 163 72.876Z" stroke="url(#paint9_linear_2140_29350)" stroke-width="2" stroke-linecap="round" stroke-linejoin="round" stroke-dasharray="16 16"/>
<path d="M163 114.875C139.803 114.875 121 105.419 121 93.752C121 117.086 139.803 136 163 136C186.197 136 205 117.086 205 93.752C205 105.419 186.197 114.878 163 114.878V114.875Z" stroke="url(#paint10_linear_2140_29350)" stroke-width="2" stroke-linecap="round" stroke-linejoin="round"/>
<path d="M422 145V198C422 211.807 433.193 223 447 223H507" stroke="url(#paint11_linear_2140_29350)" stroke-dasharray="8 8"/>
<path d="M216 203L169 203C155.193 203 144 214.193 144 228L144 264" stroke="url(#paint12_linear_2140_29350)" stroke-dasharray="8 8"/>
<path d="M323 0V69C323 82.8071 311.807 94 298 94L205 94" stroke="url(#paint13_linear_2140_29350)" stroke-dasharray="8 8"/>
<path d="M1 262L1 230.039C1 216.232 12.1929 205.039 26 205.039H57C70.8071 205.039 82 193.846 82 180.039L82 0" stroke="url(#paint14_linear_2140_29350)" stroke-dasharray="8 8"/>
<defs>
<linearGradient id="paint0_linear_2140_29350" x1="423.734" y1="106.75" x2="390.882" y2="106.683" gradientUnits="userSpaceOnUse">
<stop stop-color="#3A64FA"/>
<stop offset="0.942707" stop-color="#F963BC"/>
</linearGradient>
<linearGradient id="paint1_linear_2140_29350" x1="389.736" y1="140.748" x2="356.884" y2="140.682" gradientUnits="userSpaceOnUse">
<stop stop-color="#3A64FA"/>
<stop offset="0.942707" stop-color="#F963BC"/>
</linearGradient>
<linearGradient id="paint2_linear_2140_29350" x1="439.861" y1="133.622" x2="423.435" y2="133.611" gradientUnits="userSpaceOnUse">
<stop stop-color="#3A64FA"/>
<stop offset="0.942707" stop-color="#F963BC"/>
</linearGradient>
<linearGradient id="paint3_linear_2140_29350" x1="407.6" y1="79.8748" x2="358.325" y2="79.5771" gradientUnits="userSpaceOnUse">
<stop stop-color="#3A64FA"/>
<stop offset="0.942707" stop-color="#F963BC"/>
</linearGradient>
<linearGradient id="paint4_linear_2140_29350" x1="372.424" y1="137.685" x2="354.575" y2="152.382" gradientUnits="userSpaceOnUse">
<stop stop-color="#3A64FA"/>
<stop offset="0.942707" stop-color="#F963BC"/>
</linearGradient>
<linearGradient id="paint5_linear_2140_29350" x1="274.671" y1="225.171" x2="332.057" y2="220.012" gradientUnits="userSpaceOnUse">
<stop stop-color="#3A64FA"/>
<stop offset="0.942707" stop-color="#F963BC"/>
</linearGradient>
<linearGradient id="paint6_linear_2140_29350" x1="243.812" y1="212.232" x2="271.107" y2="209.945" gradientUnits="userSpaceOnUse">
<stop stop-color="#3A64FA"/>
<stop offset="0.942707" stop-color="#F963BC"/>
</linearGradient>
<linearGradient id="paint7_linear_2140_29350" x1="295.847" y1="207.927" x2="332.628" y2="204.832" gradientUnits="userSpaceOnUse">
<stop stop-color="#3A64FA"/>
<stop offset="0.942707" stop-color="#F963BC"/>
</linearGradient>
<linearGradient id="paint8_linear_2140_29350" x1="165.14" y1="118.4" x2="124.556" y2="118.318" gradientUnits="userSpaceOnUse">
<stop stop-color="#3A64FA"/>
<stop offset="0.942707" stop-color="#F963BC"/>
</linearGradient>
<linearGradient id="paint9_linear_2140_29350" x1="165.14" y1="122.774" x2="124.556" y2="122.665" gradientUnits="userSpaceOnUse">
<stop stop-color="#3A64FA"/>
<stop offset="0.942707" stop-color="#F963BC"/>
</linearGradient>
<linearGradient id="paint10_linear_2140_29350" x1="165.14" y1="127.148" x2="124.557" y2="126.986" gradientUnits="userSpaceOnUse">
<stop stop-color="#3A64FA"/>
<stop offset="0.942707" stop-color="#F963BC"/>
</linearGradient>
<linearGradient id="paint11_linear_2140_29350" x1="466.134" y1="177.646" x2="558.649" y2="222.624" gradientUnits="userSpaceOnUse">
<stop stop-color="#3A64FA"/>
<stop offset="0.942707" stop-color="#FF5894"/>
</linearGradient>
<linearGradient id="paint12_linear_2140_29350" x1="185.865" y1="234.672" x2="158.717" y2="306.497" gradientUnits="userSpaceOnUse">
<stop stop-color="#3A64FA"/>
<stop offset="0.942707" stop-color="#FF5894"/>
</linearGradient>
<linearGradient id="paint13_linear_2140_29350" x1="261.732" y1="39.3432" x2="140.855" y2="107.038" gradientUnits="userSpaceOnUse">
<stop stop-color="#3A64FA"/>
<stop offset="0.942707" stop-color="#FF5894"/>
</linearGradient>
<linearGradient id="paint14_linear_2140_29350" x1="54.0563" y1="221.418" x2="166.669" y2="168.471" gradientUnits="userSpaceOnUse">
<stop stop-color="#3A64FA"/>
<stop offset="0.942707" stop-color="#FF5894"/>
</linearGradient>
</defs>
</svg>
