<svg xmlns="http://www.w3.org/2000/svg" id="Layer_2" data-name="Layer 2" viewBox="0 0 449.19 427.35" width="500" height="500">
  <defs>
    <style>
      .cls-1 {
        fill: #fff;
        fill-rule: evenodd;
      }
    </style>
  </defs>
  <g id="Layer_1-2" data-name="Layer 1">
    <path class="cls-1" d="M175.65,12.63c8.19,3.28,13.31,5.64,14.57,13.02,1.07,6.27-3.32,12.33-7.05,16.71-4.74,5.56-14.46,19.57-13.5,41.73.95,22.16,14.51,36.57,28.21,42.82,19.19,8.76,37.32,23.73,38.44,44.8,1.38,25.67-23.76,38.17-44.84,34.98-21.08-3.18-57.86-26.62-72.76-73.4-14.9-46.77-.25-98.78,13-115.95,0,0-74.1,27.7-109.6,102.86-35.5,75.16-25.9,152.56,11.86,212.89,0,0,5.58-65.44,36.4-79.57,30.82-14.13,54.08,23.52,62.79,44.53,8.71,21.01,18.64,20.65,25.55,19.49,6.91-1.15,14.82-11.64,19.9-25.84,5.08-14.2,16.54-43.46,43.6-47.46,27.06-4.01,53.62,19.88,60.84,51.33,6.61,28.73-4.24,53.63-15.7,67.47-16.35,19.72-59.16,49.42-132.29,52.83,0,0,77.29,31.05,158.87-9.03,81.58-40.08,93.06-137.71,83.87-183.81-9.18-46.1-32.71-76.08-62.43-95.08-21.87-13.99-48.35-19.98-66.04-23.99h0c-3.93-.89-7.43-1.68-10.35-2.44-15.03-3.93-23.01-15.68-20.64-28.93,0,0,13.08,10.52,31.95,13.8,18.87,3.28,41.77,7.23,52.21,8.93,10.45,1.71,19.15-8.47,22.44-13.44,3.29-4.96,1.76-12.25-1.85-14.87-.33-.24-.73-.53-1.21-.88h-.01s0,0,0,0c-4.86-3.51-16.95-12.26-23.45-18.4-4.33-4.09-6.42-8.4-8.6-12.92-2.73-5.64-5.61-11.61-13.22-17.89-13.71-11.31-47.72-29.39-101.02-4.29l.06-.02ZM221.04,54.8s7.09-7.9,22.65-7.9,31.05,9.8,36.25,14.18c0,0-4.66-19.74-19.46-30.57-14.8-10.83-25.36-6.19-31.57,0-5.69,5.67-7.06,17.32-7.72,22.91h0c-.06.51-.11.97-.17,1.37h.02ZM449.18,85.37s0,0,0-.01v-.04s0,.03,0,.05ZM390.7,100.02c4.14,13.89,41.24,8.67,58.49-14.65-6.8,42.59-40.64,55.92-64.81,52.44-8.89-1.27-20.46-8.28-32.82-15.78-7.25-4.39-14.77-8.95-22.17-12.61,14.11-1.78,20.94-10.05,27.87-18.45,10.9-13.21,22.06-26.72,62.19-15.8-11.36,1.34-32.94,10.96-28.74,24.86Z"/>
  </g>
</svg>