<svg width="180" height="42" viewBox="0 0 180 42" fill="none" xmlns="http://www.w3.org/2000/svg">
<path d="M102.85 31.9902C102.316 31.3785 101.929 30.6794 101.694 29.8883C101.455 29.0973 101.339 28.0303 101.339 26.6919V6.63928H105.756V26.2182C105.756 27.7405 105.922 28.9133 106.258 29.7412C106.594 30.5506 107.027 31.2405 107.561 31.8154V31.9948H102.845L102.85 31.9902Z" fill="#080216"/>
<path d="M112.802 31.9904C112.346 31.4569 111.982 30.8176 111.706 30.068C111.448 29.3183 111.319 28.1915 111.319 26.6921V17.7283H108.887V14.2282H111.379V9.31168H115.68V14.2282H118.613V17.7283H115.708V26.1908C115.708 27.7684 115.887 28.9733 116.242 29.8012C116.596 30.6107 117.025 31.2822 117.517 31.8157V31.995H112.802V31.9904Z" fill="#080216"/>
<path d="M51.8892 14.2096H56.0845V16.3712H56.3193C57.0976 15.0191 58.7232 13.7681 61.1593 13.7681C63.5955 13.7681 65.4237 14.8167 66.4414 16.4724H66.7131C67.9335 14.6143 69.6927 13.7681 71.9953 13.7681C75.9234 13.7681 78.4931 16.4402 78.4931 20.1886V31.9856H74.0952V21.7109C74.0952 19.2779 72.9762 17.889 70.8808 17.889C68.7855 17.889 67.4269 19.4113 67.4269 21.8121V31.9856H63.0244V21.4396C63.0244 19.2779 61.7396 17.889 59.7087 17.889C57.6778 17.889 56.2917 19.5125 56.2917 21.7753V31.9856H51.8938V14.2096H51.8892Z" fill="#080216"/>
<path d="M81.0308 23.2011C81.0308 17.59 84.7886 13.7681 90.0016 13.7681C95.7212 13.7681 98.8343 17.9948 98.8343 22.9987V24.3831H85.2952C85.4287 27.0874 87.2938 28.9133 90.1352 28.9133C92.2996 28.9133 93.9621 27.8969 94.5699 26.4435H98.6639C97.7843 30.0631 94.6022 32.4271 89.997 32.4271C84.7518 32.4271 81.0262 28.504 81.0262 23.1965L81.0308 23.2011ZM94.639 21.274C94.4364 18.8732 92.5759 17.2865 90.0016 17.2865C87.4273 17.2865 85.6359 19.0434 85.3642 21.274H94.639Z" fill="#080216"/>
<path d="M120.663 23.2011C120.663 17.6222 124.047 13.7681 128.92 13.7681C132.001 13.7681 133.727 15.594 134.335 16.5046H134.57V14.205H138.973V31.9856H134.639V29.7228H134.404C133.898 30.4678 132.304 32.4271 129.058 32.4271C124.084 32.4271 120.663 28.7109 120.663 23.1965V23.2011ZM134.676 23.1321C134.676 19.7839 132.645 17.7556 129.868 17.7556C127.091 17.7556 125.13 19.9862 125.13 23.1321C125.13 26.278 127.059 28.4718 129.901 28.4718C132.742 28.4718 134.672 26.1078 134.672 23.1321H134.676Z" fill="#080216"/>
<path d="M142.634 14.2096H146.829V16.3712H147.064C147.773 15.0513 149.537 13.7681 152.074 13.7681C156.067 13.7681 158.503 16.5736 158.503 20.3588V31.9856H154.105V21.504C154.105 19.3423 152.719 17.8844 150.688 17.8844C148.556 17.8844 147.032 19.5769 147.032 21.8075V31.981H142.634V14.2096Z" fill="#080216"/>
<path d="M161.045 23.0999C161.045 17.8246 164.904 13.7681 170.523 13.7681C176.141 13.7681 180 17.8246 180 23.0999C180 28.3752 176.072 32.4317 170.523 32.4317C164.973 32.4317 161.045 28.4074 161.045 23.0999ZM175.533 23.0999C175.533 20.023 173.433 17.7602 170.523 17.7602C167.612 17.7602 165.512 20.023 165.512 23.0999C165.512 26.1768 167.612 28.4396 170.523 28.4396C173.433 28.4396 175.533 26.209 175.533 23.0999Z" fill="#080216"/>
<path d="M43.9452 8.38915C42.2581 10.6818 38.628 11.1961 38.2226 9.83031C37.8116 8.4645 39.9228 7.5188 41.0344 7.38692C34.6112 5.63115 35.7752 10.3032 32.2235 10.7534C34.1852 11.7274 36.2254 13.3456 37.6042 13.5434C39.9695 13.8863 43.282 12.5751 43.9452 8.38538" fill="#080216"/>
<path fill-rule="evenodd" clip-rule="evenodd" d="M18.6092 2.52084C18.4859 1.79554 17.9852 1.56383 17.1837 1.24168L17.1781 1.24357C22.3925 -1.22243 25.72 0.554067 27.0614 1.66556C27.8059 2.28242 28.0883 2.86911 28.3551 3.42338C28.569 3.8678 28.7728 4.29138 29.1969 4.69295C29.8321 5.2958 31.0155 6.15556 31.4907 6.50079C31.5382 6.5353 31.5786 6.56467 31.6107 6.58813C31.9638 6.84622 32.1133 7.56209 31.7919 8.05002C31.4706 8.53794 30.6186 9.53828 29.5967 9.37062C28.5747 9.20295 26.3346 8.81487 24.4888 8.49273C22.6429 8.17058 21.3631 7.13634 21.3631 7.13634C21.1314 8.4381 21.9124 9.59291 23.3827 9.97911C23.6682 10.0538 24.0105 10.1317 24.3953 10.2192C26.126 10.613 28.7161 11.2022 30.8559 12.577C33.763 14.4439 36.0647 17.3903 36.9634 21.921C37.862 26.4517 36.7392 36.0463 28.7578 39.9855C20.7765 43.9247 13.2155 40.8728 13.2155 40.8728C20.3692 40.5375 24.5579 37.6194 26.1571 35.6809C27.2781 34.3207 28.3393 31.8735 27.6929 29.0496C26.9867 25.9582 24.3879 23.6108 21.7405 24.0046C19.0931 24.3983 17.9721 27.2731 17.4752 28.6691C16.9782 30.065 16.2047 31.0955 15.5284 31.2085C14.8521 31.3216 13.8806 31.3574 13.0286 29.2926C12.1767 27.2279 9.9011 23.528 6.88567 24.9164C3.87024 26.3048 3.3247 32.7364 3.3247 32.7364C-0.368922 26.8078 -1.30867 19.2007 2.16449 11.814C5.63765 4.42732 12.8866 1.70512 12.8866 1.70512C11.59 3.39307 10.1571 8.50403 11.6143 13.1007C13.0716 17.6974 16.6699 20.0013 18.7325 20.3141C20.7951 20.6268 23.2538 19.3985 23.1193 16.876C23.0091 14.8056 21.2361 13.3343 19.3584 12.4734C18.0188 11.8592 16.6924 10.4425 16.5989 8.26478C16.5055 6.08702 17.4565 4.7099 17.9198 4.16358C18.2841 3.73217 18.7139 3.13686 18.6092 2.52084ZM23.8404 4.61003C22.3177 4.61003 21.6246 5.38619 21.6246 5.38619H21.6227C21.6277 5.34677 21.633 5.3015 21.6389 5.25126C21.7035 4.70127 21.8379 3.55688 22.3943 2.99932C23.0015 2.39083 24.0347 1.93493 25.4826 2.99932C26.9305 4.06371 27.3864 6.0041 27.3864 6.0041C26.8782 5.57269 25.363 4.61003 23.8404 4.61003Z" fill="#080216"/>
</svg>
