<?xml version="1.0" encoding="utf-8"?>
<!-- Generator: Adobe Illustrator 27.7.0, SVG Export Plug-In . SVG Version: 6.00 Build 0)  -->
<svg version="1.1" id="Layer_1" xmlns="http://www.w3.org/2000/svg" xmlns:xlink="http://www.w3.org/1999/xlink" x="0px" y="0px"
	 viewBox="0 0 414 311" style="enable-background:new 0 0 414 311;" xml:space="preserve">
<style type="text/css">
	.st0{fill:url(#SVGID_1_);}
	.st1{fill:none;stroke:#FFFFFF;stroke-opacity:0.15;}
	.st2{fill:#080216;fill-opacity:0.75;}
	.st3{fill:#FF5F3C;}
	.st4{fill:none;stroke:#FFFFFF;stroke-width:0.5577;stroke-opacity:0.15;}
	.st5{fill:#FBCC54;}
	.st6{fill:#99CE55;}
	.st7{opacity:0.15;fill:none;stroke:#FFFFFF;enable-background:new    ;}
	
		.st8{fill:none;stroke:url(#SVGID_00000122713152809830133160000004188261991546727842_);stroke-linecap:round;stroke-linejoin:round;stroke-dasharray:8,8;}
	
		.st9{fill:none;stroke:url(#SVGID_00000009590064332377385740000000555335288248789889_);stroke-linecap:round;stroke-linejoin:round;}
	
		.st10{fill:none;stroke:url(#SVGID_00000055708168969261441930000003467148998143131314_);stroke-linecap:round;stroke-linejoin:round;}
	
		.st11{fill:none;stroke:url(#SVGID_00000170960927951765695190000001445486916641339011_);stroke-linecap:round;stroke-linejoin:round;}
	
		.st12{fill:none;stroke:url(#SVGID_00000152256348577369794860000017260773071240181695_);stroke-linecap:round;stroke-linejoin:round;stroke-dasharray:8,8;}
	
		.st13{fill:none;stroke:url(#SVGID_00000067941064907277230460000007812127342185154494_);stroke-linecap:round;stroke-linejoin:round;stroke-dasharray:8,8;}
	
		.st14{fill:none;stroke:url(#SVGID_00000178908713349802830910000002389875527321521598_);stroke-linecap:round;stroke-linejoin:round;}
	
		.st15{fill:none;stroke:url(#SVGID_00000000214467740973664540000003619357665367497348_);stroke-linecap:round;stroke-linejoin:round;stroke-dasharray:6,6;}
	
		.st16{fill:none;stroke:url(#SVGID_00000043421118710316737300000003634290810376683195_);stroke-linecap:round;stroke-linejoin:round;}
	.st17{opacity:0.5;}
	.st18{fill:#FFFFFF;}
	.st19{fill:#18C3FA;}
	.st20{fill:#FFFFFF;fill-opacity:0.7;}
	.st21{fill-rule:evenodd;clip-rule:evenodd;fill:#FFFFFF;fill-opacity:0.7;}
</style>
<g>
	<g>
		
			<radialGradient id="SVGID_1_" cx="-753.6696" cy="695.8856" r="1.0001" gradientTransform="matrix(-414.0016 -270.9975 -392.9565 600.3177 -38153.4375 -621723.9375)" gradientUnits="userSpaceOnUse">
			<stop  offset="0" style="stop-color:#FFFFFF;stop-opacity:0.25"/>
			<stop  offset="0.315" style="stop-color:#FFFFFF;stop-opacity:5.000000e-02"/>
		</radialGradient>
		<path class="st0" d="M4.6,0h404.8c2.5,0,4.6,2.1,4.6,4.6v261.8c0,2.5-2.1,4.6-4.6,4.6H4.6c-2.5,0-4.6-2.1-4.6-4.6V4.6
			C0,2.1,2.1,0,4.6,0z"/>
		<path class="st1" d="M4.6,0.5h404.8c2.3,0,4.1,1.8,4.1,4.1v261.8c0,2.3-1.8,4.1-4.1,4.1H4.6c-2.3,0-4.1-1.8-4.1-4.1V4.6
			C0.5,2.3,2.3,0.5,4.6,0.5z"/>
	</g>
	<path class="st2" d="M158.3,37h244.4c1.3,0,2.3,1,2.3,2.3v220.4c0,1.3-1,2.3-2.3,2.3H158.3c-1.3,0-2.3-1-2.3-2.3V39.3
		C156,38,157,37,158.3,37z"/>
	<path class="st1" d="M158.3,37.5h244.4c1,0,1.8,0.8,1.8,1.8v220.4c0,1-0.8,1.8-1.8,1.8H158.3c-1,0-1.8-0.8-1.8-1.8V39.3
		C156.5,38.3,157.3,37.5,158.3,37.5z"/>
	<circle class="st3" cx="14.2" cy="14.5" r="3.3"/>
	<circle class="st4" cx="14.2" cy="14.5" r="3.1"/>
	<circle class="st5" cx="25.3" cy="14.5" r="3.3"/>
	<circle class="st4" cx="25.3" cy="14.5" r="3.1"/>
	<circle class="st6" cx="36.5" cy="14.5" r="3.3"/>
	<circle class="st4" cx="36.5" cy="14.5" r="3.1"/>
	<path class="st7" d="M412.7,27.9H0"/>
	<path class="st7" d="M147,262V28"/>
	
		<linearGradient id="SVGID_00000078022361442451520540000001036121522591097997_" gradientUnits="userSpaceOnUse" x1="322.3348" y1="257.9485" x2="201.3428" y2="193.6404" gradientTransform="matrix(1 0 0 -1 0 312)">
		<stop  offset="0" style="stop-color:#3A64FA"/>
		<stop  offset="0.9427" style="stop-color:#F963BC"/>
	</linearGradient>
	
		<path style="fill:none;stroke:url(#SVGID_00000078022361442451520540000001036121522591097997_);stroke-linecap:round;stroke-linejoin:round;stroke-dasharray:8,8;" d="
		M221,75.5V118h42"/>
	
		<linearGradient id="SVGID_00000147193526913551823830000010877103144946737792_" gradientUnits="userSpaceOnUse" x1="316.5719" y1="244.1365" x2="199.4299" y2="182.6844" gradientTransform="matrix(1 0 0 -1 0 312)">
		<stop  offset="0" style="stop-color:#3A64FA"/>
		<stop  offset="0.9427" style="stop-color:#F963BC"/>
	</linearGradient>
	
		<path style="fill:none;stroke:url(#SVGID_00000147193526913551823830000010877103144946737792_);stroke-linecap:round;stroke-linejoin:round;" d="
		M244,95h-46v46h46V95z"/>
	
		<linearGradient id="SVGID_00000046303960507056958870000009525890018589481663_" gradientUnits="userSpaceOnUse" x1="265.3574" y1="226.0955" x2="236.9373" y2="166.7165" gradientTransform="matrix(1 0 0 -1 0 312)">
		<stop  offset="0" style="stop-color:#3A64FA"/>
		<stop  offset="0.9427" style="stop-color:#F963BC"/>
	</linearGradient>
	
		<path style="fill:none;stroke:url(#SVGID_00000046303960507056958870000009525890018589481663_);stroke-linecap:round;stroke-linejoin:round;" d="
		M244,95v46l23-23V72L244,95z"/>
	
		<linearGradient id="SVGID_00000013911668421550437950000009843072341994698938_" gradientUnits="userSpaceOnUse" x1="249.4767" y1="216.9836" x2="212.0798" y2="242.3523" gradientTransform="matrix(1 0 0 -1 0 312)">
		<stop  offset="0" style="stop-color:#3A64FA"/>
		<stop  offset="0.9427" style="stop-color:#F963BC"/>
	</linearGradient>
	
		<path style="fill:none;stroke:url(#SVGID_00000013911668421550437950000009843072341994698938_);stroke-linecap:round;stroke-linejoin:round;" d="
		M244,95h-46l23-23h46L244,95z"/>
	
		<linearGradient id="SVGID_00000181072579802165817670000005543961398615333783_" gradientUnits="userSpaceOnUse" x1="212.2544" y1="151.8947" x2="211.2874" y2="174.3297" gradientTransform="matrix(1 0 0 -1 0 312)">
		<stop  offset="0" style="stop-color:#3A64FA"/>
		<stop  offset="0.9427" style="stop-color:#F963BC"/>
	</linearGradient>
	
		<path style="fill:none;stroke:url(#SVGID_00000181072579802165817670000005543961398615333783_);stroke-linecap:round;stroke-linejoin:round;stroke-dasharray:8,8;" d="
		M201,138l19.7-20.1"/>
	
		<linearGradient id="SVGID_00000140703055985309885650000006110445327626692235_" gradientUnits="userSpaceOnUse" x1="343.7947" y1="232.2323" x2="216.6427" y2="142.2823" gradientTransform="matrix(1 0 0 -1 0 312)">
		<stop  offset="0" style="stop-color:#3A64FA"/>
		<stop  offset="0.9427" style="stop-color:#F963BC"/>
	</linearGradient>
	
		<path style="fill:none;stroke:url(#SVGID_00000140703055985309885650000006110445327626692235_);stroke-linecap:round;stroke-linejoin:round;stroke-dasharray:8,8;" d="
		M309,118h-38.5"/>
	
		<linearGradient id="SVGID_00000124883135725912175540000006677172008478423457_" gradientUnits="userSpaceOnUse" x1="371.0428" y1="209.7376" x2="243.5889" y2="132.2536" gradientTransform="matrix(1 0 0 -1 0 312)">
		<stop  offset="0" style="stop-color:#3A64FA"/>
		<stop  offset="0.9427" style="stop-color:#F963BC"/>
	</linearGradient>
	
		<path style="fill:none;stroke:url(#SVGID_00000124883135725912175540000006677172008478423457_);stroke-linecap:round;stroke-linejoin:round;" d="
		M312.4,139c-0.1,7.4,12,13.6,26.8,13.7c14.9,0.1,27-5.8,27.1-13.2l0.3-40.4c-0.1,7.4-12.2,13.4-27,13.2
		c-14.9-0.1-26.9-6.3-26.8-13.7L312.4,139L312.4,139z"/>
	
		<linearGradient id="SVGID_00000179634257939616835390000016658459119396552116_" gradientUnits="userSpaceOnUse" x1="349.9382" y1="187.2102" x2="251.1952" y2="99.2342" gradientTransform="matrix(1 0 0 -1 0 312)">
		<stop  offset="0" style="stop-color:#3A64FA"/>
		<stop  offset="0.9427" style="stop-color:#F963BC"/>
	</linearGradient>
	
		<path style="fill:none;stroke:url(#SVGID_00000179634257939616835390000016658459119396552116_);stroke-linecap:round;stroke-linejoin:round;stroke-dasharray:6,6;" d="
		M316.7,134.3c4-4.2,12.7-7.1,22.8-7.1c9.8,0.1,18.2,2.9,22.3,7.1"/>
	
		<linearGradient id="SVGID_00000065796034487095904560000017467800619203162543_" gradientUnits="userSpaceOnUse" x1="349.4892" y1="221.8683" x2="243.0481" y2="127.0533" gradientTransform="matrix(1 0 0 -1 0 312)">
		<stop  offset="0" style="stop-color:#3A64FA"/>
		<stop  offset="0.9427" style="stop-color:#F963BC"/>
	</linearGradient>
	
		<path style="fill:none;stroke:url(#SVGID_00000065796034487095904560000017467800619203162543_);stroke-linecap:round;stroke-linejoin:round;" d="
		M366.7,99.1c-0.1,7.4-12.2,13.4-27,13.2c-14.9-0.1-26.9-6.3-26.8-13.7c0.1-7.4,12.2-13.4,27.1-13.2
		C354.7,85.5,366.7,91.6,366.7,99.1z"/>
	<g class="st17">
		<path class="st5" d="M13.5,46.6c-0.2,0-0.4,0-0.6-0.1s-0.3-0.2-0.5-0.3s-0.2-0.3-0.3-0.5c-0.1-0.2-0.1-0.4-0.1-0.7s0-0.5,0.1-0.7
			c0.1-0.2,0.2-0.4,0.3-0.5c0.1-0.1,0.3-0.3,0.5-0.3s0.4-0.1,0.6-0.1c0.2,0,0.4,0,0.6,0.1c0.2,0.1,0.3,0.2,0.4,0.3
			c0.1,0.1,0.2,0.3,0.3,0.5c0.1,0.2,0.1,0.4,0.1,0.6v0.2h-2.2v0.1c0,0.2,0.1,0.4,0.2,0.6c0.2,0.2,0.4,0.2,0.6,0.2
			c0.2,0,0.4,0,0.5-0.1c0.1-0.1,0.3-0.2,0.3-0.3l0.4,0.4c-0.1,0.2-0.3,0.3-0.5,0.5C14,46.5,13.8,46.6,13.5,46.6z M13.4,43.8
			c-0.1,0-0.2,0-0.3,0.1c-0.1,0-0.2,0.1-0.3,0.2c-0.1,0.1-0.1,0.2-0.2,0.3c0,0.1-0.1,0.2-0.1,0.3v0h1.6v-0.1c0-0.2-0.1-0.4-0.2-0.6
			C13.8,43.9,13.6,43.8,13.4,43.8z M15.5,46.5l1.2-1.6l-1.1-1.5h0.8l0.4,0.6l0.3,0.5h0l0.3-0.5l0.4-0.6h0.7l-1.1,1.5l1.2,1.6h-0.8
			l-0.5-0.7L17,45.4h0l-0.3,0.5l-0.5,0.7H15.5z M19.3,43.4h0.7v0.5h0c0.1-0.2,0.2-0.3,0.4-0.4c0.2-0.1,0.3-0.2,0.6-0.2
			c0.4,0,0.7,0.1,0.9,0.4c0.2,0.3,0.3,0.7,0.3,1.2s-0.1,0.9-0.3,1.2c-0.2,0.3-0.5,0.4-0.9,0.4c-0.2,0-0.4-0.1-0.6-0.2
			c-0.2-0.1-0.3-0.3-0.4-0.4h0v1.7h-0.7V43.4z M20.6,46c0.2,0,0.4-0.1,0.6-0.2c0.1-0.2,0.2-0.4,0.2-0.6v-0.5c0-0.3-0.1-0.5-0.2-0.6
			c-0.1-0.2-0.3-0.2-0.6-0.2c-0.1,0-0.2,0-0.3,0c-0.1,0-0.2,0.1-0.2,0.1c-0.1,0-0.1,0.1-0.2,0.2c0,0.1-0.1,0.2-0.1,0.2v1
			c0,0.1,0,0.2,0.1,0.3c0,0.1,0.1,0.1,0.2,0.2s0.1,0.1,0.2,0.1C20.4,46,20.5,46,20.6,46z M24.2,46.6c-0.2,0-0.4,0-0.6-0.1
			c-0.2-0.1-0.3-0.2-0.5-0.3c-0.1-0.1-0.2-0.3-0.3-0.5s-0.1-0.4-0.1-0.7s0-0.5,0.1-0.7s0.2-0.4,0.3-0.5c0.1-0.1,0.3-0.2,0.5-0.3
			c0.2-0.1,0.4-0.1,0.6-0.1s0.4,0,0.6,0.1c0.2,0.1,0.3,0.2,0.5,0.3c0.1,0.1,0.2,0.3,0.3,0.5s0.1,0.4,0.1,0.7s0,0.5-0.1,0.7
			s-0.2,0.4-0.3,0.5c-0.1,0.1-0.3,0.2-0.5,0.3C24.6,46.5,24.4,46.6,24.2,46.6z M24.2,46c0.2,0,0.4-0.1,0.6-0.2
			c0.1-0.1,0.2-0.4,0.2-0.7v-0.5c0-0.3-0.1-0.5-0.2-0.6c-0.1-0.1-0.3-0.2-0.6-0.2c-0.2,0-0.4,0.1-0.6,0.2c-0.1,0.1-0.2,0.4-0.2,0.6
			v0.5c0,0.3,0.1,0.5,0.2,0.7C23.7,46,23.9,46,24.2,46z M26.4,46h0.8v-2h-0.8v-0.5h1.5v0.8h0c0-0.1,0.1-0.2,0.1-0.3
			c0.1-0.1,0.1-0.2,0.2-0.3c0.1-0.1,0.2-0.1,0.3-0.2c0.1,0,0.3-0.1,0.4-0.1h0.4V44h-0.6c-0.2,0-0.4,0.1-0.6,0.2
			c-0.2,0.1-0.2,0.3-0.2,0.6V46H29v0.5h-2.6V46z M31.6,46.5c-0.3,0-0.5-0.1-0.6-0.2c-0.1-0.1-0.2-0.3-0.2-0.6v-1.8h-1v-0.5h0.7
			c0.1,0,0.2,0,0.2-0.1c0,0,0.1-0.1,0.1-0.3v-0.8h0.6v1.1h1.3v0.5h-1.3v2h1.3v0.5H31.6z"/>
		<path class="st18" d="M104,46L104,46c-0.1,0.2-0.2,0.3-0.4,0.4c-0.2,0.1-0.3,0.2-0.6,0.2c-0.4,0-0.7-0.1-0.9-0.4
			c-0.2-0.3-0.3-0.7-0.3-1.2s0.1-0.9,0.3-1.2c0.2-0.3,0.5-0.4,0.9-0.4c0.2,0,0.4,0.1,0.6,0.2c0.2,0.1,0.3,0.2,0.4,0.4h0V42h0.7v4.4
			H104V46z M103.3,46c0.1,0,0.2,0,0.3,0c0.1,0,0.2-0.1,0.2-0.1s0.1-0.1,0.2-0.2c0-0.1,0.1-0.2,0.1-0.3v-1c0-0.1,0-0.2-0.1-0.2
			c0-0.1-0.1-0.1-0.2-0.2c-0.1,0-0.1-0.1-0.2-0.1c-0.1,0-0.2,0-0.3,0c-0.2,0-0.4,0.1-0.6,0.2c-0.1,0.2-0.2,0.4-0.2,0.6v0.5
			c0,0.3,0.1,0.5,0.2,0.6C102.9,45.9,103.1,46,103.3,46z M107,46.6c-0.2,0-0.4,0-0.6-0.1c-0.2-0.1-0.3-0.2-0.5-0.3
			c-0.1-0.1-0.2-0.3-0.3-0.5c-0.1-0.2-0.1-0.4-0.1-0.7s0-0.5,0.1-0.7c0.1-0.2,0.2-0.4,0.3-0.5c0.1-0.1,0.3-0.3,0.5-0.3
			s0.4-0.1,0.6-0.1c0.2,0,0.4,0,0.6,0.1c0.2,0.1,0.3,0.2,0.5,0.3c0.1,0.1,0.2,0.3,0.3,0.5c0.1,0.2,0.1,0.4,0.1,0.6v0.2h-2.2v0.1
			c0,0.2,0.1,0.4,0.2,0.6c0.2,0.2,0.4,0.2,0.6,0.2c0.2,0,0.4,0,0.5-0.1c0.1-0.1,0.3-0.2,0.3-0.3l0.4,0.4c-0.1,0.2-0.3,0.3-0.5,0.5
			C107.6,46.5,107.3,46.6,107,46.6z M106.9,43.8c-0.1,0-0.2,0-0.3,0.1c-0.1,0-0.2,0.1-0.3,0.2c-0.1,0.1-0.1,0.2-0.2,0.3
			c0,0.1-0.1,0.2-0.1,0.3v0h1.6v-0.1c0-0.2-0.1-0.4-0.2-0.6C107.4,43.9,107.2,43.8,106.9,43.8z M109.2,42h0.7v1.9h0
			c0.1-0.2,0.2-0.3,0.4-0.4c0.2-0.1,0.3-0.2,0.6-0.2c0.4,0,0.7,0.1,0.9,0.4c0.2,0.3,0.3,0.7,0.3,1.2s-0.1,0.9-0.3,1.2
			c-0.2,0.3-0.5,0.4-0.9,0.4c-0.2,0-0.4-0.1-0.6-0.2c-0.2-0.1-0.3-0.3-0.4-0.4h0v0.5h-0.7V42z M110.6,46c0.2,0,0.4-0.1,0.6-0.2
			c0.1-0.2,0.2-0.4,0.2-0.6v-0.5c0-0.3-0.1-0.5-0.2-0.6c-0.1-0.2-0.3-0.2-0.6-0.2c-0.1,0-0.2,0-0.3,0c-0.1,0-0.2,0.1-0.2,0.1
			c-0.1,0-0.1,0.1-0.2,0.2c0,0.1-0.1,0.2-0.1,0.2v1c0,0.1,0,0.2,0.1,0.3c0,0.1,0.1,0.1,0.2,0.2c0.1,0,0.1,0.1,0.2,0.1
			C110.4,46,110.5,46,110.6,46z M114.8,46L114.8,46c-0.1,0.1-0.1,0.2-0.2,0.2c0,0.1-0.1,0.1-0.2,0.2c-0.1,0.1-0.2,0.1-0.3,0.1
			c-0.1,0-0.2,0-0.3,0c-0.3,0-0.6-0.1-0.8-0.3c-0.2-0.2-0.3-0.5-0.3-0.9v-2h0.7v1.9c0,0.5,0.2,0.7,0.6,0.7c0.1,0,0.2,0,0.2,0
			c0.1,0,0.2-0.1,0.2-0.1c0.1,0,0.1-0.1,0.1-0.2c0-0.1,0.1-0.1,0.1-0.2v-2.1h0.7v3.1h-0.7V46z M119.3,46.8c0,0.3-0.1,0.6-0.4,0.7
			c-0.3,0.2-0.7,0.2-1.2,0.2c-0.3,0-0.5,0-0.7-0.1c-0.2,0-0.3-0.1-0.4-0.1c-0.1-0.1-0.2-0.1-0.2-0.2c0-0.1-0.1-0.2-0.1-0.3
			c0-0.2,0-0.3,0.1-0.4c0.1-0.1,0.2-0.2,0.4-0.2v-0.1c-0.1,0-0.2-0.1-0.3-0.2c-0.1-0.1-0.1-0.2-0.1-0.3c0-0.2,0.1-0.3,0.2-0.3
			c0.1-0.1,0.2-0.1,0.4-0.2v0c-0.2-0.1-0.3-0.2-0.4-0.4c-0.1-0.2-0.2-0.4-0.2-0.6c0-0.2,0-0.3,0.1-0.4c0.1-0.1,0.1-0.2,0.3-0.3
			c0.1-0.1,0.2-0.2,0.4-0.2c0.2-0.1,0.3-0.1,0.5-0.1c0.2,0,0.4,0,0.6,0.1v-0.1c0-0.1,0-0.2,0.1-0.3c0.1-0.1,0.2-0.1,0.3-0.1h0.6v0.5
			h-0.7v0.1c0.1,0.1,0.2,0.2,0.3,0.4c0.1,0.1,0.1,0.3,0.1,0.5c0,0.2,0,0.3-0.1,0.5c-0.1,0.1-0.1,0.2-0.3,0.3
			c-0.1,0.1-0.2,0.2-0.4,0.2c-0.2,0-0.3,0.1-0.5,0.1c-0.1,0-0.3,0-0.4,0c-0.1,0-0.1,0.1-0.2,0.1c-0.1,0-0.1,0.1-0.1,0.2
			c0,0.1,0,0.2,0.1,0.2c0.1,0,0.2,0,0.3,0h0.7c0.4,0,0.7,0.1,0.9,0.2C119.2,46.4,119.3,46.6,119.3,46.8z M118.7,46.9
			c0-0.1,0-0.2-0.1-0.3c-0.1-0.1-0.2-0.1-0.5-0.1h-1.1c-0.2,0.1-0.2,0.2-0.2,0.3c0,0.1,0,0.2,0.1,0.3c0.1,0.1,0.3,0.1,0.5,0.1h0.5
			c0.2,0,0.4,0,0.6-0.1C118.7,47.1,118.7,47,118.7,46.9z M117.7,45c0.2,0,0.4,0,0.5-0.2c0.1-0.1,0.1-0.2,0.1-0.4v-0.2
			c0-0.2,0-0.3-0.1-0.4c-0.1-0.1-0.3-0.1-0.5-0.1s-0.4,0-0.5,0.1c-0.1,0.1-0.1,0.2-0.1,0.4v0.2c0,0.2,0.1,0.3,0.1,0.4
			C117.3,45,117.5,45,117.7,45z M11.9,66.5v-3.1h0.6v0.4h0c0-0.1,0.1-0.2,0.2-0.3c0.1-0.1,0.2-0.1,0.4-0.1c0.2,0,0.3,0,0.4,0.1
			c0.1,0.1,0.1,0.2,0.2,0.4h0c0.1-0.1,0.1-0.3,0.2-0.4c0.1-0.1,0.2-0.1,0.4-0.1c0.2,0,0.4,0.1,0.5,0.3c0.1,0.2,0.1,0.4,0.1,0.7v2.2
			h-0.6v-2.1c0-0.2,0-0.4-0.1-0.4c-0.1-0.1-0.1-0.1-0.3-0.1c-0.1,0-0.2,0-0.3,0.1c-0.1,0.1-0.1,0.2-0.1,0.3v2.2h-0.6v-2.1
			c0-0.2,0-0.4-0.1-0.4c0-0.1-0.1-0.1-0.2-0.1c-0.1,0-0.2,0-0.3,0.1c-0.1,0.1-0.1,0.2-0.1,0.3v2.2H11.9z M17.1,66.6
			c-0.2,0-0.4,0-0.6-0.1c-0.2-0.1-0.3-0.2-0.5-0.3s-0.2-0.3-0.3-0.5c-0.1-0.2-0.1-0.4-0.1-0.7c0-0.2,0-0.5,0.1-0.7
			c0.1-0.2,0.2-0.4,0.3-0.5c0.1-0.1,0.3-0.3,0.5-0.3s0.4-0.1,0.6-0.1c0.2,0,0.4,0,0.6,0.1c0.2,0.1,0.3,0.2,0.5,0.3
			c0.1,0.1,0.2,0.3,0.3,0.5c0.1,0.2,0.1,0.4,0.1,0.6v0.2h-2.2v0.1c0,0.2,0.1,0.4,0.2,0.6c0.2,0.2,0.4,0.2,0.6,0.2
			c0.2,0,0.4,0,0.5-0.1c0.1-0.1,0.3-0.2,0.3-0.3l0.4,0.4c-0.1,0.2-0.3,0.3-0.5,0.5C17.6,66.5,17.4,66.6,17.1,66.6z M17,63.8
			c-0.1,0-0.2,0-0.3,0.1c-0.1,0-0.2,0.1-0.3,0.2c-0.1,0.1-0.1,0.2-0.2,0.3c0,0.1-0.1,0.2-0.1,0.3v0h1.6v-0.1c0-0.2-0.1-0.4-0.2-0.6
			C17.4,63.9,17.2,63.8,17,63.8z M19.2,66h1v-3.4h-1V62h1.7V66h1v0.5h-2.7V66z M24.4,66.5c-0.3,0-0.5-0.1-0.6-0.2
			c-0.1-0.1-0.2-0.3-0.2-0.6v-1.8h-1v-0.5h0.7c0.1,0,0.2,0,0.2-0.1c0,0,0.1-0.1,0.1-0.3v-0.8h0.6v1.1h1.3v0.5h-1.3v2h1.3v0.5H24.4z
			 M28.9,66.5c-0.2,0-0.3,0-0.4-0.1c-0.1-0.1-0.1-0.2-0.2-0.4h0c-0.1,0.2-0.2,0.3-0.3,0.4c-0.2,0.1-0.4,0.2-0.6,0.2
			c-0.3,0-0.6-0.1-0.8-0.2c-0.2-0.2-0.3-0.4-0.3-0.7c0-0.3,0.1-0.5,0.3-0.7c0.2-0.2,0.6-0.2,1-0.2h0.6v-0.2c0-0.4-0.2-0.6-0.7-0.6
			c-0.2,0-0.4,0-0.5,0.1c-0.1,0.1-0.2,0.2-0.3,0.3l-0.4-0.3c0.1-0.2,0.2-0.3,0.4-0.4c0.2-0.1,0.5-0.2,0.8-0.2c0.4,0,0.7,0.1,0.9,0.3
			c0.2,0.2,0.3,0.5,0.3,0.8V66h0.4v0.5H28.9z M27.6,66.1c0.2,0,0.4,0,0.5-0.1c0.1-0.1,0.2-0.2,0.2-0.4v-0.4h-0.6
			c-0.5,0-0.7,0.1-0.7,0.4v0.1c0,0.1,0,0.2,0.1,0.3C27.2,66,27.4,66.1,27.6,66.1z M30.1,66.5v-3.1h0.7v0.5h0c0-0.1,0.1-0.2,0.1-0.2
			c0.1-0.1,0.1-0.1,0.2-0.2c0.1-0.1,0.2-0.1,0.3-0.1c0.1,0,0.2,0,0.3,0c0.3,0,0.6,0.1,0.8,0.3c0.2,0.2,0.3,0.5,0.3,0.9v2H32v-1.9
			c0-0.5-0.2-0.7-0.6-0.7c-0.1,0-0.2,0-0.2,0c-0.1,0-0.2,0.1-0.2,0.1c-0.1,0-0.1,0.1-0.2,0.2c0,0.1-0.1,0.1-0.1,0.2v2.1H30.1z
			 M35,66.6c-0.2,0-0.4,0-0.6-0.1c-0.2-0.1-0.3-0.2-0.5-0.3c-0.1-0.1-0.2-0.3-0.3-0.5c-0.1-0.2-0.1-0.4-0.1-0.7s0-0.5,0.1-0.7
			c0.1-0.2,0.2-0.4,0.3-0.5c0.1-0.1,0.3-0.2,0.5-0.3c0.2-0.1,0.4-0.1,0.6-0.1s0.4,0,0.6,0.1c0.2,0.1,0.3,0.2,0.5,0.3
			c0.1,0.1,0.2,0.3,0.3,0.5c0.1,0.2,0.1,0.4,0.1,0.7s0,0.5-0.1,0.7c-0.1,0.2-0.2,0.4-0.3,0.5c-0.1,0.1-0.3,0.2-0.5,0.3
			C35.4,66.5,35.2,66.6,35,66.6z M35,66c0.2,0,0.4-0.1,0.6-0.2c0.1-0.1,0.2-0.4,0.2-0.7v-0.5c0-0.3-0.1-0.5-0.2-0.6
			c-0.1-0.1-0.3-0.2-0.6-0.2c-0.2,0-0.4,0.1-0.6,0.2c-0.1,0.1-0.2,0.4-0.2,0.6v0.5c0,0.3,0.1,0.5,0.2,0.7C34.5,66,34.7,66,35,66z
			 M40.8,66h0.8v-2h-0.8v-0.5h1.5v0.8h0c0-0.1,0.1-0.2,0.1-0.3c0.1-0.1,0.1-0.2,0.2-0.3c0.1-0.1,0.2-0.1,0.3-0.2
			c0.1,0,0.3-0.1,0.4-0.1h0.4V64h-0.6c-0.2,0-0.4,0.1-0.6,0.2c-0.2,0.1-0.2,0.3-0.2,0.6V66h1.1v0.5h-2.6V66z M46.4,66L46.4,66
			c-0.1,0.1-0.1,0.2-0.2,0.2c0,0.1-0.1,0.1-0.2,0.2c-0.1,0.1-0.2,0.1-0.3,0.1c-0.1,0-0.2,0-0.3,0c-0.3,0-0.6-0.1-0.8-0.3
			c-0.2-0.2-0.3-0.5-0.3-0.9v-2h0.7v1.9c0,0.5,0.2,0.7,0.6,0.7c0.1,0,0.2,0,0.2,0c0.1,0,0.2-0.1,0.2-0.1s0.1-0.1,0.2-0.2
			c0-0.1,0.1-0.1,0.1-0.2v-2.1h0.7v3.1h-0.7V66z M48.1,66.5v-3.1h0.7v0.5h0c0-0.1,0.1-0.2,0.1-0.2c0.1-0.1,0.1-0.1,0.2-0.2
			c0.1-0.1,0.2-0.1,0.3-0.1c0.1,0,0.2,0,0.3,0c0.3,0,0.6,0.1,0.8,0.3c0.2,0.2,0.3,0.5,0.3,0.9v2H50v-1.9c0-0.5-0.2-0.7-0.6-0.7
			c-0.1,0-0.2,0-0.2,0c-0.1,0-0.2,0.1-0.2,0.1c-0.1,0-0.1,0.1-0.2,0.2c0,0.1-0.1,0.1-0.1,0.2v2.1H48.1z M56.7,66.5
			c-0.3,0-0.5-0.1-0.6-0.2C56,66.1,56,65.9,56,65.7v-1.8h-1v-0.5h0.7c0.1,0,0.2,0,0.2-0.1c0,0,0.1-0.1,0.1-0.3v-0.8h0.6v1.1h1.3v0.5
			h-1.3v2h1.3v0.5H56.7z M61.3,66.5c-0.2,0-0.3,0-0.4-0.1c-0.1-0.1-0.1-0.2-0.2-0.4h0c-0.1,0.2-0.2,0.3-0.3,0.4
			c-0.2,0.1-0.4,0.2-0.6,0.2c-0.3,0-0.6-0.1-0.8-0.2c-0.2-0.2-0.3-0.4-0.3-0.7c0-0.3,0.1-0.5,0.3-0.7c0.2-0.2,0.6-0.2,1-0.2h0.6
			v-0.2c0-0.4-0.2-0.6-0.7-0.6c-0.2,0-0.4,0-0.5,0.1c-0.1,0.1-0.2,0.2-0.3,0.3l-0.4-0.3c0.1-0.2,0.2-0.3,0.4-0.4
			c0.2-0.1,0.5-0.2,0.8-0.2c0.4,0,0.7,0.1,0.9,0.3s0.3,0.5,0.3,0.8V66h0.4v0.5H61.3z M59.9,66.1c0.2,0,0.4,0,0.5-0.1
			s0.2-0.2,0.2-0.4v-0.4h-0.6c-0.5,0-0.7,0.1-0.7,0.4v0.1c0,0.1,0,0.2,0.1,0.3C59.6,66,59.8,66.1,59.9,66.1z M62.4,63.4h0.7v0.5h0
			c0.1-0.2,0.2-0.3,0.4-0.4c0.2-0.1,0.3-0.2,0.6-0.2c0.4,0,0.7,0.1,0.9,0.4c0.2,0.3,0.3,0.7,0.3,1.2s-0.1,0.9-0.3,1.2
			c-0.2,0.3-0.5,0.4-0.9,0.4c-0.2,0-0.4-0.1-0.6-0.2c-0.2-0.1-0.3-0.3-0.4-0.4h0v1.7h-0.7V63.4z M63.8,66c0.2,0,0.4-0.1,0.6-0.2
			c0.1-0.2,0.2-0.4,0.2-0.6v-0.5c0-0.3-0.1-0.5-0.2-0.6c-0.1-0.2-0.3-0.2-0.6-0.2c-0.1,0-0.2,0-0.3,0c-0.1,0-0.2,0.1-0.2,0.1
			c-0.1,0-0.1,0.1-0.2,0.2c0,0.1-0.1,0.2-0.1,0.2v1c0,0.1,0,0.2,0.1,0.3c0,0.1,0.1,0.1,0.2,0.2c0.1,0,0.1,0.1,0.2,0.1
			C63.6,66,63.7,66,63.8,66z M66.4,65v-0.7h1.8V65H66.4z M72.6,66.8c0,0.3-0.1,0.6-0.4,0.7c-0.3,0.2-0.7,0.2-1.2,0.2
			c-0.3,0-0.5,0-0.7-0.1c-0.2,0-0.3-0.1-0.4-0.1c-0.1-0.1-0.2-0.1-0.2-0.2c0-0.1-0.1-0.2-0.1-0.3c0-0.2,0-0.3,0.1-0.4
			c0.1-0.1,0.2-0.2,0.4-0.2v-0.1c-0.1,0-0.2-0.1-0.3-0.2c-0.1-0.1-0.1-0.2-0.1-0.3c0-0.2,0.1-0.3,0.2-0.3c0.1-0.1,0.2-0.1,0.4-0.2v0
			c-0.2-0.1-0.3-0.2-0.4-0.4c-0.1-0.2-0.2-0.4-0.2-0.6c0-0.2,0-0.3,0.1-0.4c0.1-0.1,0.1-0.2,0.3-0.3c0.1-0.1,0.2-0.2,0.4-0.2
			c0.2-0.1,0.3-0.1,0.5-0.1c0.2,0,0.4,0,0.6,0.1v-0.1c0-0.1,0-0.2,0.1-0.3c0.1-0.1,0.2-0.1,0.3-0.1h0.6v0.5h-0.7v0.1
			c0.1,0.1,0.2,0.2,0.3,0.4c0.1,0.1,0.1,0.3,0.1,0.5c0,0.2,0,0.3-0.1,0.4C72,65,72,65.1,71.8,65.2c-0.1,0.1-0.2,0.2-0.4,0.2
			c-0.2,0-0.3,0.1-0.5,0.1c-0.1,0-0.3,0-0.4,0c-0.1,0-0.1,0.1-0.2,0.1c-0.1,0-0.1,0.1-0.1,0.2c0,0.1,0,0.2,0.1,0.2
			c0.1,0,0.2,0,0.3,0h0.7c0.4,0,0.7,0.1,0.9,0.2C72.5,66.4,72.6,66.6,72.6,66.8z M72,66.9c0-0.1,0-0.2-0.1-0.3
			c-0.1-0.1-0.2-0.1-0.5-0.1h-1.1c-0.2,0.1-0.2,0.2-0.2,0.3c0,0.1,0,0.2,0.1,0.3c0.1,0.1,0.3,0.1,0.5,0.1h0.5c0.2,0,0.4,0,0.6-0.1
			C71.9,67.1,72,67,72,66.9z M70.9,65c0.2,0,0.4-0.1,0.5-0.2s0.2-0.2,0.2-0.4v-0.2c0-0.2-0.1-0.3-0.2-0.4c-0.1-0.1-0.3-0.1-0.5-0.1
			s-0.4,0-0.5,0.1c-0.1,0.1-0.1,0.2-0.1,0.4v0.2c0,0.2,0,0.3,0.1,0.4C70.6,65,70.7,65,70.9,65z M74.7,62.8c-0.2,0-0.3,0-0.4-0.1
			c-0.1-0.1-0.1-0.2-0.1-0.3v-0.1c0-0.1,0-0.2,0.1-0.3c0.1-0.1,0.2-0.1,0.3-0.1c0.2,0,0.3,0,0.3,0.1c0.1,0.1,0.1,0.2,0.1,0.3v0.1
			c0,0.1,0,0.2-0.1,0.3C75,62.8,74.9,62.8,74.7,62.8z M73.4,66h1.1v-2h-1.1v-0.5h1.7V66h1v0.5h-2.7V66z M78.3,66.5
			c-0.3,0-0.5-0.1-0.6-0.2c-0.1-0.1-0.2-0.3-0.2-0.6v-1.8h-1v-0.5h0.7c0.1,0,0.2,0,0.2-0.1c0,0,0.1-0.1,0.1-0.3v-0.8h0.6v1.1h1.3
			v0.5h-1.3v2h1.3v0.5H78.3z M80.4,62h0.7v1.9h0c0-0.1,0.1-0.2,0.1-0.2c0.1-0.1,0.1-0.1,0.2-0.2c0.1-0.1,0.2-0.1,0.3-0.1
			c0.1,0,0.2,0,0.3,0c0.3,0,0.6,0.1,0.8,0.3c0.2,0.2,0.3,0.5,0.3,0.9v2h-0.7v-1.9c0-0.5-0.2-0.7-0.6-0.7c-0.1,0-0.2,0-0.2,0
			c-0.1,0-0.2,0.1-0.2,0.1c-0.1,0-0.1,0.1-0.2,0.2c0,0.1-0.1,0.1-0.1,0.2v2.1h-0.7V62z M86,66L86,66c-0.1,0.1-0.1,0.2-0.2,0.2
			c0,0.1-0.1,0.1-0.2,0.2c-0.1,0.1-0.2,0.1-0.3,0.1c-0.1,0-0.2,0-0.3,0c-0.3,0-0.6-0.1-0.8-0.3C84.1,66,84,65.8,84,65.4v-2h0.7v1.9
			c0,0.5,0.2,0.7,0.6,0.7c0.1,0,0.2,0,0.2,0c0.1,0,0.2-0.1,0.2-0.1c0.1,0,0.1-0.1,0.1-0.2c0-0.1,0.1-0.1,0.1-0.2v-2.1h0.7v3.1H86V66
			z M87.6,62h0.7v1.9h0c0.1-0.2,0.2-0.3,0.4-0.4c0.2-0.1,0.3-0.2,0.6-0.2c0.4,0,0.7,0.1,0.9,0.4c0.2,0.3,0.3,0.7,0.3,1.2
			s-0.1,0.9-0.3,1.2c-0.2,0.3-0.5,0.4-0.9,0.4c-0.2,0-0.4-0.1-0.6-0.2c-0.2-0.1-0.3-0.3-0.4-0.4h0v0.5h-0.7V62z M89,66
			c0.2,0,0.4-0.1,0.6-0.2c0.1-0.2,0.2-0.4,0.2-0.6v-0.5c0-0.3-0.1-0.5-0.2-0.6c-0.1-0.2-0.3-0.2-0.6-0.2c-0.1,0-0.2,0-0.3,0
			c-0.1,0-0.2,0.1-0.2,0.1c-0.1,0-0.1,0.1-0.2,0.2c0,0.1-0.1,0.2-0.1,0.2v1c0,0.1,0,0.2,0.1,0.3c0,0.1,0.1,0.1,0.2,0.2
			c0.1,0,0.1,0.1,0.2,0.1C88.8,66,88.9,66,89,66z M96.3,66.5c-0.3,0-0.5-0.1-0.6-0.2c-0.1-0.1-0.2-0.3-0.2-0.6v-1.8h-1v-0.5h0.7
			c0.1,0,0.2,0,0.2-0.1c0,0,0.1-0.1,0.1-0.3v-0.8h0.6v1.1h1.3v0.5h-1.3v2h1.3v0.5H96.3z M100.9,66.5c-0.2,0-0.3,0-0.4-0.1
			c-0.1-0.1-0.1-0.2-0.2-0.4h0c-0.1,0.2-0.2,0.3-0.3,0.4c-0.2,0.1-0.4,0.2-0.6,0.2c-0.3,0-0.6-0.1-0.8-0.2c-0.2-0.2-0.3-0.4-0.3-0.7
			c0-0.3,0.1-0.5,0.3-0.7c0.2-0.2,0.6-0.2,1-0.2h0.6v-0.2c0-0.4-0.2-0.6-0.7-0.6c-0.2,0-0.4,0-0.5,0.1c-0.1,0.1-0.2,0.2-0.3,0.3
			l-0.4-0.3c0.1-0.2,0.2-0.3,0.4-0.4c0.2-0.1,0.5-0.2,0.8-0.2c0.4,0,0.7,0.1,0.9,0.3s0.3,0.5,0.3,0.8V66h0.4v0.5H100.9z M99.5,66.1
			c0.2,0,0.4,0,0.5-0.1s0.2-0.2,0.2-0.4v-0.4h-0.6c-0.5,0-0.7,0.1-0.7,0.4v0.1c0,0.1,0,0.2,0.1,0.3C99.2,66,99.3,66.1,99.5,66.1z
			 M102,66h0.8v-2H102v-0.5h1.5v0.8h0c0-0.1,0.1-0.2,0.1-0.3c0.1-0.1,0.1-0.2,0.2-0.3c0.1-0.1,0.2-0.1,0.3-0.2
			c0.1,0,0.3-0.1,0.4-0.1h0.4V64h-0.6c-0.2,0-0.4,0.1-0.6,0.2c-0.2,0.1-0.2,0.3-0.2,0.6V66h1.1v0.5H102V66z M108.5,66.8
			c0,0.3-0.1,0.6-0.4,0.7c-0.3,0.2-0.7,0.2-1.2,0.2c-0.3,0-0.5,0-0.7-0.1c-0.2,0-0.3-0.1-0.4-0.1c-0.1-0.1-0.2-0.1-0.2-0.2
			c0-0.1-0.1-0.2-0.1-0.3c0-0.2,0-0.3,0.1-0.4c0.1-0.1,0.2-0.2,0.4-0.2v-0.1c-0.1,0-0.2-0.1-0.3-0.2c-0.1-0.1-0.1-0.2-0.1-0.3
			c0-0.2,0.1-0.3,0.2-0.3c0.1-0.1,0.2-0.1,0.4-0.2v0c-0.2-0.1-0.3-0.2-0.4-0.4c-0.1-0.2-0.2-0.4-0.2-0.6c0-0.2,0-0.3,0.1-0.4
			c0.1-0.1,0.1-0.2,0.3-0.3c0.1-0.1,0.2-0.2,0.4-0.2c0.2-0.1,0.3-0.1,0.5-0.1c0.2,0,0.4,0,0.6,0.1v-0.1c0-0.1,0-0.2,0.1-0.3
			c0.1-0.1,0.2-0.1,0.3-0.1h0.6v0.5h-0.7v0.1c0.1,0.1,0.2,0.2,0.3,0.4c0.1,0.1,0.1,0.3,0.1,0.5c0,0.2,0,0.3-0.1,0.4
			c-0.1,0.1-0.1,0.2-0.3,0.3c-0.1,0.1-0.2,0.2-0.4,0.2c-0.2,0-0.3,0.1-0.5,0.1c-0.1,0-0.3,0-0.4,0c-0.1,0-0.1,0.1-0.2,0.1
			c-0.1,0-0.1,0.1-0.1,0.2c0,0.1,0,0.2,0.1,0.2c0.1,0,0.2,0,0.3,0h0.7c0.4,0,0.7,0.1,0.9,0.2C108.5,66.4,108.5,66.6,108.5,66.8z
			 M107.9,66.9c0-0.1,0-0.2-0.1-0.3c-0.1-0.1-0.2-0.1-0.5-0.1h-1.1c-0.2,0.1-0.2,0.2-0.2,0.3c0,0.1,0,0.2,0.1,0.3
			c0.1,0.1,0.3,0.1,0.5,0.1h0.5c0.2,0,0.4,0,0.6-0.1C107.9,67.1,107.9,67,107.9,66.9z M106.9,65c0.2,0,0.4-0.1,0.5-0.2
			s0.2-0.2,0.2-0.4v-0.2c0-0.2-0.1-0.3-0.2-0.4c-0.1-0.1-0.3-0.1-0.5-0.1s-0.4,0-0.5,0.1c-0.1,0.1-0.1,0.2-0.1,0.4v0.2
			c0,0.2,0,0.3,0.1,0.4C106.5,65,106.7,65,106.9,65z M110.6,66.6c-0.2,0-0.4,0-0.6-0.1c-0.2-0.1-0.3-0.2-0.5-0.3
			c-0.1-0.1-0.2-0.3-0.3-0.5c-0.1-0.2-0.1-0.4-0.1-0.7c0-0.2,0-0.5,0.1-0.7c0.1-0.2,0.2-0.4,0.3-0.5c0.1-0.1,0.3-0.3,0.5-0.3
			s0.4-0.1,0.6-0.1c0.2,0,0.4,0,0.6,0.1c0.2,0.1,0.3,0.2,0.5,0.3c0.1,0.1,0.2,0.3,0.3,0.5c0.1,0.2,0.1,0.4,0.1,0.6v0.2h-2.2v0.1
			c0,0.2,0.1,0.4,0.2,0.6c0.2,0.2,0.4,0.2,0.6,0.2c0.2,0,0.4,0,0.5-0.1c0.1-0.1,0.3-0.2,0.3-0.3l0.4,0.4c-0.1,0.2-0.3,0.3-0.5,0.5
			C111.2,66.5,110.9,66.6,110.6,66.6z M110.5,63.8c-0.1,0-0.2,0-0.3,0.1c-0.1,0-0.2,0.1-0.3,0.2c-0.1,0.1-0.1,0.2-0.2,0.3
			c0,0.1-0.1,0.2-0.1,0.3v0h1.6v-0.1c0-0.2-0.1-0.4-0.2-0.6C111,63.9,110.8,63.8,110.5,63.8z M114.3,66.5c-0.3,0-0.5-0.1-0.6-0.2
			c-0.1-0.1-0.2-0.3-0.2-0.6v-1.8h-1v-0.5h0.7c0.1,0,0.2,0,0.2-0.1c0,0,0.1-0.1,0.1-0.3v-0.8h0.6v1.1h1.3v0.5h-1.3v2h1.3v0.5H114.3z
			 M116.8,65v-0.7h1.8V65H116.8z M14.1,76L14.1,76c-0.1,0.2-0.2,0.3-0.4,0.4c-0.2,0.1-0.3,0.2-0.6,0.2c-0.4,0-0.7-0.1-0.9-0.4
			c-0.2-0.3-0.3-0.7-0.3-1.2s0.1-0.9,0.3-1.2c0.2-0.3,0.5-0.4,0.9-0.4c0.2,0,0.4,0.1,0.6,0.2c0.2,0.1,0.3,0.2,0.4,0.4h0V72h0.7v4.4
			h-0.7V76z M13.4,76c0.1,0,0.2,0,0.3,0c0.1,0,0.2-0.1,0.2-0.1c0.1,0,0.1-0.1,0.2-0.2c0-0.1,0.1-0.2,0.1-0.3v-1c0-0.1,0-0.2-0.1-0.2
			c0-0.1-0.1-0.1-0.2-0.2c-0.1,0-0.1-0.1-0.2-0.1c-0.1,0-0.2,0-0.3,0c-0.2,0-0.4,0.1-0.6,0.2c-0.1,0.2-0.2,0.4-0.2,0.6v0.5
			c0,0.3,0.1,0.5,0.2,0.6C12.9,75.9,13.1,76,13.4,76z M17.6,76L17.6,76c-0.1,0.1-0.1,0.2-0.2,0.2c0,0.1-0.1,0.1-0.2,0.2
			c-0.1,0.1-0.2,0.1-0.3,0.1c-0.1,0-0.2,0-0.3,0c-0.3,0-0.6-0.1-0.8-0.3c-0.2-0.2-0.3-0.5-0.3-0.9v-2h0.7v1.9c0,0.5,0.2,0.7,0.6,0.7
			c0.1,0,0.2,0,0.2,0c0.1,0,0.2-0.1,0.2-0.1s0.1-0.1,0.2-0.2c0-0.1,0.1-0.1,0.1-0.2v-2.1h0.7v3.1h-0.7V76z M20.7,76.6
			c-0.2,0-0.4,0-0.6-0.1c-0.2-0.1-0.3-0.2-0.5-0.3c-0.1-0.1-0.2-0.3-0.3-0.5c-0.1-0.2-0.1-0.4-0.1-0.7s0-0.5,0.1-0.7
			c0.1-0.2,0.2-0.4,0.3-0.5c0.1-0.1,0.3-0.2,0.5-0.3c0.2-0.1,0.4-0.1,0.6-0.1c0.3,0,0.6,0.1,0.8,0.2c0.2,0.1,0.3,0.3,0.4,0.5
			l-0.5,0.3c-0.1-0.1-0.1-0.3-0.3-0.3c-0.1-0.1-0.3-0.1-0.4-0.1c-0.2,0-0.4,0.1-0.6,0.2c-0.1,0.1-0.2,0.3-0.2,0.6v0.5
			c0,0.2,0.1,0.4,0.2,0.6s0.3,0.2,0.6,0.2c0.2,0,0.3,0,0.5-0.1c0.1-0.1,0.2-0.2,0.3-0.4l0.5,0.3c-0.1,0.2-0.3,0.4-0.5,0.5
			C21.3,76.5,21,76.6,20.7,76.6z M22.9,72h0.7v2.7h0l0.5-0.5l0.9-0.8h0.8l-1.3,1.2l1.4,1.9h-0.8L24,75l-0.4,0.4v1.1h-0.7V72z
			 M28.5,76L28.5,76c-0.1,0.2-0.2,0.3-0.4,0.4c-0.2,0.1-0.3,0.2-0.6,0.2c-0.4,0-0.7-0.1-0.9-0.4c-0.2-0.3-0.3-0.7-0.3-1.2
			s0.1-0.9,0.3-1.2c0.2-0.3,0.5-0.4,0.9-0.4c0.2,0,0.4,0.1,0.6,0.2c0.2,0.1,0.3,0.2,0.4,0.4h0V72h0.7v4.4h-0.7V76z M27.7,76
			c0.1,0,0.2,0,0.3,0c0.1,0,0.2-0.1,0.2-0.1c0.1,0,0.1-0.1,0.1-0.2c0-0.1,0.1-0.2,0.1-0.3v-1c0-0.1,0-0.2-0.1-0.2
			c0-0.1-0.1-0.1-0.1-0.2c-0.1,0-0.1-0.1-0.2-0.1c-0.1,0-0.2,0-0.3,0c-0.2,0-0.4,0.1-0.6,0.2C27,74.2,27,74.4,27,74.7v0.5
			c0,0.3,0.1,0.5,0.2,0.6C27.3,75.9,27.5,76,27.7,76z M30.1,72h0.7v1.9h0c0.1-0.2,0.2-0.3,0.4-0.4c0.2-0.1,0.3-0.2,0.6-0.2
			c0.4,0,0.7,0.1,0.9,0.4c0.2,0.3,0.3,0.7,0.3,1.2s-0.1,0.9-0.3,1.2c-0.2,0.3-0.5,0.4-0.9,0.4c-0.2,0-0.4-0.1-0.6-0.2
			c-0.2-0.1-0.3-0.3-0.4-0.4h0v0.5h-0.7V72z M31.4,76c0.2,0,0.4-0.1,0.6-0.2c0.1-0.2,0.2-0.4,0.2-0.6v-0.5c0-0.3-0.1-0.5-0.2-0.6
			c-0.1-0.2-0.3-0.2-0.6-0.2c-0.1,0-0.2,0-0.3,0c-0.1,0-0.2,0.1-0.2,0.1c-0.1,0-0.1,0.1-0.2,0.2c0,0.1-0.1,0.2-0.1,0.2v1
			c0,0.1,0,0.2,0.1,0.3c0,0.1,0.1,0.1,0.2,0.2c0.1,0,0.1,0.1,0.2,0.1C31.2,76,31.3,76,31.4,76z M11.9,96.5v-3.1h0.6v0.4h0
			c0-0.1,0.1-0.2,0.2-0.3c0.1-0.1,0.2-0.1,0.4-0.1c0.2,0,0.3,0,0.4,0.1c0.1,0.1,0.1,0.2,0.2,0.4h0c0.1-0.1,0.1-0.3,0.2-0.4
			c0.1-0.1,0.2-0.2,0.4-0.2c0.2,0,0.4,0.1,0.5,0.3c0.1,0.2,0.1,0.4,0.1,0.7v2.2h-0.6v-2.1c0-0.2,0-0.4-0.1-0.4
			c-0.1-0.1-0.1-0.1-0.3-0.1c-0.1,0-0.2,0-0.3,0.1c-0.1,0.1-0.1,0.2-0.1,0.3v2.2h-0.6v-2.1c0-0.2,0-0.4-0.1-0.4
			c0-0.1-0.1-0.1-0.2-0.1c-0.1,0-0.2,0-0.3,0.1c-0.1,0.1-0.1,0.2-0.1,0.3v2.2H11.9z M17.1,96.6c-0.2,0-0.4,0-0.6-0.1
			c-0.2-0.1-0.3-0.2-0.5-0.3s-0.2-0.3-0.3-0.5c-0.1-0.2-0.1-0.4-0.1-0.7c0-0.2,0-0.5,0.1-0.7c0.1-0.2,0.2-0.4,0.3-0.5
			c0.1-0.1,0.3-0.3,0.5-0.3c0.2-0.1,0.4-0.1,0.6-0.1c0.2,0,0.4,0,0.6,0.1c0.2,0.1,0.3,0.2,0.5,0.3s0.2,0.3,0.3,0.5
			c0.1,0.2,0.1,0.4,0.1,0.6v0.2h-2.2v0.1c0,0.2,0.1,0.4,0.2,0.6c0.2,0.2,0.4,0.2,0.6,0.2c0.2,0,0.4,0,0.5-0.1
			c0.1-0.1,0.3-0.2,0.3-0.3l0.4,0.4c-0.1,0.2-0.3,0.3-0.5,0.5C17.6,96.5,17.4,96.6,17.1,96.6z M17,93.8c-0.1,0-0.2,0-0.3,0.1
			c-0.1,0-0.2,0.1-0.3,0.2c-0.1,0.1-0.1,0.2-0.2,0.3c0,0.1-0.1,0.2-0.1,0.3v0h1.6v-0.1c0-0.2-0.1-0.4-0.2-0.6
			C17.4,93.9,17.2,93.8,17,93.8z M19.2,96h1v-3.4h-1V92h1.7V96h1v0.5h-2.7V96z M24.4,96.5c-0.3,0-0.5-0.1-0.6-0.2
			c-0.1-0.1-0.2-0.3-0.2-0.6v-1.8h-1v-0.5h0.7c0.1,0,0.2,0,0.2-0.1c0,0,0.1-0.1,0.1-0.3v-0.8h0.6v1.1h1.3v0.5h-1.3v2h1.3v0.5H24.4z
			 M28.9,96.5c-0.2,0-0.3,0-0.4-0.1c-0.1-0.1-0.1-0.2-0.2-0.4h0c-0.1,0.2-0.2,0.3-0.3,0.4c-0.2,0.1-0.4,0.2-0.6,0.2
			c-0.3,0-0.6-0.1-0.8-0.2c-0.2-0.2-0.3-0.4-0.3-0.7c0-0.3,0.1-0.5,0.3-0.7c0.2-0.2,0.6-0.2,1-0.2h0.6v-0.2c0-0.4-0.2-0.6-0.7-0.6
			c-0.2,0-0.4,0-0.5,0.1c-0.1,0.1-0.2,0.2-0.3,0.3l-0.4-0.3c0.1-0.2,0.2-0.3,0.4-0.4c0.2-0.1,0.5-0.2,0.8-0.2c0.4,0,0.7,0.1,0.9,0.3
			c0.2,0.2,0.3,0.5,0.3,0.8V96h0.4v0.5H28.9z M27.6,96.1c0.2,0,0.4,0,0.5-0.1c0.1-0.1,0.2-0.2,0.2-0.4v-0.4h-0.6
			c-0.5,0-0.7,0.1-0.7,0.4v0.1c0,0.1,0,0.2,0.1,0.3C27.2,96,27.4,96.1,27.6,96.1z M30.1,96.5v-3.1h0.7v0.5h0c0-0.1,0.1-0.2,0.1-0.2
			c0.1-0.1,0.1-0.1,0.2-0.2c0.1-0.1,0.2-0.1,0.3-0.1s0.2,0,0.3,0c0.3,0,0.6,0.1,0.8,0.3c0.2,0.2,0.3,0.5,0.3,0.9v2H32v-1.9
			c0-0.5-0.2-0.7-0.6-0.7c-0.1,0-0.2,0-0.2,0c-0.1,0-0.2,0.1-0.2,0.1c-0.1,0-0.1,0.1-0.2,0.2c0,0.1-0.1,0.1-0.1,0.2v2.1H30.1z
			 M35,96.6c-0.2,0-0.4,0-0.6-0.1c-0.2-0.1-0.3-0.2-0.5-0.3c-0.1-0.1-0.2-0.3-0.3-0.5c-0.1-0.2-0.1-0.4-0.1-0.7s0-0.5,0.1-0.7
			c0.1-0.2,0.2-0.4,0.3-0.5c0.1-0.1,0.3-0.2,0.5-0.3c0.2-0.1,0.4-0.1,0.6-0.1s0.4,0,0.6,0.1c0.2,0.1,0.3,0.2,0.5,0.3
			c0.1,0.1,0.2,0.3,0.3,0.5c0.1,0.2,0.1,0.4,0.1,0.7s0,0.5-0.1,0.7c-0.1,0.2-0.2,0.4-0.3,0.5c-0.1,0.1-0.3,0.2-0.5,0.3
			C35.4,96.5,35.2,96.6,35,96.6z M35,96c0.2,0,0.4-0.1,0.6-0.2c0.1-0.1,0.2-0.4,0.2-0.7v-0.5c0-0.3-0.1-0.5-0.2-0.6
			c-0.1-0.1-0.3-0.2-0.6-0.2c-0.2,0-0.4,0.1-0.6,0.2c-0.1,0.1-0.2,0.4-0.2,0.6v0.5c0,0.3,0.1,0.5,0.2,0.7C34.5,96,34.7,96,35,96z
			 M40.8,96h1v-3.4h-1V92h1.7V96h1v0.5h-2.7V96z M45.8,96.6c-0.2,0-0.4,0-0.6-0.1c-0.2-0.1-0.3-0.2-0.5-0.3
			c-0.1-0.1-0.2-0.3-0.3-0.5c-0.1-0.2-0.1-0.4-0.1-0.7s0-0.5,0.1-0.7c0.1-0.2,0.2-0.4,0.3-0.5c0.1-0.1,0.3-0.2,0.5-0.3
			c0.2-0.1,0.4-0.1,0.6-0.1s0.4,0,0.6,0.1c0.2,0.1,0.3,0.2,0.5,0.3c0.1,0.1,0.2,0.3,0.3,0.5c0.1,0.2,0.1,0.4,0.1,0.7s0,0.5-0.1,0.7
			c-0.1,0.2-0.2,0.4-0.3,0.5c-0.1,0.1-0.3,0.2-0.5,0.3C46.2,96.5,46,96.6,45.8,96.6z M45.8,96c0.2,0,0.4-0.1,0.6-0.2
			c0.1-0.1,0.2-0.4,0.2-0.7v-0.5c0-0.3-0.1-0.5-0.2-0.6c-0.1-0.1-0.3-0.2-0.6-0.2s-0.4,0.1-0.6,0.2c-0.1,0.1-0.2,0.4-0.2,0.6v0.5
			c0,0.3,0.1,0.5,0.2,0.7C45.3,96,45.5,96,45.8,96z M51,96.8c0,0.3-0.1,0.6-0.4,0.7c-0.3,0.2-0.7,0.2-1.2,0.2c-0.3,0-0.5,0-0.7-0.1
			c-0.2,0-0.3-0.1-0.4-0.1c-0.1-0.1-0.2-0.1-0.2-0.2c0-0.1-0.1-0.2-0.1-0.3c0-0.2,0-0.3,0.1-0.4c0.1-0.1,0.2-0.2,0.4-0.2v-0.1
			c-0.1,0-0.2-0.1-0.3-0.2c-0.1-0.1-0.1-0.2-0.1-0.3c0-0.2,0.1-0.3,0.2-0.3c0.1-0.1,0.2-0.1,0.4-0.2v0c-0.2-0.1-0.3-0.2-0.4-0.4
			c-0.1-0.2-0.2-0.4-0.2-0.6c0-0.2,0-0.3,0.1-0.4c0.1-0.1,0.1-0.2,0.3-0.3c0.1-0.1,0.2-0.2,0.4-0.2c0.2-0.1,0.3-0.1,0.5-0.1
			c0.2,0,0.4,0,0.6,0.1v-0.1c0-0.1,0-0.2,0.1-0.3s0.2-0.1,0.3-0.1h0.6v0.5h-0.7v0.1c0.1,0.1,0.2,0.2,0.3,0.4
			c0.1,0.1,0.1,0.3,0.1,0.5c0,0.2,0,0.3-0.1,0.4c-0.1,0.1-0.1,0.2-0.3,0.3c-0.1,0.1-0.2,0.2-0.4,0.2c-0.2,0-0.3,0.1-0.5,0.1
			c-0.1,0-0.3,0-0.4,0c-0.1,0-0.1,0.1-0.2,0.1c-0.1,0-0.1,0.1-0.1,0.2c0,0.1,0,0.2,0.1,0.2c0.1,0,0.2,0,0.3,0h0.7
			c0.4,0,0.7,0.1,0.9,0.2C50.9,96.4,51,96.6,51,96.8z M50.4,96.9c0-0.1,0-0.2-0.1-0.3c-0.1-0.1-0.2-0.1-0.5-0.1h-1.1
			c-0.2,0.1-0.2,0.2-0.2,0.3c0,0.1,0,0.2,0.1,0.3c0.1,0.1,0.3,0.1,0.5,0.1h0.5c0.2,0,0.4,0,0.6-0.1C50.3,97.1,50.4,97,50.4,96.9z
			 M49.3,95c0.2,0,0.4-0.1,0.5-0.2s0.2-0.2,0.2-0.4v-0.2c0-0.2-0.1-0.3-0.2-0.4c-0.1-0.1-0.3-0.2-0.5-0.2s-0.4,0-0.5,0.2
			c-0.1,0.1-0.1,0.2-0.1,0.4v0.2c0,0.2,0,0.3,0.1,0.4C49,95,49.1,95,49.3,95z M53,96.6c-0.3,0-0.6-0.1-0.9-0.2
			c-0.2-0.1-0.4-0.3-0.6-0.4l0.4-0.4c0.1,0.1,0.3,0.3,0.5,0.3c0.2,0.1,0.4,0.1,0.6,0.1c0.2,0,0.4,0,0.5-0.1c0.1-0.1,0.2-0.2,0.2-0.3
			c0-0.1,0-0.1,0-0.2s-0.1-0.1-0.1-0.1s-0.1,0-0.2-0.1c-0.1,0-0.1,0-0.2,0l-0.5-0.1c-0.1,0-0.2,0-0.4-0.1c-0.1,0-0.2-0.1-0.3-0.2
			c-0.1-0.1-0.2-0.2-0.2-0.3c-0.1-0.1-0.1-0.2-0.1-0.4c0-0.3,0.1-0.6,0.4-0.7c0.2-0.2,0.6-0.2,1-0.2c0.3,0,0.5,0,0.7,0.1
			c0.2,0.1,0.4,0.2,0.5,0.4l-0.4,0.4c-0.1-0.1-0.2-0.2-0.3-0.3c-0.1-0.1-0.3-0.1-0.6-0.1c-0.4,0-0.7,0.1-0.7,0.4
			c0,0.1,0,0.2,0.1,0.3c0.1,0,0.2,0.1,0.3,0.1l0.5,0.1c0.1,0,0.2,0,0.4,0.1c0.1,0,0.2,0.1,0.3,0.2c0.1,0.1,0.2,0.1,0.2,0.3
			c0.1,0.1,0.1,0.2,0.1,0.4c0,0.3-0.1,0.6-0.4,0.7C53.7,96.5,53.4,96.6,53,96.6z M61.8,96.8c0,0.3-0.1,0.6-0.4,0.7
			c-0.3,0.2-0.7,0.2-1.2,0.2c-0.3,0-0.5,0-0.7-0.1c-0.2,0-0.3-0.1-0.4-0.1c-0.1-0.1-0.2-0.1-0.2-0.2c0-0.1-0.1-0.2-0.1-0.3
			c0-0.2,0-0.3,0.1-0.4c0.1-0.1,0.2-0.2,0.4-0.2v-0.1c-0.1,0-0.2-0.1-0.3-0.2c-0.1-0.1-0.1-0.2-0.1-0.3c0-0.2,0.1-0.3,0.2-0.3
			c0.1-0.1,0.2-0.1,0.4-0.2v0c-0.2-0.1-0.3-0.2-0.4-0.4c-0.1-0.2-0.2-0.4-0.2-0.6c0-0.2,0-0.3,0.1-0.4c0.1-0.1,0.1-0.2,0.3-0.3
			c0.1-0.1,0.2-0.2,0.4-0.2c0.2-0.1,0.3-0.1,0.5-0.1c0.2,0,0.4,0,0.6,0.1v-0.1c0-0.1,0-0.2,0.1-0.3s0.2-0.1,0.3-0.1h0.6v0.5H61v0.1
			c0.1,0.1,0.2,0.2,0.3,0.4c0.1,0.1,0.1,0.3,0.1,0.5c0,0.2,0,0.3-0.1,0.4c-0.1,0.1-0.1,0.2-0.3,0.3c-0.1,0.1-0.2,0.2-0.4,0.2
			c-0.2,0-0.3,0.1-0.5,0.1c-0.1,0-0.3,0-0.4,0c-0.1,0-0.1,0.1-0.2,0.1c-0.1,0-0.1,0.1-0.1,0.2c0,0.1,0,0.2,0.1,0.2
			c0.1,0,0.2,0,0.3,0h0.7c0.4,0,0.7,0.1,0.9,0.2C61.7,96.4,61.8,96.6,61.8,96.8z M61.2,96.9c0-0.1,0-0.2-0.1-0.3
			c-0.1-0.1-0.2-0.1-0.5-0.1h-1.1c-0.2,0.1-0.2,0.2-0.2,0.3c0,0.1,0,0.2,0.1,0.3c0.1,0.1,0.3,0.1,0.5,0.1h0.5c0.2,0,0.4,0,0.6-0.1
			C61.1,97.1,61.2,97,61.2,96.9z M60.1,95c0.2,0,0.4-0.1,0.5-0.2s0.2-0.2,0.2-0.4v-0.2c0-0.2-0.1-0.3-0.2-0.4
			c-0.1-0.1-0.3-0.2-0.5-0.2s-0.4,0-0.5,0.2c-0.1,0.1-0.1,0.2-0.1,0.4v0.2c0,0.2,0,0.3,0.1,0.4C59.8,95,59.9,95,60.1,95z M63.9,92.8
			c-0.2,0-0.3,0-0.4-0.1c-0.1-0.1-0.1-0.2-0.1-0.3v-0.1c0-0.1,0-0.2,0.1-0.3c0.1-0.1,0.2-0.1,0.3-0.1c0.2,0,0.3,0,0.3,0.1
			c0.1,0.1,0.1,0.2,0.1,0.3v0.1c0,0.1,0,0.2-0.1,0.3C64.2,92.8,64.1,92.8,63.9,92.8z M62.6,96h1.1v-2h-1.1v-0.5h1.7V96h1v0.5h-2.7
			V96z M67.5,96.5c-0.3,0-0.5-0.1-0.6-0.2c-0.1-0.1-0.2-0.3-0.2-0.6v-1.8h-1v-0.5h0.7c0.1,0,0.2,0,0.2-0.1c0,0,0.1-0.1,0.1-0.3v-0.8
			h0.6v1.1h1.3v0.5h-1.3v2h1.3v0.5H67.5z M69.7,92h0.7v1.9h0c0-0.1,0.1-0.2,0.1-0.2c0.1-0.1,0.1-0.1,0.2-0.2
			c0.1-0.1,0.2-0.1,0.3-0.1s0.2,0,0.3,0c0.3,0,0.6,0.1,0.8,0.3c0.2,0.2,0.3,0.5,0.3,0.9v2h-0.7v-1.9c0-0.5-0.2-0.7-0.6-0.7
			c-0.1,0-0.2,0-0.2,0c-0.1,0-0.2,0.1-0.2,0.1c-0.1,0-0.1,0.1-0.2,0.2c0,0.1-0.1,0.1-0.1,0.2v2.1h-0.7V92z M75.2,96L75.2,96
			c-0.1,0.1-0.1,0.2-0.2,0.2c0,0.1-0.1,0.1-0.2,0.2c-0.1,0.1-0.2,0.1-0.3,0.1c-0.1,0-0.2,0-0.3,0c-0.3,0-0.6-0.1-0.8-0.3
			c-0.2-0.2-0.3-0.5-0.3-0.9v-2h0.7v1.9c0,0.5,0.2,0.7,0.6,0.7c0.1,0,0.2,0,0.2,0c0.1,0,0.2-0.1,0.2-0.1c0.1,0,0.1-0.1,0.1-0.2
			c0-0.1,0.1-0.1,0.1-0.2v-2.1h0.7v3.1h-0.7V96z M76.8,92h0.7v1.9h0c0.1-0.2,0.2-0.3,0.4-0.4c0.2-0.1,0.3-0.2,0.6-0.2
			c0.4,0,0.7,0.1,0.9,0.4c0.2,0.3,0.3,0.7,0.3,1.2s-0.1,0.9-0.3,1.2c-0.2,0.3-0.5,0.4-0.9,0.4c-0.2,0-0.4-0.1-0.6-0.2
			c-0.2-0.1-0.3-0.3-0.4-0.4h0v0.5h-0.7V92z M78.2,96c0.2,0,0.4-0.1,0.6-0.2c0.1-0.2,0.2-0.4,0.2-0.6v-0.5c0-0.3-0.1-0.5-0.2-0.6
			c-0.1-0.2-0.3-0.2-0.6-0.2c-0.1,0-0.2,0-0.3,0c-0.1,0-0.2,0.1-0.2,0.1c-0.1,0-0.1,0.1-0.2,0.2c0,0.1-0.1,0.2-0.1,0.2v1
			c0,0.1,0,0.2,0.1,0.3c0,0.1,0.1,0.1,0.2,0.2c0.1,0,0.1,0.1,0.2,0.1C78,96,78.1,96,78.2,96z M80.8,95v-0.7h1.8V95H80.8z M85.5,96.5
			c-0.3,0-0.5-0.1-0.6-0.2c-0.1-0.1-0.2-0.3-0.2-0.6v-1.8h-1v-0.5h0.7c0.1,0,0.2,0,0.2-0.1c0,0,0.1-0.1,0.1-0.3v-0.8h0.6v1.1h1.3
			v0.5h-1.3v2h1.3v0.5H85.5z M88.9,96.6c-0.2,0-0.4,0-0.6-0.1c-0.2-0.1-0.3-0.2-0.5-0.3c-0.1-0.1-0.2-0.3-0.3-0.5
			c-0.1-0.2-0.1-0.4-0.1-0.7s0-0.5,0.1-0.7c0.1-0.2,0.2-0.4,0.3-0.5c0.1-0.1,0.3-0.2,0.5-0.3c0.2-0.1,0.4-0.1,0.6-0.1
			c0.2,0,0.4,0,0.6,0.1c0.2,0.1,0.3,0.2,0.5,0.3c0.1,0.1,0.2,0.3,0.3,0.5c0.1,0.2,0.1,0.4,0.1,0.7s0,0.5-0.1,0.7
			c-0.1,0.2-0.2,0.4-0.3,0.5c-0.1,0.1-0.3,0.2-0.5,0.3C89.4,96.5,89.2,96.6,88.9,96.6z M88.9,96c0.2,0,0.4-0.1,0.6-0.2
			c0.1-0.1,0.2-0.4,0.2-0.7v-0.5c0-0.3-0.1-0.5-0.2-0.6c-0.1-0.1-0.3-0.2-0.6-0.2c-0.2,0-0.4,0.1-0.6,0.2c-0.1,0.1-0.2,0.4-0.2,0.6
			v0.5c0,0.3,0.1,0.5,0.2,0.7C88.5,96,88.7,96,88.9,96z M91.6,95v-0.7h1.8V95H91.6z M96.8,96L96.8,96c-0.1,0.2-0.2,0.3-0.4,0.4
			c-0.2,0.1-0.3,0.2-0.6,0.2c-0.4,0-0.7-0.1-0.9-0.4c-0.2-0.3-0.3-0.7-0.3-1.2s0.1-0.9,0.3-1.2c0.2-0.3,0.5-0.4,0.9-0.4
			c0.2,0,0.4,0.1,0.6,0.2c0.2,0.1,0.3,0.2,0.4,0.4h0V92h0.7v4.4h-0.7V96z M96.1,96c0.1,0,0.2,0,0.3,0c0.1,0,0.2-0.1,0.2-0.1
			c0.1,0,0.1-0.1,0.2-0.2c0-0.1,0.1-0.2,0.1-0.3v-1c0-0.1,0-0.2-0.1-0.2c0-0.1-0.1-0.1-0.2-0.2c-0.1,0-0.1-0.1-0.2-0.1
			c-0.1,0-0.2,0-0.3,0c-0.2,0-0.4,0.1-0.6,0.2c-0.1,0.2-0.2,0.4-0.2,0.6v0.5c0,0.3,0.1,0.5,0.2,0.6C95.7,95.9,95.9,96,96.1,96z
			 M100.4,96L100.4,96c-0.1,0.1-0.1,0.2-0.2,0.2c0,0.1-0.1,0.1-0.2,0.2c-0.1,0.1-0.2,0.1-0.3,0.1c-0.1,0-0.2,0-0.3,0
			c-0.3,0-0.6-0.1-0.8-0.3c-0.2-0.2-0.3-0.5-0.3-0.9v-2h0.7v1.9c0,0.5,0.2,0.7,0.6,0.7c0.1,0,0.2,0,0.2,0c0.1,0,0.2-0.1,0.2-0.1
			c0.1,0,0.1-0.1,0.2-0.2c0-0.1,0.1-0.1,0.1-0.2v-2.1h0.7v3.1h-0.7V96z M103.4,96.6c-0.2,0-0.4,0-0.6-0.1c-0.2-0.1-0.3-0.2-0.5-0.3
			c-0.1-0.1-0.2-0.3-0.3-0.5c-0.1-0.2-0.1-0.4-0.1-0.7s0-0.5,0.1-0.7c0.1-0.2,0.2-0.4,0.3-0.5c0.1-0.1,0.3-0.2,0.5-0.3
			c0.2-0.1,0.4-0.1,0.6-0.1c0.3,0,0.6,0.1,0.8,0.2c0.2,0.1,0.3,0.3,0.4,0.5l-0.5,0.3c-0.1-0.1-0.1-0.3-0.3-0.3
			c-0.1-0.1-0.3-0.1-0.4-0.1c-0.2,0-0.4,0.1-0.6,0.2c-0.1,0.1-0.2,0.3-0.2,0.6v0.5c0,0.2,0.1,0.4,0.2,0.6s0.3,0.2,0.6,0.2
			c0.2,0,0.3,0,0.5-0.1c0.1-0.1,0.2-0.2,0.3-0.4l0.5,0.3c-0.1,0.2-0.3,0.4-0.5,0.5C104,96.5,103.8,96.6,103.4,96.6z M105.7,92h0.7
			v2.7h0l0.5-0.5l0.9-0.8h0.8l-1.3,1.2l1.4,1.9h-0.8l-1.1-1.5l-0.4,0.4v1.1h-0.7V92z M111.2,96L111.2,96c-0.1,0.2-0.2,0.3-0.4,0.4
			c-0.2,0.1-0.3,0.2-0.6,0.2c-0.4,0-0.7-0.1-0.9-0.4c-0.2-0.3-0.3-0.7-0.3-1.2s0.1-0.9,0.3-1.2c0.2-0.3,0.5-0.4,0.9-0.4
			c0.2,0,0.4,0.1,0.6,0.2c0.2,0.1,0.3,0.2,0.4,0.4h0V92h0.7v4.4h-0.7V96z M110.5,96c0.1,0,0.2,0,0.3,0c0.1,0,0.2-0.1,0.2-0.1
			c0.1,0,0.1-0.1,0.2-0.2c0-0.1,0.1-0.2,0.1-0.3v-1c0-0.1,0-0.2-0.1-0.2c0-0.1-0.1-0.1-0.2-0.2c-0.1,0-0.1-0.1-0.2-0.1
			c-0.1,0-0.2,0-0.3,0c-0.2,0-0.4,0.1-0.6,0.2c-0.1,0.2-0.2,0.4-0.2,0.6v0.5c0,0.3,0.1,0.5,0.2,0.6C110.1,95.9,110.2,96,110.5,96z
			 M112.8,92h0.7v1.9h0c0.1-0.2,0.2-0.3,0.4-0.4c0.2-0.1,0.3-0.2,0.6-0.2c0.4,0,0.7,0.1,0.9,0.4c0.2,0.3,0.3,0.7,0.3,1.2
			s-0.1,0.9-0.3,1.2c-0.2,0.3-0.5,0.4-0.9,0.4c-0.2,0-0.4-0.1-0.6-0.2c-0.2-0.1-0.3-0.3-0.4-0.4h0v0.5h-0.7V92z M114.2,96
			c0.2,0,0.4-0.1,0.6-0.2c0.1-0.2,0.2-0.4,0.2-0.6v-0.5c0-0.3-0.1-0.5-0.2-0.6c-0.1-0.2-0.3-0.2-0.6-0.2c-0.1,0-0.2,0-0.3,0
			c-0.1,0-0.2,0.1-0.2,0.1c-0.1,0-0.1,0.1-0.2,0.2c0,0.1-0.1,0.2-0.1,0.2v1c0,0.1,0,0.2,0.1,0.3c0,0.1,0.1,0.1,0.2,0.2
			c0.1,0,0.1,0.1,0.2,0.1C114,96,114.1,96,114.2,96z M116.8,95v-0.7h1.8V95H116.8z M12.1,102h0.7v1.9h0c0-0.1,0.1-0.2,0.1-0.2
			c0.1-0.1,0.1-0.1,0.2-0.2c0.1-0.1,0.2-0.1,0.3-0.1c0.1,0,0.2,0,0.3,0c0.3,0,0.6,0.1,0.8,0.3c0.2,0.2,0.3,0.5,0.3,0.9v2h-0.7v-1.9
			c0-0.5-0.2-0.7-0.6-0.7c-0.1,0-0.2,0-0.2,0c-0.1,0-0.2,0.1-0.2,0.1c-0.1,0-0.1,0.1-0.2,0.2c0,0.1-0.1,0.1-0.1,0.2v2.1h-0.7V102z
			 M17,106.6c-0.2,0-0.4,0-0.6-0.1c-0.2-0.1-0.3-0.2-0.5-0.3c-0.1-0.1-0.2-0.3-0.3-0.5c-0.1-0.2-0.1-0.4-0.1-0.7s0-0.5,0.1-0.7
			c0.1-0.2,0.2-0.4,0.3-0.5c0.1-0.1,0.3-0.2,0.5-0.3c0.2-0.1,0.4-0.1,0.6-0.1s0.4,0,0.6,0.1c0.2,0.1,0.3,0.2,0.5,0.3
			c0.1,0.1,0.2,0.3,0.3,0.5c0.1,0.2,0.1,0.4,0.1,0.7s0,0.5-0.1,0.7c-0.1,0.2-0.2,0.4-0.3,0.5c-0.1,0.1-0.3,0.2-0.5,0.3
			C17.4,106.5,17.2,106.6,17,106.6z M17,106c0.2,0,0.4-0.1,0.6-0.2c0.1-0.1,0.2-0.4,0.2-0.7v-0.5c0-0.3-0.1-0.5-0.2-0.6
			c-0.1-0.1-0.3-0.2-0.6-0.2c-0.2,0-0.4,0.1-0.6,0.2c-0.1,0.1-0.2,0.4-0.2,0.6v0.5c0,0.3,0.1,0.5,0.2,0.7C16.6,106,16.7,106,17,106z
			 M21.2,106L21.2,106c-0.1,0.1-0.1,0.2-0.2,0.2c0,0.1-0.1,0.1-0.2,0.2c-0.1,0.1-0.2,0.1-0.3,0.1c-0.1,0-0.2,0-0.3,0
			c-0.3,0-0.6-0.1-0.8-0.3c-0.2-0.2-0.3-0.5-0.3-0.9v-2h0.7v1.9c0,0.5,0.2,0.7,0.6,0.7c0.1,0,0.2,0,0.2,0c0.1,0,0.2-0.1,0.2-0.1
			c0.1,0,0.1-0.1,0.1-0.2c0-0.1,0.1-0.1,0.1-0.2v-2.1h0.7v3.1h-0.7V106z M22.8,106h0.8v-2h-0.8v-0.5h1.5v0.8h0
			c0-0.1,0.1-0.2,0.1-0.3c0.1-0.1,0.1-0.2,0.2-0.3c0.1-0.1,0.2-0.1,0.3-0.2c0.1,0,0.3-0.1,0.4-0.1h0.4v0.6h-0.6
			c-0.2,0-0.4,0.1-0.6,0.2c-0.2,0.1-0.2,0.3-0.2,0.6v1.2h1.1v0.5h-2.6V106z M26.4,106h1v-3.4h-1V102h1.7v3.9h1v0.5h-2.7V106z
			 M32.3,103.4h0.7l-1.5,3.7c-0.1,0.2-0.2,0.3-0.3,0.4c-0.1,0.1-0.3,0.2-0.6,0.2H30v-0.5h0.7l0.3-0.7l-1.2-3.1h0.7l0.5,1.3l0.4,1.1
			h0l0.4-1.1L32.3,103.4z M15,126.8c0,0.3-0.1,0.5-0.4,0.7c-0.3,0.2-0.6,0.2-1.2,0.2c-0.5,0-0.9-0.1-1.1-0.2
			c-0.2-0.1-0.3-0.3-0.3-0.6c0-0.2,0-0.3,0.1-0.4c0.1-0.1,0.2-0.2,0.4-0.2v-0.1c-0.1,0-0.2-0.1-0.2-0.2s-0.1-0.2-0.1-0.3
			c0-0.2,0.1-0.3,0.2-0.4c0.1-0.1,0.2-0.1,0.4-0.2v0c-0.2-0.1-0.3-0.2-0.5-0.4c-0.1-0.2-0.2-0.4-0.2-0.6c0-0.2,0-0.3,0.1-0.4
			c0.1-0.1,0.1-0.2,0.2-0.3c0.1-0.1,0.2-0.2,0.4-0.2c0.1-0.1,0.3-0.1,0.5-0.1c0.2,0,0.4,0,0.6,0.1v-0.1c0-0.1,0-0.2,0.1-0.3
			c0.1-0.1,0.2-0.1,0.3-0.1h0.6v0.4h-0.7v0.2c0.1,0.1,0.2,0.2,0.3,0.3c0.1,0.1,0.1,0.3,0.1,0.4c0,0.2,0,0.3-0.1,0.4
			c-0.1,0.1-0.1,0.2-0.2,0.3c-0.1,0.1-0.2,0.2-0.4,0.2c-0.1,0.1-0.3,0.1-0.5,0.1c-0.1,0-0.1,0-0.1,0c0,0-0.1,0-0.1,0
			c0,0-0.1,0-0.1,0c-0.1,0-0.1,0-0.1,0.1c0,0-0.1,0.1-0.1,0.1s0,0.1,0,0.1c0,0.1,0,0.2,0.1,0.2c0.1,0,0.2,0,0.4,0h0.7
			c0.4,0,0.7,0.1,0.9,0.2C14.9,126.4,15,126.6,15,126.8z M14.5,126.9c0-0.1-0.1-0.2-0.1-0.3c-0.1-0.1-0.3-0.1-0.5-0.1h-1.1
			c-0.2,0.1-0.3,0.2-0.3,0.4c0,0.1,0.1,0.3,0.2,0.3c0.1,0.1,0.3,0.1,0.5,0.1h0.5c0.3,0,0.5,0,0.7-0.1
			C14.4,127.2,14.5,127,14.5,126.9z M13.4,125.1c0.2,0,0.4-0.1,0.5-0.2c0.1-0.1,0.2-0.3,0.2-0.4v-0.2c0-0.2-0.1-0.3-0.2-0.4
			c-0.1-0.1-0.3-0.2-0.5-0.2s-0.4,0.1-0.5,0.2c-0.1,0.1-0.2,0.3-0.2,0.4v0.2c0,0.2,0.1,0.3,0.2,0.4S13.1,125.1,13.4,125.1z
			 M17.2,122.7c-0.1,0-0.2,0-0.3-0.1c-0.1-0.1-0.1-0.1-0.1-0.2v-0.1c0-0.1,0-0.2,0.1-0.2c0.1-0.1,0.2-0.1,0.3-0.1
			c0.1,0,0.2,0,0.3,0.1c0.1,0.1,0.1,0.1,0.1,0.2v0.1c0,0.1,0,0.2-0.1,0.2C17.4,122.7,17.3,122.7,17.2,122.7z M15.8,126.1h1.1v-2.3
			h-1.1v-0.4h1.6v2.7h1v0.4h-2.6V126.1z M20.7,126.5c-0.2,0-0.4-0.1-0.5-0.2c-0.1-0.1-0.2-0.3-0.2-0.5v-2h-1v-0.4h0.8
			c0.1,0,0.2,0,0.2-0.1c0,0,0.1-0.1,0.1-0.2v-0.8h0.5v1.1h1.4v0.4h-1.4v2.3h1.4v0.4H20.7z M27.9,126.6c-0.2,0-0.4,0-0.6-0.1
			c-0.2-0.1-0.3-0.2-0.4-0.3s-0.2-0.3-0.3-0.5c-0.1-0.2-0.1-0.4-0.1-0.7s0-0.5,0.1-0.7c0.1-0.2,0.2-0.4,0.3-0.5
			c0.1-0.1,0.3-0.3,0.4-0.3c0.2-0.1,0.4-0.1,0.6-0.1c0.3,0,0.5,0.1,0.7,0.2c0.2,0.1,0.3,0.3,0.4,0.5l-0.4,0.2
			c-0.1-0.2-0.2-0.3-0.3-0.4c-0.1-0.1-0.3-0.1-0.5-0.1c-0.1,0-0.3,0-0.4,0.1c-0.1,0-0.2,0.1-0.3,0.2s-0.1,0.2-0.2,0.3
			c0,0.1-0.1,0.2-0.1,0.4v0.5c0,0.1,0,0.3,0.1,0.4c0,0.1,0.1,0.2,0.2,0.3s0.2,0.2,0.3,0.2c0.1,0,0.2,0.1,0.4,0.1
			c0.2,0,0.4,0,0.5-0.1c0.1-0.1,0.2-0.2,0.3-0.4l0.3,0.2c-0.1,0.2-0.2,0.4-0.4,0.5C28.5,126.5,28.2,126.6,27.9,126.6z M30.1,126.1
			h1.1v-3.6h-1.1V122h1.6v4h1.1v0.4h-2.6V126.1z M35,126.6c-0.2,0-0.4,0-0.6-0.1c-0.2-0.1-0.3-0.2-0.4-0.3c-0.1-0.1-0.2-0.3-0.3-0.5
			c-0.1-0.2-0.1-0.4-0.1-0.7c0-0.2,0-0.5,0.1-0.7c0.1-0.2,0.2-0.4,0.3-0.5c0.1-0.1,0.3-0.3,0.4-0.3c0.2-0.1,0.4-0.1,0.6-0.1
			s0.4,0,0.6,0.1c0.2,0.1,0.3,0.2,0.4,0.3c0.1,0.1,0.2,0.3,0.3,0.5s0.1,0.4,0.1,0.7c0,0.2,0,0.5-0.1,0.7c-0.1,0.2-0.2,0.4-0.3,0.5
			c-0.1,0.1-0.3,0.2-0.4,0.3C35.4,126.5,35.2,126.6,35,126.6z M35,126.1c0.3,0,0.5-0.1,0.6-0.2c0.2-0.2,0.2-0.4,0.2-0.7v-0.4
			c0-0.3-0.1-0.6-0.2-0.7c-0.2-0.2-0.4-0.2-0.6-0.2c-0.3,0-0.5,0.1-0.6,0.2c-0.2,0.2-0.2,0.4-0.2,0.7v0.4c0,0.3,0.1,0.6,0.2,0.7
			C34.5,126.1,34.7,126.1,35,126.1z M37.4,126.5v-3.1h0.5v0.5h0c0-0.1,0.1-0.1,0.1-0.2c0-0.1,0.1-0.1,0.2-0.2
			c0.1-0.1,0.2-0.1,0.3-0.1s0.2,0,0.3,0c0.3,0,0.6,0.1,0.8,0.3c0.2,0.2,0.3,0.5,0.3,0.9v2h-0.5v-1.9c0-0.3-0.1-0.5-0.2-0.6
			c-0.1-0.1-0.3-0.2-0.5-0.2c-0.1,0-0.2,0-0.3,0c-0.1,0-0.2,0.1-0.2,0.1c-0.1,0-0.1,0.1-0.2,0.2c0,0.1-0.1,0.2-0.1,0.3v2.1H37.4z
			 M42.2,126.6c-0.2,0-0.4,0-0.6-0.1c-0.2-0.1-0.3-0.2-0.5-0.3c-0.1-0.1-0.2-0.3-0.3-0.5c-0.1-0.2-0.1-0.4-0.1-0.7
			c0-0.2,0-0.5,0.1-0.7c0.1-0.2,0.2-0.4,0.3-0.5c0.1-0.1,0.3-0.3,0.4-0.3c0.2-0.1,0.4-0.1,0.6-0.1c0.2,0,0.4,0,0.6,0.1
			c0.2,0.1,0.3,0.2,0.4,0.3c0.1,0.1,0.2,0.3,0.3,0.5c0.1,0.2,0.1,0.4,0.1,0.6v0.2h-2.3v0.1c0,0.1,0,0.3,0.1,0.4
			c0,0.1,0.1,0.2,0.2,0.3c0.1,0.1,0.2,0.2,0.3,0.2c0.1,0,0.3,0.1,0.4,0.1c0.2,0,0.4,0,0.5-0.1c0.2-0.1,0.3-0.2,0.3-0.4l0.4,0.2
			c-0.1,0.2-0.2,0.4-0.5,0.5C42.8,126.5,42.5,126.6,42.2,126.6z M42.2,123.7c-0.1,0-0.3,0-0.4,0.1c-0.1,0-0.2,0.1-0.3,0.2
			c-0.1,0.1-0.1,0.2-0.2,0.3c0,0.1-0.1,0.2-0.1,0.4v0h1.8v-0.1c0-0.1,0-0.3-0.1-0.4c0-0.1-0.1-0.2-0.2-0.3c-0.1-0.1-0.2-0.1-0.3-0.2
			C42.4,123.7,42.3,123.7,42.2,123.7z M48.2,122h0.5v1.8h0c0-0.1,0.1-0.1,0.1-0.2c0-0.1,0.1-0.1,0.2-0.2c0.1-0.1,0.2-0.1,0.3-0.1
			s0.2,0,0.3,0c0.3,0,0.6,0.1,0.8,0.3c0.2,0.2,0.3,0.5,0.3,0.9v2h-0.5v-1.9c0-0.3-0.1-0.5-0.2-0.6c-0.1-0.1-0.3-0.2-0.5-0.2
			c-0.1,0-0.2,0-0.3,0c-0.1,0-0.2,0.1-0.2,0.1c-0.1,0-0.1,0.1-0.2,0.2c0,0.1-0.1,0.2-0.1,0.3v2.1h-0.5V122z M53.1,126.5
			c-0.2,0-0.4-0.1-0.5-0.2c-0.1-0.1-0.2-0.3-0.2-0.5v-2h-1v-0.4h0.8c0.1,0,0.2,0,0.2-0.1c0,0,0.1-0.1,0.1-0.2v-0.8h0.5v1.1h1.4v0.4
			h-1.4v2.3h1.4v0.4H53.1z M56.7,126.5c-0.2,0-0.4-0.1-0.5-0.2c-0.1-0.1-0.2-0.3-0.2-0.5v-2h-1v-0.4h0.8c0.1,0,0.2,0,0.2-0.1
			c0,0,0.1-0.1,0.1-0.2v-0.8h0.5v1.1h1.4v0.4h-1.4v2.3h1.4v0.4H56.7z M58.9,123.4h0.5v0.5h0c0.2-0.4,0.5-0.6,1-0.6
			c0.4,0,0.7,0.1,0.9,0.4c0.2,0.3,0.3,0.7,0.3,1.2s-0.1,0.9-0.3,1.2c-0.2,0.3-0.5,0.4-0.9,0.4c-0.4,0-0.8-0.2-1-0.6h0v1.7h-0.5
			V123.4z M60.2,126.1c0.3,0,0.5-0.1,0.6-0.3c0.2-0.2,0.2-0.4,0.2-0.7v-0.5c0-0.3-0.1-0.5-0.2-0.7c-0.2-0.2-0.4-0.3-0.6-0.3
			c-0.1,0-0.2,0-0.3,0s-0.2,0.1-0.3,0.1c-0.1,0.1-0.1,0.1-0.2,0.2c0,0.1-0.1,0.2-0.1,0.3v1.1c0,0.1,0,0.2,0.1,0.3
			c0,0.1,0.1,0.1,0.2,0.2c0.1,0.1,0.2,0.1,0.3,0.1S60.1,126.1,60.2,126.1z M63.8,126.6c-0.3,0-0.6-0.1-0.8-0.2
			c-0.2-0.1-0.4-0.3-0.6-0.4l0.3-0.3c0.1,0.2,0.3,0.3,0.5,0.4s0.4,0.1,0.6,0.1c0.2,0,0.4,0,0.6-0.1c0.2-0.1,0.2-0.2,0.2-0.4
			c0-0.1,0-0.1,0-0.2c0-0.1-0.1-0.1-0.1-0.1c-0.1,0-0.1-0.1-0.2-0.1c-0.1,0-0.1,0-0.2,0l-0.5-0.1c-0.1,0-0.2,0-0.4-0.1
			c-0.1,0-0.2-0.1-0.3-0.1c-0.1-0.1-0.2-0.1-0.3-0.3c-0.1-0.1-0.1-0.2-0.1-0.4c0-0.2,0-0.3,0.1-0.4c0.1-0.1,0.2-0.2,0.3-0.3
			c0.1-0.1,0.2-0.1,0.4-0.2c0.2,0,0.3-0.1,0.5-0.1c0.3,0,0.5,0,0.7,0.1c0.2,0.1,0.4,0.2,0.5,0.4l-0.3,0.3c0,0-0.1-0.1-0.1-0.1
			c-0.1,0-0.1-0.1-0.2-0.1c-0.1,0-0.2-0.1-0.3-0.1c-0.1,0-0.2,0-0.4,0c-0.2,0-0.4,0-0.6,0.1c-0.1,0.1-0.2,0.2-0.2,0.4
			c0,0.1,0,0.1,0,0.2c0,0.1,0.1,0.1,0.1,0.1c0.1,0,0.1,0.1,0.2,0.1c0.1,0,0.1,0,0.2,0l0.5,0.1c0.1,0,0.2,0,0.4,0.1s0.2,0.1,0.3,0.1
			c0.1,0.1,0.2,0.1,0.3,0.2c0.1,0.1,0.1,0.2,0.1,0.4c0,0.3-0.1,0.5-0.4,0.7C64.5,126.5,64.2,126.6,63.8,126.6z M67.4,126.5
			c-0.2,0-0.3,0-0.3-0.1c-0.1-0.1-0.1-0.2-0.1-0.3v-0.1c0-0.1,0-0.2,0.1-0.3c0.1-0.1,0.2-0.1,0.3-0.1s0.3,0,0.3,0.1
			c0.1,0.1,0.1,0.2,0.1,0.3v0.1c0,0.1,0,0.2-0.1,0.3C67.6,126.5,67.5,126.5,67.4,126.5z M67.4,124.2c-0.2,0-0.3,0-0.3-0.1
			c-0.1-0.1-0.1-0.2-0.1-0.3v-0.1c0-0.1,0-0.2,0.1-0.3c0.1-0.1,0.2-0.1,0.3-0.1s0.3,0,0.3,0.1c0.1,0.1,0.1,0.2,0.1,0.3v0.1
			c0,0.1,0,0.2-0.1,0.3C67.6,124.1,67.5,124.2,67.4,124.2z M69.7,127.3l2.1-5.4h0.4l-2.1,5.4H69.7z M73.3,127.3l2.1-5.4h0.4
			l-2.1,5.4H73.3z M79.7,126.8c0,0.3-0.1,0.5-0.4,0.7c-0.3,0.2-0.7,0.2-1.2,0.2c-0.5,0-0.9-0.1-1.1-0.2c-0.2-0.1-0.3-0.3-0.3-0.6
			c0-0.2,0-0.3,0.1-0.4c0.1-0.1,0.2-0.2,0.4-0.2v-0.1c-0.1,0-0.2-0.1-0.2-0.2c0-0.1-0.1-0.2-0.1-0.3c0-0.2,0.1-0.3,0.2-0.4
			c0.1-0.1,0.2-0.1,0.4-0.2v0c-0.2-0.1-0.3-0.2-0.4-0.4c-0.1-0.2-0.2-0.4-0.2-0.6c0-0.2,0-0.3,0.1-0.4c0.1-0.1,0.1-0.2,0.2-0.3
			c0.1-0.1,0.2-0.2,0.4-0.2c0.1-0.1,0.3-0.1,0.5-0.1c0.2,0,0.4,0,0.6,0.1v-0.1c0-0.1,0-0.2,0.1-0.3s0.2-0.1,0.3-0.1h0.6v0.4H79v0.2
			c0.1,0.1,0.2,0.2,0.3,0.3c0.1,0.1,0.1,0.3,0.1,0.4c0,0.2,0,0.3-0.1,0.4c-0.1,0.1-0.1,0.2-0.2,0.3c-0.1,0.1-0.2,0.2-0.4,0.2
			c-0.1,0.1-0.3,0.1-0.5,0.1c-0.1,0-0.1,0-0.2,0c0,0-0.1,0-0.1,0c0,0-0.1,0-0.2,0c-0.1,0-0.1,0-0.1,0.1c0,0-0.1,0.1-0.1,0.1
			s0,0.1,0,0.1c0,0.1,0,0.2,0.1,0.2c0.1,0,0.2,0,0.4,0h0.7c0.4,0,0.7,0.1,0.9,0.2C79.6,126.4,79.7,126.6,79.7,126.8z M79.3,126.9
			c0-0.1-0.1-0.2-0.2-0.3c-0.1-0.1-0.3-0.1-0.5-0.1h-1.1c-0.2,0.1-0.3,0.2-0.3,0.4c0,0.1,0.1,0.3,0.2,0.3c0.1,0.1,0.3,0.1,0.5,0.1
			h0.5c0.3,0,0.5,0,0.7-0.1C79.2,127.2,79.3,127,79.3,126.9z M78.1,125.1c0.2,0,0.4-0.1,0.5-0.2c0.1-0.1,0.2-0.3,0.2-0.4v-0.2
			c0-0.2-0.1-0.3-0.2-0.4c-0.1-0.1-0.3-0.2-0.5-0.2s-0.4,0.1-0.5,0.2c-0.1,0.1-0.2,0.3-0.2,0.4v0.2c0,0.2,0.1,0.3,0.2,0.4
			S77.9,125.1,78.1,125.1z M81.9,122.7c-0.1,0-0.2,0-0.3-0.1c-0.1-0.1-0.1-0.1-0.1-0.2v-0.1c0-0.1,0-0.2,0.1-0.2
			c0.1-0.1,0.2-0.1,0.3-0.1s0.2,0,0.3,0.1c0.1,0.1,0.1,0.1,0.1,0.2v0.1c0,0.1,0,0.2-0.1,0.2C82.2,122.7,82.1,122.7,81.9,122.7z
			 M80.6,126.1h1.1v-2.3h-1.1v-0.4h1.6v2.7h1v0.4h-2.6V126.1z M85.5,126.5c-0.2,0-0.4-0.1-0.5-0.2c-0.1-0.1-0.2-0.3-0.2-0.5v-2h-1
			v-0.4h0.8c0.1,0,0.2,0,0.2-0.1c0,0,0.1-0.1,0.1-0.2v-0.8h0.5v1.1h1.4v0.4h-1.4v2.3h1.4v0.4H85.5z M87.7,122h0.5v1.8h0
			c0-0.1,0.1-0.1,0.1-0.2c0-0.1,0.1-0.1,0.2-0.2c0.1-0.1,0.2-0.1,0.3-0.1s0.2,0,0.3,0c0.3,0,0.6,0.1,0.8,0.3
			c0.2,0.2,0.3,0.5,0.3,0.9v2h-0.5v-1.9c0-0.3-0.1-0.5-0.2-0.6c-0.1-0.1-0.3-0.2-0.5-0.2c-0.1,0-0.2,0-0.3,0c-0.1,0-0.2,0.1-0.2,0.1
			c-0.1,0-0.1,0.1-0.2,0.2c0,0.1-0.1,0.2-0.1,0.3v2.1h-0.5V122z M93.3,126L93.3,126c-0.1,0.1-0.1,0.2-0.1,0.2c0,0.1-0.1,0.1-0.2,0.2
			c-0.1,0.1-0.2,0.1-0.2,0.1c-0.1,0-0.2,0-0.3,0c-0.3,0-0.6-0.1-0.8-0.3c-0.2-0.2-0.3-0.5-0.3-0.9v-2h0.5v1.9c0,0.3,0.1,0.5,0.2,0.6
			c0.1,0.1,0.3,0.2,0.5,0.2c0.1,0,0.2,0,0.3,0c0.1,0,0.2-0.1,0.2-0.1c0.1,0,0.1-0.1,0.2-0.2c0-0.1,0.1-0.2,0.1-0.3v-2.1h0.5v3.1
			h-0.5V126z M94.9,122h0.5v1.8h0c0.2-0.4,0.5-0.6,1-0.6c0.4,0,0.7,0.1,0.9,0.4c0.2,0.3,0.3,0.7,0.3,1.2s-0.1,0.9-0.3,1.2
			c-0.2,0.3-0.5,0.4-0.9,0.4c-0.4,0-0.8-0.2-1-0.6h0v0.5h-0.5V122z M96.2,126.1c0.3,0,0.5-0.1,0.6-0.3c0.2-0.2,0.2-0.4,0.2-0.7v-0.5
			c0-0.3-0.1-0.5-0.2-0.7c-0.2-0.2-0.4-0.3-0.6-0.3c-0.1,0-0.2,0-0.3,0s-0.2,0.1-0.3,0.1c-0.1,0.1-0.1,0.1-0.2,0.2
			c0,0.1-0.1,0.2-0.1,0.3v1.1c0,0.1,0,0.2,0.1,0.3c0,0.1,0.1,0.1,0.2,0.2c0.1,0.1,0.2,0.1,0.3,0.1S96.1,126.1,96.2,126.1z
			 M99.7,126.5c-0.2,0-0.3,0-0.3-0.1c-0.1-0.1-0.1-0.2-0.1-0.3v-0.1c0-0.1,0-0.2,0.1-0.3c0.1-0.1,0.2-0.1,0.3-0.1s0.3,0,0.3,0.1
			c0.1,0.1,0.1,0.2,0.1,0.3v0.1c0,0.1,0,0.2-0.1,0.3C100,126.5,99.9,126.5,99.7,126.5z M103.4,126.6c-0.2,0-0.4,0-0.6-0.1
			c-0.2-0.1-0.3-0.2-0.4-0.3c-0.1-0.1-0.2-0.3-0.3-0.5c-0.1-0.2-0.1-0.4-0.1-0.7s0-0.5,0.1-0.7c0.1-0.2,0.2-0.4,0.3-0.5
			c0.1-0.1,0.3-0.3,0.4-0.3c0.2-0.1,0.4-0.1,0.6-0.1c0.3,0,0.5,0.1,0.7,0.2c0.2,0.1,0.3,0.3,0.4,0.5l-0.4,0.2
			c-0.1-0.2-0.2-0.3-0.3-0.4c-0.1-0.1-0.3-0.1-0.5-0.1c-0.1,0-0.3,0-0.4,0.1c-0.1,0-0.2,0.1-0.3,0.2c-0.1,0.1-0.1,0.2-0.2,0.3
			c0,0.1-0.1,0.2-0.1,0.4v0.5c0,0.1,0,0.3,0.1,0.4c0,0.1,0.1,0.2,0.2,0.3c0.1,0.1,0.2,0.2,0.3,0.2c0.1,0,0.2,0.1,0.4,0.1
			c0.2,0,0.4,0,0.5-0.1c0.1-0.1,0.2-0.2,0.3-0.4l0.3,0.2c-0.1,0.2-0.2,0.4-0.4,0.5C104,126.5,103.7,126.6,103.4,126.6z M106.9,126.6
			c-0.2,0-0.4,0-0.6-0.1c-0.2-0.1-0.3-0.2-0.4-0.3c-0.1-0.1-0.2-0.3-0.3-0.5c-0.1-0.2-0.1-0.4-0.1-0.7c0-0.2,0-0.5,0.1-0.7
			c0.1-0.2,0.2-0.4,0.3-0.5c0.1-0.1,0.3-0.3,0.4-0.3c0.2-0.1,0.4-0.1,0.6-0.1c0.2,0,0.4,0,0.6,0.1c0.2,0.1,0.3,0.2,0.4,0.3
			c0.1,0.1,0.2,0.3,0.3,0.5s0.1,0.4,0.1,0.7c0,0.2,0,0.5-0.1,0.7c-0.1,0.2-0.2,0.4-0.3,0.5c-0.1,0.1-0.3,0.2-0.4,0.3
			C107.3,126.5,107.1,126.6,106.9,126.6z M106.9,126.1c0.3,0,0.5-0.1,0.6-0.2c0.2-0.2,0.2-0.4,0.2-0.7v-0.4c0-0.3-0.1-0.6-0.2-0.7
			c-0.2-0.2-0.4-0.2-0.6-0.2c-0.3,0-0.5,0.1-0.6,0.2c-0.2,0.2-0.2,0.4-0.2,0.7v0.4c0,0.3,0.1,0.6,0.2,0.7
			C106.4,126.1,106.7,126.1,106.9,126.1z M109,126.5v-3.1h0.4v0.4h0c0-0.1,0.1-0.2,0.2-0.3c0.1-0.1,0.2-0.1,0.4-0.1
			c0.2,0,0.3,0,0.4,0.1c0.1,0.1,0.1,0.2,0.2,0.3h0c0.1-0.1,0.1-0.3,0.2-0.3c0.1-0.1,0.2-0.1,0.4-0.1c0.3,0,0.4,0.1,0.5,0.3
			c0.1,0.2,0.1,0.4,0.1,0.8v2.1h-0.4v-2.1c0-0.3,0-0.4-0.1-0.5c-0.1-0.1-0.2-0.2-0.3-0.2c-0.1,0-0.2,0-0.3,0.1
			c-0.1,0.1-0.1,0.2-0.1,0.4v2.3h-0.4v-2.1c0-0.3,0-0.4-0.1-0.5c-0.1-0.1-0.1-0.2-0.3-0.2c-0.1,0-0.2,0-0.3,0.1
			c-0.1,0.1-0.1,0.2-0.1,0.4v2.3H109z M112.9,127.3l2.1-5.4h0.4l-2.1,5.4H112.9z M14.3,134.4v-1.3h0l-0.9,2.2l-0.9-2.2h0v1.3v2.1H12
			v-4.2h0.6l0.7,1.8h0l0.7-1.8h0.6v4.2h-0.5V134.4z M17,136.6c-0.2,0-0.4,0-0.6-0.1c-0.2-0.1-0.3-0.2-0.5-0.3
			c-0.1-0.1-0.2-0.3-0.3-0.5c-0.1-0.2-0.1-0.4-0.1-0.7c0-0.2,0-0.5,0.1-0.7c0.1-0.2,0.2-0.4,0.3-0.5c0.1-0.1,0.3-0.3,0.4-0.3
			c0.2-0.1,0.4-0.1,0.6-0.1c0.2,0,0.4,0,0.6,0.1c0.2,0.1,0.3,0.2,0.4,0.3c0.1,0.1,0.2,0.3,0.3,0.5c0.1,0.2,0.1,0.4,0.1,0.6v0.2h-2.3
			v0.1c0,0.1,0,0.3,0.1,0.4c0,0.1,0.1,0.2,0.2,0.3c0.1,0.1,0.2,0.1,0.3,0.2c0.1,0,0.3,0.1,0.4,0.1c0.2,0,0.4,0,0.5-0.1
			c0.2-0.1,0.3-0.2,0.3-0.4l0.4,0.2c-0.1,0.2-0.2,0.4-0.5,0.5C17.6,136.5,17.3,136.6,17,136.6z M17,133.7c-0.1,0-0.3,0-0.4,0.1
			c-0.1,0-0.2,0.1-0.3,0.2c-0.1,0.1-0.1,0.2-0.2,0.3c0,0.1-0.1,0.2-0.1,0.4v0h1.8v-0.1c0-0.1,0-0.3-0.1-0.4c0-0.1-0.1-0.2-0.2-0.3
			c-0.1-0.1-0.2-0.1-0.3-0.2C17.3,133.7,17.1,133.7,17,133.7z M19.3,136.1h1.1v-3.6h-1.1V132h1.6v4h1.1v0.4h-2.6V136.1z M24.3,136.5
			c-0.2,0-0.4-0.1-0.5-0.2c-0.1-0.1-0.2-0.3-0.2-0.5v-2h-1v-0.4h0.8c0.1,0,0.2,0,0.2-0.1c0,0,0.1-0.1,0.1-0.2v-0.8h0.5v1.1h1.4v0.4
			h-1.4v2.3h1.4v0.4H24.3z M28.9,136.5c-0.2,0-0.3,0-0.4-0.1c-0.1-0.1-0.1-0.2-0.2-0.4h0c-0.1,0.2-0.2,0.3-0.3,0.4
			c-0.1,0.1-0.3,0.1-0.6,0.1c-0.3,0-0.6-0.1-0.8-0.3c-0.2-0.2-0.3-0.4-0.3-0.7c0-0.3,0.1-0.5,0.3-0.7c0.2-0.2,0.6-0.2,1-0.2h0.7
			v-0.3c0-0.2-0.1-0.4-0.2-0.5c-0.1-0.1-0.3-0.2-0.5-0.2c-0.2,0-0.4,0-0.5,0.1c-0.1,0.1-0.2,0.2-0.3,0.3l-0.3-0.2
			c0-0.1,0.1-0.2,0.2-0.2c0.1-0.1,0.2-0.1,0.3-0.2c0.1-0.1,0.2-0.1,0.3-0.1c0.1,0,0.3-0.1,0.4-0.1c0.4,0,0.7,0.1,0.9,0.3
			c0.2,0.2,0.3,0.4,0.3,0.8v1.7h0.4v0.4H28.9z M27.5,136.1c0.1,0,0.2,0,0.3,0c0.1,0,0.2-0.1,0.3-0.1c0.1-0.1,0.1-0.1,0.2-0.2
			c0-0.1,0.1-0.1,0.1-0.2v-0.5h-0.7c-0.3,0-0.5,0-0.6,0.1s-0.2,0.2-0.2,0.3v0.1c0,0.2,0.1,0.3,0.2,0.4
			C27.2,136.1,27.3,136.1,27.5,136.1z M30.2,136.5v-3.1h0.5v0.5h0c0-0.1,0.1-0.1,0.1-0.2c0-0.1,0.1-0.1,0.2-0.2
			c0.1-0.1,0.2-0.1,0.3-0.1c0.1,0,0.2,0,0.3,0c0.3,0,0.6,0.1,0.8,0.3c0.2,0.2,0.3,0.5,0.3,0.9v2h-0.5v-1.9c0-0.3-0.1-0.5-0.2-0.6
			c-0.1-0.1-0.3-0.2-0.5-0.2c-0.1,0-0.2,0-0.3,0s-0.2,0.1-0.2,0.1c-0.1,0-0.1,0.1-0.2,0.2c0,0.1-0.1,0.2-0.1,0.3v2.1H30.2z
			 M35,136.6c-0.2,0-0.4,0-0.6-0.1c-0.2-0.1-0.3-0.2-0.4-0.3c-0.1-0.1-0.2-0.3-0.3-0.5c-0.1-0.2-0.1-0.4-0.1-0.7
			c0-0.2,0-0.5,0.1-0.7c0.1-0.2,0.2-0.4,0.3-0.5c0.1-0.1,0.3-0.3,0.4-0.3c0.2-0.1,0.4-0.1,0.6-0.1s0.4,0,0.6,0.1
			c0.2,0.1,0.3,0.2,0.4,0.3c0.1,0.1,0.2,0.3,0.3,0.5s0.1,0.4,0.1,0.7c0,0.2,0,0.5-0.1,0.7c-0.1,0.2-0.2,0.4-0.3,0.5
			c-0.1,0.1-0.3,0.2-0.4,0.3C35.4,136.5,35.2,136.6,35,136.6z M35,136.1c0.3,0,0.5-0.1,0.6-0.2c0.2-0.2,0.2-0.4,0.2-0.7v-0.4
			c0-0.3-0.1-0.6-0.2-0.7c-0.2-0.2-0.4-0.2-0.6-0.2c-0.3,0-0.5,0.1-0.6,0.2c-0.2,0.2-0.2,0.4-0.2,0.7v0.4c0,0.3,0.1,0.6,0.2,0.7
			C34.5,136.1,34.7,136.1,35,136.1z M37.5,136.5v-4.2H38v3.8h2v0.4H37.5z M43.3,136.5c-0.2,0-0.3,0-0.4-0.1
			c-0.1-0.1-0.1-0.2-0.1-0.4h0c-0.1,0.2-0.2,0.3-0.3,0.4c-0.1,0.1-0.3,0.1-0.6,0.1c-0.3,0-0.6-0.1-0.8-0.3c-0.2-0.2-0.3-0.4-0.3-0.7
			c0-0.3,0.1-0.5,0.3-0.7c0.2-0.2,0.6-0.2,1-0.2h0.7v-0.3c0-0.2-0.1-0.4-0.2-0.5c-0.1-0.1-0.3-0.2-0.5-0.2c-0.2,0-0.4,0-0.5,0.1
			c-0.1,0.1-0.2,0.2-0.3,0.3l-0.3-0.2c0-0.1,0.1-0.2,0.2-0.2c0.1-0.1,0.2-0.1,0.3-0.2c0.1-0.1,0.2-0.1,0.3-0.1
			c0.1,0,0.3-0.1,0.4-0.1c0.4,0,0.7,0.1,0.9,0.3c0.2,0.2,0.3,0.4,0.3,0.8v1.7h0.4v0.4H43.3z M41.9,136.1c0.1,0,0.2,0,0.3,0
			c0.1,0,0.2-0.1,0.3-0.1c0.1-0.1,0.1-0.1,0.2-0.2c0-0.1,0.1-0.1,0.1-0.2v-0.5h-0.7c-0.3,0-0.5,0-0.6,0.1s-0.2,0.2-0.2,0.3v0.1
			c0,0.2,0.1,0.3,0.2,0.4C41.6,136.1,41.7,136.1,41.9,136.1z M44.5,132H45v1.8h0c0.2-0.4,0.5-0.6,1-0.6c0.4,0,0.7,0.1,0.9,0.4
			c0.2,0.3,0.3,0.7,0.3,1.2s-0.1,0.9-0.3,1.2c-0.2,0.3-0.5,0.4-0.9,0.4c-0.4,0-0.8-0.2-1-0.6h0v0.5h-0.5V132z M45.8,136.1
			c0.3,0,0.5-0.1,0.6-0.3c0.2-0.2,0.2-0.4,0.2-0.7v-0.5c0-0.3-0.1-0.5-0.2-0.7c-0.2-0.2-0.4-0.3-0.6-0.3c-0.1,0-0.2,0-0.3,0
			s-0.2,0.1-0.3,0.1c-0.1,0.1-0.1,0.1-0.2,0.2c0,0.1-0.1,0.2-0.1,0.3v1.1c0,0.1,0,0.2,0.1,0.3c0,0.1,0.1,0.1,0.2,0.2
			c0.1,0.1,0.2,0.1,0.3,0.1S45.7,136.1,45.8,136.1z M49.4,136.6c-0.3,0-0.6-0.1-0.8-0.2c-0.2-0.1-0.4-0.3-0.6-0.4l0.3-0.3
			c0.1,0.2,0.3,0.3,0.5,0.4c0.2,0.1,0.4,0.1,0.6,0.1c0.2,0,0.4,0,0.6-0.1c0.2-0.1,0.2-0.2,0.2-0.4c0-0.1,0-0.1,0-0.2
			c0-0.1-0.1-0.1-0.1-0.1c-0.1,0-0.1-0.1-0.2-0.1c-0.1,0-0.1,0-0.2,0l-0.5-0.1c-0.1,0-0.2,0-0.4-0.1c-0.1,0-0.2-0.1-0.3-0.1
			c-0.1-0.1-0.2-0.1-0.3-0.3c-0.1-0.1-0.1-0.2-0.1-0.4c0-0.2,0-0.3,0.1-0.4c0.1-0.1,0.2-0.2,0.3-0.3c0.1-0.1,0.2-0.1,0.4-0.2
			c0.2,0,0.3-0.1,0.5-0.1c0.3,0,0.5,0,0.7,0.1c0.2,0.1,0.4,0.2,0.5,0.4l-0.3,0.3c0,0-0.1-0.1-0.1-0.1c-0.1,0-0.1-0.1-0.2-0.1
			c-0.1,0-0.2-0.1-0.3-0.1c-0.1,0-0.2,0-0.4,0c-0.2,0-0.4,0-0.6,0.1c-0.1,0.1-0.2,0.2-0.2,0.4c0,0.1,0,0.1,0,0.2
			c0,0.1,0.1,0.1,0.1,0.1s0.1,0.1,0.2,0.1c0.1,0,0.1,0,0.2,0l0.5,0.1c0.1,0,0.2,0,0.4,0.1c0.1,0,0.2,0.1,0.3,0.1
			c0.1,0.1,0.2,0.1,0.3,0.2c0.1,0.1,0.1,0.2,0.1,0.4c0,0.3-0.1,0.5-0.4,0.7C50.1,136.5,49.8,136.6,49.4,136.6z M51.7,137.3l2.1-5.4
			h0.4l-2.1,5.4H51.7z M56.7,136.5c-0.2,0-0.4-0.1-0.5-0.2c-0.1-0.1-0.2-0.3-0.2-0.5v-2h-1v-0.4h0.8c0.1,0,0.2,0,0.2-0.1
			c0,0,0.1-0.1,0.1-0.2v-0.8h0.5v1.1h1.4v0.4h-1.4v2.3h1.4v0.4H56.7z M61.3,136.5c-0.2,0-0.3,0-0.4-0.1c-0.1-0.1-0.1-0.2-0.2-0.4h0
			c-0.1,0.2-0.2,0.3-0.3,0.4c-0.1,0.1-0.3,0.1-0.6,0.1c-0.3,0-0.6-0.1-0.8-0.3c-0.2-0.2-0.3-0.4-0.3-0.7c0-0.3,0.1-0.5,0.3-0.7
			c0.2-0.2,0.6-0.2,1-0.2h0.7v-0.3c0-0.2-0.1-0.4-0.2-0.5c-0.1-0.1-0.3-0.2-0.5-0.2c-0.2,0-0.4,0-0.5,0.1c-0.1,0.1-0.2,0.2-0.3,0.3
			l-0.3-0.2c0-0.1,0.1-0.2,0.2-0.2c0.1-0.1,0.2-0.1,0.3-0.2c0.1-0.1,0.2-0.1,0.3-0.1c0.1,0,0.3-0.1,0.4-0.1c0.4,0,0.7,0.1,0.9,0.3
			c0.2,0.2,0.3,0.4,0.3,0.8v1.7h0.4v0.4H61.3z M59.9,136.1c0.1,0,0.2,0,0.3,0c0.1,0,0.2-0.1,0.3-0.1c0.1-0.1,0.1-0.1,0.2-0.2
			c0-0.1,0.1-0.1,0.1-0.2v-0.5h-0.7c-0.3,0-0.5,0-0.6,0.1c-0.1,0.1-0.2,0.2-0.2,0.3v0.1c0,0.2,0.1,0.3,0.2,0.4
			C59.5,136.1,59.7,136.1,59.9,136.1z M62.5,133.4H63v0.5h0c0.2-0.4,0.5-0.6,1-0.6c0.4,0,0.7,0.1,0.9,0.4c0.2,0.3,0.3,0.7,0.3,1.2
			s-0.1,0.9-0.3,1.2c-0.2,0.3-0.5,0.4-0.9,0.4c-0.4,0-0.8-0.2-1-0.6h0v1.7h-0.5V133.4z M63.8,136.1c0.3,0,0.5-0.1,0.6-0.3
			c0.2-0.2,0.2-0.4,0.2-0.7v-0.5c0-0.3-0.1-0.5-0.2-0.7c-0.2-0.2-0.4-0.3-0.6-0.3c-0.1,0-0.2,0-0.3,0c-0.1,0-0.2,0.1-0.3,0.1
			c-0.1,0.1-0.1,0.1-0.2,0.2c0,0.1-0.1,0.2-0.1,0.3v1.1c0,0.1,0,0.2,0.1,0.3c0,0.1,0.1,0.1,0.2,0.2c0.1,0.1,0.2,0.1,0.3,0.1
			C63.6,136.1,63.7,136.1,63.8,136.1z M66.5,134.9v-0.5h1.7v0.5H66.5z M72.5,136.8c0,0.3-0.1,0.5-0.4,0.7c-0.3,0.2-0.7,0.2-1.2,0.2
			c-0.5,0-0.9-0.1-1.1-0.2c-0.2-0.1-0.3-0.3-0.3-0.6c0-0.2,0-0.3,0.1-0.4c0.1-0.1,0.2-0.2,0.4-0.2v-0.1c-0.1,0-0.2-0.1-0.2-0.2
			c0-0.1-0.1-0.2-0.1-0.3c0-0.2,0.1-0.3,0.2-0.4c0.1-0.1,0.2-0.1,0.4-0.2v0c-0.2-0.1-0.3-0.2-0.5-0.4c-0.1-0.2-0.2-0.4-0.2-0.6
			c0-0.2,0-0.3,0.1-0.4c0.1-0.1,0.1-0.2,0.2-0.3c0.1-0.1,0.2-0.2,0.4-0.2c0.1-0.1,0.3-0.1,0.5-0.1c0.2,0,0.4,0,0.6,0.1v-0.1
			c0-0.1,0-0.2,0.1-0.3c0.1-0.1,0.2-0.1,0.3-0.1h0.6v0.4h-0.7v0.2c0.1,0.1,0.2,0.2,0.3,0.3s0.1,0.3,0.1,0.4c0,0.2,0,0.3-0.1,0.4
			c-0.1,0.1-0.1,0.2-0.2,0.3c-0.1,0.1-0.2,0.2-0.4,0.2c-0.1,0.1-0.3,0.1-0.5,0.1c-0.1,0-0.1,0-0.2,0c0,0-0.1,0-0.1,0
			c0,0-0.1,0-0.1,0c-0.1,0-0.1,0-0.1,0.1c0,0-0.1,0.1-0.1,0.1c0,0,0,0.1,0,0.1c0,0.1,0,0.2,0.1,0.2c0.1,0,0.2,0,0.4,0h0.7
			c0.4,0,0.7,0.1,0.9,0.2C72.4,136.4,72.5,136.6,72.5,136.8z M72.1,136.9c0-0.1,0-0.2-0.2-0.3c-0.1-0.1-0.3-0.1-0.5-0.1h-1.1
			c-0.2,0.1-0.3,0.2-0.3,0.4c0,0.1,0.1,0.3,0.2,0.3c0.1,0.1,0.3,0.2,0.5,0.2h0.5c0.3,0,0.5,0,0.7-0.1C72,137.2,72.1,137,72.1,136.9z
			 M70.9,135.1c0.2,0,0.4-0.1,0.5-0.2c0.1-0.1,0.2-0.3,0.2-0.4v-0.2c0-0.2-0.1-0.3-0.2-0.4c-0.1-0.1-0.3-0.2-0.5-0.2
			c-0.2,0-0.4,0.1-0.5,0.2c-0.1,0.1-0.2,0.3-0.2,0.4v0.2c0,0.2,0.1,0.3,0.2,0.4C70.5,135,70.7,135.1,70.9,135.1z M74.7,132.7
			c-0.1,0-0.2,0-0.3-0.1c-0.1-0.1-0.1-0.1-0.1-0.2v-0.1c0-0.1,0-0.2,0.1-0.2c0.1-0.1,0.2-0.1,0.3-0.1s0.2,0,0.3,0.1
			c0.1,0.1,0.1,0.1,0.1,0.2v0.1c0,0.1,0,0.2-0.1,0.2C75,132.7,74.9,132.7,74.7,132.7z M73.4,136.1h1.1v-2.3h-1.1v-0.4H75v2.7h1v0.4
			h-2.6V136.1z M78.3,136.5c-0.2,0-0.4-0.1-0.5-0.2c-0.1-0.1-0.2-0.3-0.2-0.5v-2h-1v-0.4h0.8c0.1,0,0.2,0,0.2-0.1
			c0,0,0.1-0.1,0.1-0.2v-0.8h0.5v1.1h1.4v0.4h-1.4v2.3h1.4v0.4H78.3z M80.5,132H81v1.8h0c0-0.1,0.1-0.1,0.1-0.2
			c0-0.1,0.1-0.1,0.2-0.2c0.1-0.1,0.2-0.1,0.3-0.1c0.1,0,0.2,0,0.3,0c0.3,0,0.6,0.1,0.8,0.3c0.2,0.2,0.3,0.5,0.3,0.9v2h-0.5v-1.9
			c0-0.3-0.1-0.5-0.2-0.6c-0.1-0.1-0.3-0.2-0.5-0.2c-0.1,0-0.2,0-0.3,0c-0.1,0-0.2,0.1-0.2,0.1c-0.1,0-0.1,0.1-0.2,0.2
			s-0.1,0.2-0.1,0.3v2.1h-0.5V132z M86.1,136L86.1,136c-0.1,0.1-0.1,0.1-0.1,0.2c0,0.1-0.1,0.1-0.2,0.2c-0.1,0.1-0.2,0.1-0.2,0.1
			c-0.1,0-0.2,0-0.3,0c-0.3,0-0.6-0.1-0.8-0.3c-0.2-0.2-0.3-0.5-0.3-0.9v-2h0.5v1.9c0,0.3,0.1,0.5,0.2,0.6c0.1,0.1,0.3,0.2,0.5,0.2
			c0.1,0,0.2,0,0.3,0c0.1,0,0.2-0.1,0.2-0.1s0.1-0.1,0.2-0.2c0-0.1,0.1-0.2,0.1-0.3v-2.1h0.5v3.1h-0.5V136z M87.7,132h0.5v1.8h0
			c0.2-0.4,0.5-0.6,1-0.6c0.4,0,0.7,0.1,0.9,0.4c0.2,0.3,0.3,0.7,0.3,1.2s-0.1,0.9-0.3,1.2c-0.2,0.3-0.5,0.4-0.9,0.4
			c-0.4,0-0.8-0.2-1-0.6h0v0.5h-0.5V132z M89,136.1c0.3,0,0.5-0.1,0.6-0.3c0.2-0.2,0.2-0.4,0.2-0.7v-0.5c0-0.3-0.1-0.5-0.2-0.7
			c-0.2-0.2-0.4-0.3-0.6-0.3c-0.1,0-0.2,0-0.3,0s-0.2,0.1-0.3,0.1c-0.1,0.1-0.1,0.1-0.2,0.2c0,0.1-0.1,0.2-0.1,0.3v1.1
			c0,0.1,0,0.2,0.1,0.3c0,0.1,0.1,0.1,0.2,0.2c0.1,0.1,0.2,0.1,0.3,0.1S88.9,136.1,89,136.1z M15,146.8c0,0.3-0.1,0.5-0.4,0.7
			c-0.3,0.2-0.6,0.2-1.2,0.2c-0.5,0-0.9-0.1-1.1-0.2c-0.2-0.1-0.3-0.3-0.3-0.6c0-0.2,0-0.3,0.1-0.4c0.1-0.1,0.2-0.2,0.4-0.2v-0.1
			c-0.1,0-0.2-0.1-0.2-0.2c0-0.1-0.1-0.2-0.1-0.3c0-0.2,0.1-0.3,0.2-0.4c0.1-0.1,0.2-0.1,0.4-0.2v0c-0.2-0.1-0.3-0.2-0.5-0.4
			c-0.1-0.2-0.2-0.4-0.2-0.6c0-0.2,0-0.3,0.1-0.4c0.1-0.1,0.1-0.2,0.2-0.3c0.1-0.1,0.2-0.2,0.4-0.2c0.1-0.1,0.3-0.1,0.5-0.1
			c0.2,0,0.4,0,0.6,0.1v-0.1c0-0.1,0-0.2,0.1-0.3c0.1-0.1,0.2-0.1,0.3-0.1h0.6v0.4h-0.7v0.2c0.1,0.1,0.2,0.2,0.3,0.3
			c0.1,0.1,0.1,0.3,0.1,0.4c0,0.2,0,0.3-0.1,0.4c-0.1,0.1-0.1,0.2-0.2,0.3c-0.1,0.1-0.2,0.2-0.4,0.2c-0.1,0.1-0.3,0.1-0.5,0.1
			c-0.1,0-0.1,0-0.1,0c0,0-0.1,0-0.1,0c0,0-0.1,0-0.1,0c-0.1,0-0.1,0-0.1,0.1c0,0-0.1,0.1-0.1,0.1c0,0,0,0.1,0,0.1
			c0,0.1,0,0.2,0.1,0.2c0.1,0,0.2,0,0.4,0h0.7c0.4,0,0.7,0.1,0.9,0.2C14.9,146.4,15,146.6,15,146.8z M14.5,146.9
			c0-0.1-0.1-0.2-0.1-0.3c-0.1-0.1-0.3-0.1-0.5-0.1h-1.1c-0.2,0.1-0.3,0.2-0.3,0.4c0,0.1,0.1,0.3,0.2,0.3c0.1,0.1,0.3,0.2,0.5,0.2
			h0.5c0.3,0,0.5,0,0.7-0.1C14.4,147.2,14.5,147,14.5,146.9z M13.4,145.1c0.2,0,0.4-0.1,0.5-0.2c0.1-0.1,0.2-0.3,0.2-0.4v-0.2
			c0-0.2-0.1-0.3-0.2-0.4c-0.1-0.1-0.3-0.2-0.5-0.2s-0.4,0.1-0.5,0.2c-0.1,0.1-0.2,0.3-0.2,0.4v0.2c0,0.2,0.1,0.3,0.2,0.4
			S13.1,145.1,13.4,145.1z M17.2,142.7c-0.1,0-0.2,0-0.3-0.1c-0.1-0.1-0.1-0.1-0.1-0.2v-0.1c0-0.1,0-0.2,0.1-0.2
			c0.1-0.1,0.2-0.1,0.3-0.1c0.1,0,0.2,0,0.3,0.1c0.1,0.1,0.1,0.1,0.1,0.2v0.1c0,0.1,0,0.2-0.1,0.2C17.4,142.7,17.3,142.7,17.2,142.7
			z M15.8,146.1h1.1v-2.3h-1.1v-0.4h1.6v2.7h1v0.4h-2.6V146.1z M20.7,146.5c-0.2,0-0.4-0.1-0.5-0.2c-0.1-0.1-0.2-0.3-0.2-0.5v-2h-1
			v-0.4h0.8c0.1,0,0.2,0,0.2-0.1c0,0,0.1-0.1,0.1-0.2v-0.8h0.5v1.1h1.4v0.4h-1.4v2.3h1.4v0.4H20.7z M27.9,146.6
			c-0.2,0-0.4,0-0.6-0.1c-0.2-0.1-0.3-0.2-0.4-0.3s-0.2-0.3-0.3-0.5c-0.1-0.2-0.1-0.4-0.1-0.7s0-0.5,0.1-0.7
			c0.1-0.2,0.2-0.4,0.3-0.5c0.1-0.1,0.3-0.3,0.4-0.3s0.4-0.1,0.6-0.1c0.3,0,0.5,0.1,0.7,0.2s0.3,0.3,0.4,0.5l-0.4,0.2
			c-0.1-0.2-0.2-0.3-0.3-0.4c-0.1-0.1-0.3-0.1-0.5-0.1c-0.1,0-0.3,0-0.4,0.1c-0.1,0-0.2,0.1-0.3,0.2s-0.1,0.2-0.2,0.3
			c0,0.1-0.1,0.2-0.1,0.4v0.5c0,0.1,0,0.3,0.1,0.4c0,0.1,0.1,0.2,0.2,0.3s0.2,0.1,0.3,0.2c0.1,0,0.2,0.1,0.4,0.1
			c0.2,0,0.4,0,0.5-0.1c0.1-0.1,0.2-0.2,0.3-0.4l0.3,0.2c-0.1,0.2-0.2,0.4-0.4,0.5C28.5,146.5,28.2,146.6,27.9,146.6z M30.1,146.1
			h1.1v-3.6h-1.1V142h1.6v4h1.1v0.4h-2.6V146.1z M35,146.6c-0.2,0-0.4,0-0.6-0.1c-0.2-0.1-0.3-0.2-0.4-0.3c-0.1-0.1-0.2-0.3-0.3-0.5
			c-0.1-0.2-0.1-0.4-0.1-0.7c0-0.2,0-0.5,0.1-0.7c0.1-0.2,0.2-0.4,0.3-0.5c0.1-0.1,0.3-0.3,0.4-0.3c0.2-0.1,0.4-0.1,0.6-0.1
			s0.4,0,0.6,0.1c0.2,0.1,0.3,0.2,0.4,0.3c0.1,0.1,0.2,0.3,0.3,0.5s0.1,0.4,0.1,0.7c0,0.2,0,0.5-0.1,0.7c-0.1,0.2-0.2,0.4-0.3,0.5
			c-0.1,0.1-0.3,0.2-0.4,0.3C35.4,146.5,35.2,146.6,35,146.6z M35,146.1c0.3,0,0.5-0.1,0.6-0.2c0.2-0.2,0.2-0.4,0.2-0.7v-0.4
			c0-0.3-0.1-0.6-0.2-0.7c-0.2-0.2-0.4-0.2-0.6-0.2c-0.3,0-0.5,0.1-0.6,0.2c-0.2,0.2-0.2,0.4-0.2,0.7v0.4c0,0.3,0.1,0.6,0.2,0.7
			C34.5,146.1,34.7,146.1,35,146.1z M37.4,146.5v-3.1h0.5v0.5h0c0-0.1,0.1-0.1,0.1-0.2c0-0.1,0.1-0.1,0.2-0.2
			c0.1-0.1,0.2-0.1,0.3-0.1c0.1,0,0.2,0,0.3,0c0.3,0,0.6,0.1,0.8,0.3c0.2,0.2,0.3,0.5,0.3,0.9v2h-0.5v-1.9c0-0.3-0.1-0.5-0.2-0.6
			c-0.1-0.1-0.3-0.2-0.5-0.2c-0.1,0-0.2,0-0.3,0s-0.2,0.1-0.2,0.1c-0.1,0-0.1,0.1-0.2,0.2c0,0.1-0.1,0.2-0.1,0.3v2.1H37.4z
			 M42.2,146.6c-0.2,0-0.4,0-0.6-0.1c-0.2-0.1-0.3-0.2-0.5-0.3c-0.1-0.1-0.2-0.3-0.3-0.5c-0.1-0.2-0.1-0.4-0.1-0.7
			c0-0.2,0-0.5,0.1-0.7c0.1-0.2,0.2-0.4,0.3-0.5c0.1-0.1,0.3-0.3,0.4-0.3c0.2-0.1,0.4-0.1,0.6-0.1c0.2,0,0.4,0,0.6,0.1
			c0.2,0.1,0.3,0.2,0.4,0.3c0.1,0.1,0.2,0.3,0.3,0.5c0.1,0.2,0.1,0.4,0.1,0.6v0.2h-2.3v0.1c0,0.1,0,0.3,0.1,0.4
			c0,0.1,0.1,0.2,0.2,0.3c0.1,0.1,0.2,0.1,0.3,0.2c0.1,0,0.3,0.1,0.4,0.1c0.2,0,0.4,0,0.5-0.1c0.2-0.1,0.3-0.2,0.3-0.4l0.4,0.2
			c-0.1,0.2-0.2,0.4-0.5,0.5C42.8,146.5,42.5,146.6,42.2,146.6z M42.2,143.7c-0.1,0-0.3,0-0.4,0.1c-0.1,0-0.2,0.1-0.3,0.2
			c-0.1,0.1-0.1,0.2-0.2,0.3c0,0.1-0.1,0.2-0.1,0.4v0h1.8v-0.1c0-0.1,0-0.3-0.1-0.4c0-0.1-0.1-0.2-0.2-0.3c-0.1-0.1-0.2-0.1-0.3-0.2
			C42.4,143.7,42.3,143.7,42.2,143.7z M48.2,142h0.5v1.8h0c0-0.1,0.1-0.1,0.1-0.2c0-0.1,0.1-0.1,0.2-0.2c0.1-0.1,0.2-0.1,0.3-0.1
			c0.1,0,0.2,0,0.3,0c0.3,0,0.6,0.1,0.8,0.3c0.2,0.2,0.3,0.5,0.3,0.9v2h-0.5v-1.9c0-0.3-0.1-0.5-0.2-0.6c-0.1-0.1-0.3-0.2-0.5-0.2
			c-0.1,0-0.2,0-0.3,0s-0.2,0.1-0.2,0.1c-0.1,0-0.1,0.1-0.2,0.2s-0.1,0.2-0.1,0.3v2.1h-0.5V142z M53.1,146.5c-0.2,0-0.4-0.1-0.5-0.2
			c-0.1-0.1-0.2-0.3-0.2-0.5v-2h-1v-0.4h0.8c0.1,0,0.2,0,0.2-0.1c0,0,0.1-0.1,0.1-0.2v-0.8h0.5v1.1h1.4v0.4h-1.4v2.3h1.4v0.4H53.1z
			 M56.7,146.5c-0.2,0-0.4-0.1-0.5-0.2c-0.1-0.1-0.2-0.3-0.2-0.5v-2h-1v-0.4h0.8c0.1,0,0.2,0,0.2-0.1c0,0,0.1-0.1,0.1-0.2v-0.8h0.5
			v1.1h1.4v0.4h-1.4v2.3h1.4v0.4H56.7z M58.9,143.4h0.5v0.5h0c0.2-0.4,0.5-0.6,1-0.6c0.4,0,0.7,0.1,0.9,0.4c0.2,0.3,0.3,0.7,0.3,1.2
			s-0.1,0.9-0.3,1.2c-0.2,0.3-0.5,0.4-0.9,0.4c-0.4,0-0.8-0.2-1-0.6h0v1.7h-0.5V143.4z M60.2,146.1c0.3,0,0.5-0.1,0.6-0.3
			c0.2-0.2,0.2-0.4,0.2-0.7v-0.5c0-0.3-0.1-0.5-0.2-0.7c-0.2-0.2-0.4-0.3-0.6-0.3c-0.1,0-0.2,0-0.3,0s-0.2,0.1-0.3,0.1
			c-0.1,0.1-0.1,0.1-0.2,0.2c0,0.1-0.1,0.2-0.1,0.3v1.1c0,0.1,0,0.2,0.1,0.3c0,0.1,0.1,0.1,0.2,0.2c0.1,0.1,0.2,0.1,0.3,0.1
			S60.1,146.1,60.2,146.1z M63.8,146.6c-0.3,0-0.6-0.1-0.8-0.2c-0.2-0.1-0.4-0.3-0.6-0.4l0.3-0.3c0.1,0.2,0.3,0.3,0.5,0.4
			s0.4,0.1,0.6,0.1c0.2,0,0.4,0,0.6-0.1c0.2-0.1,0.2-0.2,0.2-0.4c0-0.1,0-0.1,0-0.2c0-0.1-0.1-0.1-0.1-0.1s-0.1-0.1-0.2-0.1
			c-0.1,0-0.1,0-0.2,0l-0.5-0.1c-0.1,0-0.2,0-0.4-0.1c-0.1,0-0.2-0.1-0.3-0.1c-0.1-0.1-0.2-0.1-0.3-0.3c-0.1-0.1-0.1-0.2-0.1-0.4
			c0-0.2,0-0.3,0.1-0.4c0.1-0.1,0.2-0.2,0.3-0.3c0.1-0.1,0.2-0.1,0.4-0.2c0.2,0,0.3-0.1,0.5-0.1c0.3,0,0.5,0,0.7,0.1
			c0.2,0.1,0.4,0.2,0.5,0.4l-0.3,0.3c0,0-0.1-0.1-0.1-0.1c-0.1,0-0.1-0.1-0.2-0.1c-0.1,0-0.2-0.1-0.3-0.1c-0.1,0-0.2,0-0.4,0
			c-0.2,0-0.4,0-0.6,0.1c-0.1,0.1-0.2,0.2-0.2,0.4c0,0.1,0,0.1,0,0.2c0,0.1,0.1,0.1,0.1,0.1c0.1,0,0.1,0.1,0.2,0.1
			c0.1,0,0.1,0,0.2,0l0.5,0.1c0.1,0,0.2,0,0.4,0.1s0.2,0.1,0.3,0.1c0.1,0.1,0.2,0.1,0.3,0.2c0.1,0.1,0.1,0.2,0.1,0.4
			c0,0.3-0.1,0.5-0.4,0.7C64.5,146.5,64.2,146.6,63.8,146.6z M67.4,146.5c-0.2,0-0.3,0-0.3-0.1c-0.1-0.1-0.1-0.2-0.1-0.3v-0.1
			c0-0.1,0-0.2,0.1-0.3c0.1-0.1,0.2-0.1,0.3-0.1s0.3,0,0.3,0.1c0.1,0.1,0.1,0.2,0.1,0.3v0.1c0,0.1,0,0.2-0.1,0.3
			C67.6,146.5,67.5,146.5,67.4,146.5z M67.4,144.2c-0.2,0-0.3,0-0.3-0.1c-0.1-0.1-0.1-0.2-0.1-0.3v-0.1c0-0.1,0-0.2,0.1-0.3
			c0.1-0.1,0.2-0.1,0.3-0.1s0.3,0,0.3,0.1c0.1,0.1,0.1,0.2,0.1,0.3v0.1c0,0.1,0,0.2-0.1,0.3C67.6,144.1,67.5,144.2,67.4,144.2z
			 M69.7,147.3l2.1-5.4h0.4l-2.1,5.4H69.7z M73.3,147.3l2.1-5.4h0.4l-2.1,5.4H73.3z M79.7,146.8c0,0.3-0.1,0.5-0.4,0.7
			c-0.3,0.2-0.7,0.2-1.2,0.2c-0.5,0-0.9-0.1-1.1-0.2c-0.2-0.1-0.3-0.3-0.3-0.6c0-0.2,0-0.3,0.1-0.4s0.2-0.2,0.4-0.2v-0.1
			c-0.1,0-0.2-0.1-0.2-0.2c0-0.1-0.1-0.2-0.1-0.3c0-0.2,0.1-0.3,0.2-0.4c0.1-0.1,0.2-0.1,0.4-0.2v0c-0.2-0.1-0.3-0.2-0.4-0.4
			c-0.1-0.2-0.2-0.4-0.2-0.6c0-0.2,0-0.3,0.1-0.4c0.1-0.1,0.1-0.2,0.2-0.3c0.1-0.1,0.2-0.2,0.4-0.2c0.1-0.1,0.3-0.1,0.5-0.1
			c0.2,0,0.4,0,0.6,0.1v-0.1c0-0.1,0-0.2,0.1-0.3c0.1-0.1,0.2-0.1,0.3-0.1h0.6v0.4H79v0.2c0.1,0.1,0.2,0.2,0.3,0.3
			c0.1,0.1,0.1,0.3,0.1,0.4c0,0.2,0,0.3-0.1,0.4c-0.1,0.1-0.1,0.2-0.2,0.3c-0.1,0.1-0.2,0.2-0.4,0.2c-0.1,0.1-0.3,0.1-0.5,0.1
			c-0.1,0-0.1,0-0.2,0c0,0-0.1,0-0.1,0c0,0-0.1,0-0.2,0c-0.1,0-0.1,0-0.1,0.1c0,0-0.1,0.1-0.1,0.1c0,0,0,0.1,0,0.1
			c0,0.1,0,0.2,0.1,0.2c0.1,0,0.2,0,0.4,0h0.7c0.4,0,0.7,0.1,0.9,0.2C79.6,146.4,79.7,146.6,79.7,146.8z M79.3,146.9
			c0-0.1-0.1-0.2-0.2-0.3c-0.1-0.1-0.3-0.1-0.5-0.1h-1.1c-0.2,0.1-0.3,0.2-0.3,0.4c0,0.1,0.1,0.3,0.2,0.3c0.1,0.1,0.3,0.2,0.5,0.2
			h0.5c0.3,0,0.5,0,0.7-0.1C79.2,147.2,79.3,147,79.3,146.9z M78.1,145.1c0.2,0,0.4-0.1,0.5-0.2c0.1-0.1,0.2-0.3,0.2-0.4v-0.2
			c0-0.2-0.1-0.3-0.2-0.4c-0.1-0.1-0.3-0.2-0.5-0.2s-0.4,0.1-0.5,0.2c-0.1,0.1-0.2,0.3-0.2,0.4v0.2c0,0.2,0.1,0.3,0.2,0.4
			S77.9,145.1,78.1,145.1z M81.9,142.7c-0.1,0-0.2,0-0.3-0.1c-0.1-0.1-0.1-0.1-0.1-0.2v-0.1c0-0.1,0-0.2,0.1-0.2
			c0.1-0.1,0.2-0.1,0.3-0.1s0.2,0,0.3,0.1c0.1,0.1,0.1,0.1,0.1,0.2v0.1c0,0.1,0,0.2-0.1,0.2C82.2,142.7,82.1,142.7,81.9,142.7z
			 M80.6,146.1h1.1v-2.3h-1.1v-0.4h1.6v2.7h1v0.4h-2.6V146.1z M85.5,146.5c-0.2,0-0.4-0.1-0.5-0.2c-0.1-0.1-0.2-0.3-0.2-0.5v-2h-1
			v-0.4h0.8c0.1,0,0.2,0,0.2-0.1c0,0,0.1-0.1,0.1-0.2v-0.8h0.5v1.1h1.4v0.4h-1.4v2.3h1.4v0.4H85.5z M87.7,142h0.5v1.8h0
			c0-0.1,0.1-0.1,0.1-0.2c0-0.1,0.1-0.1,0.2-0.2c0.1-0.1,0.2-0.1,0.3-0.1c0.1,0,0.2,0,0.3,0c0.3,0,0.6,0.1,0.8,0.3
			c0.2,0.2,0.3,0.5,0.3,0.9v2h-0.5v-1.9c0-0.3-0.1-0.5-0.2-0.6c-0.1-0.1-0.3-0.2-0.5-0.2c-0.1,0-0.2,0-0.3,0s-0.2,0.1-0.2,0.1
			s-0.1,0.1-0.2,0.2c0,0.1-0.1,0.2-0.1,0.3v2.1h-0.5V142z M93.3,146L93.3,146c-0.1,0.1-0.1,0.1-0.1,0.2c0,0.1-0.1,0.1-0.2,0.2
			c-0.1,0.1-0.2,0.1-0.2,0.1c-0.1,0-0.2,0-0.3,0c-0.3,0-0.6-0.1-0.8-0.3c-0.2-0.2-0.3-0.5-0.3-0.9v-2h0.5v1.9c0,0.3,0.1,0.5,0.2,0.6
			c0.1,0.1,0.3,0.2,0.5,0.2c0.1,0,0.2,0,0.3,0c0.1,0,0.2-0.1,0.2-0.1s0.1-0.1,0.2-0.2c0-0.1,0.1-0.2,0.1-0.3v-2.1h0.5v3.1h-0.5V146z
			 M94.9,142h0.5v1.8h0c0.2-0.4,0.5-0.6,1-0.6c0.4,0,0.7,0.1,0.9,0.4c0.2,0.3,0.3,0.7,0.3,1.2s-0.1,0.9-0.3,1.2
			c-0.2,0.3-0.5,0.4-0.9,0.4c-0.4,0-0.8-0.2-1-0.6h0v0.5h-0.5V142z M96.2,146.1c0.3,0,0.5-0.1,0.6-0.3c0.2-0.2,0.2-0.4,0.2-0.7v-0.5
			c0-0.3-0.1-0.5-0.2-0.7c-0.2-0.2-0.4-0.3-0.6-0.3c-0.1,0-0.2,0-0.3,0s-0.2,0.1-0.3,0.1c-0.1,0.1-0.1,0.1-0.2,0.2
			c0,0.1-0.1,0.2-0.1,0.3v1.1c0,0.1,0,0.2,0.1,0.3c0,0.1,0.1,0.1,0.2,0.2c0.1,0.1,0.2,0.1,0.3,0.1S96.1,146.1,96.2,146.1z
			 M99.7,146.5c-0.2,0-0.3,0-0.3-0.1c-0.1-0.1-0.1-0.2-0.1-0.3v-0.1c0-0.1,0-0.2,0.1-0.3c0.1-0.1,0.2-0.1,0.3-0.1s0.3,0,0.3,0.1
			c0.1,0.1,0.1,0.2,0.1,0.3v0.1c0,0.1,0,0.2-0.1,0.3C100,146.5,99.9,146.5,99.7,146.5z M103.4,146.6c-0.2,0-0.4,0-0.6-0.1
			c-0.2-0.1-0.3-0.2-0.4-0.3c-0.1-0.1-0.2-0.3-0.3-0.5c-0.1-0.2-0.1-0.4-0.1-0.7s0-0.5,0.1-0.7c0.1-0.2,0.2-0.4,0.3-0.5
			c0.1-0.1,0.3-0.3,0.4-0.3c0.2-0.1,0.4-0.1,0.6-0.1c0.3,0,0.5,0.1,0.7,0.2c0.2,0.1,0.3,0.3,0.4,0.5l-0.4,0.2
			c-0.1-0.2-0.2-0.3-0.3-0.4c-0.1-0.1-0.3-0.1-0.5-0.1c-0.1,0-0.3,0-0.4,0.1c-0.1,0-0.2,0.1-0.3,0.2c-0.1,0.1-0.1,0.2-0.2,0.3
			c0,0.1-0.1,0.2-0.1,0.4v0.5c0,0.1,0,0.3,0.1,0.4c0,0.1,0.1,0.2,0.2,0.3c0.1,0.1,0.2,0.1,0.3,0.2c0.1,0,0.2,0.1,0.4,0.1
			c0.2,0,0.4,0,0.5-0.1c0.1-0.1,0.2-0.2,0.3-0.4l0.3,0.2c-0.1,0.2-0.2,0.4-0.4,0.5C104,146.5,103.7,146.6,103.4,146.6z M106.9,146.6
			c-0.2,0-0.4,0-0.6-0.1c-0.2-0.1-0.3-0.2-0.4-0.3c-0.1-0.1-0.2-0.3-0.3-0.5c-0.1-0.2-0.1-0.4-0.1-0.7c0-0.2,0-0.5,0.1-0.7
			c0.1-0.2,0.2-0.4,0.3-0.5c0.1-0.1,0.3-0.3,0.4-0.3c0.2-0.1,0.4-0.1,0.6-0.1c0.2,0,0.4,0,0.6,0.1c0.2,0.1,0.3,0.2,0.4,0.3
			c0.1,0.1,0.2,0.3,0.3,0.5s0.1,0.4,0.1,0.7c0,0.2,0,0.5-0.1,0.7c-0.1,0.2-0.2,0.4-0.3,0.5c-0.1,0.1-0.3,0.2-0.4,0.3
			C107.3,146.5,107.1,146.6,106.9,146.6z M106.9,146.1c0.3,0,0.5-0.1,0.6-0.2c0.2-0.2,0.2-0.4,0.2-0.7v-0.4c0-0.3-0.1-0.6-0.2-0.7
			c-0.2-0.2-0.4-0.2-0.6-0.2c-0.3,0-0.5,0.1-0.6,0.2s-0.2,0.4-0.2,0.7v0.4c0,0.3,0.1,0.6,0.2,0.7S106.7,146.1,106.9,146.1z
			 M109,146.5v-3.1h0.4v0.4h0c0-0.1,0.1-0.2,0.2-0.3s0.2-0.1,0.4-0.1c0.2,0,0.3,0,0.4,0.1c0.1,0.1,0.1,0.2,0.2,0.3h0
			c0.1-0.1,0.1-0.3,0.2-0.3c0.1-0.1,0.2-0.1,0.4-0.1c0.3,0,0.4,0.1,0.5,0.3c0.1,0.2,0.1,0.4,0.1,0.8v2.1h-0.4v-2.1
			c0-0.3,0-0.4-0.1-0.5c-0.1-0.1-0.2-0.2-0.3-0.2c-0.1,0-0.2,0-0.3,0.1c-0.1,0.1-0.1,0.2-0.1,0.4v2.3h-0.4v-2.1c0-0.3,0-0.4-0.1-0.5
			c-0.1-0.1-0.1-0.2-0.3-0.2c-0.1,0-0.2,0-0.3,0.1c-0.1,0.1-0.1,0.2-0.1,0.4v2.3H109z M112.9,147.3l2.1-5.4h0.4l-2.1,5.4H112.9z
			 M12.2,157.3h1.5v-3.5h-1.6v-0.4h2v3.6c0,0.2-0.1,0.4-0.2,0.5c-0.1,0.1-0.3,0.2-0.5,0.2h-1.3V157.3z M13.9,152.7
			c-0.1,0-0.2,0-0.3-0.1c-0.1-0.1-0.1-0.1-0.1-0.2v-0.1c0-0.1,0-0.2,0.1-0.2c0.1-0.1,0.2-0.1,0.3-0.1c0.1,0,0.2,0,0.3,0.1
			c0.1,0.1,0.1,0.1,0.1,0.2v0.1c0,0.1,0,0.2-0.1,0.2C14.2,152.7,14.1,152.7,13.9,152.7z M15.4,153.4h0.4l0.4,2.7h0.1l0.5-2.7h0.5
			l0.5,2.7h0.1l0.4-2.7h0.4l-0.5,3.1h-0.6l-0.5-2.6h0l-0.5,2.6h-0.6L15.4,153.4z M20.8,152.7c-0.1,0-0.2,0-0.3-0.1
			c-0.1-0.1-0.1-0.1-0.1-0.2v-0.1c0-0.1,0-0.2,0.1-0.2c0.1-0.1,0.2-0.1,0.3-0.1s0.2,0,0.3,0.1c0.1,0.1,0.1,0.1,0.1,0.2v0.1
			c0,0.1,0,0.2-0.1,0.2C21,152.7,20.9,152.7,20.8,152.7z M19.4,156.1h1.1v-2.3h-1.1v-0.4H21v2.7h1v0.4h-2.6V156.1z M22.9,156.1h1.1
			v-3.6h-1.1V152h1.6v4h1.1v0.4h-2.6V156.1z M26.5,156.1h1.1v-3.6h-1.1V152H28v4h1.1v0.4h-2.6V156.1z M31.4,156.6
			c-0.3,0-0.6-0.1-0.8-0.2c-0.2-0.1-0.4-0.3-0.6-0.4l0.3-0.3c0.1,0.2,0.3,0.3,0.5,0.4s0.4,0.1,0.6,0.1c0.2,0,0.4,0,0.6-0.1
			c0.2-0.1,0.2-0.2,0.2-0.4c0-0.1,0-0.1,0-0.2c0-0.1-0.1-0.1-0.1-0.1c-0.1,0-0.1-0.1-0.2-0.1c-0.1,0-0.1,0-0.2,0l-0.5-0.1
			c-0.1,0-0.2,0-0.4-0.1c-0.1,0-0.2-0.1-0.3-0.1c-0.1-0.1-0.2-0.1-0.3-0.3c-0.1-0.1-0.1-0.2-0.1-0.4c0-0.2,0-0.3,0.1-0.4
			c0.1-0.1,0.2-0.2,0.3-0.3c0.1-0.1,0.2-0.1,0.4-0.2c0.2,0,0.3-0.1,0.5-0.1c0.3,0,0.5,0,0.7,0.1c0.2,0.1,0.4,0.2,0.5,0.4l-0.3,0.3
			c0,0-0.1-0.1-0.1-0.1c-0.1,0-0.1-0.1-0.2-0.1c-0.1,0-0.2-0.1-0.3-0.1c-0.1,0-0.2,0-0.4,0c-0.2,0-0.4,0-0.6,0.1
			c-0.1,0.1-0.2,0.2-0.2,0.4c0,0.1,0,0.1,0,0.2c0,0.1,0.1,0.1,0.1,0.1c0.1,0,0.1,0.1,0.2,0.1c0.1,0,0.1,0,0.2,0l0.5,0.1
			c0.1,0,0.2,0,0.4,0.1s0.2,0.1,0.3,0.1c0.1,0.1,0.2,0.1,0.3,0.2c0.1,0.1,0.1,0.2,0.1,0.4c0,0.3-0.1,0.5-0.4,0.7
			C32.1,156.5,31.8,156.6,31.4,156.6z M33.7,157.3l2.1-5.4h0.4l-2.1,5.4H33.7z M38.7,156.5c-0.2,0-0.4-0.1-0.5-0.2
			c-0.1-0.1-0.2-0.3-0.2-0.5v-2h-1v-0.4h0.8c0.1,0,0.2,0,0.2-0.1c0,0,0.1-0.1,0.1-0.2v-0.8h0.5v1.1h1.4v0.4h-1.4v2.3h1.4v0.4H38.7z
			 M43.3,156.5c-0.2,0-0.3,0-0.4-0.1c-0.1-0.1-0.1-0.2-0.1-0.4h0c-0.1,0.2-0.2,0.3-0.3,0.4c-0.1,0.1-0.3,0.1-0.6,0.1
			c-0.3,0-0.6-0.1-0.8-0.3c-0.2-0.2-0.3-0.4-0.3-0.7c0-0.3,0.1-0.5,0.3-0.7c0.2-0.2,0.6-0.2,1-0.2h0.7v-0.3c0-0.2-0.1-0.4-0.2-0.5
			c-0.1-0.1-0.3-0.2-0.5-0.2c-0.2,0-0.4,0-0.5,0.1c-0.1,0.1-0.2,0.2-0.3,0.3l-0.3-0.2c0-0.1,0.1-0.2,0.2-0.2
			c0.1-0.1,0.2-0.1,0.3-0.2c0.1-0.1,0.2-0.1,0.3-0.1c0.1,0,0.3-0.1,0.4-0.1c0.4,0,0.7,0.1,0.9,0.3c0.2,0.2,0.3,0.4,0.3,0.8v1.7h0.4
			v0.4H43.3z M41.9,156.1c0.1,0,0.2,0,0.3,0c0.1,0,0.2-0.1,0.3-0.1c0.1-0.1,0.1-0.1,0.2-0.2c0-0.1,0.1-0.1,0.1-0.2v-0.5h-0.7
			c-0.3,0-0.5,0-0.6,0.1s-0.2,0.2-0.2,0.3v0.1c0,0.2,0.1,0.3,0.2,0.4C41.6,156.1,41.7,156.1,41.9,156.1z M44.4,156.1h0.9v-2.3h-0.9
			v-0.4h1.4v0.8h0c0.1-0.2,0.2-0.4,0.4-0.6c0.2-0.1,0.4-0.2,0.7-0.2h0.4v0.5h-0.6c-0.3,0-0.5,0.1-0.7,0.2c-0.2,0.2-0.3,0.4-0.3,0.6
			v1.3H47v0.4h-2.6V156.1z M50.9,156.8c0,0.3-0.1,0.5-0.4,0.7c-0.3,0.2-0.6,0.2-1.2,0.2c-0.5,0-0.9-0.1-1.1-0.2
			c-0.2-0.1-0.3-0.3-0.3-0.6c0-0.2,0-0.3,0.1-0.4c0.1-0.1,0.2-0.2,0.4-0.2v-0.1c-0.1,0-0.2-0.1-0.2-0.2c0-0.1-0.1-0.2-0.1-0.3
			c0-0.2,0.1-0.3,0.2-0.4c0.1-0.1,0.2-0.1,0.4-0.2v0c-0.2-0.1-0.3-0.2-0.5-0.4c-0.1-0.2-0.2-0.4-0.2-0.6c0-0.2,0-0.3,0.1-0.4
			c0.1-0.1,0.1-0.2,0.2-0.3c0.1-0.1,0.2-0.2,0.4-0.2c0.1-0.1,0.3-0.1,0.5-0.1c0.2,0,0.4,0,0.6,0.1v-0.1c0-0.1,0-0.2,0.1-0.3
			c0.1-0.1,0.2-0.1,0.3-0.1h0.6v0.4h-0.7v0.2c0.1,0.1,0.2,0.2,0.3,0.3c0.1,0.1,0.1,0.3,0.1,0.4c0,0.2,0,0.3-0.1,0.4
			c-0.1,0.1-0.1,0.2-0.2,0.3c-0.1,0.1-0.2,0.2-0.4,0.2c-0.1,0.1-0.3,0.1-0.5,0.1c-0.1,0-0.1,0-0.1,0c0,0-0.1,0-0.1,0
			c0,0-0.1,0-0.2,0c-0.1,0-0.1,0-0.1,0.1c0,0-0.1,0.1-0.1,0.1c0,0,0,0.1,0,0.1c0,0.1,0,0.2,0.1,0.2c0.1,0,0.2,0,0.4,0h0.7
			c0.4,0,0.7,0.1,0.9,0.2C50.8,156.4,50.9,156.6,50.9,156.8z M50.5,156.9c0-0.1-0.1-0.2-0.2-0.3c-0.1-0.1-0.3-0.1-0.5-0.1h-1.1
			c-0.2,0.1-0.3,0.2-0.3,0.4c0,0.1,0.1,0.3,0.2,0.3c0.1,0.1,0.3,0.2,0.5,0.2h0.5c0.3,0,0.5,0,0.7-0.1
			C50.4,157.2,50.5,157,50.5,156.9z M49.3,155.1c0.2,0,0.4-0.1,0.5-0.2c0.1-0.1,0.2-0.3,0.2-0.4v-0.2c0-0.2-0.1-0.3-0.2-0.4
			c-0.1-0.1-0.3-0.2-0.5-0.2c-0.2,0-0.4,0.1-0.5,0.2c-0.1,0.1-0.2,0.3-0.2,0.4v0.2c0,0.2,0.1,0.3,0.2,0.4S49.1,155.1,49.3,155.1z
			 M53,156.6c-0.2,0-0.4,0-0.6-0.1c-0.2-0.1-0.3-0.2-0.5-0.3c-0.1-0.1-0.2-0.3-0.3-0.5c-0.1-0.2-0.1-0.4-0.1-0.7
			c0-0.2,0-0.5,0.1-0.7c0.1-0.2,0.2-0.4,0.3-0.5c0.1-0.1,0.3-0.3,0.4-0.3c0.2-0.1,0.4-0.1,0.6-0.1c0.2,0,0.4,0,0.6,0.1
			c0.2,0.1,0.3,0.2,0.4,0.3c0.1,0.1,0.2,0.3,0.3,0.5c0.1,0.2,0.1,0.4,0.1,0.6v0.2h-2.3v0.1c0,0.1,0,0.3,0.1,0.4s0.1,0.2,0.2,0.3
			c0.1,0.1,0.2,0.1,0.3,0.2c0.1,0,0.3,0.1,0.4,0.1c0.2,0,0.4,0,0.5-0.1c0.2-0.1,0.3-0.2,0.3-0.4l0.4,0.2c-0.1,0.2-0.2,0.4-0.5,0.5
			C53.6,156.5,53.3,156.6,53,156.6z M53,153.7c-0.1,0-0.3,0-0.4,0.1c-0.1,0-0.2,0.1-0.3,0.2c-0.1,0.1-0.1,0.2-0.2,0.3
			c0,0.1-0.1,0.2-0.1,0.4v0h1.8v-0.1c0-0.1,0-0.3-0.1-0.4c0-0.1-0.1-0.2-0.2-0.3c-0.1-0.1-0.2-0.1-0.3-0.2
			C53.2,153.7,53.1,153.7,53,153.7z M56.7,156.5c-0.2,0-0.4-0.1-0.5-0.2c-0.1-0.1-0.2-0.3-0.2-0.5v-2h-1v-0.4h0.8
			c0.1,0,0.2,0,0.2-0.1c0,0,0.1-0.1,0.1-0.2v-0.8h0.5v1.1h1.4v0.4h-1.4v2.3h1.4v0.4H56.7z M59.3,154.9v-0.5H61v0.5H59.3z M64.5,156
			L64.5,156c-0.2,0.4-0.5,0.6-1,0.6c-0.4,0-0.7-0.1-0.9-0.4c-0.2-0.3-0.3-0.7-0.3-1.2s0.1-0.9,0.3-1.2c0.2-0.3,0.5-0.4,0.9-0.4
			c0.4,0,0.8,0.2,1,0.6h0V152H65v4.4h-0.5V156z M63.7,156.1c0.1,0,0.2,0,0.3,0c0.1,0,0.2-0.1,0.3-0.1c0.1-0.1,0.1-0.1,0.2-0.2
			c0-0.1,0.1-0.2,0.1-0.3v-1.1c0-0.1,0-0.2-0.1-0.3c0-0.1-0.1-0.1-0.2-0.2c-0.1-0.1-0.2-0.1-0.3-0.1c-0.1,0-0.2,0-0.3,0
			c-0.3,0-0.5,0.1-0.7,0.3c-0.2,0.2-0.2,0.4-0.2,0.7v0.5c0,0.3,0.1,0.5,0.2,0.7C63.2,156,63.4,156.1,63.7,156.1z M68.1,156L68.1,156
			c-0.1,0.1-0.1,0.1-0.1,0.2c0,0.1-0.1,0.1-0.2,0.2c-0.1,0.1-0.1,0.1-0.2,0.1c-0.1,0-0.2,0-0.3,0c-0.3,0-0.6-0.1-0.8-0.3
			c-0.2-0.2-0.3-0.5-0.3-0.9v-2h0.5v1.9c0,0.3,0.1,0.5,0.2,0.6c0.1,0.1,0.3,0.2,0.5,0.2c0.1,0,0.2,0,0.3,0c0.1,0,0.2-0.1,0.2-0.1
			c0.1,0,0.1-0.1,0.2-0.2c0-0.1,0.1-0.2,0.1-0.3v-2.1h0.5v3.1h-0.5V156z M71.1,156.6c-0.2,0-0.4,0-0.6-0.1c-0.2-0.1-0.3-0.2-0.4-0.3
			s-0.2-0.3-0.3-0.5c-0.1-0.2-0.1-0.4-0.1-0.7s0-0.5,0.1-0.7c0.1-0.2,0.2-0.4,0.3-0.5c0.1-0.1,0.3-0.3,0.4-0.3
			c0.2-0.1,0.4-0.1,0.6-0.1c0.3,0,0.5,0.1,0.7,0.2c0.2,0.1,0.3,0.3,0.4,0.5l-0.4,0.2c-0.1-0.2-0.2-0.3-0.3-0.4
			c-0.1-0.1-0.3-0.1-0.5-0.1c-0.1,0-0.3,0-0.4,0.1c-0.1,0-0.2,0.1-0.3,0.2c-0.1,0.1-0.1,0.2-0.2,0.3c0,0.1-0.1,0.2-0.1,0.4v0.5
			c0,0.1,0,0.3,0.1,0.4c0,0.1,0.1,0.2,0.2,0.3c0.1,0.1,0.2,0.1,0.3,0.2c0.1,0,0.2,0.1,0.4,0.1c0.2,0,0.4,0,0.5-0.1
			c0.1-0.1,0.2-0.2,0.3-0.4l0.3,0.2c-0.1,0.2-0.2,0.4-0.4,0.5C71.6,156.5,71.4,156.6,71.1,156.6z M73.4,152h0.5v2.8h0l0.5-0.5l1-0.9
			H76l-1.3,1.2l1.4,1.9h-0.6l-1.2-1.6l-0.5,0.5v1.1h-0.5V152z M78.9,156L78.9,156c-0.2,0.4-0.5,0.6-1,0.6c-0.4,0-0.7-0.1-0.9-0.4
			c-0.2-0.3-0.3-0.7-0.3-1.2s0.1-0.9,0.3-1.2c0.2-0.3,0.5-0.4,0.9-0.4c0.4,0,0.8,0.2,1,0.6h0V152h0.5v4.4h-0.5V156z M78.1,156.1
			c0.1,0,0.2,0,0.3,0s0.2-0.1,0.3-0.1c0.1-0.1,0.1-0.1,0.2-0.2c0-0.1,0.1-0.2,0.1-0.3v-1.1c0-0.1,0-0.2-0.1-0.3
			c0-0.1-0.1-0.1-0.2-0.2c-0.1-0.1-0.2-0.1-0.3-0.1s-0.2,0-0.3,0c-0.3,0-0.5,0.1-0.7,0.3c-0.2,0.2-0.2,0.4-0.2,0.7v0.5
			c0,0.3,0.1,0.5,0.2,0.7C77.6,156,77.8,156.1,78.1,156.1z M80.5,152H81v1.8h0c0.2-0.4,0.5-0.6,1-0.6c0.4,0,0.7,0.1,0.9,0.4
			c0.2,0.3,0.3,0.7,0.3,1.2s-0.1,0.9-0.3,1.2c-0.2,0.3-0.5,0.4-0.9,0.4c-0.4,0-0.8-0.2-1-0.6h0v0.5h-0.5V152z M81.8,156.1
			c0.3,0,0.5-0.1,0.6-0.3c0.2-0.2,0.2-0.4,0.2-0.7v-0.5c0-0.3-0.1-0.5-0.2-0.7c-0.2-0.2-0.4-0.3-0.6-0.3c-0.1,0-0.2,0-0.3,0
			s-0.2,0.1-0.3,0.1c-0.1,0.1-0.1,0.1-0.2,0.2c0,0.1-0.1,0.2-0.1,0.3v1.1c0,0.1,0,0.2,0.1,0.3c0,0.1,0.1,0.1,0.2,0.2
			c0.1,0.1,0.2,0.1,0.3,0.1S81.7,156.1,81.8,156.1z"/>
		<path class="st19" d="M39.4,44.5l0-1.3h0l-0.8,2.2l-0.8-2.2h0l0,1.3v2h-0.6v-4.2h0.8l0.6,1.7h0l0.6-1.7H40v4.2h-0.6V44.5z
			 M40.9,46.5v-4.2h2.6v0.6h-2v1.2h1.9v0.6h-1.9v1.3h2v0.6H40.9z M44.6,46.5v-4.2h0.7v3.6h1.9v0.6H44.6z M49.7,42.9v3.6H49v-3.6
			h-1.3v-0.6H51v0.6H49.7z M53.9,46.5l-0.3-1.1h-1.3L52,46.5h-0.7l1.2-4.2h0.9l1.2,4.2H53.9z M53,43L53,43l-0.6,1.8h1.1L53,43z
			 M55.8,43.3L55.8,43.3l-0.1,3.2h-0.6v-4.2h0.9l1.2,3.2h0.1v-3.2h0.6v4.2h-0.9L55.8,43.3z M60.2,46.6c-0.3,0-0.5,0-0.7-0.1
			c-0.2-0.1-0.4-0.2-0.5-0.4c-0.1-0.2-0.2-0.4-0.3-0.7c-0.1-0.3-0.1-0.6-0.1-0.9c0-0.3,0-0.6,0.1-0.9c0.1-0.3,0.2-0.5,0.3-0.7
			c0.1-0.2,0.3-0.3,0.5-0.4c0.2-0.1,0.4-0.1,0.7-0.1s0.5,0,0.7,0.1c0.2,0.1,0.4,0.2,0.5,0.4c0.1,0.2,0.2,0.4,0.3,0.7
			c0.1,0.3,0.1,0.6,0.1,0.9c0,0.3,0,0.7-0.1,0.9c-0.1,0.3-0.2,0.5-0.3,0.7c-0.1,0.2-0.3,0.3-0.5,0.4C60.6,46.5,60.4,46.6,60.2,46.6z
			 M60.2,46c0.3,0,0.5-0.1,0.6-0.3c0.1-0.2,0.2-0.5,0.2-0.9V44c0-0.4-0.1-0.7-0.2-0.9c-0.1-0.2-0.3-0.3-0.6-0.3
			c-0.3,0-0.5,0.1-0.6,0.3c-0.1,0.2-0.2,0.5-0.2,0.9v0.7c0,0.4,0.1,0.7,0.2,0.9C59.6,45.9,59.9,46,60.2,46z M62.3,47.6V47h2.9v0.6
			H62.3z M66.2,46.5v-4.2h0.7v3.6h1.9v0.6H66.2z M71,46.6c-0.3,0-0.5,0-0.7-0.1c-0.2-0.1-0.4-0.2-0.5-0.4c-0.1-0.2-0.2-0.4-0.3-0.7
			c-0.1-0.3-0.1-0.6-0.1-0.9c0-0.3,0-0.6,0.1-0.9c0.1-0.3,0.2-0.5,0.3-0.7c0.1-0.2,0.3-0.3,0.5-0.4c0.2-0.1,0.4-0.1,0.7-0.1
			s0.5,0,0.7,0.1c0.2,0.1,0.4,0.2,0.5,0.4c0.1,0.2,0.2,0.4,0.3,0.7c0.1,0.3,0.1,0.6,0.1,0.9c0,0.3,0,0.7-0.1,0.9
			c-0.1,0.3-0.2,0.5-0.3,0.7c-0.1,0.2-0.3,0.3-0.5,0.4C71.4,46.5,71.2,46.6,71,46.6z M71,46c0.3,0,0.5-0.1,0.6-0.3
			c0.1-0.2,0.2-0.5,0.2-0.9V44c0-0.4-0.1-0.7-0.2-0.9c-0.1-0.2-0.3-0.3-0.6-0.3c-0.3,0-0.5,0.1-0.6,0.3c-0.1,0.2-0.2,0.5-0.2,0.9
			v0.7c0,0.4,0.1,0.7,0.2,0.9C70.4,45.9,70.7,46,71,46z M75.3,45.9L75.3,45.9c-0.1,0.1-0.1,0.2-0.2,0.2c0,0.1-0.1,0.1-0.2,0.2
			c-0.1,0.1-0.2,0.1-0.3,0.1c-0.1,0-0.2,0.1-0.4,0.1c-0.4,0-0.8-0.2-1-0.6S73,45.1,73,44.4c0-0.7,0.1-1.3,0.4-1.6
			c0.3-0.4,0.6-0.6,1.2-0.6c0.2,0,0.4,0,0.5,0.1c0.2,0.1,0.3,0.1,0.4,0.2c0.1,0.1,0.2,0.2,0.3,0.3c0.1,0.1,0.1,0.3,0.2,0.4l-0.6,0.2
			c0-0.1-0.1-0.2-0.1-0.3c0-0.1-0.1-0.2-0.2-0.2c-0.1-0.1-0.1-0.1-0.2-0.1c-0.1,0-0.2-0.1-0.3-0.1c-0.3,0-0.5,0.1-0.6,0.3
			c-0.1,0.2-0.2,0.5-0.2,0.9v0.7c0,0.2,0,0.4,0,0.5s0.1,0.3,0.1,0.4c0.1,0.1,0.2,0.2,0.3,0.3c0.1,0.1,0.2,0.1,0.4,0.1
			c0.2,0,0.4-0.1,0.6-0.2c0.1-0.1,0.2-0.3,0.2-0.6v-0.4h-0.8v-0.5h1.4v2.1h-0.6V45.9z M76.7,47.6V47h2.9v0.6H76.7z M80.6,46.5v-4.2
			h0.7v3.6h1.9v0.6H80.6z M84.1,46.5v-4.2h2.6v0.6h-2v1.2h1.9v0.6h-1.9v1.3h2v0.6H84.1z M88.5,46.5l-1.2-4.2H88l0.6,2.1l0.4,1.4h0
			l0.4-1.4l0.6-2.1h0.7l-1.2,4.2H88.5z M91.3,46.5v-4.2h2.6v0.6h-1.9v1.2h1.9v0.6h-1.9v1.3h1.9v0.6H91.3z M95,46.5v-4.2h0.7v3.6h1.9
			v0.6H95z"/>
		<path class="st6" d="M98.3,44.3v-0.5h2.9v0.5H98.3z M98.3,45.5V45h2.9v0.5H98.3z"/>
	</g>
	<path class="st20" d="M22.9,249.5c-0.5,0.7-1.5,0.8-1.6,0.4c-0.1-0.4,0.5-0.7,0.8-0.7c-1.8-0.5-1.5,0.9-2.5,1
		c0.6,0.3,1.1,0.8,1.5,0.8C21.8,251.2,22.7,250.8,22.9,249.5"/>
	<path class="st21" d="M15.8,247.8c0-0.2-0.2-0.3-0.4-0.4l0,0c1.5-0.7,2.4-0.2,2.8,0.1c0.2,0.2,0.3,0.4,0.4,0.5
		c0.1,0.1,0.1,0.3,0.2,0.4c0.2,0.2,0.5,0.4,0.6,0.5c0,0,0,0,0,0c0.1,0.1,0.1,0.3,0.1,0.4c-0.1,0.1-0.3,0.4-0.6,0.4
		c-0.3,0-0.9-0.2-1.4-0.3c-0.5-0.1-0.9-0.4-0.9-0.4c-0.1,0.4,0.2,0.7,0.6,0.8c0.1,0,0.2,0,0.3,0.1c0.5,0.1,1.2,0.3,1.8,0.7
		c0.8,0.5,1.5,1.4,1.7,2.7c0.3,1.3-0.1,4.1-2.3,5.3c-2.2,1.2-4.4,0.3-4.4,0.3c2-0.1,3.2-1,3.6-1.5c0.3-0.4,0.6-1.1,0.4-1.9
		c-0.2-0.9-0.9-1.6-1.7-1.5c-0.7,0.1-1.1,1-1.2,1.4c-0.1,0.4-0.4,0.7-0.5,0.7c-0.2,0-0.5,0-0.7-0.6c-0.2-0.6-0.9-1.7-1.7-1.3
		c-0.8,0.4-1,2.3-1,2.3c-1-1.7-1.3-4-0.3-6.1c1-2.2,3-3,3-3c-0.4,0.5-0.8,2-0.4,3.3c0.4,1.3,1.4,2,2,2.1c0.6,0.1,1.3-0.3,1.2-1
		c0-0.6-0.5-1-1.1-1.3c-0.4-0.2-0.7-0.6-0.8-1.2c0-0.6,0.2-1,0.4-1.2C15.7,248.2,15.9,248,15.8,247.8z M17.3,248.4
		c-0.4,0-0.6,0.2-0.6,0.2c0,0,0,0,0,0c0-0.2,0.1-0.5,0.2-0.7c0.2-0.2,0.5-0.3,0.9,0c0.4,0.3,0.5,0.9,0.5,0.9
		C18.1,248.7,17.7,248.4,17.3,248.4z"/>
</g>
</svg>
