<svg width="156" height="207" viewBox="0 0 156 207" fill="none" xmlns="http://www.w3.org/2000/svg">
<g clip-path="url(#clip0_1875_28555)">
<path d="M153.7 10.1072H11.6977C10.4275 10.1072 9.39771 11.1369 9.39771 12.4072V204.7C9.39771 205.97 10.4275 207 11.6977 207H153.7C154.97 207 156 205.97 156 204.7V12.4072C156 11.1369 154.97 10.1072 153.7 10.1072Z" fill="url(#paint0_linear_1875_28555)"/>
<path d="M0.469971 196.893L9.86756 206.269L66.9203 207L73.3013 10.1072H6.31527L0.469971 196.893Z" fill="url(#paint1_linear_1875_28555)"/>
<path d="M152.241 201.156V14.1521C152.241 13.4992 151.964 12.877 151.478 12.4408L142.843 4.68793L13.1567 13.1262V203.456H149.941C151.211 203.456 152.241 202.426 152.241 201.156Z" fill="white"/>
<path d="M143.031 3.15967H1.12769V193.743H143.031V3.15967Z" fill="white"/>
<path d="M13.1567 203.25L3.94702 193.733H143.031L147.072 203.25H13.1567Z" fill="white"/>
<g filter="url(#filter0_d_1875_28555)">
<path d="M144.302 0.937561H2.3C1.02975 0.937561 0 1.96731 0 3.23756V195.53C0 196.801 1.02975 197.83 2.3 197.83H144.302C145.573 197.83 146.602 196.801 146.602 195.53V3.23756C146.602 1.96731 145.573 0.937561 144.302 0.937561Z" fill="url(#paint2_linear_1875_28555)"/>
</g>
<path opacity="0.5" d="M4.69877 197.83L7.51807 197.83L7.51808 0.937607L4.69879 0.937607L4.69877 197.83Z" fill="url(#paint3_linear_1875_28555)"/>
<g opacity="0.2">
<path d="M113.711 53.4227C110.753 57.5172 104.387 58.4357 103.676 55.9965C102.955 53.5573 106.657 51.8684 108.607 51.6329C97.3432 48.4973 99.3842 56.8409 93.1563 57.645C96.5962 59.3844 100.174 62.2744 102.592 62.6277C106.739 63.24 112.548 60.8984 113.711 53.416" fill="white"/>
<path fill-rule="evenodd" clip-rule="evenodd" d="M69.2829 42.9427C69.0667 41.6474 68.1887 41.2336 66.7832 40.6583L66.7734 40.6616C75.9171 36.2577 81.7519 39.4303 84.1042 41.4152C85.4097 42.5169 85.9049 43.5646 86.3727 44.5545C86.7478 45.3482 87.1053 46.1046 87.8489 46.8218C88.9628 47.8984 91.0379 49.4338 91.8712 50.0504C91.9545 50.112 92.0254 50.1644 92.0816 50.2063C92.7008 50.6673 92.9629 51.9457 92.3994 52.8171C91.8359 53.6885 90.342 55.4749 88.55 55.1755C86.7579 54.8761 82.8298 54.183 79.5929 53.6077C76.3561 53.0324 74.1119 51.1854 74.1119 51.1854C73.7057 53.5102 75.0751 55.5725 77.6535 56.2622C78.154 56.3956 78.7543 56.5347 79.4291 56.691C82.464 57.3942 87.0057 58.4465 90.7581 60.9017C95.8558 64.2358 99.892 69.4977 101.468 77.589C103.044 85.6803 101.075 102.815 87.079 109.85C73.0832 116.885 59.8246 111.435 59.8246 111.435C72.369 110.836 79.7142 105.624 82.5186 102.162C84.4842 99.7333 86.3451 95.3629 85.2116 90.3198C83.9732 84.7988 79.416 80.6068 74.7737 81.31C70.1314 82.0131 68.1657 87.1471 67.2943 89.6401C66.4228 92.1331 65.0665 93.9735 63.8805 94.1753C62.6945 94.3772 60.9909 94.4411 59.497 90.7538C58.0031 87.0664 54.0127 80.4588 48.725 82.9383C43.4373 85.4179 42.4807 96.9038 42.4807 96.9038C36.0037 86.3161 34.3558 72.7308 40.4462 59.5391C46.5365 46.3474 59.248 41.4859 59.248 41.4859C56.9744 44.5004 54.4616 53.6279 57.017 61.837C59.5724 70.046 65.8822 74.1607 69.4991 74.7192C73.116 75.2776 77.4274 73.0841 77.1915 68.5792C76.9982 64.8817 73.8892 62.2542 70.5966 60.7166C68.2476 59.6199 65.9216 57.0898 65.7577 53.2006C65.5939 49.3114 67.2615 46.8521 68.074 45.8764C68.7128 45.106 69.4664 44.0428 69.2829 42.9427ZM78.456 46.6737C75.7859 46.6737 74.5705 48.0598 74.5705 48.0598H74.5672C74.576 47.9894 74.5853 47.9086 74.5956 47.8189C74.7089 46.8366 74.9446 44.7929 75.9203 43.7972C76.985 42.7105 78.7967 41.8963 81.3357 43.7972C83.8748 45.698 84.6741 49.1633 84.6741 49.1633C83.783 48.3929 81.1261 46.6737 78.456 46.6737Z" fill="white"/>
</g>
<path opacity="0.4" d="M34.7175 146.012V137.817H35.4875L38.5675 142.283H38.1385L41.2075 137.817H41.9775V146.012H41.0975V139.005L41.3835 139.115L38.3695 143.482H38.3255L35.3225 139.115L35.5975 139.005V146.012H34.7175ZM48.3129 146.012V137.817H53.5929V138.642H49.1929V141.491H53.3729V142.316H49.1929V145.187H53.5929V146.012H48.3129ZM59.4482 146.012V137.817H60.3282V145.187H63.9582V146.012H59.4482ZM70.4557 146.012V138.642H68.1897V137.817H73.5797V138.642H71.3357V146.012H70.4557ZM77.6707 146.012L80.6627 137.817H81.6087L84.6007 146.012H83.6767L82.9727 144.01H79.3097L78.5947 146.012H77.6707ZM79.5957 143.185H82.6647L81.0037 138.477H81.2677L79.5957 143.185ZM90.0935 146.012V137.817H90.8635L95.6705 144.714H95.3735V137.817H96.2535V146.012H95.4835L90.6765 139.071H90.9735V146.012H90.0935ZM106.454 146.144C105.882 146.144 105.347 146.042 104.848 145.836C104.357 145.624 103.924 145.33 103.55 144.956C103.176 144.575 102.883 144.128 102.67 143.614C102.457 143.094 102.351 142.525 102.351 141.909C102.351 141.293 102.457 140.729 102.67 140.215C102.883 139.695 103.176 139.247 103.55 138.873C103.924 138.492 104.357 138.199 104.848 137.993C105.347 137.788 105.882 137.685 106.454 137.685C107.026 137.685 107.558 137.792 108.049 138.004C108.548 138.21 108.984 138.503 109.358 138.884C109.732 139.258 110.025 139.702 110.238 140.215C110.451 140.729 110.557 141.293 110.557 141.909C110.557 142.525 110.451 143.094 110.238 143.614C110.025 144.128 109.732 144.575 109.358 144.956C108.984 145.33 108.548 145.624 108.049 145.836C107.558 146.042 107.026 146.144 106.454 146.144ZM106.454 145.319C106.931 145.319 107.363 145.231 107.752 145.055C108.148 144.879 108.489 144.634 108.775 144.318C109.061 144.003 109.281 143.64 109.435 143.229C109.596 142.819 109.677 142.379 109.677 141.909C109.677 141.447 109.596 141.011 109.435 140.6C109.281 140.19 109.061 139.827 108.775 139.511C108.489 139.196 108.148 138.95 107.752 138.774C107.363 138.598 106.931 138.51 106.454 138.51C105.977 138.51 105.541 138.598 105.145 138.774C104.756 138.95 104.419 139.196 104.133 139.511C103.847 139.827 103.623 140.19 103.462 140.6C103.308 141.011 103.231 141.447 103.231 141.909C103.231 142.379 103.308 142.819 103.462 143.229C103.623 143.64 103.847 144.003 104.133 144.318C104.419 144.634 104.76 144.879 105.156 145.055C105.552 145.231 105.985 145.319 106.454 145.319ZM27.7525 160.012H29.2485V156.712H32.7355V160.012H34.2425V151.817H32.7355V155.392H29.2485V151.817H27.7525V160.012ZM39.5489 160.012H41.1659L41.7599 158.252H44.9279L45.5109 160.012H47.1389L44.3119 151.817H42.3759L39.5489 160.012ZM42.1889 156.932L43.3439 153.478L44.4989 156.932H42.1889ZM52.4509 160.012H53.9469V154.655L57.8409 160.012H59.0179V151.817H57.5219V157.075L53.6169 151.817H52.4509V160.012ZM65.0042 160.012H67.6772C68.5426 160.012 69.2942 159.836 69.9322 159.484C70.5776 159.132 71.0762 158.648 71.4282 158.032C71.7802 157.416 71.9562 156.709 71.9562 155.909C71.9562 155.103 71.7802 154.395 71.4282 153.786C71.0762 153.17 70.5812 152.69 69.9432 152.345C69.3052 151.993 68.5499 151.817 67.6772 151.817H65.0042V160.012ZM66.5002 158.692V153.137H67.7102C68.2676 153.137 68.7479 153.251 69.1512 153.478C69.5619 153.706 69.8809 154.028 70.1082 154.446C70.3356 154.857 70.4492 155.345 70.4492 155.909C70.4492 156.474 70.3356 156.965 70.1082 157.383C69.8882 157.801 69.5729 158.124 69.1622 158.351C68.7516 158.579 68.2676 158.692 67.7102 158.692H66.5002ZM77.5468 160.012H81.0008C81.9175 160.012 82.6325 159.792 83.1458 159.352C83.6665 158.905 83.9268 158.289 83.9268 157.504C83.9268 157.13 83.8535 156.778 83.7068 156.448C83.5602 156.118 83.3035 155.836 82.9368 155.601C83.1642 155.396 83.3292 155.169 83.4318 154.919C83.5418 154.67 83.5968 154.406 83.5968 154.127C83.5968 153.409 83.3658 152.844 82.9038 152.433C82.4418 152.023 81.8075 151.817 81.0008 151.817H77.5468V160.012ZM79.0428 154.996V153.093H81.0778C81.3858 153.093 81.6315 153.178 81.8148 153.346C81.9982 153.515 82.0898 153.742 82.0898 154.028C82.0898 154.314 81.9982 154.549 81.8148 154.732C81.6315 154.908 81.3858 154.996 81.0778 154.996H79.0428ZM79.0428 158.692V156.305H81.1548C81.5435 156.305 81.8515 156.415 82.0788 156.635C82.3135 156.848 82.4308 157.138 82.4308 157.504C82.4308 157.864 82.3135 158.153 82.0788 158.373C81.8515 158.586 81.5435 158.692 81.1548 158.692H79.0428ZM93.5893 160.144C94.198 160.144 94.7626 160.038 95.2833 159.825C95.804 159.613 96.2586 159.316 96.6473 158.934C97.036 158.553 97.3366 158.106 97.5493 157.592C97.7693 157.072 97.8793 156.511 97.8793 155.909C97.8793 155.301 97.7693 154.74 97.5493 154.226C97.3366 153.713 97.036 153.269 96.6473 152.895C96.2586 152.514 95.804 152.217 95.2833 152.004C94.7626 151.792 94.198 151.685 93.5893 151.685C92.9806 151.685 92.416 151.792 91.8953 152.004C91.3746 152.217 90.92 152.514 90.5313 152.895C90.15 153.269 89.8493 153.713 89.6293 154.226C89.4166 154.74 89.3103 155.301 89.3103 155.909C89.3103 156.511 89.4166 157.072 89.6293 157.592C89.8493 158.106 90.1536 158.553 90.5423 158.934C90.931 159.316 91.3856 159.613 91.9063 159.825C92.427 160.038 92.988 160.144 93.5893 160.144ZM93.5893 158.78C93.0613 158.78 92.5846 158.656 92.1593 158.406C91.7413 158.157 91.4113 157.816 91.1693 157.383C90.9273 156.951 90.8063 156.459 90.8063 155.909C90.8063 155.359 90.9273 154.872 91.1693 154.446C91.4113 154.014 91.7413 153.673 92.1593 153.423C92.5846 153.174 93.0613 153.049 93.5893 153.049C94.1246 153.049 94.6013 153.174 95.0193 153.423C95.4373 153.673 95.7673 154.014 96.0093 154.446C96.2513 154.872 96.3723 155.359 96.3723 155.909C96.3723 156.459 96.2513 156.951 96.0093 157.383C95.7673 157.816 95.4373 158.157 95.0193 158.406C94.6013 158.656 94.1246 158.78 93.5893 158.78ZM107.647 160.144C108.255 160.144 108.82 160.038 109.341 159.825C109.861 159.613 110.316 159.316 110.705 158.934C111.093 158.553 111.394 158.106 111.607 157.592C111.827 157.072 111.937 156.511 111.937 155.909C111.937 155.301 111.827 154.74 111.607 154.226C111.394 153.713 111.093 153.269 110.705 152.895C110.316 152.514 109.861 152.217 109.341 152.004C108.82 151.792 108.255 151.685 107.647 151.685C107.038 151.685 106.473 151.792 105.953 152.004C105.432 152.217 104.977 152.514 104.589 152.895C104.207 153.269 103.907 153.713 103.687 154.226C103.474 154.74 103.368 155.301 103.368 155.909C103.368 156.511 103.474 157.072 103.687 157.592C103.907 158.106 104.211 158.553 104.6 158.934C104.988 159.316 105.443 159.613 105.964 159.825C106.484 160.038 107.045 160.144 107.647 160.144ZM107.647 158.78C107.119 158.78 106.642 158.656 106.217 158.406C105.799 158.157 105.469 157.816 105.227 157.383C104.985 156.951 104.864 156.459 104.864 155.909C104.864 155.359 104.985 154.872 105.227 154.446C105.469 154.014 105.799 153.673 106.217 153.423C106.642 153.174 107.119 153.049 107.647 153.049C108.182 153.049 108.659 153.174 109.077 153.423C109.495 153.673 109.825 154.014 110.067 154.446C110.309 154.872 110.43 155.359 110.43 155.909C110.43 156.459 110.309 156.951 110.067 157.383C109.825 157.816 109.495 158.157 109.077 158.406C108.659 158.656 108.182 158.78 107.647 158.78ZM117.667 160.012H119.163V157.713L120.263 156.404L122.463 160.012H124.223L121.286 155.183L124.124 151.817H122.243L119.163 155.458V151.817H117.667V160.012Z" fill="white"/>
</g>
<defs>
<filter id="filter0_d_1875_28555" x="-4" y="0.937561" width="154.602" height="204.893" filterUnits="userSpaceOnUse" color-interpolation-filters="sRGB">
<feFlood flood-opacity="0" result="BackgroundImageFix"/>
<feColorMatrix in="SourceAlpha" type="matrix" values="0 0 0 0 0 0 0 0 0 0 0 0 0 0 0 0 0 0 127 0" result="hardAlpha"/>
<feOffset dy="4"/>
<feGaussianBlur stdDeviation="2"/>
<feComposite in2="hardAlpha" operator="out"/>
<feColorMatrix type="matrix" values="0 0 0 0 0 0 0 0 0 0 0 0 0 0 0 0 0 0 0.25 0"/>
<feBlend mode="normal" in2="BackgroundImageFix" result="effect1_dropShadow_1875_28555"/>
<feBlend mode="normal" in="SourceGraphic" in2="effect1_dropShadow_1875_28555" result="shape"/>
</filter>
<linearGradient id="paint0_linear_1875_28555" x1="126.856" y1="159.107" x2="14.0918" y2="140.122" gradientUnits="userSpaceOnUse">
<stop stop-color="#3A64FA"/>
<stop offset="0.942707" stop-color="#F963BC"/>
</linearGradient>
<linearGradient id="paint1_linear_1875_28555" x1="58.8228" y1="159.107" x2="1.61419" y2="154.322" gradientUnits="userSpaceOnUse">
<stop stop-color="#3A64FA"/>
<stop offset="0.942707" stop-color="#F963BC"/>
</linearGradient>
<linearGradient id="paint2_linear_1875_28555" x1="117.459" y1="149.938" x2="4.69408" y2="130.952" gradientUnits="userSpaceOnUse">
<stop stop-color="#3A64FA"/>
<stop offset="0.942707" stop-color="#F963BC"/>
</linearGradient>
<linearGradient id="paint3_linear_1875_28555" x1="14.5663" y1="91.4146" x2="4.13492" y2="91.4146" gradientUnits="userSpaceOnUse">
<stop stop-color="white"/>
<stop offset="0.942707" stop-color="white" stop-opacity="0"/>
</linearGradient>
<clipPath id="clip0_1875_28555">
<rect width="156" height="207" rx="2.3" fill="white"/>
</clipPath>
</defs>
</svg>
