<svg width="4000" height="286" viewBox="0 0 4000 286" fill="none" xmlns="http://www.w3.org/2000/svg">
<path d="M1061.43 274.23L1463.7 100.365C1493.94 87.2996 1528.19 87.0602 1558.61 99.727L1977.83 274.23H1061.44H1061.43Z" fill="url(#paint0_linear_3510_37747)"/>
<path d="M0 285.042L240.351 141.378C252.679 134.007 268.029 133.888 280.476 141.049L530.611 285.042H0Z" fill="url(#paint1_linear_3510_37747)"/>
<path d="M363.05 285.042L1007.97 2.09258C1014.23 -0.650238 1021.33 -0.700107 1027.62 1.96292L1697.57 285.052H363.05V285.042Z" fill="url(#paint2_linear_3510_37747)"/>
<path d="M1385.48 285.042L1915 52.7201C1947.99 38.248 1985.49 37.9887 2018.69 52.012L2570.16 285.042H1385.48Z" fill="url(#paint3_linear_3510_37747)"/>
<path d="M3037.86 279.058L3458.87 94.3411C3485.1 82.8312 3514.92 82.6318 3541.3 93.7826L3979.77 279.058H3037.86Z" fill="url(#paint4_linear_3510_37747)"/>
<path d="M1982.72 285.042L2803.02 31.7749C2854.14 15.9962 2912.24 15.7169 2963.65 31.0069L3817.99 285.042H1982.72Z" fill="url(#paint5_linear_3510_37747)"/>
<path d="M334.455 285.042L543.557 129.449L760.679 285.042H334.455Z" fill="url(#paint6_linear_3510_37747)"/>
<path d="M3450.51 285.042L3705.31 132.86C3714.49 127.385 3725.75 127.285 3735 132.611L4000 285.042H3450.51Z" fill="url(#paint7_linear_3510_37747)"/>
<path d="M980.644 277.691L1372.58 86.9406L1717.4 277.691H980.644Z" fill="url(#paint8_linear_3510_37747)"/>
<defs>
<linearGradient id="paint0_linear_3510_37747" x1="1069.58" y1="139.672" x2="1969.66" y2="311.882" gradientUnits="userSpaceOnUse">
<stop stop-color="#CDD9EF"/>
<stop offset="0.25" stop-color="#CCD8EF"/>
<stop offset="0.64" stop-color="#A7B7DA"/>
</linearGradient>
<linearGradient id="paint1_linear_3510_37747" x1="0" y1="210.407" x2="530.611" y2="210.407" gradientUnits="userSpaceOnUse">
<stop stop-color="#CDD9EF"/>
<stop offset="0.25" stop-color="#CCD8EF"/>
<stop offset="0.75" stop-color="#A7B7DA"/>
</linearGradient>
<linearGradient id="paint2_linear_3510_37747" x1="374.55" y1="81.5745" x2="1685.08" y2="333.425" gradientUnits="userSpaceOnUse">
<stop offset="0.3" stop-color="#CDD9EF"/>
<stop offset="0.41" stop-color="#C8D4EC"/>
<stop offset="0.56" stop-color="#A7B7DA"/>
</linearGradient>
<linearGradient id="paint3_linear_3510_37747" x1="1392.73" y1="117.59" x2="2562.82" y2="302.915" gradientUnits="userSpaceOnUse">
<stop offset="0.46" stop-color="#CDD9EF"/>
<stop offset="0.56" stop-color="#A7B7DA"/>
</linearGradient>
<linearGradient id="paint4_linear_3510_37747" x1="3040.04" y1="159.84" x2="3977.56" y2="250.732" gradientUnits="userSpaceOnUse">
<stop offset="0.48" stop-color="#CDD9EF"/>
<stop offset="0.56" stop-color="#A7B7DA"/>
</linearGradient>
<linearGradient id="paint5_linear_3510_37747" x1="1982.72" y1="152.389" x2="3817.99" y2="152.389" gradientUnits="userSpaceOnUse">
<stop offset="0.48" stop-color="#CDD9EF"/>
<stop offset="0.56" stop-color="#A7B7DA"/>
</linearGradient>
<linearGradient id="paint6_linear_3510_37747" x1="334.455" y1="207.246" x2="760.679" y2="207.246" gradientUnits="userSpaceOnUse">
<stop stop-color="#CDD9EF"/>
<stop offset="0.25" stop-color="#CCD8EF"/>
<stop offset="0.75" stop-color="#A7B7DA"/>
</linearGradient>
<linearGradient id="paint7_linear_3510_37747" x1="3455.7" y1="181.134" x2="3994.91" y2="286.917" gradientUnits="userSpaceOnUse">
<stop offset="0.39" stop-color="#CDD9EF"/>
<stop offset="0.56" stop-color="#A7B7DA"/>
</linearGradient>
<linearGradient id="paint8_linear_3510_37747" x1="980.644" y1="182.311" x2="1717.4" y2="182.311" gradientUnits="userSpaceOnUse">
<stop stop-color="#CDD9EF"/>
<stop offset="0.25" stop-color="#CCD8EF"/>
<stop offset="0.75" stop-color="#A7B7DA"/>
</linearGradient>
</defs>
</svg>
