<svg width="108" height="29" viewBox="0 0 108 29" fill="none" xmlns="http://www.w3.org/2000/svg">
<path fill-rule="evenodd" clip-rule="evenodd" d="M38.9249 9.19116L39.0149 10.7947C40.0406 9.55446 41.3873 8.93436 43.0542 8.93436C45.9428 8.93436 47.4131 10.5889 47.4643 13.8981V23.0669H44.3498V14.0776C44.3498 13.197 44.1597 12.5456 43.7795 12.1217C43.3993 11.6986 42.7771 11.487 41.9137 11.487C40.6569 11.487 39.7204 12.056 39.1062 13.1926V23.0669H35.9903V9.19116H38.9264H38.9249ZM56.7479 23.3237C54.7739 23.3237 53.1728 22.7021 51.9467 21.4583C50.7199 20.2144 50.1065 18.5576 50.1065 16.4887V16.1042C50.1065 14.7196 50.3734 13.4815 50.9078 12.3916C51.4415 11.3017 52.1924 10.4532 53.1581 9.84555C54.1239 9.23931 55.2009 8.93582 56.3896 8.93582C58.2781 8.93582 59.7381 9.53841 60.7675 10.7436C61.7984 11.9495 62.3131 13.6544 62.3131 15.8606V17.1175H53.2473C53.3424 18.2629 53.724 19.169 54.3952 19.8358C55.0663 20.5026 55.9108 20.836 56.9277 20.836C58.3549 20.836 59.5173 20.2596 60.4151 19.1048L62.0945 20.7083C61.5388 21.5371 60.7975 22.1805 59.8704 22.6379C58.9427 23.0953 57.9016 23.3237 56.7479 23.3237ZM56.3765 11.4367C55.5211 11.4367 54.8316 11.7358 54.306 12.334C53.7796 12.9322 53.4447 13.7661 53.2992 14.8348H59.2359V14.6036C59.1671 13.5603 58.8893 12.7724 58.4024 12.2377C57.9147 11.7037 57.2399 11.4367 56.3765 11.4367ZM68.6335 5.81925V9.19189H71.0827V11.5001H68.6335V19.2456C68.6335 19.7752 68.7388 20.1575 68.9479 20.3931C69.157 20.6281 69.5313 20.7455 70.0701 20.7455C70.437 20.7445 70.8025 20.7014 71.1595 20.6171V23.0282C70.4503 23.2252 69.7667 23.323 69.108 23.323C66.7151 23.323 65.5183 22.0025 65.5183 19.3609V11.4994H63.2343V9.19116H65.5168V5.81852H68.632L68.6335 5.81925ZM76.7759 23.0676H73.6599V3.37021H76.7759V23.0676ZM83.4816 23.0676H80.3656V9.19189H83.4816V23.0676ZM80.1733 5.58799C80.1733 5.11015 80.3247 4.71255 80.6281 4.39593C80.9322 4.08004 81.3658 3.92174 81.9294 3.92174C82.4939 3.92174 82.9296 4.08004 83.2381 4.39593C83.5452 4.71255 83.6987 5.11015 83.6987 5.58872C83.6987 6.05854 83.5452 6.44957 83.2381 6.76181C82.9296 7.07405 82.4939 7.23017 81.9294 7.23017C81.3658 7.23017 80.9322 7.07405 80.6281 6.76181C80.3247 6.4503 80.1733 6.05854 80.1733 5.58872V5.58799ZM87.9691 23.0676V11.4994H85.8533V9.19116H87.9691V7.92177C87.9691 6.38245 88.3961 5.19477 89.2508 4.35654C90.1062 3.51903 91.3023 3.10028 92.8405 3.10028C93.3881 3.10028 93.9693 3.17688 94.5849 3.33081L94.5082 5.76745C94.115 5.69464 93.7156 5.66043 93.3157 5.66532C91.8279 5.66532 91.0844 6.42987 91.0844 7.96043V9.19116H93.905V11.4994H91.0844V23.0669H87.9691V23.0676ZM101.034 18.6051L103.855 9.19189H107.175L101.663 25.1709C100.816 27.5046 99.3803 28.6719 97.3544 28.6719C96.9011 28.6719 96.401 28.5946 95.8541 28.4406V26.0295L96.4441 26.0682C97.2301 26.0682 97.8223 25.9252 98.22 25.6385C98.617 25.3525 98.9314 24.8718 99.1624 24.1962L99.6106 23.0034L94.7385 9.19189H98.0979L101.034 18.6051Z" fill="white"/>
<path d="M20.2941 10.0352L20.2839 10.0308C20.278 10.0287 20.2722 10.0265 20.267 10.0214C20.2587 10.0124 20.2525 10.0016 20.2489 9.98982C20.2454 9.97806 20.2446 9.96564 20.2466 9.95352L20.8117 6.50574L23.462 9.15103L20.7057 10.3212C20.6981 10.3243 20.6898 10.3258 20.6816 10.3256H20.6706C20.667 10.3234 20.6633 10.3205 20.656 10.3132C20.5534 10.1992 20.4308 10.105 20.2941 10.0352ZM24.1383 9.82512L26.972 12.6528C27.5606 13.2408 27.8552 13.5341 27.9627 13.874C27.9788 13.9244 27.9919 13.9747 28.0022 14.0265L21.2299 11.1645C21.2263 11.163 21.2226 11.1616 21.219 11.1602C21.1919 11.1492 21.1605 11.1368 21.1605 11.1091C21.1605 11.0814 21.1926 11.0682 21.2197 11.0573L21.2285 11.0537L24.1383 9.82512ZM27.8867 14.934C27.7404 15.2084 27.4553 15.4929 26.9728 15.9751L23.7778 19.1624L19.6456 18.3038L19.6237 18.2994C19.5871 18.2935 19.5484 18.287 19.5484 18.2542C19.5327 18.0841 19.4821 17.919 19.3997 17.7693C19.3173 17.6195 19.2049 17.4883 19.0695 17.3838C19.0527 17.367 19.0571 17.3408 19.0622 17.3167C19.0622 17.3131 19.0622 17.3094 19.0636 17.3065L19.8408 12.5456L19.8437 12.5295C19.8481 12.493 19.8547 12.4507 19.8876 12.4507C20.0542 12.43 20.2149 12.3765 20.3605 12.2932C20.5061 12.2099 20.6337 12.0985 20.7357 11.9656C20.7423 11.9583 20.7467 11.9503 20.7554 11.9459C20.7788 11.9349 20.8066 11.9459 20.8307 11.9561L27.8867 14.934ZM23.0431 19.8956L17.7893 25.138L18.6886 19.6228L18.6901 19.6155C18.6908 19.6082 18.6922 19.6009 18.6944 19.5943C18.7017 19.5768 18.7208 19.5695 18.739 19.5622L18.7478 19.5586C18.9447 19.4747 19.1189 19.3455 19.2559 19.1814C19.2735 19.161 19.2947 19.1413 19.3217 19.1376C19.3287 19.1365 19.3359 19.1365 19.3429 19.1376L23.0423 19.8963L23.0431 19.8956ZM16.6773 26.2477L16.0851 26.8386L9.53804 17.3969C9.53567 17.3935 9.53323 17.3901 9.53073 17.3867C9.52049 17.3729 9.50952 17.359 9.51172 17.343C9.51172 17.3313 9.51976 17.3211 9.5278 17.3123L9.53511 17.3028C9.55485 17.2737 9.57167 17.2445 9.58995 17.2131L9.60457 17.1876L9.60676 17.1854C9.617 17.1679 9.6265 17.1511 9.64405 17.1416C9.6594 17.1343 9.6806 17.1372 9.69742 17.1409L16.9507 18.6335C16.971 18.6367 16.9902 18.6449 17.0063 18.6576C17.0158 18.6671 17.018 18.6773 17.0202 18.689C17.0708 18.88 17.165 19.0567 17.2953 19.2054C17.4257 19.3541 17.5888 19.4707 17.7718 19.5462C17.7922 19.5564 17.7835 19.579 17.774 19.6031C17.7692 19.6136 17.7656 19.6246 17.763 19.6359C17.6716 20.1903 16.8879 24.96 16.6773 26.2477ZM15.4403 27.4813C15.0038 27.9124 14.7465 28.1408 14.4555 28.2327C14.1686 28.3232 13.8607 28.3232 13.5738 28.2327C13.2331 28.1247 12.9384 27.8315 12.3499 27.2435L5.77502 20.6828L7.4924 18.0251C7.50044 18.0119 7.50848 18.0003 7.52164 17.9908C7.53992 17.9777 7.56624 17.9835 7.58817 17.9908C7.98236 18.1095 8.40558 18.0881 8.78573 17.9302C8.80547 17.9229 8.82521 17.9178 8.84056 17.9317C8.84824 17.9387 8.8551 17.9465 8.86103 17.955L15.4403 27.4813ZM5.14115 20.0503L3.63288 18.5452L6.61141 17.2773C6.61902 17.274 6.62723 17.2723 6.63554 17.2722C6.6604 17.2722 6.67502 17.297 6.68818 17.3196C6.71811 17.3656 6.74982 17.4104 6.78322 17.4539L6.79273 17.4655C6.8015 17.4779 6.79565 17.4903 6.78688 17.502L5.14115 20.0503ZM2.96537 17.8792L1.05718 15.9751C0.73257 15.6512 0.497154 15.4163 0.333385 15.2142L6.13546 16.415C6.14275 16.4163 6.15006 16.4176 6.15739 16.4186C6.19322 16.4245 6.2327 16.431 6.2327 16.4646C6.2327 16.5011 6.18956 16.5179 6.15301 16.5317L6.13619 16.539L2.96537 17.8792ZM0 14.2352C0.00661226 14.1125 0.0287204 13.9912 0.0657998 13.874C0.174004 13.5341 0.467909 13.2408 1.05718 12.6528L3.49908 10.2162C4.62341 11.8444 5.75078 13.4705 6.88119 15.0945C6.90093 15.1208 6.92286 15.15 6.9002 15.1719C6.79346 15.2893 6.68672 15.4177 6.61141 15.5571C6.60324 15.575 6.59067 15.5905 6.57486 15.6023C6.56535 15.6081 6.55512 15.6059 6.54415 15.6038H6.54269L0 14.2352ZM4.15269 9.56395L7.43464 6.28761C7.7439 6.42258 8.86761 6.89604 9.87142 7.31917C10.6318 7.64017 11.3249 7.93198 11.5427 8.02682C11.5647 8.03557 11.5844 8.04433 11.5939 8.06622C11.5998 8.07935 11.5968 8.09613 11.5939 8.10999C11.5419 8.34648 11.5497 8.59216 11.6164 8.82494C11.6832 9.05772 11.8068 9.2703 11.9763 9.44357C11.9982 9.46546 11.9763 9.49683 11.9573 9.52382L11.947 9.53914L8.61319 14.6918C8.60441 14.7064 8.59637 14.7188 8.58175 14.7283C8.5642 14.7393 8.53934 14.7342 8.51887 14.729C8.38921 14.6951 8.25591 14.677 8.12188 14.6751C8.00198 14.6751 7.87184 14.6969 7.74024 14.721H7.73951C7.72489 14.7232 7.71173 14.7261 7.70003 14.7174C7.68711 14.7068 7.676 14.6943 7.66713 14.6802L4.15269 9.56395ZM8.09922 5.62593L12.3499 1.38442C12.9384 0.797142 13.2331 0.50314 13.5738 0.395899C13.8607 0.305371 14.1686 0.305371 14.4555 0.395899C14.7962 0.50314 15.0908 0.797142 15.6793 1.38442L16.6005 2.30363L13.5774 6.97556C13.5699 6.98916 13.5597 7.00108 13.5474 7.01058C13.5292 7.02298 13.5036 7.01788 13.4816 7.01058C13.2433 6.9384 12.9909 6.92526 12.7463 6.97229C12.5017 7.01933 12.2723 7.12511 12.0779 7.28051C12.0582 7.30093 12.0289 7.28926 12.0041 7.27832C11.6093 7.10688 8.53861 5.81196 8.09922 5.62593ZM17.2425 2.94416L20.0338 5.72952L19.3612 9.8864V9.89734C19.3606 9.90682 19.3586 9.91616 19.3554 9.92507C19.348 9.93966 19.3334 9.94258 19.3188 9.94695C19.175 9.99042 19.0396 10.0577 18.9182 10.1461C18.9129 10.1498 18.908 10.154 18.9035 10.1585C18.8955 10.1673 18.8874 10.1753 18.8743 10.1768C18.8636 10.1771 18.8529 10.1754 18.8429 10.1716L14.5893 8.36824L14.5812 8.36459C14.5542 8.35365 14.522 8.34052 14.522 8.3128C14.497 8.07627 14.4196 7.84826 14.2954 7.64527C14.2749 7.61172 14.2522 7.5767 14.2698 7.54241L17.2425 2.94416ZM14.3677 9.22253L18.3552 10.9077C18.3771 10.918 18.4013 10.9274 18.4108 10.9501C18.4146 10.9637 18.4146 10.978 18.4108 10.9916C18.3991 11.05 18.3888 11.1164 18.3888 11.1835V11.2951C18.3888 11.3229 18.3603 11.3345 18.334 11.3455L18.326 11.3484C17.6943 11.6176 9.45761 15.1223 9.44519 15.1223C9.43276 15.1223 9.4196 15.1223 9.40717 15.1099C9.38524 15.088 9.40717 15.0573 9.42691 15.0296C9.4304 15.0248 9.43381 15.0199 9.43714 15.015L12.714 9.95206L12.7198 9.94331C12.7388 9.91266 12.7608 9.87838 12.7959 9.87838L12.8288 9.88348C12.9033 9.8937 12.9691 9.90318 13.0357 9.90318C13.5328 9.90318 13.9934 9.66171 14.2712 9.24879C14.2779 9.23776 14.2863 9.2279 14.2961 9.21961C14.3158 9.20502 14.3451 9.21231 14.3677 9.22253ZM9.80124 15.9233L18.7792 12.1027C18.7792 12.1027 18.7924 12.1027 18.8048 12.1151C18.8538 12.164 18.8955 12.1968 18.9357 12.2275L18.9554 12.2399C18.9737 12.2501 18.992 12.2618 18.9935 12.2807C18.9935 12.288 18.9935 12.2924 18.992 12.299L18.2229 17.0132L18.2199 17.0322C18.2148 17.0687 18.2097 17.1102 18.1754 17.1102C17.9703 17.1241 17.7717 17.1875 17.5968 17.2952C17.4219 17.4029 17.2759 17.5515 17.1715 17.7282L17.1679 17.734C17.1576 17.7508 17.1481 17.7668 17.1313 17.7756C17.116 17.7829 17.0962 17.78 17.0802 17.7763L9.92041 16.3027C9.9131 16.3012 9.80928 15.924 9.80124 15.9233Z" fill="white"/>
</svg>
