<svg width="170" height="58" viewBox="0 0 170 58" fill="none" xmlns="http://www.w3.org/2000/svg">
<path d="M3 0.333333C4.47276 0.333333 5.66667 1.52724 5.66667 3C5.66667 4.47276 4.47276 5.66667 3 5.66667C1.52724 5.66667 0.333334 4.47276 0.333333 3C0.333333 1.52724 1.52724 0.333333 3 0.333333ZM167 52.3333C168.473 52.3333 169.667 53.5272 169.667 55C169.667 56.4728 168.473 57.6667 167 57.6667C165.527 57.6667 164.333 56.4728 164.333 55C164.333 53.5272 165.527 52.3333 167 52.3333ZM3 2.5L7.27075 2.5L7.27075 3.5L3 3.5L3 2.5ZM15.8123 2.5L24.3538 2.5L24.3538 3.5L15.8123 3.5L15.8123 2.5ZM32.8953 2.5L41.4368 2.5L41.4368 3.5L32.8953 3.5L32.8953 2.5ZM49.9783 2.5L58.5198 2.49999L58.5198 3.49999L49.9783 3.5L49.9783 2.5ZM67.0613 2.49999L75.6028 2.49999L75.6028 3.49999L67.0613 3.49999L67.0613 2.49999ZM84.1443 2.49999L92.6858 2.49999L92.6858 3.49999L84.1443 3.49999L84.1443 2.49999ZM101.227 2.49999L105.498 2.49999L105.498 3.49999L101.227 3.49999L101.227 2.49999ZM105.498 2.49999C107.2 2.49999 108.864 2.66688 110.474 2.98535L110.28 3.96634C108.734 3.66045 107.135 3.49999 105.498 3.49999L105.498 2.49999ZM119.667 6.79537C122.447 8.65693 124.841 11.0508 126.703 13.8314L125.872 14.3877C124.083 11.7158 121.782 9.41518 119.11 7.62634L119.667 6.79537ZM130.513 23.0239C130.831 24.6337 130.998 26.2976 130.998 28L129.998 28C129.998 26.3631 129.838 24.7642 129.532 23.218L130.513 23.0239ZM130.998 28L130.998 28.5L129.998 28.5L129.998 28L130.998 28ZM130.998 29.5L130.998 30L129.998 30L129.998 29.5L130.998 29.5ZM130.998 30C130.998 31.6369 131.159 33.2358 131.464 34.782L130.483 34.9761C130.165 33.3663 129.998 31.7024 129.998 30L130.998 30ZM135.124 43.6122C136.913 46.2842 139.214 48.5848 141.886 50.3737L141.33 51.2046C138.549 49.3431 136.155 46.9491 134.293 44.1685L135.124 43.6122ZM150.716 54.0337C152.262 54.3395 153.861 54.5 155.498 54.5L155.498 55.5C153.796 55.5 152.132 55.3331 150.522 55.0146L150.716 54.0337ZM155.498 54.5L158.374 54.5L158.374 55.5L155.498 55.5L155.498 54.5ZM164.125 54.5L167 54.5L167 55.5L164.125 55.5L164.125 54.5Z" fill="url(#paint0_linear_4083_13791)"/>
<defs>
<linearGradient id="paint0_linear_4083_13791" x1="5.22827" y1="3" x2="46.9824" y2="74.1832" gradientUnits="userSpaceOnUse">
<stop stop-color="#FF5894"/>
<stop offset="1" stop-color="#3A64FA"/>
</linearGradient>
</defs>
</svg>
