<svg width="169" height="6" viewBox="0 0 169 6" fill="none" xmlns="http://www.w3.org/2000/svg">
<path d="M166 5.6667C164.527 5.6667 163.333 4.47279 163.333 3.00003C163.333 1.52727 164.527 0.333365 166 0.333365C167.473 0.333365 168.667 1.52727 168.667 3.00003C168.667 4.47279 167.473 5.6667 166 5.6667ZM3 5.66664C1.52724 5.66663 0.333328 4.47273 0.333328 2.99997C0.333329 1.52721 1.52724 0.333301 3 0.333302C4.47276 0.333302 5.66667 1.52721 5.66667 2.99997C5.66667 4.47273 4.47276 5.66664 3 5.66664ZM166 3.50003L161.925 3.50003L161.925 2.50003L166 2.50003L166 3.50003ZM153.775 3.50003L145.625 3.50002L145.625 2.50002L153.775 2.50003L153.775 3.50003ZM137.475 3.50002L129.325 3.50002L129.325 2.50002L137.475 2.50002L137.475 3.50002ZM121.175 3.50001L113.025 3.50001L113.025 2.50001L121.175 2.50001L121.175 3.50001ZM104.875 3.50001L96.725 3.5L96.725 2.5L104.875 2.50001L104.875 3.50001ZM88.575 3.5L80.425 3.5L80.425 2.5L88.575 2.5L88.575 3.5ZM72.275 3.5L64.125 3.49999L64.125 2.49999L72.275 2.5L72.275 3.5ZM55.975 3.49999L47.825 3.49999L47.825 2.49999L55.975 2.49999L55.975 3.49999ZM39.675 3.49998L31.525 3.49998L31.525 2.49998L39.675 2.49998L39.675 3.49998ZM23.375 3.49998L15.225 3.49997L15.225 2.49997L23.375 2.49998L23.375 3.49998ZM7.07501 3.49997L3 3.49997L3 2.49997L7.07501 2.49997L7.07501 3.49997Z" fill="url(#paint0_linear_4083_13785)"/>
<defs>
<linearGradient id="paint0_linear_4083_13785" x1="2.99999" y1="10.2958" x2="170.984" y2="8.7792" gradientUnits="userSpaceOnUse">
<stop stop-color="#FF5894"/>
<stop offset="1" stop-color="#3A64FA"/>
</linearGradient>
</defs>
</svg>
