<svg width="201" height="82" viewBox="0 0 201 82" fill="none" xmlns="http://www.w3.org/2000/svg">
<path d="M3 81.6667C4.47276 81.6667 5.66667 80.4728 5.66667 79C5.66667 77.5272 4.47276 76.3333 3 76.3333C1.52724 76.3333 0.333333 77.5272 0.333333 79C0.333334 80.4728 1.52724 81.6667 3 81.6667ZM198 5.66667C199.473 5.66667 200.667 4.47276 200.667 3C200.667 1.52724 199.473 0.333336 198 0.333336C196.527 0.333337 195.333 1.52725 195.333 3C195.333 4.47276 196.527 5.66667 198 5.66667ZM3 79.5L6.86364 79.5L6.86364 78.5L3 78.5L3 79.5ZM14.5909 79.5L22.3182 79.5L22.3182 78.5L14.5909 78.5L14.5909 79.5ZM30.0455 79.5L37.7727 79.5L37.7727 78.5L30.0455 78.5L30.0455 79.5ZM45.5 79.5L53.2273 79.5L53.2273 78.5L45.5 78.5L45.5 79.5ZM60.9545 79.5L68.6818 79.5L68.6818 78.5L60.9545 78.5L60.9545 79.5ZM76.4091 79.5L84.1364 79.5L84.1364 78.5L76.4091 78.5L76.4091 79.5ZM91.8636 79.5L99.5909 79.5L99.5909 78.5L91.8636 78.5L91.8636 79.5ZM107.318 79.5L115.045 79.5L115.045 78.5L107.318 78.5L107.318 79.5ZM122.773 79.5L130.5 79.5L130.5 78.5L122.773 78.5L122.773 79.5ZM138.227 79.5L145.955 79.5L145.955 78.5L138.227 78.5L138.227 79.5ZM153.682 79.5L161.409 79.5L161.409 78.5L153.682 78.5L153.682 79.5ZM169.136 79.5L173 79.5L173 78.5L169.136 78.5L169.136 79.5ZM173 79.5C174.702 79.5 176.366 79.3331 177.976 79.0146L177.782 78.0336C176.236 78.3395 174.637 78.5 173 78.5L173 79.5ZM187.169 75.2046C189.949 73.343 192.343 70.9491 194.205 68.1685L193.374 67.6122C191.585 70.2842 189.284 72.5848 186.612 74.3736L187.169 75.2046ZM198.015 58.976C198.333 57.3663 198.5 55.7024 198.5 54L197.5 54C197.5 55.6368 197.34 57.2358 197.034 58.782L198.015 58.976ZM198.5 54L198.5 49.75L197.5 49.75L197.5 54L198.5 54ZM198.5 41.25L198.5 32.75L197.5 32.75L197.5 41.25L198.5 41.25ZM198.5 24.25L198.5 15.75L197.5 15.75L197.5 24.25L198.5 24.25ZM198.5 7.25L198.5 3L197.5 3L197.5 7.25L198.5 7.25Z" fill="url(#paint0_linear_4083_13783)"/>
<defs>
<linearGradient id="paint0_linear_4083_13783" x1="194.834" y1="-1.73569e+07" x2="-2.90669" y2="-1.73569e+07" gradientUnits="userSpaceOnUse">
<stop stop-color="#3A64FA"/>
<stop offset="1" stop-color="#FF5894"/>
</linearGradient>
</defs>
</svg>
