<svg width="170" height="6" viewBox="0 0 170 6" fill="none" xmlns="http://www.w3.org/2000/svg">
<path d="M167 5.66667C165.527 5.66667 164.333 4.47276 164.333 3C164.333 1.52724 165.527 0.333333 167 0.333333C168.473 0.333334 169.667 1.52724 169.667 3C169.667 4.47276 168.473 5.66667 167 5.66667ZM3 5.6666C1.52724 5.6666 0.333328 4.4727 0.333328 2.99994C0.333329 1.52718 1.52724 0.33327 3 0.33327C4.47276 0.33327 5.66667 1.52718 5.66667 2.99994C5.66667 4.4727 4.47276 5.6666 3 5.6666ZM167 3.5L162.9 3.5L162.9 2.5L167 2.5L167 3.5ZM154.7 3.5L146.5 3.49999L146.5 2.49999L154.7 2.5L154.7 3.5ZM138.3 3.49999L130.1 3.49999L130.1 2.49999L138.3 2.49999L138.3 3.49999ZM121.9 3.49998L113.7 3.49998L113.7 2.49998L121.9 2.49998L121.9 3.49998ZM105.5 3.49998L97.3 3.49997L97.3 2.49997L105.5 2.49998L105.5 3.49998ZM89.1 3.49997L80.9 3.49997L80.9 2.49997L89.1 2.49997L89.1 3.49997ZM72.7 3.49996L64.5 3.49996L64.5 2.49996L72.7 2.49996L72.7 3.49996ZM56.3 3.49996L48.1 3.49995L48.1 2.49995L56.3 2.49996L56.3 3.49996ZM39.9 3.49995L31.7 3.49995L31.7 2.49995L39.9 2.49995L39.9 3.49995ZM23.5 3.49994L15.3 3.49994L15.3 2.49994L23.5 2.49994L23.5 3.49994ZM7.10002 3.49994L3 3.49994L3 2.49994L7.10002 2.49994L7.10002 3.49994Z" fill="url(#paint0_linear_4083_13786)"/>
<defs>
<linearGradient id="paint0_linear_4083_13786" x1="3" y1="-4.25169" x2="169.256" y2="-7.10045" gradientUnits="userSpaceOnUse">
<stop stop-color="#FF5894"/>
<stop offset="1" stop-color="#3A64FA"/>
</linearGradient>
</defs>
</svg>
