<svg width="170" height="70" viewBox="0 0 170 70" fill="none" xmlns="http://www.w3.org/2000/svg">
<path d="M167 0.333333C165.527 0.333333 164.333 1.52724 164.333 3C164.333 4.47276 165.527 5.66667 167 5.66667C168.473 5.66667 169.667 4.47276 169.667 3C169.667 1.52724 168.473 0.333333 167 0.333333ZM3 64.3333C1.52724 64.3333 0.333333 65.5272 0.333333 67C0.333333 68.4728 1.52724 69.6667 3 69.6667C4.47277 69.6667 5.66668 68.4728 5.66668 67C5.66668 65.5272 4.47277 64.3333 3 64.3333ZM167 2.5L162.776 2.5L162.776 3.5L167 3.5L167 2.5ZM154.327 2.5L145.878 2.5L145.878 3.5L154.327 3.5L154.327 2.5ZM137.429 2.5L128.981 2.5L128.981 3.5L137.429 3.5L137.429 2.5ZM120.532 2.5L112.083 2.5L112.083 3.5L120.532 3.5L120.532 2.5ZM103.634 2.49999L95.1855 2.49999L95.1855 3.49999L103.634 3.49999L103.634 2.49999ZM86.7367 2.49999L78.2879 2.49999L78.2879 3.49999L86.7367 3.49999L86.7367 2.49999ZM69.8392 2.49999L65.6148 2.49999L65.6148 3.49999L69.8392 3.49999L69.8392 2.49999ZM65.6148 2.49999C63.9124 2.49999 62.2485 2.66688 60.6387 2.98535L60.8327 3.96634C62.379 3.66045 63.9779 3.49999 65.6148 3.49999L65.6148 2.49999ZM51.4462 6.79537C48.6656 8.65693 46.2717 11.0508 44.4101 13.8314L45.2411 14.3878C47.03 11.7158 49.3306 9.41518 52.0025 7.62634L51.4462 6.79537ZM40.6001 23.0239C40.2817 24.6337 40.1148 26.2976 40.1148 28L41.1148 28C41.1148 26.3631 41.2752 24.7642 41.5811 23.218L40.6001 23.0239ZM40.1148 28L40.1148 31.5L41.1148 31.5L41.1148 28L40.1148 28ZM40.1148 38.5L40.1148 42L41.1148 42L41.1148 38.5L40.1148 38.5ZM40.1148 42C40.1148 43.6369 39.9543 45.2358 39.6484 46.782L40.6294 46.9761C40.9479 45.3663 41.1148 43.7024 41.1148 42L40.1148 42ZM35.9884 55.6122C34.1996 58.2842 31.899 60.5848 29.227 62.3737L29.7833 63.2046C32.5639 61.3431 34.9578 58.9491 36.8194 56.1686L35.9884 55.6122ZM20.3968 66.0337C18.8505 66.3395 17.2516 66.5 15.6148 66.5L15.6148 67.5C17.3171 67.5 18.981 67.3331 20.5908 67.0146L20.3968 66.0337ZM15.6148 66.5L12.4611 66.5L12.4611 67.5L15.6148 67.5L15.6148 66.5ZM6.15369 66.5L3 66.5L3 67.5L6.15369 67.5L6.15369 66.5Z" fill="url(#paint0_linear_4083_13790)"/>
<defs>
<linearGradient id="paint0_linear_4083_13790" x1="0.555148" y1="1.46165e+07" x2="166.86" y2="1.46165e+07" gradientUnits="userSpaceOnUse">
<stop stop-color="#FF5894"/>
<stop offset="1" stop-color="#3A64FA"/>
</linearGradient>
</defs>
</svg>
