<svg width="190" height="82" viewBox="0 0 190 82" fill="none" xmlns="http://www.w3.org/2000/svg">
<path d="M187 81.6667C185.527 81.6667 184.333 80.4728 184.333 79C184.333 77.5272 185.527 76.3333 187 76.3333C188.473 76.3333 189.667 77.5272 189.667 79C189.667 80.4728 188.473 81.6667 187 81.6667ZM3 5.66667C1.52724 5.66667 0.333327 4.47277 0.333327 3C0.333327 1.52725 1.52724 0.333338 3 0.333338C4.47276 0.333339 5.66666 1.52725 5.66666 3C5.66665 4.47277 4.47276 5.66667 3 5.66667ZM187 79.5L183.025 79.5L183.025 78.5L187 78.5L187 79.5ZM175.075 79.5L167.125 79.5L167.125 78.5L175.075 78.5L175.075 79.5ZM159.175 79.5L151.225 79.5L151.225 78.5L159.175 78.5L159.175 79.5ZM143.275 79.5L135.325 79.5L135.325 78.5L143.275 78.5L143.275 79.5ZM127.375 79.5L119.425 79.5L119.425 78.5L127.375 78.5L127.375 79.5ZM111.475 79.5L103.525 79.5L103.525 78.5L111.475 78.5L111.475 79.5ZM95.575 79.5L87.625 79.5L87.625 78.5L95.575 78.5L95.575 79.5ZM79.675 79.5L71.725 79.5L71.725 78.5L79.675 78.5L79.675 79.5ZM63.775 79.5L55.825 79.5L55.825 78.5L63.775 78.5L63.775 79.5ZM47.875 79.5L39.925 79.5L39.925 78.5L47.875 78.5L47.875 79.5ZM31.975 79.5L28 79.5L28 78.5L31.975 78.5L31.975 79.5ZM28 79.5C26.2976 79.5 24.6337 79.3331 23.0239 79.0146L23.218 78.0336C24.7642 78.3395 26.3631 78.5 28 78.5L28 79.5ZM13.8314 75.2046C11.0508 73.343 8.65692 70.9491 6.79537 68.1685L7.62633 67.6122C9.41518 70.2842 11.7158 72.5848 14.3878 74.3736L13.8314 75.2046ZM2.98534 58.9761C2.66687 57.3663 2.49999 55.7024 2.49999 54L3.49999 54C3.49999 55.6368 3.66043 57.2358 3.96633 58.782L2.98534 58.9761ZM2.49999 54L2.49999 49.75L3.49999 49.75L3.49999 54L2.49999 54ZM2.49999 41.25L2.49999 32.75L3.49999 32.75L3.49999 41.25L2.49999 41.25ZM2.49999 24.25L2.5 15.75L3.5 15.75L3.49999 24.25L2.49999 24.25ZM2.5 7.25L2.5 3L3.5 3L3.5 7.25L2.5 7.25Z" fill="url(#paint0_linear_4087_41333)"/>
<defs>
<linearGradient id="paint0_linear_4087_41333" x1="6.1663" y1="-1.73569e+07" x2="192.752" y2="-1.73569e+07" gradientUnits="userSpaceOnUse">
<stop stop-color="#F963BC"/>
<stop offset="1" stop-color="#3A64FA"/>
</linearGradient>
</defs>
</svg>
