<svg width="64" height="69" viewBox="0 0 64 69" fill="none" xmlns="http://www.w3.org/2000/svg">
<path fill-rule="evenodd" clip-rule="evenodd" d="M33.9775 12.8183C33.9775 13.2839 33.9478 13.7425 33.8902 14.1925L47.4177 18.7888C48.7259 16.8517 50.9418 15.5781 53.4552 15.5781C57.476 15.5781 60.7355 18.8376 60.7355 22.8584C60.7355 26.8792 57.476 30.1387 53.4552 30.1387C51.0966 30.1387 48.9999 29.017 47.6695 27.2781L17.9575 39.5124L44.3488 41.9116C45.6818 38.0508 49.3479 35.2778 53.6617 35.2778C59.1016 35.2778 63.5115 39.6877 63.5115 45.1276C63.5115 50.5675 59.1016 54.9774 53.6617 54.9774C50.1235 54.9774 47.0211 53.1119 45.2843 50.3108L30.429 57.9635C30.5094 58.3833 30.5515 58.8167 30.5515 59.2599C30.5515 63.0442 27.4837 66.1119 23.6994 66.1119C19.9151 66.1119 16.8474 63.0442 16.8474 59.2599C16.8474 55.4756 19.9151 52.4078 23.6994 52.4078C25.503 52.4078 27.1439 53.1047 28.3674 54.2438L43.8756 46.2547C43.8711 46.2151 43.8669 46.1755 43.8628 46.1358L13.3509 43.3619C12.4217 44.6885 10.8816 45.5558 9.13903 45.5558C6.30082 45.5558 4 43.255 4 40.4168C4 37.5786 6.30082 35.2778 9.13903 35.2778C10.6396 35.2778 11.99 35.9209 12.9295 36.9466L46.1758 22.9742C46.1752 22.9357 46.1749 22.8971 46.1749 22.8584C46.1749 22.8133 46.1753 22.7683 46.1761 22.7234L32.5525 18.1589C30.7031 21.3659 27.2392 23.5246 23.2712 23.5246C17.3583 23.5246 12.5649 18.7312 12.5649 12.8183C12.5649 6.90532 17.3583 2.11194 23.2712 2.11194C29.1842 2.11194 33.9775 6.90532 33.9775 12.8183Z" fill="url(#paint0_linear_1875_28537)"/>
<defs>
<linearGradient id="paint0_linear_1875_28537" x1="51.6809" y1="50.5444" x2="6.60092" y2="41.0657" gradientUnits="userSpaceOnUse">
<stop stop-color="#3A64FA"/>
<stop offset="0.942707" stop-color="#F963BC"/>
</linearGradient>
</defs>
</svg>
