<svg width="102" height="23" viewBox="0 0 102 23" fill="none" xmlns="http://www.w3.org/2000/svg">
<path d="M17.4601 17.5071H17.681V22.5718H16.8369C11.3781 22.5718 8.2227 19.5016 8.2227 14.4841V11.8928L9.99761 11.461C10.5157 11.3306 10.9868 11.0585 11.3576 10.6756C11.7284 10.2926 11.9842 9.81393 12.096 9.29379C12.2063 8.77517 12.1671 8.23606 11.9829 7.73866C11.7987 7.24127 11.4769 6.80587 11.0547 6.48272C10.632 6.15891 10.1272 5.95866 9.59663 5.90441C9.06609 5.85016 8.53086 5.94406 8.05093 6.17559C7.57099 6.40711 7.16532 6.76711 6.87938 7.21524C6.59344 7.66336 6.43853 8.1819 6.43202 8.71273V19.7764H0.917969V8.51643C0.917969 8.17879 0.941634 7.84114 0.981077 7.5035C1.26974 5.52132 2.2721 3.71105 3.80159 2.40961C5.33108 1.10816 7.28352 0.404195 9.29554 0.42872C11.1186 0.410841 12.8975 0.986522 14.3615 2.06809C15.8254 3.14966 16.8942 4.67784 17.4049 6.41991C17.9098 8.2259 17.7441 10.1575 16.9474 11.8536C16.2695 13.2958 15.1839 14.5101 13.8235 15.3478C14.2811 17.1773 15.2435 17.515 17.397 17.515M31.7698 6.7811V9.87485H31.265C30.1921 9.87485 29.356 10.1732 28.7564 10.7543C28.449 11.0704 28.2104 11.4462 28.0557 11.8583C27.901 12.2704 27.8334 12.7099 27.8571 13.1492V18.7321H24.8437V6.96956H27.8571V8.49287C28.2479 7.95876 28.7607 7.52493 29.3533 7.22727C29.9459 6.92961 30.6012 6.77667 31.265 6.7811H31.7698ZM44.7306 13.9344H35.58C35.7614 14.6411 36.1953 15.2693 36.7869 15.709C37.3864 16.1409 38.1122 16.3607 38.9641 16.3607C39.6189 16.3607 40.2657 16.2272 40.8574 15.9446C41.378 15.709 41.8434 15.3556 42.2142 14.9081L44.2257 16.6591C43.5946 17.4101 42.7984 18.0065 41.8986 18.4023C40.952 18.8184 39.9107 19.0304 38.8695 19.0147C37.6987 19.0319 36.5426 18.7537 35.509 18.206C34.5288 17.6926 33.7107 16.9189 33.1454 15.9709C32.58 15.0229 32.2896 13.9375 32.3062 12.8351C32.3062 11.7358 32.5823 10.6444 33.1266 9.69425C33.6638 8.76607 34.447 8.00277 35.3906 7.4878C36.3683 6.95082 37.4689 6.6749 38.5855 6.68688C39.4086 6.66185 40.2282 6.80478 40.9937 7.10688C41.7593 7.40897 42.4546 7.86383 43.0369 8.44346C43.6192 9.02308 44.0762 9.71521 44.3797 10.4772C44.6832 11.2392 44.8267 12.055 44.8016 12.8744C44.8016 13.2277 44.7779 13.5811 44.7227 13.9344H44.7306ZM40.4708 9.97693C39.9244 9.55222 39.2511 9.32152 38.5579 9.32152C37.8646 9.32152 37.1913 9.55222 36.6449 9.97693C36.0919 10.4259 35.7036 11.0443 35.5405 11.7358H41.5831C41.42 11.0443 41.0317 10.4259 40.4787 9.97693H40.4708ZM64.1363 7.88826C64.5449 8.30988 64.8627 8.8101 65.0702 9.35828C65.2777 9.90646 65.3706 10.4911 65.3432 11.0762V18.7399H62.3219V11.9714C62.3219 11.249 62.1168 10.6679 61.6908 10.2439C61.4717 10.0249 61.2091 9.85387 60.9198 9.74165C60.6305 9.62943 60.3208 9.57852 60.0106 9.59217C59.277 9.59217 58.6696 9.81203 58.212 10.2596C57.9808 10.489 57.8004 10.764 57.6822 11.0669C57.564 11.3698 57.5107 11.6939 57.5257 12.0185V18.7399H54.5123V11.9714C54.5123 11.2568 54.2993 10.6836 53.8734 10.2439C53.6489 10.0233 53.3808 9.85145 53.0862 9.73927C52.7915 9.62709 52.4767 9.577 52.1616 9.59217C51.8333 9.57799 51.5056 9.62978 51.198 9.74445C50.8903 9.85913 50.609 10.0343 50.3709 10.2596C50.1401 10.4893 49.9599 10.7643 49.8417 11.0671C49.7236 11.37 49.67 11.6939 49.6846 12.0185V18.7399H46.6712V6.96956H49.6767V8.18664C50.112 7.69348 50.6522 7.30301 51.258 7.04359C51.8638 6.78418 52.5201 6.66232 53.1792 6.68688C53.9365 6.67117 54.6938 6.84392 55.3722 7.18942C56.0032 7.51135 56.5318 7.99819 56.8946 8.6028C57.3587 7.9825 57.9675 7.48394 58.6684 7.15014C59.3693 6.81635 60.1413 6.65735 60.9178 6.68688C62.2588 6.68688 63.3316 7.07949 64.1284 7.8804L64.1363 7.88826ZM79.787 12.8508C79.8082 13.669 79.6578 14.4826 79.3454 15.2397C79.033 15.9968 78.5655 16.6808 77.9727 17.248C77.3745 17.8306 76.6646 18.2872 75.8853 18.5907C75.106 18.8943 74.2733 19.0385 73.4368 19.0147C71.6303 19.0147 70.1236 18.4258 68.9009 17.248C68.3053 16.6822 67.8348 15.9988 67.5197 15.2416C67.2046 14.4845 67.0517 13.6702 67.0708 12.8508C67.0708 11.0998 67.6782 9.63143 68.9009 8.45361C69.4993 7.87144 70.2093 7.41502 70.9885 7.1115C71.7678 6.80799 72.6004 6.66359 73.4368 6.68688C75.2433 6.68688 76.75 7.27579 77.9648 8.45361C78.559 9.02013 79.028 9.7038 79.3418 10.4609C79.6555 11.2181 79.8072 12.032 79.787 12.8508ZM75.7639 15.1829C76.0666 14.8758 76.3038 14.5108 76.4611 14.11C76.6183 13.7092 76.6924 13.2809 76.679 12.8508C76.679 11.9243 76.3713 11.1469 75.7639 10.5266C75.4632 10.2198 75.1018 9.97832 74.7027 9.81749C74.3035 9.65666 73.8751 9.57994 73.4447 9.59217C73.0137 9.58144 72.5852 9.65961 72.186 9.82177C71.7869 9.98393 71.4258 10.2266 71.1255 10.5344C70.5296 11.1614 70.1976 11.9917 70.1976 12.8547C70.1976 13.7178 70.5296 14.5481 71.1255 15.175C71.4261 15.4825 71.7872 15.7249 72.1863 15.887C72.5854 16.0492 73.0138 16.1276 73.4447 16.1173C74.3755 16.1173 75.1486 15.8032 75.756 15.175L75.7639 15.1829ZM85.3011 9.70995V14.6018C85.3011 15.6069 85.8375 16.1094 86.9261 16.1094C87.4704 16.0937 87.9989 15.9524 88.4801 15.7168V18.5122C87.7938 18.8577 87.0365 19.0383 86.2714 19.0147C84.954 19.0147 83.9521 18.6692 83.2895 17.9626C82.5868 17.1711 82.2268 16.1353 82.2877 15.0808V9.70995H80.4023V6.96956H82.2877V5.00652L85.2932 3.98574V6.96956H88.4801V9.70995H85.3011ZM101.827 13.9344H92.661C92.8504 14.6411 93.2763 15.2693 93.8759 15.709C94.4675 16.1409 95.1932 16.3607 96.0452 16.3607C96.6999 16.3607 97.3468 16.2272 97.9384 15.9446C98.4669 15.709 98.9324 15.3556 99.2952 14.9081L101.315 16.6591C100.684 17.4129 99.8869 18.0018 98.9876 18.4023C98.0331 18.8184 96.9997 19.0304 95.9584 19.0147C94.7876 19.0319 93.6315 18.7537 92.5979 18.206C91.6163 17.6936 90.7966 16.9205 90.2298 15.9724C89.663 15.0242 89.3714 13.9383 89.3873 12.8351C89.3873 11.7358 89.6713 10.6522 90.2077 9.69425C90.7485 8.76816 91.5344 8.00765 92.4796 7.49565C93.4565 6.95594 94.5572 6.6773 95.6744 6.68688C97.4493 6.68688 98.9324 7.27579 100.116 8.45361C100.7 9.03036 101.159 9.7203 101.464 10.4807C101.769 11.2411 101.914 12.0558 101.891 12.8744C101.891 13.2277 101.867 13.5811 101.827 13.9344ZM97.5756 9.97693C97.0285 9.55029 96.3536 9.31845 95.6587 9.31845C94.9637 9.31845 94.2888 9.55029 93.7418 9.97693C93.1917 10.4271 92.8063 11.0453 92.6453 11.7358H98.6721C98.511 11.0453 98.1256 10.4271 97.5756 9.97693Z" fill="white"/>
</svg>
