<svg width="66" height="68" viewBox="0 0 66 68" fill="none" xmlns="http://www.w3.org/2000/svg">
<path fill-rule="evenodd" clip-rule="evenodd" d="M33.4603 2L63.9206 10.3876V25.4289C63.9206 31.2683 62.734 39.1911 58.378 46.7596C54.0012 54.3642 46.48 61.5104 34.0044 65.8124L33.4603 66L32.9162 65.8124C20.4405 61.5104 12.9194 54.3642 8.5426 46.7596C4.18662 39.1911 3 31.2683 3 25.4289V10.3876L33.4603 2ZM6.33811 12.9308V25.4289C6.33811 30.8557 7.44645 38.163 11.4358 45.0945C15.3425 51.8824 22.0654 58.407 33.4603 62.4659C44.8552 58.407 51.5781 51.8824 55.4848 45.0945C59.4741 38.163 60.5825 30.8557 60.5825 25.4289V12.9308L33.4603 5.46236L6.33811 12.9308Z" fill="url(#paint0_linear_1892_31921)"/>
<path fill-rule="evenodd" clip-rule="evenodd" d="M33.4603 12.7272L52.2494 17.6092V31.2706C52.2494 32.1924 51.5022 32.9397 50.5804 32.9397C49.6586 32.9397 48.9113 32.1924 48.9113 31.2706V20.1908L33.4603 16.1762L18.0093 20.1908V31.2706C18.0093 32.1924 17.262 32.9397 16.3402 32.9397C15.4184 32.9397 14.6712 32.1924 14.6712 31.2706V17.6092L33.4603 12.7272Z" fill="url(#paint1_linear_1892_31921)"/>
<path fill-rule="evenodd" clip-rule="evenodd" d="M33.4603 24.539L52.2494 29.4209V42.1195C52.2494 43.0413 51.5022 43.7885 50.5804 43.7885C49.6586 43.7885 48.9113 43.0413 48.9113 42.1195V32.0025L33.4603 27.9879L18.0093 32.0025V42.1195C18.0093 43.0413 17.262 43.7885 16.3402 43.7885C15.4184 43.7885 14.6712 43.0413 14.6712 42.1195V29.4209L33.4603 24.539Z" fill="url(#paint2_linear_1892_31921)"/>
<path fill-rule="evenodd" clip-rule="evenodd" d="M33.4603 36.2224L51.0001 40.7797C51.8923 41.0115 52.4276 41.9227 52.1958 42.8149C51.964 43.707 51.0528 44.2424 50.1607 44.0106L33.4603 39.6713L16.76 44.0106C15.8678 44.2424 14.9566 43.707 14.7248 42.8149C14.493 41.9227 15.0283 41.0115 15.9205 40.7797L33.4603 36.2224Z" fill="url(#paint3_linear_1892_31921)"/>
<path fill-rule="evenodd" clip-rule="evenodd" d="M33.4603 48.6849L15.9205 44.1275C15.0283 43.8957 14.493 42.9846 14.7248 42.0924C14.9566 41.2002 15.8678 40.6649 16.7599 40.8967L33.4603 45.2359L50.1606 40.8967C51.0528 40.6649 51.964 41.2002 52.1958 42.0924C52.4276 42.9846 51.8923 43.8957 51.0001 44.1275L33.4603 48.6849Z" fill="url(#paint4_linear_1892_31921)"/>
<defs>
<linearGradient id="paint0_linear_1892_31921" x1="51.8099" y1="50.4324" x2="5.75593" y2="40.5197" gradientUnits="userSpaceOnUse">
<stop stop-color="#3A64FA"/>
<stop offset="0.942707" stop-color="#F963BC"/>
</linearGradient>
<linearGradient id="paint1_linear_1892_31921" x1="51.8099" y1="50.4324" x2="5.75593" y2="40.5197" gradientUnits="userSpaceOnUse">
<stop stop-color="#3A64FA"/>
<stop offset="0.942707" stop-color="#F963BC"/>
</linearGradient>
<linearGradient id="paint2_linear_1892_31921" x1="51.8099" y1="50.4324" x2="5.75593" y2="40.5197" gradientUnits="userSpaceOnUse">
<stop stop-color="#3A64FA"/>
<stop offset="0.942707" stop-color="#F963BC"/>
</linearGradient>
<linearGradient id="paint3_linear_1892_31921" x1="51.8099" y1="50.4324" x2="5.75593" y2="40.5197" gradientUnits="userSpaceOnUse">
<stop stop-color="#3A64FA"/>
<stop offset="0.942707" stop-color="#F963BC"/>
</linearGradient>
<linearGradient id="paint4_linear_1892_31921" x1="51.8099" y1="50.4324" x2="5.75593" y2="40.5197" gradientUnits="userSpaceOnUse">
<stop stop-color="#3A64FA"/>
<stop offset="0.942707" stop-color="#F963BC"/>
</linearGradient>
</defs>
</svg>
