<svg width="32" height="32" viewBox="0 0 32 32" fill="none" xmlns="http://www.w3.org/2000/svg">
<g clip-path="url(#clip0_934_16179)">
<path d="M11.7342 0C9.96404 0 8.53792 1.43125 8.53792 3.2C8.53792 4.04375 8.87568 4.8625 9.4699 5.4625C10.0704 6.0625 10.8835 6.4 11.7342 6.4H14.9304V3.2C14.9304 1.4375 13.5043 0.00625 11.7342 0ZM11.7342 8.53125H3.19625C1.42611 8.53125 0 9.9625 0 11.7312C0 13.5 1.43237 14.9312 3.19625 14.9312H11.7279C13.498 14.9312 14.9242 13.5 14.9242 11.7312C14.9304 9.96875 13.498 8.53125 11.7342 8.53125ZM20.2658 14.9312C22.036 14.9312 23.4683 13.5 23.4621 11.7312V3.2C23.4621 1.43125 22.0297 0 20.2658 0C18.502 0 17.0696 1.43125 17.0696 3.2V11.7312C17.0696 13.5062 18.4957 14.9312 20.2658 14.9312ZM32 11.7312C32 9.9625 30.5676 8.53125 28.8038 8.53125C27.0399 8.53125 25.6075 9.9625 25.6075 11.7312V14.9312H28.8038C30.5676 14.9312 32 13.5 32 11.7312ZM28.7975 17.0688H20.2658C18.4957 17.0688 17.0696 18.5 17.0696 20.2687C17.0696 21.1125 17.4073 21.9312 18.0016 22.5312C18.602 23.1313 19.4152 23.4688 20.2658 23.4688H28.7975C30.5676 23.4688 31.9937 22.0375 31.9937 20.2687C32 18.5 30.5676 17.0688 28.7975 17.0688ZM20.2658 25.6H17.0696V28.8C17.0696 30.5687 18.502 32 20.2658 32C22.0297 32 23.4683 30.5687 23.4621 28.8C23.4683 27.0312 22.036 25.6063 20.2658 25.6ZM11.7342 17.0688C9.96404 17.0688 8.53792 18.5 8.53792 20.2687V28.8C8.53792 30.5687 9.97029 32 11.7342 32C13.498 32 14.9367 30.5687 14.9304 28.8V20.2687C14.9304 19.425 14.5927 18.6063 13.9984 18.0063C13.398 17.4062 12.5786 17.0688 11.7342 17.0688ZM0 20.2687C0 21.1125 0.337764 21.9312 0.931978 22.5312C1.53245 23.1313 2.34558 23.4688 3.19625 23.4688C4.96638 23.4688 6.39875 22.0375 6.39249 20.2687V17.0688H3.19625C1.43237 17.0688 0 18.5 0 20.2687Z" fill="white"/>
</g>
<defs>
<clipPath id="clip0_934_16179">
<rect width="32" height="32" fill="white"/>
</clipPath>
</defs>
</svg>
