<svg width="52" height="52" viewBox="0 0 52 52" fill="none" xmlns="http://www.w3.org/2000/svg">
<path fill-rule="evenodd" clip-rule="evenodd" d="M10.0004 8.60015C7.57034 8.60015 5.60039 10.5701 5.60039 13.0001C5.60039 15.4302 7.57034 17.4001 10.0004 17.4001C12.4304 17.4001 14.4004 15.4302 14.4004 13.0001C14.4004 10.5701 12.4304 8.60015 10.0004 8.60015ZM2.40039 13.0001C2.40039 8.80278 5.80303 5.40015 10.0004 5.40015C13.6489 5.40015 16.6969 7.97108 17.4317 11.4001H46.0004C46.884 11.4001 47.6004 12.1165 47.6004 13.0001C47.6004 13.8838 46.884 14.6001 46.0004 14.6001H17.4317C16.6969 18.0292 13.6489 20.6001 10.0004 20.6001C5.80303 20.6001 2.40039 17.1975 2.40039 13.0001ZM40.0004 35.0001C37.5703 35.0001 35.6004 36.9701 35.6004 39.4001C35.6004 41.8302 37.5703 43.8001 40.0004 43.8001C42.4304 43.8001 44.4004 41.8302 44.4004 39.4001C44.4004 36.9701 42.4304 35.0001 40.0004 35.0001ZM32.5691 37.8001C33.3039 34.3711 36.3519 31.8001 40.0004 31.8001C44.1978 31.8001 47.6004 35.2028 47.6004 39.4001C47.6004 43.5975 44.1978 47.0001 40.0004 47.0001C36.3519 47.0001 33.3039 44.4292 32.5691 41.0001L4.00039 41.0001C3.11674 41.0001 2.40039 40.2838 2.40039 39.4002C2.40039 38.5165 3.11674 37.8001 4.00039 37.8001L32.5691 37.8001ZM30.0004 26.2001C30.0004 28.6302 28.0304 30.6001 25.6004 30.6001C23.1703 30.6001 21.2004 28.6302 21.2004 26.2001C21.2004 23.7701 23.1703 21.8001 25.6004 21.8001C28.0304 21.8001 30.0004 23.7701 30.0004 26.2001ZM25.6004 33.8001C29.2489 33.8001 32.2969 31.2292 33.0317 27.8001L47.2004 27.8001C48.084 27.8001 48.8004 27.0838 48.8004 26.2001C48.8004 25.3165 48.084 24.6001 47.2004 24.6001L33.0317 24.6001C32.2969 21.1711 29.2489 18.6001 25.6004 18.6001C21.9519 18.6001 18.9039 21.1711 18.1691 24.6001H4.00039C3.11674 24.6001 2.40039 25.3165 2.40039 26.2001C2.40039 27.0838 3.11674 27.8001 4.00039 27.8001H18.1691C18.9039 31.2292 21.9519 33.8001 25.6004 33.8001Z" fill="url(#paint0_linear_1975_29320)"/>
<defs>
<linearGradient id="paint0_linear_1975_29320" x1="39.5763" y1="36.8812" x2="5.06939" y2="28.1782" gradientUnits="userSpaceOnUse">
<stop stop-color="#3A64FA"/>
<stop offset="0.942707" stop-color="#F963BC"/>
</linearGradient>
</defs>
</svg>
