<svg width="52" height="52" viewBox="0 0 52 52" fill="none" xmlns="http://www.w3.org/2000/svg">
<path fill-rule="evenodd" clip-rule="evenodd" d="M2.40234 4.79995C2.40234 3.9163 3.11869 3.19995 4.00234 3.19995H20.2023C21.086 3.19995 21.8023 3.9163 21.8023 4.79995C21.8023 5.68361 21.086 6.39995 20.2023 6.39995H5.60234V21C5.60234 21.8836 4.886 22.6 4.00234 22.6C3.11869 22.6 2.40234 21.8836 2.40234 21V4.79995ZM35.1964 14.25C36.9638 14.25 38.3964 15.6827 38.3964 17.45V17.6239C38.3964 19.3912 36.9637 20.8239 35.1964 20.8239H16.6508C14.8835 20.8239 13.4508 19.3912 13.4508 17.6239V17.45C13.4508 15.6827 14.8835 14.25 16.6508 14.25H35.1964ZM19.0854 17.5369C19.0854 18.3149 18.4547 18.9456 17.6767 18.9456C16.8987 18.9456 16.268 18.3149 16.268 17.5369C16.268 16.7589 16.8987 16.1282 17.6767 16.1282C18.4547 16.1282 19.0854 16.7589 19.0854 17.5369ZM35.1964 23.6413C36.9638 23.6413 38.3964 25.074 38.3964 26.8413V27.0152C38.3964 28.7825 36.9637 30.2152 35.1964 30.2152H16.6508C14.8835 30.2152 13.4508 28.7825 13.4508 27.0152V26.8413C13.4508 25.074 14.8835 23.6413 16.6508 23.6413H35.1964ZM19.0854 26.9284C19.0854 27.7064 18.4547 28.3371 17.6767 28.3371C16.8987 28.3371 16.268 27.7064 16.268 26.9284C16.268 26.1504 16.8987 25.5197 17.6767 25.5197C18.4547 25.5197 19.0854 26.1504 19.0854 26.9284ZM38.3964 36.2326C38.3964 34.4653 36.9638 33.0326 35.1964 33.0326H16.6508C14.8835 33.0326 13.4508 34.4653 13.4508 36.2326V36.4066C13.4508 38.1739 14.8835 39.6066 16.6508 39.6066H35.1964C36.9637 39.6066 38.3964 38.1739 38.3964 36.4066V36.2326ZM17.6767 37.7283C18.4547 37.7283 19.0854 37.0976 19.0854 36.3196C19.0854 35.5416 18.4547 34.9109 17.6767 34.9109C16.8987 34.9109 16.268 35.5416 16.268 36.3196C16.268 37.0976 16.8987 37.7283 17.6767 37.7283ZM47.2023 49.5999C48.086 49.5999 48.8023 48.8836 48.8023 47.9999V31.7999C48.8023 30.9163 48.086 30.1999 47.2023 30.1999C46.3187 30.1999 45.6023 30.9163 45.6023 31.7999V46.3999H31.0023C30.1187 46.3999 29.4023 47.1163 29.4023 47.9999C29.4023 48.8836 30.1187 49.5999 31.0023 49.5999L47.2023 49.5999ZM47.2023 3.19995C48.086 3.19995 48.8023 3.9163 48.8023 4.79995L48.8023 21C48.8023 21.8836 48.086 22.6 47.2023 22.6C46.3187 22.6 45.6023 21.8836 45.6023 21L45.6023 6.39995L31.0023 6.39995C30.1187 6.39995 29.4023 5.68361 29.4023 4.79995C29.4023 3.9163 30.1187 3.19995 31.0023 3.19995H47.2023ZM2.40234 47.9999C2.40234 48.8836 3.11869 49.5999 4.00234 49.5999L20.2023 49.6C21.086 49.6 21.8023 48.8836 21.8023 48C21.8023 47.1163 21.086 46.4 20.2023 46.4L5.60234 46.3999L5.60234 31.7999C5.60234 30.9163 4.886 30.1999 4.00234 30.1999C3.11869 30.1999 2.40234 30.9163 2.40234 31.7999V47.9999Z" fill="url(#paint0_linear_1975_29327)"/>
<defs>
<linearGradient id="paint0_linear_1975_29327" x1="39.5782" y1="38.3135" x2="4.66164" y2="30.4181" gradientUnits="userSpaceOnUse">
<stop stop-color="#3A64FA"/>
<stop offset="0.942707" stop-color="#F963BC"/>
</linearGradient>
</defs>
</svg>
