<svg width="52" height="52" viewBox="0 0 52 52" fill="none" xmlns="http://www.w3.org/2000/svg">
<path fill-rule="evenodd" clip-rule="evenodd" d="M48.1788 30.9741C48.5762 30.667 48.8063 30.1911 48.8003 29.6889C48.7943 29.1868 48.5528 28.7165 48.1482 28.419L44.5862 25.7999L48.1482 23.1807C48.5528 22.8832 48.7943 22.413 48.8003 21.9108C48.8063 21.4086 48.5762 20.9327 48.1788 20.6256L30.2406 6.76249C29.7577 6.38935 29.1047 6.32332 28.557 6.59226C28.0092 6.8612 27.6622 7.41828 27.6622 8.02848V13.1246H21.162C18.6314 13.1246 16.7169 12.1935 15.4152 10.6988C14.0923 9.17982 13.2935 6.94866 13.2935 4.19989C13.2935 3.31623 12.5772 2.59989 11.6935 2.59989C10.8099 2.59989 10.0935 3.31623 10.0935 4.19989C10.0935 7.55088 11.0701 10.5821 13.002 12.8004C14.9552 15.0431 17.7748 16.3246 21.162 16.3246H29.2622C30.1458 16.3246 30.8622 15.6082 30.8622 14.7246V11.2871L44.5427 21.8598L41.8853 23.8139L37.4962 20.5866C37.2214 20.3846 36.8893 20.2756 36.5483 20.2756L30.0387 20.2756H23.5292C17.8648 20.2756 13.4022 18.8294 10.3775 16.194C7.38574 13.5874 5.60039 9.64366 5.60039 4.19985C5.60039 3.3162 4.88405 2.59985 4.00039 2.59985C3.11674 2.59985 2.40039 3.3162 2.40039 4.19985C2.40039 10.3898 4.46162 15.2839 8.27536 18.6067C12.0561 21.9008 17.3579 23.4756 23.5292 23.4756L30.0387 23.4756L36.0234 23.4756L39.1844 25.7999L36.0234 28.1241H23.5292C17.3579 28.1241 12.0561 29.6989 8.27536 32.993C4.46162 36.3158 2.40039 41.2099 2.40039 47.3999C2.40039 48.2835 3.11674 48.9999 4.00039 48.9999C4.88405 48.9999 5.60039 48.2835 5.60039 47.3999C5.60039 41.9561 7.38574 38.0123 10.3775 35.4057C13.4022 32.7703 17.8648 31.3241 23.5292 31.3241L36.5483 31.3241C36.8893 31.3241 37.2214 31.2151 37.4962 31.0131L41.8853 27.7858L44.5427 29.7399L30.8622 40.3126V36.8752C30.8622 35.9915 30.1458 35.2752 29.2622 35.2752H21.162C17.7748 35.2752 14.9552 36.5566 13.002 38.7993C11.0701 41.0177 10.0935 44.0488 10.0935 47.3998C10.0935 48.2835 10.8099 48.9998 11.6935 48.9998C12.5772 48.9998 13.2935 48.2835 13.2935 47.3998C13.2935 44.6511 14.0923 42.4199 15.4152 40.9009C16.7169 39.4062 18.6314 38.4752 21.162 38.4752H27.6622V43.5712C27.6622 44.1814 28.0092 44.7385 28.557 45.0075C29.1047 45.2764 29.7577 45.2104 30.2406 44.8372L48.1788 30.9741Z" fill="url(#paint0_linear_1975_29308)"/>
<defs>
<linearGradient id="paint0_linear_1975_29308" x1="39.5763" y1="37.7134" x2="4.65969" y2="29.818" gradientUnits="userSpaceOnUse">
<stop stop-color="#3A64FA"/>
<stop offset="0.942707" stop-color="#F963BC"/>
</linearGradient>
</defs>
</svg>
