<svg width="52" height="52" viewBox="0 0 52 52" fill="none" xmlns="http://www.w3.org/2000/svg">
<path fill-rule="evenodd" clip-rule="evenodd" d="M30.4776 6.2C22.1257 6.2 15.3551 12.9706 15.3551 21.3226C15.3551 29.6745 22.1257 36.4451 30.4776 36.4451C38.8296 36.4451 45.6002 29.6745 45.6002 21.3226C45.6002 12.9706 38.8296 6.2 30.4776 6.2ZM12.1551 21.3226C12.1551 11.2033 20.3584 3 30.4776 3C40.5969 3 48.8002 11.2033 48.8002 21.3226C48.8002 31.4418 40.5969 39.6451 30.4776 39.6451C25.9943 39.6451 21.887 38.0349 18.7026 35.3611L14.1895 39.8734C13.5646 40.4982 12.5515 40.4981 11.9267 39.8732C11.3019 39.2483 11.302 38.2352 11.9269 37.6104L16.4398 33.0984C13.7656 29.9139 12.1551 25.8063 12.1551 21.3226ZM34.9082 26.8966C34.9082 27.7802 34.1919 28.4966 33.3082 28.4966C32.4245 28.4966 31.7082 27.7802 31.7082 26.8966V20.1353H24.9469C24.0633 20.1353 23.3469 19.419 23.3469 18.5353C23.3469 17.6517 24.0633 16.9353 24.9469 16.9353H33.3082C34.1919 16.9353 34.9082 17.6517 34.9082 18.5353V26.8966ZM2.40039 24.1097C2.40039 23.226 3.11673 22.5097 4.00039 22.5097C4.88405 22.5097 5.60039 23.226 5.60039 24.1097L5.60039 46.2H27.6907C28.5744 46.2 29.2907 46.9163 29.2907 47.8C29.2907 48.6836 28.5744 49.4 27.6907 49.4H4.00039C3.11674 49.4 2.40039 48.6836 2.40039 47.8V24.1097Z" fill="url(#paint0_linear_1975_29414)"/>
<defs>
<linearGradient id="paint0_linear_1975_29414" x1="55.2484" y1="18.8703" x2="25.148" y2="12.064" gradientUnits="userSpaceOnUse">
<stop stop-color="#3A64FA"/>
<stop offset="0.942707" stop-color="#F963BC"/>
</linearGradient>
</defs>
</svg>
