<svg width="52" height="52" viewBox="0 0 52 52" fill="none" xmlns="http://www.w3.org/2000/svg">
<path fill-rule="evenodd" clip-rule="evenodd" d="M5.60039 25.9998C5.60039 14.9541 14.5547 5.99981 25.6004 5.9998C31.2647 5.9998 36.3794 8.35349 40.0198 12.1403H36.6923C35.8086 12.1403 35.0923 12.8567 35.0923 13.7403C35.0923 14.624 35.8086 15.3403 36.6923 15.3403H43.3652C43.3804 15.3405 43.3957 15.3405 43.4109 15.3403H43.6977C44.5813 15.3403 45.2977 14.624 45.2977 13.7403V6.73492C45.2977 5.85127 44.5813 5.13492 43.6977 5.13492C42.814 5.13492 42.0977 5.85127 42.0977 6.73492V9.68803C37.8935 5.43668 32.055 2.7998 25.6004 2.7998C12.7874 2.7998 2.40039 13.1868 2.40039 25.9998C2.40039 26.8835 3.11674 27.5998 4.00039 27.5998C4.88405 27.5998 5.60039 26.8835 5.60039 25.9998ZM48.8004 25.9998C48.8004 25.1161 48.084 24.3998 47.2004 24.3998C46.3167 24.3998 45.6004 25.1161 45.6004 25.9998C45.6004 37.0455 36.6461 45.9998 25.6004 45.9998C19.9361 45.9998 14.8214 43.6461 11.1809 39.8593H14.5085C15.3922 39.8593 16.1085 39.1429 16.1085 38.2593C16.1085 37.3756 15.3922 36.6593 14.5085 36.6593H7.83528C7.82024 36.6591 7.80519 36.6591 7.79013 36.6593H7.50312C7.07878 36.6593 6.67181 36.8279 6.37175 37.1279C6.07169 37.428 5.90312 37.8349 5.90312 38.2593L5.90312 45.2647C5.90312 46.1483 6.61947 46.8647 7.50312 46.8647C8.38678 46.8647 9.10312 46.1483 9.10312 45.2647V42.3116C13.3072 46.5629 19.1458 49.1998 25.6004 49.1998C38.4134 49.1998 48.8004 38.8128 48.8004 25.9998ZM18.4004 25.3998C18.4004 24.5161 17.684 23.7998 16.8004 23.7998C15.9167 23.7998 15.2004 24.5161 15.2004 25.3998V33.1998C15.2004 34.0835 15.9167 34.7998 16.8004 34.7998C17.684 34.7998 18.4004 34.0835 18.4004 33.1998V25.3998ZM24.8004 19.9998C25.684 19.9998 26.4004 20.7162 26.4004 21.5998V33.1998C26.4004 34.0835 25.684 34.7998 24.8004 34.7998C23.9167 34.7998 23.2004 34.0835 23.2004 33.1998V21.5998C23.2004 20.7162 23.9167 19.9998 24.8004 19.9998ZM34.4004 17.1998C34.4004 16.3161 33.684 15.5998 32.8004 15.5998C31.9167 15.5998 31.2004 16.3161 31.2004 17.1998V33.1998C31.2004 34.0835 31.9167 34.7998 32.8004 34.7998C33.684 34.7998 34.4004 34.0835 34.4004 33.1998V17.1998Z" fill="url(#paint0_linear_1975_29406)"/>
<defs>
<linearGradient id="paint0_linear_1975_29406" x1="45.7722" y1="50.117" x2="8.69602" y2="35.5253" gradientUnits="userSpaceOnUse">
<stop stop-color="#3A64FA"/>
<stop offset="0.942707" stop-color="#F963BC"/>
</linearGradient>
</defs>
</svg>
