<svg width="52" height="52" viewBox="0 0 52 52" fill="none" xmlns="http://www.w3.org/2000/svg">
<path fill-rule="evenodd" clip-rule="evenodd" d="M20.3123 8.07876C22.6436 4.2003 28.2658 4.20032 30.5971 8.07876L48.0846 37.1708C50.4884 41.1698 47.6081 46.2619 42.9421 46.2619H7.96729C3.30133 46.2619 0.420982 41.1698 2.82485 37.1707L20.3123 8.07876ZM27.8545 9.72738C26.7665 7.91744 24.1429 7.91744 23.0549 9.72738L5.56748 38.8194C4.44568 40.6856 5.78985 43.0619 7.96729 43.0619H42.9421C45.1196 43.0619 46.4637 40.6856 45.3419 38.8194L27.8545 9.72738ZM25.6466 26.4983C20.4933 26.4983 16.4269 30.4949 16.4269 35.2904C16.4269 36.1741 15.7105 36.8904 14.8269 36.8904C13.9432 36.8904 13.2269 36.1741 13.2269 35.2904C13.2269 28.6072 18.8488 23.2983 25.6466 23.2983C26.5303 23.2983 27.2466 24.0146 27.2466 24.8983C27.2466 25.782 26.5303 26.4983 25.6466 26.4983ZM33.8346 28.3161C34.5668 27.8215 35.5614 28.0141 36.056 28.7464C37.3252 30.6254 38.0664 32.8748 38.0664 35.2904C38.0664 36.1741 37.35 36.8904 36.4664 36.8904C35.5827 36.8904 34.8664 36.1741 34.8664 35.2904C34.8664 33.5406 34.3318 31.9107 33.4042 30.5375C32.9096 29.8053 33.1023 28.8107 33.8346 28.3161ZM33.7613 24.8247C34.2331 24.0776 34.0099 23.0894 33.2628 22.6176C32.5156 22.1458 31.5275 22.3689 31.0556 23.1161L23.9069 34.4361C23.435 35.1832 23.6582 36.1714 24.4054 36.6432C25.1525 37.1151 26.1407 36.8919 26.6125 36.1447L33.7613 24.8247Z" fill="url(#paint0_linear_1975_29399)"/>
<defs>
<linearGradient id="paint0_linear_1975_29399" x1="45.8846" y1="47.9278" x2="4.50994" y2="38.8496" gradientUnits="userSpaceOnUse">
<stop stop-color="#3A64FA"/>
<stop offset="0.942707" stop-color="#F963BC"/>
</linearGradient>
</defs>
</svg>
