<svg width="52" height="52" viewBox="0 0 52 52" fill="none" xmlns="http://www.w3.org/2000/svg">
<path fill-rule="evenodd" clip-rule="evenodd" d="M13.8376 12.7178C13.8376 14.9919 11.9941 16.8354 9.71999 16.8354C7.44588 16.8354 5.60234 14.9919 5.60234 12.7178C5.60234 10.4437 7.44588 8.60015 9.71999 8.60015C11.9941 8.60015 13.8376 10.4437 13.8376 12.7178ZM9.71999 20.0354C13.7614 20.0354 17.0376 16.7592 17.0376 12.7178C17.0376 8.67637 13.7614 5.40015 9.71999 5.40015C5.67857 5.40015 2.40234 8.67637 2.40234 12.7178C2.40234 16.7592 5.67856 20.0354 9.71999 20.0354ZM29.7189 12.7178C29.7189 14.9919 27.8754 16.8354 25.6012 16.8354C23.3271 16.8354 21.4836 14.9919 21.4836 12.7178C21.4836 10.4437 23.3271 8.60015 25.6012 8.60015C27.8754 8.60015 29.7189 10.4437 29.7189 12.7178ZM25.6012 20.0354C29.6427 20.0354 32.9189 16.7592 32.9189 12.7178C32.9189 8.67637 29.6427 5.40015 25.6012 5.40015C21.5598 5.40015 18.2836 8.67637 18.2836 12.7178C18.2836 16.7592 21.5598 20.0354 25.6012 20.0354ZM41.4841 16.8354C43.7582 16.8354 45.6017 14.9919 45.6017 12.7178C45.6017 10.4437 43.7582 8.60015 41.4841 8.60015C39.2099 8.60015 37.3664 10.4437 37.3664 12.7178C37.3664 14.9919 39.2099 16.8354 41.4841 16.8354ZM48.8017 12.7178C48.8017 16.7592 45.5255 20.0354 41.4841 20.0354C37.4426 20.0354 34.1664 16.7592 34.1664 12.7178C34.1664 8.67637 37.4426 5.40015 41.4841 5.40015C45.5255 5.40015 48.8017 8.67637 48.8017 12.7178ZM21.7783 26.3766C21.7783 28.6507 19.9347 30.4943 17.6606 30.4943C15.3865 30.4943 13.543 28.6507 13.543 26.3766C13.543 24.1025 15.3865 22.259 17.6606 22.259C19.9347 22.259 21.7783 24.1025 21.7783 26.3766ZM17.6606 33.6943C21.702 33.6943 24.9783 30.4181 24.9783 26.3766C24.9783 22.3352 21.702 19.059 17.6606 19.059C13.6192 19.059 10.343 22.3352 10.343 26.3766C10.343 30.4181 13.6192 33.6943 17.6606 33.6943ZM33.5434 30.4943C35.8175 30.4943 37.6611 28.6507 37.6611 26.3766C37.6611 24.1025 35.8175 22.259 33.5434 22.259C31.2693 22.259 29.4258 24.1025 29.4258 26.3766C29.4258 28.6507 31.2693 30.4943 33.5434 30.4943ZM40.8611 26.3766C40.8611 30.4181 37.5849 33.6943 33.5434 33.6943C29.502 33.6943 26.2258 30.4181 26.2258 26.3766C26.2258 22.3352 29.502 19.059 33.5434 19.059C37.5849 19.059 40.8611 22.3352 40.8611 26.3766ZM29.7189 40.0354C29.7189 42.3095 27.8754 44.1531 25.6012 44.1531C23.3271 44.1531 21.4836 42.3095 21.4836 40.0354C21.4836 37.7613 23.3271 35.9178 25.6012 35.9178C27.8754 35.9178 29.7189 37.7613 29.7189 40.0354ZM25.6012 47.3531C29.6427 47.3531 32.9189 44.0768 32.9189 40.0354C32.9189 35.994 29.6427 32.7178 25.6012 32.7178C21.5598 32.7178 18.2836 35.994 18.2836 40.0354C18.2836 44.0768 21.5598 47.3531 25.6012 47.3531Z" fill="url(#paint0_linear_1975_29374)"/>
<defs>
<linearGradient id="paint0_linear_1975_29374" x1="39.5777" y1="37.1483" x2="5.03664" y2="28.5101" gradientUnits="userSpaceOnUse">
<stop stop-color="#3A64FA"/>
<stop offset="0.942707" stop-color="#F963BC"/>
</linearGradient>
</defs>
</svg>
