<svg width="52" height="52" viewBox="0 0 52 52" fill="none" xmlns="http://www.w3.org/2000/svg">
<path fill-rule="evenodd" clip-rule="evenodd" d="M18.7223 16.8455C21.2304 13.8786 24.7186 12 28.8405 12C36.3168 12 42.3604 18.0205 42.3604 25.4261V26.1971L42.9634 26.6776C44.6223 27.9991 45.6004 29.7186 45.6004 31.8659C45.6004 35.715 42.4579 38.8522 38.5604 38.8522L25.5816 38.8522C21.2868 38.8426 17.8082 35.358 17.8082 31.0609C17.8082 26.7579 21.2965 23.2696 25.5995 23.2696C29.9025 23.2696 33.3908 26.7579 33.3908 31.0609C33.3908 31.9446 34.1072 32.6609 34.9908 32.6609C35.8745 32.6609 36.5908 31.9446 36.5908 31.0609C36.5908 24.9906 31.6698 20.0696 25.5995 20.0696C19.5292 20.0696 14.6082 24.9906 14.6082 31.0609C14.6082 34.1059 15.8464 36.8617 17.8468 38.8522H16.4204C10.4353 38.8522 5.60039 34.0331 5.60039 28.1094C5.60039 22.1856 10.4353 17.3665 16.4204 17.3665C16.7386 17.3665 17.0533 17.3801 17.3639 17.4067L18.1882 17.4773L18.7223 16.8455ZM25.5773 42.0522L16.4204 42.0522C8.68677 42.0522 2.40039 35.8192 2.40039 28.1094C2.40039 20.3996 8.68677 14.1665 16.4204 14.1665C16.5524 14.1665 16.6841 14.1683 16.8154 14.1719C19.8199 10.9183 23.9613 8.80005 28.8405 8.80005C37.8121 8.80005 45.1477 15.832 45.5436 24.6734C47.5096 26.4606 48.8004 28.8778 48.8004 31.8659C48.8004 37.501 44.2064 42.0522 38.5604 42.0522L25.608 42.0522C25.6052 42.0522 25.6023 42.0522 25.5995 42.0522C25.5921 42.0522 25.5847 42.0522 25.5773 42.0522Z" fill="url(#paint0_linear_1975_29338)"/>
<defs>
<linearGradient id="paint0_linear_1975_29338" x1="39.5763" y1="33.9639" x2="6.19751" y2="23.4319" gradientUnits="userSpaceOnUse">
<stop stop-color="#3A64FA"/>
<stop offset="0.942707" stop-color="#F963BC"/>
</linearGradient>
</defs>
</svg>
