<svg width="68" height="68" viewBox="0 0 68 68" fill="none" xmlns="http://www.w3.org/2000/svg">
<g clip-path="url(#clip0_2132_29614)">
<mask id="path-1-inside-1_2132_29614" fill="white">
<path fill-rule="evenodd" clip-rule="evenodd" d="M48.3351 21.1229L49.9504 36.7678L25.938 60.7802L8.67785 43.52L32.6902 19.5077L48.3351 21.1229ZM30.5347 16.0063C30.9605 15.5805 31.5554 15.3692 32.1543 15.4311L50.363 17.311C51.305 17.4083 52.0497 18.153 52.147 19.095L54.0269 37.3037C54.0888 37.9026 53.8775 38.4975 53.4517 38.9233L27.3522 65.0228C26.5712 65.8038 25.3048 65.8039 24.5238 65.0228L4.43521 44.9342C3.65416 44.1532 3.65416 42.8869 4.43521 42.1058L30.5347 16.0063Z"/>
</mask>
<path fill-rule="evenodd" clip-rule="evenodd" d="M48.3351 21.1229L49.9504 36.7678L25.938 60.7802L8.67785 43.52L32.6902 19.5077L48.3351 21.1229ZM30.5347 16.0063C30.9605 15.5805 31.5554 15.3692 32.1543 15.4311L50.363 17.311C51.305 17.4083 52.0497 18.153 52.147 19.095L54.0269 37.3037C54.0888 37.9026 53.8775 38.4975 53.4517 38.9233L27.3522 65.0228C26.5712 65.8038 25.3048 65.8039 24.5238 65.0228L4.43521 44.9342C3.65416 44.1532 3.65416 42.8869 4.43521 42.1058L30.5347 16.0063Z" fill="url(#paint0_linear_2132_29614)"/>
<path d="M49.9504 36.7678L52.7788 39.5962L54.1247 38.2503L53.9292 36.357L49.9504 36.7678ZM48.3351 21.1229L52.3139 20.7121L51.98 17.478L48.7459 17.1441L48.3351 21.1229ZM25.938 60.7802L23.1096 63.6086L25.938 66.437L28.7664 63.6086L25.938 60.7802ZM8.67785 43.52L5.84942 40.6916L3.021 43.52L5.84942 46.3484L8.67785 43.52ZM32.6902 19.5077L33.101 15.5288L31.2077 15.3333L29.8618 16.6792L32.6902 19.5077ZM32.1543 15.4311L32.5651 11.4522L32.5651 11.4522L32.1543 15.4311ZM30.5347 16.0063L27.7063 13.1779L30.5347 16.0063ZM50.363 17.311L50.7738 13.3322L50.7738 13.3322L50.363 17.311ZM52.147 19.095L48.1681 19.5058V19.5058L52.147 19.095ZM54.0269 37.3037L50.0481 37.7145L50.0481 37.7145L54.0269 37.3037ZM53.4517 38.9233L50.6233 36.0949L53.4517 38.9233ZM27.3522 65.0228L30.1806 67.8512L27.3522 65.0228ZM4.43521 42.1058L7.26364 44.9342L4.43521 42.1058ZM53.9292 36.357L52.3139 20.7121L44.3562 21.5337L45.9715 37.1786L53.9292 36.357ZM28.7664 63.6086L52.7788 39.5962L47.1219 33.9394L23.1096 57.9517L28.7664 63.6086ZM5.84942 46.3484L23.1096 63.6086L28.7664 57.9517L11.5063 40.6916L5.84942 46.3484ZM29.8618 16.6792L5.84942 40.6916L11.5063 46.3484L35.5186 22.3361L29.8618 16.6792ZM48.7459 17.1441L33.101 15.5288L32.2794 23.4865L47.9243 25.1018L48.7459 17.1441ZM32.5651 11.4522C30.7683 11.2667 28.9836 11.9006 27.7063 13.1779L33.3632 18.8347C32.9374 19.2605 32.3425 19.4718 31.7435 19.4099L32.5651 11.4522ZM50.7738 13.3322L32.5651 11.4522L31.7435 19.4099L49.9522 21.2899L50.7738 13.3322ZM56.1258 18.6843C55.8341 15.858 53.6 13.624 50.7738 13.3322L49.9522 21.2899C49.0101 21.1926 48.2654 20.4479 48.1681 19.5058L56.1258 18.6843ZM58.0058 36.8929L56.1258 18.6843L48.1681 19.5058L50.0481 37.7145L58.0058 36.8929ZM56.2802 41.7517C57.5574 40.4744 58.1913 38.6897 58.0058 36.8929L50.0481 37.7145C49.9863 37.1155 50.1975 36.5206 50.6233 36.0949L56.2802 41.7517ZM30.1806 67.8512L56.2802 41.7517L50.6233 36.0949L24.5238 62.1944L30.1806 67.8512ZM21.6954 67.8512C24.0385 70.1944 27.8375 70.1944 30.1806 67.8512L24.5238 62.1944C25.3048 61.4133 26.5712 61.4133 27.3522 62.1944L21.6954 67.8512ZM1.60678 47.7627L21.6954 67.8512L27.3522 62.1944L7.26364 42.1058L1.60678 47.7627ZM1.60678 39.2774C-0.736361 41.6205 -0.736364 45.4195 1.60678 47.7627L7.26364 42.1058C8.04469 42.8869 8.04468 44.1532 7.26364 44.9342L1.60678 39.2774ZM27.7063 13.1779L1.60678 39.2774L7.26364 44.9342L33.3632 18.8347L27.7063 13.1779Z" fill="url(#paint1_linear_2132_29614)" mask="url(#path-1-inside-1_2132_29614)"/>
<path d="M43.6448 25.8114C47.6719 29.8385 54.2012 29.8385 58.2283 25.8114C62.2554 21.7842 62.2554 15.2549 58.2283 11.2278C54.2012 7.20067 47.6719 7.20067 43.6448 11.2278" stroke="url(#paint2_linear_2132_29614)" stroke-width="4" stroke-linecap="round"/>
</g>
<defs>
<linearGradient id="paint0_linear_2132_29614" x1="30.4046" y1="52.8588" x2="15.1086" y2="32.5947" gradientUnits="userSpaceOnUse">
<stop stop-color="#3A64FA"/>
<stop offset="0.942707" stop-color="#F963BC"/>
</linearGradient>
<linearGradient id="paint1_linear_2132_29614" x1="30.4046" y1="52.8588" x2="15.1086" y2="32.5947" gradientUnits="userSpaceOnUse">
<stop stop-color="#3A64FA"/>
<stop offset="0.942707" stop-color="#F963BC"/>
</linearGradient>
<linearGradient id="paint2_linear_2132_29614" x1="51.5847" y1="26.6566" x2="43.0919" y2="13.2008" gradientUnits="userSpaceOnUse">
<stop stop-color="#3A64FA"/>
<stop offset="0.942707" stop-color="#F963BC"/>
</linearGradient>
<clipPath id="clip0_2132_29614">
<rect width="68" height="68" fill="white"/>
</clipPath>
</defs>
</svg>
