<svg width="65" height="68" viewBox="0 0 65 68" fill="none" xmlns="http://www.w3.org/2000/svg">
<path d="M33.5645 32.6147C42.6458 40.8189 54.9109 40.7484 62.0208 38.7515C60.5225 52.9033 48.163 64 33.5645 64C18.966 64 6.60646 52.9033 5.10822 38.7515C12.218 40.7484 24.4832 40.8189 33.5645 32.6147ZM42.6951 12.6667C42.6951 17.4531 38.8149 21.3333 34.0285 21.3333C29.242 21.3333 25.3618 17.4531 25.3618 12.6667C25.3618 7.8802 29.242 4 34.0285 4C38.8149 4 42.6951 7.8802 42.6951 12.6667ZM16.7239 22.8696C16.7239 25.607 14.5048 27.8261 11.7674 27.8261C9.03 27.8261 6.81089 25.607 6.81089 22.8696C6.81089 20.1322 9.03 17.913 11.7674 17.913C14.5048 17.913 16.7239 20.1322 16.7239 22.8696ZM60.318 22.8696C60.318 25.607 58.0989 27.8261 55.3615 27.8261C52.6241 27.8261 50.405 25.607 50.405 22.8696C50.405 20.1322 52.6241 17.913 55.3615 17.913C58.0989 17.913 60.318 20.1322 60.318 22.8696Z" stroke="url(#paint0_linear_1875_28542)" stroke-width="4"/>
<defs>
<linearGradient id="paint0_linear_1875_28542" x1="51.9768" y1="50.4324" x2="5.77938" y2="40.4548" gradientUnits="userSpaceOnUse">
<stop stop-color="#3A64FA"/>
<stop offset="0.942707" stop-color="#F963BC"/>
</linearGradient>
</defs>
</svg>
