<svg width="100" height="27" viewBox="0 0 100 27" fill="none" xmlns="http://www.w3.org/2000/svg">
<path d="M23.8708 18.4226L23.8559 18.3784L32.6742 10.3973V6.54884H18.5292V10.3973H26.9805L26.9904 10.4316L18.2564 18.4226V22.2661H32.818V18.4226H23.8708Z" fill="white"/>
<path d="M42.8663 18.1872C42.2514 18.6971 41.4429 18.9471 40.4361 18.9471C39.6078 18.9471 39.0325 18.805 38.7052 18.5157C38.5465 18.3784 38.4225 18.2118 38.3382 18.0206C38.2538 17.8294 38.2142 17.6284 38.2191 17.4225C38.2092 17.2264 38.239 17.0352 38.3084 16.8489C38.3778 16.6675 38.482 16.5008 38.6209 16.3586C38.7696 16.2214 38.9432 16.1184 39.1317 16.0498C39.3202 15.9811 39.5235 15.9517 39.7269 15.9615H43.7889V16.2263C43.7988 16.5989 43.7194 16.9714 43.5607 17.3097C43.402 17.648 43.1639 17.947 42.8663 18.1823V18.1872ZM41.5074 6.18115C39.8757 6.18115 38.5465 6.42628 37.5149 6.91162C36.5576 7.33813 35.7492 8.03428 35.1987 8.91672C34.673 9.80406 34.3406 10.7944 34.2266 11.819L38.5217 12.4171C38.6754 11.515 38.9879 10.8728 39.4541 10.4953C39.9848 10.0982 40.6345 9.90211 41.2991 9.93153C42.172 9.93153 42.8019 10.1619 43.1937 10.6228C43.5805 11.0836 43.7789 11.7209 43.7789 12.5592V12.9759H39.6525C37.5496 12.9759 36.0418 13.4368 35.1243 14.3584C34.2067 15.2801 33.7504 16.4959 33.7504 18.0059C33.7504 19.555 34.2067 20.7022 35.1243 21.4621C36.0418 22.2171 37.1925 22.5945 38.5812 22.5896C40.3022 22.5896 41.6264 22.0063 42.5539 20.8346C43.0995 20.1139 43.4913 19.2903 43.7045 18.4128H43.8583L44.4485 22.2563H48.3369V12.52C48.3369 10.5051 47.8012 8.94613 46.725 7.84308C45.6537 6.74003 43.9079 6.18606 41.4975 6.18606L41.5074 6.18115Z" fill="white"/>
<path d="M71.8656 6.54884H67.268V22.2661H71.8656V6.54884Z" fill="white"/>
<path d="M99.005 6.54884C97.7056 6.54884 96.6839 6.99986 95.935 7.90681C95.3993 8.55884 94.9877 9.51972 94.7099 10.7944H94.576L93.9759 6.54884H90.0528V22.2661H94.6504V14.2065C94.6504 13.1917 94.8934 12.4122 95.3745 11.868C95.8556 11.3238 96.7434 11.0542 98.0379 11.0542H99.7837V6.54884H99.005Z" fill="white"/>
<path d="M81.289 9.86779C83.1539 9.86779 84.2103 10.7747 84.4583 12.5887H77.8668C77.971 11.9857 78.2239 11.4121 78.6058 10.9267C79.2109 10.2208 80.1037 9.86779 81.289 9.86779ZM85.48 7.06359C84.4087 6.43118 83.0547 6.11742 81.418 6.11742C78.8439 6.11742 76.8352 6.84298 75.382 8.28921C73.9289 9.73543 73.1998 11.7307 73.1998 14.2751C73.1651 15.8145 73.5023 17.3391 74.1917 18.7167C74.8216 19.9472 75.7987 20.9669 77.0088 21.6533C78.2239 22.3494 79.6722 22.6975 81.3535 22.6975C82.8067 22.6975 84.0169 22.4769 84.9939 22.0357C85.9115 21.6386 86.705 21.016 87.3101 20.2267C87.8854 19.4521 88.3119 18.5843 88.5698 17.6578L84.612 16.5596C84.4434 17.1626 84.126 17.7117 83.6796 18.1529C83.2332 18.5942 82.4843 18.8148 81.4329 18.8148C80.183 18.8148 79.2506 18.4618 78.6356 17.7509C78.1892 17.2411 77.9115 16.5106 77.7875 15.5644H88.6294C88.674 15.1232 88.6988 14.7506 88.6988 14.4516V13.4711C88.7236 12.1572 88.4508 10.8532 87.8953 9.65699C87.3746 8.56865 86.5364 7.66169 85.4849 7.05379L85.48 7.06359Z" fill="white"/>
<path d="M69.6189 0.214874C69.2717 0.205069 68.9295 0.258996 68.6071 0.381557C68.2847 0.504119 67.9872 0.690412 67.7392 0.925729C67.4961 1.16595 67.3027 1.45519 67.1738 1.76895C67.0448 2.08761 66.9853 2.42588 67.0002 2.76905C66.9853 3.11222 67.0448 3.45539 67.1738 3.77405C67.3027 4.09271 67.4912 4.38195 67.7392 4.62708C67.9872 4.8673 68.2798 5.05849 68.6021 5.18596C68.9245 5.31342 69.2717 5.36735 69.6189 5.35754C69.9661 5.37225 70.3083 5.31342 70.6307 5.18596C70.953 5.05849 71.2407 4.8722 71.4837 4.62708C71.7218 4.38195 71.9103 4.09271 72.0343 3.77405C72.1582 3.45539 72.2128 3.11712 72.2029 2.77395C72.2178 2.43568 72.1632 2.09741 72.0392 1.77875C71.9152 1.4601 71.7268 1.17575 71.4837 0.935534C71.2407 0.695314 70.9481 0.509021 70.6307 0.38646C70.3083 0.263899 69.9661 0.209972 69.6238 0.224679L69.6189 0.214874Z" fill="white"/>
<path d="M60.5873 17.5107C60.0517 18.2804 59.2135 18.6628 58.0727 18.6628C57.6016 18.6824 57.1354 18.5941 56.7039 18.403C56.2773 18.2118 55.9004 17.9176 55.6078 17.5548C55.0126 16.8146 54.715 15.8047 54.72 14.5202V14.2212C54.72 12.9171 55.0176 11.9219 55.6078 11.2258C56.2029 10.5345 57.0213 10.1914 58.0727 10.2012C59.2333 10.2012 60.0765 10.5639 60.6071 11.2944C61.1329 12.0249 61.3957 13.0397 61.3957 14.3437C61.3957 15.6919 61.1329 16.7508 60.5923 17.5107H60.5873ZM60.1211 6.12232C58.5538 6.12232 57.299 6.60767 56.3468 7.57835C55.6425 8.29901 55.1267 9.37265 54.7994 10.8042H54.6506L54.0504 6.55864H50.1273V26.7861H54.725V18.4569H54.8936C55.0325 19.0109 55.2308 19.5501 55.4788 20.0698C55.8657 20.913 56.5055 21.6141 57.3089 22.0896C58.1422 22.5406 59.0796 22.7612 60.0269 22.7367C61.9512 22.7367 63.4143 21.9964 64.4211 20.5159C65.428 19.0354 65.9289 16.9665 65.9289 14.3143C65.9289 11.6621 65.4428 9.74523 64.4658 8.29901C63.4937 6.84789 62.0455 6.12723 60.1211 6.12723V6.12232Z" fill="white"/>
<path d="M16.4808 18.4226H0.580078V22.271H16.4808V18.4226Z" fill="white"/>
</svg>
