<?xml version="1.0" encoding="UTF-8"?>
<svg version="1.1" xmlns="http://www.w3.org/2000/svg" width="500" height="239">
<path d="M0 0 C41.36434745 -0.16121214 41.36434745 -0.16121214 58.79101562 -0.1953125 C70.79051609 -0.2189826 82.78990363 -0.24670258 94.78930664 -0.30175781 C103.53113275 -0.34184734 112.27286663 -0.36748497 121.01478213 -0.37635398 C125.63604233 -0.3815316 130.25703888 -0.39354751 134.87821388 -0.42292023 C178.96245173 -0.69202711 209.60532841 9.05980637 242.00439453 40.1015625 C243.84996578 41.85727109 245.7134536 43.58984444 247.58984375 45.3125 C258.26336688 55.13697653 268.47590693 65.41076427 278.68066406 75.7175293 C279.28051117 76.32164139 279.88035828 76.92575348 280.49838257 77.548172 C281.63877273 78.69687445 282.77706762 79.8476618 283.91299438 81.0007782 C286.68499993 83.85690704 286.68499993 83.85690704 290 86 C290 89 290 89 288.54663086 90.53102112 C287.88026611 91.07064987 287.21390137 91.61027863 286.52734375 92.16625977 C281.95758942 95.99837214 277.7626026 100.10981133 273.5625 104.33984375 C272.79695801 105.10680069 272.03141602 105.87375763 271.24267578 106.66395569 C268.82606803 109.08610881 266.41298274 111.51173612 264 113.9375 C262.35049314 115.59202893 260.70075571 117.24632802 259.05078125 118.90039062 C255.03118629 122.93094202 251.01446831 126.96434272 247 131 C243.70007891 129.55810719 241.52170824 127.76993921 238.98510742 125.22802734 C238.20717331 124.45316986 237.4292392 123.67831238 236.62773132 122.87997437 C235.37921135 121.62067612 235.37921135 121.62067612 234.10546875 120.3359375 C232.80709831 119.03687973 232.80709831 119.03687973 231.48249817 117.71157837 C229.6502678 115.8763264 227.820469 114.03864413 225.99291992 112.19873047 C223.21383909 109.40151101 220.42695851 106.6122587 217.63867188 103.82421875 C215.85630055 102.0369272 214.07438492 100.24918107 212.29296875 98.4609375 C211.46669479 97.63355072 210.64042084 96.80616394 209.78910828 95.95370483 C205.51685914 91.64683969 201.39057669 87.27301788 197.45135498 82.65847778 C191.77654439 76.17381523 184.72181172 71.53720722 177.125 67.625 C176.51406494 67.30337891 175.90312988 66.98175781 175.27368164 66.65039062 C162.04047424 60.18499917 148.09437858 60.53129905 133.73046875 60.48828125 C131.5966948 60.47140725 129.46293062 60.45325342 127.32917786 60.43388367 C121.7546189 60.38667294 116.18009959 60.35667724 110.60540771 60.33044434 C104.90027032 60.30049183 99.19526918 60.25401247 93.49023438 60.20898438 C82.32687909 60.12328077 71.16353714 60.05732037 60 60 C60.33 69.24 60.66 78.48 61 88 C63.72411133 88.0093457 66.44822266 88.01869141 69.25488281 88.02832031 C78.29145254 88.06220423 87.32779665 88.1178163 96.36418533 88.18390274 C101.83883043 88.22328218 107.31331696 88.25551732 112.78808594 88.27099609 C118.07917719 88.28622556 123.36983225 88.32078221 128.66072845 88.36830902 C130.67151837 88.38305817 132.68237059 88.39103727 134.69321442 88.39188385 C155.10840157 88.40911078 167.61114196 92.47048305 182.31054688 107.03344727 C184.39224435 109.12586191 186.46371882 111.22776186 188.53016663 113.3352375 C190.76079343 115.60926776 193.00148906 117.8729413 195.24499512 120.13426208 C200.81142894 125.74847778 206.36316399 131.3771337 211.91046143 137.01025391 C216.61113814 141.78359751 221.31971566 146.54884332 226.04005432 151.30274773 C228.23589337 153.52059502 230.41968313 155.74984956 232.60339355 157.97962952 C245.71081994 171.48916316 245.71081994 171.48916316 263.19021416 177.24609566 C264.34245539 177.24425207 265.49469662 177.24240849 266.68185425 177.24050903 C267.32809852 177.24221788 267.97434279 177.24392673 268.64017022 177.24568737 C270.79131591 177.24896429 272.94214508 177.23800866 275.09326172 177.22705078 C276.64092501 177.22648628 278.18858885 177.22680399 279.73625183 177.22793579 C283.92795877 177.22850877 288.11955085 177.21676326 292.31123114 177.20278788 C296.69544738 177.19027147 301.07966635 177.1891093 305.46389771 177.18673706 C313.76168437 177.18052497 322.05941824 177.16411781 330.35718167 177.14403808 C339.80574305 177.12167066 349.25430698 177.11068353 358.70288825 177.10064721 C378.13528875 177.07975135 397.56764013 177.04458063 417 177 C416.2107312 176.21517242 415.4214624 175.43034485 414.60827637 174.62173462 C407.18613595 167.24006335 399.76922572 159.85317304 392.35746002 152.46108437 C388.54644403 148.66052443 384.73358213 144.8618549 380.91650391 141.06738281 C377.23580336 137.40834576 373.55994978 133.74450466 369.88746643 130.07722092 C368.4825191 128.67598105 367.0758071 127.27650831 365.66734314 125.87880325 C363.70132108 123.92720975 361.74155657 121.96953813 359.78320312 120.01025391 C359.1941066 119.42834793 358.60501007 118.84644196 357.99806213 118.24690247 C354 114.22810432 354 114.22810432 354 112 C353.01 111.67 352.02 111.34 351 111 C351 110.34 351 109.68 351 109 C350.4212915 108.75886475 349.84258301 108.51772949 349.24633789 108.26928711 C346.56371403 106.7534778 345.0595079 105.03432011 343.05859375 102.69140625 C337.85278501 96.76247964 332.33808572 91.18647554 326.74975586 85.61938477 C325.03704724 83.91212826 323.32986826 82.19946837 321.62304688 80.48632812 C320.53157123 79.39551182 319.43978621 78.30500496 318.34765625 77.21484375 C317.83936783 76.7045311 317.33107941 76.19421844 316.80738831 75.66844177 C314.15475572 73.00087088 314.15475572 73.00087088 311 71 C311 68 311 68 312.44567871 66.47666931 C313.11006958 65.93901443 313.77446045 65.40135956 314.45898438 64.84741211 C319.11224651 60.94518914 323.37891773 56.74832515 327.65625 52.44140625 C328.44398804 51.65225327 329.23172607 50.86310028 330.04333496 50.05003357 C332.53127102 47.55654988 335.01568624 45.05959216 337.5 42.5625 C339.1976841 40.85979413 340.89559858 39.15731793 342.59375 37.45507812 C346.7318328 33.30603588 350.86703935 29.15414424 355 25 C358.99353125 26.82063495 361.45400254 29.43171311 364.3125 32.6875 C365.291713 33.78107364 366.27217816 34.8735274 367.25390625 35.96484375 C367.72586426 36.49062012 368.19782227 37.01639648 368.68408203 37.55810547 C370.3172444 39.34761511 372.01752994 41.05681497 373.75 42.75 C376.00323297 44.95456545 378.09426235 47.2329445 380.13929749 49.63121033 C384.23732899 54.33875739 388.60388777 58.7442783 393.02124023 63.15063477 C393.896987 64.02813385 394.77273376 64.90563293 395.67501831 65.8097229 C398.05542954 68.19375691 400.43803766 70.57555005 402.82185245 72.95617795 C405.33001321 75.46178625 407.83570969 77.96985711 410.34181213 80.4775238 C414.54875222 84.68627721 418.75778251 88.89293159 422.96801758 93.09838867 C427.81809465 97.94302475 432.66455908 102.79125242 437.50916332 107.64136082 C441.68758764 111.82434019 445.86797886 116.00534637 450.04998547 120.1847443 C452.5394521 122.67266128 455.02826058 125.16122658 457.5152874 127.65158272 C460.29043921 130.43019069 463.06971062 133.20465597 465.84936523 135.97875977 C466.66052292 136.79194168 467.4716806 137.6051236 468.30741882 138.44294739 C472.48973487 142.60987879 476.74404024 146.62435921 481.23143101 150.46203518 C484.19352343 153.03789959 486.97367054 155.78951551 489.75 158.5625 C490.30042969 159.10068359 490.85085938 159.63886719 491.41796875 160.19335938 C497.06802395 165.82309063 500.60255102 170.34113989 500.9375 178.625 C501.02902344 179.91664063 501.12054688 181.20828125 501.21484375 182.5390625 C500.30950347 188.82750714 495.07734969 192.95106605 490.77346802 197.2288208 C488.88471554 199.11513568 487.03031042 201.0311108 485.17944336 202.95458984 C481.70607334 206.55618836 478.19860037 210.12209003 474.67529297 213.67480469 C473.21971723 215.14704359 471.76954253 216.6246412 470.32470703 218.10742188 C450.3218233 238.62921642 450.3218233 238.62921642 436.26357174 239.13422108 C434.77932971 239.14359025 433.29504732 239.14752956 431.81077576 239.14717102 C430.99009285 239.15084771 430.16940993 239.1545244 429.32385784 239.1583125 C426.57584351 239.16931907 423.82786703 239.17318805 421.07983398 239.17700195 C419.108443 239.18326896 417.13705319 239.18991597 415.16566467 239.19691467 C408.69248269 239.21793169 402.21930055 239.22831581 395.74609375 239.23828125 C393.51476593 239.24232988 391.28343824 239.24644683 389.05211067 239.25063133 C378.56667065 239.2696789 368.08123764 239.28391008 357.59578365 239.2922433 C345.50697273 239.30201027 333.41834518 239.32831764 321.32959884 239.36874419 C311.97652008 239.3989448 302.62349376 239.41371598 293.27036721 239.41702431 C287.68866558 239.41937054 282.10715994 239.42827531 276.52551079 239.45348549 C271.26988432 239.47683978 266.01458186 239.48096984 260.75891685 239.47072411 C258.83693613 239.4702304 256.91493906 239.47650166 254.99300766 239.49028015 C238.54799613 239.60151669 225.71180905 237.35883005 213.32752991 225.66137695 C212.11429924 224.44472175 210.90914988 223.21996734 209.71118164 221.98828125 C209.04318039 221.31429291 208.37517914 220.64030457 207.68693542 219.94589233 C206.25138064 218.49568419 204.81927835 217.04205158 203.39036751 215.58529663 C201.12197109 213.27358571 198.84358019 210.97215154 196.56236267 208.6730957 C190.90079194 202.9636823 185.25384369 197.23989846 179.61138916 191.51159668 C174.83379744 186.66134787 170.04831319 181.81918548 165.25106621 176.9883728 C163.01756751 174.73285404 160.79610892 172.46592479 158.57472229 170.19848633 C145.55136961 156.72773376 145.55136961 156.72773376 128.21583748 150.73828697 C127.25532919 150.73275621 126.2948209 150.72722546 125.3052063 150.7215271 C124.19699587 150.71037558 123.08878544 150.69922405 121.94699287 150.6877346 C120.74132605 150.68556246 119.53565922 150.68339031 118.29345703 150.68115234 C116.9942375 150.67099909 115.69501797 150.66084583 114.35642815 150.6503849 C110.85326692 150.62320341 107.35014748 150.60775916 103.84690857 150.59480286 C100.55536151 150.58083474 97.26390127 150.5562056 93.97241211 150.5324707 C84.35667225 150.46930802 74.74082656 150.42318761 65.125 150.375 C43.63375 150.25125 22.1425 150.1275 0 150 C0 100.5 0 51 0 0 Z " fill="#000000" transform="translate(0,0)"/>
</svg>
