<svg xmlns="http://www.w3.org/2000/svg" width="600" height="192.562" viewBox="0 0 600 192.562">
  <g id="Layer_2" data-name="Layer 2" transform="translate(0)">
    <g id="Layer_3" data-name="Layer 3" transform="translate(0)">
      <path id="Path_8" data-name="Path 8" d="M118.81,41.65" transform="translate(202.469 70.978)" fill="none"/>
      <rect id="Rectangle_2" data-name="Rectangle 2" width="27.88" height="116.305" transform="translate(162.546 37.479)" fill="#002f87"/>
      <path id="Path_9" data-name="Path 9" d="M115.891,113.709V62.2h27.582L133.5,37.452h-17.6V0H87.958V37.479H73.22V62.2H87.958v51.379a40.1,40.1,0,0,0,40.075,40.238h18.659v-27.88H128.033a12.25,12.25,0,0,1-12.142-12.223Z" transform="translate(124.777)" fill="#002f87"/>
      <path id="Path_10" data-name="Path 10" d="M140.786,119.295,98.25,13.86H130.1l26.42,74.607L184.593,13.86h31.639L149.385,168.943H119.424Z" transform="translate(167.432 23.62)" fill="#002f87"/>
      <path id="Path_11" data-name="Path 11" d="M20.686,50.773a20.714,20.714,0,1,1,14.668-6.115,20.687,20.687,0,0,1-14.668,6.115Zm0-28.312a7.626,7.626,0,1,0,7.626,7.49,7.625,7.625,0,0,0-7.626-7.49Z" transform="translate(0 16.019)" fill="#82bc00"/>
      <path id="Path_12" data-name="Path 12" d="M76.568,110.9c-20.957,0-34.992-16.549-34.992-36.479,0-23.878,16.766-36.479,33.748-36.479s23.688,11.114,27.041,16.982h31.5C121.916,19.1,90.062,12.39,75.405,12.39a62.033,62.033,0,1,0,.216,124.066c27.231,0,48.837-15.711,58.247-41.7h-31.53C95.01,106.494,85.789,110.9,76.568,110.9Z" transform="translate(22.971 21.114)" fill="#002f87"/>
      <path id="Path_13" data-name="Path 13" d="M147.32,25.1h4.894a10.492,10.492,0,0,1,3.894.514,5.787,5.787,0,0,1,3.867,5.544,4.543,4.543,0,0,1-2.326,4.408,5.192,5.192,0,0,1,3.6,5.408A6.977,6.977,0,0,1,159,46.382,8.41,8.41,0,0,1,153,48H147.32Zm4.786,9.14c2.434,0,3.651-.865,3.651-2.7s-1.163-2.488-3.515-2.488h-.649v5.138Zm.838,9.546c2.7,0,3.921-.838,3.921-2.7s-1.352-3.137-3.921-3.137h-1.352v5.841Z" transform="translate(251.055 42.746)" fill="#82bc00"/>
      <path id="Path_14" data-name="Path 14" d="M158.079,25.09V38.178c0,3.7.568,5.408,2.866,5.408s2.866-1.758,2.866-5.408V25.09h4.462V39.476a9.627,9.627,0,0,1-1.163,5.706,7.788,7.788,0,0,1-12.331,0,9.437,9.437,0,0,1-1.163-5.706V25.09Z" transform="translate(261.685 42.757)" fill="#82bc00"/>
      <path id="Path_15" data-name="Path 15" d="M160.64,25.09h4.435V47.778H160.64Z" transform="translate(273.754 42.757)" fill="#82bc00"/>
      <path id="Path_16" data-name="Path 16" d="M163.92,47.778V25.09h4.408V43.776h7.112v4Z" transform="translate(279.344 42.757)" fill="#82bc00"/>
      <path id="Path_17" data-name="Path 17" d="M169.35,47.817V25.129h7.6a10.627,10.627,0,0,1,8.3,2.7,11.736,11.736,0,0,1,3.245,8.734,11.222,11.222,0,0,1-4.489,9.546,10.817,10.817,0,0,1-6.923,1.7ZM183.979,36.46A6.733,6.733,0,0,0,176.732,29h-2.921V43.815h2.975c4.895,0,7.193-2.19,7.193-7.355Z" transform="translate(288.597 42.718)" fill="#82bc00"/>
      <path id="Path_18" data-name="Path 18" d="M177.69,25.09h4.435V47.778H177.69Z" transform="translate(302.81 42.757)" fill="#82bc00"/>
      <path id="Path_19" data-name="Path 19" d="M181,47.778V25.09h4.218l9.3,14.494V25.09h4.354V47.778h-4.11L185.3,32.959V47.913Z" transform="translate(308.45 42.757)" fill="#82bc00"/>
      <path id="Path_20" data-name="Path 20" d="M212.212,36.8a11.114,11.114,0,0,1-1.082,5.084A11.52,11.52,0,0,1,200.5,48.565a11.3,11.3,0,0,1-8.626-3.894,11.844,11.844,0,0,1-2.975-8.112,11.547,11.547,0,0,1,3.6-8.356,11.276,11.276,0,0,1,8.329-3.3,10.817,10.817,0,0,1,10.438,7.031h-5.408a6.49,6.49,0,0,0-5.408-2.461,7.247,7.247,0,0,0,0,14.467A6.733,6.733,0,0,0,206.7,39.8h-8.9V35.991h14.17A1.272,1.272,0,0,1,212.212,36.8Z" transform="translate(321.911 42.43)" fill="#82bc00"/>
      <path id="Path_21" data-name="Path 21" d="M147.29,59.118V36.43h12.25v3.975H151.7V45.57h7.842v3.921H151.7v5.625h7.842v4Z" transform="translate(251.004 62.082)" fill="#82bc00"/>
      <path id="Path_22" data-name="Path 22" d="M153.43,59.118V36.43h4.246l9.383,14.494V36.43h4.354V59.118H167.3l-9.627-14.927V59.145Z" transform="translate(261.467 62.082)" fill="#82bc00"/>
      <path id="Path_23" data-name="Path 23" d="M184.76,48.125a11.114,11.114,0,0,1-1.082,5.084A11.52,11.52,0,0,1,173,59.915a11.3,11.3,0,0,1-8.68-3.894,11.844,11.844,0,0,1-2.975-8.112,11.547,11.547,0,0,1,3.6-8.356,11.276,11.276,0,0,1,8.329-3.3,10.817,10.817,0,0,1,10.438,7.031H178.3a6.49,6.49,0,0,0-5.408-2.461,7.247,7.247,0,0,0,0,14.467,6.733,6.733,0,0,0,6.463-4.137h-8.9V47.368h14.3Z" transform="translate(274.945 61.772)" fill="#82bc00"/>
      <path id="Path_24" data-name="Path 24" d="M171.24,36.43h4.435V59.118H171.24Z" transform="translate(291.818 62.082)" fill="#82bc00"/>
      <path id="Path_25" data-name="Path 25" d="M174.52,59.118V36.43h4.218l9.383,14.494V36.43h4.354V59.118h-4.11l-9.438-14.954V59.118Z" transform="translate(297.408 62.082)" fill="#82bc00"/>
      <path id="Path_26" data-name="Path 26" d="M182.8,59.118V36.43h12.25v3.975h-7.842V45.57h7.842v3.921h-7.842v5.625h7.842v4Z" transform="translate(311.518 62.082)" fill="#82bc00"/>
      <path id="Path_27" data-name="Path 27" d="M188.94,59.118V36.43h12.25v3.975h-7.842V45.57h7.842v3.921h-7.842v5.625h7.842v4Z" transform="translate(321.981 62.082)" fill="#82bc00"/>
      <path id="Path_28" data-name="Path 28" d="M195.08,59.149V36.461h5.408a14.575,14.575,0,0,1,5.976.757,7,7,0,0,1-1.433,13.115l5.679,8.816H205.3L199.434,48.6V59.149Zm5.408-11.655c3.6,0,5.408-1.352,5.408-3.84s-1.6-3.515-4.813-3.515h-1.65v7.355Z" transform="translate(332.445 62.051)" fill="#82bc00"/>
      <path id="Path_29" data-name="Path 29" d="M202,36.43h4.435V59.118H202Z" transform="translate(344.238 62.082)" fill="#82bc00"/>
      <path id="Path_30" data-name="Path 30" d="M205.33,59.118V36.43h4.218l9.383,14.494V36.43h4.435V59.118h-4.11l-9.438-14.954V59.118Z" transform="translate(349.912 62.082)" fill="#82bc00"/>
      <path id="Path_31" data-name="Path 31" d="M236.606,48.125a11.114,11.114,0,0,1-1.082,5.084A11.52,11.52,0,0,1,224.9,59.915a11.3,11.3,0,0,1-8.68-3.894,11.844,11.844,0,0,1-2.975-8.112,11.547,11.547,0,0,1,3.6-8.356,11.276,11.276,0,0,1,8.329-3.3,10.817,10.817,0,0,1,10.438,7.031H230.2a6.49,6.49,0,0,0-5.408-2.461,7.247,7.247,0,0,0,0,14.467,6.733,6.733,0,0,0,6.247-4.137h-8.9V47.368h14.17A.917.917,0,0,1,236.606,48.125Z" transform="translate(363.39 61.772)" fill="#82bc00"/>
      <path id="Path_32" data-name="Path 32" d="M150.907,63.691v.324a2.82,2.82,0,1,0,5.6.189c0-2.434-1.352-2.7-3.813-3.353a6.22,6.22,0,0,1-5.246-6.192,6.382,6.382,0,0,1,6.49-7.058,6.084,6.084,0,0,1,6.22,6.544h-4.029v-.054a2.271,2.271,0,0,0-2.353-2.434,2.3,2.3,0,0,0-2.353,2.542,2.19,2.19,0,0,0,.541,1.568c.892,1,2.407,1.109,4.191,1.731a5.868,5.868,0,0,1,4.57,6.057,7.031,7.031,0,0,1-7.112,7.761,6.841,6.841,0,0,1-6.841-7.49Z" transform="translate(250.064 81.116)" fill="#82bc00"/>
      <path id="Path_33" data-name="Path 33" d="M153.18,70.458V47.77h12.25v4h-7.842v5.165h7.842v3.921h-7.842v5.625h7.842v4Z" transform="translate(261.041 81.407)" fill="#82bc00"/>
      <path id="Path_34" data-name="Path 34" d="M159.32,70.489V47.8h5.408a14.575,14.575,0,0,1,5.976.757,7,7,0,0,1-1.433,13.115l5.679,8.816h-5.408L163.863,59.97V70.516Zm5.408-11.655c3.6,0,5.408-1.352,5.408-3.84s-1.6-3.515-4.813-3.515h-1.46v7.355Z" transform="translate(271.505 81.376)" fill="#82bc00"/>
      <path id="Path_35" data-name="Path 35" d="M173.452,70.458,165.34,47.77H170.1l4.949,15.143,4.976-15.143h4.732l-8.112,22.688Z" transform="translate(281.763 81.407)" fill="#82bc00"/>
      <path id="Path_36" data-name="Path 36" d="M173.21,47.77h4.435V70.458H173.21Z" transform="translate(295.175 81.407)" fill="#82bc00"/>
      <path id="Path_37" data-name="Path 37" d="M193.057,54.894a6.247,6.247,0,0,0-5.408-2.7,6.6,6.6,0,0,0-4.786,2,7.41,7.41,0,0,0-2.109,5.138,7.031,7.031,0,0,0,6.9,7.355,6.084,6.084,0,0,0,5.165-2.434h5.408a10.817,10.817,0,0,1-10.573,6.95,11.087,11.087,0,0,1-8.6-3.894,11.817,11.817,0,0,1-2.947-8.112,11.554,11.554,0,0,1,22.255-4.462Z" transform="translate(300.098 81.017)" fill="#82bc00"/>
      <path id="Path_38" data-name="Path 38" d="M185.61,70.458V47.77h12.25v4h-7.842v5.165h7.842v3.921h-7.842v5.625h7.842v4Z" transform="translate(316.307 81.407)" fill="#82bc00"/>
      <path id="Path_39" data-name="Path 39" d="M195.248,63.692v.324a2.82,2.82,0,1,0,5.6.189c0-2.434-1.352-2.7-3.813-3.353a6.22,6.22,0,0,1-5.192-6.193,6.382,6.382,0,0,1,6.49-7.058,6.084,6.084,0,0,1,6.274,6.49h-4.029a2.271,2.271,0,0,0-2.353-2.434,2.3,2.3,0,0,0-2.271,2.434,2.19,2.19,0,0,0,.541,1.568c.892,1,2.407,1.109,4.191,1.731a5.868,5.868,0,0,1,4.57,6.057,7.031,7.031,0,0,1-7.112,7.761,6.841,6.841,0,0,1-6.842-7.49Z" transform="translate(325.95 81.115)" fill="#82bc00"/>
    </g>
  </g>
</svg>
