<svg xmlns="http://www.w3.org/2000/svg" width="221.88" height="71.21" viewBox="0 0 221.88 71.21"><defs><style>.cls-1{fill:none;}.cls-2{fill:#002f87;}.cls-3{fill:#82bc00;}</style></defs><title>Asset 1</title><g id="Layer_2" data-name="Layer 2"><g id="Layer_3" data-name="Layer 3"><path class="cls-1" d="M118.81,41.65"/><rect class="cls-2" x="60.11" y="13.86" width="10.31" height="43.01"/><path class="cls-2" d="M89,42.05V23h10.2l-3.69-9.15H89V0H78.67V13.86H73.22V23h5.45v19A14.83,14.83,0,0,0,93.49,56.88h6.9V46.57h-6.9A4.53,4.53,0,0,1,89,42.05Z"/><polygon class="cls-2" points="113.98 52.85 98.25 13.86 110.03 13.86 119.8 41.45 130.18 13.86 141.88 13.86 117.16 71.21 106.08 71.21 113.98 52.85"/><path class="cls-3" d="M7.65,24.7A7.65,7.65,0,1,1,15.3,17,7.66,7.66,0,0,1,7.65,24.7Zm0-10.47A2.82,2.82,0,1,0,10.47,17,2.82,2.82,0,0,0,7.65,14.23Z"/><path class="cls-2" d="M36.81,48.82c-7.75,0-12.94-6.12-12.94-13.49,0-8.83,6.2-13.49,12.48-13.49s8.76,4.11,10,6.28H58c-4.42-13.25-16.2-15.73-21.62-15.73a22.94,22.94,0,0,0,.08,45.88c10.07,0,18.06-5.81,21.54-15.42H46.34C43.63,47.19,40.22,48.82,36.81,48.82Z"/><path class="cls-3" d="M147.32,25.09h1.81a3.88,3.88,0,0,1,1.44.19A2.14,2.14,0,0,1,152,27.33a1.68,1.68,0,0,1-.86,1.63,1.92,1.92,0,0,1,1.33,2,2.58,2.58,0,0,1-.83,2,3.11,3.11,0,0,1-2.22.6h-2.1Zm1.77,3.38c.9,0,1.35-.32,1.35-1s-.43-.92-1.3-.92h-.24v1.9ZM149.4,32c1,0,1.45-.31,1.45-1s-.5-1.16-1.45-1.16h-.5V32Z"/><path class="cls-3" d="M155.23,25.09v4.84c0,1.37.21,2,1.06,2s1.06-.65,1.06-2V25.09H159v5.32a3.56,3.56,0,0,1-.43,2.11,2.88,2.88,0,0,1-4.56,0,3.49,3.49,0,0,1-.43-2.11V25.09Z"/><path class="cls-3" d="M160.64,25.09h1.64v8.39h-1.64Z"/><path class="cls-3" d="M163.92,33.48V25.09h1.63V32h2.63v1.48Z"/><path class="cls-3" d="M169.35,33.48V25.09h2.81a3.93,3.93,0,0,1,3.07,1,4.34,4.34,0,0,1,1.2,3.23,4.15,4.15,0,0,1-1.66,3.53,4,4,0,0,1-2.56.63Zm5.41-4.2a2.49,2.49,0,0,0-2.68-2.76H171V32h1.1C173.91,32,174.76,31.19,174.76,29.28Z"/><path class="cls-3" d="M177.69,25.09h1.64v8.39h-1.64Z"/><path class="cls-3" d="M181,33.48V25.09h1.56L186,30.45V25.09h1.61v8.39h-1.52L182.59,28v5.53Z"/><path class="cls-3" d="M197.52,29.3a4.11,4.11,0,0,1-.4,1.88,4.26,4.26,0,0,1-3.93,2.47A4.18,4.18,0,0,1,190,32.21a4.38,4.38,0,0,1-1.1-3,4.27,4.27,0,0,1,1.33-3.09,4.17,4.17,0,0,1,3.08-1.22,4,4,0,0,1,3.86,2.6h-2a2.4,2.4,0,0,0-2-.91,2.68,2.68,0,0,0,0,5.35,2.49,2.49,0,0,0,2.31-1.53h-3.29V29h5.24C197.51,29.11,197.52,29.21,197.52,29.3Z"/><path class="cls-3" d="M147.29,44.82V36.43h4.53V37.9h-2.9v1.91h2.9v1.45h-2.9v2.08h2.9v1.48Z"/><path class="cls-3" d="M153.43,44.82V36.43H155l3.47,5.36V36.43h1.61v8.39h-1.52L155,39.3v5.53Z"/><path class="cls-3" d="M170,40.64a4.11,4.11,0,0,1-.4,1.88A4.26,4.26,0,0,1,165.65,45a4.18,4.18,0,0,1-3.21-1.44,4.38,4.38,0,0,1-1.1-3,4.27,4.27,0,0,1,1.33-3.09,4.17,4.17,0,0,1,3.08-1.22,4,4,0,0,1,3.86,2.6h-2a2.4,2.4,0,0,0-2-.91,2.68,2.68,0,0,0,0,5.35A2.49,2.49,0,0,0,168,41.76h-3.29V40.36H170C170,40.45,170,40.55,170,40.64Z"/><path class="cls-3" d="M171.24,36.43h1.64v8.39h-1.64Z"/><path class="cls-3" d="M174.52,44.82V36.43h1.56l3.47,5.36V36.43h1.61v8.39h-1.52l-3.49-5.53v5.53Z"/><path class="cls-3" d="M182.8,44.82V36.43h4.53V37.9h-2.9v1.91h2.9v1.45h-2.9v2.08h2.9v1.48Z"/><path class="cls-3" d="M188.94,44.82V36.43h4.53V37.9h-2.9v1.91h2.9v1.45h-2.9v2.08h2.9v1.48Z"/><path class="cls-3" d="M195.08,44.82V36.43h2a5.39,5.39,0,0,1,2.21.28,2.59,2.59,0,0,1-.53,4.85l2.1,3.26h-2l-2.17-3.9v3.9Zm2-4.31c1.33,0,2-.5,2-1.42s-.59-1.3-1.78-1.3h-.61v2.72Z"/><path class="cls-3" d="M202,36.43h1.64v8.39H202Z"/><path class="cls-3" d="M205.33,44.82V36.43h1.56l3.47,5.36V36.43H212v8.39h-1.52l-3.49-5.53v5.53Z"/><path class="cls-3" d="M221.88,40.64a4.11,4.11,0,0,1-.4,1.88A4.26,4.26,0,0,1,217.55,45a4.18,4.18,0,0,1-3.21-1.44,4.38,4.38,0,0,1-1.1-3,4.27,4.27,0,0,1,1.33-3.09,4.17,4.17,0,0,1,3.08-1.22,4,4,0,0,1,3.86,2.6h-2a2.4,2.4,0,0,0-2-.91,2.68,2.68,0,0,0,0,5.35,2.49,2.49,0,0,0,2.31-1.53h-3.29V40.36h5.24C221.87,40.45,221.88,40.55,221.88,40.64Z"/><path class="cls-3" d="M148.28,53.55v.12a1,1,0,0,0,1,1.17,1,1,0,0,0,1.07-1.1c0-.9-.5-1-1.41-1.24A2.3,2.3,0,0,1,147,50.21a2.36,2.36,0,0,1,2.4-2.61,2.25,2.25,0,0,1,2.3,2.42h-1.49V50a.84.84,0,0,0-.87-.9.85.85,0,0,0-.87.94.81.81,0,0,0,.2.58c.33.37.89.41,1.55.64a2.17,2.17,0,0,1,1.69,2.24,2.6,2.6,0,0,1-2.63,2.87,2.53,2.53,0,0,1-2.53-2.77Z"/><path class="cls-3" d="M153.18,56.16V47.77h4.53v1.48h-2.9v1.91h2.9v1.45h-2.9v2.08h2.9v1.48Z"/><path class="cls-3" d="M159.32,56.16V47.77h2a5.39,5.39,0,0,1,2.21.28A2.59,2.59,0,0,1,163,52.9l2.1,3.26h-2L161,52.27v3.9Zm2-4.31c1.33,0,2-.5,2-1.42s-.59-1.3-1.78-1.3H161v2.72Z"/><path class="cls-3" d="M168.34,56.16l-3-8.39h1.76l1.83,5.6,1.84-5.6h1.75l-3,8.39Z"/><path class="cls-3" d="M173.21,47.77h1.64v8.39h-1.64Z"/><path class="cls-3" d="M182.37,50.26a2.31,2.31,0,0,0-2-1,2.44,2.44,0,0,0-1.77.74,2.74,2.74,0,0,0-.78,1.9,2.6,2.6,0,0,0,2.55,2.72,2.25,2.25,0,0,0,1.91-.9h2a4,4,0,0,1-3.91,2.57,4.1,4.1,0,0,1-3.18-1.44,4.37,4.37,0,0,1-1.09-3,4.29,4.29,0,0,1,1.31-3.09,4.25,4.25,0,0,1,6.92,1.44Z"/><path class="cls-3" d="M185.61,56.16V47.77h4.53v1.48h-2.9v1.91h2.9v1.45h-2.9v2.08h2.9v1.48Z"/><path class="cls-3" d="M192.74,53.55v.12a1,1,0,0,0,1,1.17,1,1,0,0,0,1.07-1.1c0-.9-.5-1-1.41-1.24a2.3,2.3,0,0,1-1.92-2.29,2.36,2.36,0,0,1,2.4-2.61A2.25,2.25,0,0,1,196.2,50h-1.49V50a.84.84,0,0,0-.87-.9A.85.85,0,0,0,193,50a.81.81,0,0,0,.2.58c.33.37.89.41,1.55.64a2.17,2.17,0,0,1,1.69,2.24,2.6,2.6,0,0,1-2.63,2.87,2.53,2.53,0,0,1-2.53-2.77Z"/></g></g></svg>