<?xml version="1.0" encoding="UTF-8"?>
<svg version="1.1" xmlns="http://www.w3.org/2000/svg" width="768" height="271">
<path d="M0 0 C1.97388199 -0.00855011 1.97388199 -0.00855011 3.98764038 -0.01727295 C6.76259739 -0.02768938 9.5375263 -0.03359045 12.3125 -0.03710938 C15.09486265 -0.04145719 17.87690876 -0.05522294 20.65917969 -0.078125 C39.25217341 -0.22803163 57.44992112 0.63277797 75.8984375 3.203125 C77.19726868 3.38337975 77.19726868 3.38337975 78.52233887 3.567276 C96.59829206 6.12215413 114.31618139 10.77240048 131.8359375 15.828125 C133.28154053 16.24336426 133.28154053 16.24336426 134.75634766 16.66699219 C140.1392647 18.2565658 145.335403 20.09241497 150.5246582 22.22998047 C152.75301565 23.14350847 154.99304845 24.00379838 157.25 24.84375 C166.7347857 28.39985972 175.80889145 32.39526286 184.77978516 37.09667969 C187.05539635 38.28509521 189.34156268 39.45152648 191.62890625 40.6171875 C208.06612923 49.05437034 223.20355938 58.99725425 237.8984375 70.203125 C237.04536776 74.4868193 235.38213236 76.49358455 231.8984375 79.203125 C226.20253832 79.10363331 222.52469926 76.26566516 218.0234375 73.140625 C210.60348116 68.17309521 203.07553153 64.00667939 195.00683594 60.20214844 C192.78702097 59.15033245 190.58080161 58.07305841 188.375 56.9921875 C106.5557535 17.1573375 15.47035797 13.82207352 -70.1015625 43.203125 C-74.48405241 44.75118873 -78.79550822 46.45450243 -83.1015625 48.203125 C-84.28234375 48.65042969 -85.463125 49.09773438 -86.6796875 49.55859375 C-94.60431204 52.57793832 -102.02128054 56.13005639 -109.4453125 60.22265625 C-112.79096601 62.06153566 -116.21203173 63.6966295 -119.6640625 65.328125 C-133.79313767 72.34460451 -147.17726632 81.33282577 -159.62280273 91.00292969 C-163.79800061 94.203125 -163.79800061 94.203125 -167.1015625 94.203125 C-167.3078125 92.90375 -167.5140625 91.604375 -167.7265625 90.265625 C-169.42677827 82.71571583 -173.63163619 76.38297881 -180.1875 72.1953125 C-186.23335398 69.06133921 -192.3705585 67.81503445 -199.1015625 67.203125 C-197.18246698 61.44583843 -190.0648536 58.43545426 -185.1015625 55.203125 C-184.34198242 54.70425781 -183.58240234 54.20539063 -182.79980469 53.69140625 C-149.00177828 31.64033787 -110.85546511 17.38159659 -71.54248047 8.74121094 C-69.15362635 8.21460217 -66.77027701 7.66720115 -64.38671875 7.1171875 C-43.23038519 2.33880857 -21.67698264 0.07512698 0 0 Z " fill="#195C90" transform="translate(331.1015625,9.796875)"/>
<path d="M0 0 C-0.53350256 6.49220017 -2.21388793 11.94476651 -4.5625 18 C-4.89185547 18.87011719 -5.22121094 19.74023438 -5.56054688 20.63671875 C-6.36588295 22.76093854 -7.17911481 24.88175164 -8 27 C-11.57528092 25.85263191 -14.98544695 24.61287283 -18.375 23 C-28.68192443 18.4267289 -40.64830066 16.64272501 -51.5 20.625 C-60.33556197 24.83031722 -65.25230533 30.87316695 -68.75 39.9453125 C-72.23071656 52.27285031 -71.49125021 69.01471429 -65.375 80.25 C-61.32533171 86.5472837 -56.08545834 90.59957726 -49 93 C-36.99416373 95.02272242 -25.74736929 93.49467212 -14.53515625 88.90234375 C-11.70762975 87.89593601 -8.96667194 87.41887508 -6 87 C-4.81770821 90.20278893 -3.65703182 93.4130082 -2.5 96.625 C-2.16613281 97.52863281 -1.83226563 98.43226563 -1.48828125 99.36328125 C0.18759346 104.04889012 1.47046671 107.94248284 1 113 C-12.21663966 119.96877364 -24.83384483 122.39509722 -39.75 122.375 C-40.98975586 122.37338867 -42.22951172 122.37177734 -43.50683594 122.37011719 C-52.3087851 122.25201684 -59.8388586 121.51147034 -68 118 C-69.14855469 117.53207031 -69.14855469 117.53207031 -70.3203125 117.0546875 C-83.60895137 111.04195737 -92.46137343 100.25808736 -98 87 C-104.88975768 68.10699261 -105.0194919 42.93758969 -96.69116211 24.57080078 C-92.4438133 15.76926497 -86.97314253 7.77726065 -79 2 C-78.34 2 -77.68 2 -77 2 C-77 1.34 -77 0.68 -77 0 C-53.98992071 -13.07390869 -22.82842602 -15.21895068 0 0 Z " fill="#1D335D" transform="translate(111,107)"/>
<path d="M0 0 C10.40688159 8.95328882 15.02590479 19.89707762 16.21582031 33.45996094 C17.0658612 49.31719846 14.906873 63.02863218 7 77 C6.34 77 5.68 77 5 77 C4.5978125 77.8971875 4.5978125 77.8971875 4.1875 78.8125 C-0.12996137 86.76571831 -8.9446846 89.31489487 -17 92 C-20.18283488 92.25416467 -23.37056817 92.23137458 -26.5625 92.25 C-27.41908203 92.270625 -28.27566406 92.29125 -29.15820312 92.3125 C-30.01478516 92.31765625 -30.87136719 92.3228125 -31.75390625 92.328125 C-32.52033447 92.3374707 -33.2867627 92.34681641 -34.07641602 92.35644531 C-38.49447774 91.81779228 -42.73692874 90.27892138 -47 89 C-47.33 100.55 -47.66 112.1 -48 124 C-55.92 124 -63.84 124 -72 124 C-72 81.43 -72 38.86 -72 -5 C-49.77867949 -12.40710684 -19.26975288 -15.75585677 0 0 Z M-48 12 C-48 29.82 -48 47.64 -48 66 C-34.42344689 71.87162372 -34.42344689 71.87162372 -20.6875 69.5625 C-13.95746911 65.59067849 -11.02436364 59.05838394 -9.0625 51.75 C-6.98079715 41.11844617 -8.09732078 30.72309872 -13 21 C-17.21610008 15.7853499 -22.29140571 11.95971475 -29 11 C-31.51949086 10.90779043 -34.04132731 10.86999271 -36.5625 10.875 C-38.51349609 10.87113281 -38.51349609 10.87113281 -40.50390625 10.8671875 C-44.12099635 10.88466336 -44.12099635 10.88466336 -48 12 Z " fill="#1E94D2" transform="translate(488,137)"/>
<path d="M0 0 C10.23 0 20.46 0 31 0 C31.78375 3.031875 32.5675 6.06375 33.375 9.1875 C35.94092064 18.80783872 38.99282908 28.22197557 42.25 37.625 C42.47000671 38.26255219 42.69001343 38.90010437 42.91668701 39.55697632 C45.56084368 47.44446419 45.56084368 47.44446419 49 55 C52.96689847 42.34378914 56.72992708 29.67137765 59.95751953 16.80444336 C60.18294434 15.91249268 60.40836914 15.02054199 60.640625 14.1015625 C60.83172852 13.33150879 61.02283203 12.56145508 61.21972656 11.76806641 C62.3375579 7.80249328 63.69710641 3.90868078 65 0 C74.9 0 84.8 0 95 0 C89.96587837 35.23885141 72.85476769 102.00150832 43.62109375 124.234375 C33.92937638 130.76292381 20.65200637 130.92118774 9.375 129.25 C5.13875319 128.4073678 1.68135164 127.24971489 -2 125 C1.41043084 105.58956916 1.41043084 105.58956916 3 104 C4.979166 103.97910383 6.95893611 104.00939969 8.9375 104.0625 C16.05405831 104.10155905 22.70871585 103.96076503 28.9375 100.25 C31.48539309 97.47048027 32.81820915 95.61949185 34 92 C33.16914661 88.68355863 31.6080762 85.81504228 30 82.8125 C29.18640758 81.21539978 28.37391709 79.61773776 27.5625 78.01953125 C27.14121826 77.20355469 26.71993652 76.38757813 26.28588867 75.546875 C16.04692919 55.26724232 8.54806192 33.70529852 2 12 C1.78214844 11.31196289 1.56429687 10.62392578 1.33984375 9.91503906 C0.23189297 6.31807299 0 3.89309782 0 0 Z " fill="#1D335D" transform="translate(226,129)"/>
<path d="M0 0 C-0.73048301 4.68803656 -2.36636885 8.90885555 -4.0625 13.3125 C-4.34416016 14.05306641 -4.62582031 14.79363281 -4.91601562 15.55664062 C-5.60718575 17.37242655 -6.30311689 19.18639899 -7 21 C-10.70246019 20.35492527 -14.04983217 19.32885348 -17.5625 18 C-26.88481868 14.48311972 -38.19306026 12.7831453 -47.890625 15.94140625 C-50.88471456 17.71013693 -52.62006613 19.43769788 -54.5625 22.3125 C-55.44006022 27.70322708 -54.88355818 31.47662383 -52.1875 36.125 C-45.7312619 42.91138664 -35.4901276 45.63619565 -26.8828125 48.74121094 C-19.78431456 51.34833301 -13.29106507 54.80595662 -7 59 C-7 59.66 -7 60.32 -7 61 C-6.40445313 61.24363281 -5.80890625 61.48726563 -5.1953125 61.73828125 C-2.59391006 63.23339333 -1.51689628 64.69027031 0.125 67.1875 C0.62257813 67.92355469 1.12015625 68.65960938 1.6328125 69.41796875 C6.65349032 78.89987742 6.48145108 91.92943805 4.3125 102.28125 C1.35766899 110.25929372 -4.47311195 117.00134072 -12 121 C-31.14304329 128.56048385 -54.58019558 128.93902768 -74 122 C-75.03640625 121.65324219 -76.0728125 121.30648437 -77.140625 120.94921875 C-82.00560728 119.18939974 -82.00560728 119.18939974 -84 118 C-85.15699511 114.52901466 -84.82954442 113.85266875 -83.56640625 110.55078125 C-83.24736328 109.70322266 -82.92832031 108.85566406 -82.59960938 107.98242188 C-82.25736328 107.10134766 -81.91511719 106.22027344 -81.5625 105.3125 C-81.22412109 104.41982422 -80.88574219 103.52714844 -80.53710938 102.60742188 C-79.69962693 100.40165826 -78.85367026 98.19953824 -78 96 C-74.11437972 96.6299093 -70.90614502 97.85441716 -67.3125 99.4375 C-53.71877917 104.73935937 -38.60084926 105.76265786 -25 100 C-25 99.34 -25 98.68 -25 98 C-24.34 98 -23.68 98 -23 98 C-21.65265517 92.61062067 -20.85954451 87.23132596 -23.4375 82.1875 C-23.953125 81.465625 -24.46875 80.74375 -25 80 C-25.33 79.01 -25.66 78.02 -26 77 C-28.3199481 75.89806924 -28.3199481 75.89806924 -31 75 C-32.53867848 74.22950312 -34.06982953 73.44382049 -35.59375 72.64453125 C-40.14535696 70.34259817 -44.76353147 68.51509214 -49.55102539 66.76757812 C-62.57671865 61.99684652 -73.59369271 57.13725853 -80 44 C-83.54494448 33.69521312 -83.41691895 22.3206286 -79.1484375 12.28515625 C-77.62958052 9.26294083 -76.13432673 6.6323363 -74 4 C-73.34 4 -72.68 4 -72 4 C-72 3.34 -72 2.68 -72 2 C-53.59343773 -13.54331925 -19.97312846 -11.6509916 0 0 Z " fill="#1E94D1" transform="translate(407,103)"/>
<path d="M0 0 C1.1859375 -0.02900391 2.371875 -0.05800781 3.59375 -0.08789062 C15.75572971 -0.17419288 25.77054676 1.97477968 34.73828125 10.5078125 C36.25 12.3125 36.25 12.3125 36.25 14.3125 C36.91 14.3125 37.57 14.3125 38.25 14.3125 C39.07423369 16.30769299 39.88380193 18.30894674 40.6875 20.3125 C41.13996094 21.42625 41.59242188 22.54 42.05859375 23.6875 C44.90159392 32.33767757 44.38201554 41.30574054 44.34765625 50.3125 C44.3457881 51.75838166 44.34436607 53.20426396 44.34336853 54.65014648 C44.33957463 58.43123157 44.32977151 62.21227744 44.31866455 65.99334717 C44.30838274 69.8614448 44.30385649 73.72954885 44.29882812 77.59765625 C44.28814604 85.16929067 44.27057504 92.74088481 44.25 100.3125 C36.33 100.3125 28.41 100.3125 20.25 100.3125 C20.23541748 98.51699707 20.22083496 96.72149414 20.20581055 94.87158203 C20.15392833 88.90434398 20.08858204 82.93737722 20.01428509 76.9703846 C19.96977183 73.35658166 19.93047543 69.74288653 19.90356445 66.12890625 C19.87733922 62.63383537 19.83680577 59.13918367 19.78681374 55.64437485 C19.76228631 53.67830708 19.75215028 51.71207648 19.74235535 49.74588013 C19.60518526 41.28795399 18.93597308 33.61005692 14.375 26.3125 C6.63563154 19.02838851 -3.39212885 22.3125 -13.75 22.3125 C-13.75 48.0525 -13.75 73.7925 -13.75 100.3125 C-21.67 100.3125 -29.59 100.3125 -37.75 100.3125 C-37.75 68.9625 -37.75 37.6125 -37.75 5.3125 C-30.87068966 3.01939655 -30.87068966 3.01939655 -27.4375 2.25 C-26.76074219 2.09402344 -26.08398438 1.93804687 -25.38671875 1.77734375 C-16.94089759 0.28837676 -8.5577149 0.06886573 0 0 Z " fill="#1F93D1" transform="translate(643.75,126.6875)"/>
<path d="M0 0 C0 8.91 0 17.82 0 27 C10.23 27 20.46 27 31 27 C31 35.58 31 44.16 31 53 C20.77 53 10.54 53 0 53 C0.09705289 58.46305589 0.19985649 63.92537396 0.31738281 69.38793945 C0.35560866 71.24529456 0.39047263 73.10272208 0.421875 74.96020508 C0.46766461 77.63388912 0.52563579 80.30707742 0.5859375 82.98046875 C0.59748871 83.80773972 0.60903992 84.63501068 0.62094116 85.48735046 C0.75679851 90.82348675 1.04875507 95.04875507 5 99 C12.19640169 100.65163318 17.17461318 99.34467038 24.08203125 96.91015625 C27 96 27 96 31 96 C31.83862315 99.60295699 32.66998677 103.20755065 33.5 106.8125 C33.73847656 107.83666016 33.97695312 108.86082031 34.22265625 109.91601562 C34.44824219 110.89892578 34.67382812 111.88183594 34.90625 112.89453125 C35.11572266 113.80050049 35.32519531 114.70646973 35.54101562 115.63989258 C36 118 36 118 36 121 C20.180815 127.09112544 4.41632936 129.97192454 -12 124 C-18.63043921 120.62222908 -24.200364 114.74319462 -26.875 107.75 C-30.46210075 95.79299751 -30.14434517 83.46762776 -30.09765625 71.07421875 C-30.09578547 69.59064278 -30.09436469 68.10706619 -30.09336853 66.62348938 C-30.08959527 62.76521016 -30.07981096 58.90697007 -30.06866455 55.04870605 C-30.0583372 51.09302296 -30.05384693 47.13733339 -30.04882812 43.18164062 C-30.03818268 35.45440947 -30.0211707 27.72721027 -30 20 C-28.68 19.34 -27.36 18.68 -26 18 C-26 17.34 -26 16.68 -26 16 C-23.9453125 14.51953125 -23.9453125 14.51953125 -21.125 12.8125 C-16.3291825 9.85074191 -11.69028696 6.74132371 -7.09375 3.48046875 C-2.17150396 0 -2.17150396 0 0 0 Z " fill="#1D335D" transform="translate(190,102)"/>
<path d="M0 0 C7.92 0 15.84 0 24 0 C24 8.58 24 17.16 24 26 C35.22 26 46.44 26 58 26 C58 32.6 58 39.2 58 46 C46.78 46 35.56 46 24 46 C24.07439178 51.92312521 24.15757331 57.84484761 24.26245117 63.76733398 C24.29549212 65.77767405 24.3235873 67.78810224 24.34643555 69.79858398 C23.68006156 87.31797806 23.68006156 87.31797806 30.375 102.6875 C39.57080439 106.01701538 48.97935169 104.03701185 58 101 C59.49255263 104.47632511 60.49302192 107.78219254 61.1875 111.5 C61.36667969 112.4178125 61.54585937 113.335625 61.73046875 114.28125 C62.01054306 117.10634737 61.69913465 119.26296221 61 122 C52.77241253 125.53738885 45.18420235 126.43149816 36.3125 126.5 C35.35142334 126.51804687 34.39034668 126.53609375 33.40014648 126.5546875 C24.91452194 126.48488886 18.46509427 123.78087005 11 120 C11 119.34 11 118.68 11 118 C10.34 118 9.68 118 9 118 C9 117.34 9 116.68 9 116 C8.34 116 7.68 116 7 116 C-1.77363932 102.06933604 -0.28392776 84.61357605 -0.1953125 68.75 C-0.19157214 66.75504703 -0.18873002 64.7600922 -0.18673706 62.76513672 C-0.17918101 57.57029958 -0.15960368 52.37557822 -0.1373291 47.18078613 C-0.11669549 41.85751918 -0.10769828 36.53423311 -0.09765625 31.2109375 C-0.07634841 20.80723319 -0.04123396 10.40364443 0 0 Z " fill="#1E94D2" transform="translate(697,103)"/>
<path d="M0 0 C-0.47740217 2.75031693 -0.95685264 5.50025 -1.4375 8.25 C-1.57220703 9.02730469 -1.70691406 9.80460938 -1.84570312 10.60546875 C-1.97783203 11.35957031 -2.10996094 12.11367187 -2.24609375 12.890625 C-2.42676392 13.92751465 -2.42676392 13.92751465 -2.61108398 14.98535156 C-3.00244416 17.01266117 -3.48089751 19.00194515 -4 21 C-4.6084375 20.855625 -5.216875 20.71125 -5.84375 20.5625 C-11.73144389 19.31569424 -17.37660236 18.80698169 -23.375 18.8125 C-24.05240234 18.81185547 -24.72980469 18.81121094 -25.42773438 18.81054688 C-29.15319333 18.85116139 -32.30523714 19.26104743 -36 20 C-36.33 45.41 -36.66 70.82 -37 97 C-44.59 97 -52.18 97 -60 97 C-60 65.98 -60 34.96 -60 3 C-41.70445356 -3.86082991 -18.80895569 -6.92961525 0 0 Z " fill="#1E94D1" transform="translate(569,130)"/>
<path d="M0 0 C9.57 0 19.14 0 29 0 C29 32.34 29 64.68 29 98 C19.43 98 9.86 98 0 98 C0 65.66 0 33.32 0 0 Z " fill="#1E335D" transform="translate(122,129)"/>
<path d="M0 0 C7.92 0 15.84 0 24 0 C24 32.34 24 64.68 24 98 C16.08 98 8.16 98 0 98 C0 65.66 0 33.32 0 0 Z " fill="#1E94D3" transform="translate(573,129)"/>
<path d="M0 0 C3.91311929 2.20350406 6.00067032 4.14739741 7.8125 8.375 C8.56206198 14.05917831 8.61404911 18.74327502 6.0625 23.9375 C2.6779653 27.60407926 -0.10131759 30.06932098 -5.23828125 30.578125 C-11.51407065 30.70819317 -15.39595677 29.54620029 -20.4375 25.625 C-23.57909525 21.58580611 -24.45687418 17.34317557 -24.0625 12.3125 C-23.35780634 8.21894246 -21.97756418 5.52276471 -19.1875 2.375 C-12.98993612 -1.96329472 -7.07250847 -3.11138081 0 0 Z " fill="#1E94D2" transform="translate(144.1875,90.625)"/>
<path d="M0 0 C4.03226453 3.22581163 6.74070965 6.51396129 7.4609375 11.73046875 C7.70774421 17.0937685 6.86070305 20.67746368 3.734375 25.0859375 C0.274671 28.80774029 -3.90057015 29.87797838 -8.8125 30.125 C-13.71917043 29.87824288 -17.8684167 28.79717863 -21.359375 25.12109375 C-24.60587443 20.60700044 -25.53082711 16.60863079 -25.2421875 11.08203125 C-24.60115987 7.60299945 -23.08493436 5.41199453 -20.8125 2.75 C-20.35875 2.1725 -19.905 1.595 -19.4375 1 C-13.63169214 -3.46600605 -6.37993508 -2.8355267 0 0 Z " fill="#1E345D" transform="translate(593.8125,91.25)"/>
<path d="M0 0 C0 0.33 0 0.66 0 1 C-1.65 1 -3.3 1 -5 1 C-5.33 2.98 -5.66 4.96 -6 7 C-7.65 7.33 -9.3 7.66 -11 8 C-11 7.34 -11 6.68 -11 6 C-11.66 5.67 -12.32 5.34 -13 5 C-13.66 4.01 -14.32 3.02 -15 2 C-9.92523206 0.73694665 -5.27203646 -0.27036084 0 0 Z " fill="#0E406F" transform="translate(277,16)"/>
<path d="M0 0 C0.66 0 1.32 0 2 0 C2 0.66 2 1.32 2 2 C3.65 2 5.3 2 7 2 C3.99559979 4.00293347 2.29006055 4.49271626 -1.1875 5.125 C-2.08855469 5.29257812 -2.98960937 5.46015625 -3.91796875 5.6328125 C-4.60503906 5.75398438 -5.29210937 5.87515625 -6 6 C-5.34 5.67 -4.68 5.34 -4 5 C-4 4.01 -4 3.02 -4 2 C-3.01 2 -2.02 2 -1 2 C-0.67 1.34 -0.34 0.68 0 0 Z " fill="#0A4B7F" transform="translate(286,40)"/>
<path d="M0 0 C2.97 0.495 2.97 0.495 6 1 C5.67 3.31 5.34 5.62 5 8 C3.35 7.67 1.7 7.34 0 7 C0 4.66666667 0 2.33333333 0 0 Z " fill="#2391D2" transform="translate(466,39)"/>
<path d="M0 0 C1.32 0 2.64 0 4 0 C4 0.66 4 1.32 4 2 C4.66 2 5.32 2 6 2 C6 1.34 6 0.68 6 0 C7.32 0 8.64 0 10 0 C9.34 1.32 8.68 2.64 8 4 C4.09161134 4 2.88405893 2.49432124 0 0 Z " fill="#1F93D2" transform="translate(546,80)"/>
<path d="M0 0 C0.99 0 1.98 0 3 0 C3 1.32 3 2.64 3 4 C4.32 4.33 5.64 4.66 7 5 C3.04 4.67 -0.92 4.34 -5 4 C-3.68 3.67 -2.36 3.34 -1 3 C-0.67 2.01 -0.34 1.02 0 0 Z " fill="#2193CB" transform="translate(425,32)"/>
<path d="M0 0 C0.66 0 1.32 0 2 0 C1.67 2.97 1.34 5.94 1 9 C-1.97 8.505 -1.97 8.505 -5 8 C-4.0409375 7.690625 -4.0409375 7.690625 -3.0625 7.375 C-0.65074923 6.10461791 -0.65074923 6.10461791 -0.25 2.875 C-0.1675 1.92625 -0.085 0.9775 0 0 Z " fill="#2792C3" transform="translate(564,142)"/>
<path d="M0 0 C-1.32 0.33 -2.64 0.66 -4 1 C-4 1.99 -4 2.98 -4 4 C-5.32 4 -6.64 4 -8 4 C-8 3.34 -8 2.68 -8 2 C-8.66 1.67 -9.32 1.34 -10 1 C-6.52674819 -0.1577506 -3.63932552 -0.06866652 0 0 Z " fill="#2A8FCC" transform="translate(532,128)"/>
<path d="M0 0 C0.928125 0.515625 1.85625 1.03125 2.8125 1.5625 C-0.26072544 2.47308531 -2.98847361 2.65136184 -6.1875 2.5625 C-6.1875 1.5725 -6.1875 0.5825 -6.1875 -0.4375 C-3.1875 -1.4375 -3.1875 -1.4375 0 0 Z " fill="#2191D5" transform="translate(554.1875,69.4375)"/>
<path d="M0 0 C0.33 1.32 0.66 2.64 1 4 C-1.49092811 5.24546405 -2.41080733 4.7767578 -5 4 C-5 3.34 -5 2.68 -5 2 C-2 0 -2 0 0 0 Z " fill="#2890CC" transform="translate(490,214)"/>
<path d="M0 0 C2.475 0.99 2.475 0.99 5 2 C4.67 3.32 4.34 4.64 4 6 C3.67 5.34 3.34 4.68 3 4 C2.34 4 1.68 4 1 4 C0.67 2.68 0.34 1.36 0 0 Z " fill="#2393CA" transform="translate(564,78)"/>
<path d="M0 0 C0.66 0.33 1.32 0.66 2 1 C0.75 3.5 0.75 3.5 -1 6 C-2.32 6 -3.64 6 -5 6 C-3.86695008 2.60085025 -2.87481525 1.94745549 0 0 Z " fill="#20315B" transform="translate(137,71)"/>
<path d="M0 0 C0.99 1.32 1.98 2.64 3 4 C2.67 4.66 2.34 5.32 2 6 C0.02 5.01 -1.96 4.02 -4 3 C-2.68 2.01 -1.36 1.02 0 0 Z " fill="#1E96C3" transform="translate(526,65)"/>
</svg>
