<?xml version="1.0" standalone="no"?>
<!DOCTYPE svg PUBLIC "-//W3C//DTD SVG 20010904//EN"
 "http://www.w3.org/TR/2001/REC-SVG-20010904/DTD/svg10.dtd">
<svg version="1.0" xmlns="http://www.w3.org/2000/svg"
 width="552.000000pt" height="90.000000pt" viewBox="0 0 552.000000 90.000000"
 preserveAspectRatio="xMidYMid meet">

<g transform="translate(0.000000,90.000000) scale(0.100000,-0.100000)"
fill="#000000" stroke="none">
<path d="M2280 465 l0 -425 40 0 40 0 0 315 c0 173 4 315 8 315 5 0 44 -37 88
-82 72 -75 390 -410 507 -533 l47 -50 0 428 -1 427 -44 0 -45 0 0 -321 0 -321
-133 138 c-73 77 -217 228 -320 336 l-187 197 0 -424z"/>
<path d="M360 868 c-30 -5 -84 -22 -120 -40 -258 -126 -316 -471 -113 -674
130 -130 323 -161 491 -77 l52 26 0 55 0 54 -31 -27 c-136 -114 -336 -102
-456 28 -136 147 -129 354 16 490 75 70 128 91 226 90 84 0 134 -16 190 -57
55 -41 55 -41 55 13 0 50 0 51 -47 74 -92 46 -168 59 -263 45z"/>
<path d="M1405 869 c-86 -12 -193 -68 -249 -130 -194 -216 -131 -543 129 -670
67 -32 75 -34 180 -34 107 0 112 1 186 37 209 102 295 347 197 560 -75 163
-261 262 -443 237z m212 -109 c72 -35 124 -91 161 -170 35 -73 36 -187 3 -271
-25 -66 -101 -148 -166 -179 -203 -98 -437 23 -484 252 -36 171 82 354 256
398 65 16 161 4 230 -30z"/>
<path d="M3601 844 c-56 -29 -84 -63 -102 -128 -29 -108 23 -184 176 -257 163
-78 195 -109 195 -187 0 -52 -19 -91 -60 -126 -90 -75 -220 -43 -266 67 l-18
43 -38 -10 c-43 -12 -44 -16 -19 -72 66 -146 263 -190 396 -89 85 65 113 217
57 306 -31 47 -62 67 -222 147 -81 40 -98 53 -114 85 -16 33 -17 45 -7 77 32
106 174 131 251 44 l30 -35 30 21 c17 12 30 25 30 29 0 16 -67 75 -105 92 -61
28 -149 25 -214 -7z"/>
<path d="M4450 450 l0 -410 45 0 45 0 0 410 0 410 -45 0 -45 0 0 -410z"/>
<path d="M5070 450 l0 -410 220 0 c121 0 220 2 220 5 0 3 -7 21 -14 40 l-15
35 -165 0 -166 0 0 370 0 370 -40 0 -40 0 0 -410z"/>
</g>
</svg>
