<svg xmlns="http://www.w3.org/2000/svg" width="600" height="288.457" viewBox="0 0 600 288.457">
  <path id="Path_7" data-name="Path 7" d="M248.849,123.284h-.028c-16.935-12.071-42.518-17.947-80.129-18.251-2,0-3.922-.028-5.89-.014l-5.377.1-88.278.776a7.761,7.761,0,0,1-7.858-7.719l-.055-32.789a7.9,7.9,0,0,1,7.83-7.858l180.893-.859a7.726,7.726,0,0,0,5.793-12.944L220.3,5.349A14.83,14.83,0,0,0,209.436.637L7.852,1.011A7.857,7.857,0,0,0,.008,8.869L.063,44.25l.1,111.532a7.7,7.7,0,0,0,7.858,7.705l144.335-2.12c47.992-.457,57.388,10.5,57.429,29.5.042,26.594-20.774,34.854-63.624,35.45L8.808,228.5A8.039,8.039,0,0,0,.95,236.549l.083,44.541A7.525,7.525,0,0,0,8.822,288.7q73.721-2.289,147.467-3.6C237.8,281.99,275.707,251,275.6,186.353,275.54,156.322,267.017,136.269,248.849,123.284ZM596.792,17.323a9.423,9.423,0,0,0,2.605-6.472,9.634,9.634,0,0,0-9.645-9.715l-67.061-.125a9.7,9.7,0,0,0-7.109,3.09L442.534,85.783a9.563,9.563,0,0,1-7.109,3.035h-.374a9.564,9.564,0,0,1-7.1-3.132L355.171,3.8a9.7,9.7,0,0,0-7.1-3.09L281.028.6a9.564,9.564,0,0,0-9.673,9.535,9.252,9.252,0,0,0,2.578,6.375l108.636,119.5a10.079,10.079,0,0,1-.028,13.4L273.476,268.187a9.182,9.182,0,0,0-2.592,6.375,9.563,9.563,0,0,0,9.632,9.535l67.061.236a9.7,9.7,0,0,0,7.109-3.021l73.062-80.933a9.53,9.53,0,0,1,7.109-3.007h.36a9.7,9.7,0,0,1,7.1,3.16l72.77,83.317a9.934,9.934,0,0,0,7.1,3.271l67.033,1.926a9.282,9.282,0,0,0,9.673-9.382,9.7,9.7,0,0,0-2.578-6.555L487.671,150.377a10.169,10.169,0,0,1,.028-13.47L596.764,17.337l.028-.028ZM533.806,140.815l57.748-60.547a4.921,4.921,0,0,1,8.454,3.492l-2.231,128a4.821,4.821,0,0,1-8.551,2.938l-55.586-64.1a7.26,7.26,0,0,1,.166-9.8Z" transform="translate(-0.008 -0.595)" fill="#fff"/>
</svg>
