<svg id="Group_2" data-name="Group 2" xmlns="http://www.w3.org/2000/svg" width="600" height="579.07" viewBox="0 0 600 579.07">
  <path id="Path_40" data-name="Path 40" d="M16.3.82A94.42,94.42,0,0,0,29.456,0c-1.414,18.324-2.012,40.313-2.012,67.416,0,31.37.816,57.024,2.012,70.069a130.937,130.937,0,0,0-13.974-.82,127.189,127.189,0,0,0-14.165.82c1.414-14.879,2.229-41.544,2.229-72.914C3.546,36.265,2.731,14.878,1.317,0A142.678,142.678,0,0,0,16.3.82Z" transform="translate(7.872)" fill="#fff"/>
  <path id="Path_41" data-name="Path 41" d="M20.688,8.56a67.3,67.3,0,0,0,11.337-.82c-.19,3.255-.408,6.919-.6,16.081C39.121,11.6,49.235,5.688,62.2,5.688c14.165,0,23.082,6.1,27.541,19.336C96.84,12.2,107.769,5.688,121.526,5.688c9.325,0,17.617,3.255,23.082,8.971,5.274,5.5,7.5,12.225,7.5,22.618,0,2.434-.19,9.983-.6,16.9-.19,6.1-.407,11.6-.407,16.71,0,8.752.407,24.451,1.005,32.574a114.172,114.172,0,0,0-12.751-.82,79.772,79.772,0,0,0-11.528.82c1.006-20.567,1.631-38.7,1.631-55,0-10.8-.6-15.672-2.637-19.555a16.862,16.862,0,0,0-15.389-9.162A18.552,18.552,0,0,0,94.828,29.92c-2.42,4.677-3.643,14.468-3.643,29.537,0,13.648.407,31.37,1.223,43.978a97.288,97.288,0,0,0-12.153-.82,92.331,92.331,0,0,0-12.153.82C69.326,90.39,69.924,73.9,69.924,59.457c0-18.324-.6-25.872-2.637-30.358-2.828-6.1-7.884-9.381-15.2-9.381-8.7,0-15.2,4.677-17.808,12.827-2.012,6.1-2.42,12.006-2.42,35.226,0,12.225.407,26.885,1.223,35.637-6.688-.6-9.325-.82-12.153-.82s-5.464.192-12.152.82c1.006-15.48,1.631-33.2,1.631-51.526S10,20.73,8.78,7.685a81.594,81.594,0,0,0,11.935.82Z" transform="translate(52.474 33.996)" fill="#fff"/>
  <path id="Path_42" data-name="Path 42" d="M55.464,106.744c.19,21.387.816,35.855,1.413,49.885a81.441,81.441,0,0,0-12.56-1.012,75.288,75.288,0,0,0-12.153,1.012c1.005-14.057,1.821-47.26,1.821-67.416,0-37.277-.6-67.2-1.821-81.474,6.063.41,8.917.6,12.153.6,3.045,0,5.872-.191,11.554-.6-.407,4.075-.816,13.046-.816,16.081,5.057-12.006,15.2-18.133,29.362-18.133,25.094,0,40.89,19.336,40.89,50.1s-15.986,49.886-40.7,49.886c-13.757,0-23.68-6.1-29.362-17.914v5.087l.19,13.838Zm.816-49.913c0,24.642,8.1,38.481,22.674,38.481s22.674-14.058,22.674-39.931-7.5-38.289-21.859-38.289c-15.8,0-23.49,13.046-23.49,39.711Z" transform="translate(192.241 33.996)" fill="#fff"/>
  <path id="Path_43" data-name="Path 43" d="M56.14,32.385a14.409,14.409,0,0,0,.19-2.653c0-3.255-.407-5.716-2.011-11.213C66.253,9.357,76.8,5.692,90.749,5.692c12.751,0,23.082,4.266,28.737,11.815,4.241,5.907,5.655,11.815,5.655,25.052q0,1.231-.407,16.9V66.38c0,15.289.19,20.157.816,23,1.005,4.075,4.051,6.728,8.292,6.728a34.619,34.619,0,0,0,3.643-.41v3.665a30.3,30.3,0,0,1-16.8,4.9c-9.325,0-14.382-3.884-17.4-13.238C94.773,101.415,86.263,105.9,74.926,105.9c-16.8,0-27.731-9.983-27.731-25.462,0-10.995,5.274-19.336,14.98-24.04Q65.41,54.976,88.9,49.26c9.923-2.434,13.349-5.5,13.349-12.827,0-11.815-8.292-19.965-20.254-19.965-10.114,0-18.624,5.716-23.49,15.89h-2.42ZM82.266,58.859c-7.884,3.255-11.554,9.162-11.554,18.735,0,10.393,5.274,16.71,13.757,16.71s15.8-5.716,17.427-13.428c.816-4.075,1.006-8.56,1.006-21.8,0-3.255,0-4.267.19-6.92a216.079,216.079,0,0,0-20.853,6.728Z" transform="translate(282.072 34.019)" fill="#fff"/>
  <path id="Path_44" data-name="Path 44" d="M137.317,31.756a22.83,22.83,0,0,0-22.484-17.914c-17.4,0-28.737,15.89-28.737,40.532S98.657,95.1,118.694,95.1A32.865,32.865,0,0,0,143,84.7l2.229,1.231a50.189,50.189,0,0,0-2.827,10.8c-10.331,6.509-19.222,9.163-31.374,9.163-30.368,0-49.808-19.336-49.808-49.5S81.882,5.692,114.263,5.692c12.751,0,22.865,2.653,32.19,8.342a82.738,82.738,0,0,0-6.063,17.722h-3.073Z" transform="translate(365.895 34.019)" fill="#fff"/>
  <path id="Path_45" data-name="Path 45" d="M113.58,2.63l-.191,3.063c-.19,4.677-.6,9.162-1.005,13.839,0,0-.19,6.919-.6,15.48l20.663-.6a35.87,35.87,0,0,0-.408,5.087,28.479,28.479,0,0,0,.408,4.677l-2.23-.191h-7.5l-8.1-.191h-2.828v3.063c-.19,3.665-.19,4.075-.407,31.37V96.138c0,12.006.407,15.671,2.229,19.746,1.822,4.266,5.683,6.509,11.147,6.509a32.985,32.985,0,0,0,10.739-1.832l-1.006,6.728c-8.292,2.844-14.165,4.075-20.445,4.075-16.2,0-25.094-9.572-25.094-27.486,0-2.024,0-6.317.19-10.584.6-20.157.816-35.855.816-49.5H87.534q-9.515.191-13.159.6a25.114,25.114,0,0,0,.408-5.306,18.279,18.279,0,0,0-.408-4.485l15.8.6V32.359a69.479,69.479,0,0,0-.407-8.56c-.408-7.138-.408-8.15-.6-12.417C95.637,9.741,103.739,6.3,112.439,1.4l1.223,1.231Z" transform="translate(444.524 8.364)" fill="#fff"/>
  <path id="Path_46" data-name="Path 46" d="M27.44,105.99c0,25.462.816,49.092,2.012,60.689a121.227,121.227,0,0,0-13.567-.82,139.359,139.359,0,0,0-14.572.82c1.223-12.827,2.229-43.6,2.229-73.324,0-26.283-.6-48.874-2.012-64.162,10.331.82,22.484,1.231,38.661,1.231,12.968,0,27.949-.41,37.056-1.231a37.929,37.929,0,0,0-.816,7.74,37.333,37.333,0,0,0,.816,7.548c-10.739-1.231-30.776-2.024-48.394-2.242-.816,16.9-1.223,33.2-1.223,46.22,2.42.192,4.867.192,5.682.192,11.527,0,29.363-.82,41.3-1.833a26.942,26.942,0,0,0-1.006,7.74,22.41,22.41,0,0,0,1.006,7.138c-12.153-1.012-33.413-1.641-47.17-1.641v5.935Z" transform="translate(7.849 174.479)" fill="#fff"/>
  <path id="Path_47" data-name="Path 47" d="M26.814,36a75.678,75.678,0,0,0,11.337-.82c-.816,15.89-1.413,38.289-1.413,49.694,0,14.659.816,20.785,3.235,25.243,3.045,5.5,9.107,8.971,16.2,8.971,9.108,0,16.2-5.716,18.841-15.288,1.631-6.318,1.821-8.342,1.821-35.226,0-10.584-.407-26.064-1.005-33.393A117.067,117.067,0,0,0,88.584,36a85.872,85.872,0,0,0,11.528-.82c-1.006,17.5-1.414,29.729-1.414,49.5s.408,34.214,1.224,46.221a74.088,74.088,0,0,0-10.93-.82,106.957,106.957,0,0,0-12.153.82c.408-5.306.6-7.139.816-16.492-7.1,12.417-18.216,18.953-32,18.953-9.107,0-16.8-2.844-22.484-8.15-6.47-6.1-8.918-13.456-8.918-26.693,0-2.844,0-8.341.19-13.647.19-8.752.19-13.839.19-20.786,0-10.995-.19-17.121-.816-28.908A114.776,114.776,0,0,0,26.787,36Z" transform="translate(82.588 210.255)" fill="#fff"/>
  <path id="Path_48" data-name="Path 48" d="M66.853,31.827l-.19,3.063c-.19,4.677-.6,9.163-1.006,13.839,0,0-.19,6.92-.6,15.48l20.662-.6a35.881,35.881,0,0,0-.408,5.087,28.482,28.482,0,0,0,.408,4.677l-2.229-.191h-7.5l-8.1-.192H65.058v3.063c-.19,3.665-.19,4.075-.408,31.37v17.914c0,12.006.408,15.671,2.23,19.746,1.822,4.266,5.655,6.509,11.147,6.509a32.978,32.978,0,0,0,10.739-1.832l-1.005,6.728c-8.293,2.844-14.165,4.075-20.445,4.075-16.2,0-25.094-9.572-25.094-27.486,0-2.023,0-6.317.19-10.584.6-20.157.816-35.856.816-49.5h-2.42q-9.516.192-13.159.6a25.16,25.16,0,0,0,.407-5.306,18.31,18.31,0,0,0-.407-4.485l15.8.6V61.556A69.374,69.374,0,0,0,43.036,53c-.407-7.138-.407-8.15-.6-12.417,6.47-1.641,14.572-5.087,23.272-9.982l1.224,1.231Z" transform="translate(165.247 182.866)" fill="#fff"/>
  <path id="Path_49" data-name="Path 49" d="M50.7,36a75.678,75.678,0,0,0,11.337-.82c-.816,15.89-1.413,38.289-1.413,49.694,0,14.659.816,20.785,3.235,25.243,3.045,5.5,9.107,8.971,16.2,8.971,9.108,0,16.2-5.716,18.841-15.288,1.631-6.318,1.821-8.342,1.821-35.226,0-10.584-.407-26.064-1.005-33.393a117.066,117.066,0,0,0,12.751.82A85.872,85.872,0,0,0,124,35.179c-1.006,17.5-1.414,29.729-1.414,49.5s.408,34.214,1.224,46.221a74.088,74.088,0,0,0-10.93-.82,106.957,106.957,0,0,0-12.153.82c.408-5.306.6-7.139.816-16.492-7.1,12.417-18.216,18.953-32,18.953-9.107,0-16.8-2.844-22.484-8.15-6.47-6.1-8.917-13.456-8.917-26.693,0-2.844,0-8.341.19-13.647.19-8.752.19-13.839.19-20.786,0-10.995-.19-17.121-.816-28.908A114.775,114.775,0,0,0,50.671,36Z" transform="translate(225.336 210.255)" fill="#fff"/>
  <path id="Path_50" data-name="Path 50" d="M106.3,59.531c-3.833-2.243-6.688-3.063-10.113-3.063-8.1,0-14.79,4.677-18.025,12.225-1.631,4.485-2.23,10.174-2.23,25.243,0,12.827.6,28.526,1.414,38.7-6.689-.6-9.326-.82-11.936-.82-3.045,0-5.464.191-12.343.82,1.223-11.4,1.631-24.834,1.631-47.862,0-18.734-.408-28.525-1.631-47.861A113.8,113.8,0,0,0,65,37.733a78.007,78.007,0,0,0,10.739-.82c-.19,4.9-.408,13.428-.408,23.219,6.688-15.89,16.992-25.243,28.139-25.243a18.914,18.914,0,0,1,5.274.82,52.762,52.762,0,0,0-1.223,12.636,94.96,94.96,0,0,0,.6,9.763Z" transform="translate(317.148 208.521)" fill="#fff"/>
  <path id="Path_51" data-name="Path 51" d="M145.418,114.311l-.6,1.641a35.6,35.6,0,0,0-2.637,9.162c-11.337,7.33-20.254,9.983-32.38,9.983-29.363,0-47.768-19.336-47.768-49.913s17.4-50.3,45.947-50.3c26.317,0,41.3,15.89,41.3,43.595,0,1.012-.19,3.665-.407,6.509-8.918-.41-17.808-.6-31.592-.6-9.516,0-19.629.192-30.559.41a20.777,20.777,0,0,0-.19,2.844c0,22.618,11.555,36.648,29.961,36.648,10.113,0,18.623-3.665,26.916-11.213ZM112,76.022a133.592,133.592,0,0,0,14.382-.41c-.407-9.982-.816-14.249-2.011-18.543-2.637-9.573-8.293-14.66-16.612-14.66-12.153,0-20.037,12.416-20.853,33.393C91.967,76,92.973,76,106.757,76h5.274Z" transform="translate(370.763 208.521)" fill="#fff"/>
  <path id="Path_52" data-name="Path 52" d="M82.165,108.814c4.649,11.4,13.757,18.133,24.306,18.133s18.216-6.318,18.216-14.878c0-7.522-3.861-10.995-18.026-16.082C94.507,91.5,89.26,88.849,84.992,85.4c-5.274-4.485-8.51-12.006-8.51-20.156,0-18.543,14.165-30.358,36.431-30.358,11.337,0,20.255,2.242,28.357,6.728l-.816,2.434c-.816,2.434-1.632,4.676-2.42,6.92-.407,1.231-1.223,3.856-2.637,8.971h-2.42c-2.828-11.214-10.739-17.722-21.668-17.722-9.325,0-15.986,5.688-15.986,14.057,0,5.087,2.419,8.971,7.694,12.006,4.241,2.434,6.688,3.474,18.216,7.138,17.21,5.5,24.088,12.827,24.088,25.873,0,19.746-17.4,33.8-41.515,33.8-9.924,0-17.808-1.641-27.731-5.908,1.223-3.063,2.827-12.225,3.86-20.375Z" transform="translate(454.679 208.521)" fill="#fff"/>
  <path id="Path_53" data-name="Path 53" d="M122.48,87.068c-7.5-13.428-22.892-21.387-41.3-21.387-32.788,0-53.451,24.04-53.451,62.74s20.037,59.868,52.037,59.868a69.118,69.118,0,0,0,27.133-5.306c.6-8.971.816-15.07.816-22.618a240.694,240.694,0,0,0-1.413-27.3,69.506,69.506,0,0,0,12.751,1.012,84.54,84.54,0,0,0,13.566-1.012c-1.223,10.393-1.631,20.376-1.631,35.226a182.494,182.494,0,0,0,.816,20.567c-22.266,6.92-37.056,9.572-54.864,9.572C29.362,198.435,0,171.962,0,128.777,0,83.349,31.374,55.262,82.187,55.262c19.222,0,33.006,3.255,48.394,11.6-3.453,8.971-4.649,13.647-5.655,19.965l-2.42.192Z" transform="translate(0 330.284)" fill="#fff"/>
  <path id="Path_54" data-name="Path 54" d="M75.465,86.011c-3.834-2.243-6.688-3.063-10.113-3.063-8.1,0-14.79,4.677-18.026,12.225-1.631,4.485-2.229,10.174-2.229,25.243,0,12.827.6,28.526,1.413,38.7-6.688-.6-9.325-.82-11.935-.82-3.045,0-5.465.192-12.343.82,1.224-11.4,1.631-24.833,1.631-47.861,0-18.735-.407-28.526-1.631-47.862a113.6,113.6,0,0,0,11.936.82,77.881,77.881,0,0,0,10.739-.82c-.19,4.9-.407,13.429-.407,23.22,6.688-15.89,17.019-25.243,28.139-25.243a18.92,18.92,0,0,1,5.274.82,52.72,52.72,0,0,0-1.223,12.635,95.681,95.681,0,0,0,.6,9.791l-1.822,1.423Z" transform="translate(132.873 366.787)" fill="#fff"/>
  <path id="Path_55" data-name="Path 55" d="M128.992,112.29c0,30.741-18.433,49.284-48.8,49.284S31.2,143.031,31.2,111.469s18.026-50.1,49.21-50.1S128.992,79.5,128.992,112.29Zm-72.89-.82c0,28.526,8.1,42.775,23.9,42.775s24.088-14.468,24.088-42.173c0-29.537-7.694-43.376-24.088-43.376S56.1,82.944,56.1,111.469Z" transform="translate(186.464 366.763)" fill="#fff"/>
  <path id="Path_56" data-name="Path 56" d="M60.592,62.479a75.581,75.581,0,0,0,11.337-.82c-.816,15.89-1.413,38.29-1.413,49.694,0,14.66.816,20.786,3.235,25.244,3.045,5.5,9.108,8.971,16.2,8.971,9.107,0,16.2-5.716,18.841-15.289,1.631-6.317,1.822-8.341,1.822-35.226,0-10.584-.408-26.064-1.006-33.394a116.9,116.9,0,0,0,12.751.82,86.41,86.41,0,0,0,11.555-.82c-1.006,17.5-1.413,29.729-1.413,49.5s.407,34.214,1.223,46.22a74.171,74.171,0,0,0-10.929-.82,107.109,107.109,0,0,0-12.153.82c.407-5.306.6-7.138.816-16.492-7.1,12.417-18.216,18.926-32,18.926-9.108,0-16.8-2.844-22.484-8.15-6.471-6.1-8.918-13.456-8.918-26.666,0-2.844,0-8.342.19-13.648.19-8.752.19-13.838.19-20.758,0-10.995-.19-17.121-.816-28.908a114.783,114.783,0,0,0,12.968.82Z" transform="translate(284.634 368.52)" fill="#fff"/>
  <path id="Path_57" data-name="Path 57" d="M86.246,162.394c.191,21.387.816,35.856,1.414,49.913A81.453,81.453,0,0,0,75.1,211.3a75.3,75.3,0,0,0-12.153,1.012c1.006-14.057,1.822-47.26,1.822-67.416,0-37.277-.6-67.2-1.822-81.474,6.063.41,8.918.6,12.153.6,3.045,0,5.872-.192,11.555-.6-.408,4.075-.816,13.046-.816,16.082,5.057-12.007,15.2-18.133,29.362-18.133,25.094,0,40.89,19.336,40.89,50.1s-15.986,49.886-40.7,49.886c-13.757,0-23.68-6.1-29.362-17.914v5.087l.19,13.838Zm.816-49.885c0,24.642,8.1,38.481,22.674,38.481s22.674-14.058,22.674-39.931-7.5-38.289-21.859-38.289c-15.8,0-23.49,13.046-23.49,39.712Z" transform="translate(376.213 366.763)" fill="#fff"/>
</svg>
