<?xml version="1.0" encoding="UTF-8"?>
<svg version="1.1" xmlns="http://www.w3.org/2000/svg" width="300" height="98">
<path d="M0 0 C1.31677734 0.00580078 1.31677734 0.00580078 2.66015625 0.01171875 C4.9375 0.3125 4.9375 0.3125 6.9375 2.3125 C7.64566502 6.57795908 7.64885006 10.19075567 5.3125 13.875 C2.33856977 15.6750104 0.35506151 15.62318741 -3.0625 15.3125 C-2.18964227 18.39681364 -2.18964227 18.39681364 -0.0625 21.3125 C2.74652575 22.27234523 5.54865517 22.33463155 8.5 22.4375 C11.40170538 22.56689066 14.05227676 22.84494588 16.9375 23.3125 C18.82491325 25.48111875 18.93401025 26.66224309 18.94921875 29.49609375 C18.84222656 30.23988281 18.73523438 30.98367187 18.625 31.75 C18.51671875 32.53117187 18.4084375 33.31234375 18.296875 34.1171875 C17.90187927 36.53009619 17.47612164 38.92717557 16.9375 41.3125 C18.071875 41.23 19.20625 41.1475 20.375 41.0625 C26.34079772 41.10473574 31.47226848 42.88931934 35.76953125 47.11328125 C39.11877742 51.31002524 40.58180498 55.08519224 41.9375 60.3125 C42.02314209 59.71711426 42.10878418 59.12172852 42.19702148 58.50830078 C42.58611253 55.81750371 42.98049001 53.12750768 43.375 50.4375 C43.57706055 49.03177734 43.57706055 49.03177734 43.78320312 47.59765625 C43.98139648 46.25380859 43.98139648 46.25380859 44.18359375 44.8828125 C44.30404053 44.05539551 44.4244873 43.22797852 44.54858398 42.37548828 C44.9375 40.3125 44.9375 40.3125 45.9375 38.3125 C42.9675 38.3125 39.9975 38.3125 36.9375 38.3125 C38.04538134 33.88097462 38.77615852 31.62438155 41.9375 28.3125 C47.63809913 27.29359476 52.69498497 27.87154062 57.9375 30.3125 C59.51413217 31.88913217 59.10521072 33.44943009 59.12109375 35.63671875 C59.06063745 41.59643758 58.09892279 47.28055594 57 53.125 C56.81759766 54.13498047 56.63519531 55.14496094 56.44726562 56.18554688 C55.65143673 60.56984059 54.81873083 64.94455376 53.9375 69.3125 C55.2575 69.3125 56.5775 69.3125 57.9375 69.3125 C58.04296143 68.63372803 58.14842285 67.95495605 58.25708008 67.25561523 C64.03497292 30.21502708 64.03497292 30.21502708 65.9375 28.3125 C67.95714199 28.24005947 69.97917124 28.22872812 72 28.25 C73.10472656 28.25902344 74.20945312 28.26804687 75.34765625 28.27734375 C76.20230469 28.28894531 77.05695313 28.30054687 77.9375 28.3125 C77.1411893 36.01017006 76.05928733 43.65602921 74.9375 51.3125 C75.26878906 50.735 75.60007812 50.1575 75.94140625 49.5625 C77.77866946 46.91021025 79.27555315 45.16853634 81.9375 43.3125 C87.02939227 42.6015171 91.83273159 42.83947127 96.9375 43.3125 C96.6075 44.6325 96.2775 45.9525 95.9375 47.3125 C96.5975 47.3125 97.2575 47.3125 97.9375 47.3125 C97.9375 46.6525 97.9375 45.9925 97.9375 45.3125 C102.20597317 43.23994656 105.78406005 43.04376737 110.5 43.0625 C111.80066406 43.05734375 113.10132813 43.0521875 114.44140625 43.046875 C117.60579413 43.28729777 119.31107522 43.62838029 121.9375 45.3125 C121.9375 45.9725 121.9375 46.6325 121.9375 47.3125 C122.5975 47.3125 123.2575 47.3125 123.9375 47.3125 C123.9375 47.9725 123.9375 48.6325 123.9375 49.3125 C124.5975 49.3125 125.2575 49.3125 125.9375 49.3125 C127.6588061 54.47641829 126.99103552 59.90541236 126.9375 65.3125 C119.3475 65.3125 111.7575 65.3125 103.9375 65.3125 C103.9375 65.9725 103.9375 66.6325 103.9375 67.3125 C107.45809568 68.48603189 110.243993 68.51396402 113.9375 68.3125 C114.5975 67.6525 115.2575 66.9925 115.9375 66.3125 C118.5390625 66.1171875 118.5390625 66.1171875 121.5625 66.1875 C122.56539062 66.20554687 123.56828125 66.22359375 124.6015625 66.2421875 C125.37242187 66.26539062 126.14328125 66.28859375 126.9375 66.3125 C126.17840586 71.19355695 124.75614482 73.0878666 120.9375 76.3125 C114.42759613 80.21785346 108.0038796 79.83565512 100.66040039 79.81347656 C98.37714767 79.81250092 96.09722432 79.85424057 93.81445312 79.8984375 C92.35417362 79.90364309 90.89388253 79.90633272 89.43359375 79.90625 C87.45637329 79.91688477 87.45637329 79.91688477 85.43920898 79.92773438 C81.08505723 79.16272967 79.69086863 77.68988194 76.9375 74.3125 C73.9375 69.86422414 73.9375 69.86422414 73.9375 67.3125 C73.2775 67.3125 72.6175 67.3125 71.9375 67.3125 C71.2775 71.2725 70.6175 75.2325 69.9375 79.3125 C65.85377117 79.39333627 61.77163791 79.45292706 57.6875 79.5 C56.52863281 79.52513672 55.36976563 79.55027344 54.17578125 79.57617188 C53.06074219 79.58583984 51.94570312 79.59550781 50.796875 79.60546875 C49.77045898 79.6211792 48.74404297 79.63688965 47.68652344 79.65307617 C44.50837423 79.25933566 43.17003886 78.58687464 40.9375 76.3125 C40.1875 72.625 40.1875 72.625 39.9375 69.3125 C39.51339844 69.92738281 39.08929688 70.54226562 38.65234375 71.17578125 C34.95606342 76.26933679 32.27010199 79.70251644 25.9375 81.3125 C19.04131721 82.20751208 12.64792455 81.51102167 6.9375 77.3125 C2.54617317 72.51373047 0.57985182 67.81044173 0.4375 61.3125 C0.68069719 56.76702872 1.34686564 52.41381329 2.359375 47.98046875 C3.48069612 42.8057233 4.16598903 37.5489255 4.9375 32.3125 C3.69033203 32.32990234 3.69033203 32.32990234 2.41796875 32.34765625 C1.33128906 32.35667969 0.24460938 32.36570313 -0.875 32.375 C-1.95394531 32.38660156 -3.03289062 32.39820313 -4.14453125 32.41015625 C-7.0625 32.3125 -7.0625 32.3125 -10.0625 31.3125 C-10.7225 31.9725 -11.3825 32.6325 -12.0625 33.3125 C-11.82284162 37.7461801 -9.84075745 39.9965153 -7.0625 43.3125 C-7.0625 43.9725 -7.0625 44.6325 -7.0625 45.3125 C-6.4025 45.3125 -5.7425 45.3125 -5.0625 45.3125 C-4.11366346 53.66226158 -8.13667904 62.66022708 -13.0625 69.3125 C-15.86215679 69.98163403 -18.15050141 69.55118841 -21.0625 69.3125 C-21.6269718 61.97436666 -19.61577104 56.15161885 -17.0625 49.3125 C-17.7225 49.3125 -18.3825 49.3125 -19.0625 49.3125 C-21.0078125 47.1953125 -21.0078125 47.1953125 -23.1875 44.4375 C-23.91195312 43.53257813 -24.63640625 42.62765625 -25.3828125 41.6953125 C-27.0625 39.3125 -27.0625 39.3125 -27.0625 37.3125 C-27.7225 37.3125 -28.3825 37.3125 -29.0625 37.3125 C-28.1875 31.5625 -28.1875 31.5625 -27.0625 29.3125 C-26.4025 29.3125 -25.7425 29.3125 -25.0625 29.3125 C-25.0625 28.6525 -25.0625 27.9925 -25.0625 27.3125 C-24.4025 27.3125 -23.7425 27.3125 -23.0625 27.3125 C-22.69125 26.508125 -22.69125 26.508125 -22.3125 25.6875 C-20.75597463 22.7301018 -19.02814327 20.01525949 -17.0625 17.3125 C-16.4025 17.3125 -15.7425 17.3125 -15.0625 17.3125 C-14.7221875 16.384375 -14.7221875 16.384375 -14.375 15.4375 C-12.68320165 12.69839791 -11.07005839 12.26225528 -8.0625 11.3125 C-8.124375 10.054375 -8.18625 8.79625 -8.25 7.5 C-8.37723347 4.91291952 -8.34604497 3.72577142 -6.8671875 1.5703125 C-4.47204953 -0.09902609 -2.89727765 -0.05547071 0 0 Z M93.9375 47.3125 C94.2675 47.9725 94.5975 48.6325 94.9375 49.3125 C95.2675 48.6525 95.5975 47.9925 95.9375 47.3125 C95.2775 47.3125 94.6175 47.3125 93.9375 47.3125 Z M91.9375 49.3125 C91.9375 49.9725 91.9375 50.6325 91.9375 51.3125 C91.2775 51.3125 90.6175 51.3125 89.9375 51.3125 C89.9375 51.9725 89.9375 52.6325 89.9375 53.3125 C89.2775 53.3125 88.6175 53.3125 87.9375 53.3125 C87.9375 53.9725 87.9375 54.6325 87.9375 55.3125 C87.2775 55.3125 86.6175 55.3125 85.9375 55.3125 C85.9375 55.9725 85.9375 56.6325 85.9375 57.3125 C85.2775 57.3125 84.6175 57.3125 83.9375 57.3125 C84.58199607 60.32467112 85.58772182 62.82905836 87 65.5625 C87.54333984 66.62210938 87.54333984 66.62210938 88.09765625 67.703125 C88.37480469 68.23421875 88.65195312 68.7653125 88.9375 69.3125 C89.5975 69.3125 90.2575 69.3125 90.9375 69.3125 C90.90269531 68.51585938 90.86789062 67.71921875 90.83203125 66.8984375 C90.6779142 60.86585597 90.61702399 56.56992035 93.9375 51.3125 C93.9375 50.6525 93.9375 49.9925 93.9375 49.3125 C93.2775 49.3125 92.6175 49.3125 91.9375 49.3125 Z M12.9375 57.3125 C11.85725342 59.71360217 11.85725342 59.71360217 11.9375 62.3125 C13.32307787 65.14963564 14.70751704 67.08251704 16.9375 69.3125 C22.47985245 69.88484436 22.47985245 69.88484436 27.4375 67.8125 C29.55903384 64.27661027 29.728513 61.33348277 28.9375 57.3125 C27.60416667 54.64583333 27.60416667 54.64583333 24.9375 53.3125 C19.74759663 52.2915354 16.0555486 52.69778807 12.9375 57.3125 Z M106.9375 53.3125 C105.4525 55.2925 105.4525 55.2925 103.9375 57.3125 C107.5675 57.3125 111.1975 57.3125 114.9375 57.3125 C114.2775 55.9925 113.6175 54.6725 112.9375 53.3125 C110.06336875 52.97852213 110.06336875 52.97852213 106.9375 53.3125 Z " fill="#231F20" transform="translate(173.0625,-0.3125)"/>
<path d="M0 0 C70.95 0 141.9 0 215 0 C215.33 0.99 215.66 1.98 216 3 C216.391875 2.505 216.78375 2.01 217.1875 1.5 C219 0 219 0 221.5625 -0.25 C224 0 224 0 226 1 C226.94875 0.835 227.8975 0.67 228.875 0.5 C231.90509615 0.01518462 233.14725106 0.26380672 236 1 C236.65484375 0.84789063 237.3096875 0.69578125 237.984375 0.5390625 C242.38415256 -0.24742623 246.72755709 -0.1441004 251.1875 -0.125 C252.10208984 -0.12886719 253.01667969 -0.13273437 253.95898438 -0.13671875 C254.83232422 -0.13542969 255.70566406 -0.13414063 256.60546875 -0.1328125 C257.40106201 -0.13168457 258.19665527 -0.13055664 259.01635742 -0.12939453 C261 0 261 0 263 1 C265.01254354 0.74443892 267.02553833 0.48551893 269.02734375 0.15625 C271 0 271 0 274 1 C274.70125 0.855625 275.4025 0.71125 276.125 0.5625 C280.09200711 -0.21365357 283.9709291 -0.07900139 288 0 C288 0.99 288 1.98 288 3 C288.66 3 289.32 3 290 3 C290 2.34 290 1.68 290 1 C291.32 0.67 292.64 0.34 294 0 C294.47707218 5.7248662 293.6976663 10.40592975 290 15 C286.75 16 286.75 16 284 16 C283.67 14.68 283.34 13.36 283 12 C281.36629581 12 279.73571197 12.14762159 278.10546875 12.25390625 C276.4661465 12.3567814 274.82682355 12.45964546 273.1875 12.5625 C272.36701172 12.61857422 271.54652344 12.67464844 270.70117188 12.73242188 C269.90646484 12.78076172 269.11175781 12.82910156 268.29296875 12.87890625 C267.5661792 12.9260376 266.83938965 12.97316895 266.09057617 13.02172852 C264 13 264 13 261.8684082 12.45678711 C259.92271947 11.7960183 259.92271947 11.7960183 257.8125 12.8125 C255.84977807 13.88121987 255.84977807 13.88121987 255 16 C253.35 16 251.7 16 250 16 C250 14.68 250 13.36 250 12 C247.2915983 11.97285566 244.58347279 11.95309154 241.875 11.9375 C241.11445313 11.92912109 240.35390625 11.92074219 239.5703125 11.91210938 C235.24890608 11.89348262 231.26685685 12.22950536 227 13 C225.66431979 12.67619874 224.33076989 12.34342449 223 12 C222.175 12.185625 221.35 12.37125 220.5 12.5625 C217.56378776 13.07633714 216.47428604 12.5578838 214 11 C213.67 11.33 213.34 11.66 213 12 C211.52112145 12.10791644 210.03714933 12.14682793 208.55438232 12.15821838 C207.59059379 12.16800752 206.62680525 12.17779665 205.633811 12.18788242 C204.02988412 12.19651515 204.02988412 12.19651515 202.39355469 12.20532227 C200.70848108 12.22016741 200.70848108 12.22016741 198.98936558 12.23531246 C195.21689073 12.26721486 191.44440446 12.29187247 187.671875 12.31640625 C185.00994012 12.33708619 182.34800991 12.35811586 179.68608093 12.3795166 C173.26332251 12.43014967 166.84053584 12.47500423 160.4177199 12.51765215 C155.25088704 12.55204392 150.08407436 12.58867794 144.91726685 12.62667847 C96.27803906 12.98317229 47.64054563 13.13875634 -1 13 C-1.02696365 11.20841511 -1.04637917 9.41671527 -1.0625 7.625 C-1.07410156 6.62726563 -1.08570312 5.62953125 -1.09765625 4.6015625 C-1 2 -1 2 0 0 Z M221 5 C221 5.66 221 6.32 221 7 C221.66 7 222.32 7 223 7 C223.33 7.66 223.66 8.32 224 9 C224 7.68 224 6.36 224 5 C223.01 5 222.02 5 221 5 Z M229 5 C230 7 230 7 230 7 Z M267 5 C268 7 268 7 268 7 Z M272 5 C273 7 273 7 273 7 Z " fill="#50B049" transform="translate(1,82)"/>
<path d="M0 0 C42.57 0 85.14 0 129 0 C128 10 128 10 127 12 C97.60684216 13.03841279 68.21997283 13.08837832 38.8125 13.0625 C37.83289433 13.06164398 36.85328865 13.06078796 35.84399796 13.05990601 C23.5626476 13.0483885 11.28132309 13.02813291 -1 13 C-1.02696365 11.20841511 -1.04637917 9.41671527 -1.0625 7.625 C-1.07410156 6.62726563 -1.08570312 5.62953125 -1.09765625 4.6015625 C-1 2 -1 2 0 0 Z " fill="#DF1734" transform="translate(1,82)"/>
<path d="M0 0 C3.96 0 7.92 0 12 0 C12.16803599 5.54518774 12.13843222 9.78757146 10 15 C12.97 15 15.94 15 19 15 C19.144375 13.63875 19.28875 12.2775 19.4375 10.875 C19.82678768 7.20457333 20.39048629 3.65708225 21 0 C25.29 0 29.58 0 34 0 C33.34 4.62 32.68 9.24 32 14 C34.475 14.495 34.475 14.495 37 15 C37.14285714 23.57142857 37.14285714 23.57142857 36 27 C33.69 27 31.38 27 29 27 C28.90912109 28.01320313 28.90912109 28.01320313 28.81640625 29.046875 C28.73261719 29.93890625 28.64882812 30.8309375 28.5625 31.75 C28.48128906 32.63171875 28.40007812 33.5134375 28.31640625 34.421875 C28.03761535 36.69350452 27.61209423 38.79851823 27 41 C28.32 41 29.64 41 31 41 C31.125 48.75 31.125 48.75 30 51 C25.14433483 51.22960238 20.54577194 51.3940203 15.8125 50.1875 C13.12829379 46.94794078 13.51092768 44.10959827 13.69140625 40.0078125 C14.14430714 35.59346206 14.95296506 31.30967062 16 27 C13.36 27 10.72 27 8 27 C7.7834375 28.794375 7.7834375 28.794375 7.5625 30.625 C7.12960657 34.1005158 6.60383744 37.54950034 6 41 C7.32 41 8.64 41 10 41 C9.67 44.3 9.34 47.6 9 51 C7.25034642 51.05429959 5.50020213 51.09292823 3.75 51.125 C2.77546875 51.14820313 1.8009375 51.17140625 0.796875 51.1953125 C-2.05069951 50.99645953 -3.63037132 50.55438946 -6 49 C-7.57727222 45.84545555 -6.86793113 42.55640217 -6.625 39.125 C-6.58117188 38.40441406 -6.53734375 37.68382812 -6.4921875 36.94140625 C-6.26633875 33.5348542 -6.01083024 30.27234873 -5 27 C-5.99 27 -6.98 27 -8 27 C-7.44687265 22.97007218 -6.8441938 18.97977076 -6 15 C-4.68 15 -3.36 15 -2 15 C-1.90912109 14.00419922 -1.90912109 14.00419922 -1.81640625 12.98828125 C-1.73261719 12.10527344 -1.64882813 11.22226562 -1.5625 10.3125 C-1.48128906 9.44238281 -1.40007813 8.57226562 -1.31640625 7.67578125 C-1.01156391 5.09779359 -0.50910741 2.54553705 0 0 Z " fill="#231F21" transform="translate(57,28)"/>
<path d="M0 0 C0 0.66 0 1.32 0 2 C0.66 2 1.32 2 2 2 C2.495 3.98 2.495 3.98 3 6 C3.66 6 4.32 6 5 6 C7.09280052 11.23200131 7 13.87807293 7 20 C-1.58 20 -10.16 20 -19 20 C-18.34 20.99 -17.68 21.98 -17 23 C-15.09293424 23.40087331 -15.09293424 23.40087331 -13 23.25 C-11.948125 23.22679687 -11.948125 23.22679687 -10.875 23.203125 C-8.91063372 23.10043334 -8.91063372 23.10043334 -7 22 C-4.95944995 21.92934383 -2.91665743 21.91578024 -0.875 21.9375 C0.22070312 21.94652344 1.31640625 21.95554687 2.4453125 21.96484375 C3.70988281 21.98224609 3.70988281 21.98224609 5 22 C5 23.32 5 24.64 5 26 C4.34 26 3.68 26 3 26 C2.67 27.32 2.34 28.64 2 30 C1.34 30 0.68 30 0 30 C0 30.66 0 31.32 0 32 C-5.9863937 35.17009974 -11.18061736 37.18703286 -18 36 C-23.90289238 34.1068201 -27.54464918 31.08139827 -31 26 C-33.67187285 20.14732614 -33.74508759 14.60780657 -32 8.5 C-31.67 7.675 -31.34 6.85 -31 6 C-30.34 6 -29.68 6 -29 6 C-28.7525 5.236875 -28.505 4.47375 -28.25 3.6875 C-26.29587805 -0.5138622 -24.06245257 -1.58335194 -19.8125 -3.25 C-12.48332459 -4.691805 -6.61715231 -3.23818092 0 0 Z M-19 10 C-19 10.66 -19 11.32 -19 12 C-15.04 12 -11.08 12 -7 12 C-8.49523862 7.90805549 -8.49523862 7.90805549 -11.3125 7.0625 C-14.73947077 6.98280301 -16.31532192 7.92896263 -19 10 Z " fill="#231F21" transform="translate(143,45)"/>
<path d="M0 0 C1.31677734 0.00580078 1.31677734 0.00580078 2.66015625 0.01171875 C4.9375 0.3125 4.9375 0.3125 6.9375 2.3125 C7.64566502 6.57795908 7.64885006 10.19075567 5.3125 13.875 C2.33856977 15.6750104 0.35506151 15.62318741 -3.0625 15.3125 C-1.84629415 18.32897106 -1.84629415 18.32897106 -0.0625 21.3125 C2.01440578 22.27294102 2.01440578 22.27294102 3.9375 22.3125 C1.3375 29.3125 1.3375 29.3125 -1.0625 32.3125 C-4.54367973 32.74764747 -6.73589034 32.42136989 -10.0625 31.3125 C-10.7225 31.9725 -11.3825 32.6325 -12.0625 33.3125 C-11.82284162 37.7461801 -9.84075745 39.9965153 -7.0625 43.3125 C-7.0625 43.9725 -7.0625 44.6325 -7.0625 45.3125 C-6.4025 45.3125 -5.7425 45.3125 -5.0625 45.3125 C-4.11366346 53.66226158 -8.13667904 62.66022708 -13.0625 69.3125 C-15.86215679 69.98163403 -18.15050141 69.55118841 -21.0625 69.3125 C-21.6269718 61.97436666 -19.61577104 56.15161885 -17.0625 49.3125 C-17.7225 49.3125 -18.3825 49.3125 -19.0625 49.3125 C-21.0078125 47.1953125 -21.0078125 47.1953125 -23.1875 44.4375 C-23.91195312 43.53257813 -24.63640625 42.62765625 -25.3828125 41.6953125 C-27.0625 39.3125 -27.0625 39.3125 -27.0625 37.3125 C-27.7225 37.3125 -28.3825 37.3125 -29.0625 37.3125 C-28.1875 31.5625 -28.1875 31.5625 -27.0625 29.3125 C-26.4025 29.3125 -25.7425 29.3125 -25.0625 29.3125 C-25.0625 28.6525 -25.0625 27.9925 -25.0625 27.3125 C-24.4025 27.3125 -23.7425 27.3125 -23.0625 27.3125 C-22.69125 26.508125 -22.69125 26.508125 -22.3125 25.6875 C-20.75597463 22.7301018 -19.02814327 20.01525949 -17.0625 17.3125 C-16.4025 17.3125 -15.7425 17.3125 -15.0625 17.3125 C-14.7221875 16.384375 -14.7221875 16.384375 -14.375 15.4375 C-12.68320165 12.69839791 -11.07005839 12.26225528 -8.0625 11.3125 C-8.124375 10.054375 -8.18625 8.79625 -8.25 7.5 C-8.37723347 4.91291952 -8.34604497 3.72577142 -6.8671875 1.5703125 C-4.47204953 -0.09902609 -2.89727765 -0.05547071 0 0 Z " fill="#F9EB04" transform="translate(173.0625,-0.3125)"/>
<path d="M0 0 C0.66 0.33 1.32 0.66 2 1 C2.94875 0.835 3.8975 0.67 4.875 0.5 C7.90509615 0.01518462 9.14725106 0.26380672 12 1 C12.65484375 0.84789063 13.3096875 0.69578125 13.984375 0.5390625 C18.38415256 -0.24742623 22.72755709 -0.1441004 27.1875 -0.125 C28.10208984 -0.12886719 29.01667969 -0.13273437 29.95898438 -0.13671875 C30.83232422 -0.13542969 31.70566406 -0.13414063 32.60546875 -0.1328125 C33.40106201 -0.13168457 34.19665527 -0.13055664 35.01635742 -0.12939453 C37 0 37 0 39 1 C41.01254354 0.74443892 43.02553833 0.48551893 45.02734375 0.15625 C47 0 47 0 50 1 C50.70125 0.855625 51.4025 0.71125 52.125 0.5625 C56.09200711 -0.21365357 59.9709291 -0.07900139 64 0 C64 0.99 64 1.98 64 3 C64.66 3 65.32 3 66 3 C66 2.34 66 1.68 66 1 C67.32 0.67 68.64 0.34 70 0 C70.47707218 5.7248662 69.6976663 10.40592975 66 15 C62.75 16 62.75 16 60 16 C59.505 14.02 59.505 14.02 59 12 C57.36629581 12 55.73571197 12.14762159 54.10546875 12.25390625 C52.4661465 12.3567814 50.82682355 12.45964546 49.1875 12.5625 C48.36701172 12.61857422 47.54652344 12.67464844 46.70117188 12.73242188 C45.90646484 12.78076172 45.11175781 12.82910156 44.29296875 12.87890625 C43.5661792 12.9260376 42.83938965 12.97316895 42.09057617 13.02172852 C40 13 40 13 37.8684082 12.45678711 C35.92271947 11.7960183 35.92271947 11.7960183 33.8125 12.8125 C31.84977807 13.88121987 31.84977807 13.88121987 31 16 C29.35 16 27.7 16 26 16 C26 14.68 26 13.36 26 12 C23.2915983 11.97285566 20.58347279 11.95309154 17.875 11.9375 C17.11445313 11.92912109 16.35390625 11.92074219 15.5703125 11.91210938 C11.24890608 11.89348262 7.26685685 12.22950536 3 13 C1.66431979 12.67619874 0.33076989 12.34342449 -1 12 C-1.845625 12.185625 -2.69125 12.37125 -3.5625 12.5625 C-6 13 -6 13 -9 11 C-9.42339372 7.10477776 -9.19303181 4.28954771 -7 1 C-4.50564175 -0.24717912 -2.76297351 -0.13814868 0 0 Z M-3 5 C-3 5.66 -3 6.32 -3 7 C-2.34 7 -1.68 7 -1 7 C-0.67 7.66 -0.34 8.32 0 9 C0 7.68 0 6.36 0 5 C-0.99 5 -1.98 5 -3 5 Z M5 5 C6 7 6 7 6 7 Z M43 5 C44 7 44 7 44 7 Z M48 5 C49 7 49 7 49 7 Z " fill="#221F20" transform="translate(225,82)"/>
<path d="M0 0 C3.96 0 7.92 0 12 0 C11.16799883 7.28001025 10.00802232 14.5057362 8.84326172 21.73828125 C8.49757474 23.89009667 8.15693905 26.04267616 7.81640625 28.1953125 C7.59666211 29.5651536 7.37662088 30.93494708 7.15625 32.3046875 C6.85944336 34.1606958 6.85944336 34.1606958 6.55664062 36.05419922 C6 39 6 39 5 41 C8.63 41 12.26 41 16 41 C16.09765625 47.93359375 16.09765625 47.93359375 16 50 C13.85712161 52.14287839 9.15202892 51.1852037 6.1875 51.1875 C5.36701172 51.19974609 4.54652344 51.21199219 3.70117188 51.22460938 C2.90646484 51.22654297 2.11175781 51.22847656 1.29296875 51.23046875 C0.5661792 51.23457764 -0.16061035 51.23868652 -0.90942383 51.24291992 C-3.33815802 50.96070685 -4.92688529 50.28324926 -7 49 C-10.20230261 42.59539477 -7.2708092 33.84068952 -5.859375 27.26953125 C-4.68620194 21.67041684 -3.88719372 16.00940779 -3.09057617 10.34619141 C-2.97689697 9.57839355 -2.86321777 8.8105957 -2.74609375 8.01953125 C-2.64997803 7.33995361 -2.5538623 6.66037598 -2.45483398 5.96020508 C-2 4 -2 4 0 0 Z " fill="#231F21" transform="translate(11,28)"/>
<path d="M0 0 C1.9375 1.0625 1.9375 1.0625 2.9375 2.0625 C3.03604655 3.70590867 3.06722411 5.3536461 3.0625 7 C3.06636719 8.34384766 3.06636719 8.34384766 3.0703125 9.71484375 C2.9375 12.0625 2.9375 12.0625 1.9375 14.0625 C1.66216612 15.60602749 1.42880544 17.15717993 1.21875 18.7109375 C1.02732422 20.09539063 1.02732422 20.09539063 0.83203125 21.5078125 C0.70183594 22.47460938 0.57164063 23.44140625 0.4375 24.4375 C0.17903879 26.34141231 -0.08130794 28.24506984 -0.34375 30.1484375 C-0.45783203 30.9945459 -0.57191406 31.8406543 -0.68945312 32.71240234 C-1.03262739 34.87431035 -1.4945766 36.94984932 -2.0625 39.0625 C-0.5775 39.5575 -0.5775 39.5575 0.9375 40.0625 C1.0625 46.6875 1.0625 46.6875 -0.0625 50.0625 C-1.8117214 50.14392927 -3.56204542 50.20188541 -5.3125 50.25 C-6.28703125 50.28480469 -7.2615625 50.31960937 -8.265625 50.35546875 C-11.5512201 50.01130725 -12.85166657 49.51668044 -15.0625 47.0625 C-16.53542612 39.21075996 -14.67244813 31.10135656 -12.86328125 23.453125 C-11.73821429 18.68942683 -10.89884368 13.88377533 -10.0625 9.0625 C-13.0325 9.0625 -16.0025 9.0625 -19.0625 9.0625 C-18.14133719 5.37784877 -17.1563112 3.16134058 -15.0625 0.0625 C-10.64183543 -2.14783229 -4.59490927 -1.40660488 0 0 Z " fill="#23201F" transform="translate(44.0625,28.9375)"/>
<path d="M0 0 C4.29 0 8.58 0 13 0 C12.37068933 8.46708895 11.09088539 16.66376054 9.5 25 C9.27441406 26.21300781 9.04882812 27.42601563 8.81640625 28.67578125 C7.14580676 37.56257972 7.14580676 37.56257972 6 41 C7.32 41 8.64 41 10 41 C10.02689216 42.47906892 10.04634621 43.95827483 10.0625 45.4375 C10.07410156 46.26121094 10.08570312 47.08492187 10.09765625 47.93359375 C10 50 10 50 9 51 C7.23252271 51.12562235 5.45939708 51.17576558 3.6875 51.1875 C2.72199219 51.20167969 1.75648437 51.21585938 0.76171875 51.23046875 C-2.01519158 50.99873224 -3.63473141 50.42140844 -6 49 C-7.01015494 35.59861108 -4.17272557 22.95247225 -1.55126953 9.8671875 C-0.92032415 6.5856009 -0.41913255 3.3145195 0 0 Z " fill="#221F20" transform="translate(100,28)"/>
<path d="M0 0 C5.96313166 -0.02464574 11.92623395 -0.042834 17.8894043 -0.05493164 C19.91968298 -0.05997278 21.94995802 -0.06680557 23.98022461 -0.07543945 C26.89177347 -0.08751467 29.8032745 -0.09323034 32.71484375 -0.09765625 C33.6283812 -0.10281754 34.54191864 -0.10797882 35.48313904 -0.11329651 C37.65575427 -0.11349168 39.82827296 -0.06211805 42 0 C43 1 43 1 43.0625 3.5625 C43.041875 4.366875 43.02125 5.17125 43 6 C42.34 6 41.68 6 41 6 C41 8.31 41 10.62 41 13 C27.14 13 13.28 13 -1 13 C-1 2 -1 2 0 0 Z " fill="#027DC3" transform="translate(1,82)"/>
<path d="M0 0 C14.19 0 28.38 0 43 0 C42.67 3.96 42.34 7.92 42 12 C27.48 12 12.96 12 -2 12 C-1.34 8.04 -0.68 4.08 0 0 Z " fill="#FBEC05" transform="translate(130,82)"/>
<path d="M0 0 C14.19 0 28.38 0 43 0 C42 10 42 10 41 12 C27.14 12 13.28 12 -1 12 C-1 4 -1 4 0 0 Z " fill="#241F1F" transform="translate(87,82)"/>
<path d="M0 0 C5.61 0 11.22 0 17 0 C17 0.99 17 1.98 17 3 C21.29 3.33 25.58 3.66 30 4 C29.4140625 12.49609375 29.4140625 12.49609375 29 15 C26.703463 16.1482685 25.41686833 16.11561175 22.8671875 16.09765625 C22.06152344 16.09443359 21.25585938 16.09121094 20.42578125 16.08789062 C19.58402344 16.07951172 18.74226563 16.07113281 17.875 16.0625 C17.02550781 16.05798828 16.17601563 16.05347656 15.30078125 16.04882812 C13.20049091 16.03702874 11.1002367 16.01909306 9 16 C9.875 8.375 9.875 8.375 11 5 C10.01 5 9.02 5 8 5 C7.67 8.63 7.34 12.26 7 16 C5.02 16 3.04 16 1 16 C1.875 8.375 1.875 8.375 3 5 C2.01 5 1.02 5 0 5 C0 3.35 0 1.7 0 0 Z " fill="#232021" transform="translate(10,9)"/>
<path d="M0 0 C1.31677734 0.00580078 1.31677734 0.00580078 2.66015625 0.01171875 C4.9375 0.3125 4.9375 0.3125 6.9375 2.3125 C7.64566502 6.57795908 7.64885006 10.19075567 5.3125 13.875 C2.33856977 15.6750104 0.35506151 15.62318741 -3.0625 15.3125 C-1.84629415 18.32897106 -1.84629415 18.32897106 -0.0625 21.3125 C2.01440578 22.27294102 2.01440578 22.27294102 3.9375 22.3125 C3.2775 23.9625 2.6175 25.6125 1.9375 27.3125 C-0.39583333 24.97916667 -2.72916667 22.64583333 -5.0625 20.3125 C-5.0625 18.9925 -5.0625 17.6725 -5.0625 16.3125 C-7.53516765 16.65694881 -7.53516765 16.65694881 -10.0625 17.3125 C-10.3925 17.9725 -10.7225 18.6325 -11.0625 19.3125 C-12.39583333 19.97916667 -13.72916667 20.64583333 -15.0625 21.3125 C-15.3925 21.9725 -15.7225 22.6325 -16.0625 23.3125 C-16.7225 23.3125 -17.3825 23.3125 -18.0625 23.3125 C-18.31 23.89 -18.5575 24.4675 -18.8125 25.0625 C-20.24549988 27.64189979 -21.84674676 29.37371592 -24.0625 31.3125 C-24.7225 31.3125 -25.3825 31.3125 -26.0625 31.3125 C-25.711875 32.22 -25.36125 33.1275 -25 34.0625 C-24.09781221 37.19008436 -23.92868493 38.36458081 -25.0625 41.3125 C-25.7225 39.9925 -26.3825 38.6725 -27.0625 37.3125 C-27.7225 37.3125 -28.3825 37.3125 -29.0625 37.3125 C-28.1875 31.5625 -28.1875 31.5625 -27.0625 29.3125 C-26.4025 29.3125 -25.7425 29.3125 -25.0625 29.3125 C-25.0625 28.6525 -25.0625 27.9925 -25.0625 27.3125 C-24.4025 27.3125 -23.7425 27.3125 -23.0625 27.3125 C-22.69125 26.508125 -22.69125 26.508125 -22.3125 25.6875 C-20.75597463 22.7301018 -19.02814327 20.01525949 -17.0625 17.3125 C-16.4025 17.3125 -15.7425 17.3125 -15.0625 17.3125 C-14.7221875 16.384375 -14.7221875 16.384375 -14.375 15.4375 C-12.68320165 12.69839791 -11.07005839 12.26225528 -8.0625 11.3125 C-8.124375 10.054375 -8.18625 8.79625 -8.25 7.5 C-8.37723347 4.91291952 -8.34604497 3.72577142 -6.8671875 1.5703125 C-4.47204953 -0.09902609 -2.89727765 -0.05547071 0 0 Z " fill="#E8DA05" transform="translate(173.0625,-0.3125)"/>
<path d="M0 0 C4.98413853 -0.08049753 8.9071033 0.33100246 13.46484375 2.453125 C14.46484375 3.453125 14.46484375 3.453125 14.59765625 5.66796875 C14.59507812 6.56644531 14.5925 7.46492188 14.58984375 8.390625 C14.59371094 9.73447266 14.59371094 9.73447266 14.59765625 11.10546875 C14.46484375 13.453125 14.46484375 13.453125 13.46484375 15.453125 C9.17484375 15.453125 4.88484375 15.453125 0.46484375 15.453125 C0.79484375 13.803125 1.12484375 12.153125 1.46484375 10.453125 C-1.50515625 10.453125 -4.47515625 10.453125 -7.53515625 10.453125 C-5.15209173 0.92086694 -5.15209173 0.92086694 0 0 Z " fill="#F4E406" transform="translate(217.53515625,27.546875)"/>
<path d="M0 0 C1.9375 1.0625 1.9375 1.0625 2.9375 2.0625 C3.03604655 3.70590867 3.06722411 5.3536461 3.0625 7 C3.06636719 8.34384766 3.06636719 8.34384766 3.0703125 9.71484375 C2.9375 12.0625 2.9375 12.0625 1.9375 14.0625 C-2.3525 14.0625 -6.6425 14.0625 -11.0625 14.0625 C-10.7325 12.4125 -10.4025 10.7625 -10.0625 9.0625 C-13.0325 9.0625 -16.0025 9.0625 -19.0625 9.0625 C-18.14133719 5.37784877 -17.1563112 3.16134058 -15.0625 0.0625 C-10.64183543 -2.14783229 -4.59490927 -1.40660488 0 0 Z " fill="#E7DC02" transform="translate(44.0625,28.9375)"/>
<path d="M0 0 C14.19 0 28.38 0 43 0 C42.67 3.96 42.34 7.92 42 12 C40.35 12.33 38.7 12.66 37 13 C37.33 12.34 37.66 11.68 38 11 C38.66 11 39.32 11 40 11 C40 8.69 40 6.38 40 4 C27.46 4 14.92 4 2 4 C2 6.97 2 9.94 2 13 C0.68 13 -0.64 13 -2 13 C-2 10.69 -2 8.38 -2 6 C-1.34 6 -0.68 6 0 6 C0 4.02 0 2.04 0 0 Z " fill="#CF122D" transform="translate(44,82)"/>
<path d="M0 0 C5.96313166 -0.02464574 11.92623395 -0.042834 17.8894043 -0.05493164 C19.91968298 -0.05997278 21.94995802 -0.06680557 23.98022461 -0.07543945 C26.89177347 -0.08751467 29.8032745 -0.09323034 32.71484375 -0.09765625 C33.6283812 -0.10281754 34.54191864 -0.10797882 35.48313904 -0.11329651 C37.65575427 -0.11349168 39.82827296 -0.06211805 42 0 C43 1 43 1 43.0625 3.5625 C43.041875 4.366875 43.02125 5.17125 43 6 C42.34 6 41.68 6 41 6 C41 8.31 41 10.62 41 13 C40.67 13 40.34 13 40 13 C40 10.03 40 7.06 40 4 C27.46 4 14.92 4 2 4 C1.34 6.97 0.68 9.94 0 13 C-0.33 13 -0.66 13 -1 13 C-1.02696365 11.20841511 -1.04637917 9.41671527 -1.0625 7.625 C-1.07410156 6.62726563 -1.08570312 5.62953125 -1.09765625 4.6015625 C-1 2 -1 2 0 0 Z " fill="#0176B7" transform="translate(1,82)"/>
<path d="M0 0 C14.19 0 28.38 0 43 0 C42.67 3.96 42.34 7.92 42 12 C27.48 12 12.96 12 -2 12 C-1.34 8.04 -0.68 4.08 0 0 Z M2 2 C1.67 4.97 1.34 7.94 1 11 C14.2 11 27.4 11 41 11 C41 8.03 41 5.06 41 2 C28.13 2 15.26 2 2 2 Z " fill="#E7DD27" transform="translate(130,82)"/>
<path d="M0 0 C13.86 0.33 27.72 0.66 42 1 C41.67 1.99 41.34 2.98 41 4 C41 3.34 41 2.68 41 2 C40.34 2.33 39.68 2.66 39 3 C36.22839374 3.08683445 33.48225235 3.1155579 30.7109375 3.09765625 C29.48330185 3.09553383 29.48330185 3.09553383 28.23086548 3.09336853 C25.61220675 3.0877629 22.99363296 3.07520948 20.375 3.0625 C18.60156373 3.05748572 16.82812613 3.05292269 15.0546875 3.04882812 C10.70309218 3.03779164 6.3515605 3.02052325 2 3 C2 3.99 2 4.98 2 6 C1.34 6 0.68 6 0 6 C0 7.65 0 9.3 0 11 C-0.33 11 -0.66 11 -1 11 C-1.07622858 7.03611362 -0.9681648 3.8726592 0 0 Z " fill="#3CA63F" transform="translate(173,82)"/>
<path d="M0 0 C1.65 0 3.3 0 5 0 C5 0.66 5 1.32 5 2 C3.35 2.33 1.7 2.66 0 3 C-0.12375 3.598125 -0.2475 4.19625 -0.375 4.8125 C-1 7 -1 7 -3 10 C-3.66 10 -4.32 10 -5 10 C-5.2475 10.5775 -5.495 11.155 -5.75 11.75 C-7.18299988 14.32939979 -8.78424676 16.06121592 -11 18 C-11.66 18 -12.32 18 -13 18 C-12.649375 18.9075 -12.29875 19.815 -11.9375 20.75 C-11.03531221 23.87758436 -10.86618493 25.05208081 -12 28 C-12.66 26.68 -13.32 25.36 -14 24 C-14.66 24 -15.32 24 -16 24 C-15.125 18.25 -15.125 18.25 -14 16 C-13.34 16 -12.68 16 -12 16 C-12 15.34 -12 14.68 -12 14 C-11.34 14 -10.68 14 -10 14 C-9.7525 13.46375 -9.505 12.9275 -9.25 12.375 C-7.69347463 9.4176018 -5.96564327 6.70275949 -4 4 C-3.34 4 -2.68 4 -2 4 C-1.34 2.68 -0.68 1.36 0 0 Z " fill="#DED20A" transform="translate(160,13)"/>
<path d="M0 0 C5.96313166 -0.02464574 11.92623395 -0.042834 17.8894043 -0.05493164 C19.91968298 -0.05997278 21.94995802 -0.06680557 23.98022461 -0.07543945 C26.89177347 -0.08751467 29.8032745 -0.09323034 32.71484375 -0.09765625 C33.6283812 -0.10281754 34.54191864 -0.10797882 35.48313904 -0.11329651 C37.65575427 -0.11349168 39.82827296 -0.06211805 42 0 C43 1 43 1 43.0625 3.5625 C43.041875 4.366875 43.02125 5.17125 43 6 C42.34 6 41.68 6 41 6 C41 8.31 41 10.62 41 13 C40.67 13 40.34 13 40 13 C39.505 8.545 39.505 8.545 39 4 C26.04974543 1.86237785 13.10267582 1.4004545 0 1 C0 0.67 0 0.34 0 0 Z " fill="#1671A3" transform="translate(1,82)"/>
<path d="M0 0 C4.98413853 -0.08049753 8.9071033 0.33100246 13.46484375 2.453125 C14.46484375 3.453125 14.46484375 3.453125 14.5625 5.73828125 C14.55089844 6.65480469 14.53929687 7.57132813 14.52734375 8.515625 C14.51832031 9.43472656 14.50929687 10.35382812 14.5 11.30078125 C14.48839844 12.01105469 14.47679687 12.72132812 14.46484375 13.453125 C14.13484375 13.453125 13.80484375 13.453125 13.46484375 13.453125 C13.00078125 11.8134375 13.00078125 11.8134375 12.52734375 10.140625 C11.88146478 7.89904506 11.20253205 5.6661899 10.46484375 3.453125 C4.52484375 3.948125 4.52484375 3.948125 -1.53515625 4.453125 C-2.19515625 6.103125 -2.85515625 7.753125 -3.53515625 9.453125 C-2.21515625 9.783125 -0.89515625 10.113125 0.46484375 10.453125 C-2.17515625 10.453125 -4.81515625 10.453125 -7.53515625 10.453125 C-6.80368297 5.69854871 -5.16305942 0.92282726 0 0 Z " fill="#DCD413" transform="translate(217.53515625,27.546875)"/>
<path d="M0 0 C2.475 0.99 2.475 0.99 5 2 C5 3.65 5 5.3 5 7 C4.34 7 3.68 7 3 7 C2.855625 7.61875 2.71125 8.2375 2.5625 8.875 C2 11 2 11 1 13 C0.77532169 14.53668865 0.59203195 16.07968054 0.4375 17.625 C0.35371094 18.44226563 0.26992187 19.25953125 0.18359375 20.1015625 C0.12300781 20.72804688 0.06242188 21.35453125 0 22 C2.31 20.68 4.62 19.36 7 18 C6.125 21.875 6.125 21.875 5 23 C2.32941149 23.14115161 -0.32432238 23.04247107 -3 23 C-3.5644718 15.66186666 -1.55327104 9.83911885 1 3 C0.34 3 -0.32 3 -1 3 C-0.67 2.01 -0.34 1.02 0 0 Z " fill="#E8D908" transform="translate(155,46)"/>
<path d="M0 0 C1.67856106 2.65035957 1.39200238 4.80746424 1.1875 7.875 C-1.4525 7.875 -4.0925 7.875 -6.8125 7.875 C-6.8125 7.215 -6.8125 6.555 -6.8125 5.875 C-8.1325 5.215 -9.4525 4.555 -10.8125 3.875 C-10.8125 2.555 -10.8125 1.235 -10.8125 -0.125 C-7.06036024 -1.23674512 -3.48225193 -2.16139775 0 0 Z " fill="#FBEC04" transform="translate(177.8125,4.125)"/>
<path d="M0 0 C12.87 0 25.74 0 39 0 C38.67 0.99 38.34 1.98 38 3 C36.95545654 2.99476318 35.91091309 2.98952637 34.8347168 2.98413086 C30.96021379 2.96603402 27.08571452 2.95455082 23.21118164 2.94506836 C21.53409192 2.94003887 19.85700658 2.93321452 18.17993164 2.92456055 C15.769683 2.91243441 13.35949232 2.90675785 10.94921875 2.90234375 C10.19912033 2.89718246 9.44902191 2.89202118 8.67619324 2.88670349 C5.51048768 2.88636215 3.02662028 2.99112657 0 4 C0 2.68 0 1.36 0 0 Z " fill="#F0E504" transform="translate(132,84)"/>
<path d="M0 0 C3.63 0 7.26 0 11 0 C11 2.64 11 5.28 11 8 C8.69 8 6.38 8 4 8 C3.67 7.01 3.34 6.02 3 5 C1.35 4.67 -0.3 4.34 -2 4 C-1.34 2.68 -0.68 1.36 0 0 Z " fill="#FBEF03" transform="translate(34,32)"/>
<path d="M0 0 C4.75 0.75 4.75 0.75 7 3 C7.125 6.625 7.125 6.625 7 10 C4.36 10 1.72 10 -1 10 C-2.35439668 7.29120665 -2.06501451 4.99066732 -2 2 C-1.34 2 -0.68 2 0 2 C0 1.34 0 0.68 0 0 Z " fill="#FDED06" transform="translate(224,32)"/>
<path d="M0 0 C14.19 0 28.38 0 43 0 C42.67 3.96 42.34 7.92 42 12 C41.67 12 41.34 12 41 12 C41 8.37 41 4.74 41 1 C27.8 1 14.6 1 1 1 C1 3.97 1 6.94 1 10 C0.34 10 -0.32 10 -1 10 C-1.33 10.99 -1.66 11.98 -2 13 C-2 10.69 -2 8.38 -2 6 C-1.34 6 -0.68 6 0 6 C0 4.02 0 2.04 0 0 Z " fill="#B22F44" transform="translate(44,82)"/>
<path d="M0 0 C0.87527344 -0.01417969 1.75054687 -0.02835938 2.65234375 -0.04296875 C5.0625 0.1875 5.0625 0.1875 8.0625 2.1875 C7.01449219 2.27837891 7.01449219 2.27837891 5.9453125 2.37109375 C5.03523438 2.45488281 4.12515625 2.53867187 3.1875 2.625 C2.28257813 2.70621094 1.37765625 2.78742187 0.4453125 2.87109375 C-1.94860861 3.05739285 -1.94860861 3.05739285 -3.9375 4.1875 C-5.07100534 6.20419827 -5.07100534 6.20419827 -5.9375 8.1875 C-4.6175 8.8475 -3.2975 9.5075 -1.9375 10.1875 C-4.9075 10.1875 -7.8775 10.1875 -10.9375 10.1875 C-10.01633719 6.50284877 -9.0313112 4.28634058 -6.9375 1.1875 C-4.47380468 -0.04434766 -2.7480499 0.02017658 0 0 Z " fill="#DDD211" transform="translate(35.9375,27.8125)"/>
<path d="M0 0 C4.875 4.625 4.875 4.625 6 8 C6.66 8 7.32 8 8 8 C8 10.31 8 12.62 8 15 C4.30841192 11.70393922 2.19486162 8.38972324 0 4 C0 2.68 0 1.36 0 0 Z " fill="#E9DD13" transform="translate(160,37)"/>
<path d="M0 0 C0.99 0.33 1.98 0.66 3 1 C2.34 2.32 1.68 3.64 1 5 C-2.34252724 5.07427838 -4.8035914 5.06546953 -8 4 C-8.99 4.66 -9.98 5.32 -11 6 C-9.125 2.125 -9.125 2.125 -8 1 C-6.33382885 0.95936168 -4.66611905 0.957279 -3 1 C-3 1.99 -3 2.98 -3 4 C-2.01 4 -1.02 4 0 4 C0 2.68 0 1.36 0 0 Z " fill="#E7DD11" transform="translate(171,27)"/>
<path d="M0 0 C0.5775 0.804375 1.155 1.60875 1.75 2.4375 C3.98126893 4.97866739 4.74456771 5.65120368 8 6 C7.34 7.65 6.68 9.3 6 11 C0.21293801 5.51752022 0.21293801 5.51752022 -1 2 C-0.67 1.34 -0.34 0.68 0 0 Z " fill="#E3D517" transform="translate(169,16)"/>
<path d="M0 0 C0 0.33 0 0.66 0 1 C-1.15628906 1.05607422 -1.15628906 1.05607422 -2.3359375 1.11328125 C-3.84027344 1.21189453 -3.84027344 1.21189453 -5.375 1.3125 C-6.87160156 1.39951172 -6.87160156 1.39951172 -8.3984375 1.48828125 C-9.25695313 1.65714844 -10.11546875 1.82601562 -11 2 C-11.99 3.485 -11.99 3.485 -13 5 C-11.35 5.33 -9.7 5.66 -8 6 C-11.47823115 7.15941038 -13.45895578 6.70820884 -17 6 C-13.80148165 -2.0804674 -7.78161925 -0.60723618 0 0 Z " fill="#F0E505" transform="translate(45,31)"/>
<path d="M0 0 C0 2.97 0 5.94 0 9 C-0.33 9 -0.66 9 -1 9 C-1.4640625 7.5459375 -1.4640625 7.5459375 -1.9375 6.0625 C-2.69523342 3.15934208 -2.69523342 3.15934208 -4 2 C-5.99958364 1.95919217 -8.00045254 1.95745644 -10 2 C-10 1.34 -10 0.68 -10 0 C-4.5 -2.25 -4.5 -2.25 0 0 Z " fill="#ECDE11" transform="translate(180,2)"/>
<path d="M0 0 C2.97 0 5.94 0 9 0 C9 0.33 9 0.66 9 1 C6.36 1 3.72 1 1 1 C1 3.97 1 6.94 1 10 C0.34 10 -0.32 10 -1 10 C-1.33 10.99 -1.66 11.98 -2 13 C-2 10.69 -2 8.38 -2 6 C-1.34 6 -0.68 6 0 6 C0 4.02 0 2.04 0 0 Z " fill="#A12F47" transform="translate(44,82)"/>
<path d="M0 0 C0.33 0 0.66 0 1 0 C1 1.98 1 3.96 1 6 C3.31 4.68 5.62 3.36 8 2 C7.125 5.875 7.125 5.875 6 7 C3.66702567 7.04092937 1.33294775 7.04241723 -1 7 C-1.04254356 5.00045254 -1.04080783 2.99958364 -1 1 C-0.67 0.67 -0.34 0.34 0 0 Z " fill="#EFDD09" transform="translate(154,62)"/>
<path d="M0 0 C0.99 0 1.98 0 3 0 C3 1.32 3 2.64 3 4 C5.31 4 7.62 4 10 4 C10 4.33 10 4.66 10 5 C6.37 5 2.74 5 -1 5 C-0.67 3.35 -0.34 1.7 0 0 Z " fill="#EADC19" transform="translate(34,38)"/>
<path d="M0 0 C0.33 0 0.66 0 1 0 C1 1.98 1 3.96 1 6 C2.32 6.33 3.64 6.66 5 7 C2.36 7 -0.28 7 -3 7 C-2.38722388 4.03824877 -1.74627478 2.61941217 0 0 Z " fill="#DAD220" transform="translate(213,31)"/>
<path d="M0 0 C2.97 0.495 2.97 0.495 6 1 C6 4.3 6 7.6 6 11 C5.67 11 5.34 11 5 11 C4.690625 9.906875 4.38125 8.81375 4.0625 7.6875 C3.41662103 5.44592006 2.7376883 3.2130649 2 1 C1.34 0.67 0.68 0.34 0 0 Z " fill="#E7D914" transform="translate(226,30)"/>
<path d="M0 0 C2.64 0.33 5.28 0.66 8 1 C8.33 1.99 8.66 2.98 9 4 C6.03 3.67 3.06 3.34 0 3 C0 2.01 0 1.02 0 0 Z " fill="#F0E307" transform="translate(37,39)"/>
<path d="M0 0 C0.66 0 1.32 0 2 0 C2 1.98 2 3.96 2 6 C1.34 6 0.68 6 0 6 C0 7.65 0 9.3 0 11 C-0.33 11 -0.66 11 -1 11 C-1.14285714 3.57142857 -1.14285714 3.57142857 0 0 Z " fill="#55A22A" transform="translate(173,82)"/>
<path d="M0 0 C0.33 0 0.66 0 1 0 C1.21192221 5.19209404 0.5912689 9.126739 -1 14 C-1.33 14 -1.66 14 -2 14 C-2.1799928 8.78020872 -1.97094808 4.92737019 0 0 Z " fill="#DED120" transform="translate(154,55)"/>
<path d="M0 0 C0.99 0 1.98 0 3 0 C3 0.66 3 1.32 3 2 C6.3 2 9.6 2 13 2 C13 2.33 13 2.66 13 3 C8.71 3 4.42 3 0 3 C0 2.01 0 1.02 0 0 Z " fill="#E1DA18" transform="translate(218,40)"/>
<path d="M0 0 C3 1 3 1 5 4 C4.625 6.1875 4.625 6.1875 4 8 C3.34 6.68 2.68 5.36 2 4 C1.34 4 0.68 4 0 4 C0 2.68 0 1.36 0 0 Z " fill="#E2DB12" transform="translate(144,33)"/>
<path d="M0 0 C0.33 0 0.66 0 1 0 C2.125 6.625 2.125 6.625 1 10 C0.34 10 -0.32 10 -1 10 C-0.67 6.7 -0.34 3.4 0 0 Z " fill="#DBCC22" transform="translate(130,83)"/>
</svg>
