<svg width="524" height="95" viewBox="0 0 524 95" fill="none" xmlns="http://www.w3.org/2000/svg">
<g clip-path="url(#clip0_3311_6)">
<g opacity="0.184314">
<path d="M16 0H18V1H18.25H27.75H28V1.25V9.75V10H27V11H28V11.25V21.75V22H27V24H28V24.25V34.75V35H27.75H20.25H20V36H20.25H24.75H25V37H24.75H20.25H20V38H19.75H6.25H6V37H5.75H2.25H2V38H1V38.25V52.75V53H2V54H1V54.25V58.75V59H1.25H26.75H27V58.75V50.25V50H26V49H25.75H17.25H17V50H16.75H6.25H6V49H5.75H2.25H2V48H4V47H4.25H13.75H14V46H16V47H17V46H17.25H26.75H27V45.75V37.25V37H28V37.25V45.75V46H27V47H25V48H27V49H28V49.25V58.75V59H27V60H28V62H29V63H28V63.25V78.75V79H29V81H28V83H27V84H28V85H29V85.25V92.75V93H28V94H27.75H4.25H4V95H2V94H1V93.75V90.25V90H0V89.75V85.25V85H1V84H0V83.75V74.25V74H1V72H0V71.75V62.25V62H1V60H0V59.75V38.25V38H1V36H0V35.75V2.25V2H1V1H1.25H15.75H16V0ZM1 2V2.5V10H1.5H13V9H13.5H27V2.5C27 2.16667 27 2 27 2H1.5H1ZM15 10V11H17V10H15ZM18 10V11H17V12H6.5H6V11H2.5H2V12H1V12.5V22H1.5H13V21H13.5H16V22H16.5H19V21H19.5H27V11.5V11H23.5H23V12H19.5H19V11H20V10H18ZM20 22V23H20.5H26V22H20.5H20ZM1 24V24.5V35H1.5H19V34H19.5H27V24.5V24H1.5H1ZM6 36V37H6.5H20V36H6.5H6ZM7 48V49H8V48H7ZM10 48V49H10.5H16V48H10.5H10ZM2 61V62H1V62.5V67H2V68H1V68.5V71H2V72H2.5H5V71H5.5H27V63.5V63H28V62H27V61H2.5H2ZM2 73V74H1V74.5V83H2V84H2.5H6V83H6.5H25V82H27V81H28V79H27V73.5V73H22.5H22V74H20V73H18V74H4.5H4V73H2ZM6 84V85H6.5H23V84H6.5H6ZM23 85V86H1.5H1V86.5V90H2V90.5V94H3V93H3.5H28V86.5V86H27V85H23.5H23Z" fill="white"/>
<path d="M27 11V10H28V9.75V1.25V1H27.75H18.25H18V0H16V1H15.75H1.25H1V2M27 11H28V11.25V21.75V22H27V24M27 11V11.5V21H19.5H19V22H16.5H16V21H13.5H13V22H1.5H1V12.5V12H2V11H2.5H6V12H6.5H17V11M27 11H23.5H23V12H19.5H19V11H20V10H18V11H17M27 24H28V24.25V34.75V35H27.75H20.25H20V36M27 24V24.5V34H19.5H19V35H1.5H1V24.5V24H1.5H27ZM20 36H20.25H24.75H25V37H24.75H20.25H20M20 36V37M20 36H6.5H6V37M20 37V38H19.75H6.25H6V37M20 37H6.5H6M6 37H5.75H2.25H2V38H1M1 38V38.25V52.75V53H2V54H1V54.25V58.75V59H1.25H26.75H27M1 38H0V38.25V59.75V60H1V62M1 38V36H0V35.75V2.25V2H1M27 59V58.75V50.25V50H26V49H25.75H17.25H17V50H16.75H6.25H6V49H5.75H2.25H2V48H4V47H4.25H13.75H14V46H16V47H17V46H17.25H26.75H27M27 59H28V58.75V49.25V49H27V48H25V47H27V46M27 59V60H28V62M27 46V45.75V37.25V37H28V37.25V45.75V46H27ZM28 62H29V63H28M28 62V63M28 62H27V61H2.5H2V62H1M28 63V63.25V78.75V79M28 63H27V63.5V71H5.5H5V72H2.5H2V71H1V68.5V68H2V67H1V62.5V62M28 79H29V81H28M28 79V81M28 79H27V73.5V73H22.5H22V74H20V73H18V74H4.5H4V73H2V74H1M28 81V83H27V84H28V85H29V85.25V92.75V93H28M28 81H27V82H25V83H6.5H6V84M28 93V94H27.75H4.25H4V95H2V94M28 93H3.5H3V94H2M28 93V86.5V86H27V85H23.5H23M2 94H1V93.75V90.25V90M2 94V90.5V90H1M1 90H0V89.75V85.25V85H1V84H0V83.75V74.25V74H1M1 90V86.5V86H1.5H23V85M1 74V72H0V71.75V62.25V62H1M1 74V74.5V83H2V84H2.5H6M1 2V2.5V10H1.5H13V9H13.5H27V2.5C27 2.16667 27 2 27 2H1.5H1ZM17 11H15V10H17V11ZM6 84V85H6.5H23M6 84H6.5H23V85M20 22V23H20.5H26V22H20.5H20ZM7 48V49H8V48H7ZM10 48V49H10.5H16V48H10.5H10Z" stroke="white"/>
</g>
<g opacity="0.184314">
<path d="M48 0H48.25H56.75C57 -0.0833333 57.0833 0 57 0.25V51.75V52H58V54H57V55H58V56H57V58H58V59H57V61H58V61.25V66.75V67H57V69H56V70H55.75H46.25H46V69.75V30.25V30H45V29.75V14.25V14H44V13.75V3.25V3H43V3.25V42.75V43H44V45H43V47H44V47.25V68.75V69H45V70H44.75H42.25H42V71H41V70H40.75H35.25H35V71H34.75H32.25H32V70H31V69.75V21.25V21H30V19H31V18.75V14.25V14H30V13.75V1.25V1H30.25H42.75H43V2H45V1H45.25H47.75H48V0ZM49 1V2H46.5H46V3H45V3.5V14H46V14.5V30H47V30.5V69H47.5H55V68H56V67H57V61.5V61H56V54.5V54H57V53H56V2.5C56 2.16667 56 2 56 2H52.5H52V1H49.5H49ZM31 2V2.5V12H32V12.5V69H33V70H34V69H34.5H43V48.5V48H42V2.5C42 2.16667 42 2 42 2H31.5H31Z" fill="white"/>
<path d="M57 54H58V52H57V51.75V0.25C57.0833 0 57 -0.0833333 56.75 0H48.25H48V1H47.75H45.25H45V2H43V1H42.75H30.25H30V1.25V13.75V14H31V14.25V18.75V19H30V21H31V21.25V69.75V70H32V71H32.25H34.75H35V70H35.25H40.75H41V71H42V70H42.25H44.75H45V69H44V68.75V47.25V47H43V45H44V43H43V42.75V3.25V3H44V3.25V13.75V14H45M57 54V55H58V56H57V58H58V59H57V61M57 54H56V54.5V61H57M57 54V53H56V2.5C56 2.16667 56 2 56 2H52.5H52V1H49.5H49V2H46.5H46V3H45V3.5V14M57 61H58V61.25V66.75V67H57M57 61V61.5V67M57 67V69H56V70H55.75H46.25H46V69.75V30.25V30M57 67H56V68H55V69H47.5H47V30.5V30H46M46 30H45V29.75V14.25V14M46 30V14.5V14H45M31 2V2.5V12H32V12.5V69H33V70H34V69H34.5H43V48.5V48H42V2.5C42 2.16667 42 2 42 2H31.5H31Z" stroke="white"/>
</g>
<g opacity="0.184314">
<path d="M59 0H59.25H84.75H85V1H86V0H86.25H94.75H95V1C95.25 1 95.8333 1 96.75 1C97 0.916667 97.0833 1 97 1.25V10.75V11H96V11.25V13.75V14H97V15H96V15.25V35.75V36H95V35.75V11.25V11H96V10.75V2.25V2H95V1H94.75H87.25H87V2H86.75H84.25H84V1H83.75H74.25H74V2H73V2.25V63.75V64H74V64.25V68.75V69H74.25H82.75H83V68.75V55.25V55H84V54.75V36.25V36H83V34H84V33.75V7.25V7H85V6H84V4H85V3H86V3.25V6.75V7H85V7.25V9.75V10H86V11H85V11.25V13.75V14H86C86 14.25 86 14.8333 86 15.75V16H87V18H86V16H85V16.25V33.75V34H84V35H85V35.25V55.75V56H84V56.25V69.75V70H83.75H73.25H73V69.75V65.25V65H72V65.25V67.75V68H71V70H70.75H61.25H61V69C60.75 69 60.1667 69 59.25 69C59 69.0833 58.9167 69 59 68.75V14.25V14H58V13.75V1.25V1H59V0ZM60 1V2H59V2.5V6H60V7H59V9H60V9.5V68C60 68 60.1667 68 60.5 68H63V69H63.5H70V68H71V45.5V45H70V36.5V36H71V35H70V2.5C70 2.16667 70 2 70 2H64.5H64V1H60.5H60ZM71 1V1.5V35H72V1.5V1H71ZM71 37V37.5V43H72V37.5V37H71Z" fill="white"/>
<path d="M95 1V0H94.75H86.25H86V1H85V0H84.75H59.25H59V1H58V1.25V13.75V14H59V14.25V68.75C58.9167 69 59 69.0833 59.25 69C60.1667 69 60.75 69 61 69V70H61.25H70.75H71V68M95 1C95.25 1 95.8333 1 96.75 1C97 0.916667 97.0833 1 97 1.25V10.75V11H96M95 1V2H96V2.25V10.75V11M95 1H94.75H87.25H87V2H86.75H84.25H84V1H83.75H74.25H74V2H73V2.25V63.75V64H74V64.25V68.75V69H74.25H82.75H83V68.75V55.25V55H84V54.75V36.25V36H83V34H84M96 11V11.25V13.75V14H97V15H96V15.25V35.75V36H95V35.75V11.25V11H96ZM84 34V33.75V7.25V7H85M84 34H85V33.75V16.25V16H86M84 34V35H85V35.25V55.75V56H84V56.25V69.75V70H83.75H73.25H73V69.75V65.25V65H72V65.25V67.75V68H71M85 7V6H84V4H85V3H86V3.25V6.75V7H85ZM85 7V7.25V9.75V10H86V11H85V11.25V13.75V14H86C86 14.25 86 14.8333 86 15.75V16M86 16H87V18H86V16ZM71 68H70V69H63.5H63V68H60.5C60.1667 68 60 68 60 68V9.5V9H59V7H60V6H59V2.5V2H60V1H60.5H64V2H64.5H70C70 2 70 2.16667 70 2.5V35H71M71 68V45.5V45H70V36.5V36H71V35M71 35V1.5V1H72V1.5V35H71ZM71 37V37.5V43H72V37.5V37H71Z" stroke="white"/>
</g>
<path opacity="0.184314" d="M223 15H225V16H223V15Z" fill="white" stroke="white"/>
<g opacity="0.184314">
<path d="M445 15H445.25H452.75H453V16H454V16.25V35.75V36H455V35H457V34H458V33H458.25H460.75H461V32H461.25H470.75H471V33H471.25H473.75H474V34C474.25 34 474.833 34 475.75 34H476V35H478V37H479V38H480V39H481V40H482V42H483V44H484V44.25V46.75V47H485V47.25V59.75V60H484V60.25V62.75V63H483C483 63.25 483 63.8333 483 64.75V65H482V67H481V68H480V69H479V70H478V71H477V72H475V73H473V74H472.75H469.25H469V75H468.75H463.25H463V74H462.75H459.25H459V73H457V72H455V71H454V73H453V74H452.75H444.25H444V73.75V16.25V16H445V15ZM445 16V16.5V73H445.5H452V72H453V68.5V68H454V69H455V70H456V71H457V72H459V73H459.5H463V74H463.5H469V73H469.5H473V72H475V71H477V70H478V69H479V68H480V66H481V65H482V62.5V62H483V59.5V59H484V48.5V48H483V44.5V44H482V42H481V41H480V39H479V38H478V37H477V36H476V35H474V34H471.5H471V33H461.5H461V34H459V35H457V36H456V37H455V38C454.667 38 454.167 38 453.5 38C453.167 38 453 38 453 38V16.5V16H445.5H445Z" fill="white"/>
<path d="M453 16V15H452.75H445.25H445V16M453 16H454V16.25V35.75V36H455V35H457M453 16V16.5V38C453 38 453.167 38 453.5 38C454.167 38 454.667 38 455 38V37H456V36H457V35M453 16H445.5H445M457 35V34H458V33H458.25H460.75H461M457 35H459V34H461V33M461 33V32H461.25H470.75H471V33M461 33H461.5H471M471 33H471.25H473.75H474V34M471 33V34H471.5H474M474 34C474.25 34 474.833 34 475.75 34H476V35M474 34V35H476M476 35H478V37M476 35V36H477V37H478M478 37H479V38M478 37V38H479M479 38H480V39M479 38V39H480M480 39H481V40H482V42M480 39V41H481V42H482M482 42H483V44M482 42V44H483M483 44H484V44.25V46.75V47H485V47.25V59.75V60H484V60.25V62.75V63H483C483 63.25 483 63.8333 483 64.75V65H482M483 44V44.5V48H484V48.5V59H483V59.5V62H482V62.5V65M482 65V67H481V68H480M482 65H481V66H480V68M480 68V69H479M480 68H479V69M479 69V70H478M479 69H478V70M478 70V71H477M478 70H477V71M477 71V72H475M477 71H475V72M475 72V73H473M475 72H473V73M473 73V74H472.75H469.25H469M473 73H469.5H469V74M469 74V75H468.75H463.25H463V74M469 74H463.5H463M463 74H462.75H459.25H459V73M463 74V73H459.5H459M459 73H457V72M459 73V72H457M457 72H455V71H454V73H453V74H452.75H444.25H444V73.75V16.25V16H445M457 72V71H456V70H455V69H454V68H453V68.5V72H452V73H445.5H445V16.5V16" stroke="white"/>
</g>
<g opacity="0.184314">
<path d="M218 16H218.25H221.75H222V17H221.75H218.25H218V18H216V19H215V20H214V21H213V21.25V23.75V24H212V24.25V32.75V33H211V34H210.75H205.25H205V34.25V40.75V41H205.25H211.75C212 40.9167 212.083 41 212 41.25V72.75V73H212.25H219.75H220V72.75V41.25V41H220.25H235.75H236V41.25V66.75V67H237V69H238V70H239V71H240V72H240.25H242.75H243V73H243.25H250.75H251V72H252V71.75V65.25V65H251V64H252V65H253V65.25V72.75V73H252V74H251.75H242.25H242V73H240V72H238V71H237V69H236V67H235V66.75V42.25V42H234.75H221.25H221V42.25V73.75C221.083 74 221 74.0833 220.75 74H211.25H211V73.75V42.25C211.083 42 211 41.9167 210.75 42H205.25H205V41H204V40.75V34.25V34H205V33H205.25H210.75H211V32.75V23.25V23H212V21H213V20H214V18H216V17H218V16Z" fill="white"/>
<path d="M218 17H218.25H221.75H222V16H221.75H218.25H218V17ZM218 17V18H216M218 17H216V18M216 18V19H215V20H214M216 18H214V20M214 20V21H213M214 20H213V21M213 21V21.25V23.75V24H212V24.25V32.75V33H211M213 21H212V23H211V23.25V32.75V33M211 33V34H210.75H205.25H205M211 33H210.75H205.25H205V34M205 34V34.25V40.75V41M205 34H204V34.25V40.75V41H205M205 41H205.25H211.75C212 40.9167 212.083 41 212 41.25V72.75V73H212.25H219.75H220V72.75V41.25V41H220.25H235.75H236V41.25V66.75V67M205 41V42H205.25H210.75C211 41.9167 211.083 42 211 42.25V73.75V74H211.25H220.75C221 74.0833 221.083 74 221 73.75V42.25V42H221.25H234.75H235V42.25V66.75V67H236M236 67H237V69M236 67V69H237M237 69H238V70H239V71H240V72M237 69V71H238V72H240M240 72H240.25H242.75H243V73H243.25H250.75H251V72H252V71.75V65.25V65M240 72V73H242V74H242.25H251.75H252V73H253V72.75V65.25V65H252M252 65H251V64H252V65Z" stroke="white"/>
</g>
<g opacity="0.184314">
<path d="M226 16C226.25 16 226.833 16 227.75 16C228 15.9167 228.083 16 228 16.25V24.75V25H227.75H224.25H224V26H222V28H221V28.25V32.75V33H221.25H234.75H235V32.75V23.25V23H235.25H244.75H245V24H246V24.25V32.75V33H246.25H252.75H253V33.25V40.75V41H252V42H251.75H246.25C246 41.9167 245.917 42 246 42.25V63.75V64H248V65H246V64H245V63.75V41.25V41H245.25H251.75H252V40.75V34.25V34H251.75H245.25H245V33.75V24.25V24H244.75H236.25H236V24.25V33.75V34H235.75H221.25H221V33H220V32.75V28.25V28H221V26H222V25H223V24H223.25H226.75H227V23.75V17.25V17H226V16Z" fill="white"/>
<path d="M222 26H224V25H224.25H227.75H228V24.75V16.25C228.083 16 228 15.9167 227.75 16C226.833 16 226.25 16 226 16V17H227V17.25V23.75V24H226.75H223.25H223V25H222V26ZM222 26V28H221M222 26H221V28M221 28V28.25V32.75V33M221 28H220V28.25V32.75V33H221M221 33H221.25H234.75H235V32.75V23.25V23H235.25H244.75H245V24M221 33V34H221.25H235.75H236V33.75V24.25V24H236.25H244.75H245M245 24H246V24.25V32.75V33H246.25H252.75H253V33.25V40.75V41H252M245 24V24.25V33.75V34H245.25H251.75H252V34.25V40.75V41M252 41V42H251.75H246.25C246 41.9167 245.917 42 246 42.25V63.75V64M252 41H251.75H245.25H245V41.25V63.75V64H246M246 64H248V65H246V64Z" stroke="white"/>
</g>
<g opacity="0.184314">
<path d="M122 18H122.25H131.75H132V19H133V19.25V63.75V64H133.25H157.75H158V64.25V72.75V73H157V74H156.75H122.25H122V73.75V18.25V18ZM123 19V19.5V73H123.5H157V65.5V65H133.5H133V64H132V20.5V20H131V19H123.5H123Z" fill="white"/>
<path d="M133 64V63.75V19.25V19H132V18H131.75H122.25H122V18.25V73.75V74H122.25H156.75H157V73M133 64H133.25H157.75H158V64.25V72.75V73H157M133 64V65H133.5H157V65.5V73M133 64H132V20.5V20H131V19H123.5H123V19.5V73H123.5H157" stroke="white"/>
</g>
<g opacity="0.184314">
<path d="M360 18H360.25H369.75C370 17.9167 370.083 18 370 18.25V63.75V64H370.25H394.75H395V64.25V73.75V74H394.75H359.25H359V73.75V19.25V19H360V18ZM361 19V20H360V20.5V72H361V73H361.5H394V65.5V65H370.5H370V64H369V19.5C369 19.1667 369 19 369 19H361.5H361Z" fill="white"/>
<path d="M370 64V63.75V18.25C370.083 18 370 17.9167 369.75 18H360.25H360V19H359V19.25V73.75V74H359.25H394.75H395V73.75V64.25V64H394.75H370.25H370ZM370 64V65H370.5H394V65.5V73H361.5H361V72H360V20.5V20H361V19H361.5H369C369 19 369 19.1667 369 19.5V64H370Z" stroke="white"/>
</g>
<path opacity="0.184314" d="M86 19H87V19.25V68.75V69H88V70C87.75 70 87.1667 70 86.25 70C86 70.0833 85.9167 70 86 69.75V19.25V19Z" fill="white" stroke="white"/>
<g opacity="0.184314">
<path d="M175 32H175.25H186.75H187V33H187.25H189.75H190V34H191V35C191.25 35 191.833 35 192.75 35H193V36H195V37H196V38H197V39H198V40H199V42H200V44H201V44.25V46.75V47H202V47.25V59.75V60H201V60.25V62.75V63H200V65H199V66H198V67H197V69H196V70H194V71H193V72H191V73H189V74H188.75H184.25H184V75H183.75H178.25H178V74H177.75H173.25H173V73H171V72H169V71H168V70H167V69H166V68H165V67H164V66H163V64H162V62H161V61.75V59.25V59H160V58.75V48.25V48H161V47.75V45.25V45H162V43H163C163 42.75 163 42.1667 163 41.25V41H164V39H165V38H166V37H168V36H169V35H171V34C171.25 34 171.833 34 172.75 34H173V33H175V32ZM176 33V34H173.5H173V35H171V36H169V37H168V38H167V39H166V40H165V41H164V43H163V43.5C163 44.1667 163 44.6667 163 45H162V45.5V48H161V48.5V59H162V59.5V62H163V64H164V65H165V67H166V68H167V69H168V70H170V71H171V72H171.5H174V73H174.5H178V74H178.5H184V73H184.5H188V72H188.5H191V71H193V70H194V69H195V68H196V67H197V66H198C198 65.6667 198 65.1667 198 64.5V64H199V62H200V60H201V47.5V47H200V44.5V44H199V42H198V41H197V40H196V39H195V38H194V37H193V36H191V35C190 35 189.333 35 189 35V34H186.5H186V33H176.5H176Z" fill="white"/>
<path d="M191 35V34H190V33H189.75H187.25H187V32H186.75H175.25H175V33H173V34M191 35C191.25 35 191.833 35 192.75 35H193V36M191 35V36H193M191 35C190 35 189.333 35 189 35V34H186.5H186V33H176.5H176V34H173.5H173M193 36H195V37H196V38H197V39H198V40H199V42M193 36V37H194V38H195V39H196V40H197V41H198V42H199M199 42H200V44M199 42V44H200M200 44H201V44.25V46.75V47M200 44V44.5V47H201M201 47H202V47.25V59.75V60H201M201 47V47.5V60M201 60V60.25V62.75V63H200V65H199V66H198M201 60H200V62H199V64H198V64.5C198 65.1667 198 65.6667 198 66M198 66V67H197M198 66H197V67M197 67V69H196V70H194M197 67H196V68H195V69H194V70M194 70V71H193M194 70H193V71M193 71V72H191M193 71H191V72M191 72V73H189V74H188.75H184.25H184M191 72H188.5H188V73H184.5H184V74M184 74V75H183.75H178.25H178V74M184 74H178.5H178M178 74H177.75H173.25H173V73H171V72M178 74V73H174.5H174V72H171.5H171M171 72H169V71H168V70M171 72V71H170V70H168M168 70H167V69M168 70V69H167M167 69H166V68M167 69V68H166M166 68H165V67M166 68V67H165M165 67H164V66H163V64M165 67V65H164V64H163M163 64H162V62M163 64V62H162M162 62H161V61.75V59.25V59M162 62V59.5V59H161M161 59H160V58.75V48.25V48H161M161 59V48.5V48M161 48V47.75V45.25V45H162M161 48H162V45.5V45M162 45V43H163M162 45H163C163 44.6667 163 44.1667 163 43.5V43M163 43C163 42.75 163 42.1667 163 41.25V41H164M163 43H164V41M164 41V39H165V38H166V37H168M164 41H165V40H166V39H167V38H168V37M168 37V36H169M168 37H169V36M169 36V35H171M169 36H171V35M171 35V34C171.25 34 171.833 34 172.75 34H173M171 35H173V34" stroke="white"/>
</g>
<g opacity="0.184314">
<path d="M313 32H313.25H324.75H325V33H327V34H329V35H330V36H331V37H332V38H333V39H334V39.25V41.75V42H335V42.25V45.75V46H334V45.75V42.25V42H333V40H332V38H331V37H330V36H329V35H327V34H326.75H324.25H324V33H323.75H314.25H314V34H313.75H311.25H311V35H309V36H308V37H307V38H306V39H305V41H304V41.25V49.75V50H305V52H306V53H307V54H309V55H309.25H311.75H312V56H312.25H315.75H316V57H316.25H319.75H320V58H320.25H323.75H324V59H325V60H326V60.25V63.75V64H325V65H324V66H323.75H321.25H321V67H320.75H317.25H317V66H316.75H314.25H314V65H314.25H317.75H318V66H318.25H320.75H321V65H321.25H323.75H324V64H325V63.75V60.25V60H323V59H322.75H320.25H320V58H319.75H315.25H315V57H314.75H312.25H312V56H311.75H309.25H309V55H307V54H306V53H305V52H304V50H303V49.75V41.25V41H304V40.75V38.25V38H305V37H306V36H307V35H309V34H311V33H313V32Z" fill="white"/>
<path d="M327 34V33H325V32H324.75H313.25H313V33H311V34M327 34H329V35M327 34V35H329M327 34H326.75H324.25H324V33H323.75H314.25H314V34H313.75H311.25H311M329 35H330V36M329 35V36H330M330 36H331V37M330 36V37H331M331 37H332V38M331 37V38H332M332 38H333V39H334V39.25V41.75V42M332 38V40H333V42H334M334 42H335V42.25V45.75V46H334V45.75V42.25V42ZM311 34V35H309M311 34H309V35M309 35V36H308V37H307V38H306V39H305V41H304M309 35H307V36H306V37H305V38H304V38.25V40.75V41M304 41V41.25V49.75V50M304 41H303V41.25V49.75V50H304M304 50H305V52M304 50V52H305M305 52H306V53M305 52V53H306M306 53H307V54M306 53V54H307M307 54H309V55M307 54V55H309M309 55H309.25H311.75H312V56M309 55V56H309.25H311.75H312M312 56H312.25H315.75H316V57H316.25H319.75H320V58M312 56V57H312.25H314.75H315V58H315.25H319.75H320M320 58H320.25H323.75H324V59H325V60M320 58V59H320.25H322.75H323V60H325M325 60H326V60.25V63.75V64H325M325 60V60.25V63.75V64M325 64V65H324M325 64H324V65M324 65V66H323.75H321.25H321M324 65H323.75H321.25H321V66M321 66V67H320.75H317.25H317V66H316.75H314.25H314V65H314.25H317.75H318V66H318.25H320.75H321Z" stroke="white"/>
</g>
<g opacity="0.184314">
<path d="M410 32H410.25H422.75H423V33H423.25H425.75H426V34H428V35H429V36H431V38H432V39H433V41H434V41.25V45.75V46H435V46.25V71.75V72H436V73H435V74H434.75H426.25H426V73H425V71H424V72H422V73H420V74H419.75H416.25H416V73H416.25H419.75H420V72H422V71H423V70H424V69H426V69.25V72.75V73H426.25H433.75H434V72.75V47.25V47H433V46.75V41.25V41H432V39H431V38H430V37H429V36H428V35H426V34H425.75H422.25H422V33H421.75H411.25H411V34H410.75H408.25H408V35H406V36H405V37H403V38H402V40H401V42H400V42.25V45.75V46H400.25H407.75C408 46.0833 408.083 46 408 45.75C408 44.8333 408 44.25 408 44H409V43H410V42H411V41H413V40H413.25H419.75H420V41H422V42H423V43H424V44H425V44.25V47.75V48H423V49H422.75H416.25H416V50H415.75H410.25H410V51H409.75H407.25H407V50H407.25H409.75H410V49H410.25H415.75H416V48H416.25H422.75H423V47H424V46.75V44.25V44H423V43H422V42H421.75H419.25H419V41H418.75H414.25H414V42H413.75H411.25H411V43H410C410 43.25 410 43.8333 410 44.75V45H409V47H408.75H399.25H399V46.75V42.25V42H400V40H401V38H402V37H403V36H404V35H406V34H408V33H410V32Z" fill="white"/>
<path d="M426 34V33H425.75H423.25H423V32H422.75H410.25H410V33H408V34M426 34H428V35M426 34V35H428M426 34H425.75H422.25H422V33H421.75H411.25H411V34H410.75H408.25H408M428 35H429V36M428 35V36H429M429 36H431V38M429 36V37H430V38H431M431 38H432V39M431 38V39H432M432 39H433V41M432 39V41H433M433 41H434V41.25V45.75V46H435V46.25V71.75V72H436V73H435V74H434.75H426.25H426V73M433 41V41.25V46.75V47H434V47.25V72.75V73H433.75H426.25H426M426 73H425V71H424V72H422M426 73V72.75V69.25V69H424V70H423V71H422V72M422 72V73H420M422 72H420V73M420 73V74H419.75H416.25H416V73H416.25H419.75H420ZM408 34V35H406M408 34H406V35M406 35V36H405V37H403M406 35H404V36H403V37M403 37V38H402M403 37H402V38M402 38V40H401M402 38H401V40M401 40V42H400M401 40H400V42M400 42V42.25V45.75V46H400.25H407.75C408 46.0833 408.083 46 408 45.75C408 44.8333 408 44.25 408 44H409V43H410M400 42H399V42.25V46.75V47H399.25H408.75H409V45H410V44.75C410 43.8333 410 43.25 410 43M410 43V42H411M410 43H411V42M411 42V41H413V40H413.25H419.75H420V41H422V42M411 42H411.25H413.75H414V41H414.25H418.75H419V42H419.25H421.75H422M422 42H423V43M422 42V43H423M423 43H424V44M423 43V44H424M424 44H425V44.25V47.75V48H423M424 44V44.25V46.75V47H423V48M423 48V49H422.75H416.25H416M423 48H422.75H416.25H416V49M416 49V50H415.75H410.25H410M416 49H415.75H410.25H410V50M410 50V51H409.75H407.25H407V50H407.25H409.75H410Z" stroke="white"/>
</g>
<g opacity="0.184314">
<path d="M501 32H501.25H512.75H513V33H515V34H517V35H518V36H519V37H520V38H521V39H522V39.25V41.75V42H523V42.25V45.75V46H522V45.75V42.25V42H521V40H520V38H519V37H518V36H516V35H515V34H514.75H512.25H512V33H511.75H502.25H502V34H501.75H499.25H499V35H497V36H496V37H495V38H494V39H493V41H492V41.25V44.75V45H491V46H492V46.25V49.75V50H493V52H494V53H495V54H497V55H497.25H499.75H500V56H500.25H503.75H504V57H504.25H507.75H508V58H508.25H511.75H512V59H513V60H514V60.25V63.75V64H513V65H512V66H511.75H509.25H509V67H508.75H505.25H505V66H504.75H501.25H501V65H500V64H499V62H498V61H497.75H490.25H490V61.25V64.75V65H491V67H492V68H493V69H494V70H495V71H496V72H498V73H498.25H501.75H502V74H501.75H498.25H498V73C497.75 73 497.167 73 496.25 73H496V72H494V71H493V70H492V69H491V67H490V65H489V64.75V60.25V60H489.25H498.75C499 59.9167 499.083 60 499 60.25C499 61.1667 499 61.75 499 62H500V63H501V65H501.25H504.75H505V66H505.25H507.75H508V65H508.25H511.75H512V64H513V63.75V60.25V60H511V59H510.75H508.25H508V58H507.75H503.25H503V57H502.75H500.25H500V56H499.75H497.25H497V55H495V54H494V53H493V52H492V50H491V49.75V46.25V46H490V45H491V44.75V40.25V40H492V38H493V37H494V36H495V35H497V34H499V33H501V32Z" fill="white"/>
<path d="M515 34V33H513V32H512.75H501.25H501V33H499V34M515 34H517V35H518V36M515 34V35H516V36H518M515 34H514.75H512.25H512V33H511.75H502.25H502V34H501.75H499.25H499M518 36H519V37M518 36V37H519M519 37H520V38M519 37V38H520M520 38H521V39H522V39.25V41.75V42M520 38V40H521V42H522M522 42H523V42.25V45.75V46H522V45.75V42.25V42ZM499 34V35H497M499 34H497V35M497 35V36H496V37H495V38H494V39H493V41H492V41.25V44.75V45H491M497 35H495V36H494V37H493V38H492V40H491V40.25V44.75V45M491 45V46M491 45H490V46H491M491 46H492V46.25V49.75V50M491 46V46.25V49.75V50H492M492 50H493V52M492 50V52H493M493 52H494V53M493 52V53H494M494 53H495V54M494 53V54H495M495 54H497V55M495 54V55H497M497 55H497.25H499.75H500V56M497 55V56H497.25H499.75H500M500 56H500.25H503.75H504V57H504.25H507.75H508V58M500 56V57H500.25H502.75H503V58H503.25H507.75H508M508 58H508.25H511.75H512V59H513V60M508 58V59H508.25H510.75H511V60H513M513 60H514V60.25V63.75V64H513M513 60V60.25V63.75V64M513 64V65H512M513 64H512V65M512 65V66H511.75H509.25H509V67H508.75H505.25H505V66M512 65H511.75H508.25H508V66H507.75H505.25H505M505 66H504.75H501.25H501V65M505 66V65H504.75H501.25H501M501 65H500V64H499V62M501 65V63H500V62H499M499 62H498V61H497.75H490.25H490V61.25V64.75V65M499 62C499 61.75 499 61.1667 499 60.25C499.083 60 499 59.9167 498.75 60H489.25H489V60.25V64.75V65H490M490 65H491V67M490 65V67H491M491 67H492V68H493V69H494V70H495V71H496V72M491 67V69H492V70H493V71H494V72H496M496 72H498V73M496 72V73H496.25C497.167 73 497.75 73 498 73M498 73H498.25H501.75H502V74H501.75H498.25H498V73Z" stroke="white"/>
</g>
<g opacity="0.184314">
<path d="M258 33H258.25H268.75H269V33.25V61.75V62H270V63H271V64H272V65H272.25H279.75H280V64H281V63H282V62H283V61.75V58.25V58H284V57.75V33.25V33H284.25H293.75H294V34H295V34.25V72.75V73H294V74H293.75H285.25H285V73.75V71.25V71H284V72H282V73H280V74H279.75H276.25H276V75H275.75H270.25H270V74H269.75H266.25H266V73H265V72H263V71H262V70H261V68H260V66H259V65.75V63.25V63H258V62.75V33.25V33ZM259 34V34.5V63H260V63.5V66H261V68H262V69H263V70H264V71H265V72H267V73H267.5H270V74H270.5H276V73H276.5H280V72H282V71H283V70H284V69H285V70H286V70.5V73H286.5H293V72H294V68.5V68H293V62.5V62H294V51.5V51H293V49H294V47H293V46H294V35.5V35H293V34H285.5H285V34.5V59H284V59.5V62H283V64H282V65H280V66H272.5H272V65H270V64H269V62H268V34.5V34H259.5H259Z" fill="white"/>
<path d="M269 62V61.75V33.25V33H268.75H258.25H258V33.25V62.75V63H259M269 62H270V63H271V64H272V65M269 62V64H270V65H272M269 62H268V34.5V34H259.5H259V34.5V63M272 65H272.25H279.75H280M272 65V66H272.5H280V65M280 65V64H281V63H282V62H283M280 65H282V64H283V62M283 62V61.75V58.25V58H284V57.75V33.25V33H284.25H293.75H294V34H295V34.25V72.75V73H294V74H293.75H285.25H285V73.75V71.25V71H284V72H282M283 62H284V59.5V59H285V34.5V34H285.5H293V35H294V35.5V46H293V47H294V49H293V51H294V51.5V62H293V62.5V68H294V68.5V72H293V73H286.5H286V70.5V70H285V69H284V70H283V71H282V72M282 72V73H280M282 72H280V73M280 73V74H279.75H276.25H276M280 73H276.5H276V74M276 74V75H275.75H270.25H270V74M276 74H270.5H270M270 74H269.75H266.25H266V73H265V72M270 74V73H267.5H267V72H265M265 72H263V71H262V70H261V68M265 72V71H264V70H263V69H262V68H261M261 68H260V66M261 68V66H260M260 66H259V65.75V63.25V63M260 66V63.5V63H259" stroke="white"/>
</g>
<path opacity="0.184314" d="M95 39H96V41H95V39Z" fill="white" stroke="white"/>
<g opacity="0.184314">
<path d="M315 40H315.25H321.75H322V41H324V42H325V44H326V46H325V45H324V43H323V42H321V41H320.75H316.25H316V42H314V43H313V43.25V45.75V46H314V47H316V48H316.25H319.75H320V49H320.25H323.75H324V50H324.25H326.75H327V51H327.25H329.75H330V52H332V53H333V54H334V54.25V56.75V57H335V57.25V59.75V60H336V60.25V62.75V63H335V63.25V65.75V66H334C334 66.25 334 66.8333 334 67.75V68H333V70H332V71H331V72H329V73H328.75H326.25H326V74H325.75H322.25H322V73H322.25H325.75H326V72H328V71H330V70H331V69H332V68H333V66H334V65.75V57.25V57H333V55H332V54H331V53H330V52H329.75H327.25H327V51H326.75H324.25H324V50H323.75H320.25H320V49H319.75H316.25H316V48H315.75H313.25H313V47H312V46.75V43.25V43H313V41H315V40Z" fill="white"/>
<path d="M313 43H314V42H316V41H316.25H320.75H321V42H323V43H324V45H325V46H326V44H325V42H324V41H322V40H321.75H315.25H315V41H313V43ZM313 43V43.25V45.75V46H314V47H316V48M313 43H312V43.25V46.75V47H313V48H313.25H315.75H316M316 48H316.25H319.75H320V49M316 48V49H316.25H319.75H320M320 49H320.25H323.75H324V50M320 49V50H320.25H323.75H324M324 50H324.25H326.75H327V51M324 50V51H324.25H326.75H327M327 51H327.25H329.75H330V52M327 51V52H327.25H329.75H330M330 52H332V53H333V54H334V54.25V56.75V57M330 52V53H331V54H332V55H333V57H334M334 57H335V57.25V59.75V60H336V60.25V62.75V63H335V63.25V65.75V66H334M334 57V57.25V65.75V66M334 66C334 66.25 334 66.8333 334 67.75V68H333M334 66H333V68M333 68V70H332V71H331V72H329V73H328.75H326.25H326M333 68H332V69H331V70H330V71H328V72H326V73M326 73V74H325.75H322.25H322V73H322.25H325.75H326Z" stroke="white"/>
</g>
<g opacity="0.184314">
<path d="M503 40H503.25H509.75H510V41H511V42H512V43H513V44H514V46H513V45H512V43H511V42H509V41H508.75H504.25H504V42H502V43H501V43.25V45.75V46H502V47H504V48H504.25H506.75H507V49H506.75H504.25H504V48H503.75H501.25H501V47H500V46.75V42.25V42H501V41H503V40Z" fill="white"/>
<path d="M511 42V41H510V40H509.75H503.25H503V41H501V42H500V42.25V46.75V47H501V48H501.25H503.75H504M511 42H512V43M511 42V43H512M511 42H509V41H508.75H504.25H504V42H502V43H501V43.25V45.75V46H502V47H504V48M512 43H513V44H514V46H513V45H512V43ZM504 48H504.25H506.75H507V49H506.75H504.25H504V48Z" stroke="white"/>
</g>
<g opacity="0.184314">
<path d="M177 41H177.25H185.75H186V42H187V43H189V44H190V46H191V48H192V48.25V50.75V51H193V51.25V55.75V56H192V56.25V58.75V59H191V61H190V62H189V63H188V64H187V65H185V66H184.75H177.25H177V65H175V64H174V63H173V62H172V61H171V59H170V58.75V48.25V48H171V46H172V45H173V44H174V43H175V42H177V41ZM177 42V43H175V44H174V45H173V46H172V46.5V49H171V49.5V58H172V60H173V62H174V63H176V64H177V65H177.5H185V64H187V63H188V62H189V61H190V59H191V55.5V55H192V52.5V52H191V48.5V48H190V46H189V45H188V44H187V43H185V42H177.5H177Z" fill="white"/>
<path d="M187 43V42H186V41H185.75H177.25H177V42M187 43H189V44H190V46M187 43V44H188V45H189V46H190M187 43H185V42H177.5H177M190 46H191V48M190 46V48H191M191 48H192V48.25V50.75V51H193V51.25V55.75V56H192V56.25V58.75V59H191M191 48V48.5V52H192V52.5V55H191V55.5V59M191 59V61H190M191 59H190V61M190 61V62H189M190 61H189V62M189 62V63H188M189 62H188V63M188 63V64H187M188 63H187V64M187 64V65H185M187 64H185V65M185 65V66H184.75H177.25H177V65M185 65H177.5H177M177 65H175V64H174V63M177 65V64H176V63H174M174 63H173V62M174 63V62H173M173 62H172V61H171V59H170V58.75V48.25V48H171V46H172M173 62V60H172V58H171V49.5V49H172V46.5V46M172 46V45H173M172 46H173V45M173 45V44H174M173 45H174V44M174 44V43H175M174 44H175V43M175 43V42H177M175 43H177V42" stroke="white"/>
</g>
<g opacity="0.184314">
<path d="M460 41H460.25H467.75H468V42H470V43H472V45H473V46H474V48H475V48.25V57.75V58H474V58.25V60.75V61H473V62H472V63H471V64H470V65H468V66H467.75H461.25H461V65H461.25H467.75H468V64H470V63H471V62H472V60H473V58H474V57.75V48.25V48H473V46H472V45H471V44H470V43H468V42H467.75H460.25H460V43H459V44H457V45H456V47H455V47.25V49.75V50H454V50.25V55.75V56H455V56.25V59.75V60H456V61H457V62H458V63H459V64H460V65H458V64H457V63H456V62H455V60H454V58H453V57.75V49.25V49H454V48.75V46.25V46H455V45H456V44H457V43H458V42H460V41Z" fill="white"/>
<path d="M468 42V41H467.75H460.25H460V42M468 42H470V43M468 42V43H470M468 42H467.75H460.25H460M470 43H472V45M470 43V44H471V45H472M472 45H473V46M472 45V46H473M473 46H474V48M473 46V48H474M474 48H475V48.25V57.75V58H474M474 48V48.25V57.75V58M474 58V58.25V60.75V61H473V62H472M474 58H473V60H472V62M472 62V63H471M472 62H471V63M471 63V64H470M471 63H470V64M470 64V65H468M470 64H468V65M468 65V66H467.75H461.25H461V65H461.25H467.75H468ZM460 42V43H459V44H457M460 42H458V43H457V44M457 44V45H456M457 44H456V45M456 45V47H455V47.25V49.75V50H454V50.25V55.75V56H455V56.25V59.75V60M456 45H455V46H454V46.25V48.75V49H453V49.25V57.75V58H454V60H455M455 60H456V61H457V62H458V63H459V64H460V65H458V64H457V63H456V62H455V60Z" stroke="white"/>
</g>
<path opacity="0.184314" d="M94 42H95V44H94V42Z" fill="white" stroke="white"/>
<path opacity="0.184314" d="M95 45H96V46H95V45Z" fill="white" stroke="white"/>
<g opacity="0.184314">
<path d="M94 47H95V47.25V50.75V51H96V51.25V53.75V54H95V54.25V69.75V70H94V69.75V54.25V54H95V53.75V51.25V51H94V50.75V47.25V47Z" fill="white"/>
<path d="M95 51V50.75V47.25V47H94V47.25V50.75V51H95ZM95 51H96V51.25V53.75V54H95M95 51V51.25V53.75V54M95 54V54.25V69.75V70H94V69.75V54.25V54H95Z" stroke="white"/>
</g>
<g opacity="0.184314">
<path d="M508 49H508.25H511.75H512V50H512.25H514.75H515V51H515.25H517.75H518V52H520V54H522V54.25V56.75V57H523V57.25V65.75V66H522C522 66.25 522 66.8333 522 67.75V68H521V70H520V71H519V72H517V73H515V74H514.75H510.25H510V75H509.75H503.25H503V74H503.25H509.75H510V73H510.25H513.75H514V72H516V71H518V70H519V69H520V68H521V66H522V65.75V57.25V57H521V55H520V54H519V53H518V52H517.75H515.25H515V51H514.75H512.25H512V50H511.75H508.25H508V49Z" fill="white"/>
<path d="M512 50V49H511.75H508.25H508V50H508.25H511.75H512ZM512 50H512.25H514.75H515V51M512 50V51H512.25H514.75H515M515 51H515.25H517.75H518V52M515 51V52H515.25H517.75H518M518 52H520V54M518 52V53H519V54H520M520 54H522V54.25V56.75V57M520 54V55H521V57H522M522 57H523V57.25V65.75V66H522M522 57V57.25V65.75V66M522 66C522 66.25 522 66.8333 522 67.75V68H521M522 66H521V68M521 68V70H520V71H519V72H517V73H515V74H514.75H510.25H510M521 68H520V69H519V70H518V71H516V72H514V73H513.75H510.25H510V74M510 74V75H509.75H503.25H503V74H503.25H509.75H510Z" stroke="white"/>
</g>
<g opacity="0.184314">
<path d="M404 51H406V52H404V53H403V54H401V56H400V57H399V55H400V54H401V53H402V52H404V51Z" fill="white"/>
<path d="M404 52H406V51H404V52ZM404 52V53H403V54H401M404 52H402V53H401V54M401 54V56H400V57H399V55H400V54H401Z" stroke="white"/>
</g>
<g opacity="0.184314">
<path d="M417 55H417.25H424.75H425V55.25V59.75V60H424C424 60.25 424 60.8333 424 61.75V62H423V64H422V65H420V66H418V67H417.75H411.25H411V66H409V65H408V64H407V63.75V60.25V60H408V58H410V57H412V56H412.25H416.75H417V55ZM417 56V57H413.5H413V58H410.5H410V59H409V60H408V60.5V64H409V65H411V66H411.5H418V65H420V64H421V63H422V62H423V60H424V56.5V56H417.5H417Z" fill="white"/>
<path d="M424 60H425V59.75V55.25V55H424.75H417.25H417V56M424 60C424 60.25 424 60.8333 424 61.75V62H423M424 60H423V62M424 60V56.5V56H417.5H417M423 62V64H422V65H420M423 62H422V63H421V64H420V65M420 65V66H418M420 65H418V66M418 66V67H417.75H411.25H411V66M418 66H411.5H411M411 66H409V65M411 66V65H409M409 65H408V64M409 65V64H408M408 64H407V63.75V60.25V60H408M408 64V60.5V60M408 60V58H410M408 60H409V59H410V58M410 58V57H412V56H412.25H416.75H417M410 58H410.5H413V57H413.5H417V56" stroke="white"/>
</g>
<g opacity="0.184314">
<path d="M398 58H399V58.25V66.75V67H400V69H401V70H402V71H403V72H405V73H405.25H407.75H408V74H407.75H405.25H405V73H403V72H402V71H401V70H400V69H399V67H398V66.75V58.25V58Z" fill="white"/>
<path d="M399 67V66.75V58.25V58H398V58.25V66.75V67H399ZM399 67H400V69M399 67V69H400M400 69H401V70M400 69V70H401M401 70H402V71M401 70V71H402M402 71H403V72M402 71V72H403M403 72H405V73M403 72V73H405M405 73H405.25H407.75H408V74H407.75H405.25H405V73Z" stroke="white"/>
</g>
<g opacity="0.184314">
<path d="M301 60H301.25H310.75H311V62H312V63H313V65H312V64H311V62H310V61H309.75H302.25H302V61.25V64.75V65H303V67H304V68H305V69H306V70H307V71H308V72H310V73H310.25H313.75H314V74H313.75H310.25H310V73C309.75 73 309.167 73 308.25 73H308V72H306V71H305V70H304V69H303V67H302V65H301V64.75V60.25V60Z" fill="white"/>
<path d="M311 62V60H310.75H301.25H301V60.25V64.75V65H302M311 62H312V63H313V65H312V64H311V62ZM311 62H310V61H309.75H302.25H302V61.25V64.75V65M302 65H303V67M302 65V67H303M303 67H304V68H305V69H306V70H307V71H308V72M303 67V69H304V70H305V71H306V72H308M308 72H310V73M308 72V73H308.25C309.167 73 309.75 73 310 73M310 73H310.25H313.75H314V74H313.75H310.25H310V73Z" stroke="white"/>
</g>
<path opacity="0.184314" d="M89 70H89.25H92.75H93V71H92.75H89.25H89V70Z" fill="white" stroke="white"/>
<g opacity="0.184314">
<path d="M33 72H34V73H34.25H46.75C47 72.9167 47.0833 73 47 73.25V75.75V76H49V74H50V73H50.25H60.75H61V74H63V73H63.25H68.75H69V74H68.75H63.25H63V76H62V78H61V79H60C60 79.25 60 79.8333 60 80.75V81H59V83H58V84H57V85H56V86H55V87H54V88H53V90H52V91H51V92H50V93H50.25H58.75H59V92H60V91H61V90H62V88H63V87H64V86H65V85H66V84H67V83H68V81H69V80H70V79H71V78H72V77H73V75H72V74H72.25H74.75H75V76H76C76 75.75 76 75.1667 76 74.25C75.9167 74 76 73.9167 76.25 74H87.75H88V74.25V76.75V77H87V78H86V79H85V80H84V81H83V83H82V84H81V86H80V87H79V88H78V89H77V90H76V91H75V93H74.75H70.25H70V94H69.75H67.25H67V93H67.25H69.75H70V92H70.25H73.75H74V91H75V90H76V89H77V88H78V86H79V85H80V84H81V82H82V81H83V80H84V79H85V77H86V76H87V75H86.75H77.25H77V76H76V77H75V79H74V80H73V81H72V82H71V84H70V85H69V86H68V87H67V88H66V89H65C65 89.25 65 89.8333 65 90.75V91H64V93H66V94H65.75H63.25H63V93.75V90.25V90H62V91H61V92H60V93H59V94H58.75H49.25H49V92H50V91H51V89H50V90H49V91H48V93H47V94H46.75H34.25H34V93.75V91.25V91H33V92H32V93H31V92H30V91.75V86.25V86H31V85.75V73.25C30.9167 73 31 72.9167 31.25 73C32.1667 73 32.75 73 33 73V72ZM32 74V74.5V86H31V86.5V91H33V90H34V88H35V87H36V86H37V85H38V84H39V83H40V81H41V80H42V79H43V78H44V77H45V76H46C46 75.6667 46 75.1667 46 74.5C46 74.1667 46 74 46 74H32.5H32ZM51 74V75H50V76H49V77H48V78H47V79H46V80H45V81H44V83H43V84H42V85H41V86H40V87H39V89H38V90H37V91H36V92H35V93H35.5H46V92H47V91H48V90H49V88H50V87H51V86H52V85H53V84H54V83H55V82H56V80H57V79H58V77H59V76H60C60 75.6667 60 75.1667 60 74.5C60 74.1667 60 74 60 74H51.5H51ZM61 75V76H62V75H61ZM46 76V77H45V79H46V78H47V76H46ZM60 76V77H61V76H60ZM74 76V77H75V76H74ZM73 77V78H74V77H73ZM59 78V79H60V78H59ZM72 78V79H73V78H72ZM44 79V80H45V79H44ZM58 79V81H59V79H58ZM71 79V81H72V79H71ZM43 80V81H44V80H43ZM42 81V82H43V81H42ZM57 81V82H58V81H57ZM70 81V82H71V81H70ZM41 82V83H42V82H41ZM56 82V83H57V82H56ZM69 82V83H70V82H69ZM40 83V84H39V86H40V85H41V83H40ZM68 83V84H69V83H68ZM55 84V85H56V84H55ZM67 84V85H68V84H67ZM53 85V87H54V86H55V85H53ZM38 86V87H39V86H38ZM65 86V87H64V89H65V88H66V87H67V86H65ZM37 87V88H38V87H37ZM52 87V88H53V87H52ZM36 88V89H37V88H36ZM51 88V89H52V88H51ZM35 89V90H36V89H35ZM63 89V90H64V89H63ZM34 90V91H35V90H34Z" fill="white"/>
<path d="M47 76V75.75V73.25C47.0833 73 47 72.9167 46.75 73H34.25H34V72H33V73C32.75 73 32.1667 73 31.25 73C31 72.9167 30.9167 73 31 73.25V85.75V86M47 76H49M47 76V78M47 76H46M49 76V74H50V73H50.25H60.75H61V74H63M49 76H50V75H51V74H51.5H60C60 74 60 74.1667 60 74.5C60 75.1667 60 75.6667 60 76M49 76V77H48V78H47M63 74V73H63.25H68.75H69V74H68.75H63.25H63ZM63 74V76H62M62 76V78H61V79H60M62 76H61M62 76V75H61V76M60 79C60 79.25 60 79.8333 60 80.75V81H59M60 79H59M60 79V78H59V79M59 81V83H58V84H57V85H56M59 81H58M59 81V79M56 85V86H55M56 85H55M56 85V84H55V85M55 86V87H54M55 86H54V87M55 86V85M54 87V88H53M54 87H53M53 88V90H52V91H51M53 88H52M53 88V87M51 91V92H50M51 91H50V92M51 91V89M50 92V93H50.25H58.75H59M50 92H49V94H49.25H58.75H59V93M59 93V92H60M59 93H60V92M60 92V91H61M60 92H61V91M61 91V90H62M61 91H62V90M62 90V88H63V87H64M62 90H63M64 87V86H65M64 87H65V86M64 87V89M65 86V85H66V84H67M65 86H67V87M67 84V83H68M67 84V85H68V84M67 84H68M68 83V81H69V80H70V79H71M68 83V84M68 83H69M71 79V78H72M71 79V81M71 79H72M72 78V77H73M72 78V79M72 78H73M73 77V75H72V74H72.25H74.75H75V76M73 77V78M73 77H74M75 76H76M75 76V77M75 76H74V77M76 76C76 75.75 76 75.1667 76 74.25C75.9167 74 76 73.9167 76.25 74H87.75H88V74.25V76.75V77H87V78H86V79H85M76 76H77V75H77.25H86.75H87V76H86V77H85V79M76 76V77H75M85 79V80H84M85 79H84V80M84 80V81H83M84 80H83V81M83 81V83H82V84H81M83 81H82V82H81V84M81 84V86H80V87H79V88H78M81 84H80V85H79V86H78V88M78 88V89H77M78 88H77V89M77 89V90H76M77 89H76V90M76 90V91H75M76 90H75V91M75 91V93H74.75H70.25H70M75 91H74V92H73.75H70.25H70V93M70 93V94H69.75H67.25H67V93H67.25H69.75H70ZM75 77V79H74V80H73V81H72M75 77H74M72 81V82H71M72 81H71M72 81V79M71 82V84H70V85H69V86H68V87H67M71 82H70M71 82V81M67 87V88H66M67 87H66V88M66 88V89H65M66 88H65V89M65 89C65 89.25 65 89.8333 65 90.75V91H64V93H66V94H65.75H63.25H63V93.75V90.25V90M65 89H64M63 90V89H64M63 90H64V89M51 89H50V90H49M51 89V88H52M51 89H52V88M49 90V91H48M49 90H48V91M49 90V88H50V87H51V86H52V85H53M48 91V93H47V94H46.75H34.25H34V93.75V91.25V91M48 91H47V92H46V93H35.5H35V92H36V91H37V90H38V89H39V87M34 91H33M34 91V90M34 91H35V90M33 91V92H32V93H31V92H30V91.75V86.25V86H31M33 91H31V86.5V86M33 91V90H34M31 86H32V74.5V74H32.5H46C46 74 46 74.1667 46 74.5C46 75.1667 46 75.6667 46 76M34 90V88H35V87H36V86H37V85H38V84H39M34 90H35M39 84V83H40M39 84H40V83M39 84V86M40 83V81H41V80H42V79H43V78H44V77H45M40 83H41M45 77V76H46M45 77H46V76M45 77V79M47 78V79H46M47 78H46V79M46 79V80H45M46 79H45M45 80V81H44M45 80H44M45 80V79M44 81V83H43V84H42V85H41M44 81H43M44 81V80M41 85V86H40M41 85H40V86M41 85V83M40 86V87H39M40 86H39M39 87H38M39 87V86M53 85V84H54V83H55V82H56M53 85V87M53 85H55M56 82V80H57V79H58M56 82V83H57V82M56 82H57M58 79V77H59V76H60M58 79V81M58 79H59M60 76V77H61V76M60 76H61M45 79H44V80M74 77V78H73M73 78V79H72M44 80H43V81M58 81V82H57M58 81H57V82M71 81H70V82M43 81V82H42M43 81H42V82M42 82V83H41M42 82H41V83M70 82V83H69M70 82H69V83M69 83V84H68M39 86H38V87M53 87H52V88M38 87V88H37M38 87H37V88M37 88V89H36M37 88H36V89M36 89V90H35M36 89H35V90" stroke="white"/>
</g>
<g opacity="0.184314">
<path d="M90 74H90.25H94.75C95 73.9167 95.0833 74 95 74.25V92.75V93H94.75H84.25H84V94H82V93H81.75H78.25H78V91H79V89H80V88H81V87H82V85H83V84H84V83H85V81H86V80H87V79H88V78H89C89 77.75 89 77.1667 89 76.25V76H90V74ZM91 75V76H90V78H89V79H88V81H87V82H86V83H85V84H84V86H83V87H82V88H81V90H80V91H79V92H79.5H82V93H84V92H84.5H94V75.5C94 75.1667 94 75 94 75H91.5H91Z" fill="white"/>
<path d="M84 93H84.25H94.75H95V92.75V74.25C95.0833 74 95 73.9167 94.75 74H90.25H90V76M84 93V94H82V93M84 93H82M84 93V92H84.5H94V75.5C94 75.1667 94 75 94 75H91.5H91V76H90M82 93H81.75H78.25H78V91H79M82 93V92H79.5H79V91M79 91V89H80V88H81M79 91H80V90H81V88M81 88V87H82M81 88H82V87M82 87V85H83V84H84M82 87H83V86H84V84M84 84V83H85M84 84H85V83M85 83V81H86V80H87V79H88M85 83H86V82H87V81H88V79M88 79V78H89M88 79H89V78M89 78C89 77.75 89 77.1667 89 76.25V76H90M89 78H90V76" stroke="white"/>
</g>
<path opacity="0.184314" d="M315 74H315.25H320.75H321V75H320.75H315.25H315V74Z" fill="white" stroke="white"/>
<path opacity="0.184314" d="M409 74H409.25H414.75H415V75H414.75H409.25H409V74Z" fill="white" stroke="white"/>
<path opacity="0.960784" d="M49 1H49.25H51.75H52V2H52.25H55.75C56 1.91667 56.0833 2 56 2.25V52.75V53H57V54H56V54.25V60.75V61H57V61.25V66.75V67H56V68H55V69H54.75H47.25H47V68.75V30.25V30H46V29.75V14.25V14H45V13.75V3.25V3H46V2H46.25H48.75H49V1Z" fill="white" stroke="white"/>
<path opacity="0.960784" d="M60 1H60.25H63.75H64V2H64.25H69.75C70 1.91667 70.0833 2 70 2.25V34.75V35H71V36H70V36.25V44.75V45H71V45.25V67.75V68H70V69H69.75H63.25H63V68H62.75H60.25C60 68.0833 59.9167 68 60 67.75V9.25V9H59V7H60V6H59V5.75V2.25V2H60V1Z" fill="white" stroke="white"/>
<path opacity="0.960784" d="M74 1H74.25H83.75H84V2H84.25H86.75H87V1H87.25H94.75H95V2H96V2.25V10.75V11H95V11.25V41.75V42H94V44H95V44.25V46.75V47H94V47.25V50.75V51H95V51.25V53.75V54H94V54.25V69.75V70H93.75H88.25H88V69H87V68.75V19.25V19H86V18H87V16H86V15.75V3.25V3H85V4H84V6H85V7H84V7.25V33.75V34H83V36H84V36.25V54.75V55H83V55.25V68.75V69H82.75H74.25H74V68.75V64.25V64H73V63.75V2.25V2H74V1Z" fill="white" stroke="white"/>
<path opacity="0.960784" d="M1 2H1.25H26.75C27 1.91667 27.0833 2 27 2.25V8.75V9H26.75H13.25H13V10H12.75H1.25H1V9.75V2.25V2Z" fill="white" stroke="white"/>
<path opacity="0.960784" d="M31 2H31.25H41.75C42 1.91667 42.0833 2 42 2.25V47.75V48H43V48.25V68.75V69H42.75H34.25H34V70H33V69H32V68.75V12.25V12H31V11.75V2.25V2Z" fill="white" stroke="white"/>
<path opacity="0.960784" d="M2 11H2.25H5.75H6V12H6.25H16.75H17V11H19V12H19.25H22.75H23V11H23.25H26.75H27V11.25V20.75V21H26.75H19.25H19V22H18.75H16.25H16V21H15.75H13.25H13V22H12.75H1.25H1V21.75V12.25V12H2V11Z" fill="white" stroke="white"/>
<path opacity="0.960784" d="M222 16H222.25H225.75H226V17H227V17.25V23.75V24H226.75H223.25H223V25H222V26H221V28H220V28.25V32.75V33H221V34H221.25H235.75H236V33.75V24.25V24H236.25H244.75H245V24.25V33.75V34H245.25H251.75H252V34.25V40.75V41H251.75H245.25C245 40.9167 244.917 41 245 41.25V63.75V64H246V65H246.25H251.75H252V65.25V71.75V72H251V73H250.75H243.25H243V72H242.75H240.25H240V71H239V70H238V69H237V67H236V66.75V41.25V41H235.75H220.25H220V41.25V72.75C220.083 73 220 73.0833 219.75 73H212.25H212V72.75V41.25C212.083 41 212 40.9167 211.75 41H205.25H205V40.75V34.25V34H205.25H210.75H211V33H212V32.75V24.25V24H213V23.75V21.25V21H214V20H215V19H216V18H218V17H218.25H221.75H222V16Z" fill="white" stroke="white"/>
<path opacity="0.960784" d="M445 16H445.25H452.75H453V16.25V37.75C452.917 38 453 38.0833 453.25 38C454.167 38 454.75 38 455 38V37H456V36H457V35H459V34H461V33H461.25H470.75H471V34H471.25H473.75H474V35H476V36H477V37H478V38H479V39H480V41H481V42H482V44H483V44.25V47.75V48H484V48.25V58.75V59H483V59.25V61.75V62H482V62.25V64.75V65H481V66H480V68H479V69H478V70H477V71H475V72H473V73H472.75H469.25H469V74H468.75H463.25H463V73H462.75H459.25H459V72H457V71H456V70H455V69H454V68H453V68.25V71.75V72H452V73H451.75H445.25H445V72.75V16.25V16ZM460 41V42H458V43H457V44H456V45H455V46H454V46.5V49H453V49.5V58H454V60H455V60.5C455 61.1667 455 61.6667 455 62H456V63H457V64H458V65H458.5H461V66H461.5H468V65H470V64H471V63H472V62H473V61H474V58.5V58H475V48.5V48H474V46H473V45H472V43H470V42H468V41H460.5H460Z" fill="white" stroke="white"/>
<path opacity="0.960784" d="M123 19H123.25H130.75H131V20H132V20.25V63.75V64H133V65H133.25H156.75H157V65.25V72.75V73H156.75H123.25H123V72.75V19.25V19Z" fill="white" stroke="white"/>
<path opacity="0.960784" d="M361 19H361.25H368.75C369 18.9167 369.083 19 369 19.25V63.75V64H370V65H370.25H393.75H394V65.25V72.75V73H393.75H361.25H361V72H360V71.75V20.25V20H361V19Z" fill="white" stroke="white"/>
<path opacity="0.960784" d="M1 24H1.25H26.75H27V24.25V33.75V34H26.75H19.25H19V35H18.75H1.25H1V34.75V24.25V24Z" fill="white" stroke="white"/>
<path opacity="0.960784" d="M176 33H176.25H185.75H186V34H186.25H188.75H189V35C189.25 35 189.833 35 190.75 35H191V36H193V37H194V38H195V39H196V40H197V41H198V42H199V44H200V44.25V46.75V47H201V47.25V59.75V60H200V62H199V64H198V64.25C198 65.1667 198 65.75 198 66H197V67H196V68H195V69H194V70H193V71H191V72H190.75H188.25H188V73H187.75H184.25H184V74H183.75H178.25H178V73H177.75H174.25H174V72H173.75H171.25H171V71H170V70H168V69H167V68H166V67H165V65H164V64H163V62H162V61.75V59.25V59H161V58.75V48.25V48H162V47.75V45.25V45H163C163 44.75 163 44.1667 163 43.25V43H164V41H165V40H166V39H167V38H168V37H169V36H171V35H173V34H173.25H175.75H176V33ZM177 41V42H175V43H174V44H173V45H172V46H171V48H170V48.5V59H171V61H172V62H173V63H174V64H175V65H177V66H177.5H185V65H187V64H188V63H189V62H190V61H191V59H192V56.5V56H193V51.5V51H192V48.5V48H191V46H190V44H189V43H187V42H186V41H177.5H177Z" fill="white" stroke="white"/>
<path opacity="0.960784" d="M314 33H314.25H323.75H324V34H324.25H326.75H327V35H329V36H330V37H331V38H332C332 38.25 332 38.8333 332 39.75V40H333V42H334V42.25V45.75V46H333.75H326.25C326 46.0833 325.917 46 326 45.75C326 44.8333 326 44.25 326 44H325V42H324V41H322V40H321.75H315.25H315V41H313V43H312V43.25V46.75V47H313V48H313.25H315.75H316V49H316.25H319.75H320V50H320.25H323.75H324V51H324.25H326.75H327V52H327.25H329.75H330V53H331V54H332V55H333V57H334V57.25V65.75V66H333V68H332V69H331V70H330V71H328V72H326V73H325.75H322.25H322V74H321.75H314.25H314V73H313.75H310.25H310V72H308V71H307V70H306V69H305V68H304V67H303V65H302V64.75V61.25V61H302.25H309.75H310V62H311V64H312V65H314V66H314.25H316.75H317V67H317.25H320.75H321V66H321.25H323.75H324V65H325V64H326V63.75V60.25V60H325V59H324V58H323.75H320.25H320V57H319.75H316.25H316V56H315.75H312.25H312V55H311.75H309.25H309V54H307V53H306V52H305V50H304V49.75V41.25V41H305V39H306V38H307V37H308V36H309V35H311V34H311.25H313.75H314V33Z" fill="white" stroke="white"/>
<path opacity="0.960784" d="M411 33H411.25H421.75H422V34H422.25H425.75H426V35H428V36H429V37H430V38H431V39H432V41H433V41.25V46.75V47H434V47.25V72.75V73H433.75H426.25H426V72.75V69.25V69H424V70H423V71H422V72H420V73H419.75H416.25H416V74H415.75H408.25H408V73H407.75H405.25H405V72H403V71H402V70H401V69H400V67H399V66.75V57.25V57H400V56H401V54H403V53H404V52H406V51H406.25H409.75H410V50H410.25H415.75H416V49H416.25H422.75H423V48H425V47.75V44.25V44H424V43H423V42H422V41H420V40H419.75H413.25H413V41H411V42H410V43H409V44H408V46H407.75H400.25H400V45.75V42.25V42H401V40H402V38H403V37H405V36H406V35H408V34H408.25H410.75H411V33ZM417 55V56H412.5H412V57H410V58H408V60H407V60.5V64H408V65H409V66H411V67H411.5H418V66H420V65H422V64H423V62H424C424 61 424 60.3333 424 60H425V55.5V55H417.5H417Z" fill="white" stroke="white"/>
<path opacity="0.960784" d="M502 33H502.25H511.75H512V34H512.25H514.75H515V35H516V36H518V37H519V38H520V40H521V42H522V42.25V45.75V46H521.75H514.25C514 46.0833 513.917 46 514 45.75C514 44.8333 514 44.25 514 44H513V43H512V42H511V41H510V40H509.75H503.25H503V41H501V42H500V42.25V46.75V47H501V48H501.25H503.75H504V49H504.25H507.75H508V50H508.25H511.75H512V51H512.25H514.75H515V52H515.25H517.75H518V53H519V54H520V55H521V57H522V57.25V65.75V66H521V68H520V69H519V70H518V71H516V72H514V73H513.75H510.25H510V74H509.75H502.25H502V73H501.75H498.25H498V72H496V71H495V70H494V69H493V68H492V67H491V65H490V64.75V61.25V61H490.25H497.75H498V62H499V64H500V65H501V66H501.25H504.75H505V67H505.25H508.75H509V66H509.25H511.75H512V65H513V64H514V63.75V60.25V60H513V59H512V58H511.75H508.25H508V57H507.75H504.25H504V56H503.75H500.25H500V55H499.75H497.25H497V54H495V53H494V52H493V50H492V49.75V46.25V46H491V45H492V44.75V41.25V41H493V39H494V38H495V37H496V36H497V35H499V34H499.25H501.75H502V33Z" fill="white" stroke="white"/>
<path opacity="0.960784" d="M259 34H259.25H267.75H268V34.25V61.75V62H269V64H270V65H272V66H272.25H279.75H280V65H282V64H283V62H284V61.75V59.25V59H285V58.75V34.25V34H285.25H292.75H293V35H294V35.25V45.75V46H293V47H294V49H293V51H294V51.25V61.75V62H293V62.25V67.75V68H294V68.25V71.75V72H293V73H292.75H286.25H286V72.75V70.25V70H285V69H284V70H283V71H282V72H280V73H279.75H276.25H276V74H275.75H270.25H270V73H269.75H267.25H267V72H265V71H264V70H263V69H262V68H261V66H260V65.75V63.25V63H259V62.75V34.25V34Z" fill="white" stroke="white"/>
<path opacity="0.960784" d="M2 37H2.25H5.75H6V38H6.25H19.75H20V37H20.25H26.75H27V37.25V45.75V46H26.75H17.25H17V47H16V46H14V47H13.75H4.25H4V48H2V49H2.25H5.75H6V50H6.25H16.75H17V49H17.25H25.75H26V50H27V50.25V58.75V59H26.75H1.25C1 59.0833 0.916667 59 1 58.75V54.25V54H2V53H1V52.75V38.25V38H2V37Z" fill="white" stroke="white"/>
<path opacity="0.960784" d="M2 61H2.25H26.75H27V62H28V63H27V63.25V70.75V71H26.75H5.25H5V72H4.75H2.25H2V71H1V70.75V68.25V68H2V67H1V66.75V62.25V62H2V61Z" fill="white" stroke="white"/>
<path opacity="0.960784" d="M2 73H4V74H4.25H17.75H18V73H20V74H22V73H22.25H26.75H27V73.25V78.75V79H28V81H27V82H25V83H24.75H6.25H6V84H5.75H2.25H2V83H1V82.75V74.25V74H2V73Z" fill="white" stroke="white"/>
<path opacity="0.960784" d="M32 74H32.25H45.75C46 73.9167 46.0833 74 46 74.25C46 75.1667 46 75.75 46 76H45V77H44V78H43V79H42V80H41V81H40V83H39V84H38V85H37V86H36V87H35V88H34V90H33V91H31V90.75V86.25V86H32V85.75V74.25V74Z" fill="white" stroke="white"/>
<path opacity="0.960784" d="M51 74H51.25H59.75C60 73.9167 60.0833 74 60 74.25C60 75.1667 60 75.75 60 76H59V77H58V79H57V80H56V82H55V83H54V84H53V85H52V86H51V87H50V88H49V90H48V91H47V92H46V93H45.75H35.25H35V92H36V91H37V90H38V89H39V87H40V86H41V85H42V84H43V83H44V81H45V80H46V79H47V78H48V77H49V76H50V75H51V74Z" fill="white" stroke="white"/>
<path opacity="0.960784" d="M63 74H63.25H71.75H72V75H73V77H72V78H71V79H70V80H69V81H68V83H67V84H66V85H65V86H64V87H63V88H62V90H61V91H60V92H59V93H58.75H50.25H50V92H51V91H52V90H53V88H54V87H55V86H56V85H57V84H58V83H59V81H60V79H61V78H62C62 77.75 62 77.1667 62 76.25V76H63V74Z" fill="white" stroke="white"/>
<path opacity="0.960784" d="M77 75H77.25H86.75H87V76H86V77H85V79H84V80H83V81H82V82H81V84H80V85H79V86H78V88H77V89H76V90H75V91H74V92H73.75H70.25H70V93H69.75H64.25H64C64 92.75 64 92.1667 64 91.25V91H65V89H66V88H67V87H68V86H69V85H70V84H71V82H72V81H73V80H74V79H75V77H76V76H77V75Z" fill="white" stroke="white"/>
<path opacity="0.960784" d="M91 75H91.25H93.75C94 74.9167 94.0833 75 94 75.25V91.75V92H93.75H84.25H84V93H82V92H81.75H79.25H79V91H80V90H81V88H82V87H83V86H84V84H85V83H86V82H87V81H88V79H89V78H90V76H91V75Z" fill="white" stroke="white"/>
<path opacity="0.960784" d="M23 85H23.25H26.75H27V86H28V86.25V92.75V93H27.75H3.25H3V94H2V93.75V90.25V90H1V89.75V86.25V86H1.25H22.75H23V85Z" fill="white" stroke="white"/>
</g>
<defs>
<clipPath id="clip0_3311_6">
<rect width="524" height="95" fill="white"/>
</clipPath>
</defs>
</svg>
