<?xml version="1.0" standalone="no"?>
<!DOCTYPE svg PUBLIC "-//W3C//DTD SVG 20010904//EN"
 "http://www.w3.org/TR/2001/REC-SVG-20010904/DTD/svg10.dtd">
<svg version="1.0" xmlns="http://www.w3.org/2000/svg"
 width="600.000000pt" height="198.000000pt" viewBox="0 0 600.000000 198.000000"
 preserveAspectRatio="xMidYMid meet">

<g transform="translate(0.000000,198.000000) scale(0.100000,-0.100000)"
fill="#000000" stroke="none">
<path d="M30 990 l0 -990 180 0 180 0 2 539 3 538 354 -483 c194 -266 356
-484 360 -484 4 0 167 218 362 485 l354 484 3 -539 2 -540 180 0 180 0 0 990
0 991 -92 -3 -92 -3 -438 -600 c-242 -330 -444 -605 -451 -611 -9 -9 -118 133
-460 602 l-449 614 -89 0 -89 0 0 -990z"/>
<path d="M2370 1978 c0 -2 162 -446 359 -988 l359 -985 180 -3 180 -2 16 42
c9 24 171 468 360 988 l343 945 -170 3 c-94 1 -176 1 -182 -1 -5 -3 -129 -327
-275 -721 -146 -394 -267 -716 -270 -716 -3 0 -126 324 -274 720 l-269 720
-179 0 c-98 0 -178 -1 -178 -2z"/>
<path d="M4350 990 l0 -990 180 0 180 0 0 360 0 360 403 0 403 0 62 178 c34
97 62 180 62 185 0 4 -209 7 -465 7 l-465 0 0 265 0 265 567 2 568 3 57 160
c32 88 60 168 63 178 6 16 -37 17 -804 17 l-811 0 0 -990z"/>
</g>
</svg>
