<svg xmlns="http://www.w3.org/2000/svg" xmlns:xlink="http://www.w3.org/1999/xlink" width="600" height="122.807" viewBox="0 0 600 122.807">
  <defs>
    <clipPath id="clip-path">
      <rect id="Rectangle_3" data-name="Rectangle 3" width="600" height="122.807" fill="#fff"/>
    </clipPath>
  </defs>
  <g id="Group_4" data-name="Group 4" clip-path="url(#clip-path)">
    <g id="Group_3" data-name="Group 3" transform="translate(0 1.754)">
      <path id="Path_58" data-name="Path 58" d="M152.6,72.155H123.792L109.778,54.372H86.422a5.034,5.034,0,0,0-.779.785v17H58.135V.5h70.329c6.732,0,15.265,5.764,19.157,11.031,10.344,13.97,5,32.292-9.545,40.53Zm-66.955-38.7H121.2c.633,0,3.187-2.5,3.5-3.269,1.6-3.975-1.552-8.761-5.574-8.761H85.643Z" transform="translate(145.847 -0.5)" fill="#fff"/>
      <path id="Path_59" data-name="Path 59" d="M198.427.5V19.329H143.409v8.892h55.018V44.435H143.409v8.892h55.018V72.155H116.16a4.933,4.933,0,0,1-.779-.785V1.285A4.933,4.933,0,0,1,116.16.5Z" transform="translate(289.465 -0.5)" fill="#fff"/>
      <path id="Path_60" data-name="Path 60" d="M114.183.5V19.329H59.165v8.892h55.017V44.435H59.165v8.892h55.017V72.155H31.656V.5Z" transform="translate(79.418 -0.5)" fill="#fff"/>
      <path id="Path_61" data-name="Path 61" d="M30.363.5,52.676,49.147,73.7.5h31.142L68.813,71.674l-32.242.518L0,.5Z" transform="translate(0 -0.5)" fill="#fff"/>
      <path id="Path_62" data-name="Path 62" d="M179.293.5V23.513h-32.7V72.155H119.086V23.513h-32.7V.5Z" transform="translate(216.725 -0.5)" fill="#fff"/>
      <path id="Path_63" data-name="Path 63" d="M245.032,55.659H213.113c-3.074-2.16-18.375-20.409-20.246-20.419l-1.305.8L173.145,55.654H140.706c-.186-.879.277-1.056.789-1.559,1.256-1.229,10.112-8.981,10.112-9.687V28.718a5.062,5.062,0,0,1,.775-.785h16.611c1.4,0,17.067-17.82,20.007-19.588a6.486,6.486,0,0,1,8.295.486c13.772,13.855,28.274,26.957,42.3,40.535a54.117,54.117,0,0,1,4.66,4.718C244.657,54.613,245.26,54.744,245.032,55.659Z" transform="translate(352.894 15.998)" fill="#fff"/>
      <path id="Path_64" data-name="Path 64" d="M205.858.5,173.866,31.845,157.108,16.379C156.851,14.9,170.083,2.582,171.862.5Z" transform="translate(394.138 -0.5)" fill="#fff"/>
      <path id="Path_65" data-name="Path 65" d="M140.232.5h34c1.705,1.841,14.291,14.373,14.295,15.429,0,1.145-14.351,14.09-16.375,15.827Z" transform="translate(351.81 -0.5)" fill="#fff"/>
      <path id="Path_66" data-name="Path 66" d="M139.411,27.809c.674.188,7.632,9.362,8.933,10.837.312.351-.039,1,1.19.669V27.809h8.821V51.345h-9.6c-1.07,0-10.474-12.5-12.716-13.6v13.6h-8.825V27.809C130.422,28.389,136.629,27.024,139.411,27.809Z" transform="translate(319.153 67.384)" fill="#fff"/>
      <path id="Path_67" data-name="Path 67" d="M135.355,51.165H126.27c-.523,0-3.968-5.753-4.67-5.753h-7.526v5.753h-8.565a5.082,5.082,0,0,1-.779-.785V28.413a5.082,5.082,0,0,1,.779-.785h22.839c4.126,0,7.828,5.665,7.54,9.666-.3,4.247-4.554,6.878-4.593,7.322C131.186,45.857,135.825,49.319,135.355,51.165ZM114.074,38.612h11.158c1.516,0,1.881-4.184-.516-4.184H114.074Z" transform="translate(262.744 67.56)" fill="#fff"/>
      <path id="Path_68" data-name="Path 68" d="M51.278,27.859c8.408,1.255,10.1,12.825,2.871,17.046-.187.847,4.489,4.786,4.136,6.491H49.2c-.525,0-3.971-5.753-4.672-5.753H37V51.4H28.441a5.035,5.035,0,0,1-.779-.785V28.643c0-.141.607-.518.779-.785C35.463,28.607,44.515,26.849,51.278,27.859ZM37,38.842H48.164c1.515,0,1.879-4.184-.519-4.184H37Z" transform="translate(69.398 67.33)" fill="#fff"/>
      <path id="Path_69" data-name="Path 69" d="M180.916,51.165h-9.084c-.432,0-4.242-5.753-4.67-5.753h-7.526v5.753H151.07a5.083,5.083,0,0,1-.779-.785V28.413a5.083,5.083,0,0,1,.779-.785h22.839c2.344,0,6.2,3.7,6.979,6.041,1.853,5.586-1.049,7.49-4.091,11.407,1.439,1.836,3.681,3.713,4.119,6.083ZM159.635,38.612h11.158c1.516,0,1.877-4.184-.519-4.184H159.635Z" transform="translate(377.046 67.56)" fill="#fff"/>
      <path id="Path_70" data-name="Path 70" d="M15.137,43.778c.337.1,1.282,1.5,2.818,1.867,1.952.471,6.955.413,8.548-.774a1.474,1.474,0,0,0,.28-1.58c-.94-1.516-20.092.889-21.218-6.083-1.552-9.6,12.441-10.121,18.9-9.639,5.533.413,11.331,1.982,12.2,8.363h-9.6c-.187,0-1.956-1.71-3.233-1.972-2.315-.476-8.549-.716-8.964,2.49,5.071,1.213,20.092-.445,21.587,6.25C38.9,53.658,15.324,53.485,9.314,50.159a7.361,7.361,0,0,1-3.789-6.381c2.528.465,7.433-.633,9.6,0Z" transform="translate(13.666 67.105)" fill="#fff"/>
      <path id="Path_71" data-name="Path 71" d="M192.576,35.886h-9.081c-.442,0-3.916-2.5-8.312-2.092-1.074.1-5.2,1-3.888,2.6.418.513,11.084.847,13.1,1.2,4.993.868,9.933,2.374,7.954,8.776-2.186,7.076-21.772,6.768-26.933,3.546-2.049-1.281-3.912-3.64-3.456-6.193h9.084c.193,0,1.909,1.553,3.344,1.862,2.365.507,8.365.785,8.849-2.38-5.561-1.444-24.712.9-21.249-9.65,2.34-7.134,17.93-6.684,23.772-5.183C189.435,29.321,192.765,31.675,192.576,35.886Z" transform="translate(405.344 67.149)" fill="#fff"/>
      <path id="Path_72" data-name="Path 72" d="M43.853,33.905H25.687V36.52H43.853v5.753H25.687v2.615H43.853c-.1,1.114.457,6.276-.779,6.276H16.863V27.629H43.074C44.31,27.629,43.749,32.791,43.853,33.905Z" transform="translate(42.306 67.56)" fill="#fff"/>
      <path id="Path_73" data-name="Path 73" d="M93.7,33.905H75.536V36.52H93.7v5.753H75.536v2.615H93.7c-.1,1.114.457,6.276-.779,6.276H66.713V27.629H92.924C94.159,27.629,93.6,32.791,93.7,33.905Z" transform="translate(167.367 67.56)" fill="#fff"/>
      <path id="Path_74" data-name="Path 74" d="M166.482,33.905H148.317V36.52h18.165v5.753H148.317v2.615h18.165c-.1,1.114.456,6.276-.779,6.276H139.492V27.629H165.7C166.938,27.629,166.38,32.791,166.482,33.905Z" transform="translate(349.954 67.56)" fill="#fff"/>
      <path id="Path_75" data-name="Path 75" d="M92.475,45.412v5.753H83.133V27.629h23.1c3.867,0,7.894,4.864,8,8.682.083,3.232-3.623,9.1-6.96,9.1Zm0-6.8h11.159c1.515,0,1.879-4.184-.519-4.184H92.475Z" transform="translate(208.561 67.56)" fill="#fff"/>
      <path id="Path_76" data-name="Path 76" d="M86.512,38.006H77.429c-.2,0-1.775-2.176-3.223-2.505-3.586-.816-10.017-.6-10.017,4.336s6.431,5.152,10.017,4.336c1.448-.329,3.021-2.505,3.223-2.505h9.083c.208,11.962-20.336,12.427-27.161,7.756-5.18-3.546-5.605-13.724-1.406-17.976C64.111,25.2,86.725,25.5,86.512,38.006Z" transform="translate(138.228 67.124)" fill="#fff"/>
      <path id="Path_77" data-name="Path 77" d="M127.523,51.268h-9.6c-.742,0-1.5-3.693-2.678-4.1s-10.064-.256-10.822.434c-.545.492-1.412,3.666-2.071,3.666h-9.6c1.142-2.835,11.377-23.416,12.7-23.578,1.568-.188,9.592-.173,10.407.554l11.672,23.019ZM112.99,41.325l-3.1-6.271-2.6,6.266h5.7Z" transform="translate(232.684 67.457)" fill="#fff"/>
      <path id="Path_78" data-name="Path 78" d="M47.766,27.776c1.194.371,6.176,13.693,7.266,15.7l7.266-15.7h9.6L60.747,50.794c-1.427,1.287-8.169.084-10.406.554L38.164,27.776C40.619,28.251,45.711,27.132,47.766,27.776Z" transform="translate(95.745 67.413)" fill="#fff"/>
      <path id="Path_79" data-name="Path 79" d="M135.547,35.475V51.165h-8.821V35.475h-10.9V27.629H145.67c1.172,0,1.172,7.846,0,7.846Z" transform="translate(290.576 67.56)" fill="#fff"/>
      <path id="Path_80" data-name="Path 80" d="M59.192,27.629V51.165H50.628a5.035,5.035,0,0,1-.779-.785V28.413a5.035,5.035,0,0,1,.779-.785Z" transform="translate(125.061 67.56)" fill="#fff"/>
    </g>
  </g>
</svg>
