<svg xmlns="http://www.w3.org/2000/svg" xmlns:xlink="http://www.w3.org/1999/xlink" width="600" height="137.288" viewBox="0 0 600 137.288">
  <defs>
    <clipPath id="clip-path">
      <rect id="Rectangle_4" data-name="Rectangle 4" width="600" height="137.288" fill="#fff"/>
    </clipPath>
  </defs>
  <g id="Group_5" data-name="Group 5" clip-path="url(#clip-path)">
    <path id="Path_81" data-name="Path 81" d="M79.377,94.891l27.917-81.565a12.364,12.364,0,0,0,.833-4.038c0-3.432-2.084-4.24-11.667-4.24H91.044V0h40V5.047h-3.333c-8.75,0-12.5,3.028-15.417,12.517L71.252,137.288H66.044L12.917,5.047H0V0H60.21V5.047H43.543Z" fill="#fff"/>
    <path id="Path_82" data-name="Path 82" d="M44.527,5.047H27.86V0h62.5V5.047H73.695V129.616H90.362v5.047H27.86v-5.047H44.527Z" transform="translate(113.803)" fill="#fff"/>
    <path id="Path_83" data-name="Path 83" d="M59.277,5.047H42.61V0H152.2l3.125,34.322H149.9c-5-22.612-14.167-30.082-37.084-29.275H88.445V63.8h5.833c17.918.4,25.209-6.663,25-23.824H124.9V94.891h-5.626c-.625-19.988-6.25-25.843-25.417-26.045H88.445v60.77H107.82c29.376.4,39.584-7.874,46.251-37.754H159.7l-2.917,42.8H42.61v-5.047H59.277Z" transform="translate(174.053)" fill="#fff"/>
    <path id="Path_84" data-name="Path 84" d="M146.49,94.891l27.917-81.565a12.363,12.363,0,0,0,.833-4.038c0-3.432-2.084-4.24-11.667-4.24h-5.417V0h40V5.047h-3.333c-8.75,0-12.5,3.028-15.417,12.517L138.364,137.288h-5.208L80.03,5.047H67.112V0h60.21V5.047H110.655Z" transform="translate(274.137)" fill="#fff"/>
    <path id="Path_85" data-name="Path 85" d="M111.64,5.047H94.973V0H204.561l3.122,34.322h-5.415c-5-22.612-14.166-30.082-37.083-29.275H140.808V63.8h5.832c17.919.4,25.21-6.663,25-23.824h5.624V94.891h-5.624c-.625-19.988-6.249-25.843-25.419-26.045h-5.415v60.77h19.373c29.38.4,39.585-7.874,46.251-37.754h5.629l-2.919,42.8H94.973v-5.047H111.64Z" transform="translate(387.939)" fill="#fff"/>
  </g>
</svg>