<svg xmlns="http://www.w3.org/2000/svg" xmlns:xlink="http://www.w3.org/1999/xlink" width="600" height="115.541" viewBox="0 0 600 115.541">
  <defs>
    <clipPath id="clip-path">
      <rect id="Rectangle_5" data-name="Rectangle 5" width="600" height="115.541" fill="#fff"/>
    </clipPath>
  </defs>
  <g id="Group_6" data-name="Group 6" clip-path="url(#clip-path)">
    <path id="Path_86" data-name="Path 86" d="M511.33,0a44.205,44.205,0,0,1,42.164,30.453L570.15,81.374a9.95,9.95,0,0,0,9.488,6.858H600v27.149H579.638a37.16,37.16,0,0,1-35.434-25.6L527.552,38.856a17.069,17.069,0,0,0-33.274,5.261v71.265H466.995V44.116a17.052,17.052,0,0,0-34.1,0v71.265H405.61V84.973A58.087,58.087,0,0,1,301.184,80.61a58.08,58.08,0,0,1-107.378-2.045,44.385,44.385,0,0,1-74.445,24.662A44.413,44.413,0,0,1,46.5,85.085L29.849,34.164a9.948,9.948,0,0,0-9.489-6.856H0V.159H20.361a37.159,37.159,0,0,1,35.433,25.6L72.447,76.683a17.068,17.068,0,0,0,33.273-5.259V.159H133V71.424a17.052,17.052,0,0,0,34.1,0V.159h27.283V35.687a58.083,58.083,0,0,1,106.794-.6,58.085,58.085,0,0,1,105.758-1.722,44.4,44.4,0,0,1,73.7-21.056A44.29,44.29,0,0,1,511.33,0ZM354.454,27.308a30.542,30.542,0,1,0,30.693,30.541A30.654,30.654,0,0,0,354.454,27.308Zm-106.539,0a30.542,30.542,0,1,0,30.691,30.541A30.653,30.653,0,0,0,247.916,27.308ZM585.162,0A15.693,15.693,0,0,1,591.1,1.106a14.306,14.306,0,0,1,4.709,3.039,13.8,13.8,0,0,1,3.081,4.6A14.748,14.748,0,0,1,600,14.48a14.754,14.754,0,0,1-1.113,5.735,13.825,13.825,0,0,1-3.081,4.6,14.3,14.3,0,0,1-4.709,3.037,16.45,16.45,0,0,1-11.87,0,14.28,14.28,0,0,1-4.709-3.037,13.825,13.825,0,0,1-3.081-4.6,14.754,14.754,0,0,1-1.113-5.735,14.748,14.748,0,0,1,1.113-5.735,13.8,13.8,0,0,1,3.081-4.6,14.285,14.285,0,0,1,4.709-3.039A15.685,15.685,0,0,1,585.162,0Zm0,2.838a13.414,13.414,0,0,0-4.879.852A11.1,11.1,0,0,0,576.489,6.1a10.632,10.632,0,0,0-2.455,3.69,12.44,12.44,0,0,0-.855,4.686,12.423,12.423,0,0,0,.855,4.684,10.622,10.622,0,0,0,2.455,3.692,11.066,11.066,0,0,0,3.795,2.413,14.4,14.4,0,0,0,9.758,0,11.086,11.086,0,0,0,3.795-2.413,10.65,10.65,0,0,0,2.455-3.692,12.464,12.464,0,0,0,.855-4.684,12.481,12.481,0,0,0-.855-4.686,10.66,10.66,0,0,0-2.455-3.69,11.117,11.117,0,0,0-3.795-2.415A13.414,13.414,0,0,0,585.162,2.838Zm.855,4.543a6.1,6.1,0,0,1,4.253,1.334,4.52,4.52,0,0,1,1.453,3.492,3.973,3.973,0,0,1-1.6,3.407,4.682,4.682,0,0,1-1.541.852l3.138,4.828h-3.138l-2.854-4.259h-3.138v4.259H579.74V7.381Zm0,2.84h-3.424V14.2h3.424a3.38,3.38,0,0,0,2.171-.567,1.817,1.817,0,0,0,0-2.84A3.391,3.391,0,0,0,586.018,10.221Z" fill="#fff"/>
  </g>
</svg>
