<svg width="51" height="50" viewBox="0 0 51 50" fill="none" xmlns="http://www.w3.org/2000/svg">
<path fill-rule="evenodd" clip-rule="evenodd" d="M10.6227 9.60181C14.2622 5.49637 19.9336 4.87644 24.1863 7.8659C24.5881 8.14833 24.8248 8.31293 25 8.417C25.1751 8.31293 25.4118 8.14833 25.8136 7.8659C30.0663 4.87644 35.7378 5.49636 39.3773 9.60181C41.2157 11.6756 42.2424 14.3054 42.4573 17.0003H49.5V26.5003C49.5 35.613 42.1127 43.0003 33 43.0003H17C7.8873 43.0003 0.5 35.613 0.5 26.5003V17.0003H7.54267C7.75759 14.3054 8.78427 11.6756 10.6227 9.60181ZM7.63851 20.0003H3.5V26.5003C3.5 33.9561 9.54416 40.0003 17 40.0003H22.5522L10.6416 26.5648L10.6228 26.5437C8.97941 24.6899 7.98462 22.3918 7.63851 20.0003ZM27.4478 40.0003H33C40.4558 40.0003 46.5 33.9561 46.5 26.5003V20.0003H42.3615C42.0154 22.3918 41.0206 24.6899 39.3773 26.5436L27.4478 40.0003ZM39.4459 17.0094C39.2435 15.0254 38.4723 13.1034 37.1324 11.5919C34.4866 8.60741 30.5197 8.22479 27.5389 10.3202L27.4897 10.3548C27.1134 10.6194 26.7451 10.8783 26.4162 11.0633C26.0577 11.2649 25.5821 11.4768 25 11.4768C24.4179 11.4768 23.9423 11.265 23.5838 11.0633C23.2548 10.8783 22.8865 10.6193 22.5101 10.3547C22.4938 10.3432 22.4775 10.3317 22.4611 10.3202C19.4803 8.22479 15.5134 8.6074 12.8676 11.5919C11.5277 13.1034 10.7565 15.0254 10.5541 17.0094C16.9729 17.2212 22.4638 21.0992 25 26.6168C27.5362 21.0992 33.0271 17.2212 39.4459 17.0094ZM23.5 33.5003C23.5 26.2732 17.8211 20.3726 10.6823 20.0172C10.9988 21.6834 11.7272 23.2671 12.8675 24.5535M12.8675 24.5535L12.8817 24.5694L12.8841 24.5721L23.5 36.547V33.5003M26.5 36.547L37.1324 24.5535C38.2728 23.2672 39.0012 21.6834 39.3176 20.0172C32.1788 20.3726 26.5 26.2732 26.5 33.5003V36.547Z" fill="url(#paint0_linear_1875_28513)"/>
<defs>
<linearGradient id="paint0_linear_1875_28513" x1="39.759" y1="34.0002" x2="4.19014" y2="23.3489" gradientUnits="userSpaceOnUse">
<stop stop-color="#3A64FA"/>
<stop offset="0.942707" stop-color="#F963BC"/>
</linearGradient>
</defs>
</svg>
