<svg width="51" height="50" viewBox="0 0 51 50" fill="none" xmlns="http://www.w3.org/2000/svg">
<path fill-rule="evenodd" clip-rule="evenodd" d="M32.8663 8.89286C32.8663 3.98147 36.8477 0 41.7591 0C46.6705 0 50.652 3.98147 50.652 8.89285V36.8214C50.652 43.4915 45.4382 49 38.8841 49L1.88403 49V10.0001L26.384 10.0001C27.2125 10.0001 27.884 10.6717 27.884 11.5001C27.884 12.3286 27.2125 13.0001 26.384 13.0001L4.88403 13.0001V46L38.8841 46C43.6716 46 47.652 41.9466 47.652 36.8214V8.89285C47.652 5.63832 45.0137 3 41.7591 3C38.5046 3 35.8663 5.63832 35.8663 8.89286V31.5H35.884C35.884 32.8807 37.0033 34 38.384 34C39.7627 34 40.8807 32.8841 40.884 31.5063C40.884 31.5058 40.884 31.5054 40.884 31.5049V31.5017L40.884 31.5003V11.5C40.884 10.6716 41.5556 10 42.384 10C43.2125 10 43.884 10.6716 43.884 11.5L43.884 31.5061L43.884 31.5075L43.884 31.5107L43.884 31.8931C43.884 32.0391 43.8632 32.1802 43.8243 32.3137C43.431 34.9654 41.1451 37 38.384 37C35.6585 37 33.396 35.0174 32.9599 32.4158C32.8994 32.2529 32.8663 32.0768 32.8663 31.8929V8.89286ZM18.884 17C19.7125 17 20.384 17.6716 20.384 18.5V19.9727C21.6894 20.2546 22.915 20.9097 23.9447 21.9394C24.5305 22.5252 24.5305 23.4749 23.9447 24.0607C23.3589 24.6465 22.4092 24.6465 21.8234 24.0607C20.7115 22.9488 19.2583 22.5777 17.7478 22.9553C16.9839 23.1463 16.4204 23.505 16.1075 23.8875C15.8283 24.2287 15.7105 24.6212 15.8393 25.1364C15.9292 25.4963 16.1115 25.7981 16.5422 26.0949C17.0231 26.4265 17.8319 26.76 19.1782 27.0293C20.94 27.3816 22.3778 27.9591 23.3848 28.899C24.4526 29.8956 24.884 31.1548 24.884 32.5001C24.884 35.0307 22.9097 37.1883 20.384 37.816V39C20.384 39.8284 19.7125 40.5 18.884 40.5C18.0556 40.5 17.384 39.8284 17.384 39V37.8864C15.1975 37.539 13.6941 36.4315 12.3234 35.0608C11.7376 34.475 11.7376 33.5253 12.3234 32.9395C12.9092 32.3537 13.8589 32.3537 14.4447 32.9395C15.7812 34.276 16.9222 35.0001 18.884 35.0001C20.686 35.0001 21.884 33.6086 21.884 32.5001C21.884 31.8454 21.7019 31.4319 21.3379 31.0922C20.9131 30.6957 20.1008 30.2732 18.5899 29.971C17.057 29.6644 15.7977 29.2255 14.8394 28.5649C13.8307 27.8695 13.2026 26.9592 12.9288 25.8639C12.5576 24.3789 12.9398 23.0215 13.7856 21.9877C14.5977 20.9952 15.7842 20.3539 17.0202 20.0449C17.1414 20.0146 17.2627 19.9873 17.384 19.9629V18.5C17.384 17.6716 18.0556 17 18.884 17Z" fill="url(#paint0_linear_1875_28516)"/>
<defs>
<linearGradient id="paint0_linear_1875_28516" x1="40.9571" y1="37.0811" x2="4.24175" y2="28.8183" gradientUnits="userSpaceOnUse">
<stop stop-color="#3A64FA"/>
<stop offset="0.942707" stop-color="#F963BC"/>
</linearGradient>
</defs>
</svg>
