<svg width="50" height="50" viewBox="0 0 50 50" fill="none" xmlns="http://www.w3.org/2000/svg">
<path fill-rule="evenodd" clip-rule="evenodd" d="M7.09666 6.22438C12.6655 0.591873 21.6945 0.591873 27.2633 6.22438C32.8322 11.8569 32.8322 20.989 27.2633 26.6215L17.18 36.82L7.09666 26.6215C1.52778 20.989 1.52778 11.8569 7.09666 6.22438ZM24.7425 8.77402C20.5658 4.54964 13.7942 4.54964 9.61749 8.77402C5.44084 12.9984 5.44084 19.8475 9.61749 24.0719L17.18 31.7208L24.7425 24.0719C28.9192 19.8475 28.9192 12.9984 24.7425 8.77402Z" fill="url(#paint0_linear_1875_28519)"/>
<path d="M20.2212 19.9094C18.4887 21.6349 15.6799 21.6349 13.9474 19.9094C12.215 18.1839 12.215 15.3863 13.9474 13.6608C15.6799 11.9353 18.4887 11.9353 20.2212 13.6608C21.9536 15.3863 21.9536 18.1839 20.2212 19.9094Z" fill="url(#paint1_linear_1875_28519)"/>
<path fill-rule="evenodd" clip-rule="evenodd" d="M41.146 31.5063C41.146 25.2629 36.6307 20.046 30.6356 18.9082L31.3244 15.3077C38.7319 16.7135 44.4072 22.9827 44.8038 30.6474C46.7314 32.4277 48 34.8291 48 37.7896C48 43.4394 43.3759 48 37.696 48L16.007 48C8.28197 48 2 41.7984 2 34.1243C2 30.5194 3.39009 27.2334 5.66257 24.7688L8.37299 27.248C6.6976 29.065 5.68 31.4758 5.68 34.1243C5.68 39.7526 10.2927 44.3347 16.007 44.3347L37.696 44.3347C41.3652 44.3347 44.32 41.3936 44.32 37.7896C44.32 35.7902 43.4106 34.1863 41.8395 32.9397L41.146 32.3894V31.5063Z" fill="url(#paint2_linear_1875_28519)"/>
<defs>
<linearGradient id="paint0_linear_1875_28519" x1="38.8554" y1="36.8108" x2="4.23982" y2="28.9835" gradientUnits="userSpaceOnUse">
<stop stop-color="#3A64FA"/>
<stop offset="0.942707" stop-color="#F963BC"/>
</linearGradient>
<linearGradient id="paint1_linear_1875_28519" x1="38.8554" y1="36.8108" x2="4.23982" y2="28.9835" gradientUnits="userSpaceOnUse">
<stop stop-color="#3A64FA"/>
<stop offset="0.942707" stop-color="#F963BC"/>
</linearGradient>
<linearGradient id="paint2_linear_1875_28519" x1="38.8554" y1="36.8108" x2="4.23982" y2="28.9835" gradientUnits="userSpaceOnUse">
<stop stop-color="#3A64FA"/>
<stop offset="0.942707" stop-color="#F963BC"/>
</linearGradient>
</defs>
</svg>
