<svg width="50" height="50" viewBox="0 0 50 50" fill="none" xmlns="http://www.w3.org/2000/svg">
<path fill-rule="evenodd" clip-rule="evenodd" d="M15.7537 11.4885C15.7537 5.13042 20.9524 0 27.3358 0C33.2385 0 38.1258 4.38475 38.8307 10.0733C44.5509 10.7643 49 15.5953 49 21.4771C49 27.8351 43.8013 32.9656 37.4179 32.9656L37.3896 32.9655L33.2463 32.9655V37.4831L33.2463 37.5114C33.2463 43.8695 28.0476 49 21.6642 49C15.7615 49 10.8742 44.6153 10.1693 38.9267C4.44906 38.2357 0 33.4047 0 27.523C1.3113e-06 21.1649 5.1987 16.0345 11.5821 16.0345L11.6071 16.0345H15.7537V11.5133L15.7537 11.4885ZM15.7537 19.0345H11.6071L11.5821 19.0345C6.82912 19.0345 3 22.848 3 27.523C3 31.9539 6.43979 35.6112 10.8457 35.9808C12.0386 36.0808 13.0097 37.029 13.113 38.2376C13.4835 42.5735 17.1604 46 21.6642 46C26.4172 46 30.2463 42.1865 30.2463 37.5116C30.2463 37.5116 30.2463 37.5116 30.2463 37.5116L30.2463 37.4867V32.9655L15.7537 32.9655V19.0345ZM33.2463 29.9655V16.0345L18.7537 16.0345L18.7537 11.5133L18.7537 11.4885C18.7537 11.4885 18.7537 11.4885 18.7537 11.4885C18.7537 6.81363 22.5828 3 27.3358 3C31.8396 3 35.5165 6.42655 35.887 10.7624C35.9903 11.971 36.9614 12.9192 38.1543 13.0192C42.5602 13.3888 46 17.0461 46 21.4771C46 26.152 42.1709 29.9655 37.4179 29.9656L37.3963 29.9655H33.2463ZM30.2463 29.9655L18.7537 29.9655V19.0345L30.2463 19.0345L30.2463 29.9655Z" fill="url(#paint0_linear_1875_28507)"/>
<defs>
<linearGradient id="paint0_linear_1875_28507" x1="39.259" y1="37.0811" x2="2.38589" y2="28.7433" gradientUnits="userSpaceOnUse">
<stop stop-color="#3A64FA"/>
<stop offset="0.942707" stop-color="#F963BC"/>
</linearGradient>
</defs>
</svg>
