<svg width="4280" height="1570" viewBox="0 0 4280 1570" fill="none" xmlns="http://www.w3.org/2000/svg">
<g clip-path="url(#clip0_3539_37537)">
<path d="M2047.5 1082.11L1984.71 853.613C1980.09 847.3 1977.55 839.134 1977.55 830.694L1977.55 796.11L2269.22 796.11L2215.34 1051.43C2208.24 1084.3 2183.86 1107.22 2155.98 1107.22L2093.46 1107.22C2075.94 1107.22 2059.22 1098.09 2047.56 1082.11L2047.5 1082.11Z" fill="#0D091E"/>
<path d="M2460.14 1156.23L2301.63 978.352C2293.33 968.986 2288.67 956.933 2288.67 944.446L2288.67 754.443L2880.33 754.443L2823.03 1110.85C2810.22 1159.43 2766.17 1193.33 2715.78 1193.33L2543 1193.33C2511.32 1193.33 2481.18 1179.83 2460.14 1156.23Z" fill="url(#paint0_linear_3539_37537)"/>
<path d="M1714.42 1109.01L1872.93 931.129C1881.23 921.763 1885.89 909.711 1885.89 897.223L1885.89 707.221H1294.22L1351.52 1063.63C1364.34 1112.2 1408.39 1146.11 1458.77 1146.11H1631.56C1663.23 1146.11 1693.37 1132.61 1714.42 1109.01Z" fill="#0D091E"/>
<path d="M2782.27 1184.83L2677.94 905.339C2672.31 897.617 2669.22 887.628 2669.22 877.304L2669.22 835L3052.56 835L2986.87 1147.32C2978.22 1187.52 2948.49 1215.56 2914.51 1215.56L2838.29 1215.56C2816.94 1215.56 2796.55 1204.39 2782.34 1184.83L2782.27 1184.83Z" fill="#110C26"/>
<path d="M587.031 1285.32L435.727 934.418C428.656 924.723 424.776 912.183 424.776 899.221L424.776 846.11L1374.78 846.11L1199.78 1285.32C1184.5 1323.89 1164.39 1323.89 1121.71 1323.89L657.389 1323.89C630.573 1323.89 604.965 1309.87 587.117 1285.32L587.031 1285.32Z" fill="url(#paint1_linear_3539_37537)"/>
<path d="M2302.56 954.411L2384.74 834.192C2389.06 827.841 2391.44 819.718 2391.44 811.226L2391.44 776.667L1163.67 776.667L1193.37 923.691C1200.01 956.552 1222.85 979.444 1248.97 979.444L2259.63 979.444C2276.04 979.444 2291.66 970.288 2302.62 954.337L2302.56 954.411Z" fill="#110C26"/>
<path d="M2107.21 977.199L2025.05 795.581C2015.98 783.093 2010.89 767.024 2010.89 750.373L2010.89 682.222L2538.67 682.222L2476.04 916.696C2462.04 981.458 2413.89 1026.67 2358.83 1026.67L2197.77 1026.67C2163.16 1026.67 2130.21 1008.66 2107.21 977.199Z" fill="#110C26"/>
<path d="M2624.21 1084.66L2542.55 992.829C2538.26 987.978 2535.89 981.773 2535.89 975.286L2535.89 948.888L3369.6 948.888L3340.08 1061.19C3333.48 1086.29 3310.79 1103.78 3284.83 1103.78L2666.94 1103.78C2650.63 1103.78 2635.11 1096.79 2624.21 1084.6L2624.21 1084.66Z" fill="#110C26"/>
<g filter="url(#filter0_d_3539_37537)">
<path d="M561.273 1241.01L586.344 1228.78L592.762 1237.61L572.994 1256.21L547.749 1255.39L561.273 1241.01Z" fill="#4FBEE3"/>
<path d="M561.27 1241.01L562.424 1214.97L600.445 1208.36L586.341 1228.78L561.27 1241.01Z" fill="#50CCF5"/>
<path d="M547.755 1255.39L550.163 1236.95L562.433 1214.97L561.279 1241.01L547.755 1255.39Z" fill="#39B2DB"/>
<path d="M601.541 1223.47L592.769 1237.61L586.351 1228.78C589.108 1224.07 600.451 1208.36 600.451 1208.36L601.539 1223.46L601.541 1223.47Z" fill="#39B3DB"/>
</g>
<path d="M445.735 1387.38L719.109 1079.43C733.479 1063.23 741.443 1042.35 741.443 1020.69C741.443 971.82 701.882 932.222 653.059 932.222L-335.851 932.222C-394.369 932.222 -437.132 987.676 -422.243 1044.34L-352.817 1308.87C-330.743 1393.01 -254.739 1451.67 -167.913 1451.67L302.728 1451.67C357.351 1451.67 409.377 1428.27 445.648 1387.38L445.735 1387.38Z" fill="url(#paint2_radial_3539_37537)"/>
<path d="M1383 1176.9L1486.39 1031.51C1493.18 1023.86 1497 1014.01 1497 1003.8L1497 921.111L816.442 921.111L907.378 1139.81C917.871 1179.51 953.941 1207.22 995.198 1207.22L1315.16 1207.22C1341.09 1207.22 1365.77 1196.18 1383 1176.9Z" fill="url(#paint3_radial_3539_37537)"/>
<g filter="url(#filter1_d_3539_37537)">
<path d="M1087.02 930.871L1110.11 919.606L1116.03 927.736L1097.82 944.872L1074.56 944.115L1087.02 930.871Z" fill="#4FBEE3"/>
<path d="M1087.02 930.87L1088.08 906.878L1123.1 900.788L1110.11 919.605L1087.02 930.87Z" fill="#50CCF5"/>
<path d="M1074.56 944.113L1076.78 927.131L1088.09 906.877L1087.02 930.869L1074.56 944.113Z" fill="#39B2DB"/>
<path d="M1124.11 914.706L1116.03 927.735L1110.12 919.604C1112.66 915.26 1123.11 900.789 1123.11 900.789L1124.11 914.703L1124.11 914.706Z" fill="#39B3DB"/>
</g>
<path d="M484.796 1180.87L655.318 988.186C664.259 978.076 669.221 965.007 669.221 951.445C669.221 920.868 644.559 896.111 614.1 896.111L141.641 896.111C105.09 896.111 78.4632 930.781 87.7483 966.289L131.079 1131.8C144.834 1184.42 192.242 1221.11 246.43 1221.11L395.63 1221.11C429.724 1221.11 462.148 1206.46 484.796 1180.92L484.796 1180.87Z" fill="url(#paint4_linear_3539_37537)"/>
<path d="M924.776 921.11L577.554 921.11L633.408 1112.45C649.776 1152.3 674.967 1185 719.218 1185L784.817 1185C833.109 1185 857.284 1178.8 870.609 1130.83C891.443 1055.83 905.772 1001.51 924.776 921.11Z" fill="url(#paint5_linear_3539_37537)"/>
<path d="M3682.9 1348.7L3504.66 1148.23C3495.29 1137.68 3490.1 1124.09 3490.1 1109.99C3490.1 1078.18 3515.89 1052.4 3547.73 1052.4L4263.73 1052.4C4301.88 1052.4 4329.76 1088.5 4320.06 1125.39L4263.73 1348.7C4252.55 1383.61 4223.39 1393.34 4190.39 1390.56L3776.13 1390.56C3740.52 1390.56 3706.6 1375.33 3682.95 1348.7L3682.9 1348.7Z" fill="url(#paint6_linear_3539_37537)"/>
<path d="M4043.69 1482.25L3833.61 1245.43C3822.56 1232.97 3816.44 1216.91 3816.44 1200.25C3816.44 1162.67 3846.84 1132.22 3884.36 1132.22L4728.32 1132.22C4773.29 1132.22 4806.15 1174.87 4794.71 1218.45L4728.32 1482.25C4715.14 1523.49 4680.76 1534.98 4641.87 1531.69L4153.59 1531.69C4111.61 1531.69 4071.63 1513.7 4043.76 1482.25L4043.69 1482.25Z" fill="url(#paint7_radial_3539_37537)"/>
<path d="M3586.64 1314.57L3745.15 1136.69C3753.45 1127.32 3758.11 1115.27 3758.11 1102.78L3758.11 912.78L3166.44 912.78L3223.75 1269.19C3236.56 1317.76 3280.61 1351.67 3331 1351.67L3503.78 1351.67C3535.45 1351.67 3565.6 1338.16 3586.64 1314.57Z" fill="#110C26"/>
<path d="M3237.91 1314.57L3079.4 1136.69C3071.1 1127.32 3066.44 1115.27 3066.44 1102.78L3066.44 912.78L3658.11 912.78L3600.81 1269.19C3587.99 1317.76 3543.94 1351.67 3493.56 1351.67L3320.77 1351.67C3289.1 1351.67 3258.96 1338.16 3237.91 1314.57Z" fill="url(#paint8_radial_3539_37537)"/>
<rect x="3574.78" y="1026.67" width="583.333" height="150" transform="rotate(-180 3574.78 1026.67)" fill="#110C26"/>
<g filter="url(#filter2_d_3539_37537)">
<path d="M4005.22 1136.39L4020.77 1117.27L4029.19 1121.96L4020.26 1144.22L3999.72 1152.94L4005.22 1136.39Z" fill="#4FBEE3"/>
<path d="M4005.22 1136.39L3996.46 1115.09L4024.48 1095.66L4020.77 1117.27L4005.22 1136.39Z" fill="#50CCF5"/>
<path d="M3999.73 1152.94L3994.8 1137.27L3996.47 1115.09L4005.22 1136.39L3999.73 1152.94Z" fill="#39B2DB"/>
<path d="M4030.97 1107.36L4029.2 1121.96L4020.77 1117.27C4021.23 1112.46 4024.49 1095.66 4024.49 1095.66L4030.97 1107.36L4030.97 1107.36Z" fill="#39B3DB"/>
</g>
<path d="M4078.36 1213.17L3902.97 1015.55C3893.77 1005.18 3888.66 991.773 3888.66 977.863C3888.66 946.503 3914.03 921.111 3945.36 921.111L4431.32 921.111C4468.91 921.111 4496.3 956.67 4486.75 993.089L4442.18 1162.84C4428.03 1216.81 4379.27 1254.44 4323.54 1254.44L4170.07 1254.44C4135 1254.44 4101.65 1239.42 4078.36 1213.22L4078.36 1213.17Z" fill="#1B1535"/>
<path d="M3743.43 1221.49L3598.28 1058.24C3590.64 1049.63 3586.45 1038.59 3586.45 1027.08L3586.45 980.216L4047.67 980.216L3995.21 1179.9C3983.5 1224.52 3943.16 1255.62 3897 1255.62L3819.31 1255.62C3790.32 1255.62 3762.66 1243.19 3743.43 1221.55L3743.43 1221.49Z" fill="url(#paint9_linear_3539_37537)"/>
<g filter="url(#filter3_d_3539_37537)">
<path d="M3708.33 997.586L3718.92 984.567L3724.65 987.76L3718.57 1002.92L3704.58 1008.86L3708.33 997.586Z" fill="#4FBEE3"/>
<path d="M3708.33 997.586L3702.36 983.08L3721.44 969.848L3718.92 984.566L3708.33 997.586Z" fill="#50CCF5"/>
<path d="M3704.58 1008.86L3701.23 998.185L3702.37 983.08L3708.33 997.586L3704.58 1008.86Z" fill="#39B2DB"/>
<path d="M3725.86 977.819L3724.65 987.759L3718.92 984.566C3719.23 981.294 3721.44 969.85 3721.44 969.85L3725.86 977.818L3725.86 977.819Z" fill="#39B3DB"/>
</g>
<path d="M3309.21 1121.28L3156.65 949.362C3148.62 940.297 3144.22 928.678 3144.22 916.549L3144.22 779.444L3713.66 779.444L3658.52 1077.49C3646.21 1124.47 3603.82 1157.22 3555.3 1157.22L3388.97 1157.22C3358.5 1157.22 3329.42 1144.14 3309.21 1121.34L3309.21 1121.28Z" fill="url(#paint10_linear_3539_37537)"/>
<path d="M3436.14 1125.6C3413.21 1078.8 3360.89 953.939 3360.89 953.939L3360.89 901.667L3730.33 901.667L3673.48 1086.98C3654.66 1142.7 3625.65 1157.22 3583.3 1157.22L3518.63 1157.22C3484.04 1157.22 3449.17 1152.18 3436.14 1125.6Z" fill="#211936"/>
<path d="M1663.67 996.111C1693.42 934.229 1762.28 791.944 1762.28 791.944L1750.18 776.264L1322.29 776.264L1392.83 986.389C1403.94 1023.89 1435.13 1051.67 1481.29 1051.67L1583.99 1051.67C1620.04 1051.67 1643.64 1037.78 1663.67 996.111Z" fill="url(#paint11_linear_3539_37537)"/>
<path d="M1599.23 1017.64C1623.95 967.28 1680.33 832.917 1680.33 832.917L1680.33 776.667L1327.56 776.667L1388.83 976.083C1409.11 1036.04 1440.37 1051.67 1486.02 1051.67L1510.33 1051.67C1547.61 1051.67 1585.19 1046.24 1599.23 1017.64Z" fill="#211936"/>
<path d="M2916.84 1133.61L2865.97 995.414C2862.2 991.183 2860.13 985.71 2860.13 980.053L2860.13 956.874L3137.68 960.001L3082.75 1128.17C3072.4 1155.83 3057.03 1165.56 3034.25 1165.56L2960.94 1165.56C2938.04 1165.56 2925.19 1152.74 2916.84 1133.61Z" fill="url(#paint12_linear_3539_37537)"/>
<path d="M2344.93 1057.19L2276.96 804.219C2271.97 797.23 2269.22 788.189 2269.22 778.845L2269.22 740.555L2560.89 740.555L2526.57 1023.23C2518.89 1059.63 2492.5 1085 2462.33 1085L2394.66 1085C2375.71 1085 2357.61 1074.9 2344.99 1057.19L2344.93 1057.19Z" fill="url(#paint13_linear_3539_37537)"/>
<path d="M1285.18 1057.19L1353.15 804.219C1358.15 797.23 1360.89 788.189 1360.89 778.845L1360.89 740.555L1069.22 740.555L1103.54 1023.23C1111.22 1059.63 1137.61 1085 1167.78 1085L1235.45 1085C1254.4 1085 1272.51 1074.9 1285.12 1057.19L1285.18 1057.19Z" fill="url(#paint14_linear_3539_37537)"/>
<path d="M4280.33 -10.4997L-0.223999 -10.5005L-0.218738 982.222L777.559 982.222L788.67 929.443L1108.11 929.443L1108.11 832.224L1299.78 830.833L1380.34 832.224L1660.89 882.222L1705.34 793.334L1880.34 793.334L1923.97 844.661C1926.25 847.343 1929.59 848.889 1933.11 848.889L2405.33 848.889L2441.44 982.222L3129.34 982.222L3174.21 842.634C3176.2 836.431 3181.97 832.224 3188.49 832.224L3297 832.224L3372 982.222L4280.33 982.222L4280.33 -10.4997Z" fill="#211936"/>
</g>
<defs>
<filter id="filter0_d_3539_37537" x="531.749" y="1192.36" width="85.7913" height="79.853" filterUnits="userSpaceOnUse" color-interpolation-filters="sRGB">
<feFlood flood-opacity="0" result="BackgroundImageFix"/>
<feColorMatrix in="SourceAlpha" type="matrix" values="0 0 0 0 0 0 0 0 0 0 0 0 0 0 0 0 0 0 127 0" result="hardAlpha"/>
<feOffset/>
<feGaussianBlur stdDeviation="8"/>
<feComposite in2="hardAlpha" operator="out"/>
<feColorMatrix type="matrix" values="0 0 0 0 0.313726 0 0 0 0 0.8 0 0 0 0 0.960784 0 0 0 1 0"/>
<feBlend mode="normal" in2="BackgroundImageFix" result="effect1_dropShadow_3539_37537"/>
<feBlend mode="normal" in="SourceGraphic" in2="effect1_dropShadow_3539_37537" result="shape"/>
</filter>
<filter id="filter1_d_3539_37537" x="1059.82" y="886.048" width="79.0324" height="73.5636" filterUnits="userSpaceOnUse" color-interpolation-filters="sRGB">
<feFlood flood-opacity="0" result="BackgroundImageFix"/>
<feColorMatrix in="SourceAlpha" type="matrix" values="0 0 0 0 0 0 0 0 0 0 0 0 0 0 0 0 0 0 127 0" result="hardAlpha"/>
<feOffset/>
<feGaussianBlur stdDeviation="7.36991"/>
<feComposite in2="hardAlpha" operator="out"/>
<feColorMatrix type="matrix" values="0 0 0 0 0.313726 0 0 0 0 0.8 0 0 0 0 0.960784 0 0 0 1 0"/>
<feBlend mode="normal" in2="BackgroundImageFix" result="effect1_dropShadow_3539_37537"/>
<feBlend mode="normal" in="SourceGraphic" in2="effect1_dropShadow_3539_37537" result="shape"/>
</filter>
<filter id="filter2_d_3539_37537" x="3971.31" y="1072.16" width="83.1641" height="104.281" filterUnits="userSpaceOnUse" color-interpolation-filters="sRGB">
<feFlood flood-opacity="0" result="BackgroundImageFix"/>
<feColorMatrix in="SourceAlpha" type="matrix" values="0 0 0 0 0 0 0 0 0 0 0 0 0 0 0 0 0 0 127 0" result="hardAlpha"/>
<feOffset/>
<feGaussianBlur stdDeviation="11.7487"/>
<feComposite in2="hardAlpha" operator="out"/>
<feColorMatrix type="matrix" values="0 0 0 0 0.313726 0 0 0 0 0.8 0 0 0 0 0.960784 0 0 0 1 0"/>
<feBlend mode="normal" in2="BackgroundImageFix" result="effect1_dropShadow_3539_37537"/>
<feBlend mode="normal" in="SourceGraphic" in2="effect1_dropShadow_3539_37537" result="shape"/>
</filter>
<filter id="filter3_d_3539_37537" x="3685.23" y="953.848" width="56.6284" height="71.0083" filterUnits="userSpaceOnUse" color-interpolation-filters="sRGB">
<feFlood flood-opacity="0" result="BackgroundImageFix"/>
<feColorMatrix in="SourceAlpha" type="matrix" values="0 0 0 0 0 0 0 0 0 0 0 0 0 0 0 0 0 0 127 0" result="hardAlpha"/>
<feOffset/>
<feGaussianBlur stdDeviation="8"/>
<feComposite in2="hardAlpha" operator="out"/>
<feColorMatrix type="matrix" values="0 0 0 0 0.313726 0 0 0 0 0.8 0 0 0 0 0.960784 0 0 0 1 0"/>
<feBlend mode="normal" in2="BackgroundImageFix" result="effect1_dropShadow_3539_37537"/>
<feBlend mode="normal" in="SourceGraphic" in2="effect1_dropShadow_3539_37537" result="shape"/>
</filter>
<linearGradient id="paint0_linear_3539_37537" x1="2502.56" y1="1060" x2="2449.78" y2="1193.33" gradientUnits="userSpaceOnUse">
<stop offset="0.529456" stop-color="#0D091E"/>
<stop offset="1" stop-color="#101532"/>
</linearGradient>
<linearGradient id="paint1_linear_3539_37537" x1="1072" y1="1132.22" x2="1215.37" y2="1301.45" gradientUnits="userSpaceOnUse">
<stop offset="0.881384" stop-color="#0D091E"/>
<stop offset="1" stop-color="#101532"/>
</linearGradient>
<radialGradient id="paint2_radial_3539_37537" cx="0" cy="0" r="1" gradientUnits="userSpaceOnUse" gradientTransform="translate(157.941 1073.68) rotate(58.196) scale(518.441 1074.8)">
<stop offset="0.690389" stop-color="#110C26"/>
<stop offset="1" stop-color="#3F3372"/>
</radialGradient>
<radialGradient id="paint3_radial_3539_37537" cx="0" cy="0" r="1" gradientUnits="userSpaceOnUse" gradientTransform="translate(1156.62 999.025) rotate(73.5994) scale(280.73 596.224)">
<stop offset="0.73479" stop-color="#110C26"/>
<stop offset="1" stop-color="#3F3372"/>
</radialGradient>
<linearGradient id="paint4_linear_3539_37537" x1="85.8814" y1="1058.61" x2="669.221" y2="1058.61" gradientUnits="userSpaceOnUse">
<stop offset="0.41" stop-color="#211937"/>
<stop offset="1" stop-color="#110C26"/>
</linearGradient>
<linearGradient id="paint5_linear_3539_37537" x1="552.554" y1="1052.97" x2="1072" y2="1052.97" gradientUnits="userSpaceOnUse">
<stop offset="0.41" stop-color="#211937"/>
<stop offset="1" stop-color="#110C26"/>
</linearGradient>
<linearGradient id="paint6_linear_3539_37537" x1="3790.84" y1="1288.14" x2="3742.49" y2="1411.63" gradientUnits="userSpaceOnUse">
<stop offset="0.529456" stop-color="#0D091E"/>
<stop offset="1" stop-color="#101532"/>
</linearGradient>
<radialGradient id="paint7_radial_3539_37537" cx="0" cy="0" r="1" gradientUnits="userSpaceOnUse" gradientTransform="translate(4245.36 1299.58) rotate(-69.3465) scale(315.613 677.549)">
<stop offset="0.690389" stop-color="#110C26"/>
<stop offset="1" stop-color="#3F3372"/>
</radialGradient>
<radialGradient id="paint8_radial_3539_37537" cx="0" cy="0" r="1" gradientUnits="userSpaceOnUse" gradientTransform="translate(3535.89 993.334) rotate(162.065) scale(604.37 914.543)">
<stop offset="0.690389" stop-color="#110C26"/>
<stop offset="1" stop-color="#3F3372"/>
</radialGradient>
<linearGradient id="paint9_linear_3539_37537" x1="4128.23" y1="1117.83" x2="3586.39" y2="1117.83" gradientUnits="userSpaceOnUse">
<stop offset="0.41" stop-color="#211937"/>
<stop offset="1" stop-color="#110C26"/>
</linearGradient>
<linearGradient id="paint10_linear_3539_37537" x1="3713.66" y1="1012.12" x2="3144.16" y2="1012.12" gradientUnits="userSpaceOnUse">
<stop offset="0.41" stop-color="#211937"/>
<stop offset="1" stop-color="#110C26"/>
</linearGradient>
<linearGradient id="paint11_linear_3539_37537" x1="1330.62" y1="913.874" x2="1872.46" y2="913.874" gradientUnits="userSpaceOnUse">
<stop offset="0.476236" stop-color="#211937"/>
<stop offset="1" stop-color="#110C26"/>
</linearGradient>
<linearGradient id="paint12_linear_3539_37537" x1="3080.29" y1="1024.89" x2="2862.35" y2="1024.89" gradientUnits="userSpaceOnUse">
<stop offset="0.41" stop-color="#211937"/>
<stop offset="1" stop-color="#110C26"/>
</linearGradient>
<linearGradient id="paint13_linear_3539_37537" x1="2560.83" y1="852.917" x2="2272.16" y2="852.917" gradientUnits="userSpaceOnUse">
<stop offset="0.41" stop-color="#211937"/>
<stop offset="1" stop-color="#110C26"/>
</linearGradient>
<linearGradient id="paint14_linear_3539_37537" x1="1069.28" y1="852.917" x2="1357.95" y2="852.917" gradientUnits="userSpaceOnUse">
<stop offset="0.41" stop-color="#211937"/>
<stop offset="1" stop-color="#110C26"/>
</linearGradient>
<clipPath id="clip0_3539_37537">
<rect width="4280" height="1570" fill="white"/>
</clipPath>
</defs>
</svg>
