<svg version="1.1" id="Layer_1" xmlns="http://www.w3.org/2000/svg" xmlns:xlink="http://www.w3.org/1999/xlink" x="0px" y="0px"
	 viewBox="0 0 1371 3130.7" style="enable-background:new 0 0 1371 3130.7;" xml:space="preserve">
<path style="fill:#39B3DB;" d="M1336.4,715.1l1.3-4.1l-3.4,0.8l-1.2,3.7L1336.4,715.1z"/>
<path style="fill:#39B3DB;" d="M1211.3,466l4.1-1.3l-2.7-2.3l-3.7,1.1L1211.3,466z"/>
<path style="fill:#39B3DB;" d="M1263,627.2l0.4-4.3l-3.2,1.5l-0.4,3.9L1263,627.2z"/>
<path style="fill:#39B3DB;" d="M1075.3,555.4l3-1.9l-1.9-1.4c-1,0.6-4.4,3.1-4.4,3.1L1075.3,555.4z"/>
<g>
	<path style="fill:#4FBEE3;" d="M1352.8,594.2l-3.6,0.7l-0.5-2.6l3.1-2.6l3.1,2.3L1352.8,594.2z"/>
	<path style="fill:#50CCF5;" d="M1352.8,594.2l-1.1,5.9l-4.9-1.7l2.5-3.5L1352.8,594.2z"/>
	<path style="fill:#39B2DB;" d="M1355,592l-1,4l-2.3,4l1.1-5.9L1355,592z"/>
	<path style="fill:#39B3DB;" d="M1347.1,594.8l1.6-2.5l0.5,2.6c-0.5,0.9-2.5,3.5-2.5,3.5L1347.1,594.8L1347.1,594.8z"/>
</g>
<g>
	<path style="fill:#4FBEE3;" d="M1320.3,485.7l5.4-2.8l-0.7-2.3l-5.8,1.1l-3.1,4.5L1320.3,485.7z"/>
	<path style="fill:#50CCF5;" d="M1320.3,485.7l4.7,3.1l6-5.8l-5.4-0.2L1320.3,485.7z"/>
	<path style="fill:#39B2DB;" d="M1316.1,486.2l3.5,1.9l5.4,0.7l-4.7-3.1L1316.1,486.2z"/>
	<path style="fill:#39B3DB;" d="M1328.5,480.9l-3.6-0.3l0.7,2.3c1.2,0.1,5.4,0.2,5.4,0.2L1328.5,480.9L1328.5,480.9z"/>
</g>
<g>
	<path style="fill:#4FBEE3;" d="M1225.5,553.8l4.7-3.8l-1.2-2.1l-5.5,2.2l-2.1,5L1225.5,553.8z"/>
	<path style="fill:#50CCF5;" d="M1225.5,553.8l5.2,2.1l4.8-6.9l-5.3,0.9L1225.5,553.8z"/>
	<path style="fill:#39B2DB;" d="M1221.4,555.2l3.8,1.2l5.4-0.4l-5.2-2.1L1221.4,555.2z"/>
	<path style="fill:#39B3DB;" d="M1232.6,547.5l-3.6,0.4l1.1,2.1c1.2-0.1,5.3-0.9,5.3-0.9L1232.6,547.5L1232.6,547.5z"/>
</g>
<g>
	<path style="fill:#4FBEE3;" d="M1337.7,489.4l-8.9,4.1l-2.2-3.1l7.1-6.4l8.8,0.5L1337.7,489.4z"/>
	<path style="fill:#50CCF5;" d="M1337.7,489.4l-0.6,9.1l-13.4,2l5.1-7.1L1337.7,489.4z"/>
	<path style="fill:#39B2DB;" d="M1342.6,484.5l-1,6.4l-4.5,7.6l0.6-9.1L1342.6,484.5z"/>
	<path style="fill:#39B3DB;" d="M1323.5,495.3l3.2-4.9l2.2,3.1c-1,1.6-5.1,7.1-5.1,7.1L1323.5,495.3L1323.5,495.3z"/>
</g>
<g>
	<path style="fill:#4FBEE3;" d="M1130.7,618.8l2.7,0.8l-0.6,2l-3.2,0.7l-1.3-2.8L1130.7,618.8z"/>
	<path style="fill:#50CCF5;" d="M1130.7,618.8l3-3.7l2.8,3l-3,1.5L1130.7,618.8z"/>
	<path style="fill:#39B2DB;" d="M1128.4,619.5l2.2-2.5l3.1-2l-3,3.7L1128.4,619.5z"/>
	<path style="fill:#39B3DB;" d="M1134.9,620.4l-2,1.2l0.6-2c0.7-0.4,3-1.5,3-1.5L1134.9,620.4L1134.9,620.4z"/>
</g>
<path style="fill:#39B3DB;" d="M43.6,1402.5l-1.3,4.1l3.4-0.8l1.2-3.7L43.6,1402.5z"/>
<path style="fill:#39B3DB;" d="M168.7,1651.6l-4.1,1.3l2.7,2.3l3.7-1.1L168.7,1651.6z"/>
<path style="fill:#39B3DB;" d="M116.9,1490.4l-0.4,4.3l3.2-1.5l0.4-3.9L116.9,1490.4z"/>
<path style="fill:#39B3DB;" d="M304.7,1562.2l-3,1.9l1.9,1.4c1-0.6,4.4-3.1,4.4-3.1L304.7,1562.2z"/>
<g>
	<path style="fill:#4FBEE3;" d="M27.2,1523.4l3.6-0.7l0.5,2.6l-3.1,2.6l-3.1-2.3L27.2,1523.4z"/>
	<path style="fill:#50CCF5;" d="M27.2,1523.4l1.1-5.9l4.9,1.7l-2.5,3.5L27.2,1523.4z"/>
	<path style="fill:#39B2DB;" d="M25,1525.6l1-4l2.3-4l-1.1,5.9L25,1525.6z"/>
	<path style="fill:#39B3DB;" d="M32.8,1522.8l-1.6,2.5l-0.5-2.6c0.5-0.9,2.5-3.5,2.5-3.5L32.8,1522.8L32.8,1522.8z"/>
</g>
<g>
	<path style="fill:#4FBEE3;" d="M59.7,1631.9l-5.4,2.8l0.7,2.3l5.8-1.1l3.1-4.5L59.7,1631.9z"/>
	<path style="fill:#50CCF5;" d="M59.7,1631.9l-4.7-3.1l-6,5.8l5.4,0.2L59.7,1631.9z"/>
	<path style="fill:#39B2DB;" d="M63.9,1631.4l-3.5-1.9l-5.4-0.7l4.7,3.1L63.9,1631.4z"/>
	<path style="fill:#39B3DB;" d="M51.4,1636.7l3.6,0.3l-0.7-2.3c-1.2-0.1-5.4-0.2-5.4-0.2L51.4,1636.7L51.4,1636.7z"/>
</g>
<g>
	<path style="fill:#4FBEE3;" d="M154.5,1563.8l-4.7,3.8l1.2,2.1l5.5-2.2l2.1-5L154.5,1563.8z"/>
	<path style="fill:#50CCF5;" d="M154.5,1563.8l-5.2-2.1l-4.8,6.9l5.3-0.9L154.5,1563.8z"/>
	<path style="fill:#39B2DB;" d="M158.6,1562.4l-3.8-1.2l-5.4,0.4l5.2,2.1L158.6,1562.4z"/>
	<path style="fill:#39B3DB;" d="M147.4,1570.1l3.6-0.4l-1.1-2.1c-1.2,0.1-5.3,0.9-5.3,0.9L147.4,1570.1L147.4,1570.1z"/>
</g>
<g>
	<path style="fill:#4FBEE3;" d="M42.2,1628.2l8.9-4.1l2.2,3.1l-7.1,6.4l-8.8-0.5L42.2,1628.2z"/>
	<path style="fill:#50CCF5;" d="M42.2,1628.2l0.6-9.1l13.4-2l-5.1,7.1L42.2,1628.2z"/>
	<path style="fill:#39B2DB;" d="M37.4,1633.1l1-6.4l4.5-7.6l-0.6,9.1L37.4,1633.1z"/>
	<path style="fill:#39B3DB;" d="M56.5,1622.3l-3.2,4.9l-2.2-3.1c1-1.6,5.1-7.1,5.1-7.1L56.5,1622.3L56.5,1622.3z"/>
</g>
<g>
	<path style="fill:#4FBEE3;" d="M249.3,1498.8l-2.7-0.8l0.6-2l3.2-0.7l1.3,2.8L249.3,1498.8z"/>
	<path style="fill:#50CCF5;" d="M249.3,1498.8l-3,3.7l-2.8-3l3-1.5L249.3,1498.8z"/>
	<path style="fill:#39B2DB;" d="M251.6,1498.1l-2.2,2.5l-3.1,2l3-3.7L251.6,1498.1z"/>
	<path style="fill:#39B3DB;" d="M245.1,1497.2l2.1-1.2l-0.6,2c-0.7,0.4-3,1.5-3,1.5L245.1,1497.2L245.1,1497.2z"/>
</g>
<path style="fill:#39B3DB;" d="M1318.7,2284.7l1.3-4.1l-3.4,0.8l-1.2,3.7L1318.7,2284.7z"/>
<path style="fill:#39B3DB;" d="M1193.6,2035.6l4.1-1.3l-2.7-2.3l-3.7,1.1L1193.6,2035.6z"/>
<path style="fill:#39B3DB;" d="M1245.3,2196.8l0.4-4.3l-3.2,1.5l-0.4,3.9L1245.3,2196.8z"/>
<path style="fill:#39B3DB;" d="M1057.6,2125l3-1.9l-1.9-1.4c-1,0.6-4.4,3.1-4.4,3.1L1057.6,2125z"/>
<g>
	<path style="fill:#4FBEE3;" d="M1335.1,2163.8l-3.6,0.7l-0.5-2.6l3.1-2.6l3.1,2.3L1335.1,2163.8z"/>
	<path style="fill:#50CCF5;" d="M1335.1,2163.8l-1.1,5.9l-4.9-1.7l2.5-3.5L1335.1,2163.8z"/>
	<path style="fill:#39B2DB;" d="M1337.3,2161.6l-1,4l-2.3,4l1.1-5.9L1337.3,2161.6z"/>
	<path style="fill:#39B3DB;" d="M1329.4,2164.4l1.6-2.5l0.5,2.6c-0.5,0.9-2.5,3.5-2.5,3.5L1329.4,2164.4L1329.4,2164.4z"/>
</g>
<g>
	<path style="fill:#4FBEE3;" d="M1302.6,2055.3l5.4-2.8l-0.7-2.3l-5.8,1.1l-3.1,4.5L1302.6,2055.3z"/>
	<path style="fill:#50CCF5;" d="M1302.6,2055.3l4.7,3.1l6-5.8l-5.4-0.2L1302.6,2055.3z"/>
	<path style="fill:#39B2DB;" d="M1298.4,2055.8l3.5,1.9l5.4,0.7l-4.7-3.1L1298.4,2055.8z"/>
	<path style="fill:#39B3DB;" d="M1310.8,2050.5l-3.6-0.3l0.7,2.3c1.2,0.1,5.4,0.2,5.4,0.2L1310.8,2050.5L1310.8,2050.5z"/>
</g>
<g>
	<path style="fill:#4FBEE3;" d="M1207.8,2123.4l4.7-3.8l-1.2-2.1l-5.5,2.2l-2.1,5L1207.8,2123.4z"/>
	<path style="fill:#50CCF5;" d="M1207.8,2123.4l5.2,2.1l4.8-6.9l-5.3,0.9L1207.8,2123.4z"/>
	<path style="fill:#39B2DB;" d="M1203.7,2124.8l3.8,1.2l5.4-0.4l-5.2-2.1L1203.7,2124.8z"/>
	<path style="fill:#39B3DB;" d="M1214.9,2117.1l-3.6,0.4l1.1,2.1c1.2-0.1,5.3-0.9,5.3-0.9L1214.9,2117.1L1214.9,2117.1z"/>
</g>
<g>
	<path style="fill:#4FBEE3;" d="M1320,2059l-8.9,4.1l-2.2-3.1l7.1-6.4l8.8,0.5L1320,2059z"/>
	<path style="fill:#50CCF5;" d="M1320,2059l-0.6,9.1l-13.4,2l5.1-7.1L1320,2059z"/>
	<path style="fill:#39B2DB;" d="M1324.9,2054.1l-1,6.4l-4.5,7.6l0.6-9.1L1324.9,2054.1z"/>
	<path style="fill:#39B3DB;" d="M1305.8,2064.9l3.2-4.9l2.2,3.1c-1,1.6-5.1,7.1-5.1,7.1L1305.8,2064.9L1305.8,2064.9z"/>
</g>
<g>
	<path style="fill:#4FBEE3;" d="M1113,2188.4l2.7,0.8l-0.6,2l-3.2,0.7l-1.3-2.8L1113,2188.4z"/>
	<path style="fill:#50CCF5;" d="M1113,2188.4l3-3.7l2.8,3l-3,1.5L1113,2188.4z"/>
	<path style="fill:#39B2DB;" d="M1110.7,2189.1l2.2-2.5l3.1-2l-3,3.7L1110.7,2189.1z"/>
	<path style="fill:#39B3DB;" d="M1117.2,2190l-2,1.2l0.6-2c0.7-0.4,3-1.5,3-1.5L1117.2,2190L1117.2,2190z"/>
</g>
<path style="fill:#39B3DB;" d="M41.7,2622.2l-1.3,4.1l3.4-0.8l1.2-3.7L41.7,2622.2z"/>
<path style="fill:#39B3DB;" d="M166.8,2871.4l-4.1,1.3l2.7,2.3l3.7-1.1L166.8,2871.4z"/>
<path style="fill:#39B3DB;" d="M115,2710.2l-0.4,4.3l3.2-1.5l0.4-3.9L115,2710.2z"/>
<path style="fill:#39B3DB;" d="M302.8,2782l-3,1.9l1.9,1.4c1-0.6,4.4-3.1,4.4-3.1L302.8,2782z"/>
<g>
	<path style="fill:#4FBEE3;" d="M25.3,2743.2l3.6-0.7l0.5,2.6l-3.1,2.6l-3.1-2.3L25.3,2743.2z"/>
	<path style="fill:#50CCF5;" d="M25.3,2743.2l1.1-5.9l4.9,1.7l-2.5,3.5L25.3,2743.2z"/>
	<path style="fill:#39B2DB;" d="M23.1,2745.3l1-4l2.3-4l-1.1,5.9L23.1,2745.3z"/>
	<path style="fill:#39B3DB;" d="M30.9,2742.5l-1.6,2.5l-0.5-2.6c0.5-0.9,2.5-3.5,2.5-3.5L30.9,2742.5L30.9,2742.5z"/>
</g>
<g>
	<path style="fill:#4FBEE3;" d="M57.8,2851.7l-5.4,2.8l0.7,2.3l5.8-1.1l3.1-4.5L57.8,2851.7z"/>
	<path style="fill:#50CCF5;" d="M57.8,2851.7l-4.7-3.1l-6,5.8l5.4,0.2L57.8,2851.7z"/>
	<path style="fill:#39B2DB;" d="M62,2851.2l-3.5-1.9l-5.4-0.7l4.7,3.1L62,2851.2z"/>
	<path style="fill:#39B3DB;" d="M49.5,2856.5l3.6,0.3l-0.7-2.3c-1.2-0.1-5.4-0.2-5.4-0.2L49.5,2856.5L49.5,2856.5z"/>
</g>
<g>
	<path style="fill:#4FBEE3;" d="M152.6,2783.5l-4.7,3.8l1.2,2.1l5.5-2.2l2.1-5L152.6,2783.5z"/>
	<path style="fill:#50CCF5;" d="M152.6,2783.5l-5.2-2.1l-4.8,6.9l5.3-0.9L152.6,2783.5z"/>
	<path style="fill:#39B2DB;" d="M156.7,2782.2l-3.8-1.2l-5.4,0.4l5.2,2.1L156.7,2782.2z"/>
	<path style="fill:#39B3DB;" d="M145.5,2789.8l3.6-0.4l-1.1-2.1c-1.2,0.1-5.3,0.9-5.3,0.9L145.5,2789.8L145.5,2789.8z"/>
</g>
<g>
	<path style="fill:#4FBEE3;" d="M40.3,2848l8.9-4.1l2.2,3.1l-7.1,6.4l-8.8-0.5L40.3,2848z"/>
	<path style="fill:#50CCF5;" d="M40.3,2848l0.6-9.1l13.4-2l-5.1,7.1L40.3,2848z"/>
	<path style="fill:#39B2DB;" d="M35.5,2852.9l1-6.4l4.5-7.6l-0.6,9.1L35.5,2852.9z"/>
	<path style="fill:#39B3DB;" d="M54.6,2842.1l-3.2,4.9l-2.2-3.1c1-1.6,5.1-7.1,5.1-7.1L54.6,2842.1L54.6,2842.1z"/>
</g>
<g>
	<path style="fill:#4FBEE3;" d="M247.4,2718.6l-2.7-0.8l0.6-2l3.2-0.7l1.3,2.8L247.4,2718.6z"/>
	<path style="fill:#50CCF5;" d="M247.4,2718.6l-3,3.7l-2.8-3l3-1.5L247.4,2718.6z"/>
	<path style="fill:#39B2DB;" d="M249.7,2717.9l-2.2,2.5l-3.1,2l3-3.7L249.7,2717.9z"/>
	<path style="fill:#39B3DB;" d="M243.2,2717l2.1-1.2l-0.6,2c-0.7,0.4-3,1.5-3,1.5L243.2,2717L243.2,2717z"/>
</g>
</svg>
