<svg width="36" height="36" viewBox="0 0 36 36" fill="none" xmlns="http://www.w3.org/2000/svg">
<rect width="36" height="36" rx="18" fill="white" fill-opacity="0.1"/>
<path d="M24.9868 10H11.0132C10.4519 10 10 10.4519 10 11.0132V24.9868C10 25.5444 10.4519 26 11.0132 26H24.9868C25.5444 26 26 25.5481 26 24.9868V11.0132C26 10.4556 25.5481 10 24.9868 10ZM19.8624 23.1681H13.3385C12.7335 23.1681 12.2451 22.6797 12.2451 22.0747C12.2451 21.4697 12.7335 20.9813 13.3385 20.9813H19.8624C20.4674 20.9813 20.9558 21.4697 20.9558 22.0747C20.9558 22.6797 20.4674 23.1681 19.8624 23.1681ZM13.3385 18.7289C12.7335 18.7289 12.2451 18.2405 12.2451 17.6355C12.2451 17.0305 12.7335 16.5421 13.3385 16.5421H22.6141C23.2191 16.5421 23.7075 17.0305 23.7075 17.6355C23.7075 18.2405 23.2191 18.7289 22.6141 18.7289H13.3385ZM13.3385 14.2897C12.7335 14.2897 12.2451 13.8014 12.2451 13.1964C12.2451 12.5913 12.7335 12.103 13.3385 12.103H22.6141C23.2191 12.103 23.7075 12.5913 23.7075 13.1964C23.7075 13.8014 23.2191 14.2897 22.6141 14.2897H13.3385Z" fill="#B5B4BA"/>
</svg>
