<svg width="24" height="23" viewBox="0 0 24 23" fill="none" xmlns="http://www.w3.org/2000/svg">
<path d="M22.132 5.41566C21.4111 5.73879 20.6415 5.95421 19.8329 6.05213C20.661 5.55275 21.2942 4.76941 21.5864 3.8294C20.8168 4.28961 19.9596 4.62253 19.0438 4.80857C18.3132 4.02523 17.2806 3.53564 16.1213 3.53564C13.9099 3.53564 12.1272 5.33733 12.1272 7.55026C12.1272 7.8636 12.1661 8.16714 12.2343 8.47069C8.91237 8.30423 5.97034 6.70817 3.99276 4.27003C3.65179 4.86732 3.44722 5.55275 3.44722 6.28713C3.44722 7.67756 4.14863 8.91132 5.22997 9.63591C4.57727 9.61632 3.95379 9.43028 3.41799 9.13653C3.41799 9.15611 3.41799 9.1659 3.41799 9.18549C3.41799 11.134 4.79159 12.7595 6.62304 13.1218C6.29182 13.2099 5.93138 13.2589 5.57093 13.2589C5.31764 13.2589 5.06436 13.2295 4.82081 13.1903C5.32738 14.7864 6.80814 15.9516 8.55192 15.981C7.18807 17.0581 5.46377 17.7043 3.5836 17.7043C3.26212 17.7043 2.94064 17.6847 2.62891 17.6456C4.40191 18.7814 6.4964 19.4472 8.7565 19.4472C16.1116 19.4472 20.1252 13.3274 20.1252 8.02027C20.1252 7.84402 20.1252 7.67756 20.1154 7.50131C20.9143 6.93338 21.5962 6.22838 22.132 5.41566Z" fill="white"/>
</svg>
