<svg width="36" height="36" viewBox="0 0 36 36" fill="none" xmlns="http://www.w3.org/2000/svg">
<rect width="36" height="36" rx="18" fill="white" fill-opacity="0.1"/>
<path d="M18.6068 19.3184L26.6515 13.0629C26.8729 12.8907 26.9959 12.6579 26.9959 12.4124V11.8864C26.9959 11.3985 26.4875 11 25.856 11H10.1399C9.50843 11 9 11.3954 9 11.8864V12.7695C9 13.0118 9.12301 13.2478 9.34442 13.42L16.9339 19.3184C17.3973 19.6787 18.1435 19.6787 18.6068 19.3184Z" fill="#B5B4BA"/>
<path d="M18.6396 21.9966C18.3977 22.1847 18.0861 22.2772 17.7704 22.2772C17.4547 22.2772 17.139 22.1847 16.9011 21.9966L11.0173 17.4245C10.2711 16.8442 9 17.2555 9 18.0749V24.1136C9 24.6015 9.50843 25 10.1399 25H25.8601C26.4875 25 27 24.6046 27 24.1136V17.7178C27 16.8984 25.7248 16.4871 24.9827 17.0674L18.6437 21.9966H18.6396Z" fill="#B5B4BA"/>
</svg>
