<svg
                      className="footer-list-icon"
                      xmlns="http://www.w3.org/2000/svg"
                      width="36"
                      height="36"
                      viewBox="0 0 36 36"
                      fill="none"
                    >
                      <rect
                        className="footer-icon-frame"
                        width="36"
                        height="36"
                        rx="18"
                        fill="white"
                        fillOpacity="0.1"
                      />
                      <g>
                        <path
                          d="M18 18C20.2091 18 22 16.2091 22 14C22 11.7909 20.2091 10 18 10C15.7909 10 14 11.7909 14 14C14 16.2091 15.7909 18 18 18Z"
                          fill="#B5B4BA"
                        />
                        <path
                          d="M19.9105 19L18 23.2878L16.0895 19C13.3829 19.5295 11.1767 21.1697 10.1608 23.3201C9.55427 24.6052 10.7446 26 12.3746 26H23.6254C25.2554 26 26.4457 24.6052 25.8392 23.3201C24.8233 21.1697 22.6171 19.5295 19.9105 19Z"
                          fill="#B5B4BA"
                        />
                      </g>
                    </svg>
