<svg width="26" height="24" viewBox="0 0 26 24" fill="none" xmlns="http://www.w3.org/2000/svg">
<path d="M12.6 0C5.64047 0 0 5.37188 0 12C0 18.6281 5.64047 24 12.6 24C19.5595 24 25.2 18.6281 25.2 12C25.2 5.37188 19.5595 0 12.6 0ZM23.5216 12C23.5216 16.7531 20.1797 20.7609 15.6073 22.0031L15.5285 22.0219V18.1312C15.5285 17.2078 15.2677 16.5328 14.7509 16.1063C15.3267 16.05 15.8534 15.9609 16.3603 15.8344L16.2865 15.8484C16.823 15.7078 17.2905 15.5156 17.7237 15.2766L17.6941 15.2906C18.1716 15.0422 18.5702 14.7234 18.9049 14.3484L18.9098 14.3438C19.2347 13.9688 19.5005 13.4672 19.7023 12.8438C19.909 12.2203 20.0074 11.5031 20.0074 10.6969C20.0074 9.54375 19.6137 8.56406 18.8213 7.75781C19.1904 6.89062 19.151 5.92031 18.7031 4.84688C18.4226 4.7625 18.019 4.81406 17.4874 5.00156C16.9559 5.18906 16.503 5.4 16.0748 5.64844L16.1093 5.62969L15.5384 5.97188C14.677 5.7375 13.6828 5.60156 12.6591 5.60156C11.6353 5.60156 10.646 5.7375 9.70594 5.99063L9.77977 5.97188C9.12023 4.77187 7.44188 4.69219 6.60023 4.84219C6.03914 5.69063 6.10805 7.03125 6.49688 7.75312C5.70938 8.56406 5.3107 9.54375 5.3107 10.6922C5.3107 11.5031 5.41406 12.2156 5.61586 12.8344C5.82258 13.4531 6.08344 13.95 6.40336 14.3344C6.73313 14.7234 7.13672 15.0422 7.58953 15.2812L7.60922 15.2906C8.01281 15.5156 8.48039 15.7078 8.97258 15.8391L9.01688 15.8484C9.45492 15.9609 9.97664 16.05 10.5082 16.1016L10.5525 16.1063C10.1538 16.4484 9.90773 16.9406 9.81914 17.5781C9.62719 17.6672 9.40078 17.7422 9.16453 17.7891L9.14484 17.7938C8.90367 17.8406 8.62805 17.8641 8.3475 17.8641H8.29336C7.96359 17.8641 7.63383 17.7609 7.30898 17.5547C6.98414 17.3484 6.70852 17.0531 6.47719 16.6641C6.29016 16.3641 6.04898 16.1156 5.75859 15.9281L5.74875 15.9234C5.45344 15.7313 5.20734 15.6187 5.00555 15.5812L4.86773 15.5531L4.79391 15.5438C4.66102 15.5438 4.54289 15.6141 4.48383 15.7219L4.46414 15.7547L4.42477 15.9047C4.42477 16.0359 4.50844 16.1531 4.62656 16.2047C4.84805 16.2984 5.06461 16.4812 5.27625 16.7484C5.45344 16.9594 5.61094 17.1984 5.73891 17.4562L5.74875 17.4797L5.90133 17.8078C6.0293 18.1641 6.2557 18.4641 6.55594 18.6844L6.56086 18.6891C6.84141 18.9 7.18102 19.05 7.55016 19.1156H7.56492C7.875 19.1719 8.2343 19.2094 8.60344 19.2141H8.74617C8.99227 19.2141 9.22852 19.1953 9.46477 19.1578L9.44016 19.1625L9.78469 19.1063C9.78469 19.4672 9.78961 19.8891 9.79453 20.3766C9.79945 20.6719 9.79945 21.4734 9.79945 22.0641C5.09906 20.8406 1.68328 16.8 1.68328 12C1.68328 7.72031 4.40016 4.04062 8.27859 2.44219L8.3475 2.41875C9.60258 1.89844 11.0644 1.59844 12.6 1.59844C18.6293 1.59844 23.5167 6.25312 23.5167 11.9953L23.5216 12Z" fill="#080216"/>
</svg>
