<svg width="66" height="68" viewBox="0 0 66 68" fill="none" xmlns="http://www.w3.org/2000/svg">
<path fill-rule="evenodd" clip-rule="evenodd" d="M7.72799 10.774C14.823 3.62918 26.0129 3.11469 33.7001 9.23325C33.8675 9.36655 34.1323 9.36655 34.2997 9.23325C41.9869 3.11469 53.1769 3.62918 60.2719 10.774C67.9093 18.465 67.9093 30.9289 60.2719 38.6199L60.238 38.654L36.8821 62.1739C35.292 63.7753 32.708 63.7753 31.1178 62.1739L7.76229 38.6543L7.72806 38.6199C0.0906963 30.9289 0.0906229 18.465 7.72799 10.774ZM28.9856 10.8866C23.0862 7.66657 15.5559 8.56791 10.5663 13.5925C4.47785 19.7237 4.47785 29.6702 10.5663 35.8014L10.5939 35.8291L10.5972 35.8324L33.9561 59.3554C33.982 59.3814 34.018 59.3814 34.0438 59.3554L57.4028 35.8323L57.4336 35.8014C63.5221 29.6702 63.5221 19.7237 57.4336 13.5925C52.4441 8.56794 44.9137 7.66658 39.0143 10.8866C42.0229 12.6338 44.0421 15.9043 44.0421 19.6386C44.0421 22.4139 42.9272 24.9301 41.1242 26.7556L46.5897 36.2886C47.7363 38.2885 46.2925 40.7807 43.9871 40.7807H24.0126C21.7072 40.7807 20.2633 38.2885 21.41 36.2886L26.8756 26.7554C25.0727 24.9299 23.9579 22.4138 23.9579 19.6386C23.9579 15.9044 25.9771 12.6339 28.9856 10.8866ZM34 13.54C30.6762 13.54 27.9579 16.2572 27.9579 19.6386C27.9579 21.7262 28.9947 23.5652 30.5787 24.6662L32.0842 25.7126L25.7386 36.7807H42.2611L35.9155 25.7127L37.4211 24.6663C39.0052 23.5654 40.0421 21.7263 40.0421 19.6386C40.0421 16.2572 37.3238 13.54 34 13.54Z" fill="url(#paint0_linear_1875_28532)"/>
<defs>
<linearGradient id="paint0_linear_1875_28532" x1="53.2771" y1="49.1756" x2="5.58491" y2="37.3523" gradientUnits="userSpaceOnUse">
<stop stop-color="#3A64FA"/>
<stop offset="0.942707" stop-color="#F963BC"/>
</linearGradient>
</defs>
</svg>
