<svg width="1440" height="613" viewBox="0 0 1440 613" fill="none" xmlns="http://www.w3.org/2000/svg">
<g filter="url(#filter0_d_1686_27581)">
<path d="M153.412 257.679L151.134 261.072L153.614 262.682L157.706 260.562L156.635 256.331L153.412 257.679Z" fill="#4FBEE3"/>
<path d="M153.412 257.679L146.778 256.255L146.381 262.141L151.133 261.072L153.412 257.679Z" fill="#50CCF5"/>
<path d="M156.634 256.331L151.993 255.587L146.778 256.255L153.412 257.679L156.634 256.331Z" fill="#39B2DB"/>
<path d="M150.288 263.258L153.613 262.682L151.133 261.072C150.018 261.236 146.38 262.141 146.38 262.141L150.287 263.257L150.288 263.258Z" fill="#39B3DB"/>
</g>
<g filter="url(#filter1_d_1686_27581)">
<path d="M1282.45 198.862L1283.26 202.757L1286.07 202.125L1287.38 197.832L1283.7 195.7L1282.45 198.862Z" fill="#4FBEE3"/>
<path d="M1282.45 198.862L1276.94 202.515L1280.77 206.796L1283.26 202.758L1282.45 198.862Z" fill="#50CCF5"/>
<path d="M1283.7 195.7L1280.02 198.427L1276.94 202.514L1282.45 198.862L1283.7 195.7Z" fill="#39B2DB"/>
<path d="M1284.21 204.833L1286.07 202.125L1283.26 202.758C1282.62 203.646 1280.77 206.795 1280.77 206.795L1284.21 204.833L1284.21 204.833Z" fill="#39B3DB"/>
</g>
<g filter="url(#filter2_d_1686_27581)">
<path d="M1184.95 156.992L1185.56 159.923L1187.67 159.447L1188.65 156.217L1185.89 154.613L1184.95 156.992Z" fill="#4FBEE3"/>
<path d="M1184.94 156.992L1180.8 159.74L1183.68 162.961L1185.56 159.923L1184.94 156.992Z" fill="#50CCF5"/>
<path d="M1185.89 154.613L1183.12 156.665L1180.8 159.74L1184.95 156.992L1185.89 154.613Z" fill="#39B2DB"/>
<path d="M1186.27 161.485L1187.67 159.447L1185.56 159.923C1185.07 160.591 1183.69 162.961 1183.69 162.961L1186.27 161.485L1186.27 161.485Z" fill="#39B3DB"/>
</g>
<g filter="url(#filter3_d_1686_27581)">
<path d="M1309.29 349.375L1312.01 346.351L1309.8 344.418L1305.47 345.933L1305.93 350.251L1309.29 349.375Z" fill="#4FBEE3"/>
<path d="M1309.29 349.375L1315.63 351.707L1316.85 345.964L1312.01 346.352L1309.29 349.375Z" fill="#50CCF5"/>
<path d="M1305.93 350.251L1310.4 351.634L1315.63 351.706L1309.29 349.375L1305.93 350.251Z" fill="#39B2DB"/>
<path d="M1313.15 344.317L1309.8 344.418L1312.01 346.351C1313.14 346.346 1316.85 345.965 1316.85 345.965L1313.15 344.318L1313.15 344.317Z" fill="#39B3DB"/>
</g>
<g filter="url(#filter4_d_1686_27581)">
<path d="M1317.19 338.664L1311.71 335.261L1310.03 337.14L1314.14 341.883L1319.96 342.289L1317.19 338.664Z" fill="#4FBEE3"/>
<path d="M1317.19 338.664L1317.54 332.648L1308.95 330.232L1311.71 335.261L1317.19 338.664Z" fill="#50CCF5"/>
<path d="M1319.96 342.289L1319.84 337.993L1317.54 332.648L1317.19 338.664L1319.96 342.289Z" fill="#39B2DB"/>
<path d="M1308.35 333.681L1310.03 337.14L1311.71 335.261C1311.19 334.112 1308.95 330.232 1308.95 330.232L1308.35 333.68L1308.35 333.681Z" fill="#39B3DB"/>
</g>
<g filter="url(#filter5_d_1686_27581)">
<path d="M153.007 251.964L150.14 253.328L150.471 254.525L153.528 254.085L155.245 251.78L153.007 251.964Z" fill="#4FBEE3"/>
<path d="M153.007 251.964L150.607 250.22L147.323 253.135L150.141 253.328L153.007 251.964Z" fill="#50CCF5"/>
<path d="M155.245 251.78L153.434 250.687L150.607 250.22L153.007 251.964L155.245 251.78Z" fill="#39B2DB"/>
<path d="M148.59 254.303L150.47 254.525L150.14 253.328C149.525 253.239 147.322 253.135 147.322 253.135L148.589 254.303L148.59 254.303Z" fill="#39B3DB"/>
</g>
<g filter="url(#filter6_d_1686_27581)">
<path d="M1179.44 81.1227L1175.04 83.2201L1175.54 85.0608L1180.25 84.3841L1182.89 80.8398L1179.44 81.1227Z" fill="#4FBEE3"/>
<path d="M1179.44 81.1221L1175.75 78.44L1170.7 82.9222L1175.04 83.2196L1179.44 81.1221Z" fill="#50CCF5"/>
<path d="M1182.89 80.8399L1180.1 79.1591L1175.75 78.4406L1179.44 81.1228L1182.89 80.8399Z" fill="#39B2DB"/>
<path d="M1172.65 84.719L1175.54 85.0608L1175.04 83.2201C1174.09 83.0831 1170.7 82.9224 1170.7 82.9224L1172.65 84.7183L1172.65 84.719Z" fill="#39B3DB"/>
</g>
<g filter="url(#filter7_d_1686_27581)">
<path d="M271.443 81.1227L267.036 83.2201L267.544 85.0608L272.245 84.3841L274.886 80.8398L271.443 81.1227Z" fill="#4FBEE3"/>
<path d="M271.443 81.1221L267.753 78.44L262.702 82.9222L267.035 83.2196L271.443 81.1221Z" fill="#50CCF5"/>
<path d="M274.885 80.8399L272.1 79.1591L267.753 78.4406L271.443 81.1228L274.885 80.8399Z" fill="#39B2DB"/>
<path d="M264.651 84.719L267.543 85.0608L267.035 83.2201C266.089 83.0831 262.703 82.9224 262.703 82.9224L264.651 84.7183L264.651 84.719Z" fill="#39B3DB"/>
</g>
<g filter="url(#filter8_d_1686_27581)">
<path d="M138.981 346.676L134.416 349.17L135.066 351.098L140.028 350.098L142.627 346.17L138.981 346.676Z" fill="#4FBEE3"/>
<path d="M138.981 346.676L134.895 344.041L129.787 349.111L134.416 349.17L138.981 346.676Z" fill="#50CCF5"/>
<path d="M142.626 346.17L139.562 344.547L134.894 344.041L138.98 346.676L142.626 346.17Z" fill="#39B2DB"/>
<path d="M131.968 350.907L135.065 351.099L134.415 349.17C133.401 349.081 129.787 349.111 129.787 349.111L131.967 350.906L131.968 350.907Z" fill="#39B3DB"/>
</g>
<g filter="url(#filter9_d_1686_27581)">
<path d="M1310.61 256.169L1307.01 259.363L1307.99 260.969L1312.26 259.043L1313.8 254.96L1310.61 256.169Z" fill="#4FBEE3"/>
<path d="M1310.61 256.169L1306.38 254.634L1302.81 260.265L1307.01 259.363L1310.61 256.169Z" fill="#50CCF5"/>
<path d="M1313.8 254.961L1310.7 254.128L1306.38 254.635L1310.61 256.17L1313.8 254.961Z" fill="#39B2DB"/>
<path d="M1305.15 261.435L1307.99 260.969L1307.01 259.363C1306.07 259.491 1302.82 260.264 1302.82 260.264L1305.15 261.435L1305.15 261.435Z" fill="#39B3DB"/>
</g>
<path d="M1301.68 336.676L1301.73 340.574L1307.38 341.744L1305.37 338.623L1301.68 336.676Z" fill="#50CCF5"/>
<path d="M146.276 263.291L147.281 266.169L151.762 265.63L149.495 263.817L146.276 263.291Z" fill="#50CCF5"/>
<path d="M170.117 131.157L170.506 135.165L173.004 140.012L172.941 134.366L170.117 131.157Z" fill="#39B2DB"/>
<path d="M1128.39 116.852L1127.1 119.935L1127.02 124.462L1129.19 120.309L1128.39 116.852Z" fill="#39B2DB"/>
<path d="M1242.06 148.401L1239.46 150.503L1237.25 154.452L1241.13 151.826L1242.06 148.401Z" fill="#39B2DB"/>
<path d="M1202.2 516.157L1199.07 518.69L1196.4 523.446L1201.08 520.282L1202.2 516.157Z" fill="#39B2DB"/>
<g filter="url(#filter10_d_1686_27581)">
<path d="M1282.11 424.694L1281.37 421.163L1278.82 421.737L1277.64 425.627L1280.97 427.559L1282.11 424.694Z" fill="#4FBEE3"/>
<path d="M1282.11 424.694L1287.09 421.384L1283.62 417.504L1281.37 421.163L1282.11 424.694Z" fill="#50CCF5"/>
<path d="M1280.97 427.559L1284.3 425.088L1287.09 421.384L1282.1 424.694L1280.97 427.559Z" fill="#39B2DB"/>
<path d="M1280.51 419.282L1278.82 421.736L1281.37 421.163C1281.95 420.358 1283.62 417.504 1283.62 417.504L1280.51 419.282L1280.51 419.282Z" fill="#39B3DB"/>
</g>
<path d="M1171.4 442.282L1174.53 439.749L1177.2 434.993L1172.52 438.157L1171.4 442.282Z" fill="#39B2DB"/>
<path d="M1242.4 490.446L1245.53 487.913L1248.2 483.158L1243.52 486.321L1242.4 490.446Z" fill="#39B2DB"/>
<g filter="url(#filter11_d_1686_27581)">
<path d="M166.288 458.252L166.815 455.731L168.632 456.141L169.477 458.918L167.099 460.298L166.288 458.252Z" fill="#4FBEE3"/>
<path d="M166.288 458.252L162.727 455.889L165.205 453.119L166.815 455.731L166.288 458.252Z" fill="#50CCF5"/>
<path d="M167.099 460.297L164.721 458.533L162.727 455.888L166.288 458.252L167.099 460.297Z" fill="#39B2DB"/>
<path d="M167.428 454.389L168.632 456.14L166.815 455.731C166.398 455.157 165.205 453.119 165.205 453.119L167.428 454.388L167.428 454.389Z" fill="#39B3DB"/>
</g>
<path d="M233.249 466.47L231.014 464.662L229.109 461.267L232.448 463.525L233.249 466.47Z" fill="#39B2DB"/>
<path d="M188.271 507.164L186.037 505.356L184.131 501.961L187.47 504.219L188.271 507.164Z" fill="#39B2DB"/>
<g filter="url(#filter12_d_1686_27581)">
<path d="M241.369 167.76L240.784 170.559L238.766 170.104L237.827 167.02L240.469 165.488L241.369 167.76Z" fill="#4FBEE3"/>
<path d="M241.369 167.76L245.324 170.384L242.572 173.459L240.785 170.558L241.369 167.76Z" fill="#50CCF5"/>
<path d="M240.469 165.488L243.11 167.447L245.324 170.384L241.369 167.76L240.469 165.488Z" fill="#39B2DB"/>
<path d="M240.103 172.05L238.767 170.104L240.785 170.559C241.247 171.197 242.572 173.459 242.572 173.459L240.104 172.05L240.103 172.05Z" fill="#39B3DB"/>
</g>
<g filter="url(#filter13_d_1686_27581)">
<path d="M321.105 122.505L320.367 126.035L317.822 125.462L316.638 121.572L319.969 119.64L321.105 122.505Z" fill="#4FBEE3"/>
<path d="M321.105 122.505L326.093 125.815L322.622 129.695L320.367 126.035L321.105 122.505Z" fill="#50CCF5"/>
<path d="M319.969 119.64L323.3 122.111L326.093 125.815L321.105 122.505L319.969 119.64Z" fill="#39B2DB"/>
<path d="M319.508 127.916L317.822 125.463L320.368 126.036C320.951 126.841 322.623 129.695 322.623 129.695L319.509 127.917L319.508 127.916Z" fill="#39B3DB"/>
</g>
<g filter="url(#filter14_d_1686_27581)">
<path d="M121.286 191.004L120.633 194.128L118.381 193.62L117.333 190.178L120.281 188.468L121.286 191.004Z" fill="#4FBEE3"/>
<path d="M121.286 191.004L125.7 193.933L122.629 197.365L120.634 194.128L121.286 191.004Z" fill="#50CCF5"/>
<path d="M120.282 188.468L123.229 190.655L125.7 193.933L121.286 191.004L120.282 188.468Z" fill="#39B2DB"/>
<path d="M119.873 195.792L118.381 193.621L120.633 194.128C121.15 194.84 122.629 197.366 122.629 197.366L119.874 195.792L119.873 195.792Z" fill="#39B3DB"/>
</g>
<g filter="url(#filter15_d_1686_27581)">
<path d="M253.172 504.351L252.645 506.871L250.828 506.462L249.983 503.684L252.361 502.305L253.172 504.351Z" fill="#4FBEE3"/>
<path d="M253.173 504.351L256.734 506.714L254.256 509.484L252.646 506.871L253.173 504.351Z" fill="#50CCF5"/>
<path d="M252.361 502.305L254.739 504.07L256.733 506.714L253.172 504.351L252.361 502.305Z" fill="#39B2DB"/>
<path d="M252.032 508.214L250.828 506.462L252.645 506.871C253.062 507.446 254.255 509.484 254.255 509.484L252.032 508.214L252.032 508.214Z" fill="#39B3DB"/>
</g>
<g filter="url(#filter16_d_1686_27581)">
<path d="M1118.11 510.505L1117.37 514.035L1114.82 513.462L1113.64 509.572L1116.97 507.64L1118.11 510.505Z" fill="#4FBEE3"/>
<path d="M1118.11 510.505L1123.09 513.815L1119.62 517.695L1117.37 514.035L1118.11 510.505Z" fill="#50CCF5"/>
<path d="M1116.97 507.64L1120.3 510.111L1123.09 513.815L1118.1 510.505L1116.97 507.64Z" fill="#39B2DB"/>
<path d="M1116.51 515.916L1114.82 513.463L1117.37 514.036C1117.95 514.841 1119.62 517.695 1119.62 517.695L1116.51 515.917L1116.51 515.916Z" fill="#39B3DB"/>
</g>
<path d="M376.639 82.1575L378.194 85.8717L378.288 91.324L375.67 86.3214L376.639 82.1575Z" fill="#39B2DB"/>
<path d="M339.225 509.814L340.335 512.466L340.402 516.358L338.533 512.787L339.225 509.814Z" fill="#39B2DB"/>
<path d="M1033.64 529.157L1035.19 532.872L1035.29 538.324L1032.67 533.321L1033.64 529.157Z" fill="#39B2DB"/>
<path d="M237.401 113.157L240.531 115.69L243.2 120.446L238.523 117.282L237.401 113.157Z" fill="#39B2DB"/>
<defs>
<filter id="filter0_d_1686_27581" x="130.381" y="239.587" width="43.3252" height="39.6709" filterUnits="userSpaceOnUse" color-interpolation-filters="sRGB">
<feFlood flood-opacity="0" result="BackgroundImageFix"/>
<feColorMatrix in="SourceAlpha" type="matrix" values="0 0 0 0 0 0 0 0 0 0 0 0 0 0 0 0 0 0 127 0" result="hardAlpha"/>
<feOffset/>
<feGaussianBlur stdDeviation="8"/>
<feComposite in2="hardAlpha" operator="out"/>
<feColorMatrix type="matrix" values="0 0 0 0 0.313726 0 0 0 0 0.8 0 0 0 0 0.960784 0 0 0 1 0"/>
<feBlend mode="normal" in2="BackgroundImageFix" result="effect1_dropShadow_1686_27581"/>
<feBlend mode="normal" in="SourceGraphic" in2="effect1_dropShadow_1686_27581" result="shape"/>
</filter>
<filter id="filter1_d_1686_27581" x="1260.94" y="179.7" width="42.4346" height="43.0962" filterUnits="userSpaceOnUse" color-interpolation-filters="sRGB">
<feFlood flood-opacity="0" result="BackgroundImageFix"/>
<feColorMatrix in="SourceAlpha" type="matrix" values="0 0 0 0 0 0 0 0 0 0 0 0 0 0 0 0 0 0 127 0" result="hardAlpha"/>
<feOffset/>
<feGaussianBlur stdDeviation="8"/>
<feComposite in2="hardAlpha" operator="out"/>
<feColorMatrix type="matrix" values="0 0 0 0 0.313726 0 0 0 0 0.8 0 0 0 0 0.960784 0 0 0 1 0"/>
<feBlend mode="normal" in2="BackgroundImageFix" result="effect1_dropShadow_1686_27581"/>
<feBlend mode="normal" in="SourceGraphic" in2="effect1_dropShadow_1686_27581" result="shape"/>
</filter>
<filter id="filter2_d_1686_27581" x="1164.8" y="138.613" width="39.8516" height="40.3486" filterUnits="userSpaceOnUse" color-interpolation-filters="sRGB">
<feFlood flood-opacity="0" result="BackgroundImageFix"/>
<feColorMatrix in="SourceAlpha" type="matrix" values="0 0 0 0 0 0 0 0 0 0 0 0 0 0 0 0 0 0 127 0" result="hardAlpha"/>
<feOffset/>
<feGaussianBlur stdDeviation="8"/>
<feComposite in2="hardAlpha" operator="out"/>
<feColorMatrix type="matrix" values="0 0 0 0 0.313726 0 0 0 0 0.8 0 0 0 0 0.960784 0 0 0 1 0"/>
<feBlend mode="normal" in2="BackgroundImageFix" result="effect1_dropShadow_1686_27581"/>
<feBlend mode="normal" in="SourceGraphic" in2="effect1_dropShadow_1686_27581" result="shape"/>
</filter>
<filter id="filter3_d_1686_27581" x="1289.47" y="328.317" width="43.377" height="39.3896" filterUnits="userSpaceOnUse" color-interpolation-filters="sRGB">
<feFlood flood-opacity="0" result="BackgroundImageFix"/>
<feColorMatrix in="SourceAlpha" type="matrix" values="0 0 0 0 0 0 0 0 0 0 0 0 0 0 0 0 0 0 127 0" result="hardAlpha"/>
<feOffset/>
<feGaussianBlur stdDeviation="8"/>
<feComposite in2="hardAlpha" operator="out"/>
<feColorMatrix type="matrix" values="0 0 0 0 0.313726 0 0 0 0 0.8 0 0 0 0 0.960784 0 0 0 1 0"/>
<feBlend mode="normal" in2="BackgroundImageFix" result="effect1_dropShadow_1686_27581"/>
<feBlend mode="normal" in="SourceGraphic" in2="effect1_dropShadow_1686_27581" result="shape"/>
</filter>
<filter id="filter4_d_1686_27581" x="1292.35" y="314.232" width="43.6172" height="44.0571" filterUnits="userSpaceOnUse" color-interpolation-filters="sRGB">
<feFlood flood-opacity="0" result="BackgroundImageFix"/>
<feColorMatrix in="SourceAlpha" type="matrix" values="0 0 0 0 0 0 0 0 0 0 0 0 0 0 0 0 0 0 127 0" result="hardAlpha"/>
<feOffset/>
<feGaussianBlur stdDeviation="8"/>
<feComposite in2="hardAlpha" operator="out"/>
<feColorMatrix type="matrix" values="0 0 0 0 0.313726 0 0 0 0 0.8 0 0 0 0 0.960784 0 0 0 1 0"/>
<feBlend mode="normal" in2="BackgroundImageFix" result="effect1_dropShadow_1686_27581"/>
<feBlend mode="normal" in="SourceGraphic" in2="effect1_dropShadow_1686_27581" result="shape"/>
</filter>
<filter id="filter5_d_1686_27581" x="131.322" y="234.22" width="39.9229" height="36.3057" filterUnits="userSpaceOnUse" color-interpolation-filters="sRGB">
<feFlood flood-opacity="0" result="BackgroundImageFix"/>
<feColorMatrix in="SourceAlpha" type="matrix" values="0 0 0 0 0 0 0 0 0 0 0 0 0 0 0 0 0 0 127 0" result="hardAlpha"/>
<feOffset/>
<feGaussianBlur stdDeviation="8"/>
<feComposite in2="hardAlpha" operator="out"/>
<feColorMatrix type="matrix" values="0 0 0 0 0.313726 0 0 0 0 0.8 0 0 0 0 0.960784 0 0 0 1 0"/>
<feBlend mode="normal" in2="BackgroundImageFix" result="effect1_dropShadow_1686_27581"/>
<feBlend mode="normal" in="SourceGraphic" in2="effect1_dropShadow_1686_27581" result="shape"/>
</filter>
<filter id="filter6_d_1686_27581" x="1154.7" y="62.4399" width="44.1836" height="38.6211" filterUnits="userSpaceOnUse" color-interpolation-filters="sRGB">
<feFlood flood-opacity="0" result="BackgroundImageFix"/>
<feColorMatrix in="SourceAlpha" type="matrix" values="0 0 0 0 0 0 0 0 0 0 0 0 0 0 0 0 0 0 127 0" result="hardAlpha"/>
<feOffset/>
<feGaussianBlur stdDeviation="8"/>
<feComposite in2="hardAlpha" operator="out"/>
<feColorMatrix type="matrix" values="0 0 0 0 0.313726 0 0 0 0 0.8 0 0 0 0 0.960784 0 0 0 1 0"/>
<feBlend mode="normal" in2="BackgroundImageFix" result="effect1_dropShadow_1686_27581"/>
<feBlend mode="normal" in="SourceGraphic" in2="effect1_dropShadow_1686_27581" result="shape"/>
</filter>
<filter id="filter7_d_1686_27581" x="246.702" y="62.4399" width="44.1836" height="38.6211" filterUnits="userSpaceOnUse" color-interpolation-filters="sRGB">
<feFlood flood-opacity="0" result="BackgroundImageFix"/>
<feColorMatrix in="SourceAlpha" type="matrix" values="0 0 0 0 0 0 0 0 0 0 0 0 0 0 0 0 0 0 127 0" result="hardAlpha"/>
<feOffset/>
<feGaussianBlur stdDeviation="8"/>
<feComposite in2="hardAlpha" operator="out"/>
<feColorMatrix type="matrix" values="0 0 0 0 0.313726 0 0 0 0 0.8 0 0 0 0 0.960784 0 0 0 1 0"/>
<feBlend mode="normal" in2="BackgroundImageFix" result="effect1_dropShadow_1686_27581"/>
<feBlend mode="normal" in="SourceGraphic" in2="effect1_dropShadow_1686_27581" result="shape"/>
</filter>
<filter id="filter8_d_1686_27581" x="113.787" y="328.041" width="44.8398" height="39.0576" filterUnits="userSpaceOnUse" color-interpolation-filters="sRGB">
<feFlood flood-opacity="0" result="BackgroundImageFix"/>
<feColorMatrix in="SourceAlpha" type="matrix" values="0 0 0 0 0 0 0 0 0 0 0 0 0 0 0 0 0 0 127 0" result="hardAlpha"/>
<feOffset/>
<feGaussianBlur stdDeviation="8"/>
<feComposite in2="hardAlpha" operator="out"/>
<feColorMatrix type="matrix" values="0 0 0 0 0.313726 0 0 0 0 0.8 0 0 0 0 0.960784 0 0 0 1 0"/>
<feBlend mode="normal" in2="BackgroundImageFix" result="effect1_dropShadow_1686_27581"/>
<feBlend mode="normal" in="SourceGraphic" in2="effect1_dropShadow_1686_27581" result="shape"/>
</filter>
<filter id="filter9_d_1686_27581" x="1286.81" y="238.128" width="42.9844" height="39.3076" filterUnits="userSpaceOnUse" color-interpolation-filters="sRGB">
<feFlood flood-opacity="0" result="BackgroundImageFix"/>
<feColorMatrix in="SourceAlpha" type="matrix" values="0 0 0 0 0 0 0 0 0 0 0 0 0 0 0 0 0 0 127 0" result="hardAlpha"/>
<feOffset/>
<feGaussianBlur stdDeviation="8"/>
<feComposite in2="hardAlpha" operator="out"/>
<feColorMatrix type="matrix" values="0 0 0 0 0.313726 0 0 0 0 0.8 0 0 0 0 0.960784 0 0 0 1 0"/>
<feBlend mode="normal" in2="BackgroundImageFix" result="effect1_dropShadow_1686_27581"/>
<feBlend mode="normal" in="SourceGraphic" in2="effect1_dropShadow_1686_27581" result="shape"/>
</filter>
<filter id="filter10_d_1686_27581" x="1261.64" y="401.504" width="41.4551" height="42.0552" filterUnits="userSpaceOnUse" color-interpolation-filters="sRGB">
<feFlood flood-opacity="0" result="BackgroundImageFix"/>
<feColorMatrix in="SourceAlpha" type="matrix" values="0 0 0 0 0 0 0 0 0 0 0 0 0 0 0 0 0 0 127 0" result="hardAlpha"/>
<feOffset/>
<feGaussianBlur stdDeviation="8"/>
<feComposite in2="hardAlpha" operator="out"/>
<feColorMatrix type="matrix" values="0 0 0 0 0.313726 0 0 0 0 0.8 0 0 0 0 0.960784 0 0 0 1 0"/>
<feBlend mode="normal" in2="BackgroundImageFix" result="effect1_dropShadow_1686_27581"/>
<feBlend mode="normal" in="SourceGraphic" in2="effect1_dropShadow_1686_27581" result="shape"/>
</filter>
<filter id="filter11_d_1686_27581" x="146.728" y="437.119" width="38.75" height="39.1787" filterUnits="userSpaceOnUse" color-interpolation-filters="sRGB">
<feFlood flood-opacity="0" result="BackgroundImageFix"/>
<feColorMatrix in="SourceAlpha" type="matrix" values="0 0 0 0 0 0 0 0 0 0 0 0 0 0 0 0 0 0 127 0" result="hardAlpha"/>
<feOffset/>
<feGaussianBlur stdDeviation="8"/>
<feComposite in2="hardAlpha" operator="out"/>
<feColorMatrix type="matrix" values="0 0 0 0 0.313726 0 0 0 0 0.8 0 0 0 0 0.960784 0 0 0 1 0"/>
<feBlend mode="normal" in2="BackgroundImageFix" result="effect1_dropShadow_1686_27581"/>
<feBlend mode="normal" in="SourceGraphic" in2="effect1_dropShadow_1686_27581" result="shape"/>
</filter>
<filter id="filter12_d_1686_27581" x="221.827" y="149.488" width="39.4971" height="39.9712" filterUnits="userSpaceOnUse" color-interpolation-filters="sRGB">
<feFlood flood-opacity="0" result="BackgroundImageFix"/>
<feColorMatrix in="SourceAlpha" type="matrix" values="0 0 0 0 0 0 0 0 0 0 0 0 0 0 0 0 0 0 127 0" result="hardAlpha"/>
<feOffset/>
<feGaussianBlur stdDeviation="8"/>
<feComposite in2="hardAlpha" operator="out"/>
<feColorMatrix type="matrix" values="0 0 0 0 0.313726 0 0 0 0 0.8 0 0 0 0 0.960784 0 0 0 1 0"/>
<feBlend mode="normal" in2="BackgroundImageFix" result="effect1_dropShadow_1686_27581"/>
<feBlend mode="normal" in="SourceGraphic" in2="effect1_dropShadow_1686_27581" result="shape"/>
</filter>
<filter id="filter13_d_1686_27581" x="300.638" y="103.64" width="41.4551" height="42.0552" filterUnits="userSpaceOnUse" color-interpolation-filters="sRGB">
<feFlood flood-opacity="0" result="BackgroundImageFix"/>
<feColorMatrix in="SourceAlpha" type="matrix" values="0 0 0 0 0 0 0 0 0 0 0 0 0 0 0 0 0 0 127 0" result="hardAlpha"/>
<feOffset/>
<feGaussianBlur stdDeviation="8"/>
<feComposite in2="hardAlpha" operator="out"/>
<feColorMatrix type="matrix" values="0 0 0 0 0.313726 0 0 0 0 0.8 0 0 0 0 0.960784 0 0 0 1 0"/>
<feBlend mode="normal" in2="BackgroundImageFix" result="effect1_dropShadow_1686_27581"/>
<feBlend mode="normal" in="SourceGraphic" in2="effect1_dropShadow_1686_27581" result="shape"/>
</filter>
<filter id="filter14_d_1686_27581" x="101.333" y="172.468" width="40.3672" height="40.8975" filterUnits="userSpaceOnUse" color-interpolation-filters="sRGB">
<feFlood flood-opacity="0" result="BackgroundImageFix"/>
<feColorMatrix in="SourceAlpha" type="matrix" values="0 0 0 0 0 0 0 0 0 0 0 0 0 0 0 0 0 0 127 0" result="hardAlpha"/>
<feOffset/>
<feGaussianBlur stdDeviation="8"/>
<feComposite in2="hardAlpha" operator="out"/>
<feColorMatrix type="matrix" values="0 0 0 0 0.313726 0 0 0 0 0.8 0 0 0 0 0.960784 0 0 0 1 0"/>
<feBlend mode="normal" in2="BackgroundImageFix" result="effect1_dropShadow_1686_27581"/>
<feBlend mode="normal" in="SourceGraphic" in2="effect1_dropShadow_1686_27581" result="shape"/>
</filter>
<filter id="filter15_d_1686_27581" x="233.982" y="486.305" width="38.751" height="39.1787" filterUnits="userSpaceOnUse" color-interpolation-filters="sRGB">
<feFlood flood-opacity="0" result="BackgroundImageFix"/>
<feColorMatrix in="SourceAlpha" type="matrix" values="0 0 0 0 0 0 0 0 0 0 0 0 0 0 0 0 0 0 127 0" result="hardAlpha"/>
<feOffset/>
<feGaussianBlur stdDeviation="8"/>
<feComposite in2="hardAlpha" operator="out"/>
<feColorMatrix type="matrix" values="0 0 0 0 0.313726 0 0 0 0 0.8 0 0 0 0 0.960784 0 0 0 1 0"/>
<feBlend mode="normal" in2="BackgroundImageFix" result="effect1_dropShadow_1686_27581"/>
<feBlend mode="normal" in="SourceGraphic" in2="effect1_dropShadow_1686_27581" result="shape"/>
</filter>
<filter id="filter16_d_1686_27581" x="1097.64" y="491.64" width="41.4551" height="42.0552" filterUnits="userSpaceOnUse" color-interpolation-filters="sRGB">
<feFlood flood-opacity="0" result="BackgroundImageFix"/>
<feColorMatrix in="SourceAlpha" type="matrix" values="0 0 0 0 0 0 0 0 0 0 0 0 0 0 0 0 0 0 127 0" result="hardAlpha"/>
<feOffset/>
<feGaussianBlur stdDeviation="8"/>
<feComposite in2="hardAlpha" operator="out"/>
<feColorMatrix type="matrix" values="0 0 0 0 0.313726 0 0 0 0 0.8 0 0 0 0 0.960784 0 0 0 1 0"/>
<feBlend mode="normal" in2="BackgroundImageFix" result="effect1_dropShadow_1686_27581"/>
<feBlend mode="normal" in="SourceGraphic" in2="effect1_dropShadow_1686_27581" result="shape"/>
</filter>
</defs>
</svg>
