<svg width="180" height="42" viewBox="0 0 180 42" fill="none" xmlns="http://www.w3.org/2000/svg">
<path d="M102.85 31.9901C102.316 31.3784 101.929 30.6793 101.695 29.8882C101.455 29.0972 101.34 28.0301 101.34 26.6918V6.63916H105.756V26.218C105.756 27.7404 105.922 28.9132 106.258 29.741C106.594 30.5505 107.027 31.2404 107.561 31.8153V31.9947H102.846L102.85 31.9901Z" fill="white"/>
<path d="M112.802 31.9903C112.346 31.4568 111.983 30.8175 111.706 30.0678C111.448 29.3182 111.319 28.1914 111.319 26.692V17.7281H108.888V14.2281H111.379V9.31156H115.68V14.2281H118.614V17.7281H115.708V26.1907C115.708 27.7682 115.888 28.9732 116.242 29.8011C116.597 30.6105 117.025 31.282 117.518 31.8155V31.9949H112.802V31.9903Z" fill="white"/>
<path d="M51.8896 14.2095H56.0849V16.3711H56.3198C57.0981 15.0189 58.7237 13.768 61.1598 13.768C63.5959 13.768 65.4242 14.8166 66.4419 16.4723H66.7136C67.934 14.6142 69.6932 13.768 71.9957 13.768C75.9239 13.768 78.4936 16.4401 78.4936 20.1885V31.9855H74.0957V21.7108C74.0957 19.2778 72.9766 17.8889 70.8813 17.8889C68.786 17.8889 67.4274 19.4112 67.4274 21.812V31.9855H63.0249V21.4395C63.0249 19.2778 61.7401 17.8889 59.7092 17.8889C57.6783 17.8889 56.2922 19.5124 56.2922 21.7752V31.9855H51.8943V14.2095H51.8896Z" fill="white"/>
<path d="M81.0313 23.201C81.0313 17.5899 84.7891 13.768 90.0021 13.768C95.7217 13.768 98.8348 17.9946 98.8348 22.9986V24.383H85.2956C85.4292 27.0873 87.2943 28.9132 90.1357 28.9132C92.3001 28.9132 93.9625 27.8968 94.5704 26.4434H98.6644C97.7848 30.063 94.6027 32.427 89.9975 32.427C84.7522 32.427 81.0267 28.5039 81.0267 23.1964L81.0313 23.201ZM94.6395 21.2739C94.4369 18.8731 92.5764 17.2864 90.0021 17.2864C87.4278 17.2864 85.6364 19.0433 85.3647 21.2739H94.6395Z" fill="white"/>
<path d="M120.663 23.201C120.663 17.6221 124.048 13.768 128.92 13.768C132.001 13.768 133.728 15.5938 134.336 16.5045H134.571V14.2049H138.973V31.9855H134.64V29.7226H134.405C133.898 30.4677 132.305 32.427 129.058 32.427C124.085 32.427 120.663 28.7108 120.663 23.1964V23.201ZM134.677 23.132C134.677 19.7837 132.646 17.7555 129.869 17.7555C127.092 17.7555 125.13 19.9861 125.13 23.132C125.13 26.2778 127.06 28.4717 129.901 28.4717C132.742 28.4717 134.672 26.1077 134.672 23.132H134.677Z" fill="white"/>
<path d="M142.634 14.2095H146.83V16.3711H147.064C147.774 15.0511 149.537 13.768 152.075 13.768C156.068 13.768 158.504 16.5735 158.504 20.3586V31.9855H154.106V21.5038C154.106 19.3422 152.72 17.8843 150.689 17.8843C148.557 17.8843 147.032 19.5768 147.032 21.8074V31.9809H142.634V14.2095Z" fill="white"/>
<path d="M161.046 23.0998C161.046 17.8245 164.905 13.768 170.523 13.768C176.141 13.768 180 17.8245 180 23.0998C180 28.3751 176.072 32.4316 170.523 32.4316C164.974 32.4316 161.046 28.4073 161.046 23.0998ZM175.533 23.0998C175.533 20.0229 173.434 17.7601 170.523 17.7601C167.613 17.7601 165.513 20.0229 165.513 23.0998C165.513 26.1766 167.613 28.4395 170.523 28.4395C173.434 28.4395 175.533 26.2088 175.533 23.0998Z" fill="white"/>
<path d="M43.9452 8.38927C42.2581 10.6819 38.628 11.1962 38.2226 9.83044C37.8116 8.46462 39.9228 7.51892 41.0344 7.38705C34.6112 5.63127 35.7752 10.3033 32.2235 10.7535C34.1852 11.7275 36.2254 13.3458 37.6042 13.5436C39.9695 13.8864 43.282 12.5752 43.9452 8.3855" fill="white"/>
<path fill-rule="evenodd" clip-rule="evenodd" d="M18.6092 2.52096C18.4859 1.79566 17.9852 1.56395 17.1837 1.2418L17.1781 1.24369C22.3925 -1.22231 25.72 0.554189 27.0614 1.66568C27.8059 2.28254 28.0883 2.86923 28.3551 3.4235C28.569 3.86792 28.7728 4.2915 29.1969 4.69307C29.8321 5.29592 31.0155 6.15568 31.4907 6.50091C31.5382 6.53542 31.5786 6.56479 31.6107 6.58825C31.9638 6.84634 32.1133 7.56221 31.7919 8.05014C31.4706 8.53806 30.6186 9.5384 29.5967 9.37074C28.5747 9.20307 26.3346 8.81499 24.4888 8.49285C22.6429 8.17071 21.3631 7.13646 21.3631 7.13646C21.1314 8.43822 21.9124 9.59303 23.3827 9.97923C23.6682 10.0539 24.0105 10.1318 24.3953 10.2194C26.126 10.6131 28.7161 11.2023 30.8559 12.5771C33.763 14.444 36.0647 17.3904 36.9634 21.9211C37.862 26.4519 36.7392 36.0464 28.7578 39.9856C20.7765 43.9248 13.2155 40.8729 13.2155 40.8729C20.3692 40.5376 24.5579 37.6195 26.1571 35.681C27.2781 34.3208 28.3393 31.8737 27.6929 29.0497C26.9867 25.9583 24.3879 23.611 21.7405 24.0047C19.0931 24.3984 17.9721 27.2732 17.4752 28.6692C16.9782 30.0651 16.2047 31.0956 15.5284 31.2086C14.8521 31.3217 13.8806 31.3575 13.0286 29.2927C12.1767 27.228 9.9011 23.5281 6.88567 24.9165C3.87024 26.3049 3.3247 32.7365 3.3247 32.7365C-0.368922 26.8079 -1.30867 19.2008 2.16449 11.8141C5.63765 4.42744 12.8866 1.70524 12.8866 1.70524C11.59 3.39319 10.1571 8.50415 11.6143 13.1008C13.0716 17.6975 16.6699 20.0015 18.7325 20.3142C20.7951 20.6269 23.2538 19.3986 23.1193 16.8761C23.0091 14.8057 21.2361 13.3344 19.3584 12.4735C18.0188 11.8593 16.6924 10.4427 16.5989 8.2649C16.5055 6.08714 17.4565 4.71002 17.9198 4.1637C18.2841 3.73229 18.7139 3.13699 18.6092 2.52096ZM23.8404 4.61016C22.3177 4.61016 21.6246 5.38631 21.6246 5.38631H21.6227C21.6277 5.3469 21.633 5.30162 21.6389 5.25138C21.7035 4.70139 21.8379 3.557 22.3943 2.99944C23.0015 2.39095 24.0347 1.93505 25.4826 2.99944C26.9305 4.06383 27.3864 6.00422 27.3864 6.00422C26.8782 5.57282 25.363 4.61016 23.8404 4.61016Z" fill="white"/>
</svg>
