<svg width="180" height="42" viewBox="0 0 180 42" fill="none" xmlns="http://www.w3.org/2000/svg">
<path d="M102.849 31.9901C102.315 31.3784 101.928 30.6793 101.694 29.8882C101.454 29.0972 101.339 28.0301 101.339 26.6918V6.63916H105.755V26.218C105.755 27.7404 105.921 28.9132 106.257 29.741C106.593 30.5505 107.026 31.2404 107.561 31.8153V31.9947H102.845L102.849 31.9901Z" fill="#080216"/>
<path d="M112.801 31.9903C112.345 31.4568 111.982 30.8175 111.705 30.0678C111.447 29.3182 111.318 28.1914 111.318 26.692V17.7281H108.887V14.2281H111.378V9.31156H115.679V14.2281H118.613V17.7281H115.707V26.1907C115.707 27.7682 115.887 28.9732 116.241 29.8011C116.596 30.6105 117.024 31.282 117.517 31.8155V31.9949H112.801V31.9903Z" fill="#080216"/>
<path d="M51.8887 14.2095H56.084V16.3711H56.3188C57.0971 15.0189 58.7227 13.768 61.1588 13.768C63.595 13.768 65.4232 14.8166 66.441 16.4723H66.7127C67.933 14.6142 69.6922 13.768 71.9948 13.768C75.923 13.768 78.4926 16.4401 78.4926 20.1885V31.9855H74.0947V21.7108C74.0947 19.2778 72.9757 17.8889 70.8803 17.8889C68.785 17.8889 67.4265 19.4112 67.4265 21.812V31.9855H63.0239V21.4395C63.0239 19.2778 61.7391 17.8889 59.7082 17.8889C57.6773 17.8889 56.2912 19.5124 56.2912 21.7752V31.9855H51.8933V14.2095H51.8887Z" fill="#080216"/>
<path d="M81.0303 23.201C81.0303 17.5899 84.7881 13.768 90.0011 13.768C95.7207 13.768 98.8338 17.9946 98.8338 22.9986V24.383H85.2947C85.4282 27.0873 87.2933 28.9132 90.1347 28.9132C92.2991 28.9132 93.9616 27.8968 94.5694 26.4434H98.6634C97.7838 30.063 94.6017 32.427 89.9965 32.427C84.7513 32.427 81.0257 28.5039 81.0257 23.1964L81.0303 23.201ZM94.6385 21.2739C94.4359 18.8731 92.5754 17.2864 90.0011 17.2864C87.4269 17.2864 85.6355 19.0433 85.3638 21.2739H94.6385Z" fill="#080216"/>
<path d="M120.662 23.201C120.662 17.6221 124.047 13.768 128.919 13.768C132 13.768 133.727 15.5938 134.335 16.5045H134.57V14.2049H138.972V31.9855H134.639V29.7226H134.404C133.897 30.4677 132.304 32.427 129.057 32.427C124.084 32.427 120.662 28.7108 120.662 23.1964V23.201ZM134.676 23.132C134.676 19.7837 132.645 17.7555 129.868 17.7555C127.091 17.7555 125.129 19.9861 125.129 23.132C125.129 26.2778 127.059 28.4717 129.9 28.4717C132.741 28.4717 134.671 26.1077 134.671 23.132H134.676Z" fill="#080216"/>
<path d="M142.633 14.2095H146.829V16.3711H147.063C147.773 15.0511 149.536 13.768 152.074 13.768C156.067 13.768 158.503 16.5735 158.503 20.3586V31.9855H154.105V21.5038C154.105 19.3422 152.719 17.8843 150.688 17.8843C148.556 17.8843 147.031 19.5768 147.031 21.8074V31.9809H142.633V14.2095Z" fill="#080216"/>
<path d="M161.045 23.0998C161.045 17.8245 164.904 13.768 170.522 13.768C176.14 13.768 180 17.8245 180 23.0998C180 28.3751 176.071 32.4316 170.522 32.4316C164.973 32.4316 161.045 28.4073 161.045 23.0998ZM175.533 23.0998C175.533 20.0229 173.433 17.7601 170.522 17.7601C167.612 17.7601 165.512 20.0229 165.512 23.0998C165.512 26.1766 167.612 28.4395 170.522 28.4395C173.433 28.4395 175.533 26.2088 175.533 23.0998Z" fill="#080216"/>
<path d="M43.9452 8.38927C42.2581 10.6819 38.628 11.1962 38.2226 9.83044C37.8116 8.46462 39.9228 7.51892 41.0344 7.38705C34.6112 5.63127 35.7752 10.3033 32.2235 10.7535C34.1852 11.7275 36.2254 13.3458 37.6042 13.5436C39.9695 13.8864 43.282 12.5752 43.9452 8.3855" fill="#080216"/>
<path fill-rule="evenodd" clip-rule="evenodd" d="M18.6092 2.52096C18.4859 1.79566 17.9852 1.56395 17.1837 1.2418L17.1781 1.24369C22.3925 -1.22231 25.72 0.554189 27.0614 1.66568C27.8059 2.28254 28.0883 2.86923 28.3551 3.4235C28.569 3.86792 28.7728 4.2915 29.1969 4.69307C29.8321 5.29592 31.0155 6.15568 31.4907 6.50091C31.5382 6.53542 31.5786 6.56479 31.6107 6.58825C31.9638 6.84634 32.1133 7.56221 31.7919 8.05014C31.4706 8.53806 30.6186 9.5384 29.5967 9.37074C28.5747 9.20307 26.3346 8.81499 24.4888 8.49285C22.6429 8.17071 21.3631 7.13646 21.3631 7.13646C21.1314 8.43822 21.9124 9.59303 23.3827 9.97923C23.6682 10.0539 24.0105 10.1318 24.3953 10.2194C26.126 10.6131 28.7161 11.2023 30.8559 12.5771C33.763 14.444 36.0647 17.3904 36.9634 21.9211C37.862 26.4519 36.7392 36.0464 28.7578 39.9856C20.7765 43.9248 13.2155 40.8729 13.2155 40.8729C20.3692 40.5376 24.5579 37.6195 26.1571 35.681C27.2781 34.3208 28.3393 31.8737 27.6929 29.0497C26.9867 25.9583 24.3879 23.611 21.7405 24.0047C19.0931 24.3984 17.9721 27.2732 17.4752 28.6692C16.9782 30.0651 16.2047 31.0956 15.5284 31.2086C14.8521 31.3217 13.8806 31.3575 13.0286 29.2927C12.1767 27.228 9.9011 23.5281 6.88567 24.9165C3.87024 26.3049 3.3247 32.7365 3.3247 32.7365C-0.368922 26.8079 -1.30867 19.2008 2.16449 11.8141C5.63765 4.42744 12.8866 1.70524 12.8866 1.70524C11.59 3.39319 10.1571 8.50415 11.6143 13.1008C13.0716 17.6975 16.6699 20.0015 18.7325 20.3142C20.7951 20.6269 23.2538 19.3986 23.1193 16.8761C23.0091 14.8057 21.2361 13.3344 19.3584 12.4735C18.0188 11.8593 16.6924 10.4427 16.5989 8.2649C16.5055 6.08714 17.4565 4.71002 17.9198 4.1637C18.2841 3.73229 18.7139 3.13699 18.6092 2.52096ZM23.8404 4.61016C22.3177 4.61016 21.6246 5.38631 21.6246 5.38631H21.6227C21.6277 5.3469 21.633 5.30162 21.6389 5.25138C21.7035 4.70139 21.8379 3.557 22.3943 2.99944C23.0015 2.39095 24.0347 1.93505 25.4826 2.99944C26.9305 4.06383 27.3864 6.00422 27.3864 6.00422C26.8782 5.57282 25.363 4.61016 23.8404 4.61016Z" fill="#080216"/>
</svg>
