<svg width="68" height="68" viewBox="0 0 68 68" fill="none" xmlns="http://www.w3.org/2000/svg">
<path fill-rule="evenodd" clip-rule="evenodd" d="M34 62.4931C49.7363 62.4931 62.4931 49.7363 62.4931 34C62.4931 18.2637 49.7363 5.50685 34 5.50685C18.2637 5.50685 5.50685 18.2637 5.50685 34C5.50685 49.7363 18.2637 62.4931 34 62.4931ZM34 66C51.6731 66 66 51.6731 66 34C66 16.3269 51.6731 2 34 2C16.3269 2 2 16.3269 2 34C2 51.6731 16.3269 66 34 66Z" fill="url(#paint0_linear_1892_31930)"/>
<path fill-rule="evenodd" clip-rule="evenodd" d="M33.9684 10.7671C34.9368 10.7671 35.7219 11.5522 35.7219 12.5205V20.8493C35.7219 21.8177 34.9368 22.6027 33.9684 22.6027C33 22.6027 32.215 21.8177 32.215 20.8493V12.5205C32.215 11.5522 33 10.7671 33.9684 10.7671Z" fill="url(#paint1_linear_1892_31930)"/>
<path fill-rule="evenodd" clip-rule="evenodd" d="M33.9684 45.8356C34.9368 45.8356 35.7219 46.6207 35.7219 47.589V55.9178C35.7219 56.8862 34.9368 57.6712 33.9684 57.6712C33 57.6712 32.215 56.8862 32.215 55.9178V47.589C32.215 46.6207 33 45.8356 33.9684 45.8356Z" fill="url(#paint2_linear_1892_31930)"/>
<path fill-rule="evenodd" clip-rule="evenodd" d="M10.5164 34.2192C10.5164 33.2508 11.3014 32.4658 12.2698 32.4658H20.5986C21.567 32.4658 22.352 33.2508 22.352 34.2192C22.352 35.1876 21.567 35.9726 20.5986 35.9726H12.2698C11.3014 35.9726 10.5164 35.1876 10.5164 34.2192Z" fill="url(#paint3_linear_1892_31930)"/>
<path fill-rule="evenodd" clip-rule="evenodd" d="M50.5515 17.6361C51.2363 18.3208 51.2363 19.431 50.5515 20.1158L45.9479 24.7194C45.2632 25.4041 44.153 25.4041 43.4682 24.7194C42.7835 24.0346 42.7835 22.9244 43.4682 22.2397L48.0718 17.6361C48.7566 16.9513 49.8668 16.9513 50.5515 17.6361Z" fill="url(#paint4_linear_1892_31930)"/>
<path fill-rule="evenodd" clip-rule="evenodd" d="M25.7544 42.4332C26.4391 43.118 26.4391 44.2282 25.7544 44.913L19.865 50.8023C19.1803 51.487 18.0701 51.487 17.3853 50.8023C16.7006 50.1175 16.7006 49.0073 17.3853 48.3226L23.2747 42.4332C23.9594 41.7485 25.0696 41.7485 25.7544 42.4332Z" fill="url(#paint5_linear_1892_31930)"/>
<path fill-rule="evenodd" clip-rule="evenodd" d="M17.3853 17.6361C18.0701 16.9513 19.1803 16.9513 19.865 17.6361L25.7544 23.5254C26.4391 24.2102 26.4391 25.3204 25.7544 26.0051C25.0696 26.6899 23.9594 26.6899 23.2747 26.0051L17.3853 20.1158C16.7006 19.431 16.7006 18.3208 17.3853 17.6361Z" fill="url(#paint6_linear_1892_31930)"/>
<path fill-rule="evenodd" clip-rule="evenodd" d="M43.7191 43.9695C44.4039 43.2847 45.5141 43.2848 46.1989 43.9696L50.5516 48.3226C51.2363 49.0074 51.2363 50.1176 50.5515 50.8023C49.8667 51.4871 48.7565 51.487 48.0718 50.8022L43.719 46.4492C43.0343 45.7644 43.0344 44.6542 43.7191 43.9695Z" fill="url(#paint7_linear_1892_31930)"/>
<path fill-rule="evenodd" clip-rule="evenodd" d="M31.0963 34.6803C31.0963 36.2666 32.3822 37.5524 33.9684 37.5524L50.8539 37.5524C52.4401 37.5524 53.726 36.2665 53.726 34.6803C53.726 33.0941 52.4401 31.8082 50.8539 31.8082L33.9684 31.8082C32.3822 31.8082 31.0963 33.0941 31.0963 34.6803ZM33.9684 41.0593C30.4454 41.0593 27.5895 38.2033 27.5895 34.6803C27.5895 31.1573 30.4454 28.3014 33.9684 28.3014L50.8539 28.3014C54.3769 28.3014 57.2329 31.1573 57.2329 34.6803C57.2329 38.2033 54.3769 41.0593 50.8539 41.0593L33.9684 41.0593Z" fill="url(#paint8_linear_1892_31930)"/>
<defs>
<linearGradient id="paint0_linear_1892_31930" x1="53.2771" y1="50.4324" x2="5.11627" y2="39.5423" gradientUnits="userSpaceOnUse">
<stop stop-color="#3A64FA"/>
<stop offset="0.942707" stop-color="#F963BC"/>
</linearGradient>
<linearGradient id="paint1_linear_1892_31930" x1="53.2771" y1="50.4324" x2="5.11627" y2="39.5423" gradientUnits="userSpaceOnUse">
<stop stop-color="#3A64FA"/>
<stop offset="0.942707" stop-color="#F963BC"/>
</linearGradient>
<linearGradient id="paint2_linear_1892_31930" x1="53.2771" y1="50.4324" x2="5.11627" y2="39.5423" gradientUnits="userSpaceOnUse">
<stop stop-color="#3A64FA"/>
<stop offset="0.942707" stop-color="#F963BC"/>
</linearGradient>
<linearGradient id="paint3_linear_1892_31930" x1="53.2771" y1="50.4324" x2="5.11627" y2="39.5423" gradientUnits="userSpaceOnUse">
<stop stop-color="#3A64FA"/>
<stop offset="0.942707" stop-color="#F963BC"/>
</linearGradient>
<linearGradient id="paint4_linear_1892_31930" x1="53.2771" y1="50.4324" x2="5.11627" y2="39.5423" gradientUnits="userSpaceOnUse">
<stop stop-color="#3A64FA"/>
<stop offset="0.942707" stop-color="#F963BC"/>
</linearGradient>
<linearGradient id="paint5_linear_1892_31930" x1="53.2771" y1="50.4324" x2="5.11627" y2="39.5423" gradientUnits="userSpaceOnUse">
<stop stop-color="#3A64FA"/>
<stop offset="0.942707" stop-color="#F963BC"/>
</linearGradient>
<linearGradient id="paint6_linear_1892_31930" x1="53.2771" y1="50.4324" x2="5.11627" y2="39.5423" gradientUnits="userSpaceOnUse">
<stop stop-color="#3A64FA"/>
<stop offset="0.942707" stop-color="#F963BC"/>
</linearGradient>
<linearGradient id="paint7_linear_1892_31930" x1="53.2771" y1="50.4324" x2="5.11627" y2="39.5423" gradientUnits="userSpaceOnUse">
<stop stop-color="#3A64FA"/>
<stop offset="0.942707" stop-color="#F963BC"/>
</linearGradient>
<linearGradient id="paint8_linear_1892_31930" x1="53.2771" y1="50.4324" x2="5.11627" y2="39.5423" gradientUnits="userSpaceOnUse">
<stop stop-color="#3A64FA"/>
<stop offset="0.942707" stop-color="#F963BC"/>
</linearGradient>
</defs>
</svg>
