<svg width="40" height="40" viewBox="0 0 40 40" fill="none" xmlns="http://www.w3.org/2000/svg">
<path d="M10.1587 6.98413C10.1587 8.38675 9.02168 9.52381 7.61905 9.52381C6.21642 9.52381 5.07937 8.38675 5.07937 6.98413C5.07937 5.5815 6.21642 4.44444 7.61905 4.44444C9.02168 4.44444 10.1587 5.5815 10.1587 6.98413Z" fill="url(#paint0_linear_1414_31296)"/>
<path d="M5.07937 19.6825C5.07937 21.0852 3.94231 22.2222 2.53968 22.2222C1.13705 22.2222 0 21.0852 0 19.6825C0 18.2799 1.13705 17.1429 2.53968 17.1429C3.94231 17.1429 5.07937 18.2799 5.07937 19.6825Z" fill="url(#paint1_linear_1414_31296)"/>
<path d="M22.8571 37.4603C22.8571 38.8629 21.7201 40 20.3175 40C18.9148 40 17.7778 38.8629 17.7778 37.4603C17.7778 36.0577 18.9148 34.9206 20.3175 34.9206C21.7201 34.9206 22.8571 36.0577 22.8571 37.4603Z" fill="url(#paint2_linear_1414_31296)"/>
<path d="M10.1587 32.381C10.1587 33.7836 9.02168 34.9206 7.61905 34.9206C6.21642 34.9206 5.07937 33.7836 5.07937 32.381C5.07937 30.9783 6.21642 29.8413 7.61905 29.8413C9.02168 29.8413 10.1587 30.9783 10.1587 32.381Z" fill="url(#paint3_linear_1414_31296)"/>
<path fill-rule="evenodd" clip-rule="evenodd" d="M19.6825 0C18.6306 0 17.7778 0.852791 17.7778 1.90476V20.3175C17.7778 20.8226 17.9785 21.3071 18.3357 21.6643L30.8791 34.2078C30.9695 34.408 31.0964 34.5959 31.2597 34.7614C31.9987 35.5101 33.2047 35.5181 33.9534 34.7792C37.6842 31.0974 40 25.9761 40 20.3175C40 9.09644 30.9036 0 19.6825 0ZM21.5873 3.91823V19.5285L32.6249 30.5661C34.8585 27.7498 36.1905 24.1904 36.1905 20.3175C36.1905 11.8446 29.8072 4.86261 21.5873 3.91823Z" fill="url(#paint4_linear_1414_31296)"/>
<defs>
<linearGradient id="paint0_linear_1414_31296" x1="32.0482" y1="30.2703" x2="1.94767" y2="23.4639" gradientUnits="userSpaceOnUse">
<stop stop-color="#3A64FA"/>
<stop offset="0.942707" stop-color="#F963BC"/>
</linearGradient>
<linearGradient id="paint1_linear_1414_31296" x1="32.0482" y1="30.2703" x2="1.94767" y2="23.4639" gradientUnits="userSpaceOnUse">
<stop stop-color="#3A64FA"/>
<stop offset="0.942707" stop-color="#F963BC"/>
</linearGradient>
<linearGradient id="paint2_linear_1414_31296" x1="32.0482" y1="30.2703" x2="1.94767" y2="23.4639" gradientUnits="userSpaceOnUse">
<stop stop-color="#3A64FA"/>
<stop offset="0.942707" stop-color="#F963BC"/>
</linearGradient>
<linearGradient id="paint3_linear_1414_31296" x1="32.0482" y1="30.2703" x2="1.94767" y2="23.4639" gradientUnits="userSpaceOnUse">
<stop stop-color="#3A64FA"/>
<stop offset="0.942707" stop-color="#F963BC"/>
</linearGradient>
<linearGradient id="paint4_linear_1414_31296" x1="32.0482" y1="30.2703" x2="1.94767" y2="23.4639" gradientUnits="userSpaceOnUse">
<stop stop-color="#3A64FA"/>
<stop offset="0.942707" stop-color="#F963BC"/>
</linearGradient>
</defs>
</svg>
