<svg width="64" height="68" viewBox="0 0 64 68" fill="none" xmlns="http://www.w3.org/2000/svg">
<path fill-rule="evenodd" clip-rule="evenodd" d="M33.9775 12.7063C33.9775 13.1719 33.9478 13.6306 33.8902 14.0805L47.4177 18.6768C48.7259 16.7398 50.9418 15.4662 53.4552 15.4662C57.476 15.4662 60.7355 18.7257 60.7355 22.7465C60.7355 26.7672 57.476 30.0267 53.4552 30.0267C51.0966 30.0267 48.9999 28.9051 47.6695 27.1661L17.9575 39.4005L44.3488 41.7997C45.6818 37.9389 49.3479 35.1658 53.6617 35.1658C59.1016 35.1658 63.5115 39.5757 63.5115 45.0156C63.5115 50.4555 59.1016 54.8654 53.6617 54.8654C50.1235 54.8654 47.0211 52.9999 45.2843 50.1988L30.429 57.8516C30.5094 58.2713 30.5515 58.7047 30.5515 59.148C30.5515 62.9322 27.4837 66 23.6994 66C19.9151 66 16.8474 62.9322 16.8474 59.148C16.8474 55.3637 19.9151 52.2959 23.6994 52.2959C25.503 52.2959 27.1439 52.9928 28.3674 54.1319L43.8756 46.1428C43.8711 46.1032 43.8669 46.0635 43.8628 46.0238L13.3509 43.25C12.4217 44.5765 10.8816 45.4439 9.13903 45.4439C6.30082 45.4439 4 43.1431 4 40.3049C4 37.4666 6.30082 35.1658 9.13903 35.1658C10.6396 35.1658 11.99 35.809 12.9295 36.8347L46.1758 22.8623C46.1752 22.8238 46.1749 22.7851 46.1749 22.7465C46.1749 22.7014 46.1753 22.6564 46.1761 22.6115L32.5525 18.047C30.7031 21.254 27.2392 23.4126 23.2712 23.4126C17.3583 23.4126 12.5649 18.6193 12.5649 12.7063C12.5649 6.79338 17.3583 2 23.2712 2C29.1842 2 33.9775 6.79338 33.9775 12.7063Z" fill="url(#paint0_linear_1875_28537)"/>
<defs>
<linearGradient id="paint0_linear_1875_28537" x1="51.6809" y1="50.4324" x2="6.60092" y2="40.9538" gradientUnits="userSpaceOnUse">
<stop stop-color="#3A64FA"/>
<stop offset="0.942707" stop-color="#F963BC"/>
</linearGradient>
</defs>
</svg>
