<svg width="19" height="15" viewBox="0 0 19 15" fill="none" xmlns="http://www.w3.org/2000/svg">
<path d="M1.5 6.5C0.947717 6.5 0.500003 6.94772 0.500003 7.5C0.500003 8.05228 0.947717 8.5 1.5 8.5V6.5ZM18.2071 8.20711C18.5976 7.81658 18.5976 7.18342 18.2071 6.79289L11.8431 0.42895C11.4526 0.0384264 10.8194 0.0384264 10.4289 0.42895C10.0384 0.819473 10.0384 1.45264 10.4289 1.84316L16.0857 7.5L10.4289 13.1568C10.0384 13.5474 10.0384 14.1805 10.4289 14.5711C10.8194 14.9616 11.4526 14.9616 11.8431 14.5711L18.2071 8.20711ZM1.5 8.5H17.5V6.5H1.5V8.5Z" fill="#3A64FA"/>
</svg>
