<svg width="22" height="22" viewBox="0 0 22 22" fill="none" xmlns="http://www.w3.org/2000/svg">
<path d="M8.06724 0C6.85027 0 5.86982 0.983984 5.86982 2.2C5.86982 2.78008 6.10203 3.34297 6.51055 3.75547C6.92338 4.16797 7.48241 4.4 8.06724 4.4H10.2647V2.2C10.2647 0.988281 9.28421 0.00429688 8.06724 0ZM8.06724 5.86523H2.19742C0.980453 5.86523 0 6.84922 0 8.06523C0 9.28125 0.984754 10.2652 2.19742 10.2652H8.06294C9.27991 10.2652 10.2604 9.28125 10.2604 8.06523C10.2647 6.85352 9.27991 5.86523 8.06724 5.86523ZM13.9328 10.2652C15.1497 10.2652 16.1345 9.28125 16.1302 8.06523V2.2C16.1302 0.983984 15.1454 0 13.9328 0C12.7201 0 11.7353 0.983984 11.7353 2.2V8.06523C11.7353 9.28555 12.7158 10.2652 13.9328 10.2652ZM22 8.06523C22 6.84922 21.0152 5.86523 19.8026 5.86523C18.5899 5.86523 17.6052 6.84922 17.6052 8.06523V10.2652H19.8026C21.0152 10.2652 22 9.28125 22 8.06523ZM19.7983 11.7348H13.9328C12.7158 11.7348 11.7353 12.7187 11.7353 13.9348C11.7353 14.5148 11.9676 15.0777 12.3761 15.4902C12.7889 15.9027 13.3479 16.1348 13.9328 16.1348H19.7983C21.0152 16.1348 21.9957 15.1508 21.9957 13.9348C22 12.7187 21.0152 11.7348 19.7983 11.7348ZM13.9328 17.6H11.7353V19.8C11.7353 21.016 12.7201 22 13.9328 22C15.1454 22 16.1345 21.016 16.1302 19.8C16.1345 18.584 15.1497 17.6043 13.9328 17.6ZM8.06724 11.7348C6.85027 11.7348 5.86982 12.7187 5.86982 13.9348V19.8C5.86982 21.016 6.85457 22 8.06724 22C9.27991 22 10.269 21.016 10.2647 19.8V13.9348C10.2647 13.3547 10.0324 12.7918 9.62393 12.3793C9.2111 11.9668 8.64777 11.7348 8.06724 11.7348ZM0 13.9348C0 14.5148 0.232213 15.0777 0.640735 15.4902C1.05356 15.9027 1.61259 16.1348 2.19742 16.1348C3.41439 16.1348 4.39914 15.1508 4.39484 13.9348V11.7348H2.19742C0.984754 11.7348 0 12.7187 0 13.9348Z" fill="#080216"/>
</svg>
