<svg width="52" height="52" viewBox="0 0 52 52" fill="none" xmlns="http://www.w3.org/2000/svg">
<path fill-rule="evenodd" clip-rule="evenodd" d="M40.8445 26.0205C41.1446 26.3206 41.5516 26.4893 41.976 26.4893C42.4004 26.4894 42.8074 26.3208 43.1075 26.0207L47.6253 21.5029C48.2502 20.878 48.2502 19.865 47.6253 19.2401C47.0005 18.6153 45.9874 18.6153 45.3626 19.2401L43.4917 21.111V12.7667C43.4917 12.3423 43.3231 11.9354 43.0231 11.6353C42.723 11.3353 42.316 11.1667 41.8917 11.1667L23.0444 11.1667C22.2789 6.42278 18.1652 2.7998 13.2053 2.7998C7.7007 2.7998 3.23837 7.26213 3.23837 12.7667C3.23837 18.2712 7.7007 22.7336 13.2052 22.7336C18.1652 22.7336 22.2789 19.1106 23.0444 14.3667L40.2917 14.3667V20.941L38.1266 18.775C37.5019 18.1501 36.4888 18.1499 35.8639 18.7746C35.2389 19.3993 35.2387 20.4124 35.8634 21.0373L40.8445 26.0205ZM19.9721 12.7667C19.9721 16.5039 16.9425 19.5336 13.2052 19.5336C9.46801 19.5336 6.43837 16.5039 6.43837 12.7667C6.43837 9.02944 9.46801 5.9998 13.2053 5.9998C16.9425 5.99981 19.9721 9.02944 19.9721 12.7667ZM10.4496 25.9792C10.1496 25.679 9.74258 25.5103 9.31817 25.5103C8.89377 25.5103 8.48674 25.6788 8.18664 25.9789L3.66882 30.4967C3.04399 31.1216 3.04399 32.1346 3.66882 32.7595C4.29366 33.3843 5.30673 33.3843 5.93157 32.7595L7.80245 30.8886L7.80245 39.2329C7.80245 39.6573 7.97102 40.0642 8.27108 40.3643C8.57113 40.6643 8.9781 40.8329 9.40245 40.8329H28.2498C29.0153 45.5768 33.129 49.1998 38.0889 49.1998C43.5934 49.1998 48.0558 44.7375 48.0558 39.2329C48.0558 33.7284 43.5934 29.266 38.0889 29.266C33.129 29.266 29.0153 32.889 28.2498 37.6329H11.0024L11.0024 31.0586L13.1675 33.2246C13.7922 33.8495 14.8053 33.8497 15.4303 33.225C16.0552 32.6003 16.0554 31.5872 15.4307 30.9623L10.4496 25.9792ZM31.322 39.2329C31.322 35.4957 34.3516 32.466 38.0889 32.466C41.8261 32.466 44.8558 35.4957 44.8558 39.2329C44.8558 42.9702 41.8261 45.9998 38.0889 45.9998C34.3516 45.9998 31.322 42.9702 31.322 39.2329Z" fill="url(#paint0_linear_1975_29314)"/>
<defs>
<linearGradient id="paint0_linear_1975_29314" x1="39.1693" y1="37.9133" x2="5.28086" y2="30.4992" gradientUnits="userSpaceOnUse">
<stop stop-color="#3A64FA"/>
<stop offset="0.942707" stop-color="#F963BC"/>
</linearGradient>
</defs>
</svg>
