<svg width="52" height="52" viewBox="0 0 52 52" fill="none" xmlns="http://www.w3.org/2000/svg">
<path fill-rule="evenodd" clip-rule="evenodd" d="M25.9013 5.20554C25.8132 5.20249 25.725 5.20077 25.6369 5.2004C25.6114 5.1998 25.586 5.1998 25.5607 5.20041C22.7071 5.21336 19.8591 6.63202 18.2285 9.45638L18.2284 9.45636L18.2235 9.46507L3.47384 35.3855C3.39668 35.5211 3.34151 35.6632 3.30719 35.8077C2.72838 36.8954 2.40039 38.1369 2.40039 39.455C2.40039 43.7491 5.88145 47.2301 10.1755 47.2301C13.9384 47.2301 17.077 44.5571 17.7959 41.0062C17.8561 40.9991 17.9155 40.9886 17.9739 40.9748C18.6806 44.5413 21.8266 47.2301 25.6005 47.2301C29.429 47.2301 32.6111 44.4631 33.2563 40.8199C33.2969 40.8422 33.3385 40.8627 33.381 40.8814C34.0508 44.4942 37.2187 47.2301 41.0255 47.2301C45.3196 47.2301 48.8007 43.7491 48.8007 39.455C48.8007 37.8611 48.3211 36.3793 47.4984 35.1459L32.979 9.46883L32.9719 9.45638C31.4785 6.86985 28.9642 5.46225 26.3596 5.23359C26.2114 5.2026 26.0573 5.19244 25.9013 5.20554ZM25.8168 12.6398L20.7317 33.3927C22.0642 32.3211 23.7575 31.6798 25.6005 31.6798C27.7088 31.6798 29.6211 32.5189 31.0217 33.8814L25.8168 12.6398ZM34.6066 35.0661C36.0074 33.0213 38.3598 31.6798 41.0256 31.6798C41.3174 31.6798 41.6056 31.6959 41.8891 31.7272L30.1973 11.0506C29.6982 10.1885 29.0172 9.53673 28.2429 9.09527L34.6066 35.0661ZM16.906 35.5596L23.4514 8.84727C22.4737 9.2751 21.605 10.0101 21.0022 11.0522L9.23207 31.7365C9.54134 31.6991 9.85619 31.6798 10.1755 31.6798C13.0502 31.6798 15.5606 33.2399 16.906 35.5596ZM10.1755 34.8798C7.64876 34.8798 5.60039 36.9282 5.60039 39.455C5.60039 41.9817 7.64876 44.0301 10.1755 44.0301C12.7023 44.0301 14.7507 41.9817 14.7507 39.455C14.7507 36.9282 12.7023 34.8798 10.1755 34.8798ZM21.0254 39.455C21.0254 36.9282 23.0738 34.8798 25.6005 34.8798C28.1273 34.8798 30.1757 36.9282 30.1757 39.455C30.1757 41.9818 28.1273 44.0301 25.6005 44.0301C23.0738 44.0301 21.0254 41.9818 21.0254 39.455ZM36.4504 39.455C36.4504 36.9282 38.4988 34.8798 41.0256 34.8798C43.5523 34.8798 45.6007 36.9282 45.6007 39.455C45.6007 41.9818 43.5523 44.0301 41.0255 44.0301C38.4988 44.0301 36.4504 41.9818 36.4504 39.455Z" fill="url(#paint0_linear_1975_29422)"/>
<defs>
<linearGradient id="paint0_linear_1975_29422" x1="45.7726" y1="48.934" x2="4.7919" y2="40.254" gradientUnits="userSpaceOnUse">
<stop stop-color="#3A64FA"/>
<stop offset="0.942707" stop-color="#F963BC"/>
</linearGradient>
</defs>
</svg>
