<svg width="52" height="52" viewBox="0 0 52 52" fill="none" xmlns="http://www.w3.org/2000/svg">
<path fill-rule="evenodd" clip-rule="evenodd" d="M4.00195 2.59985C3.1183 2.59985 2.40195 3.3162 2.40195 4.19985V21.7736C2.40091 21.7973 2.40039 21.821 2.40039 21.8449C2.40039 21.8689 2.40091 21.8926 2.40195 21.9163V39.4187C2.40091 39.4423 2.40039 39.4661 2.40039 39.49C2.40039 40.3737 3.11674 41.09 4.00039 41.09H9.63744C10.3851 43.2191 12.4199 44.7407 14.8033 44.7407C17.0436 44.7407 18.9758 43.3965 19.8207 41.467C22.2603 42.3477 23.9983 44.6738 24.0004 47.3949V47.3999C24.0004 48.2835 24.7167 48.9999 25.6004 48.9999C26.484 48.9999 27.2004 48.2835 27.2004 47.3999L27.2004 47.396C27.202 44.6734 28.9414 42.3461 31.3827 41.466C32.2275 43.396 34.1599 44.7407 36.4006 44.7407C38.784 44.7407 40.8188 43.2191 41.5665 41.09H47.2004C48.084 41.09 48.8004 40.3737 48.8004 39.49L48.8003 39.4731C48.8014 39.4488 48.8019 39.4244 48.8019 39.3999V4.19985C48.8019 3.3162 48.0856 2.59985 47.202 2.59985H33.5491C30.8178 2.59985 28.3529 3.74373 26.6133 5.57467C26.222 5.48607 25.8149 5.43931 25.3971 5.43931C25.101 5.43931 24.8102 5.4628 24.5267 5.50803C22.791 3.71608 20.3527 2.59985 17.6548 2.59985H4.00195ZM21.4864 7.07856C20.4215 6.27553 19.0947 5.79985 17.6548 5.79985H5.60195V20.2449H6.7129C7.39961 18.0104 9.48705 16.3915 11.9455 16.3915C14.404 16.3915 16.4914 18.0104 17.1782 20.2449H17.6532C20.088 20.2449 22.3124 21.1538 24.0004 22.6509V16.1669C21.6589 15.5522 19.9254 13.4287 19.9254 10.8928C19.9254 9.40597 20.5213 8.06088 21.4864 7.07856ZM27.2004 16.043V22.6509C28.8884 21.1538 31.1128 20.2449 33.5476 20.2449H34.0195C34.7062 18.0103 36.7936 16.3914 39.2521 16.3914C41.7106 16.3914 43.7981 18.0103 44.4848 20.2449H45.602V5.79985H33.5491C32.0013 5.79985 30.584 6.3496 29.4824 7.26471C30.3442 8.22761 30.8688 9.49783 30.8688 10.8928C30.8688 13.2796 29.3332 15.301 27.2004 16.043ZM24.521 8.81275C24.5458 8.80367 24.5705 8.79393 24.595 8.78355C24.844 8.69038 25.1142 8.63931 25.3971 8.63931C26.6588 8.63931 27.6688 9.65534 27.6688 10.8928C27.6688 12.1303 26.6588 13.1464 25.3971 13.1464C24.1354 13.1464 23.1254 12.1303 23.1254 10.8928C23.1254 9.9605 23.6987 9.15388 24.521 8.81275ZM36.4006 33.8337C33.7493 33.8337 31.5295 35.7165 31.0327 38.2238C29.5914 38.615 28.2851 39.3341 27.2004 40.2961V29.7573L27.2004 29.7548L27.2004 29.7515C27.2022 26.2753 30.0361 23.4449 33.5476 23.4449H34.0195C34.7062 25.6795 36.7936 27.2985 39.2521 27.2985C41.7106 27.2985 43.7981 25.6795 44.4848 23.4449H45.602V37.89H41.6912C41.0715 35.5512 38.9328 33.8337 36.4006 33.8337ZM9.67468 21.9071C9.67547 21.8865 9.67586 21.8658 9.67586 21.8449C9.67586 21.8242 9.67547 21.8035 9.67468 21.7828C9.70781 20.5737 10.705 19.5915 11.9455 19.5915C13.2073 19.5915 14.2172 20.6075 14.2172 21.845C14.2172 23.0825 13.2073 24.0985 11.9455 24.0985C10.705 24.0985 9.70779 23.1163 9.67468 21.9071ZM6.71288 23.4449H5.60195V37.89H9.5127C10.1325 35.5512 12.2711 33.8337 14.8033 33.8337C17.4549 33.8337 19.6749 35.7169 20.1714 38.2247C21.6114 38.6161 22.9165 39.3349 24.0004 40.2961L24.0004 29.7573V29.7548L24.0004 29.7499C23.9977 26.2744 21.1641 23.4449 17.6532 23.4449H17.1782C16.4915 25.6796 14.404 27.2985 11.9455 27.2985C9.48703 27.2985 7.39957 25.6796 6.71288 23.4449ZM12.5316 39.2872C12.5316 38.0497 13.5416 37.0337 14.8033 37.0337C16.0651 37.0337 17.075 38.0497 17.075 39.2872C17.075 40.5247 16.0651 41.5407 14.8033 41.5407C13.5416 41.5407 12.5316 40.5247 12.5316 39.2872ZM36.4006 37.0337C37.6623 37.0337 38.6723 38.0497 38.6723 39.2872C38.6723 40.5247 37.6623 41.5407 36.4006 41.5407C35.1388 41.5407 34.1289 40.5247 34.1289 39.2872C34.1289 38.0497 35.1388 37.0337 36.4006 37.0337ZM39.2521 19.5914C40.5139 19.5914 41.5238 20.6075 41.5238 21.8449C41.5238 23.0824 40.5139 24.0985 39.2521 24.0985C37.9904 24.0985 36.9804 23.0824 36.9804 21.8449C36.9804 20.6075 37.9904 19.5914 39.2521 19.5914Z" fill="url(#paint0_linear_1975_29344)"/>
<defs>
<linearGradient id="paint0_linear_1975_29344" x1="25.6012" y1="49.7999" x2="51.183" y2="7.61686" gradientUnits="userSpaceOnUse">
<stop stop-color="#3A64FA"/>
<stop offset="1" stop-color="#F963BC"/>
</linearGradient>
</defs>
</svg>
