<svg width="52" height="52" viewBox="0 0 52 52" fill="none" xmlns="http://www.w3.org/2000/svg">
<path fill-rule="evenodd" clip-rule="evenodd" d="M21.658 12.6893C21.658 10.3204 23.5784 8.39995 25.9474 8.39995C28.3163 8.39995 30.2368 10.3204 30.2368 12.6893C30.2368 15.0583 28.3163 16.9787 25.9474 16.9787C23.5784 16.9787 21.658 15.0583 21.658 12.6893ZM19.1406 15.8175C14.9715 17.8929 11.9303 21.8951 11.1807 26.6525C11.0432 27.5253 10.2241 28.1215 9.35117 27.9839C8.47829 27.8464 7.88217 27.0273 8.0197 26.1544C8.97825 20.0708 13.0024 15.0123 18.4585 12.6037C18.5044 8.50689 21.8397 5.19995 25.9474 5.19995C30.0837 5.19995 33.4368 8.55306 33.4368 12.6893C33.4368 16.8256 30.0837 20.1787 25.9474 20.1787C22.9278 20.1787 20.3256 18.3917 19.1406 15.8175ZM40.3098 29.8679C37.4877 29.6075 34.6389 30.9684 33.1297 33.5842C31.0626 37.1669 32.2912 41.7469 35.8739 43.814C39.4566 45.8811 44.0367 44.6525 46.1038 41.0698C48.1564 37.5121 46.9593 32.971 43.4344 30.8836C44.0675 25.0236 41.7601 19.0818 37.0824 15.207C36.4019 14.6433 35.3933 14.738 34.8296 15.4185C34.2659 16.099 34.3606 17.1077 35.0411 17.6714C38.6969 20.6997 40.5922 25.277 40.3098 29.8679ZM41.7603 33.6117C43.8123 34.7955 44.5159 37.4187 43.3321 39.4706C42.1482 41.5225 39.525 42.2262 37.4731 41.0423C35.4212 39.8584 34.7175 37.2353 35.9014 35.1834C37.0853 33.1314 39.7084 32.4278 41.7603 33.6117ZM17.6315 41.2282C19.2536 38.9044 19.48 35.7556 17.9533 33.1502C15.8622 29.5815 11.2739 28.3836 7.70521 30.4748C4.13648 32.5659 2.93866 37.1541 5.0298 40.7229C7.1064 44.2668 11.6455 45.4727 15.2033 43.4414C20.0005 46.903 26.3344 47.8311 32.032 45.6521C32.8573 45.3364 33.2705 44.4114 32.9549 43.5861C32.6392 42.7607 31.7143 42.3475 30.8889 42.6632C26.4352 44.3665 21.4965 43.7544 17.6315 41.2282ZM13.6601 40.6374C11.6162 41.835 8.98838 41.149 7.79073 39.1051C6.59307 37.0612 7.2791 34.4334 9.32301 33.2357C11.3669 32.038 13.9947 32.7241 15.1924 34.768C16.39 36.8119 15.704 39.4397 13.6601 40.6374Z" fill="url(#paint0_linear_1975_29364)"/>
<defs>
<linearGradient id="paint0_linear_1975_29364" x1="25.9591" y1="41.9035" x2="30.5387" y2="20.9295" gradientUnits="userSpaceOnUse">
<stop stop-color="#3A64FA"/>
<stop offset="0.942707" stop-color="#F963BC"/>
</linearGradient>
</defs>
</svg>
