<svg width="65" height="69" viewBox="0 0 65 69" fill="none" xmlns="http://www.w3.org/2000/svg">
<path d="M33.5645 32.9329C42.6458 41.1371 54.9109 41.0666 62.0208 39.0696C60.5225 53.2214 48.163 64.3182 33.5645 64.3182C18.966 64.3182 6.60646 53.2214 5.10822 39.0696C12.218 41.0666 24.4832 41.1371 33.5645 32.9329ZM42.6951 12.9848C42.6951 17.7713 38.8149 21.6515 34.0285 21.6515C29.242 21.6515 25.3618 17.7713 25.3618 12.9848C25.3618 8.19838 29.242 4.31818 34.0285 4.31818C38.8149 4.31818 42.6951 8.19838 42.6951 12.9848ZM16.7239 23.1877C16.7239 25.9252 14.5048 28.1443 11.7674 28.1443C9.03 28.1443 6.81089 25.9252 6.81089 23.1877C6.81089 20.4503 9.03 18.2312 11.7674 18.2312C14.5048 18.2312 16.7239 20.4503 16.7239 23.1877ZM60.318 23.1877C60.318 25.9252 58.0989 28.1443 55.3615 28.1443C52.6241 28.1443 50.405 25.9252 50.405 23.1877C50.405 20.4503 52.6241 18.2312 55.3615 18.2312C58.0989 18.2312 60.318 20.4503 60.318 23.1877Z" stroke="url(#paint0_linear_1875_28542)" stroke-width="4"/>
<defs>
<linearGradient id="paint0_linear_1875_28542" x1="51.9768" y1="50.7506" x2="5.77938" y2="40.773" gradientUnits="userSpaceOnUse">
<stop stop-color="#3A64FA"/>
<stop offset="0.942707" stop-color="#F963BC"/>
</linearGradient>
</defs>
</svg>
